<svg id="Capa_1" data-name="Capa 1" xmlns="http://www.w3.org/2000/svg" xmlns:xlink="http://www.w3.org/1999/xlink" viewBox="0 0 400 300"><defs><style>.cls-1{fill:none;}.cls-2{fill:#fff;}.cls-3{clip-path:url(#clip-path);}.cls-4{fill:url(#Degradado_sin_nombre);}.cls-5{fill:url(#Degradado_sin_nombre_2);}.cls-6{fill:url(#Degradado_sin_nombre_3);}.cls-7{fill:url(#Degradado_sin_nombre_4);}.cls-8{fill:url(#Degradado_sin_nombre_5);}.cls-9{fill:url(#Degradado_sin_nombre_6);}.cls-10{fill:url(#Degradado_sin_nombre_7);}.cls-11{fill:url(#Degradado_sin_nombre_8);}</style><clipPath id="clip-path"><rect class="cls-1" x="92" y="69" width="216" height="162"/></clipPath><linearGradient id="Degradado_sin_nombre" x1="-107.77" y1="537.22" x2="-107.77" y2="540.4" gradientTransform="matrix(43.62, 0, 0, -37.83, 4945.47, 20542.05)" gradientUnits="userSpaceOnUse"><stop offset="0" stop-color="#a42326"/><stop offset="0.83" stop-color="#bd212a"/><stop offset="1" stop-color="#c3212c"/></linearGradient><linearGradient id="Degradado_sin_nombre_2" x1="-102.98" y1="544.38" x2="-102.98" y2="545.29" gradientTransform="matrix(44.21, 0, 0, -128.92, 4796.91, 70381.9)" xlink:href="#Degradado_sin_nombre"/><linearGradient id="Degradado_sin_nombre_3" x1="-103.4" y1="544.53" x2="-103.4" y2="545.4" gradientTransform="matrix(90.42, 0, 0, -134.78, 9555.14, 73593.28)" xlink:href="#Degradado_sin_nombre"/><linearGradient id="Degradado_sin_nombre_4" x1="-102.51" y1="544.6" x2="-102.51" y2="545.47" gradientTransform="matrix(68.5, 0, 0, -134.12, 7184.43, 73242.97)" xlink:href="#Degradado_sin_nombre"/><linearGradient id="Degradado_sin_nombre_5" x1="-103.14" y1="545.22" x2="-103.14" y2="545.73" gradientTransform="matrix(118.9, 0, 0, -232.91, 12396.83, 127190.46)" xlink:href="#Degradado_sin_nombre"/><linearGradient id="Degradado_sin_nombre_6" x1="-16153.77" y1="221.03" x2="-16153.77" y2="246.87" gradientTransform="matrix(0.01, 0, 0, -0.01, 251.1, -140.17)" xlink:href="#Degradado_sin_nombre"/><linearGradient id="Degradado_sin_nombre_7" x1="-16153.7" y1="220.99" x2="-16153.7" y2="246.83" gradientTransform="matrix(0.01, 0, 0, -0.01, 251.01, -143.04)" xlink:href="#Degradado_sin_nombre"/><linearGradient id="Degradado_sin_nombre_8" x1="-104" y1="544.95" x2="-104" y2="545.53" gradientTransform="matrix(78.08, 0, 0, -200.97, 8398.26, 109719.21)" xlink:href="#Degradado_sin_nombre"/></defs><title>1</title><rect class="cls-2" width="400" height="300"/><g class="cls-3"><g id="GASGUA_-_FRUIT" data-name="GASGUA - FRUIT"><g id="Grupo_38" data-name="Grupo 38"><rect id="Rectángulo_1" data-name="Rectángulo 1" class="cls-1" x="92" y="69" width="216" height="162"/><g id="Grupo_13" data-name="Grupo 13"><g id="Grupo_12" data-name="Grupo 12"><g id="Grupo_2" data-name="Grupo 2"><path id="Trazado_1" data-name="Trazado 1" class="cls-2" d="M304,121c-1.56-3.58-5.71-5.21-10.33-4.06a22.21,22.21,0,0,1-3.53.58c.12-2.31.25-4.62.35-6.92.11-2.64.23-5.44.4-8.16.13-2,.19-4.07.25-6l0-1.41c0-.41.05-.83.08-1.26a18.7,18.7,0,0,0-.22-5.83,7.2,7.2,0,0,0-5.18-5.37,12.6,12.6,0,0,0-3.67-.34h-.45a35.5,35.5,0,0,0-10,1.47,28.92,28.92,0,0,0-2.82,1,12,12,0,0,0-4.32,3,12.43,12.43,0,0,0-2.12,3.29c-1.85,4.19-2,6.86-2.14,10.54q0,.58-.06,1.23c-2.69-4.94-8.16-7.93-14.61-7.31-9.45.92-17.46,9.27-17.87,18.61a14.44,14.44,0,0,0,5.56,12.38,12.27,12.27,0,0,0-1.71,1.67c-.22.25-.42.52-.62.79-1.12-2.13-3.58-4.35-8.95-4.25-1.33,0-2.66.16-4,.34l-1.46.16c-5.55.55-7.61,1.61-8.27,2a8.9,8.9,0,0,0-3,2.46c-.11-.11-.22-.22-.34-.32a6.27,6.27,0,0,0-3.42-2,15.46,15.46,0,0,0-5.91.06l-.17,0c-.57.09-1.18.18-1.91.24a31.16,31.16,0,0,0-4.81.7,16.19,16.19,0,0,0-6.83,3.12,8.58,8.58,0,0,0-2.34-.55c-3.06-.27-6.31.75-9.92,3.13a7.83,7.83,0,0,0-4.19-3,10.44,10.44,0,0,0-1.55-.33,17.23,17.23,0,0,0-3.59-.07h-.26c-1.25,0-2.28.12-3.24.21a31.17,31.17,0,0,0-5.26.94h0a13.68,13.68,0,0,0-6.42,3.64,17.33,17.33,0,0,0-5.36.66c0-.6.08-1.23.14-1.89l0-.5c.11-1.33.15-3.28.19-5.34,0-1.7.08-3.64.16-4.61l.1-1.24c.11-1.4.21-2.71.38-4,0-.39.1-.66.14-.85a7.78,7.78,0,0,1,1.49-.46,47.92,47.92,0,0,1,6.43-.83,52.11,52.11,0,0,0,9.13-1.35c6.51-1.71,10.69-5,12.43-9.86,1.38-3.86,1.32-7.61,1.26-10.93,0-.72,0-1.43,0-2.12,0-.44,0-.9,0-1.29a11.63,11.63,0,0,0-1.49-6.08c-2.61-4.24-7.46-3.87-9.79-3.7l-.57,0c-.92.06-2,.19-2.92.33l-.25,0c-.55.07-1.09.15-1.58.19-1.11,0-2.17.17-3.11.29l-.94.1c-3.09.34-6.18.62-9.27.91l-1.09.1c-2.48.22-5,.46-7.48.7l-5.12.52c-.54,0-1.1.08-1.67.12-2.9.18-6.51.41-10.07,2.43a15.32,15.32,0,0,0-4.83,3.86,21.83,21.83,0,0,0-3,5.51,26.38,26.38,0,0,0-1.6,7.86c-.19,2.7-.29,5.39-.38,8-.06,1.84-.12,3.67-.22,5.5-.21,3.78-.18,7.54-.16,11.18,0,4.3.06,8.36-.26,12.39-.55.4-1.2.89-1.93,1.5l-.9.68a18.34,18.34,0,0,0-5.35,5.51,17.07,17.07,0,0,0-1.86,5.95,39.35,39.35,0,0,0-.48,6.5,14.2,14.2,0,0,0,1.26,6.06c1.51,3.09,4.3,4.36,6.15,5.19l1,.45c.25.13.49.58,1.06,2a18.86,18.86,0,0,1,.74,8.38c-.55,6-.82,12.22-.8,18.88,0,3.56.22,7.64,2.57,10.93a13.94,13.94,0,0,0,13,5.56A23.15,23.15,0,0,0,131,215.34a13,13,0,0,0,3.55-3.49,15.06,15.06,0,0,0,2.18-6.3l0-.31a47.94,47.94,0,0,0,.49-4.94c.16-2.51.21-5.07.14-7.82l0-1.88c-.07-2.35,0,4.12,0,1.88.08-3,.18-14.7.4-17.88l.17-2.46c.06-.84.1-1.68.14-2.54a30.37,30.37,0,0,1,.8-6.88,6.68,6.68,0,0,1,.94-1.89c0,1-.05,2.07-.07,3.1-.06,2.65-.12,5.16-.23,7.58-.15,3-.27,5.87-.39,8.66l-.16,3.76c-.06,1.35-.16,2.75-.26,4.16a76.21,76.21,0,0,0-.3,8.81c.19,6.51.49,10.86,3.86,14.24a4.92,4.92,0,0,0,1.55,1.39,11.75,11.75,0,0,0,8.68,2.48,15.72,15.72,0,0,0,4.1-1c5.07-1.94,9.19-6.12,10.24-10.44a54.83,54.83,0,0,0,1.35-7.3c.74-5.43,1-12.33,1.33-18.42.19-4.32.39-8.8.7-10.63a4.78,4.78,0,0,1,.82-1.91,14.52,14.52,0,0,1,4.63-3.72l1.05-.57.3-.16c-.06,1-.11,2.05-.17,3.09-.13,2.46-.26,4.93-.39,7.23-.09,1.57-.21,3.15-.32,4.72-.73,10.05-1.49,20.44,3.24,27.35a13,13,0,0,0,1,1.3c.1.13.19.26.3.38a13.8,13.8,0,0,0,2.41,2.17,12.89,12.89,0,0,0,9.11,2.4,18.67,18.67,0,0,0,5.81-1.6,22.35,22.35,0,0,0,6.61-4.57l.21.2c4.88,4.91,11.28,5,17.13.27a69.66,69.66,0,0,0,6.24-5.91,10.34,10.34,0,0,0,1.27,1.74,14.31,14.31,0,0,0,6.15,3.73h0l.41.12a14.77,14.77,0,0,0,2.65.51l.42,0c.27,0,.55,0,.82,0h.55a3,3,0,0,0,.43,0h.22l.24,0,.41-.05a25.3,25.3,0,0,0,15.62-9.74,14,14,0,0,0,3.95,5.54l.05.05A8.15,8.15,0,0,0,262.8,201a12,12,0,0,0,7.71,1.78,13.24,13.24,0,0,0,5.29-1.68,24.06,24.06,0,0,0,5.75-4.91l.24-.26a89.45,89.45,0,0,0,6-7.07c.19-.25.38-.5.59-.76,1.61-2,3.81-4.83,4.45-8.55a7,7,0,0,0-4.48-8.11c-.18-.08-.37-.16-.57-.23a4.7,4.7,0,0,0-.45-.17l-.25-.07c.68-16.83,1.68-27.66,2.37-29.81.28-.83,2.35-2,4.18-3a31.74,31.74,0,0,0,6.47-4.35l0,0a13.89,13.89,0,0,0,4.48-8.86A8.1,8.1,0,0,0,304,121Zm-62.88,70.91-.21-.08.21.08Z"/></g><g id="Grupo_11" data-name="Grupo 11"><g id="Grupo_10" data-name="Grupo 10"><g id="Grupo_9" data-name="Grupo 9"><g id="Grupo_8" data-name="Grupo 8"><g id="Grupo_7" data-name="Grupo 7"><g id="Grupo_6" data-name="Grupo 6"><g id="Grupo_5" data-name="Grupo 5"><ellipse id="Elipse_1" data-name="Elipse 1" class="cls-4" cx="244.93" cy="112.48" rx="11.78" ry="10.22" transform="translate(-10.09 199.71) rotate(-43.55)"/><path id="Trazado_2" data-name="Trazado 2" class="cls-5" d="M246.32,128.61c-1.45.17-2.88.27-4.32.47-2,.29-4.44.84-5.92,2.6a6.85,6.85,0,0,0-1.39,3.81c-.64,7.26-.66,12.5-.87,17.73-.47,10.59-1,20.33-1.24,30.87-.18,5.2-.47,8.78,1.7,11.19a9.47,9.47,0,0,0,3.95,2.32.29.29,0,0,0,.1,0l.07,0a9.06,9.06,0,0,0,1.78.36l.23,0a2.16,2.16,0,0,0,.36,0c.17,0,.3,0,.43,0h.2l.28,0c8.46-1.37,13.4-9.49,14.28-12.55a11.7,11.7,0,0,0,.37-2.69,2.08,2.08,0,0,0-1.5-1.06c-.86-.32-1.78,0-3-.57a2.9,2.9,0,0,1-.94-1,.09.09,0,0,0,.07,0c0-.34,0-.67,0-1,0-1,0-1.91.07-2.85l.12-4.24c0-1.75.1-3.5.16-5.25.07-2,.12-4,.2-6s.18-4.1.27-6.15.15-4.19.27-6.29c.12-1.89.27-3.78.37-5.66.16-3.38.79-6.47.71-9.83a7.06,7.06,0,0,0-.48-2.57,2.84,2.84,0,0,0-2.24-1.71,11.26,11.26,0,0,0-3.33-.08l-.81.09"/><path id="Trazado_3" data-name="Trazado 3" class="cls-6" d="M208.58,198.11h0m7.81-66.87a21,21,0,0,0-5.86,1.23c-2.49,1.27-2.08,11.09-2.32,15.69-.2,3.08-.28,6.23-.42,9.3-.37,7.11-.36,12.92-1.27,19.1-.34,2.38-2.35,6.63-4.61,6.28a2.07,2.07,0,0,1-.92-.41l-.19-.17a2.7,2.7,0,0,1-.62-.84.14.14,0,0,1,0-.07,6.86,6.86,0,0,1-.32-.9c0-1.14.68-15.75,1.9-43.44a4.28,4.28,0,0,0-1.32-3.14,1.5,1.5,0,0,0-.86-.64,10.27,10.27,0,0,0-3.92.14c-.68.11-1.43.22-2.31.29a28.85,28.85,0,0,0-3.7.5c-2.76.72-4.28,1.11-4.8,3-1.05,2.31-1.06,6-1,8.83-.16,2.48-.22,5-.37,7.59-.32,5.15-.62,11.52-.94,17.09-.66,11-2.31,22.38,2,28.66a8.72,8.72,0,0,0,1.21,1.36l-.14,0a9.17,9.17,0,0,0,1.59,1.4c2.66,2,5.8,1.83,9.06.37a16.33,16.33,0,0,0,5.92-4.66c1.87-2.19,4.24-2.39,5.82-.4.22.27.49.55.72.82l-.12-.1a2.23,2.23,0,0,1,.26.27c.21.19.39.39.59.58,2,2,4.91,3.83,9.15.4,5.35-4.33,11.48-11.88,11.82-13.16a2.2,2.2,0,0,0,0-.92l0-.23a.58.58,0,0,1-.15-.11c-.61-1.21-2.91-.77-2.91-.77l-.06.06h-.1a3,3,0,0,1-.85,0l-.16,0a1.63,1.63,0,0,1-.82-.32,2.17,2.17,0,0,1-.57-.83.88.88,0,0,0-.09-.2c-.05-.16-.1-.36-.16-.54,0-1.18.47-32.48,1.09-39.53.13-1.39.27-2.78.33-4.16a21.94,21.94,0,0,0-.2-5.55c-.46-2.12-2.59-2.37-4.52-2.34-.57,0-1.14,0-1.72.11-1.06.1-2.13.26-3.2.37"/><path id="Trazado_4" data-name="Trazado 4" class="cls-7" d="M147.51,207.18h0m0,0h0m0,0h0m0,0h0m0,0h0m0,0h0m0,0h0m0,0h0m0,0h0m0,0h0m0,0h0m0,0h0m0,0h0m0,0h0m0,0h0m0,0h0m0,0h0m0,0h0m0,0h0m0,0h0m0,0h0m0,0h0m5.11-69.6a6.87,6.87,0,0,0-3.35,1.83,6.26,6.26,0,0,0-1.19,2.79c-.28,1.19-.66,2.36-.89,3.54-1.37,7.17-1.06,16.82-1.47,25.21-.21,4.33-.37,8.45-.54,12.38-.18,4.15-.74,8.78-.55,12.55.21,7.35.67,9.4,3,11.31h0c4.79,4.65,12.51-.57,13.4-4.2a49.29,49.29,0,0,0,1.22-6.59c1.3-9.4,1.26-24.43,2.07-29.31a11.61,11.61,0,0,1,2.11-4.9,21.81,21.81,0,0,1,6.95-5.75c2.67-1.49,5.52-2.64,6.94-5.59s1.3-6.39,1.09-9.42c-.14-2-.72-4.28-3-4.49-2.09-.18-4.37,1.08-6.16,2.33-1.35.92-3.28,2.9-5,2.49a2.32,2.32,0,0,1-1.33-.81,7.92,7.92,0,0,1-.89-2.32A2.87,2.87,0,0,0,163,136.8a5.63,5.63,0,0,0-.69-.14,14.45,14.45,0,0,0-2.79,0c-.95,0-1.92.09-2.88.18a25.45,25.45,0,0,0-4.17.73"/><g id="Grupo_3" data-name="Grupo 3"><path id="Trazado_5" data-name="Trazado 5" class="cls-8" d="M165.65,92.88c0-.35,0-.69,0-1a7,7,0,0,0-.72-3.43c-1.12-1.81-3.5-1.42-5.48-1.29l-.55,0c-.63.06-1.3.16-2,.26s-1.6.22-2.3.27c-1.22,0-2.5.23-3.73.36-3.5.38-7,.7-10.48,1-2.47.22-4.93.45-7.4.69l-5.16.52c-2.87.28-6.31.14-9,1.67a8.72,8.72,0,0,0-2.67,2,15.12,15.12,0,0,0-2,3.72,20.41,20.41,0,0,0-1.17,6c-.32,4.46-.35,8.91-.59,13.37-.44,7.93.21,15.93-.45,23.88-.36,4.38-.39,2.74-4.5,6.13-1.38,1.13-3.6,2.5-4.48,4.07a10.84,10.84,0,0,0-1.08,3.65,31.7,31.7,0,0,0-.42,5.5,9.16,9.16,0,0,0,.72,3.83c.94,1.92,3.18,2.52,5,3.45s2.54,2.56,3.33,4.54c1.32,3.28,1.44,7.29,1.11,11-.57,6.18-.8,12.18-.78,18.31,0,2.67.11,5.76,1.62,7.87a8.79,8.79,0,0,0,8.08,3.48,17.17,17.17,0,0,0,7.56-2.26,5.56,5.56,0,0,0,1.47-1.43,10.07,10.07,0,0,0,1.14-3.91,42.59,42.59,0,0,0,.43-4.33c.15-2.46.18-4.89.13-7.31-.07-3-.19-6-.12-9,.1-3.95.43-7.93.7-11.9.23-3.51.16-7.24,1.17-10.76s3.57-6.12,5.95-8.8a64,64,0,0,0,4.31-5.28,10.93,10.93,0,0,0,2.23-4.48c.36-2.94-4-1.58-5.68-1.18a9.2,9.2,0,0,1-4.06.41,2.83,2.83,0,0,1-1.89-2.6A25.1,25.1,0,0,1,134,134c.19-2.29.15-7.64.35-9.94.15-1.84.26-3.69.51-5.53a9.9,9.9,0,0,1,1.06-3.61c1.27-2.15,3.87-3.13,6.08-3.62a51.7,51.7,0,0,1,7.22-.95,46.23,46.23,0,0,0,8.11-1.17c2.92-.76,6.35-2.16,7.48-5.32C166,100.39,165.61,96.38,165.65,92.88Zm-39,4.83c-1.73.48-3.69.68-5.28,1.62a6.68,6.68,0,0,0-2.72,3.73,38.94,38.94,0,0,0-1.35,9.12c-.2,3.17-1.18,3.92-1.29-.51-.12-4.66.93-11.89,2.19-13.91s3.31-3.13,6.61-4.11a4.68,4.68,0,0,1,3.08-.22,2.31,2.31,0,0,1,1.36,2.25c-.19,1.27-1.56,1.75-2.6,2Z"/></g><g id="Grupo_4" data-name="Grupo 4"><path id="Trazado_6" data-name="Trazado 6" class="cls-9" d="M284,121.78h0Z"/><path id="Trazado_7" data-name="Trazado 7" class="cls-10" d="M283.91,121.7Z"/><path id="Trazado_8" data-name="Trazado 8" class="cls-11" d="M296.26,129.65a6.87,6.87,0,0,0,2.25-4.4,2.5,2.5,0,0,0-.17-1.21c-.57-1.32-2.39-1.64-4-1.23a31.8,31.8,0,0,1-6.21.86,9.11,9.11,0,0,1-2.5-.23c-1.11-.26-1.43-.69-1.72-1.78,0-1.15.09-2.29.15-3.46.13-2.32.26-4.66.36-7,.11-2.75.24-5.52.41-8.28.16-2.44.2-4.85.28-7.27.06-1.82.41-3.83,0-5.56a2.19,2.19,0,0,0-1.61-1.69,9.89,9.89,0,0,0-2.55-.15c-1,0-1.95.06-2.93.16a26.49,26.49,0,0,0-5.22,1c-.74.23-1.46.49-2.17.79a4.9,4.9,0,0,0-1.7,1.14A5.49,5.49,0,0,0,268,92.8c-1.6,3.63-1.41,5.36-1.69,10.37-.3,5.28-.28,10.67-.57,14.4-.28,3.5-1.25,6.5-2.83,7.89-1.83,1.55-4.55,1.4-5.63,3.19s-.93.64-.9,3c0,2.78.46,5.17,1.57,6.25.85.82,3.3,1.17,4.38,2.25.74.8,1.51,4.36,1.57,6.43.2,5.25-.87,20.89-1.27,27.55-.4,6.38-1.17,12.66.5,17.22a9.18,9.18,0,0,0,2.66,3.7,6.87,6.87,0,0,0,.85.77,6.72,6.72,0,0,0,6.73.12,18.53,18.53,0,0,0,4.24-3.78,82.94,82.94,0,0,0,5.48-6.5c1.43-1.87,3.29-3.91,3.71-6.35a1.85,1.85,0,0,0-1.2-2.14s-.07,0-.1,0a4.1,4.1,0,0,0-.87-.36h.07c-1-.34-2.34-.47-3-1a2.34,2.34,0,0,1-.66-.9c-.05-.09-.11-.12-.14-.21a.88.88,0,0,1,0-.15c.09-2.6,1.07-29.32,2.8-34.52C285.47,134.51,292.38,133.25,296.26,129.65ZM276.4,94.5a15.6,15.6,0,0,0-3.95,1.22,5,5,0,0,0-2.05,2.79c-.64,1.89-1.07,9.22-1.2,11.41-.15,2.37-.88,2.93-1-.39a74.67,74.67,0,0,1,.39-9.92c.16-1.63.18-3.5,1.05-5,1.16-2.06,3.34-2.5,5.34-3.1a3.51,3.51,0,0,1,2.3-.17,1.73,1.73,0,0,1,1,1.69C278.19,93.94,277.17,94.29,276.4,94.5Z"/></g></g></g></g></g></g></g></g></g></g></g></g></g></svg>