<svg id="Capa_1" data-name="Capa 1" xmlns="http://www.w3.org/2000/svg" xmlns:xlink="http://www.w3.org/1999/xlink" viewBox="0 0 400 300"><defs><style>.cls-1{fill:none;}.cls-2{fill:#fff;}.cls-3{clip-path:url(#clip-path);}.cls-4{fill:#008275;}.cls-5{fill:#89c9c8;}</style><clipPath id="clip-path"><rect class="cls-1" x="66.67" y="50" width="266.67" height="200"/></clipPath></defs><title>3</title><rect class="cls-2" width="400" height="300"/><g class="cls-3"><g id="GASGUA_-_IMPERIAL" data-name="GASGUA - IMPERIAL"><g id="Grupo_36" data-name="Grupo 36"><rect id="Rectángulo_3" data-name="Rectángulo 3" class="cls-1" x="66.67" y="50" width="266.67" height="200"/><g id="Grupo_24" data-name="Grupo 24"><path id="Trazado_9" data-name="Trazado 9" class="cls-4" d="M200.16,62c-63.07,0-114.38,39.58-114.38,88.24s51.31,88.24,114.38,88.24,114.39-39.58,114.39-88.24S263.23,62,200.16,62Z"/><path id="Trazado_10" data-name="Trazado 10" class="cls-2" d="M200.16,236.27c-61.1,0-110.81-38.6-110.81-86s49.71-86,110.81-86S311,102.81,311,150.23,261.26,236.27,200.16,236.27Zm0-170.26C140,66,91,103.79,91,150.23s49,84.24,109.18,84.24,109.19-37.78,109.19-84.24S260.36,66,200.16,66Z"/><g id="Grupo_14" data-name="Grupo 14"><path id="Trazado_11" data-name="Trazado 11" class="cls-5" d="M202.69,112.89l-2.54-34.71V121L223,99.61Z"/><path id="Trazado_12" data-name="Trazado 12" class="cls-2" d="M197.61,112.89,177.29,99.61,200.15,121V78.18Z"/></g><g id="Grupo_15" data-name="Grupo 15"><path id="Trazado_13" data-name="Trazado 13" class="cls-2" d="M111.83,154.22c0-5.16,0-6.11-.06-7.2s-.41-1.73-1.16-1.9a4.56,4.56,0,0,0-1.22-.13c-.34,0-.54-.07-.54-.34s.27-.27.81-.27c1.29,0,3.43.1,4.41.1s2.85-.1,4.14-.1c.44,0,.71.06.71.27s-.2.34-.54.34a5,5,0,0,0-1,.1c-.91.17-1.18.74-1.25,1.93s-.07,2-.07,7.2v6c0,3.29,0,6,.14,7.43.1.92.33,1.53,1.35,1.67a14.55,14.55,0,0,0,1.74.13c.37,0,.54.1.54.27s-.27.34-.64.34c-2.24,0-4.38-.1-5.3-.1s-2.92.1-4.27.1c-.45,0-.68-.1-.68-.34s.13-.27.54-.27a5.56,5.56,0,0,0,1.22-.13c.68-.14.88-.72,1-1.7.17-1.42.17-4.11.17-7.4Z"/><path id="Trazado_14" data-name="Trazado 14" class="cls-2" d="M129.28,144.78c.1-.58.31-.88.58-.88s.47.17.91,1L140,163.82l9.23-19.11c.27-.54.44-.81.74-.81s.51.34.61,1l3.09,20.77c.31,2.14.65,3.12,1.67,3.43a7,7,0,0,0,2.1.34c.31,0,.54,0,.54.23s-.4.38-.88.38c-.85,0-5.53-.07-6.89-.17-.78-.07-1-.17-1-.38s.13-.27.37-.37.31-.51.17-1.46l-2-14.76h-.13l-7.4,15.13c-.78,1.6-1,1.9-1.26,1.9s-.64-.68-1.18-1.69c-.82-1.56-3.5-6.76-3.91-7.71-.3-.71-2.34-4.71-3.52-7.26h-.14l-1.76,13.23a12.17,12.17,0,0,0-.1,1.6c0,.64.44,1,1,1.08a6.28,6.28,0,0,0,1.43.17c.27,0,.51.07.51.24s-.31.37-.82.37c-1.42,0-3-.1-3.56-.1s-2.27.1-3.36.1c-.34,0-.61-.06-.61-.37s.2-.24.54-.24a3.84,3.84,0,0,0,1-.1c1-.2,1.22-1.53,1.39-2.68Z"/><path id="Trazado_15" data-name="Trazado 15" class="cls-2" d="M164.27,154.22c0-5.16,0-6.11-.06-7.2s-.34-1.7-1.46-1.93a6.57,6.57,0,0,0-1.33-.1c-.37,0-.57-.07-.57-.31s.23-.3.74-.3c1.8,0,3.94.1,4.89.1,1.39,0,3.36-.1,4.92-.1,4.24,0,5.77,1.42,6.31,1.93a5.88,5.88,0,0,1,1.7,4,8,8,0,0,1-8.35,8.21c-.24,0-.47,0-.71,0s-.41-.07-.41-.31.24-.37.95-.37c1.9,0,4.55-2.14,4.55-5.6a6.52,6.52,0,0,0-2-5.09,5.09,5.09,0,0,0-3.39-1.33,4.6,4.6,0,0,0-1.33.14c-.17.06-.27.27-.27.64v13.57c0,3.13,0,5.81.17,7.27.1,1,.31,1.69,1.32,1.83a14.55,14.55,0,0,0,1.74.13c.37,0,.54.1.54.27s-.27.34-.64.34c-2.24,0-4.38-.1-5.26-.1s-2.92.1-4.28.1c-.44,0-.68-.1-.68-.34s.14-.27.54-.27a5.71,5.71,0,0,0,1.23-.13c.67-.13.84-.88,1-1.87.17-1.42.17-4.1.17-7.23Z"/><path id="Trazado_16" data-name="Trazado 16" class="cls-2" d="M187.35,154.22c0-5.16,0-6.11-.07-7.2s-.34-1.7-1.45-1.93a6.57,6.57,0,0,0-1.33-.1c-.37,0-.58-.07-.58-.31s.24-.3.75-.3c.92,0,1.9,0,2.75,0s1.67.07,2.14.07c1.08,0,7.84,0,8.48,0a14.23,14.23,0,0,0,1.46-.2,3.58,3.58,0,0,1,.54-.14c.17,0,.2.14.2.31-.12.73-.21,1.47-.27,2.21,0,.34-.1,1.83-.17,2.24,0,.17-.1.37-.34.37s-.3-.17-.3-.48a4,4,0,0,0-.2-1.22c-.24-.61-.58-1-2.28-1.22-.57-.07-4.14-.13-4.82-.13-.17,0-.23.1-.23.34v8.58c0,.24,0,.38.23.38.75,0,4.66,0,5.43-.07a2.34,2.34,0,0,0,1.63-.51c.24-.27.38-.44.55-.44s.23.07.23.27-.13.75-.27,2.48c0,.68-.13,2-.13,2.27s0,.65-.31.65a.27.27,0,0,1-.3-.22.14.14,0,0,1,0-.09,8.29,8.29,0,0,0-.14-1.22c-.17-.68-.64-1.19-1.9-1.32-.64-.07-4-.1-4.82-.1-.17,0-.2.13-.2.34v2.68c0,1.15,0,4.27,0,5.26.07,2.34.61,2.85,4.08,2.85a8.84,8.84,0,0,0,3.19-.41c.88-.41,1.29-1.12,1.52-2.51.07-.37.14-.51.38-.51s.27.27.27.61a26.55,26.55,0,0,1-.44,3.77c-.24.88-.54.88-1.83.88-2.55,0-4.42-.07-5.88-.1s-2.51-.1-3.53-.1c-.37,0-1.11,0-1.93,0s-1.66.07-2.34.07c-.44,0-.68-.1-.68-.34s.13-.27.54-.27a5.73,5.73,0,0,0,1.23-.14c.67-.13.84-.88,1-1.86.17-1.43.17-4.11.17-7.23Z"/><path id="Trazado_17" data-name="Trazado 17" class="cls-2" d="M209.65,154.22c0-5.16,0-6.11-.07-7.2s-.34-1.7-1.46-1.93a6.47,6.47,0,0,0-1.32-.1c-.37,0-.58-.07-.58-.31s.24-.3.75-.3c1.8,0,3.93.1,4.65.1,1.15,0,3.73-.1,4.79-.1a10.88,10.88,0,0,1,6.24,1.45,5.9,5.9,0,0,1,2.31,4.65c0,2.51-1.06,4.82-4.48,7.6,3,3.8,5.36,6.83,7.36,8.93a6.74,6.74,0,0,0,3.8,2.31,6.13,6.13,0,0,0,1,.1c.28,0,.41.1.41.27s-.24.34-.64.34h-3.23a6.84,6.84,0,0,1-3.63-.65c-1.46-.78-2.75-2.37-4.65-5-1.36-1.87-2.92-4.18-3.36-4.69a.7.7,0,0,0-.61-.23l-2.95-.07c-.17,0-.27.07-.27.27v.48c0,3.15,0,5.83.17,7.26.1,1,.3,1.74,1.32,1.87a15.46,15.46,0,0,0,1.66.13c.28,0,.41.1.41.27s-.24.34-.68.34c-2,0-4.48-.1-5-.1s-2.78.1-4.14.1c-.44,0-.68-.1-.68-.34s.14-.27.55-.27a5.56,5.56,0,0,0,1.22-.13c.68-.13.85-.88,1-1.87.17-1.42.17-4.1.17-7.23Zm4,2.68c0,.37.07.51.31.61a9,9,0,0,0,2.58.34,3.39,3.39,0,0,0,2.41-.58c1-.75,2-2.31,2-5.09,0-4.82-3.19-6.21-5.19-6.21a7.22,7.22,0,0,0-1.8.13c-.24.07-.31.21-.31.48Z"/><path id="Trazado_18" data-name="Trazado 18" class="cls-2" d="M236.12,154.22c0-5.16,0-6.11-.06-7.2s-.41-1.73-1.16-1.9a4.56,4.56,0,0,0-1.22-.13c-.34,0-.54-.07-.54-.34s.27-.27.81-.27c1.29,0,3.43.1,4.42.1.84,0,2.85-.1,4.14-.1.44,0,.71.06.71.27s-.21.34-.54.34a4.9,4.9,0,0,0-1,.1c-.92.17-1.19.74-1.26,1.93s-.06,2-.06,7.2v6c0,3.29,0,6,.13,7.43.1.92.34,1.53,1.36,1.67a14.23,14.23,0,0,0,1.73.13c.37,0,.54.1.54.27s-.27.34-.64.34c-2.24,0-4.38-.1-5.3-.1s-2.92.1-4.27.1c-.44,0-.68-.1-.68-.34s.13-.27.54-.27a5.56,5.56,0,0,0,1.22-.13c.68-.14.89-.72,1-1.7.17-1.42.17-4.11.17-7.4Z"/><path id="Trazado_19" data-name="Trazado 19" class="cls-2" d="M253.67,161.38c-.17,0-.24.06-.31.27l-1.83,4.65a6.62,6.62,0,0,0-.51,2.07c0,.61.31,1,1.36,1h.51c.41,0,.51.06.51.27s-.2.34-.58.34c-1.09,0-2.54-.1-3.6-.1-.37,0-2.24.1-4,.1-.44,0-.65-.07-.65-.34s.14-.27.41-.27.7,0,1.05-.07c1.56-.2,2.21-1.36,2.89-3l8.52-21c.4-1,.61-1.36.95-1.36s.5.3.84,1.09c.82,1.86,6.25,15.44,8.42,20.6,1.29,3,2.27,3.53,3,3.7a7.5,7.5,0,0,0,1.42.13c.27,0,.44,0,.44.27s-.3.34-1.56.34-3.7,0-6.41-.07c-.61,0-1,0-1-.27s.13-.27.48-.31a.54.54,0,0,0,.33-.7s0-.05,0-.08l-2.71-7a.32.32,0,0,0-.34-.23Zm6.92-1.7c.17,0,.21-.1.17-.2l-3.05-8.35c0-.13-.07-.31-.17-.31s-.17.17-.21.31l-3.12,8.31c0,.14,0,.24.14.24Z"/><path id="Trazado_20" data-name="Trazado 20" class="cls-2" d="M281.16,160.19c0,4.34,0,6.68.72,7.29s1.45.75,4.1.75c1.8,0,3.12,0,4-.95a4.25,4.25,0,0,0,.88-2c0-.3.11-.5.38-.5s.27.17.27.57a28.31,28.31,0,0,1-.51,3.9c-.2.75-.37.92-2.14.92-2.44,0-4.21-.06-5.73-.1s-2.75-.1-4.14-.1c-.38,0-1.12,0-1.94,0s-1.66.07-2.34.07c-.44,0-.68-.1-.68-.34s.14-.27.55-.27a5.56,5.56,0,0,0,1.22-.13c.68-.14.85-.89,1-1.87.17-1.43.17-4.11.17-7.23v-6c0-5.16,0-6.11-.07-7.2s-.34-1.69-1.45-1.93a4.72,4.72,0,0,0-1.12-.1c-.38,0-.58-.07-.58-.31s.24-.3.74-.3c1.6,0,3.74.1,4.65.1s3.3-.1,4.62-.1c.47,0,.71.06.71.3s-.2.31-.61.31a8.38,8.38,0,0,0-1.32.1c-.92.17-1.19.75-1.26,1.93s-.06,2-.06,7.2Z"/></g><g id="Grupo_17" data-name="Grupo 17"><g id="Grupo_16" data-name="Grupo 16"><path id="Trazado_21" data-name="Trazado 21" class="cls-2" d="M162.31,128.06h-.5v-.67H164a2.74,2.74,0,0,1,.25,5.47H162.8c-.34,0-.49-.15-.49-.5Zm.94,4.13H164a2.07,2.07,0,0,0,0-4.13h-.88v4a.16.16,0,0,0,.14.17Z"/><path id="Trazado_22" data-name="Trazado 22" class="cls-2" d="M171.7,128.06h-.5v-.67h3.21c.35,0,.49.15.49.5v.69h-.7v-.35a.16.16,0,0,0-.13-.17h-1.59v1.71h1.91v.67h-1.91V132a.15.15,0,0,0,.13.17h1.63a.16.16,0,0,0,.17-.14v-.38h.71v.69c0,.35-.15.5-.49.5H172.2c-.35,0-.5-.15-.5-.5Z"/><path id="Trazado_23" data-name="Trazado 23" class="cls-2" d="M179.88,131.59a2,2,0,0,0,1.37.66.87.87,0,0,0,.93-.77v0c0-1.14-2.64-1-2.64-2.66a1.59,1.59,0,0,1,1.69-1.47h.06c.58,0,1.56.26,1.56,1v.45h-.71v-.26c0-.28-.41-.49-.84-.49-.59,0-1,.32-1,.73,0,1.11,2.63.86,2.63,2.66a1.6,1.6,0,0,1-1.62,1.56h-.12a2.45,2.45,0,0,1-1.81-.81Z"/><path id="Trazado_24" data-name="Trazado 24" class="cls-2" d="M187.94,128.06h-.5v-.67h2.21a2.74,2.74,0,0,1,.26,5.47h-1.47c-.35,0-.5-.15-.5-.5Zm.95,4.13h.71a2.07,2.07,0,0,0,0-4.13h-.88v4a.15.15,0,0,0,.13.17Z"/><path id="Trazado_25" data-name="Trazado 25" class="cls-2" d="M197.33,128.06h-.5v-.67H200c.35,0,.49.15.49.5v.69h-.7v-.35a.16.16,0,0,0-.13-.17h-1.59v1.71H200v.67h-1.91V132a.15.15,0,0,0,.13.17h1.63a.16.16,0,0,0,.17-.14v-.38h.71v.69c0,.35-.15.5-.49.5h-2.43c-.35,0-.5-.15-.5-.5Z"/><path id="Trazado_26" data-name="Trazado 26" class="cls-2" d="M211.23,132.19h1.2v-3.53c0-.17,0-.34,0-.34h0a1.31,1.31,0,0,1-.25.32l-.51.5-.47-.47,1.31-1.27h.71v4.79h1.19v.67h-3.17Z"/><path id="Trazado_27" data-name="Trazado 27" class="cls-2" d="M219.23,132.06a1.91,1.91,0,0,0,.78.19c1,0,1.52-.95,1.64-1.88h0a1.51,1.51,0,0,1-1.21.53,1.68,1.68,0,0,1-1.72-1.65v-.12a1.71,1.71,0,0,1,1.61-1.82h.14c1.17,0,2.05,1,2.05,2.52S221.73,133,220,133a2.4,2.4,0,0,1-1.06-.22Zm2.45-2.57a1.43,1.43,0,0,0-1.22-1.48,1,1,0,0,0-1,1,.41.41,0,0,0,0,.11,1.06,1.06,0,0,0,1,1.13h.13c.61,0,1.1-.37,1.1-.77Z"/><path id="Trazado_28" data-name="Trazado 28" class="cls-2" d="M227.46,131.62a1.68,1.68,0,0,0,1.28.6,1.1,1.1,0,0,0,1.17-1s0,0,0-.06a1.19,1.19,0,0,0-1.24-1.12h-.06a2.07,2.07,0,0,0-1,.27l-.32-.14.22-2.26c0-.35.15-.5.49-.5h1.91c.34,0,.49.15.49.5v.69h-.7v-.35a.16.16,0,0,0-.13-.17h-1.19c-.11,0-.15.05-.17.17l-.11,1a1.51,1.51,0,0,1,0,.28h0a1.71,1.71,0,0,1,.7-.16A1.82,1.82,0,0,1,230.7,131v.13a1.84,1.84,0,0,1-1.88,1.8h-.08a2.19,2.19,0,0,1-1.7-.77Z"/><path id="Trazado_29" data-name="Trazado 29" class="cls-2" d="M235.36,132.19h1.2v-3.53c0-.17,0-.34,0-.34h0a1.35,1.35,0,0,1-.26.32l-.51.5-.46-.47,1.31-1.27h.7v4.79h1.19v.67h-3.16Z"/></g></g><g id="Grupo_21" data-name="Grupo 21"><g id="Grupo_18" data-name="Grupo 18"><path id="Trazado_30" data-name="Trazado 30" class="cls-5" d="M108.77,131.37l.28-1.25h0v0h50.41a.72.72,0,0,0,.57-.21h.07l-.29,1.25H109.64c-.41,0-.67.07-.78.23Z"/></g><g id="Grupo_19" data-name="Grupo 19"><path id="Trazado_31" data-name="Trazado 31" class="cls-5" d="M108.82,183h.09c.11.16.37.23.78.23h181c.41,0,.67-.06.78-.23h.09l-.28,1.25h0v0H109.12v0h0Z"/></g><g id="Grupo_20" data-name="Grupo 20"><path id="Trazado_32" data-name="Trazado 32" class="cls-5" d="M291.46,131.37c-.11-.16-.36-.23-.77-.23h-50.2l-.28-1.25h.07a.7.7,0,0,0,.57.21h50.4v0h0l.28,1.25Z"/></g></g><g id="Grupo_23" data-name="Grupo 23"><g id="Grupo_22" data-name="Grupo 22"><path id="Trazado_33" data-name="Trazado 33" class="cls-2" d="M142.16,191.12h-.51v-.67h2.25A2.78,2.78,0,1,1,144,196h-1.32c-.36,0-.51-.15-.51-.51Zm1,4.2h.73a2.1,2.1,0,0,0,0-4.2H143v4a.16.16,0,0,0,.14.17Z"/><path id="Trazado_34" data-name="Trazado 34" class="cls-2" d="M150.14,191.12h-.51v-.67h3.26c.35,0,.5.15.5.5v.7h-.71v-.35a.16.16,0,0,0-.14-.18h-1.62v1.74h1.94v.67h-1.94v1.61a.17.17,0,0,0,.14.18h1.65a.17.17,0,0,0,.18-.14v-.39h.72v.7c0,.35-.15.5-.5.5h-2.47c-.36,0-.5-.15-.5-.5Z"/><path id="Trazado_35" data-name="Trazado 35" class="cls-2" d="M161.43,191.12h-.51v-.67H164c.36,0,.51.15.51.5v.7h-.72v-.35a.16.16,0,0,0-.13-.18h-1.42V193h1.9v.67h-1.9V196h-.78Z"/><path id="Trazado_36" data-name="Trazado 36" class="cls-2" d="M167.75,191.3a.16.16,0,0,0-.13-.18h-.38v-.67H168c.36,0,.51.15.51.5V194a1.33,1.33,0,1,0,2.65.06V191c0-.35.16-.5.51-.5h.79v.67h-.34a.16.16,0,0,0-.17.13v2.8a2.12,2.12,0,0,1-4.23,0Z"/><path id="Trazado_37" data-name="Trazado 37" class="cls-2" d="M175.89,191.12h-.51v-.67h3.26c.36,0,.51.15.51.5v.7h-.72v-.35a.17.17,0,0,0-.13-.18h-1.62v1.74h1.94v.67h-1.94v1.61a.16.16,0,0,0,.14.18h1.65a.16.16,0,0,0,.17-.14v-.39h.72v.7c0,.35-.14.5-.5.5H176.4c-.36,0-.51-.15-.51-.5Z"/><path id="Trazado_38" data-name="Trazado 38" class="cls-2" d="M182.2,195.32h.34a.15.15,0,0,0,.17-.14v-4.73h.72l2.46,3.51c.21.3.47.75.47.75h0q0-.37-.06-.75v-3c0-.35.15-.5.51-.5h.79v.67h-.34a.15.15,0,0,0-.17.14s0,0,0,0V196h-.71l-2.48-3.52c-.2-.29-.45-.75-.45-.75h0s.05.45.05.75v3c0,.36-.15.51-.51.51h-.79Z"/><path id="Trazado_39" data-name="Trazado 39" class="cls-2" d="M192.38,191.12h-1.12a.16.16,0,0,0-.17.14v.39h-.7v-.73c0-.36.12-.47.47-.47h3.82c.35,0,.47.11.47.47v.73h-.7v-.35a.17.17,0,0,0-.13-.18h-1.16V196h-.78Z"/><path id="Trazado_40" data-name="Trazado 40" class="cls-2" d="M198.44,191.12h-.52v-.67h3.26c.36,0,.51.15.51.5v.7H201v-.35a.16.16,0,0,0-.13-.18h-1.62v1.74h1.94v.67h-1.94v1.61a.16.16,0,0,0,.14.18H201a.16.16,0,0,0,.17-.14s0,0,0,0v-.35h.73v.7c0,.35-.15.5-.51.5h-2.46c-.36,0-.5-.15-.5-.5Z"/><path id="Trazado_41" data-name="Trazado 41" class="cls-2" d="M209.21,195.32h.34a.15.15,0,0,0,.17-.14,0,0,0,0,0,0,0v-4.7h.72l2.47,3.51c.2.3.46.75.46.75h0q0-.37-.06-.75v-3c0-.35.15-.5.52-.5h.78v.67h-.34a.16.16,0,0,0-.17.14V196h-.71l-2.47-3.52a8.55,8.55,0,0,1-.46-.75h0s0,.45,0,.75v3c0,.36-.15.51-.5.51h-.79Z"/><path id="Trazado_42" data-name="Trazado 42" class="cls-2" d="M217.38,195.32h.11c.14,0,.21,0,.26-.17l1.73-4.7h.83l1.73,4.7a.23.23,0,0,0,.26.17h.12V196H222a.55.55,0,0,1-.64-.44v0l-.42-1.14h-2l-.42,1.14a.56.56,0,0,1-.64.46h-.44Zm3.34-1.58-.6-1.69c-.1-.29-.22-.78-.22-.78h0s-.11.49-.21.78l-.6,1.69Z"/><path id="Trazado_43" data-name="Trazado 43" class="cls-2" d="M226.29,191.12h-1.12a.16.16,0,0,0-.17.14v.39h-.7v-.73c0-.36.12-.47.47-.47h3.82c.35,0,.47.11.47.47v.73h-.7v-.35a.15.15,0,0,0-.13-.18h-1.15V196h-.79Z"/><path id="Trazado_44" data-name="Trazado 44" class="cls-2" d="M232.28,191.3a.16.16,0,0,0-.13-.18h-.38v-.67h.8c.35,0,.5.15.5.5V194a1.33,1.33,0,1,0,2.65.06V191c0-.35.16-.5.51-.5H237v.67h-.34a.16.16,0,0,0-.17.13v2.8a2.12,2.12,0,0,1-4.23,0Z"/><path id="Trazado_45" data-name="Trazado 45" class="cls-2" d="M240.42,191.12h-.51v-.67h2.42a1.54,1.54,0,0,1,1.66,1.42v.21a1.43,1.43,0,0,1-1,1.46v0a.64.64,0,0,1,.24.25l.66,1.33c.08.16.21.18.4.18h.1V196H244c-.43,0-.59-.05-.77-.41l-.75-1.5c-.14-.25-.25-.29-.55-.29h-.72V196h-.79Zm1.81,2a.91.91,0,0,0,1-.85.76.76,0,0,0,0-.15.88.88,0,0,0-.77-1h-1.2v2Z"/><path id="Trazado_46" data-name="Trazado 46" class="cls-2" d="M247,195.32h.11c.14,0,.21,0,.26-.17l1.73-4.7h.83l1.73,4.7a.23.23,0,0,0,.26.17H252V196h-.44a.55.55,0,0,1-.64-.44v0l-.41-1.14h-2l-.42,1.14a.56.56,0,0,1-.64.46H247Zm3.35-1.58-.61-1.69c-.1-.29-.22-.78-.22-.78h0a7.41,7.41,0,0,1-.22.78l-.6,1.69Z"/><path id="Trazado_47" data-name="Trazado 47" class="cls-2" d="M255.29,191.3a.15.15,0,0,0-.13-.18h-.38v-.67h.8c.35,0,.5.15.5.5v4.2a.16.16,0,0,0,.14.17h1.57a.16.16,0,0,0,.17-.14v-.39h.71v.7c0,.36-.15.51-.5.51H255.8c-.36,0-.51-.15-.51-.51Z"/></g></g></g></g></g></g></svg>