<svg id="Capa_1" data-name="Capa 1" xmlns="http://www.w3.org/2000/svg" xmlns:xlink="http://www.w3.org/1999/xlink" viewBox="0 0 400 300"><defs><style>.cls-1,.cls-6{fill:none;}.cls-2{fill:#fff;}.cls-3{clip-path:url(#clip-path);}.cls-4{fill:#b4cd7f;}.cls-5{fill:#222221;}.cls-6{stroke:#222221;stroke-linecap:round;stroke-linejoin:round;stroke-width:1.83px;}</style><clipPath id="clip-path"><rect class="cls-1" x="68" y="51" width="264" height="198"/></clipPath></defs><title>4</title><rect class="cls-2" width="400" height="300"/><g class="cls-3"><g id="GASGUA_-_TH2" data-name="GASGUA - TH2"><g id="Grupo_35" data-name="Grupo 35"><rect id="Rectángulo_4" data-name="Rectángulo 4" class="cls-1" x="68" y="51" width="264" height="198"/><g id="Grupo_34" data-name="Grupo 34"><g id="Grupo_33" data-name="Grupo 33"><path id="Trazado_48" data-name="Trazado 48" class="cls-4" d="M267.31,156.39A67.32,67.32,0,1,1,200,89.08h0A67.31,67.31,0,0,1,267.31,156.39Z"/><g id="Grupo_25" data-name="Grupo 25"><path id="Trazado_49" data-name="Trazado 49" class="cls-5" d="M75.64,201.71v-.29c.39,0,.59-.09.59-.28V194c0-.19-.2-.28-.59-.28v-.29H81.2a4.39,4.39,0,0,1,2.38.56,2.09,2.09,0,0,1,.87,1.91,2.07,2.07,0,0,1-.87,1.9,4.39,4.39,0,0,1-2.38.56H78v2.81c0,.19.18.28.51.28v.29Zm5.74-4.83a1.89,1.89,0,0,0,.9-.21.83.83,0,0,0,.37-.8.85.85,0,0,0-.37-.81,1.88,1.88,0,0,0-.9-.2H78v2Z"/><path id="Trazado_50" data-name="Trazado 50" class="cls-5" d="M101.11,193.4a6.31,6.31,0,0,1,1.37.14,2.87,2.87,0,0,1,1.06.42,2,2,0,0,1,.68.76,2.53,2.53,0,0,1,.24,1.15,2,2,0,0,1-.62,1.59,3.3,3.3,0,0,1-1.66.74l2.1,3a.4.4,0,0,0,.27.19,1.24,1.24,0,0,0,.27,0v.29h-3v-.29a.69.69,0,0,0,.25,0,.16.16,0,0,0,.11-.13.36.36,0,0,0-.07-.18,2.8,2.8,0,0,0-.19-.28l-1.73-2.46H98v2.81a.26.26,0,0,0,.11.21.67.67,0,0,0,.37.07v.29H95.71v-.29c.3,0,.45-.09.45-.28V194c0-.19-.14-.28-.45-.28v-.29Zm-.41,3.7a5,5,0,0,0,1-.09,1.65,1.65,0,0,0,.6-.24.92.92,0,0,0,.31-.37,1.15,1.15,0,0,0,0-.94,1,1,0,0,0-.31-.37,1.84,1.84,0,0,0-.6-.24,5,5,0,0,0-1-.09H98v2.34Z"/><path id="Trazado_51" data-name="Trazado 51" class="cls-5" d="M124.48,195.1a.3.3,0,0,0-.13-.25,1,1,0,0,0-.47-.09h-5.11v2h3.09a1,1,0,0,0,.49-.09c.11-.06.17-.21.17-.45h.29v2.46h-.29c0-.24-.06-.39-.17-.46a.92.92,0,0,0-.49-.1h-3.09v2.17H124a.57.57,0,0,0,.38-.11.37.37,0,0,0,.16-.3h.28V202h-.28c0-.16-.06-.25-.16-.27a1.58,1.58,0,0,0-.38,0h-7.36v-.28a.31.31,0,0,0,.2-.07.25.25,0,0,0,.08-.21V194a.27.27,0,0,0-.08-.22.37.37,0,0,0-.2-.07v-.28h7.2a.8.8,0,0,0,.47-.11.34.34,0,0,0,.13-.27h.28v2.08Z"/><path id="Trazado_52" data-name="Trazado 52" class="cls-5" d="M136.71,201.42a.39.39,0,0,0,.23-.07.24.24,0,0,0,.09-.21v-7.2a.21.21,0,0,0-.09-.2.46.46,0,0,0-.23-.05v-.29h3v.29a.38.38,0,0,0-.16,0,.18.18,0,0,0-.1.15.48.48,0,0,0,.07.2l.14.27,2.26,4.1,2.27-4.06c.08-.14.14-.24.17-.31a.9.9,0,0,0,.06-.22q0-.18-.21-.18v-.28h2.92v.28a.43.43,0,0,0-.22.06.22.22,0,0,0-.1.2v7.2a.25.25,0,0,0,.1.21.34.34,0,0,0,.22.07v.28h-2.48v-.28c.28,0,.42-.09.42-.28V195.9h0l-3.16,5.81h-.05l-3.11-5.83h0v5.26c0,.19.14.28.43.28v.28h-2.37Z"/><path id="Trazado_53" data-name="Trazado 53" class="cls-5" d="M159.27,201.42c.27,0,.4-.09.4-.28V194c0-.19-.13-.28-.4-.28v-.29h2.62v.29c-.28,0-.42.09-.42.28v7.17c0,.19.14.28.42.28v.29h-2.62Z"/><path id="Trazado_54" data-name="Trazado 54" class="cls-5" d="M176.32,193.69c-.23,0-.35.09-.35.28v4.74a1.46,1.46,0,0,0,.64,1.37,4.94,4.94,0,0,0,3.74,0,1.46,1.46,0,0,0,.64-1.37V194c0-.19-.16-.28-.48-.28v-.29H183v.29c-.25,0-.38.09-.38.28v4.66a3.71,3.71,0,0,1-.27,1.54,2.29,2.29,0,0,1-.8,1,3.2,3.2,0,0,1-1.33.49,14.17,14.17,0,0,1-3.68,0,3.19,3.19,0,0,1-1.34-.49,2.22,2.22,0,0,1-.8-1,3.71,3.71,0,0,1-.27-1.54V194c0-.19-.15-.28-.44-.28v-.29h2.59Z"/><path id="Trazado_55" data-name="Trazado 55" class="cls-5" d="M195,201.42a.34.34,0,0,0,.22-.07.28.28,0,0,0,.1-.21v-7.2a.23.23,0,0,0-.1-.2.54.54,0,0,0-.22-.05v-.29h3v.29a.33.33,0,0,0-.17,0,.16.16,0,0,0-.08.15.66.66,0,0,0,.06.2l.14.27,2.26,4.1,2.27-4.06a3.18,3.18,0,0,0,.16-.31.43.43,0,0,0,.06-.22c0-.12-.06-.18-.2-.18v-.28h2.92v.28a.43.43,0,0,0-.22.06.2.2,0,0,0-.1.2v7.2a.25.25,0,0,0,.1.21.34.34,0,0,0,.22.07v.28h-2.48v-.28c.29,0,.43-.09.43-.28V195.9h0l-3.18,5.81h0l-3.11-5.83h0v5.26c0,.19.15.28.45.28v.28H195Z"/><path id="Trazado_56" data-name="Trazado 56" class="cls-5" d="M233.41,193.69q-.24,0-.24.3a.57.57,0,0,0,0,.18,2.29,2.29,0,0,0,.12.37l1.68,4.39h0l1.67-4.46c0-.13.08-.23.1-.3a.57.57,0,0,0,0-.18q0-.3-.21-.3v-.29h2.69v.29a.15.15,0,0,0-.15.07.41.41,0,0,0,0,.18,1.82,1.82,0,0,0,.16.53l1.69,4.46h0l1.71-4.55a1,1,0,0,0,.11-.42.27.27,0,0,0-.27-.27v-.29h2.34v.29a.28.28,0,0,0-.27.19c-.05.12-.12.28-.19.47l-2.27,6c-.07.17-.12.32-.17.44a.88.88,0,0,0-.07.32.32.32,0,0,0,.08.2.3.3,0,0,0,.21.08v.29h-2.48v-.29a.66.66,0,0,0,.19-.09.2.2,0,0,0,.11-.18.71.71,0,0,0-.06-.28c0-.1-.1-.26-.18-.44L238,195.77h0l-1.72,4.56a3.52,3.52,0,0,0-.24.78.28.28,0,0,0,.21.31v.28h-2.45v-.28a.41.41,0,0,0,.19,0,.15.15,0,0,0,.1-.15A.63.63,0,0,0,234,201c0-.1-.07-.2-.12-.3l-2.52-6.52c0-.1-.09-.2-.14-.3a.3.3,0,0,0-.23-.14v-.29h2.45Z"/><path id="Trazado_57" data-name="Trazado 57" class="cls-5" d="M255.18,201.42a.47.47,0,0,0,.33-.2,2.5,2.5,0,0,0,.23-.39l2.92-6.14c.07-.14.14-.26.19-.37a.85.85,0,0,0,.09-.31.23.23,0,0,0-.11-.22.78.78,0,0,0-.24-.09v-.29h2.67v.29a.65.65,0,0,0-.22.08.24.24,0,0,0-.11.23.54.54,0,0,0,.06.25,2.11,2.11,0,0,0,.16.34l3.28,6.42a.53.53,0,0,0,.22.25,2.11,2.11,0,0,0,.3.16v.28h-2.77v-.28a.3.3,0,0,0,.15-.05.14.14,0,0,0,.1-.14,1,1,0,0,0-.13-.41l-.6-1.17h-3.85l-.57,1.13a1.24,1.24,0,0,0-.15.47c0,.12.1.17.3.17v.29h-2.25Zm6-2.93-1.33-2.94-1.49,2.94Z"/><path id="Trazado_58" data-name="Trazado 58" class="cls-5" d="M280.57,201.14c0,.19.12.28.35.28v.29h-2.43v-.29a.31.31,0,0,0,.2-.07.27.27,0,0,0,.09-.21v-6.28h-2.61a.53.53,0,0,0-.28.07.35.35,0,0,0-.13.3h-.29V193h.29a.34.34,0,0,0,.13.3.54.54,0,0,0,.28.08h7a.57.57,0,0,0,.28-.08.33.33,0,0,0,.13-.3h.28v2.21h-.28a.35.35,0,0,0-.13-.3.55.55,0,0,0-.28-.07h-2.61Z"/><path id="Trazado_59" data-name="Trazado 59" class="cls-5" d="M303.14,195.1a.3.3,0,0,0-.13-.25,1,1,0,0,0-.47-.09h-5.11v2h3.09a1,1,0,0,0,.49-.09q.18-.09.18-.45h.28v2.46h-.28c0-.24-.06-.39-.18-.46a.92.92,0,0,0-.49-.1h-3.09v2.17h5.27a.6.6,0,0,0,.39-.11.36.36,0,0,0,.15-.3h.28V202h-.29c0-.16-.05-.25-.14-.27a1.72,1.72,0,0,0-.39,0h-7.36v-.28a.26.26,0,0,0,.19-.07.22.22,0,0,0,.09-.21V194a.24.24,0,0,0-.09-.22.32.32,0,0,0-.19-.07v-.28h7.2a.83.83,0,0,0,.46-.11.29.29,0,0,0,.13-.27h.29v2.08Z"/><path id="Trazado_60" data-name="Trazado 60" class="cls-5" d="M320.65,193.4a6.31,6.31,0,0,1,1.37.14,2.9,2.9,0,0,1,1.05.42,2,2,0,0,1,.69.76,2.4,2.4,0,0,1,.23,1.15,2,2,0,0,1-.62,1.59,3.19,3.19,0,0,1-1.65.74l2.1,3a.46.46,0,0,0,.26.19,1.33,1.33,0,0,0,.28,0v.29h-3v-.29a.53.53,0,0,0,.25,0,.12.12,0,0,0,.1-.12.35.35,0,0,0-.06-.18c0-.07-.11-.16-.19-.28l-1.74-2.46h-2.25v2.81a.23.23,0,0,0,.1.21.67.67,0,0,0,.37.07v.28h-2.73v-.28c.3,0,.45-.09.45-.28V194c0-.19-.15-.29-.45-.29v-.28Zm-.41,3.7a5,5,0,0,0,.94-.09,1.58,1.58,0,0,0,.6-.24.88.88,0,0,0,.32-.37,1.27,1.27,0,0,0,0-.94.88.88,0,0,0-.32-.37,1.58,1.58,0,0,0-.6-.24,5,5,0,0,0-.94-.09h-2.73v2.34Z"/></g><g id="Grupo_28" data-name="Grupo 28"><g id="Grupo_26" data-name="Grupo 26"><path id="Trazado_61" data-name="Trazado 61" class="cls-5" d="M181.93,85.41a.38.38,0,0,0,.21-.13.36.36,0,0,0,0-.32l-1.07-4.33-.21.07-.22.1a.75.75,0,0,0-.2.15.34.34,0,0,0-.09.19l-.16,0-.4-1.63.15,0a.17.17,0,0,0,.16.13.44.44,0,0,0,.23,0,.57.57,0,0,0,.34-.22.48.48,0,0,0,.07-.37q0-.18-.15-.21a1,1,0,0,0-.24,0l0-.15,2.1-.52,0,.16a.75.75,0,0,0-.24.15.23.23,0,0,0-.06.22l1.47,5.94c0,.15.09.24.17.27a.43.43,0,0,0,.25,0l0,.16-2.14.53Z"/><path id="Trazado_62" data-name="Trazado 62" class="cls-5" d="M191.94,81.57l.16.07a1.24,1.24,0,0,0,0,.16.37.37,0,0,0,.08.15,1.26,1.26,0,0,0,.38.27,2.82,2.82,0,0,0,1,.24,3.85,3.85,0,0,0,.48,0,2,2,0,0,0,2.07-1.9,2.17,2.17,0,0,0,0-.36,11.13,11.13,0,0,1-1.08.57,3.6,3.6,0,0,1-1.16.29,4.69,4.69,0,0,1-1,0,3,3,0,0,1-.94-.3,2.2,2.2,0,0,1-.72-.6,1.76,1.76,0,0,1-.34-.94,2.17,2.17,0,0,1,.21-1.18,2.59,2.59,0,0,1,.72-.86,3.62,3.62,0,0,1,1-.54,4.68,4.68,0,0,1,1.17-.24,3.67,3.67,0,0,1,1.36.14,3.06,3.06,0,0,1,1.86,1.61,3.63,3.63,0,0,1,.34,1.33,4.43,4.43,0,0,1-.14,1.58,3.3,3.3,0,0,1-.69,1.26,3.22,3.22,0,0,1-1.14.86,4.36,4.36,0,0,1-1.54.38,5.91,5.91,0,0,1-1,0,3.47,3.47,0,0,1-.71-.16,4.09,4.09,0,0,1-.47-.19.6.6,0,0,0-.29-.08.46.46,0,0,0-.25.1l-.11-.08Zm2.1-4.06a2.6,2.6,0,0,0-.62.11,1.7,1.7,0,0,0-.53.24,1,1,0,0,0-.35.4,1.26,1.26,0,0,0,.09,1.16,1.12,1.12,0,0,0,.41.34,1.88,1.88,0,0,0,.56.16,3.28,3.28,0,0,0,1.25-.1,1.7,1.7,0,0,0,.53-.24,1.15,1.15,0,0,0,.35-.41,1.09,1.09,0,0,0,.1-.59,1.17,1.17,0,0,0-.19-.57,1.06,1.06,0,0,0-.41-.34,1.8,1.8,0,0,0-.56-.16A3.31,3.31,0,0,0,194,77.51Z"/><path id="Trazado_63" data-name="Trazado 63" class="cls-5" d="M209.39,78.65l-.16-.06,0-.14a.38.38,0,0,0-.06-.13,1,1,0,0,0-.36-.36,3.06,3.06,0,0,0-.51-.26,4.61,4.61,0,0,0-.53-.15,3.07,3.07,0,0,0-.42-.07,2.35,2.35,0,0,0-1.63.38,2.13,2.13,0,0,0-.74,1.51,5.84,5.84,0,0,1,1.22-.41,4.38,4.38,0,0,1,1.3-.08,3.54,3.54,0,0,1,.95.22,2.58,2.58,0,0,1,.81.49,2.2,2.2,0,0,1,.55.73,2.06,2.06,0,0,1-.24,2,2.7,2.7,0,0,1-.83.71,3.38,3.38,0,0,1-1.07.36,4.78,4.78,0,0,1-1.13,0,4,4,0,0,1-1.41-.34,2.87,2.87,0,0,1-1-.75,3.16,3.16,0,0,1-.58-1.14,4.34,4.34,0,0,1,.27-2.91,3.28,3.28,0,0,1,.88-1.11,3.5,3.5,0,0,1,1.24-.68,3.86,3.86,0,0,1,1.51-.16,4.8,4.8,0,0,1,1.06.18,4.59,4.59,0,0,1,.7.27c.16.07.31.16.47.25a.54.54,0,0,0,.27.11h.16a.19.19,0,0,0,.1,0l.1.1Zm-2.57,1.28a2.14,2.14,0,0,0-1.26.24,1.09,1.09,0,0,0-.39,1.49,1.16,1.16,0,0,0,.25.29,2.42,2.42,0,0,0,2.45.2,1.09,1.09,0,0,0,.39-1.49,1,1,0,0,0-.25-.29,2.07,2.07,0,0,0-1.19-.44Z"/><path id="Trazado_64" data-name="Trazado 64" class="cls-5" d="M216.13,82.71l.14.12a.78.78,0,0,0,0,.16.32.32,0,0,0,0,.17,1.29,1.29,0,0,0,.28.38,2.59,2.59,0,0,0,.42.32,3.12,3.12,0,0,0,.49.23,3.53,3.53,0,0,0,.46.15,2,2,0,0,0,2.55-1.15,1.36,1.36,0,0,0,.1-.36,9.69,9.69,0,0,1-1.2.2,3.41,3.41,0,0,1-1.19-.09,4,4,0,0,1-.93-.35,2.88,2.88,0,0,1-.8-.58,2.18,2.18,0,0,1-.49-.79,1.71,1.71,0,0,1,0-1,2.08,2.08,0,0,1,.57-1.06,2.51,2.51,0,0,1,.95-.58,3.47,3.47,0,0,1,1.15-.19,4.65,4.65,0,0,1,1.18.14,3.44,3.44,0,0,1,1.25.56,3.24,3.24,0,0,1,.85.92,3.42,3.42,0,0,1,.41,1.2,3.89,3.89,0,0,1-.09,1.36,4.09,4.09,0,0,1-.65,1.46,3.36,3.36,0,0,1-1,1,3.32,3.32,0,0,1-1.36.45,4.44,4.44,0,0,1-1.58-.12,5.54,5.54,0,0,1-1-.33,3.11,3.11,0,0,1-.63-.38,3.68,3.68,0,0,1-.39-.33.6.6,0,0,0-.25-.16.39.39,0,0,0-.26,0l-.08-.12Zm3.28-3.19a4.58,4.58,0,0,0-.63-.1,1.92,1.92,0,0,0-.58.07,1,1,0,0,0-.73.8,1,1,0,0,0,.27,1,1.76,1.76,0,0,0,.49.33,3.19,3.19,0,0,0,.59.21,3.42,3.42,0,0,0,.63.09,1.57,1.57,0,0,0,.57-.07,1.06,1.06,0,0,0,.47-.27,1.25,1.25,0,0,0,.27-1.13.93.93,0,0,0-.28-.45,1.58,1.58,0,0,0-.48-.33,4.1,4.1,0,0,0-.59-.2Z"/></g><g id="Grupo_27" data-name="Grupo 27"><path id="Trazado_65" data-name="Trazado 65" class="cls-6" d="M219.68,140"/><path id="Trazado_66" data-name="Trazado 66" class="cls-6" d="M275.89,140a77.83,77.83,0,0,0-43.77-54.34"/><path id="Trazado_67" data-name="Trazado 67" class="cls-6" d="M168.82,85.24A77.83,77.83,0,0,0,124.11,140"/><path id="Trazado_68" data-name="Trazado 68" class="cls-6" d="M181.35,140"/></g></g><g id="Grupo_31" data-name="Grupo 31"><g id="Grupo_29" data-name="Grupo 29"><path id="Trazado_69" data-name="Trazado 69" class="cls-5" d="M130,145.76v40.89h-9.54V145.76H101.48v-8H148.9v8Z"/><path id="Trazado_70" data-name="Trazado 70" class="cls-5" d="M214.47,165.28H185.06v21.38h-9.54V137.73h9.54v19.51h29.41V137.73H224v48.93h-9.54Z"/><path id="Trazado_71" data-name="Trazado 71" class="cls-5" d="M298.52,178.68v8H252.25v-10c0-5.16.43-9,3.74-10.56,2.6-1.22,30.55-6.38,31.88-7.23s1.73-2.77,1.73-6.31-.67-5.32-2-6.23S280.56,145,275.56,145s-10.17.46-11.52,1.38-2,2.94-2,6.5V155h-9.6v-2q0-9.21,4.75-12.4t18.43-3.2q13.36,0,18.14,3.23c3.18,2.15,4.78,6.24,4.77,12.27,0,5.69-.6,11.63-6.11,13l-29,6.62c-1.62.49-1.53,2.09-1.53,5.53v.71Z"/></g><g id="Grupo_30" data-name="Grupo 30"><path id="Trazado_72" data-name="Trazado 72" class="cls-5" d="M216.83,134.68a1.87,1.87,0,0,0-1.66,1.07l-.07.12a3.27,3.27,0,0,0-.39,2.74,2.34,2.34,0,0,0,1.47,1.52,4.75,4.75,0,0,0,5.2-.7,6.12,6.12,0,0,0,1.41-5.7,5.07,5.07,0,0,0-3.28-3.82,6.65,6.65,0,0,0-2.56-.55c-3.65,0-6.17,3.32-7.06,6.6-.82,3-.5,7.36,3.08,9.44.86.64,1.7,1.16,2.41,1.59l.27.17.34.22.45.3.23-.48a11.6,11.6,0,0,1,4.67-4.82l-.43-.85a6.58,6.58,0,0,1-4.5.27,4.6,4.6,0,0,1-2.86-2.13,4.47,4.47,0,0,1-.17-3.6,2.92,2.92,0,0,1,.35-.76,3.23,3.23,0,0,1,2.82-1.8,1.7,1.7,0,0,1,1,.33c.83.54.9,1.08.91,1.24A2.12,2.12,0,0,1,218,135,3.33,3.33,0,0,0,216.83,134.68Zm2.27,1.13a1,1,0,0,0,.34-.86,2.48,2.48,0,0,0-1.3-1.9,2.59,2.59,0,0,0-1.59-.5,4.14,4.14,0,0,0-3.66,2.3,3.57,3.57,0,0,0-.4.89,5.12,5.12,0,0,0,3.65,6.95,7.26,7.26,0,0,0,2.66.32,12.06,12.06,0,0,0-2.73,3.3l-.19-.12c-.7-.43-1.52-.94-2.38-1.58-3.17-1.84-3.43-5.68-2.69-8.41.79-2.93,3-5.89,6.14-5.89a5.7,5.7,0,0,1,2.23.49,4.17,4.17,0,0,1,2.69,3.15,5.18,5.18,0,0,1-1.16,4.81,3.75,3.75,0,0,1-4.18.49,1.43,1.43,0,0,1-.92-.95,2.29,2.29,0,0,1,.31-2l.09-.17c.36-.56.67-.56.82-.56a3.11,3.11,0,0,1,.85.21,1.58,1.58,0,0,0,1.42,0Z"/><path id="Trazado_73" data-name="Trazado 73" class="cls-5" d="M239.8,147.32a13.57,13.57,0,0,0-12.46-7.43h-.54a12,12,0,0,0-3,.45,8.61,8.61,0,0,0,1.31-7.45,7.56,7.56,0,0,0-4.79-5.29,8.68,8.68,0,0,0-2.3-.55,9.25,9.25,0,0,0,4.47-4.47,10.66,10.66,0,0,0,.47-6.69,8.53,8.53,0,0,0-4-5.65,9.86,9.86,0,0,0-4.75-1.2,9.53,9.53,0,0,0-7.79,3.9,7.14,7.14,0,0,0-.21,7.19,4.32,4.32,0,0,0,3.67,2.33H210a5.58,5.58,0,0,0,3.71-1.55,4.77,4.77,0,0,0,1.47-5.06,1.25,1.25,0,0,0-1.1-.92.79.79,0,0,0-.34.06c-.52.19-.71.72-.89,1.23a4.83,4.83,0,0,1-1.64,2.4,1.61,1.61,0,0,1-.3.21,1.36,1.36,0,0,1-.81.33c-.58,0-.94-.62-1.1-1a3.56,3.56,0,0,1,.41-3.64,6.3,6.3,0,0,1,4.86-2.1,5.9,5.9,0,0,1,3.07.8c2.44,1.36,3.09,5.14,2.18,7.79-1.24,3.27-5.77,4.09-7.66,4.29l-1.06.09q-1.27.12-2.25.24a6.59,6.59,0,0,0-1.45-2.86,13.06,13.06,0,0,0-5.07-3.48h0c4.95-4.56,4.62-12.29,1.45-17.1a12.51,12.51,0,0,0-7.71-5.89,13,13,0,0,0-3.56-.5,9.82,9.82,0,0,0-2.75.33h-.13a11.35,11.35,0,0,0-2.22.74,6.64,6.64,0,0,0-3.53,4,8,8,0,0,0,.4,5.19L185,107.9a5.68,5.68,0,0,0,2.53,1.93A5.93,5.93,0,0,0,193,109l1.77-1.37h-.45a4.3,4.3,0,0,0,.35-4.47,2.8,2.8,0,0,0-2.15-1.68.92.92,0,0,0-.68.27c-.45.44-.22,1,0,1.52a4.65,4.65,0,0,1,.3,1,2.29,2.29,0,0,1-1.36,2.2,3,3,0,0,1-.47.24c-1.44.6-3-.67-3.47-2.76a3.23,3.23,0,0,1,1.94-4.14l.3-.09a9.64,9.64,0,0,1,3.1-.51,9.49,9.49,0,0,1,8.49,4.84c2.63,4.1,2.35,9.49-.64,12.54-1.59,1.65-3.56,2.24-6.31,3.08a11.52,11.52,0,0,0-6.63,6c-.12.25-.22.51-.32.77l-.06.16a11.16,11.16,0,0,0-.51,4.93,6.94,6.94,0,0,0-1.51.05,8.52,8.52,0,0,0-7.13,6.88,4.67,4.67,0,0,0,.76,3.19,6.6,6.6,0,0,0,2,1.86,4.3,4.3,0,0,0,2.43.72,4,4,0,0,0,3.63-2l.55-1.12h-.14a3.65,3.65,0,0,0-.36-2.76,1.72,1.72,0,0,0-1.25-.87.65.65,0,0,0-.34.07c-.65.24-.78.95-.9,1.58a3.61,3.61,0,0,1-.52,1.46l-.14.13a.43.43,0,0,1-.38.15,2.4,2.4,0,0,1-1.71-1,1.3,1.3,0,0,1-.22-1.17,5.32,5.32,0,0,1,4.29-3.75,2.92,2.92,0,0,1,.51,0c1.6,0,3.29,1.14,4.53,3.07a5.43,5.43,0,0,1,.22,5.88l-.2.33c-.13.22-.27.44-.39.65l-.11.17c-.23.37-.44.71-.61,1a19,19,0,0,0-9.41,6.21,16.88,16.88,0,0,0-1,1.42l-.48-.57c-1.84-2.21-4.19-4.57-7.63-5.38a7.39,7.39,0,0,0-3.93.19l-1.4-1.29c-1.58-1.46-2.92-3.7-1.95-5.62.67-1.4,2.21-2.9,3.74-2.9a2.23,2.23,0,0,1,.95.21,4.3,4.3,0,0,1,2.33,2.56,2,2,0,0,1-.11,1.82,3.2,3.2,0,0,1-2.32.95.36.36,0,0,1-.29-.11,1.4,1.4,0,0,1-.19-1.06,2.53,2.53,0,0,1,.57-1.55,2.68,2.68,0,0,0,.38-.68.91.91,0,0,0-.16-.81,1.89,1.89,0,0,0-2.27-.28,4,4,0,0,0-1.9,3.25,3,3,0,0,0,0,.67,4.32,4.32,0,0,0,1.34,3,3.86,3.86,0,0,0,2.7.95l.56,0a6.08,6.08,0,0,0,4.69-3c1.55-3.81-.91-7.5-4.19-8.87a6.36,6.36,0,0,0-5.41.53,9.48,9.48,0,0,0-3.35,3.62c-1.78,3.18-.27,7.11,2.12,9.33l.33.35a7.16,7.16,0,0,0,.73.63,11.45,11.45,0,0,0-1.89,1.92,8.69,8.69,0,0,0-2.25,4.54,5.74,5.74,0,0,0,2.21,5.18,6.49,6.49,0,0,0,5.3,1.45,4.22,4.22,0,0,0,2.8-2,5.91,5.91,0,0,0,.71-2.88,3.42,3.42,0,0,0-3-3.46,1.11,1.11,0,0,0-.86.33.8.8,0,0,0-.23.48,1.78,1.78,0,0,0,.31,1.3,2.51,2.51,0,0,1,.41,1.53V158a1.5,1.5,0,0,1,0,.24c0,.26,0,1.05-1.2,1.05a3.42,3.42,0,0,1-2.28-1,2.11,2.11,0,0,1-.78-1.58,4.71,4.71,0,0,1,1.54-3.27,6.36,6.36,0,0,1,4.62-2.7,3.44,3.44,0,0,1,.78.08c1.77.31,3.65,1.6,5.56,3.81l.26.34a17,17,0,0,0,1.59,1.7l0,.09h1s0,0,0-.06l.12-.32-.26-.22a13.69,13.69,0,0,1-1.71-1.78l-.28-.35c-2.06-2.4-4.12-3.8-6.11-4.14-2.16-.45-4.47.68-6.28,2.92a5.67,5.67,0,0,0-1.78,3.94,3,3,0,0,0,1.1,2.24,4.4,4.4,0,0,0,2.91,1.2,1.93,1.93,0,0,0,2.15-1.92c0-.12,0-.24,0-.36a3.31,3.31,0,0,0-.51-2.06,1.32,1.32,0,0,1-.23-.69.25.25,0,0,1,.17,0,2.43,2.43,0,0,1,2.06,2.52,5,5,0,0,1-.59,2.42,3.17,3.17,0,0,1-2.14,1.51,5.57,5.57,0,0,1-4.55-1.26,4.82,4.82,0,0,1-1.85-4.32,8,8,0,0,1,2.06-4.07,10.25,10.25,0,0,1,2.23-2.13l.58-.41-.61-.38a6.71,6.71,0,0,1-1.11-.88l-.35-.36c-2.14-2-3.49-5.44-1.95-8.2a8.64,8.64,0,0,1,3-3.27,5.39,5.39,0,0,1,4.55-.46c2.85,1.19,5,4.37,3.69,7.59a5.1,5.1,0,0,1-3.94,2.43,3.08,3.08,0,0,1-2.51-.69,3.37,3.37,0,0,1-1-2.35,2.1,2.1,0,0,1,0-.5,3,3,0,0,1,1.37-2.49,1.47,1.47,0,0,1,1.11,0,1.58,1.58,0,0,1-.24.39,3.38,3.38,0,0,0-.74,2.05,2.19,2.19,0,0,0,.43,1.76,1.31,1.31,0,0,0,1.07.42h0a3.94,3.94,0,0,0,3-1.38,3,3,0,0,0,.22-2.62,5.24,5.24,0,0,0-2.88-3.15,3.12,3.12,0,0,0-1.31-.28c-1.93,0-3.77,1.73-4.59,3.44-1.2,2.37.33,5,2.16,6.73l.49.48c.4.4.71.73.95,1l.21.25.31-.12a6.66,6.66,0,0,1,3.8-.3c3.17.75,5.38,3,7.11,5.06l.33.44a7.09,7.09,0,0,1,.45.72l.42.74.41-.74a16.33,16.33,0,0,1,1.36-2,18,18,0,0,1,9.13-5.93l.19-.06.09-.17c.18-.34.41-.71.68-1.14l.1-.17.41-.66.2-.33a6.35,6.35,0,0,0-.25-6.89c-1.56-2.43-3.84-3.74-5.95-3.45a6.24,6.24,0,0,0-5.07,4.43,2.17,2.17,0,0,0,.34,2,3.41,3.41,0,0,0,2.49,1.45,1.36,1.36,0,0,0,1.09-.46c.1-.09.17-.15.18-.19a4.48,4.48,0,0,0,.7-1.86c.06-.35.16-.81.31-.88a1,1,0,0,1,.45.42,2.85,2.85,0,0,1,.08,2.56l-.16.36a3.09,3.09,0,0,1-2.79,1.5,3.33,3.33,0,0,1-1.92-.57A5.78,5.78,0,0,1,179,141a3.63,3.63,0,0,1-.59-2.48,7.54,7.54,0,0,1,6.34-6.09,6.11,6.11,0,0,1,1.86,0l.68.11-.14-.67a9.84,9.84,0,0,1,.36-5l0-.14c.1-.24.19-.47.3-.72a10.54,10.54,0,0,1,6.09-5.48c2.85-.87,4.91-1.49,6.67-3.32,3.29-3.36,3.62-9.25.78-13.68a10.44,10.44,0,0,0-9.31-5.31,10.69,10.69,0,0,0-3.41.56,4.16,4.16,0,0,0-2.92,5.11,2,2,0,0,0,.08.26c.45,2.13,1.94,3.62,3.62,3.62a2.83,2.83,0,0,0,1.11-.23,3.41,3.41,0,0,0,.61-.29,3.25,3.25,0,0,0,1.81-3.19,5.9,5.9,0,0,0-.37-1.17c-.07-.17-.16-.42-.17-.47h0s0,0,0,0c.16,0,.77.21,1.34,1.22a3.61,3.61,0,0,1-.87,4.12l-.56.47a4.93,4.93,0,0,1-4.56.7,4.62,4.62,0,0,1-2.08-1.57l-1-1.75a7,7,0,0,1-.35-4.53,5.71,5.71,0,0,1,3-3.37,10.86,10.86,0,0,1,2-.66l.16,0a10.09,10.09,0,0,1,2.57-.3,11.86,11.86,0,0,1,3.3.47,11.57,11.57,0,0,1,7.16,5.46c3,4.52,3.3,11.7-1.3,15.93a6.11,6.11,0,0,1-.52.49l-.59.49,1,.41a12.7,12.7,0,0,1,5.16,3.4,5.84,5.84,0,0,1,1.33,2.87l.08.46.46-.08c.71-.12,1.6-.2,2.63-.3l1.07-.1c2.06-.21,7-1.12,8.45-4.9,1-3,.25-7.35-2.59-8.94a6.88,6.88,0,0,0-3.54-.92,7.23,7.23,0,0,0-5.58,2.43,4.51,4.51,0,0,0-.57,4.64,2.25,2.25,0,0,0,2,1.57,2.19,2.19,0,0,0,1.34-.5,1.78,1.78,0,0,0,.38-.28,5.62,5.62,0,0,0,1.91-2.78c.08-.24.22-.63.33-.68a.58.58,0,0,1,.22.33,3.8,3.8,0,0,1-1.22,4,4.72,4.72,0,0,1-3.08,1.3V122l-.14-.47a3.36,3.36,0,0,1-2.82-1.81,6.18,6.18,0,0,1,.14-6.22,8.64,8.64,0,0,1,7-3.5,8.94,8.94,0,0,1,4.29,1.09,7.57,7.57,0,0,1,3.56,5,9.81,9.81,0,0,1-.41,6.1c-1.52,3.27-4.88,5.09-10.26,5.57a11.89,11.89,0,0,1-3-.14l-.51-.1-.05.52a6,6,0,0,1-.38,1.57c-.57,2-2.37,4-4.72,4h-.3a4.3,4.3,0,0,1-3.28-1.69,3.46,3.46,0,0,1-.61-3.07,1,1,0,0,1,.1-.31,2.42,2.42,0,0,1,1.82-1.69.24.24,0,0,1,.22.1c.16.18-.12.8-.34,1.31-.09.21-.18.42-.25.6a2,2,0,0,0,.06,1.91,2.82,2.82,0,0,0,2.23,1.35,1.67,1.67,0,0,0,.31,0,3.81,3.81,0,0,0,3.36-3,4.38,4.38,0,0,0,0-3.63c-.82-1.82-3-3.47-5.6-4.3a6.85,6.85,0,0,1-1.38-.69l-.22-.16-.25.12a25.33,25.33,0,0,1-2.84,1l-.17.06c-.57.19-1.11.37-1.6.56a8.78,8.78,0,0,0-5,5.36,19.58,19.58,0,0,0-.82,4.56l-.06.74.3.14a9.58,9.58,0,0,1,4.08,3.82,7.88,7.88,0,0,1-.1,8.62l-.58.83,1-.1a31.44,31.44,0,0,1,3.5,0h.28l1.48,0a9.22,9.22,0,0,0,3.57-.56c.33-.17.65-.35,1-.55a26.45,26.45,0,0,0,4.89-5.4l.16-.22c.15-.2.28-.38.41-.54l.09-.13v-.16a13.47,13.47,0,0,1,1-4.73,9.45,9.45,0,0,1,4.25-5,8.45,8.45,0,0,1,6.65-.37,6.67,6.67,0,0,1,4.2,4.66,7.63,7.63,0,0,1-1.36,6.88,4.59,4.59,0,0,1-1.35,1.21l.46.83a11.54,11.54,0,0,1,4.92-1.23h.51a12.64,12.64,0,0,1,11.6,6.89,9,9,0,0,1-.11,7.33c-.86,2.06-2.88,4.47-5.85,4.53a7.37,7.37,0,0,1-6.22-3.8A5.58,5.58,0,0,1,226,152a4.92,4.92,0,0,1,2.26-3.21l.24-.16a2.78,2.78,0,0,1,.47-.28,2.9,2.9,0,0,1,2.85-.09,2.67,2.67,0,0,1,1.09,1.95,2.59,2.59,0,0,1-.21,1.71,3.48,3.48,0,0,1-.45-.88l-.12-.27-.08-.2c-.42-.81-.83-1.56-1.94-1.12l-.3.13v0a4.13,4.13,0,0,0-2.21,2.16,3.32,3.32,0,0,0,.08,2.64,6.16,6.16,0,0,0,4.81,3.75,3,3,0,0,0,.43,0c1.74,0,3.43-1.3,4.39-3.38a7.4,7.4,0,0,0,.29-6.35c-1.58-3.59-5.79-6.09-10.24-6.09a8.51,8.51,0,0,0-.88,0,9.93,9.93,0,0,0-9.35,8.18c-.26,1.27-.39,2.45-.51,3.47l-.13,1.13.14.15a7.93,7.93,0,0,1,1,1.55h1.06a8.51,8.51,0,0,0-1.24-2l.09-.8c.1-.92.23-2.07.49-3.32a9,9,0,0,1,8.48-7.41c4.33-.35,8.66,2,10.19,5.49a6.47,6.47,0,0,1-.27,5.55c-.82,1.76-2.17,2.85-3.55,2.85h-.32a5.19,5.19,0,0,1-4-3.19,2.41,2.41,0,0,1-.07-1.9,3.27,3.27,0,0,1,1.83-1.71l.22-.1.18,0c.12,0,.36.48.48.71l.07.16c.05.11.09.22.13.29.34.8.6,1.44,1.3,1.44a1,1,0,0,0,.73-.35,3.24,3.24,0,0,0,.44-2.41l0-.11a3.62,3.62,0,0,0-1.49-2.52,3.78,3.78,0,0,0-3.82,0,5.08,5.08,0,0,0-.59.35l-.2.13a6,6,0,0,0-2.68,3.84,6.6,6.6,0,0,0,.86,4.49,8.37,8.37,0,0,0,7.16,4.26c3.33-.06,5.63-2.79,6.59-5.09A10,10,0,0,0,239.8,147.32Zm-31.63-13.79a14.59,14.59,0,0,0-1,4.92,5.34,5.34,0,0,0-.32.43l-.17.23a25.52,25.52,0,0,1-4.66,5.18,5.81,5.81,0,0,1-4,.94l-1.45,0h-.28c-.63,0-1.29-.05-1.91-.05h-.79a8.86,8.86,0,0,0-.36-8.86,10.59,10.59,0,0,0-4.18-4v-.08a18.47,18.47,0,0,1,.77-4.36,7.79,7.79,0,0,1,4.44-4.77c.46-.18,1-.35,1.53-.54l.18-.06c.88-.28,1.8-.59,2.7-1a9.55,9.55,0,0,0,1.37.65c2.4.77,4.34,2.23,5.06,3.8a3.41,3.41,0,0,1,0,2.91c-.45,1.43-1.43,2.35-2.47,2.35l-.22,0a1.86,1.86,0,0,1-1.49-.88,1,1,0,0,1,0-1c.08-.21.17-.42.26-.62.36-.81.73-1.66.22-2.26-.63-.91-2.74-.52-3.67,1.8a1.92,1.92,0,0,0-.15.48,4.31,4.31,0,0,0,.78,3.84,5.31,5.31,0,0,0,4,2.07h.29c2.83,0,5-2.35,5.62-4.62a7.27,7.27,0,0,0,.36-1.29,11.85,11.85,0,0,0,2.79.07l.42,0A10.92,10.92,0,0,0,208.17,133.53Z"/><path id="Trazado_74" data-name="Trazado 74" class="cls-5" d="M208.06,140.18l-.56,1.07a17.33,17.33,0,0,1-3.63,4.67,8.76,8.76,0,0,1-6,1.73l-.61,0c-.85,0-1.65-.08-2.44-.08a16.56,16.56,0,0,0-2.73.2,16.93,16.93,0,0,0-9.81,5.16,13.45,13.45,0,0,0-2.53,3.92h1a12.08,12.08,0,0,1,2.21-3.27,15.93,15.93,0,0,1,9.27-4.88,25.79,25.79,0,0,1,5-.1l.6,0c.22,0,.46,0,.7,0a9.36,9.36,0,0,0,6-2,18.41,18.41,0,0,0,3.31-4,10.46,10.46,0,0,0,3,4.14l.14.13a4.94,4.94,0,0,0,.44.36A10.73,10.73,0,0,0,215,149l0,0-.19.79a11.88,11.88,0,0,0-.28,2.59,11.82,11.82,0,0,0-4.37-1.38,9.31,9.31,0,0,0-5.84.91,8.68,8.68,0,0,0-3.78,4.63l-.08.23h1a7.82,7.82,0,0,1,3.31-4,8.29,8.29,0,0,1,5.27-.8,11.31,11.31,0,0,1,4.73,1.69l.81.53-.07-1a11.39,11.39,0,0,1,.21-3.19l.2-.79c0-.16.08-.33.12-.47l.16-.51-.53-.1A9.37,9.37,0,0,1,212,146.5c-.13-.1-.24-.2-.35-.3l-.18-.16a9.24,9.24,0,0,1-3.05-4.69Z"/><path id="Trazado_75" data-name="Trazado 75" class="cls-5" d="M208.81,153.38a5.83,5.83,0,0,0-5.75,3.45h1a5.08,5.08,0,0,1,4.75-2.5,8.33,8.33,0,0,1,6,2.5H216A9.13,9.13,0,0,0,208.81,153.38Z"/></g></g><g id="Grupo_32" data-name="Grupo 32"><path id="Trazado_76" data-name="Trazado 76" class="cls-5" d="M93.88,214.54a.6.6,0,0,0,.38-.22,1.85,1.85,0,0,0,.21-.33l2.84-6.18c.08-.18.14-.32.18-.43a.82.82,0,0,0,.07-.31.17.17,0,0,0,0-.15l-.1-.06v-.35h2.87v.35l-.12,0s-.07.07-.07.16a.66.66,0,0,0,.09.27l.18.37,3.08,6.47a.64.64,0,0,0,.21.25.8.8,0,0,0,.25.11v.35h-2.7v-.29a.33.33,0,0,0,.19-.06.2.2,0,0,0,.11-.2.46.46,0,0,0,0-.21c0-.07-.06-.15-.09-.25l-.52-1.09H96.78l-.53,1a2.39,2.39,0,0,0-.13.28.78.78,0,0,0,0,.22.19.19,0,0,0,.09.19.83.83,0,0,0,.27,0v.35H93.89Zm6.36-3.15-1.54-3.2-1.35,3.2Z"/><path id="Trazado_77" data-name="Trazado 77" class="cls-5" d="M120.75,209.27l-.23-.13a1.77,1.77,0,0,0,0-.21.51.51,0,0,0-.25-.37,2.61,2.61,0,0,0-.65-.37,4.67,4.67,0,0,0-.9-.27,4.9,4.9,0,0,0-1-.11,5.44,5.44,0,0,0-1.33.16,3.18,3.18,0,0,0-1.1.52,2.37,2.37,0,0,0-.76.9,3,3,0,0,0-.29,1.35,2.8,2.8,0,0,0,.3,1.34,2.7,2.7,0,0,0,.8.88,3.45,3.45,0,0,0,1.07.48,4.41,4.41,0,0,0,1.14.15,8.91,8.91,0,0,0,1.55-.11,4.28,4.28,0,0,0,1.35-.44v-1.2h-2a.81.81,0,0,0-.37.09.42.42,0,0,0-.19.32h-.34v-2H118a.3.3,0,0,0,.19.25,1.15,1.15,0,0,0,.37.06h3.72v.34a.62.62,0,0,0-.22.17.49.49,0,0,0-.06.29v1.81a.37.37,0,0,0,0,.23.51.51,0,0,0,.23.15v.23c-.11.07-.29.18-.54.31a7.61,7.61,0,0,1-.93.39,8.2,8.2,0,0,1-1.3.31,10.32,10.32,0,0,1-1.66.13,8.49,8.49,0,0,1-2.24-.28,4.68,4.68,0,0,1-1.69-.83,3.65,3.65,0,0,1-1.06-1.34,4.51,4.51,0,0,1,0-3.6,3.74,3.74,0,0,1,1.06-1.34,4.83,4.83,0,0,1,1.69-.86,8.07,8.07,0,0,1,2.24-.3,5.78,5.78,0,0,1,1.31.14,8,8,0,0,1,1,.28,6.22,6.22,0,0,1,.71.29,1.11,1.11,0,0,0,.4.13.85.85,0,0,0,.23,0,.76.76,0,0,0,.19-.12l.23.11Z"/><path id="Trazado_78" data-name="Trazado 78" class="cls-5" d="M135.16,206.86c-.29,0-.43.09-.43.28v4.37a1.82,1.82,0,0,0,.67,1.47,4,4,0,0,0,4.07,0,1.82,1.82,0,0,0,.67-1.47v-4.37c0-.19-.16-.28-.48-.28v-.35h2.64v.35c-.28,0-.41.09-.41.28V212a2.47,2.47,0,0,1-.27,1.13,2.69,2.69,0,0,1-.81,1,4,4,0,0,1-1.39.66,8.33,8.33,0,0,1-4,0,4,4,0,0,1-1.39-.66,2.69,2.69,0,0,1-.81-1A2.47,2.47,0,0,1,133,212v-4.82a.24.24,0,0,0-.11-.22.94.94,0,0,0-.44-.06v-.35h2.72Z"/><path id="Trazado_79" data-name="Trazado 79" class="cls-5" d="M151.61,214.54a.55.55,0,0,0,.37-.22,1.46,1.46,0,0,0,.22-.33l2.83-6.18.19-.43a.81.81,0,0,0,.06-.31c0-.08,0-.13,0-.15l-.11-.06v-.35H158v.35a.33.33,0,0,1-.12,0s-.07.07-.07.16a.66.66,0,0,0,.09.27c.06.11.12.23.18.37l3.08,6.47a.85.85,0,0,0,.21.25.8.8,0,0,0,.25.11v.35h-2.7v-.29a.36.36,0,0,0,.2-.06.23.23,0,0,0,.11-.2.65.65,0,0,0,0-.21l-.1-.25-.51-1.09H154.5l-.52,1a2.39,2.39,0,0,0-.13.28.54.54,0,0,0,0,.22.19.19,0,0,0,.09.19.83.83,0,0,0,.27,0v.35h-2.55Zm6.36-3.15-1.55-3.21-1.35,3.2Z"/><path id="Trazado_80" data-name="Trazado 80" class="cls-5" d="M184.68,207.14c0-.19-.16-.28-.48-.28v-.35h5.54a4,4,0,0,1,2.31.56,2.14,2.14,0,0,1,.77,1.92,2.09,2.09,0,0,1-.77,1.89,4.13,4.13,0,0,1-2.31.53h-3.23v2.85c0,.19.13.29.4.29v.34H184.2v-.34c.32,0,.48-.1.48-.29Zm5,2.85a1.84,1.84,0,0,0,.92-.19A.84.84,0,0,0,191,209a.93.93,0,0,0-.37-.83,1.67,1.67,0,0,0-.92-.24h-3.2V210Z"/><path id="Trazado_81" data-name="Trazado 81" class="cls-5" d="M207.86,206.51a5.25,5.25,0,0,1,2.64.56,2.37,2.37,0,0,1,.76,2.83,2.15,2.15,0,0,1-.5.69,2.57,2.57,0,0,1-.7.48,4.26,4.26,0,0,1-.78.28l1.87,2.72a1.22,1.22,0,0,0,.33.31,1.68,1.68,0,0,0,.39.16v.35H209v-.35c.17,0,.25-.06.25-.17a1.22,1.22,0,0,0-.29-.59l-1.5-2.24h-2.65v2.71a.26.26,0,0,0,.13.23.48.48,0,0,0,.24.06v.35H202.6v-.35c.23,0,.35-.09.35-.29v-7.11c0-.19-.12-.28-.35-.28v-.35Zm0,3.62c1.24,0,1.86-.39,1.86-1.18a.82.82,0,0,0-.44-.75,2.79,2.79,0,0,0-1.42-.28h-3v2.21Z"/><path id="Trazado_82" data-name="Trazado 82" class="cls-5" d="M229.26,208.28c0-.24-.19-.36-.59-.36H224v1.9H227a2,2,0,0,0,.48,0,.23.23,0,0,0,.15-.26h.34v2h-.38a.2.2,0,0,0-.09-.25h-.06a2.35,2.35,0,0,0-.59-.05H224v2.24h4.87a.62.62,0,0,0,.38-.1.32.32,0,0,0,.16-.28h.33v2h-.33a.16.16,0,0,0-.14-.18h0l-.38,0h-7v-.34a.28.28,0,0,0,.19-.07.23.23,0,0,0,.1-.22v-7.11a.23.23,0,0,0-.1-.22.34.34,0,0,0-.19-.07v-.34h6.75c.39,0,.59-.12.59-.34h.35v2.11Z"/><path id="Trazado_83" data-name="Trazado 83" class="cls-5" d="M240.32,214.54a.33.33,0,0,0,.16-.07c.05,0,.07-.13.07-.27v-7a.76.76,0,0,0-.05-.33.23.23,0,0,0-.18,0v-.35H243v.35c-.13,0-.19,0-.19.16a.47.47,0,0,0,.06.21c0,.08.12.2.2.35l2.33,4.28,2.34-4.26c.08-.15.16-.28.2-.37A.49.49,0,0,0,248,207c0-.11-.05-.16-.15-.16v-.35h2.68v.35a.39.39,0,0,0-.18,0,.24.24,0,0,0-.09.2v7.16a.31.31,0,0,0,.09.22.3.3,0,0,0,.18.06v.35h-2.21v-.35c.27,0,.38-.09.35-.28v-5.35h0l-3.24,6h-.15l-3.07-6h0v5.35c0,.19.12.28.33.28v.35h-2.15Z"/><path id="Trazado_84" data-name="Trazado 84" class="cls-5" d="M261.61,214.54a1,1,0,0,0,.42-.06.24.24,0,0,0,.11-.23v-7.11a.22.22,0,0,0-.11-.22,1,1,0,0,0-.42-.07v-.34h2.89v.34c-.35,0-.52.1-.52.29v7.12c0,.19.17.28.52.28v.35h-2.89Z"/><path id="Trazado_85" data-name="Trazado 85" class="cls-5" d="M278,206.86c-.27,0-.42.09-.42.28v4.37a1.82,1.82,0,0,0,.67,1.47,4,4,0,0,0,4.07,0,1.82,1.82,0,0,0,.67-1.47v-4.37c0-.19-.16-.28-.48-.28v-.35h2.65v.35c-.28,0-.42.09-.42.28V212a2.6,2.6,0,0,1-.26,1.13,2.79,2.79,0,0,1-.81,1,4.24,4.24,0,0,1-1.39.66,8.37,8.37,0,0,1-4,0,4,4,0,0,1-1.39-.66,2.69,2.69,0,0,1-.81-1,2.47,2.47,0,0,1-.26-1.13v-4.82a.25.25,0,0,0-.12-.22.94.94,0,0,0-.44-.06v-.35H278Z"/><path id="Trazado_86" data-name="Trazado 86" class="cls-5" d="M295.92,214.54a.46.46,0,0,0,.16-.07.44.44,0,0,0,.07-.27v-7a.76.76,0,0,0,0-.33.24.24,0,0,0-.18,0v-.35h2.64v.35c-.13,0-.19,0-.19.16a.47.47,0,0,0,.06.21c.05.08.11.2.21.35l2.32,4.28,2.34-4.26c.09-.15.15-.28.21-.37a.66.66,0,0,0,.08-.21.14.14,0,0,0-.16-.16v-.35h2.68v.35a.39.39,0,0,0-.18,0,.23.23,0,0,0-.08.2v7.16a.27.27,0,0,0,.08.22.32.32,0,0,0,.18.06v.35h-2.2v-.35c.26,0,.38-.09.34-.28v-5.35h0l-3.23,6h-.16l-3.06-6h0v5.35c0,.19.11.28.32.28v.35h-2.14Z"/></g></g></g></g></g></g></svg>