<svg id="Capa_1" data-name="Capa 1" xmlns="http://www.w3.org/2000/svg" viewBox="0 0 400 400"><defs><style>.cls-1{fill:#200;}.cls-2{fill:#cc1420;}.cls-3{fill:#dba400;}</style></defs><title>LOGOS_COLOR_BNW</title><path class="cls-1" d="M116.13,212.3c0,4,1.88,6.55,5,8.76l4.08,2.9c3.28,2.36,3.61,3.39,3.61,5.1,0,2.21-2.21,3.18-5.11,3.18a14.86,14.86,0,0,1-6.56-1.67l-1.61-.91v8.86l.75-.21a10.41,10.41,0,0,1,3-.43c1.78,0,4.41.37,6.77.37,7.69,0,12-3.44,12-10,0-3.92-1.72-7-5.32-9.57l-4.08-2.9c-2.42-1.72-3.71-2.69-3.71-4.4s1.24-2.91,4.19-2.91a10.55,10.55,0,0,1,5.27,1.4l1.56.86V202.3l-.76.22a11.83,11.83,0,0,1-2.68.32c-1.67,0-3.66-.38-6-.38C119.68,202.46,116.13,205.69,116.13,212.3ZM89.05,238.15h23.38v-8l-.54.43a5.64,5.64,0,0,1-4.19,1.45h-6.34v-8.59h3.81a5.62,5.62,0,0,1,4.19,1.45l.54.43v-9.84l-.54.43a5.62,5.62,0,0,1-4.19,1.45h-3.81v-8.76h6.34a5.64,5.64,0,0,1,4.19,1.46l.54.43v-8H89.05l1,.54c1.08.61,1.45,1.83,1.45,4.19v26.12c0,2.36-.71,3.3-1.6,4Zm50.08-27.36.59-.43a8.21,8.21,0,0,1,5.16-1.72h1.62V233.2a6.09,6.09,0,0,1-1.62,4.41l-.43.54h14.19l-.43-.54a6.09,6.09,0,0,1-1.61-4.41V208.64h1.56a8.21,8.21,0,0,1,5.16,1.72l.59.43v-8.22H139.13Zm27.41,27.36h13.67l-.45-.54a5.68,5.68,0,0,1-1.45-4.19v-9.73h2.52l5.54,14.46h10.75a13,13,0,0,1-2.05-3.66l-4.83-12.25c2.25-1.45,2.9-4,2.9-7.52v-3.44c0-5.59-3.28-8.71-9-8.71H167a5.65,5.65,0,0,1,1.4,4.19v26.66a5.68,5.68,0,0,1-1.45,4.19Zm11.77-20.53v-9.24h3.11c1.72,0,2,.75,2,1.72v5.26c0,1-.27,2.26-2.42,2.26Zm21.33,20.53h22.84v-8l-.54.43a5.61,5.61,0,0,1-4.19,1.45h-6.34v-8.59h3.82a5.64,5.64,0,0,1,4.19,1.45l.53.43v-9.84l-.53.43a5.64,5.64,0,0,1-4.19,1.45h-3.82v-8.76h6.34a5.6,5.6,0,0,1,4.19,1.46l.54.43v-8H199.64l.43.54a5.68,5.68,0,0,1,1.45,4.19v26.12a5.68,5.68,0,0,1-1.45,4.19Zm27.52,0h21.08V230l-.54.43a6.55,6.55,0,0,1-4.51,1.61h-4.05V207.3a5.68,5.68,0,0,1,1.45-4.19l.43-.54H227.16l.43.54A5.68,5.68,0,0,1,229,207.3v26.12a5.68,5.68,0,0,1-1.45,4.19Zm23.72,0H272V230l-.54.43a6.58,6.58,0,0,1-4.52,1.61h-4.05V207.3a5.68,5.68,0,0,1,1.45-4.19l.43-.54H250.88l.43.54a5.68,5.68,0,0,1,1.45,4.19v26.12a5.68,5.68,0,0,1-1.45,4.19Zm23.62,0h11.34l-.22-.59a7.79,7.79,0,0,1-.43-4.25l.33-2.69h7l.38,3.07a7.85,7.85,0,0,1-.49,3.87l-.21.59h11.93l-.43-.7a12.16,12.16,0,0,1-1.56-4.41l-4-25.2a10.66,10.66,0,0,1,.21-4.57l.22-.7H279.34l.21.7a9.76,9.76,0,0,1,.32,4.94l-4,25.85a11.22,11.22,0,0,1-.92,3.07Zm11.82-13.6,2-15.69h1.34l2,15.69Zm-70,36h6.51l-.22-.26a3.27,3.27,0,0,1-.84-2.24v-8.7h.5l1.88,5.27h1.57l1.84-5.27h.19v8.88a4.16,4.16,0,0,1-.82,2.06l-.22.26h7l-.22-.26a3.27,3.27,0,0,1-.84-2.24V245.24a3.27,3.27,0,0,1,.84-2.24l.22-.27h-7l-1.67,7H225l-2-7h-6.64l.22.27a3.46,3.46,0,0,1,.79,2.24V258a3.46,3.46,0,0,1-.79,2.24Zm-20.26,0h6.5l-.22-.26a3.31,3.31,0,0,1-.83-2.24v-8.7H202l1.89,5.27h1.57l1.84-5.27h.19v8.88a4.16,4.16,0,0,1-.82,2.06l-.22.26h7l-.22-.26a3.27,3.27,0,0,1-.84-2.24V245.24a3.27,3.27,0,0,1,.84-2.24l.22-.27h-7l-1.67,7h-.09l-2-7h-6.64l.22.27a3.46,3.46,0,0,1,.79,2.24V258a3.46,3.46,0,0,1-.79,2.24Zm-11.19-6.81,1-7.86h1.29l1,7.86Zm-6.11,6.81h5.93l-.13-.26a3.71,3.71,0,0,1-.26-2.15l.17-1.36h4.1l.22,1.53a3.78,3.78,0,0,1-.31,2l-.13.26H194l-.27-.35a5.66,5.66,0,0,1-.79-2.19l-2-12.61a4.28,4.28,0,0,1,.13-2.29l.13-.35h-9.78l.18.35a4.38,4.38,0,0,1,.18,2.46l-2,12.74a4.43,4.43,0,0,1-.62,1.72Zm-10.43-3V245.76h2.37c.79,0,.88.32.88.85v9.78c0,.44-.13,1.1-1.19,1.1Zm-6.11,3h9.36c3,0,4.61-1.58,4.61-4.35v-9.09c0-2.77-1.62-4.35-4.61-4.35h-9.36l.22.27a3.47,3.47,0,0,1,.84,2.24V258a3.47,3.47,0,0,1-.84,2.24Z"/><path class="cls-2" d="M289.44,221.75l2-15.7h.76l2,15.7Zm-11.72,13.59H289l-.21-.59a7.7,7.7,0,0,1-.43-4.25l.32-2.68H295l.37,3.06a7.81,7.81,0,0,1-.48,3.87l-.22.59h12.52l-.43-.7a12.3,12.3,0,0,1-1.55-4.4l-4-25.21a10.6,10.6,0,0,1,.22-4.56l.21-.7h-18.7l.22.7a9.85,9.85,0,0,1,.32,4.94l-4,25.42a10.43,10.43,0,0,1-1.18,3.44Zm-23.73,0h21.09v-8.11l-.54.43a6.55,6.55,0,0,1-4.51,1.61h-4V204.5a5.69,5.69,0,0,1,1.45-4.2l.43-.53H254l.43.53a5.65,5.65,0,0,1,1.46,4.2v26.11a5.6,5.6,0,0,1-1.46,4.19Zm-23.72,0h21.09v-8.11l-.54.43a6.57,6.57,0,0,1-4.51,1.61h-4.06V204.5a5.65,5.65,0,0,1,1.46-4.2l.43-.53H230.27l.43.53a5.69,5.69,0,0,1,1.45,4.2v26.11a5.65,5.65,0,0,1-1.45,4.19Zm-27.51,0H225.6v-8l-.54.43a5.68,5.68,0,0,1-4.19,1.45h-6.34v-8.6h3.81a5.65,5.65,0,0,1,4.19,1.45l.54.43v-9.83l-.54.43a5.65,5.65,0,0,1-4.19,1.45h-3.81v-8.76h6.34a5.68,5.68,0,0,1,4.19,1.45l.54.43v-7.95H202.76l.43.53a5.69,5.69,0,0,1,1.45,4.2v26.11a5.65,5.65,0,0,1-1.45,4.19ZM181.42,215v-9.29h2.69c2.15,0,2.42,1.23,2.42,2.2v4.84c0,1-.27,2.25-2.42,2.25Zm-11.77,20.37H183.3l-.43-.54a5.65,5.65,0,0,1-1.45-4.19v-9.72h2l5.48,14.45h11.29a10.84,10.84,0,0,1-2.58-3.65l-4.84-12.26c2.26-1.45,3.49-4,3.49-7.52v-3.44c0-5.59-3.27-8.7-9-8.7H169.65l.43.53a5.65,5.65,0,0,1,1.46,4.2v26.11a5.6,5.6,0,0,1-1.46,4.19ZM142.25,208l.59-.43a8.18,8.18,0,0,1,5.16-1.72h1.61V230.4a6.13,6.13,0,0,1-1.61,4.4l-.43.54h14.19l-.43-.54a6.09,6.09,0,0,1-1.62-4.4V205.84h1.56a8.18,8.18,0,0,1,5.16,1.72l.59.43v-8.22H142.25Zm-23.65,1.56c0,3.81,1.24,7,4.36,9.19l4.08,2.9c3.28,2.36,4,3.28,4,4.89,0,2.09-1.93,2.9-4.78,2.9a12.44,12.44,0,0,1-6-1.67l-1.61-.91v8.87l.75-.22a10.36,10.36,0,0,1,3-.43c1.77,0,3.87.38,6.23.38,7.69,0,12-3.44,12-10a10.87,10.87,0,0,0-5.05-9.56l-4.09-2.9c-2.41-1.72-3.43-2.69-3.43-4.41s1-2.9,3.92-2.9a11.15,11.15,0,0,1,5.53,1.61l1.56.91v-8.7l-.75.21a11.94,11.94,0,0,1-2.69.33c-1.66,0-3.92-.38-6.29-.38C123.06,199.66,118.6,202.94,118.6,209.55ZM92.7,235.34h22.84v-8l-.54.43a5.65,5.65,0,0,1-4.19,1.45h-6.34v-8.6h3.82a5.68,5.68,0,0,1,4.19,1.45l.53.43v-9.83l-.53.43a5.68,5.68,0,0,1-4.19,1.45h-3.82v-8.76h6.34a5.65,5.65,0,0,1,4.19,1.45l.54.43v-7.95H92.7l.43.53a5.69,5.69,0,0,1,1.45,4.2v26.11a5.65,5.65,0,0,1-1.45,4.19Zm105.38,23.41h6.5l-.22-.27a3.27,3.27,0,0,1-.84-2.24v-8.7h.27l1.71,5.89h2l1.76-5.89h.27v8.7a3.51,3.51,0,0,1-.79,2.24l-.22.27h6.93l-.22-.27a3.27,3.27,0,0,1-.84-2.24V243.46a3.27,3.27,0,0,1,.84-2.24l.22-.27h-6.68l-1.93,7h-.27l-2.28-7h-6.19l.21.27a3.46,3.46,0,0,1,.8,2.24v12.78a3.46,3.46,0,0,1-.8,2.24Zm20.26,0h6.5l-.22-.27a3.27,3.27,0,0,1-.84-2.24v-8.7h.27l1.71,5.89h2l1.77-5.89h.26v8.7a3.51,3.51,0,0,1-.79,2.24l-.22.27h6.93l-.22-.27a3.27,3.27,0,0,1-.84-2.24V243.46a3.27,3.27,0,0,1,.84-2.24l.22-.27H229l-1.93,7h-.27l-2.28-7h-6.19l.22.27a3.51,3.51,0,0,1,.79,2.24v12.78a3.51,3.51,0,0,1-.79,2.24Zm-31.46-6.81,1-7.87h.25l1,7.87ZM181,258.75h5.72l-.14-.27a3.79,3.79,0,0,1-.26-2.15l.18-1.36h3l.22,1.53a3.66,3.66,0,0,1-.3,2l-.14.27h6.33l-.26-.36a5.66,5.66,0,0,1-.79-2.19l-2-12.61a4.28,4.28,0,0,1,.13-2.29l.13-.35h-9.25l.17.35a4.38,4.38,0,0,1,.18,2.46l-2,12.74a4.57,4.57,0,0,1-.61,1.72Zm-10.65-3V244H172c1.05,0,1.18.66,1.18,1.1v9.54c0,.43-.13,1.09-1.18,1.09Zm-6.1,3h9.35c3,0,4.62-1.59,4.62-4.35v-9.1c0-2.77-1.63-4.35-4.62-4.35h-9.35l.22.27a3.52,3.52,0,0,1,.83,2.24v12.78a3.52,3.52,0,0,1-.83,2.24Z"/><polygon class="cls-3" points="199.96 166.18 161.89 193.84 176.43 149.08 138.35 121.41 185.42 121.41 199.96 76.64 214.51 121.41 261.58 121.41 223.5 149.08 238.04 193.84 199.96 166.18"/><path class="cls-1" d="M138.36,191.65v-6.11l-.38.18a5.4,5.4,0,0,1-.82.33,4.94,4.94,0,0,1-.55.15v-1.59a4.5,4.5,0,0,0,1.31-.62,4.68,4.68,0,0,0,1.1-1h1.91v8.69Z"/><path class="cls-1" d="M151.13,191.78a13.9,13.9,0,0,1-2.5-.2A5.51,5.51,0,0,1,147,191a2.16,2.16,0,0,1-1.2-2,1.87,1.87,0,0,1,.27-1,2.64,2.64,0,0,1,.82-.81l.33-.21-.33-.23a2.38,2.38,0,0,1-.69-.69,1.29,1.29,0,0,1-.23-.76,1.75,1.75,0,0,1,.28-1,2.24,2.24,0,0,1,.9-.77,6.13,6.13,0,0,1,1.63-.52,13.81,13.81,0,0,1,2.4-.19,13.65,13.65,0,0,1,2.4.19,6.21,6.21,0,0,1,1.64.52,2.28,2.28,0,0,1,.89.77,1.76,1.76,0,0,1,.29,1,1.34,1.34,0,0,1-.24.76,2.56,2.56,0,0,1-.7.69l-.32.23.33.21a2.61,2.61,0,0,1,.81.81,1.88,1.88,0,0,1,.28,1,2.36,2.36,0,0,1-.29,1.17,2.31,2.31,0,0,1-.92.85,5.51,5.51,0,0,1-1.68.56A13.7,13.7,0,0,1,151.13,191.78Zm0-3.81a4.26,4.26,0,0,0-1.54.22c-.57.21-.69.57-.69.82a.76.76,0,0,0,.21.52,1.6,1.6,0,0,0,.49.32,3.37,3.37,0,0,0,.68.17,5.64,5.64,0,0,0,.85,0,5.42,5.42,0,0,0,.84,0,3.2,3.2,0,0,0,.68-.17,1.53,1.53,0,0,0,.49-.31.76.76,0,0,0,.21-.53.88.88,0,0,0-.68-.82A4.26,4.26,0,0,0,151.13,188Zm0-3.49a5.64,5.64,0,0,0-.73,0,2.65,2.65,0,0,0-.63.15,1.4,1.4,0,0,0-.47.26.64.64,0,0,0-.23.48c0,.24.11.56.64.75a4.15,4.15,0,0,0,1.42.19,4.08,4.08,0,0,0,1.42-.19c.52-.19.63-.51.63-.75a.65.65,0,0,0-.23-.48,1.6,1.6,0,0,0-.47-.26,2.68,2.68,0,0,0-.62-.15A5.64,5.64,0,0,0,151.13,184.48Z"/><path class="cls-1" d="M244.05,191.65a5.92,5.92,0,0,1,.43-1.29,6.58,6.58,0,0,1,1.81-2.25c.37-.3.75-.59,1.13-.85.22-.16.45-.31.68-.46s.46-.3.68-.46.43-.33.64-.5a3.94,3.94,0,0,0,.56-.59l.33-.43h-7.49V183h10.84v.53a3,3,0,0,1-.29,1.3,5.66,5.66,0,0,1-.76,1.14,11.47,11.47,0,0,1-1.05,1c-.39.34-.76.68-1.12,1s-.52.5-.76.75a5.49,5.49,0,0,0-.67.84,4.62,4.62,0,0,0-.47,1,4.54,4.54,0,0,0-.21,1.05Z"/><path class="cls-1" d="M262.38,191.81a9.31,9.31,0,0,1-2.67-.33,4.49,4.49,0,0,1-1.7-.9,3.27,3.27,0,0,1-.92-1.39,6.07,6.07,0,0,1-.28-1.87,6.47,6.47,0,0,1,.26-1.88,3.06,3.06,0,0,1,.88-1.38,4.11,4.11,0,0,1,1.69-.9,9.58,9.58,0,0,1,2.74-.33,10.75,10.75,0,0,1,2.41.22,4.84,4.84,0,0,1,1.52.57,2.09,2.09,0,0,1,.77.8,2.29,2.29,0,0,1,.22.73h-3.23a1.23,1.23,0,0,0-.61-.5,3.14,3.14,0,0,0-1.13-.19,2.71,2.71,0,0,0-.79.12,2.4,2.4,0,0,0-.74.35,2.11,2.11,0,0,0-.55.6,1.7,1.7,0,0,0-.24.86l0,.49.42-.25a3.54,3.54,0,0,1,1-.4,7,7,0,0,1,1.53-.15,10.91,10.91,0,0,1,2.37.22,4.3,4.3,0,0,1,1.42.59,1.77,1.77,0,0,1,.67.79,2.42,2.42,0,0,1,.2,1,3.21,3.21,0,0,1-.24,1.23,2.29,2.29,0,0,1-.81,1,4.38,4.38,0,0,1-1.61.68A11.07,11.07,0,0,1,262.38,191.81Zm-.08-4.11a3.67,3.67,0,0,0-.75.07,2.79,2.79,0,0,0-.62.22,1.35,1.35,0,0,0-.44.37.87.87,0,0,0-.18.53.85.85,0,0,0,.18.53,1.49,1.49,0,0,0,.44.37,2.65,2.65,0,0,0,.62.21,3.48,3.48,0,0,0,.75.07,4.42,4.42,0,0,0,.76-.06,2.22,2.22,0,0,0,.63-.21,1.33,1.33,0,0,0,.45-.36.89.89,0,0,0,.18-.55.91.91,0,0,0-.18-.55,1.28,1.28,0,0,0-.45-.37,2.12,2.12,0,0,0-.63-.2A3.57,3.57,0,0,0,262.3,187.7Z"/><path d="M174.42,289.12a3.81,3.81,0,0,0,1.8-.56,3.16,3.16,0,0,0,1.33-1.52h2v10.38h-2.82v-6a7.89,7.89,0,0,1,.05-1.12,4.69,4.69,0,0,1-2.38.65Z"/><path d="M186.41,291.83a4.83,4.83,0,0,1-.79-.5,2.27,2.27,0,0,1-.81-1.6c0-1.85,1.95-2.91,5.37-2.91a12.14,12.14,0,0,1,3.61.48,2.81,2.81,0,0,1,2,2.42,2.08,2.08,0,0,1-.62,1.43,7.9,7.9,0,0,1-1,.7,3,3,0,0,1,1.59,1.23,2.55,2.55,0,0,1,.39,1.35c0,2-2.21,3.19-5.88,3.19a9.3,9.3,0,0,1-4.25-.9,2.67,2.67,0,0,1-1.51-2.34,2.47,2.47,0,0,1,1.91-2.5Zm2,1.37a1.43,1.43,0,0,0-.69,1.31c.13.81,1.08,1.33,2.41,1.33a3.31,3.31,0,0,0,2-.38,1.33,1.33,0,0,0,.67-1.12c0-1-.87-1.51-2.57-1.51A2.89,2.89,0,0,0,188.44,293.2Zm-.3-3.42c0,.81.73,1.16,2.24,1.16,1.28,0,2.13-.48,2.13-1.21s-.78-1.17-2.18-1.17S188.09,289,188.14,289.78Z"/><path d="M223.42,291.08a7.63,7.63,0,0,0-6.3.3l0,0a2.86,2.86,0,0,1,3-2.68,1.85,1.85,0,0,1,1.81.92L225,289a3.13,3.13,0,0,0-1.23-1.25,6.12,6.12,0,0,0-3.56-.9c-3.77,0-6.32,2.28-6.32,5.66s2.18,5.12,6,5.12a6.76,6.76,0,0,0,4-.89,3.46,3.46,0,0,0,1.64-2.8A3.39,3.39,0,0,0,223.42,291.08Zm-3.68,4.64c-1.58,0-2.49-.59-2.49-1.59a1.29,1.29,0,0,1,.46-1.16,3.21,3.21,0,0,1,2.15-.64,3.67,3.67,0,0,1,1.68.43,1.49,1.49,0,0,1,.76,1.3C222.3,295.05,221.28,295.72,219.74,295.72Z"/><path d="M199.09,287v2.4h8.26a13,13,0,0,1-2.8,2.28,7.79,7.79,0,0,0-3.34,5.7h3.36a5.93,5.93,0,0,1,2.28-4.37c1.61-1.56,3.71-3.07,3.71-5.47V287Z"/><path d="M194.83,268h12.74l-.47,2.78h-8.63v1.94a1.07,1.07,0,0,1-.06.44,1,1,0,0,1,.46-.07h7.22v2.8h-7.62v1.91a.29.29,0,1,0,.4.39h8.28l.48,2.78h-12.8Z"/><path d="M119.49,268h9.93a4.71,4.71,0,0,1,3.23.88,2.81,2.81,0,0,1,1,2.23,2.62,2.62,0,0,1-1.75,2.65v.05a3.49,3.49,0,0,1,2.34,3.35,3.68,3.68,0,0,1-1.67,3,4.73,4.73,0,0,1-3,.76h-10Zm4,2.76a.94.94,0,0,1-.46-.08,1.08,1.08,0,0,1,.07.45v1.21a1,1,0,0,1-.07.46,1.39,1.39,0,0,1,.46-.07h4.69c1,0,1.34-.26,1.34-.94s-.5-1-1.42-1Zm-.39,7a1,1,0,0,1-.07.45,1.22,1.22,0,0,1,.46-.06h4.71c1.24,0,1.83-.43,1.83-1.36s-.59-1.5-1.83-1.5h-5.1Z"/><path d="M143,268h4.34l5.71,13h-4L148,278.4H142.3L141.25,281h-4Zm2.88,8a8,8,0,0,1,1.24.06,11.5,11.5,0,0,1-.52-1.11l-.65-1.61a22.14,22.14,0,0,1-.77-2.14h-.08c-.29.91-.39,1.17-.78,2.14L143.7,275a9.51,9.51,0,0,1-.51,1.11,8.11,8.11,0,0,1,1.23-.06Z"/><path d="M156.61,268H166c2,0,3.11.37,4,1.26a3.83,3.83,0,0,1,1,2.86,3.59,3.59,0,0,1-1.44,3,4.9,4.9,0,0,1-1.71.72,9.08,9.08,0,0,1,.74.91l3.13,4.24h-4.57l-3.58-4.86h-3a1,1,0,0,1-.47-.08,1,1,0,0,1,.08.47V281h-3.64Zm4,2.74a1.24,1.24,0,0,1-.47-.06.92.92,0,0,1,.08.45V273a1.22,1.22,0,0,1-.08.45,1,1,0,0,1,.47-.08h4.47a3.64,3.64,0,0,0,1.87-.25,1.16,1.16,0,0,0,.58-1.05,1.23,1.23,0,0,0-.52-1.11c-.26-.16-.47-.18-1.23-.18Z"/><path d="M240.47,269.69a5.72,5.72,0,0,1,1.95,4.79,6.29,6.29,0,0,1-2.53,5.23c-1.48,1.09-3.17,1.51-5.85,1.51-5.1,0-8-2.48-8-6.84,0-4.09,3.23-6.63,8.44-6.63A8.89,8.89,0,0,1,240.47,269.69Zm-9.18,1.69a4.17,4.17,0,0,0-1.1,3c0,2.61,1.63,4.36,4.08,4.36a3.82,3.82,0,0,0,4-4.2c0-2.67-1.46-4.23-4-4.23A3.72,3.72,0,0,0,231.29,271.38Z"/><path d="M246.6,268h4l5.35,6.67c.72.91.89,1.17,1.51,2l.08,0c-.08-1.07-.08-1.34-.08-2.54V268h3.64v13h-4.14l-5.16-6.44a25.37,25.37,0,0,1-1.53-2.06l-.06,0c.08,1.09.08,1.32.08,2.55V281H246.6Z"/><path d="M270.39,268h4.33l5.72,13h-4l-1.05-2.57h-5.73l-1,2.57h-4Zm2.87,8a8.18,8.18,0,0,1,1.25.06c-.25-.47-.29-.58-.53-1.11l-.64-1.61a22.26,22.26,0,0,1-.78-2.14h-.07c-.3.91-.39,1.17-.78,2.14l-.66,1.61c-.22.53-.28.64-.51,1.11a8,8,0,0,1,1.23-.06Z"/><path d="M186.7,275.84c-.64,1.9-1.73,2.74-3.5,2.74-2.43,0-3.83-1.58-3.83-4.32a4.66,4.66,0,0,1,1-2.9,3.12,3.12,0,0,1,2.63-1.08,3.35,3.35,0,0,1,2.68,1.08,6.4,6.4,0,0,1,.81,1.26l3.83-1.23a4.71,4.71,0,0,0-1.49-1.85,9.07,9.07,0,0,0-5.81-1.79,8.39,8.39,0,0,0-5.06,1.3,6.31,6.31,0,0,0-2.74,5.43,6.25,6.25,0,0,0,3,5.6c1.36.87,2.59,1.14,5.1,1.14a9.92,9.92,0,0,0,4-.7,6.89,6.89,0,0,0,2.81-2.19,3.65,3.65,0,0,0,.63-1.51Z"/><path d="M215.42,268v9.74a1,1,0,0,1-.07.45,1.22,1.22,0,0,1,.46-.06h6.29l.48,2.84H211.79V268Z"/></svg>