<?xml version="1.0" encoding="UTF-8"?>
<!DOCTYPE svg PUBLIC "-//W3C//DTD SVG 1.1//EN" "http://www.w3.org/Graphics/SVG/1.1/DTD/svg11.dtd">
<!-- Creator: CorelDRAW 2019 (64-Bit) -->
<svg xmlns="http://www.w3.org/2000/svg" xml:space="preserve" width="100px" height="88px" version="1.1" style="shape-rendering:geometricPrecision; text-rendering:geometricPrecision; image-rendering:optimizeQuality; fill-rule:evenodd; clip-rule:evenodd"
viewBox="0 0 53.87 47.16"
 xmlns:xlink="http://www.w3.org/1999/xlink"
 xmlns:xodm="http://www.corel.com/coreldraw/odm/2003">
 <defs>
  <style type="text/css">
   <![CDATA[
    .str0 {stroke:black;stroke-width:0.09;stroke-miterlimit:2.61313}
    .fil6 {fill:none}
    .fil4 {fill:none;fill-rule:nonzero}
    .fil5 {fill:black}
    .fil1 {fill:#4D4D4D}
    .fil2 {fill:#990000}
    .fil0 {fill:#990000}
    .fil3 {fill:black;fill-rule:nonzero}
   ]]>
  </style>
 </defs>
 <g id="Layer_x0020_1">
  <metadata id="CorelCorpID_0Corel-Layer"/>
  <polygon class="fil0" points="14.83,7.19 14.77,17.3 24.12,22.7 24.06,12.4 "/>
  <polygon class="fil1" points="33.98,17.43 33.98,7.32 24.81,12.53 24.81,22.64 "/>
  <polygon class="fil2" points="25.19,11.65 25.38,1.54 33.66,6.5 "/>
  <path class="fil3" d="M15.48 25.03l-1.26 0 0 5.94 1.51 0c0.53,0 0.87,-0.05 1.05,-0.14 0.18,-0.1 0.3,-0.21 0.37,-0.34 0.21,-0.4 0.31,-1.18 0.31,-2.35 0,-1.16 -0.06,-1.91 -0.2,-2.22 -0.14,-0.32 -0.33,-0.55 -0.56,-0.68 -0.24,-0.14 -0.64,-0.21 -1.22,-0.21zm0.56 7.08l-1.82 0 0 7.17 1.79 0c0.55,0 0.95,-0.15 1.21,-0.45 0.25,-0.3 0.4,-0.78 0.45,-1.42 0.05,-0.65 0.06,-1.2 0.06,-1.66l0 -0.79c0,-0.93 -0.11,-1.64 -0.34,-2.13 -0.23,-0.48 -0.68,-0.72 -1.35,-0.72zm-3.51 -8.32l2.91 0c1.19,0 2.06,0.17 2.6,0.51 0.54,0.34 0.87,0.95 1.01,1.81 0.06,0.38 0.09,0.85 0.1,1.42l0 0.22c0,1.08 -0.08,1.91 -0.25,2.48 -0.17,0.57 -0.51,0.99 -1.03,1.28 0.59,0.24 1,0.71 1.22,1.42 0.22,0.7 0.33,1.59 0.33,2.65l0 0.3c-0.03,1.62 -0.28,2.8 -0.74,3.53 -0.47,0.73 -1.38,1.09 -2.73,1.09l-3.42 0 0 -16.71z"/>
  <polygon id="1" class="fil3" points="23.51,23.79 25.2,23.79 25.2,40.5 23.51,40.5 "/>
  <path id="2" class="fil3" d="M29.07 26.35c0.11,-0.9 0.43,-1.59 0.96,-2.06 0.52,-0.47 1.34,-0.71 2.46,-0.71 1.11,0 1.89,0.24 2.32,0.7 0.25,0.26 0.44,0.51 0.57,0.76 0.29,0.52 0.43,1.74 0.44,3.67l0 0.94 -1.73 0 0 -1.05c0,-1.47 -0.06,-2.35 -0.17,-2.66 -0.11,-0.32 -0.23,-0.55 -0.35,-0.71 -0.21,-0.29 -0.61,-0.44 -1.18,-0.44 -1.14,0 -1.71,0.9 -1.71,2.69 0,0.63 0.07,1.05 0.21,1.28 0.14,0.23 0.25,0.4 0.32,0.53 0.08,0.12 0.55,0.56 1.45,1.31l1.08 0.92c1.61,1.38 2.41,2.97 2.41,4.77 0,1.79 -0.3,2.98 -0.92,3.55 -0.62,0.57 -1.53,0.85 -2.73,0.85 -1.86,0 -2.92,-0.94 -3.2,-2.82 -0.1,-0.63 -0.15,-1.41 -0.15,-2.33l0 -1.74 1.72 0 0 1.71c0,1.5 0.12,2.54 0.35,3.11 0.24,0.57 0.73,0.86 1.46,0.86 0.73,0 1.2,-0.19 1.4,-0.56 0.19,-0.37 0.31,-0.82 0.32,-1.34 0.02,-0.53 0.03,-1.09 0.03,-1.69 0,-1.25 -0.58,-2.34 -1.75,-3.3l-1.15 -0.92c-1.02,-0.83 -1.69,-1.53 -2.03,-2.09 -0.34,-0.57 -0.51,-1.15 -0.51,-1.73 0,-0.59 0.03,-1.08 0.08,-1.5z"/>
  <path id="3" class="fil3" d="M38.82 26.35c0.12,-0.9 0.44,-1.59 0.96,-2.06 0.52,-0.47 1.34,-0.71 2.46,-0.71 1.12,0 1.89,0.24 2.33,0.7 0.24,0.26 0.43,0.51 0.57,0.76 0.28,0.52 0.43,1.74 0.44,3.67l0 0.94 -1.73 0 0 -1.05c0,-1.47 -0.06,-2.35 -0.17,-2.66 -0.12,-0.32 -0.24,-0.55 -0.35,-0.71 -0.22,-0.29 -0.61,-0.44 -1.18,-0.44 -1.15,0 -1.72,0.9 -1.72,2.69 0,0.63 0.07,1.05 0.22,1.28 0.14,0.23 0.25,0.4 0.32,0.53 0.07,0.12 0.55,0.56 1.44,1.31l1.09 0.92c1.6,1.38 2.4,2.97 2.4,4.77 0,1.79 -0.3,2.98 -0.92,3.55 -0.61,0.57 -1.52,0.85 -2.73,0.85 -1.86,0 -2.92,-0.94 -3.2,-2.82 -0.1,-0.63 -0.15,-1.41 -0.15,-2.33l0 -1.74 1.72 0 0 1.71c0,1.5 0.12,2.54 0.36,3.11 0.24,0.57 0.72,0.86 1.45,0.86 0.73,0 1.2,-0.19 1.4,-0.56 0.2,-0.37 0.31,-0.82 0.33,-1.34 0.01,-0.53 0.03,-1.09 0.03,-1.69 0,-1.25 -0.59,-2.34 -1.76,-3.3l-1.15 -0.92c-1.01,-0.83 -1.69,-1.53 -2.03,-2.09 -0.33,-0.57 -0.5,-1.15 -0.5,-1.73 0,-0.59 0.02,-1.08 0.07,-1.5z"/>
  <path id="4" class="fil4 str0" d="M15.48 25.03l-1.26 0 0 5.94 1.51 0c0.53,0 0.87,-0.05 1.05,-0.14 0.18,-0.1 0.3,-0.21 0.37,-0.34 0.21,-0.4 0.31,-1.18 0.31,-2.35 0,-1.16 -0.06,-1.91 -0.2,-2.22 -0.14,-0.32 -0.33,-0.55 -0.56,-0.68 -0.24,-0.14 -0.64,-0.21 -1.22,-0.21zm0.56 7.08l-1.82 0 0 7.17 1.79 0c0.55,0 0.95,-0.15 1.21,-0.45 0.25,-0.3 0.4,-0.78 0.45,-1.42 0.05,-0.65 0.06,-1.2 0.06,-1.66l0 -0.79c0,-0.93 -0.11,-1.64 -0.34,-2.13 -0.23,-0.48 -0.68,-0.72 -1.35,-0.72zm-3.51 -8.32l2.91 0c1.19,0 2.06,0.17 2.6,0.51 0.54,0.34 0.87,0.95 1.01,1.81 0.06,0.38 0.09,0.85 0.1,1.42l0 0.22c0,1.08 -0.08,1.91 -0.25,2.48 -0.17,0.57 -0.51,0.99 -1.03,1.28 0.59,0.24 1,0.71 1.22,1.42 0.22,0.7 0.33,1.59 0.33,2.65l0 0.3c-0.03,1.62 -0.28,2.8 -0.74,3.53 -0.47,0.73 -1.38,1.09 -2.73,1.09l-3.42 0 0 -16.71z"/>
  <polygon id="5" class="fil4 str0" points="23.51,23.79 25.2,23.79 25.2,40.5 23.51,40.5 "/>
  <path id="6" class="fil4 str0" d="M29.07 26.35c0.11,-0.9 0.43,-1.59 0.96,-2.06 0.52,-0.47 1.34,-0.71 2.46,-0.71 1.11,0 1.89,0.24 2.32,0.7 0.25,0.26 0.44,0.51 0.57,0.76 0.29,0.52 0.43,1.74 0.44,3.67l0 0.94 -1.73 0 0 -1.05c0,-1.47 -0.06,-2.35 -0.17,-2.66 -0.11,-0.32 -0.23,-0.55 -0.35,-0.71 -0.21,-0.29 -0.61,-0.44 -1.18,-0.44 -1.14,0 -1.71,0.9 -1.71,2.69 0,0.63 0.07,1.05 0.21,1.28 0.14,0.23 0.25,0.4 0.32,0.53 0.08,0.12 0.55,0.56 1.45,1.31l1.08 0.92c1.61,1.38 2.41,2.97 2.41,4.77 0,1.79 -0.3,2.98 -0.92,3.55 -0.62,0.57 -1.53,0.85 -2.73,0.85 -1.86,0 -2.92,-0.94 -3.2,-2.82 -0.1,-0.63 -0.15,-1.41 -0.15,-2.33l0 -1.74 1.72 0 0 1.71c0,1.5 0.12,2.54 0.35,3.11 0.24,0.57 0.73,0.86 1.46,0.86 0.73,0 1.2,-0.19 1.4,-0.56 0.19,-0.37 0.31,-0.82 0.32,-1.34 0.02,-0.53 0.03,-1.09 0.03,-1.69 0,-1.25 -0.58,-2.34 -1.75,-3.3l-1.15 -0.92c-1.02,-0.83 -1.69,-1.53 -2.03,-2.09 -0.34,-0.57 -0.51,-1.15 -0.51,-1.73 0,-0.59 0.03,-1.08 0.08,-1.5z"/>
  <path id="7" class="fil4 str0" d="M38.82 26.35c0.12,-0.9 0.44,-1.59 0.96,-2.06 0.52,-0.47 1.34,-0.71 2.46,-0.71 1.12,0 1.89,0.24 2.33,0.7 0.24,0.26 0.43,0.51 0.57,0.76 0.28,0.52 0.43,1.74 0.44,3.67l0 0.94 -1.73 0 0 -1.05c0,-1.47 -0.06,-2.35 -0.17,-2.66 -0.12,-0.32 -0.24,-0.55 -0.35,-0.71 -0.22,-0.29 -0.61,-0.44 -1.18,-0.44 -1.15,0 -1.72,0.9 -1.72,2.69 0,0.63 0.07,1.05 0.22,1.28 0.14,0.23 0.25,0.4 0.32,0.53 0.07,0.12 0.55,0.56 1.44,1.31l1.09 0.92c1.6,1.38 2.4,2.97 2.4,4.77 0,1.79 -0.3,2.98 -0.92,3.55 -0.61,0.57 -1.52,0.85 -2.73,0.85 -1.86,0 -2.92,-0.94 -3.2,-2.82 -0.1,-0.63 -0.15,-1.41 -0.15,-2.33l0 -1.74 1.72 0 0 1.71c0,1.5 0.12,2.54 0.36,3.11 0.24,0.57 0.72,0.86 1.45,0.86 0.73,0 1.2,-0.19 1.4,-0.56 0.2,-0.37 0.31,-0.82 0.33,-1.34 0.01,-0.53 0.03,-1.09 0.03,-1.69 0,-1.25 -0.59,-2.34 -1.76,-3.3l-1.15 -0.92c-1.01,-0.83 -1.69,-1.53 -2.03,-2.09 -0.33,-0.57 -0.5,-1.15 -0.5,-1.73 0,-0.59 0.02,-1.08 0.07,-1.5z"/>
  <rect class="fil5" x="28.62" y="42.71" width="17.33" height="0.96" rx="0.4" ry="0.48"/>
  <rect class="fil5" x="9.14" y="42.83" width="0.94" height="0.8" rx="0.19" ry="0.23"/>
  <rect class="fil5" x="10.35" y="42.84" width="0.94" height="0.8" rx="0.19" ry="0.23"/>
  <rect class="fil5" x="11.71" y="42.83" width="0.94" height="0.8" rx="0.19" ry="0.23"/>
  <rect class="fil5" x="12.91" y="42.84" width="0.94" height="0.8" rx="0.19" ry="0.23"/>
  <rect class="fil5" x="11.71" y="42.83" width="0.94" height="0.8" rx="0.19" ry="0.23"/>
  <rect class="fil5" x="12.91" y="42.84" width="0.94" height="0.8" rx="0.19" ry="0.23"/>
  <rect class="fil5" x="14.33" y="42.84" width="0.94" height="0.8" rx="0.19" ry="0.23"/>
  <rect class="fil5" x="15.54" y="42.85" width="0.94" height="0.8" rx="0.19" ry="0.23"/>
  <rect class="fil5" x="16.89" y="42.84" width="0.94" height="0.8" rx="0.19" ry="0.23"/>
  <rect class="fil5" x="18.1" y="42.85" width="0.94" height="0.8" rx="0.19" ry="0.23"/>
  <rect class="fil5" x="19.5" y="42.86" width="0.94" height="0.8" rx="0.19" ry="0.23"/>
  <rect class="fil5" x="20.86" y="42.85" width="0.94" height="0.8" rx="0.19" ry="0.23"/>
  <rect class="fil5" x="22.07" y="42.86" width="0.94" height="0.8" rx="0.19" ry="0.23"/>
  <rect class="fil5" x="23.48" y="42.86" width="0.94" height="0.8" rx="0.19" ry="0.23"/>
  <rect class="fil5" x="24.69" y="42.87" width="0.94" height="0.8" rx="0.19" ry="0.23"/>
  <rect class="fil5" x="26.05" y="42.86" width="0.94" height="0.8" rx="0.19" ry="0.23"/>
  <rect class="fil5" x="27.25" y="42.87" width="0.94" height="0.8" rx="0.19" ry="0.23"/>
  <rect class="fil6" width="53.87" height="47.16"/>
 </g>
</svg>
