<?xml version="1.0" encoding="utf-8"?>
<!-- Generator: Adobe Illustrator 23.0.4, SVG Export Plug-In . SVG Version: 6.00 Build 0)  -->
<svg version="1.1" id="Layer_1" xmlns="http://www.w3.org/2000/svg" xmlns:xlink="http://www.w3.org/1999/xlink" x="0px" y="0px"
	 viewBox="0 0 1200 1200" style="enable-background:new 0 0 1200 1200;" xml:space="preserve">
<g id="XMLID_485_">
	<g id="XMLID_516_">
		<path id="XMLID_586_" d="M575.72,419c0.68-0.78,3.21-1.86,3.21-1.86c0.18,2.64,3.55,6.67,9.8,2.95c0.42,0.5-1.35,3.87-4.05,4.34
			C581.69,424.94,577.24,423.8,575.72,419"/>
		<path id="XMLID_585_" d="M603.53,404.15c-1.86,0-5.95,1.86-6.79,3.88c3.37,2.16,5.18,10.3,5.18,13.09
			c-0.07,2.92-0.52,8.08-3.78,12.21l5.33,6.19"/>
		<path id="XMLID_584_" d="M603.53,404.15c1.85,0,5.81,1.86,6.66,3.88c-3.37,2.16-5.17,10.3-5.17,13.09
			c0.04,2.92,0.51,8.08,3.78,12.21l-5.34,6.19"/>
		<path id="XMLID_583_" d="M615.9,411.65c-4.73,0-7.5,9.09-4.64,16.22c2.91,7.2,7.11,8.78,10.49,8.78c3.37,0,7.76-2.66,5.85-6.61
			c-0.9-1.86-3.82-2.47-4.73-1.86c-0.9,0.62-3,2.33-0.44,4.35c-2.25,1.03-6.76,0.2-8.56-5.38c-1.8-5.58-0.45-8.68,1.12-10.12
			c0.91,2.9,5.18,1.85,5.18-1.65C620.17,413.09,616.79,411.65,615.9,411.65"/>
		<path id="XMLID_582_" d="M609.25,402.05c0.9-5.58,6.58-17.31,12.44-23.3c7.36-1.41,14.95,4.34,12.58,14.96
			c-6.34,1.39-14.95,7.59-18.5,11.7l-0.59-1.93c4.98-5.5,8.94-8.9,14.18-11.45c0.95-3.99-2.59-8.54-7.77-8.54
			c-2.79,2.86-7.98,9.24-10.51,17.9L609.25,402.05"/>
		<path id="XMLID_581_" d="M617.36,406.36c5.31-4.73,13-8.99,18.65-10.45c5.14,3.13,7.43,16.27-3.96,20.76
			c-2.71-2.47-6.36-3.21-9.31-2.75c-0.26-0.61-1.35-1.54-1.69-1.85c2.27-0.85,7.61-0.98,10.15,0.73c3.1-1.63,5.9-8.13,1.6-12.16
			c-4.47,1.31-9.99,3.83-13.27,6.16L617.36,406.36"/>
		<path id="XMLID_580_" d="M631.61,419c-0.68-0.78-3.21-1.86-3.21-1.86c-0.18,2.64-3.55,6.67-9.8,2.95
			c-0.42,0.5,1.35,3.87,4.05,4.34C625.65,424.94,630.09,423.8,631.61,419"/>
		<path id="XMLID_579_" d="M675.01,410.47c-7.91-6.71-24.93-8.94-31.81-1.03c-6.88,7.91-1.72,17.71,6.7,17.71
			c3.44,0,7.4-2.23,7.22-6.7c-0.19-4.82-3.27-4.99-4.13-4.99s-3.62,1.21-3.62,3.96c0,2.41,2.07,4.29,4.99,3.26
			c-2.06,2.93-8.78,2.59-8.78-5.16c0-2.57,2.93-6.36,7.4-6.36c2.57,0.17,5.85,1.03,7.4,3.26
			C662.98,411.84,668.65,409.44,675.01,410.47"/>
		<path id="XMLID_578_" d="M718.7,461.2c-6.88-25.62-25.96-41.28-34.05-45.06c-7.21-3.37-14.69-4.15-19.17-1.58
			c-2.34,0.93-4.01,3.21-4.01,5.88c0,3.48,2.83,6.32,6.32,6.32c1.74,0,3.33-0.71,4.47-1.85c2.09-1.45,4.58-3.71,8.78-3.44
			c8.94,1.14,14.29,7.3,19.43,12.73c6.19,6.54,14.79,17.89,18.23,34.74c3.96-11.35,14.1-16.69,20.47-17.89
			C735.21,441.94,722.32,450.71,718.7,461.2"/>
		<path id="XMLID_577_" d="M679.54,435.51c2.69,0,4.87-2.17,4.87-4.87c0-2.69-2.19-4.86-4.87-4.86c-2.69,0-4.86,2.17-4.86,4.86
			C674.68,433.34,676.86,435.51,679.54,435.51"/>
		<path id="XMLID_574_" d="M785.77,581.02c-4.82,2.97-10.43,4.82-16.85,2.29c4.82,0.34,14.79-1.94,16.85-5.04
			c2.75,2.41,6.88,5.04,9.98,4.69C791.96,583.31,787.27,583.09,785.77,581.02 M804.69,557.85c-5.5-0.34-19.95,0.69-33.37-7.57
			c-1.26,1.04-2.93,2.78-4.59,4.72l1.15-0.93c5.16,1.72,29.58,13.76,31.3,27.52c-6.87-9.17-18.29-19.25-29.6-24.64
			c5.55,4.65,10.39,12.93,5.63,19.77c2.06-5.16-4.57-16.46-9.73-20.24l0.95-0.92c-0.04-0.01-0.1-0.03-0.13-0.06
			c-3.16,3.71-6.22,7.92-6.67,9.23c2.06,2.06,7.22,13.41,3.78,18.23c4.82,3.78,19.61,5.85,22.36,0c3.78,3.78,11.35,3.1,16.51,2.75
			c3.02-5.36,1.45-12.98-0.85-16.22c-1.66-1.91-3.91-3.63-7.06-5.1c2.95,0.3,6.39,2.36,8.4,4.46
			C805.77,567.48,807.65,562.29,804.69,557.85z"/>
		<path id="XMLID_573_" d="M766.17,555.45c0.04,0.02,0.09,0.04,0.13,0.06c0.14-0.17,0.29-0.33,0.43-0.5L766.17,555.45"/>
		<path id="XMLID_572_" d="M766.43,555.56c1.04,0.42,2.1,0.89,3.15,1.39c-0.87-0.72-1.75-1.38-2.63-1.9L766.43,555.56"/>
		<path id="XMLID_568_" d="M651.21,598.51c-0.01,0.01-0.02,0.02-0.03,0.04l-4.03-3.89c3.78-3.95,3.61-11.7-2.75-11.7
			c-8.08,0-19.26,9.46-34.92,20.82c-15.65,11.35-33.53,23.05-58.13,23.05c-24.59,0-52.45-24.94-79.28-22.19
			c9.98-1.54,24.24,0.69,43,8.6c18.74,7.91,27.17,10.66,35.77,10.66c8.6,0,27.68-1.03,57.27-22.52
			c14.28-10.5,25.45-20.29,37.15-20.29C656.96,581.08,654.31,595.25,651.21,598.51 M446.27,544.09c9.63,7.4,29.75,37.15,36.28,50.74
			c-0.85,0.17-4.13,0-4.13,0C470.52,577.12,452.63,551.15,446.27,544.09z M762.82,480.73c-5.38-0.06-11.52,6.22-14.01,14.01
			c0-7.91,4.82-13.41,9.8-14.97c-3.35-0.34-4.82-1.38-6.15-1.58c-7.67,0.84-12.18,12.97-12.59,21.36c-0.48,9.5,1.72,19.95,8.26,31.3
			c-14.22-12.62-19.95-29.13-19.95-38.99c0-13.76,9.4-23.16,13.98-23.61c-4.58-2.98-12.38,3.66-15.82,8.94
			c2.3-12.16,10.32-13.07,13.07-13.76c2.75-0.69,8.26,1.6,7.11,7.79c4.35-1.38,6.65-9.16,6.65-11.23c0-2.06-2.06-7.46-7.57-7.46
			c-17.2,0-23.61,14.1-27.52,23.73c-6.65-30.27-23.68-44.73-28.55-48.5c-5.05-3.89-11.24-2.75-13.3-0.46l7.35,2.86
			c1.72-1.83,9.62,5.06,12.62,8.37c5.27,5.85,12.84,16.98,13.18,24.54c-5.16-12.16-16.28-26.14-24.18-25.33
			c15.66,15.03,25.95,39.71,25.95,67.64c0,38.26-19.34,70.53-45.43,80.09c0.07,1.21,0.02,2.97-0.67,4.53
			c36.45-12.92,47.5-46.21,50.4-70.51c1.71,33.12-19.81,69.45-55.45,75.54c1.4-4.17,4.03-14.28-2.35-19.47
			c-6.54-5.34-16.68-5.34-32.16,4.47c-15.48,9.8-34.05,27-70.51,27c-36.46,0-54.87-20.46-76.71-43.85
			c-21.85-23.39-49.37-53.66-81.87-53.66c-2.93,0-5.08,0.85-5.5,0.94c-1.9,3.87-2.06,6.97-2.06,6.97
			c6.36-1.21,21.84-0.34,31.99,7.73c-12.56-6.36-27.61-7.02-36.8-4.13c-1.03,0.34-1.9,0.95-1.9,0.95c0.52,2.57,1.55,7.13,0.18,10.57
			c2.75-3.27,9.63-4.31,12.04-4.31c28.21,0,65.86,34.57,73.78,75.51c6.03,3.1,12.56,9.29,13.07,11.86
			c10.15-2.41,21.33-2.06,33.89,3.78c12.56,5.85,19.95,10.66,36.46,10.66c16.51,0,35.34-6.12,59.16-24.24
			c20.13-15.31,27.01-20.98,33.02-20.98c6.03,0,5.67,5.5,1.03,10.14l5.12,5.06c0,0.02,0,0.03,0.02,0.02l0.26,0.26
			c61.86,0,71.83-71.2,72.52-84.62c1.89,14.61,12.73,25.11,17.54,30.09l6.36-7.22c-9.63-8.94-17.02-20.98-19.61-33.53
			c2.59,5.67,11.7,21.84,21.85,30.96l6.54-5.34c-4.99-6.88-7.4-15.13-7.91-22.7c2.41,6.54,8.59,16.85,10.66,19.61
			c0,0,3.61-2.23,6.88-4.98c-12.22-20.98-1.9-30.61,3.26-30.61s6.19,2.92,4.47,7.39c0.52-2.92-2.75-3.61-4.47-3.61
			s-3.96,2.06-3.96,4.13c0,2.06,1.9,4.13,4.65,4.13c7.22,0,9.63-12.56,3.96-16.34c-5.68-3.78-11.87,0-15.82,3.62
			c1.38-4.82,7.73-7.4,11.17-6.88c0,0-0.85-2.06-2.75-3.1C764.62,480.93,763.74,480.73,762.82,480.73"/>
		<path id="XMLID_567_" d="M406.25,552.01c-8.75-0.55-15.36-5.16-15.36-10.57c0-2.85,4.49-5.21,11.89-5.27
			c-5.06,0.72-7.19,3.15-7.19,5.04c0,2.24,2.52,6.51,10.77,6.68c8.26,0.18,18.23-1.38,21.78-2.97c0,0-16.17-14.22-33.04-14.22
			c-13.68,0-13.5,7.83-13.5,9.46c0,6.82,8.26,16.26,22.87,16.26c14.62,0,27.52-8.78,27.52-8.78
			C423.11,551.32,412.96,552.44,406.25,552.01"/>
		<path id="XMLID_566_" d="M603.53,404.15c-1.86,0-5.95,1.86-6.79,3.88c3.37,2.16,5.18,10.3,5.18,13.09
			c-0.07,2.92-0.52,8.08-3.78,12.21l5.33,6.19"/>
		<path id="XMLID_565_" d="M584.07,428.18c-0.91-0.61-3.83,0-4.73,1.86c-1.92,3.95,2.47,6.61,5.85,6.61c3.37,0,7.58-1.58,10.49-8.78
			c2.86-7.13,0.1-16.22-4.63-16.22c-0.91,0-4.28,1.43-4.28,3.72c0,3.51,4.28,4.55,5.18,1.65c1.58,1.44,2.92,4.54,1.12,10.12
			c-1.8,5.58-6.3,6.41-8.55,5.38C587.07,430.51,584.97,428.8,584.07,428.18"/>
		<path id="XMLID_564_" d="M607.45,401.18c0.46-4.55,5.29-16.84,11.6-23.88c-2.62-5.8-8.6-10.14-15.58-10.14
			c-6.98,0-12.96,4.34-15.58,10.14c6.3,7.03,11.14,19.33,11.58,23.88l1.78-1.52c-0.18-7.12-5.09-16.78-7.39-21.22
			c2.7-2.47,6.22-4.34,9.61-3.72c3.37-0.62,6.91,1.24,9.62,3.72c-2.31,4.44-7.23,14.09-7.4,21.22"/>
		<path id="XMLID_563_" d="M591.15,405.4l0.6-1.93c-4.98-5.5-8.94-8.9-14.18-11.45c-0.95-3.99,2.59-8.54,7.77-8.54
			c2.78,2.86,7.98,9.24,10.51,17.9l1.84,0.68c-0.9-5.58-6.58-17.31-12.44-23.3c-7.36-1.41-14.93,4.34-12.57,14.96
			C579,395.09,587.61,401.29,591.15,405.4"/>
		<path id="XMLID_562_" d="M574.89,416.67c2.71-2.47,6.36-3.21,9.31-2.75c0.26-0.61,1.35-1.54,1.69-1.85
			c-2.27-0.85-7.61-0.98-10.15,0.73c-3.1-1.63-5.9-8.13-1.6-12.16c4.47,1.31,9.99,3.83,13.27,6.16l2.17-0.43
			c-5.31-4.73-13-8.99-18.65-10.45C565.8,399.04,563.49,412.18,574.89,416.67"/>
		<path id="XMLID_561_" d="M546.55,414.42c1.54-2.23,4.8-3.1,7.39-3.26c4.47,0,7.39,3.78,7.39,6.36c0,7.75-6.7,8.09-8.77,5.16
			c2.92,1.03,4.98-0.85,4.98-3.26c0-2.75-2.75-3.96-3.61-3.96c-0.87,0-3.94,0.18-4.13,4.99c-0.18,4.47,3.78,6.7,7.22,6.7
			c8.42,0,13.58-9.8,6.7-17.71c-6.87-7.91-23.9-5.68-31.81,1.03C538.28,409.44,543.96,411.84,546.55,414.42"/>
		<path id="XMLID_560_" d="M488.24,468.94c3.44-16.85,12.04-28.21,18.23-34.74c5.14-5.43,10.49-11.58,19.43-12.73
			c4.19-0.27,6.69,1.99,8.78,3.44c1.14,1.14,2.73,1.85,4.47,1.85c3.49,0,6.32-2.84,6.32-6.32c0-2.67-1.66-4.95-4.01-5.88
			c-4.48-2.57-11.96-1.8-19.17,1.58c-8.09,3.78-27.17,19.44-34.05,45.06c-3.62-10.49-16.51-19.26-20.47-10.14
			C474.14,452.25,484.28,457.59,488.24,468.94"/>
		<path id="XMLID_557_" d="M421.16,581.02c-1.49,2.06-6.19,2.29-9.98,1.94c3.1,0.34,7.22-2.29,9.98-4.69
			c2.06,3.1,12.04,5.38,16.85,5.04C431.59,585.84,425.98,584,421.16,581.02 M440.64,555.5c-0.04,0.02-0.09,0.03-0.13,0.06l0.95,0.92
			c-5.16,3.78-11.79,15.08-9.73,20.24c-4.77-6.86,0.09-15.16,5.65-19.8c-11.32,5.38-22.75,15.5-29.63,24.67
			c1.72-13.76,26.14-25.8,31.3-27.52l1.16,0.94c-1.68-1.94-3.33-3.68-4.6-4.73c-13.41,8.26-27.86,7.22-33.37,7.57
			c-2.96,4.44-1.09,9.63,1.9,11.01c2.02-2.11,5.47-4.17,8.42-4.47c-3.21,1.5-5.48,3.26-7.16,5.2c-2.26,3.33-3.73,10.84-0.75,16.12
			c5.16,0.34,12.73,1.03,16.51-2.75c2.75,5.85,17.54,3.78,22.36,0c-3.44-4.82,1.72-16.17,3.78-18.23
			C446.87,563.42,443.79,559.21,440.64,555.5z"/>
		<path id="XMLID_556_" d="M440.77,555.45l-0.55-0.43c0.14,0.16,0.29,0.32,0.42,0.49C440.68,555.49,440.73,555.47,440.77,555.45"/>
		<path id="XMLID_555_" d="M437.37,556.92c1.04-0.5,2.1-0.95,3.13-1.36l-0.52-0.51C439.12,555.57,438.24,556.2,437.37,556.92"/>
		<path id="XMLID_552_" d="M728.51,594.84c0,0-3.27,0.17-4.14,0c6.55-13.59,26.66-43.34,36.29-50.74
			C754.31,551.15,736.42,577.12,728.51,594.84 M824.64,532.58c-1.38-3.44-0.34-8,0.17-10.57c0,0-0.85-0.61-1.89-0.95
			c-9.2-2.9-24.24-2.23-36.8,4.13c10.15-8.08,25.63-8.94,31.99-7.73c0,0-0.17-3.1-2.06-6.97c-0.43-0.09-2.57-0.94-5.5-0.94
			c-32.5,0-60.03,30.27-81.87,53.66c-21.84,23.39-40.24,43.85-76.71,43.85c-12.36,0-22.67-1.98-31.5-4.97
			c-3.31,2.42-6.67,4.89-9.79,7.21c22.89,13.86,38.03,14.61,45.42,14.61c8.6,0,17.02-2.75,35.77-10.66
			c18.75-7.91,33.02-10.14,43-8.6c-26.83-2.75-54.69,22.19-79.29,22.19c-19.18,0-34.3-7.12-47.45-15.65
			c-0.73,0.54-1.44,1.08-2.13,1.6c19.31,12.77,35.22,17.31,49.41,17.31c16.51,0,23.91-4.82,36.46-10.66
			c12.55-5.85,23.73-6.19,33.89-3.78c0.51-2.57,7.05-8.77,13.07-11.86c7.91-40.93,45.57-75.51,73.78-75.51
			C815.01,528.27,821.89,529.3,824.64,532.58z"/>
		<path id="XMLID_551_" d="M811.83,530.68c-16.88,0-33.04,14.22-33.04,14.22c3.55,1.6,13.53,3.15,21.78,2.97
			c8.26-0.17,10.77-4.44,10.77-6.68c0-1.89-2.13-4.32-7.19-5.04c7.4,0.06,11.89,2.42,11.89,5.27c0,5.41-6.61,10.02-15.36,10.57
			c-6.71,0.43-16.87-0.69-25.74-4.38c0,0,12.89,8.78,27.52,8.78c14.61,0,22.87-9.43,22.87-16.26
			C825.33,538.51,825.51,530.68,811.83,530.68"/>
		<path id="XMLID_550_" d="M573.61,590.89c-2.42,0.88-4.9,1.63-7.47,2.23l6.37,5.85c2.17-0.62,4.9-1.51,7.87-2.59L573.61,590.89"/>
		<path id="XMLID_549_" d="M633.33,590.89c2.42,0.88,4.9,1.63,7.47,2.23l-6.37,5.85c-2.17-0.62-4.9-1.51-7.87-2.59L633.33,590.89"/>
		<path id="XMLID_548_" d="M617.17,582.52c-6.81-4.8-11.77-10.36-13.7-15.38c-1.94,5.02-6.89,10.57-13.7,15.38l8.01,5.87
			c2.35-1.43,4.34-2.92,5.69-4.39c1.35,1.48,3.33,2.96,5.68,4.39L617.17,582.52"/>
		<path id="XMLID_547_" d="M561.67,581.08c9.62,0,18.9,6.64,29.84,14.82c2.76-0.97,5.67-2.11,8.69-3.46
			c-7.12-4.33-13.14-8.84-18.74-12.39c-15.48-9.81-25.63-9.81-32.17-4.47c-6.37,5.19-3.75,15.3-2.34,19.47
			c-35.64-6.09-57.14-42.42-55.45-75.54c2.9,24.3,13.95,57.6,50.4,70.51c-0.69-1.55-0.73-3.32-0.67-4.53
			c-26.09-9.56-45.43-41.83-45.43-80.09c0-27.93,10.3-52.61,25.95-67.64c-7.9-0.81-19.02,13.17-24.18,25.33
			c0.34-7.57,7.91-18.7,13.19-24.54c2.65-2.94,9.18-8.7,11.81-8.67c-0.03,0.24-0.06,0.49-0.06,0.74c0,2.69,2.17,4.87,4.86,4.87
			c2.69,0,4.86-2.19,4.86-4.87c0-2.27-1.74-3.95-3.67-4.72c-2.85-1.14-7.33-1.09-11.15,1.86c-4.88,3.77-21.9,18.23-28.55,48.5
			c-3.91-9.63-10.32-23.73-27.52-23.73c-5.5,0-7.57,5.39-7.57,7.46c0,2.06,2.29,9.85,6.65,11.23c-1.14-6.19,4.36-8.48,7.11-7.79
			c2.75,0.69,10.77,1.6,13.07,13.76c-3.44-5.28-11.24-11.93-15.82-8.94c4.58,0.45,13.98,9.85,13.98,23.61
			c0,9.86-5.73,26.37-19.95,38.99c6.54-11.35,8.73-21.8,8.26-31.3c-0.41-8.39-4.92-20.52-12.59-21.36c-1.33,0.2-2.8,1.23-6.15,1.58
			c4.98,1.55,9.8,7.06,9.8,14.97c-2.5-7.79-8.63-14.07-14.01-14.01c-0.92,0-1.81,0.2-2.66,0.6c-1.9,1.03-2.75,3.1-2.75,3.1
			c3.44-0.52,9.8,2.06,11.17,6.88c-3.95-3.62-10.14-7.4-15.82-3.62c-5.67,3.78-3.26,16.34,3.96,16.34c2.75,0,4.64-2.06,4.64-4.13
			c0-2.06-2.23-4.13-3.95-4.13c-1.72,0-4.99,0.69-4.47,3.61c-1.72-4.47-0.69-7.39,4.47-7.39c5.16,0,15.48,9.63,3.26,30.61
			c3.27,2.75,6.88,4.98,6.88,4.98c2.06-2.75,8.26-13.07,10.66-19.61c-0.51,7.57-2.92,15.82-7.91,22.7l6.54,5.34
			c10.15-9.12,19.26-25.29,21.85-30.96c-2.59,12.55-9.98,24.59-19.61,33.53l6.36,7.22c4.82-4.98,15.66-15.48,17.54-30.09
			c0.69,13.41,10.67,84.62,72.52,84.62l0.26-0.26c0.02,0.01,0.03,0,0.02-0.02l5.11-5.06c-4.65-4.64-4.99-10.14,1.03-10.14
			c4.8,0,10.18,3.63,22.4,12.89c0.84-0.24,1.71-0.5,2.6-0.77c-10.95-8.1-19.3-14.03-25.69-14.03c-6.37,0-6.54,7.74-2.75,11.7
			l-4.03,3.89c-0.01-0.02-0.02-0.03-0.03-0.04C552.63,595.25,549.99,581.08,561.67,581.08"/>
		<g>
			<path d="M591.75,521.59c-0.62,3.73,1.09,7.62,4.05,9.95c1.55,1.09,3.26,1.55,5.28,1.24c1.71-0.62,4.19-1.4,4.67-3.57
				c-1.72-4.67-4.21-9.18-7.62-12.92C595.34,515.99,592.68,519.26,591.75,521.59z"/>
			<path d="M569.94,512.84c-0.31-0.31-0.93-0.8-0.93-1.24c0-1.23-0.93-1.85-1.23-2.47c-2.17-2.47-4.34-5.26-7.43-6.5
				c-1.24-0.3-2.79-0.92-4.03-0.61c-3.1,0-6.19-0.31-9.29-0.31c0.31,0.92-0.92,0.31-0.92,0.92c-0.62,8.68-0.31,17.03-0.31,25.7
				c0,0.93,0,2.16,0,3.1c0.31,0.62,0.31,1.55,0.61,1.86c2.17,1.23,4.34-0.31,6.81,0.3c2.47,0.31,4.96,0,7.43-0.61
				c2.78-0.62,4.95-2.8,7.12-5.27c0.92-1.54,2.16-3.1,2.16-4.95c0.31-1.55,1.54-3.41,0.93-4.95
				C570.25,516.24,570.56,514.39,569.94,512.84z"/>
			<path d="M547.02,499.21c5.57-0.3,11.46,0,15.17-4.33c2.49-2.47,1.86-6.18,1.86-10.22c0-0.31,0-0.93,0-1.23
				c-0.62-0.93-0.93-2.17-1.55-3.1c-0.92-1.86-2.79-3.72-4.64-4.65c-0.93-0.62-2.17-1.24-3.1-1.24c-2.17-0.3-4.65-1.23-6.81-0.3
				c-0.62,0.3-0.62,0.92-0.93,1.23c-0.62,2.47-0.62,4.65-0.92,7.12c-0.31,5.26-0.62,10.22,0,15.48
				C546.1,498.6,547.02,498.6,547.02,499.21z"/>
			<path d="M600.15,511.95c1.24-0.31,1.55-1.55,2.17-2.49c0.47-1.25,0.62-3.27-0.31-4.36c-1.4-1.86-3.73-2.49-5.44-0.93
				c-0.78,0.93-1.55,1.86-1.1,3.11C596.27,509.46,598.29,511.02,600.15,511.95z"/>
			<path d="M649.29,433.77c-19.17,0-36.06,12.74-45.91,32.06c-9.84-19.32-26.73-32.06-45.9-32.06c-30.39,0-55.02,32-55.02,71.47
				c0,33.6,17.85,61.77,41.91,69.42c3.83-6.65,9.36-8.63,16.02-8.63c5.64,0,13.43,3.61,17.5,5.6c10.47-5.44,19.35-14.92,25.5-26.97
				c6.15,12.05,15.03,21.54,25.51,26.97c4.06-2,11.86-5.6,17.5-5.6c6.65,0,12.19,1.99,16.02,8.63
				c24.06-7.65,41.91-35.82,41.91-69.42C704.32,465.77,679.67,433.77,649.29,433.77z M581.39,527.08c-0.62,2.47-2.79,4.33-4.95,5.88
				c-0.62,0.31-1.24,0.61-1.86,0.61c-1.54,0.93-2.79,1.86-4.33,2.17c-12.69,2.16-25.08,0.61-37.46,1.23
				c-2.47,0.31-4.95-0.31-7.43-0.31c-1.85,0.31-4.02,1.55-5.88,0c-0.31-0.31-0.31-1.85,0.62-1.85c4.33-0.62,8.36,0,12.69-0.93
				c0.62,0,1.23-0.61,1.54-1.23c1.86-11.46,0.93-21.98,0.62-33.13c-0.31-7.73,0-15.48-0.93-23.52c0-0.93-1.23-1.24-2.16-1.24
				c-4.02,0-7.73,0-11.76-0.61c-0.31,0-0.93-0.62-0.62-1.24c0.31-0.62,1.24-0.93,1.55-0.93c9.6-0.92,19.2-0.18,28.78-0.62
				c6.81-0.3,14.25-0.61,20.44,3.72c3.72,2.79,6.6,6.5,6.29,10.84c0,2.16-0.1,4.33-1.03,6.5c-0.93,1.54-1.85,2.78-3.1,4.02
				c-1.85,1.55-4.64,2.18-6.5,3.72c0.31,0.31,0.93,0.62,1.24,0.93c0.31,0.31,0.92,0,1.54,0c1.24,0.31,2.49,0.93,3.72,1.54
				c3.72,2.49,7.43,5.27,9.29,9.6c0.31,1.24,0.62,2.17,0.62,3.41C583.25,519.65,582.63,523.37,581.39,527.08z M619.44,534.65
				c-2.95-0.16-5.9,0.16-8.71,0.16l-2.33-0.47c-0.78-0.78-0.62-2.33-1.86-2.8c-4.21,3.73-10.11,4.66-15.25,2.49
				c-3.73-2.17-4.82-6.07-4.35-10.11c0.78-4.19,4.82-7.47,8.4-8.87c0.93-1.55-1.56-2.02-1.88-3.26c-0.78-1.4-1.09-3.27-0.47-4.67
				c0.93-2.17,3.27-4.51,5.6-4.97c2.49-0.16,4.82,0,6.38,2.02c0.78,1.4,1.24,2.95,0.78,4.5c-0.48,2.03-2.34,3.43-3.74,4.67
				c0.93,2.49,3.43,4.35,4.83,6.85c0.93,1.24,1.71,2.8,2.95,3.73c1.71-1.4,2.49-3.88,2.95-6.22c0.47-1.24-0.62-2.17-1.55-2.64
				c-0.62-0.16-1.71,0.16-1.86-0.62v-0.31c3.26-0.16,7.47-0.31,11.2,0.16c-0.47,1.4-2.64,0.16-3.57,1.09
				c-3.42,2.95-3.74,7.47-5.91,10.88c1.24,2.65,1.86,6.69,5.45,7.16c1.4,0.62,3.11-0.16,4.04,0.78
				C620.68,534.96,619.75,534.34,619.44,534.65z M692.9,516.24c-3.41,0.31-8.67-1.24-9.91,2.47c-0.62,2.16-0.93,4.96,0,7.12
				c0,0.62,0.93,1.54,0.31,2.16c-4.03,3.41-8.35,6.19-13.32,7.74c-3.1,0.92-5.88,1.54-8.98,1.85c-4.03,0.31-7.73,0-11.76-0.62
				c-2.16-0.31-4.33-0.62-6.5-2.16c-0.62,0-1.24,0-1.85-0.31c-2.79-1.54-5.27-2.79-7.74-4.64c-4.34-3.1-7.12-7.43-8.67-12.07
				c-0.62-1.24-0.93-2.17-1.24-3.11c-1.85-5.26-1.85-10.52-1.54-15.78c0.62-4.96,2.16-9.51,5.26-13.63c1.85-2.47,3.1-4.95,5.57-6.81
				c1.55-1.23,2.49-2.47,4.03-3.41c2.16-1.54,4.03-2.79,6.5-3.72c3.1-1.54,6.19-1.85,9.29-2.16c7.12-0.62,14.55-1.54,21.36,1.86
				c0.93,0.3,2.47,0.61,3.41,0c0.62-0.62,2.16-1.55,2.78-0.62c2.16,3.41,2.16,7.11,2.47,10.83c0.31,1.24,0.62,2.47,0.31,3.72
				c1.24,0,0.31,1.24,0.93,1.55c-0.93,0.61,0.62,1.54-0.31,2.16c0.31,0.31,0.93,0.62,0.62,1.23c-0.62,0.93-2.16,0.62-2.79-0.3
				c-2.17-3.72-4.65-7.43-6.5-11.15c-4.96-9.6-17.65-8.36-26.62-5.26c-4.03,1.54-7.75,4.64-9.91,8.67
				c-1.55,3.41-2.79,7.12-3.41,10.84c-0.62,3.4-0.93,6.49-0.62,9.9c0.31,2.49,0,4.96,0.62,7.43c0.62,2.79,1.85,4.95,2.47,7.74
				c0.93,4.02,2.78,7.73,6.19,10.21c1.85,1.55,3.41,3.72,6.19,4.03c0.31,0,0.62,0.62,0.93,0.93c7.42,2.16,15.78,2.79,21.97-2.17
				c0.62-4.33,3.11-10.52-1.23-12.69c-3.41-1.54-7.74-0.3-11.45-0.61c-0.62-0.31-1.86-0.62-2.17-1.55c-0.3-0.62,0.62-0.93,0.93-1.24
				c4.95-0.3,9.6-0.92,14.55-0.92c6.5-0.31,13-1.55,19.82-0.31c0.62,0.31,1.24,0.93,0.93,1.85
				C693.52,515.62,693.21,516.24,692.9,516.24z"/>
		</g>
		<path id="XMLID_543_" d="M98.49,704.54c2.85,0.15,4.59,0.15,7.28,0.15c14.08,0,22.94-6.32,22.94-16.29
			c0-12.18-10.91-21.68-24.69-21.68c-2.21,0-3.17,0.79-3.63,2.85c-0.96,4.11-1.9,16.3-1.9,24.85V704.54 M98.01,711.98
			c-0.63,1.89-0.79,3.32-0.95,6.32c-0.32,4.75-0.48,11.87-0.48,16.78c0,5.22,0.16,10.12,0.32,15.34c0.16,3.01,0.32,5.22,0.32,5.84
			c0.16,4.12,1.74,5.07,8.86,5.07c13.76,0,18.99-1.42,24.05-6.48c3.95-3.96,7.44-13.13,7.44-19.63c0-7.28-4.91-16.77-11.55-21.99
			c-3.49-2.85-7.6-3.65-17.57-3.65C99.91,709.6,98.65,709.91,98.01,711.98z M112.84,661.81c19.94,0,34.49,10.45,34.49,25.01
			c0,8.86-4.43,14.24-16.14,19.46c16.77,4.91,26.43,16.3,26.43,31.18c0,10.13-5.23,19.3-13.93,24.21
			c-5.7,3.17-13.28,4.59-25.15,4.59c-0.64,0-2.53,0-8.54-0.16h-2.85l-2.85-0.16l-12.82-0.16c-7.12-0.16-13.61-0.32-17.09-0.32
			c-3.8,0-7.28,0.16-10.77,0.64c-1.11,0-2.53,0.16-3.01,0.16c-1.58,0-2.05-0.32-2.05-1.26v-0.96c0-1.42,1.42-1.9,6.32-1.74
			c1.74,0.16,7.6-0.47,11.23-0.95c6.01-0.79,6.97-2.37,6.97-10.29v-70.57c0-13.28-0.64-14.4-7.6-14.4c-3.63,0-8.38,0.16-9.81,0.32
			c-1.26,0.16-2.38,0.32-3.17,0.32c-1.26,0-1.74-0.32-1.74-1.26v-1.26c0-1.42-1.1-1.1,7.12-1.74l6.96-0.64H112.84z"/>
		<path id="XMLID_540_" d="M205.18,741.24l-4.52,1.32c-13.2,3.77-16.02,6.04-16.02,11.87c0,4.15,2.82,7.54,6.4,7.54
			c3.03,0,7.16-2.82,14.14-9.42V741.24 M205.18,731.45c0-9.05-2.82-13.38-8.67-13.38c-5.28,0-8.1,2.44-9.61,8.1
			c-2.08,7.91-3.01,9.24-7.35,9.24c-3.01,0-5.85-3.03-5.85-6.23c0-2.82,2.08-5.64,6.61-8.67c5.64-3.58,13.38-6.21,18.85-6.21
			c6.4,0,13.57,3.77,16.39,8.67c1.32,2.46,2.27,7.34,2.27,12.25v15.45c0,9.61,0.94,11.68,4.71,11.68c1.32,0,2.63-0.38,3.77-0.95
			c0.56-0.37,0.75-0.37,0.94-0.37c0.19,0,0.57,0.18,0.76,0.37c0.38,0.38,0.94,0.95,0.94,1.33c0,0.37-0.94,1.32-1.7,1.89
			c-2.08,1.13-5.28,1.87-7.53,1.87l-4.91,0.19c-6.78,0.19-8.85-1.89-9.61-9.23l-3.01,2.25c-7.54,5.66-11.49,7.16-18.09,7.16
			c-7.16,0-13.39-4.71-13.39-10.18c0-5.09,6.23-10.37,16.21-13.38l18.28-5.66V731.45z"/>
		<path id="XMLID_539_" d="M263.56,714.06c1.33-0.19,1.52,0.38,1.52,1.51c0,0.57-0.19,1.33-0.19,2.08
			c-0.19,0.95-0.38,3.58-0.57,7.73c0,0.75,0,2.06-0.19,3.57c2.45-3.01,3.58-4.33,4.71-5.83c4.53-6.4,5.66-7.35,9.8-7.35
			c4.9,0,8.65,3.39,8.65,7.92c0,2.63-3.76,6.02-6.77,6.02c-1.52,0-2.45-0.76-4.53-3.96c-0.76-1.32-1.7-2.06-2.25-2.06
			c-1.14,0-3.96,2.82-6.97,6.96c-2.45,3.39-3.02,5.47-3.02,11.5v15.07c0,3.01,1.89,4.33,6.59,4.71c6.03,0.38,6.03,0.38,6.03,1.88
			v0.95c0,1.13-0.38,1.51-1.88,1.51c-0.38,0-1.89-0.19-3.39-0.38c-2.45-0.38-5.28-0.38-8.29-0.38h-4.15
			c-6.97,0.19-11.68,0.38-12.25,0.38c-1.51,0.19-2.63,0.38-3.38,0.38c-1.33,0-1.89-0.38-1.89-1.51v-0.95c0-1.51-0.19-1.51,5.64-1.88
			c4.15-0.38,5.66-1.51,5.66-4.15v-33.52c0-0.38-0.57-0.94-0.95-0.94c-0.18,0-0.75,0.19-1.32,0.38l-1.89,0.56
			c-1.89,0.76-2.44,0.95-2.82,0.95c-0.19,0-0.38-0.19-0.76-0.38c0-0.19-0.18-0.38-0.37-0.76c-0.19-0.19-0.19-0.37-0.19-0.37
			c0-0.76,1.7-2.07,3.77-2.83c3.57-1.13,6.78-2.63,9.22-4.52c2.64-1.69,3.77-2.26,5.28-2.26H263.56"/>
		<path id="XMLID_538_" d="M311.56,707.66c0-0.95,0-0.95,0.77-1.72l9.76-9.18c0.39-0.58,0.77-0.77,0.96-0.77
			c0.37,0,0.56,0.19,1.14,0.77l0.95,0.95c0.39,0.39,0.58,0.96,0.58,1.53c0,0.39-0.19,1.16-0.39,2.11c-0.19,1.72-0.57,6.12-0.57,9.76
			v4.22h14.92c1.34,0,1.53,0.19,1.53,1.53v2.67c0,1.35-0.19,1.54-1.53,1.54h-15.31v25.26c0,11.87,1.53,15.7,6.5,15.7
			c2.11,0,4.22-0.77,5.55-1.92c1.53-1.34,1.53-1.34,1.72-1.34c0.19,0,0.39,0.19,0.76,0.39c0.39,0.18,0.77,0.76,0.77,1.14
			c0,0.58-1.53,2.49-3.06,3.64c-3.25,2.11-6.5,3.25-10.34,3.25c-4.6,0-9.77-1.53-12.25-3.83c-1.92-1.72-2.49-4.2-2.49-10.53v-31.76
			h-7.26c-1.16,0-1.54-0.39-1.54-1.16v-0.39c0.19-1.53,0.19-1.53,1.16-1.71l7.65-1.92V707.66"/>
		<path id="XMLID_535_" d="M365.41,740.03c0,13.03,7.74,22.86,18.13,22.86c4.35,0,8.69-2.08,10.39-5.11
			c1.89-3.21,3.97-11.71,3.97-16.05c0-12.66-8.13-22.67-18.51-22.67C370.7,719.06,365.41,726.99,365.41,740.03 M410.74,740.03
			c0,8.5-2.64,13.6-10.01,19.27c-7.55,6.04-12.28,7.74-22.1,7.74c-14.92,0-26.82-10.96-26.82-24.56c0-14.16,14.73-27.39,30.41-27.39
			C397.71,715.09,410.74,726.43,410.74,740.03z"/>
		<path id="XMLID_534_" d="M443.1,727.45c9.36-8.42,15.37-11.8,20.43-11.8c4.68,0,6.56,0.94,14.06,6.93
			c2.81,2.25,3.93,4.32,3.93,7.69c0,1.12-0.18,2.62-0.36,4.3c-0.76,6.93-1.13,11.63-1.13,18.36c0,7.31,1.32,9.57,5.81,9.57
			c5.06,0.19,5.06,0.19,5.06,1.69v0.57c0,1.12-0.38,1.5-1.69,1.5c-0.76,0-1.69-0.19-2.99-0.38c-2.25-0.19-4.51-0.38-6.75-0.38h-4.32
			c-6.18,0.19-10.31,0.38-11.24,0.38c-1.31,0.19-2.25,0.38-3,0.38c-1.13,0-1.7-0.38-1.7-1.5v-0.57c0-1.12,0.38-1.5,1.32-1.5
			l2.06,0.19c3.74,0.36,5.8-2.06,5.8-6.76v-16.3c0-11.62-3.18-18.93-8.24-18.93c-3.94,0-9.55,3.37-17.05,10.5v26.42
			c0,3.75,1.5,5.26,5.81,5.26h0.93c0.38-0.19,0.76-0.19,0.76-0.19c0.93,0,1.12,0.36,1.12,1.31v0.57c0,1.12-0.38,1.5-1.69,1.5
			c-0.76,0-1.69-0.19-3-0.38c-2.25-0.19-4.32-0.38-6.38-0.38h-4.87c-6.56,0.19-10.67,0.38-11.24,0.38
			c-1.31,0.19-2.62,0.38-3.18,0.38c-1.12,0-1.5-0.38-1.5-1.5v-0.57c0-1.31,0.19-1.5,2.25-1.5h0.93c4.3,0,6.37-0.94,7.12-3.18
			c0.55-1.7,1.31-7.31,1.31-10.13v-21.36c0-3.56-0.38-4.68-1.88-4.49c-0.38,0-0.94,0.19-1.5,0.38l-2.25,0.55
			c-1.5,0.38-2.43,0.76-2.62,0.76c-0.57,0-1.31-0.94-1.51-1.88c0-0.38,0.2-0.57,0.94-0.94l16.49-7.11c0.38,0,0.57-0.19,0.76-0.19
			c0.57,0,1.5,0.19,2.43,0.74c0.94,0.57,1.7,1.32,1.7,1.88L443.1,727.45"/>
		<path id="XMLID_533_" d="M733.25,732.38c0,0.96-0.16,1.26-0.63,1.26h-1.58c-0.48,0-1.58,0.32-3.17,0.96l-3.47,1.26
			c-2.38,0.95-3.65,3.47-3.65,7.12c0,2.53,0.32,6.17,0.48,7.12c0.32,0.79,0.32,1.42,0.32,1.74c0,0.95-1.74,2.69-3.96,4.11
			l-8.53,5.86c-5.39,3.79-17.57,7.12-25.8,7.12c-9.17,0-23.73-3.8-31.17-8.08c-15.03-8.69-24.53-26.74-24.53-46.51
			c0-15.82,5.7-29.12,17.73-41.46c8.38-8.86,21.52-13.93,35.28-13.93c9.18,0,20.25,1.74,26.43,4.27c2.53,0.96,4.74,1.58,6.16,1.58
			c0.96,0,2.06-0.63,2.85-1.58c0.48-0.63,0.48-0.63,1.28-0.63h1.42c0.95,0,1.1,0.16,1.26,1.11l3.95,32.28l0.16,0.32
			c0.16,0.79-0.16,0.95-1.26,0.95h-0.96c-1.57,0-2.69-1.9-3.79-6.65c-0.32-0.95-1.58-3.95-3.79-8.23l-3.49-6.64
			c-3.47-6.65-16.14-12.35-27.68-12.35c-14.24,0-25.32,6.49-30.86,18.04c-3.01,6.32-6.01,20.56-6.01,28.96
			c0,5.06,1.42,14.71,3.17,22.31c4.43,18.51,18.83,30.54,36.56,30.54c7.59,0,14.71-2.38,18.19-6.17c1.1-0.95,1.9-6.01,1.9-11.07
			c0-3.8-1.28-6.96-3.17-8.24c-1.74-1.1-7.28-2.37-10.29-2.53c-5.86-0.32-10.45-0.79-11.07-1.26c-0.16-0.16-0.16-0.48-0.16-0.95
			v-1.1c0-0.64,0-0.96,0.31-1.12c1.28-0.63,3.49-0.95,6.17-0.95c1.1,0,8.22,0.48,15.04,1.1c3.17,0.16,5.54,0.32,8.07,0.32
			c2.69,0,6.48-0.32,10.45-0.79c5.38-0.64,8.22-0.96,9.01-0.96c2.22,0,2.85,0.32,2.85,1.42V732.38"/>
		<path id="XMLID_532_" d="M801.14,764.6c-2.29,1.33-4.76,1.89-7.24,1.71c-3.23-0.19-4.76-1.9-4.76-5.72c0-0.96,0-2.67,0.19-4.39
			c-7.43,8.01-11.62,10.66-17.33,10.66c-5.33,0-11.42-1.14-15.04-2.85c-2.86-1.33-4-3.81-4-9.33c0-4.95,0.19-8.18,0.58-11.8
			c0.38-3.43,0.56-5.72,0.56-6.66v-9.33c0-1.71-1.14-3.23-2.66-3.23c-1.14,0-2.85,0.58-4,1.34c-0.75,0.37-1.52,0.56-1.91,0.56
			c-0.38,0-0.75-0.19-1.14-0.75c-0.19-0.38-0.38-0.58-0.38-0.77c0-1.14,4.39-3.62,10.09-5.52c1.71-0.75,3.06-1.33,4.19-1.71
			c3.23-1.52,3.99-1.71,5.7-1.71c1.54,0,3.25,1.71,3.25,3.43c0,0.58,0,1.33-0.19,1.91l-0.38,5.14c-0.77,6.47-1.33,17.33-1.33,23.99
			c0,8.18,2.66,11.99,8.57,11.99c4.56,0,10.47-3.43,13.52-7.8c1.33-1.91,2.1-6.28,2.1-12.19v-22.27c0-1.33,0.75-1.91,3.43-2.29
			c0.56-0.19,1.71-0.38,3.62-0.95c1.71-0.38,3.62-0.77,4.56-0.77c1.52,0,2.86,0.96,2.86,2.1c0,0,0,0.19,0,0.38l-0.77,2.85
			c-0.19,0.77-0.38,2.29-0.58,4.39c-0.56,3.41-0.75,6.09-0.75,7.61v21.89c0,2.48,0.95,4.58,1.91,4.58c0.56,0,1.33-0.19,2.47-0.77
			l2.48-1.33c1.89-0.96,2.28-1.15,2.66-1.15c0.19,0,0.38,0.19,0.58,0.58c0.19,0,0.19,0.19,0.37,0.58c0.19,0.38,0.19,0.38,0.19,0.56
			c0,0.58-1.71,1.91-4.18,3.25L801.14,764.6"/>
		<path id="XMLID_529_" d="M860.96,730.51c0-5.54-5.54-11.25-10.89-11.25c-4.24,0-8.84,2.76-10.32,6.64
			c-0.74,1.66-1.12,3.32-1.49,8.3C857.08,733.46,860.96,732.73,860.96,730.51 M838.08,739.54c0,13.84,7.57,22.51,19.38,22.51
			c4.61,0,10.15-2.03,12.91-4.42c0.74-0.74,1.12-0.93,1.47-0.93c0.19,0,0.56,0.19,0.93,0.93l0.37,0.36
			c0.36,0.37,0.54,0.74,0.54,0.93c0,0.73-2.02,2.39-4.61,3.32l-8.67,3.51c-1.85,0.73-5.52,1.29-9.4,1.29
			c-15.68,0-26.19-9.23-26.19-22.87c0-15.31,12.54-28.41,27.48-28.41c12.18,0,22.32,8.84,22.87,19.92c0,1.47-0.17,1.85-1.47,1.85
			l-35.6-0.56V739.54z"/>
		<path id="XMLID_528_" d="M890.52,747.14c0-1.1,0.36-1.47,0.91-1.47c2.02,0,2.39,0.91,3.49,5.51c0,0.91,1.1,2.75,2.56,5.68
			c2.76,4.77,5.88,6.79,10.65,6.79c5.32,0,8.44-2.93,8.44-7.53c0-2.75-1.65-5.5-4.96-7.89l-10.46-7.7
			c-1.84-1.47-2.93-3.67-2.93-6.24c0-10.28,8.26-18.54,18.89-18.54c1.11,0,2.02,0,2.95,0.19c2.75,0.18,4.4,0.37,4.58,0.37
			c1.65,0,2.21,0.54,2.38,2.56c0,0.74,0.18,2.56,0.55,4.96c0.37,2.21,0.56,4.95,0.56,6.24c0,2.39-0.37,3.3-1.47,3.3
			c-1.47,0.19-2.21-0.73-3.3-4.95c-1.11-4.4-5.69-8.44-9.54-8.44c-3.13,0-6.25,3.3-6.25,6.98c0,3.3,2.21,5.69,9,10.09
			c9.91,6.61,11.19,8.07,11.19,13.4c0,10.28-8.81,17.07-22.38,17.07c-2.58,0-4.97-0.37-6.98-0.92l-4.41-1.1
			c-3.12-0.74-3.47-1.1-3.47-2.39V747.14"/>
		<path id="XMLID_527_" d="M949.28,708.86c0-0.93,0-0.93,0.74-1.69l9.57-8.99c0.36-0.57,0.74-0.76,0.93-0.76
			c0.38,0,0.57,0.19,1.12,0.76l0.95,0.93c0.38,0.38,0.57,0.95,0.57,1.5c0,0.38-0.19,1.13-0.38,2.07c-0.19,1.69-0.57,6-0.57,9.56
			v4.13h14.62c1.32,0,1.51,0.19,1.51,1.5v2.62c0,1.32-0.19,1.51-1.51,1.51h-15v24.75c0,11.63,1.51,15.38,6.39,15.38
			c2.05,0,4.12-0.76,5.43-1.88c1.5-1.31,1.5-1.31,1.7-1.31c0.18,0,0.36,0.19,0.74,0.38c0.38,0.18,0.74,0.74,0.74,1.12
			c0,0.57-1.49,2.44-3,3.57c-3.19,2.07-6.37,3.19-10.13,3.19c-4.5,0-9.56-1.5-12.01-3.75c-1.86-1.69-2.43-4.12-2.43-10.32V722h-7.13
			c-1.12,0-1.5-0.38-1.5-1.13v-0.38c0.19-1.5,0.19-1.5,1.12-1.67l7.51-1.88V708.86"/>
		<path id="XMLID_524_" d="M1016.98,676.01c0,4.56-3.03,7.78-7.4,7.78c-4.35,0-8.15-3.41-7.77-7.21c0.38-4.37,3.99-7.97,7.77-7.97
			C1013.76,668.61,1016.98,671.85,1016.98,676.01 M1024.19,764.73c0,1.13-0.38,1.51-1.71,1.51c-0.75,0-1.71-0.19-3.03-0.38
			c-2.28-0.38-4.93-0.38-7.59-0.38h-3.6c-6.44,0.19-10.8,0.38-11.37,0.38c-1.32,0.19-2.28,0.38-3.03,0.38
			c-1.15,0-1.71-0.38-1.71-1.51v-0.57c0-1.32,0.37-1.51,2.84-1.51c5.12,0,7.21-1.34,7.21-5.12v-27.68c0-4.93-0.19-5.5-1.71-5.5
			c-0.94,0-2.47,0.38-4.18,1.13c-1.32,0.57-2.84,1.15-3.22,1.15c-0.38,0-0.75-0.19-1.13-0.76c-0.57-0.75-0.57-0.56-0.57-0.75
			c0-1.15,3.22-2.85,10.43-5.88c1.71-0.75,3.6-1.71,5.69-2.84c2.47-1.51,3.97-2.09,4.93-2.09c1.9,0,3.03,1.32,3.03,3.22
			c0,0.76-0.19,2.47-0.38,4.35c-0.56,3.6-0.94,15.54-0.94,25.6c0,14.4,0.38,15.35,6.82,15.16c3.03,0,3.22,0,3.22,1.51V764.73z"/>
		<path id="XMLID_521_" d="M1070.31,729.43c0-5.62-5.61-11.42-11.04-11.42c-4.31,0-8.99,2.8-10.49,6.74
			c-0.76,1.69-1.12,3.37-1.5,8.43C1066.39,732.42,1070.31,731.68,1070.31,729.43 M1047.09,738.6c0,14.05,7.69,22.85,19.66,22.85
			c4.69,0,10.3-2.06,13.12-4.49c0.74-0.76,1.12-0.94,1.5-0.94c0.19,0,0.57,0.19,0.93,0.94l0.38,0.36c0.38,0.38,0.57,0.76,0.57,0.94
			c0,0.74-2.06,2.43-4.68,3.37l-8.8,3.56c-1.87,0.74-5.62,1.31-9.56,1.31c-15.91,0-26.59-9.37-26.59-23.22
			c0-15.55,12.74-28.84,27.91-28.84c12.35,0,22.65,8.98,23.22,20.23c0,1.5-0.19,1.87-1.5,1.87l-36.15-0.57V738.6z"/>
		<path id="XMLID_520_" d="M1117.87,714.49c1.32-0.19,1.51,0.38,1.51,1.49c0,0.57-0.19,1.32-0.19,2.06
			c-0.19,0.94-0.38,3.55-0.57,7.67c0,0.74,0,2.04-0.19,3.54c2.43-2.99,3.55-4.29,4.67-5.78c4.49-6.35,5.61-7.29,9.73-7.29
			c4.86,0,8.6,3.36,8.6,7.86c0,2.61-3.74,5.97-6.73,5.97c-1.51,0-2.43-0.75-4.49-3.93c-0.74-1.3-1.68-2.04-2.23-2.04
			c-1.13,0-3.93,2.8-6.91,6.9c-2.43,3.36-3,5.42-3,11.41v14.94c0,2.99,1.87,4.29,6.55,4.67c5.97,0.38,5.97,0.38,5.97,1.87v0.94
			c0,1.12-0.38,1.49-1.87,1.49c-0.38,0-1.87-0.19-3.36-0.38c-2.42-0.38-5.23-0.38-8.22-0.38h-4.1c-6.91,0.19-11.6,0.38-12.15,0.38
			c-1.51,0.19-2.62,0.38-3.36,0.38c-1.32,0-1.87-0.38-1.87-1.49v-0.94c0-1.49-0.19-1.49,5.6-1.87c4.12-0.38,5.61-1.49,5.61-4.12
			v-33.25c0-0.38-0.55-0.93-0.93-0.93c-0.19,0-0.75,0.19-1.32,0.38l-1.87,0.55c-1.86,0.75-2.42,0.94-2.8,0.94
			c-0.19,0-0.38-0.19-0.74-0.38c0-0.19-0.19-0.38-0.38-0.75c-0.19-0.19-0.19-0.36-0.19-0.36c0-0.75,1.68-2.06,3.74-2.81
			c3.55-1.12,6.73-2.61,9.15-4.48c2.62-1.68,3.74-2.25,5.23-2.25H1117.87"/>
		<path id="XMLID_517_" d="M587.74,746.75c2.71-8.85,3.01-18.51,8.34-26.11c-7.53,0-14.6,0-23.88,0
			c12.35,5.93,15.46,12.34,11.63,20.37c-1.02,2.14-2.05,4.61-4.99,2.05c-12.99-11.34-25.25-23.36-32.27-39.48
			c-1.82-4.17-3.06-9.86,1.81-12.69c5-2.91,10.1-0.7,14.16,3.37c4,3.99,5.15,9.59,7.75,14.37c0.81-0.1,1.59,0.03,2.39-0.07
			c-0.31-5.91-0.56-12.05-0.94-17.95c-0.09-1.42-0.72-3.43-2.34-2.82c-4.83,1.82-8.28-1.85-12.43-2.62
			c-14.42-2.66-24.82,7.43-21.82,21.85c0.97,4.65,0.23,7.21-3.76,10.11c-9.09,6.62-11.97,16.11-9.8,27.01
			c2.2,11,9.1,17.88,19.68,21.14c10.26,3.16,20.38,1.99,29.51-3.14c5.05-2.84,8.06-2.72,12.8,0.65c9.83,6.99,18.01,4.96,22.64-4.47
			C602.77,758.56,585.55,753.92,587.74,746.75z M571.61,756.17c-1.11,2.89-10.07,3.3-10.58,3.39
			c-14.18-0.22-30.69-17.09-30.36-30.57c0.1-4.19,1.33-8.6,5.4-10.2c4.84-1.91,5.14,3.5,6.83,5.99c6.6,9.73,15.47,17.19,23.99,25.05
			C568.85,751.63,572.88,752.85,571.61,756.17z"/>
	</g>
	<g id="XMLID_489_">
		<g id="XMLID_495_">
			<path id="XMLID_511_" d="M381.76,832.15v-0.8h0.97c0.85,0,1.49-0.13,1.95-0.4c0.45-0.26,0.78-0.63,1-1.09
				c0.13-0.3,0.19-1.2,0.19-2.71v-19.18c0-1.49-0.08-2.42-0.24-2.79c-0.16-0.37-0.48-0.7-0.96-0.98c-0.48-0.28-1.13-0.42-1.95-0.42
				h-0.97V803h13.05c3.48,0,6.28,0.47,8.41,1.42c2.59,1.16,4.56,2.92,5.9,5.27c1.34,2.35,2.01,5.01,2.01,7.98
				c0,2.05-0.33,3.94-0.99,5.66c-0.66,1.73-1.51,3.15-2.56,4.28c-1.05,1.13-2.25,2.03-3.62,2.71c-1.37,0.68-3.04,1.21-5.02,1.58
				c-0.87,0.17-2.25,0.26-4.13,0.26H381.76z M392.87,804.66v22.74c0,1.2,0.06,1.94,0.17,2.21c0.12,0.27,0.31,0.48,0.58,0.62
				c0.39,0.21,0.95,0.32,1.68,0.32c2.39,0,4.22-0.82,5.48-2.45c1.72-2.21,2.58-5.63,2.58-10.28c0-3.74-0.59-6.73-1.76-8.96
				c-0.93-1.75-2.13-2.94-3.59-3.57C396.98,804.86,395.27,804.64,392.87,804.66z"/>
			<path id="XMLID_509_" d="M437.71,804.68v11.87h0.58c1.33,0,4.51-0.3,6.5-0.9c0.78-0.23,2.97-2.35,3.2-4.04h0.82v11.39h-0.82
				c-0.17-1.24-2.28-3.92-3.01-4.29c-0.73-0.37-5.88-0.55-7.27-0.55v8.21c0,1.61,0.07,2.59,0.2,2.95c0.14,0.36,0.39,0.65,0.76,0.88
				c0.37,0.23,0.97,0.34,1.81,0.34h1.74c2.72,0,4.9-0.63,6.55-1.89c1.64-1.26,2.82-3.18,3.54-5.76h0.8l-1.31,9.27H426.6v-0.8h0.97
				c0.85,0,1.53-0.15,2.04-0.45c0.37-0.2,0.66-0.54,0.86-1.03c0.16-0.34,0.24-1.25,0.24-2.71v-19.18c0-1.32-0.04-2.13-0.11-2.43
				c-0.14-0.5-0.41-0.89-0.8-1.16c-0.54-0.4-1.29-0.6-2.24-0.6h-0.97V803H451v8.62h-0.82c-0.42-2.11-1-3.62-1.75-4.54
				c-0.75-0.92-1.82-1.59-3.19-2.02c-0.8-0.26-2.31-0.39-4.51-0.39H437.71z"/>
			<path id="XMLID_506_" d="M479.86,818.95v8.08c0,1.58,0.1,2.57,0.29,2.98c0.19,0.41,0.54,0.73,1.03,0.98
				c0.49,0.24,1.4,0.37,2.72,0.37v0.8h-14.81v-0.8c1.35,0,2.26-0.13,2.74-0.38c0.48-0.25,0.82-0.58,1.01-0.98
				c0.19-0.4,0.29-1.39,0.29-2.97v-18.92c0-1.58-0.1-2.57-0.29-2.98c-0.19-0.41-0.53-0.73-1.02-0.98c-0.49-0.24-1.4-0.37-2.73-0.37
				V803h12.7c4.18,0,7.19,0.75,9.01,2.24c1.82,1.49,2.73,3.35,2.73,5.59c0,1.89-0.59,3.51-1.76,4.86c-1.17,1.35-2.79,2.26-4.86,2.75
				C485.52,818.78,483.17,818.95,479.86,818.95z M479.86,804.68v12.6c0.47,0.03,0.83,0.04,1.07,0.04c1.75,0,3.1-0.52,4.04-1.56
				c0.95-1.04,1.42-2.65,1.42-4.83c0-2.16-0.47-3.75-1.42-4.75c-0.95-1-2.36-1.5-4.23-1.5H479.86z"/>
			<path id="XMLID_504_" d="M513.02,803h15.05v0.8h-0.75c-1.13,0-1.91,0.12-2.33,0.35c-0.42,0.24-0.72,0.56-0.9,0.98
				c-0.18,0.42-0.27,1.45-0.27,3.12v14.27c0,2.61,0.2,4.34,0.59,5.18c0.39,0.85,1.04,1.55,1.95,2.11c0.9,0.56,2.04,0.84,3.42,0.84
				c1.58,0,2.92-0.35,4.03-1.06c1.11-0.71,1.94-1.69,2.49-2.93c0.55-1.25,0.83-3.42,0.83-6.51v-11.89c0-1.3-0.14-2.24-0.41-2.79
				c-0.27-0.56-0.62-0.95-1.03-1.16c-0.64-0.33-1.56-0.49-2.73-0.49V803h10.08v0.8h-0.6c-0.82,0-1.5,0.16-2.04,0.49
				c-0.54,0.33-0.94,0.82-1.18,1.48c-0.19,0.46-0.28,1.28-0.28,2.47v11.07c0,3.43-0.23,5.9-0.68,7.42c-0.45,1.52-1.55,2.92-3.3,4.19
				c-1.75,1.28-4.13,1.91-7.16,1.91c-2.52,0-4.47-0.34-5.85-1.01c-1.88-0.92-3.2-2.09-3.98-3.53c-0.77-1.43-1.16-3.36-1.16-5.78
				v-14.27c0-1.68-0.09-2.72-0.28-3.13c-0.19-0.41-0.51-0.73-0.97-0.98c-0.46-0.24-1.3-0.36-2.54-0.34V803z"/>
			<path id="XMLID_502_" d="M575.82,831.36v0.8h-15.24v-0.8h0.97c0.85,0,1.53-0.15,2.04-0.45c0.37-0.2,0.66-0.54,0.86-1.03
				c0.16-0.34,0.24-1.25,0.24-2.71v-19.18c0-1.49-0.08-2.42-0.24-2.79c-0.16-0.37-0.48-0.7-0.96-0.98
				c-0.48-0.28-1.13-0.42-1.95-0.42h-0.97V803h15.24v0.8h-0.97c-0.85,0-1.53,0.15-2.04,0.45c-0.37,0.2-0.67,0.54-0.88,1.03
				c-0.16,0.34-0.24,1.25-0.24,2.71v19.18c0,1.49,0.08,2.42,0.25,2.79c0.16,0.37,0.49,0.7,0.97,0.98c0.48,0.28,1.13,0.42,1.95,0.42
				H575.82z"/>
			<path id="XMLID_499_" d="M612.25,802.34l0.24,9.72h-0.88c-0.42-2.44-1.44-4.4-3.06-5.88s-3.39-2.22-5.28-2.22
				c-1.46,0-2.62,0.39-3.47,1.17c-0.85,0.78-1.28,1.68-1.28,2.7c0,0.64,0.15,1.22,0.45,1.72c0.42,0.67,1.08,1.34,2,2
				c0.67,0.47,2.23,1.31,4.66,2.52c3.41,1.68,5.71,3.26,6.9,4.75c1.17,1.49,1.76,3.2,1.76,5.12c0,2.44-0.95,4.53-2.85,6.29
				c-1.9,1.76-4.31,2.63-7.23,2.63c-0.92,0-1.78-0.09-2.6-0.28c-0.82-0.19-1.84-0.54-3.07-1.05c-0.69-0.29-1.25-0.43-1.7-0.43
				c-0.37,0-0.77,0.14-1.18,0.43c-0.42,0.29-0.75,0.72-1.01,1.31h-0.8v-11.01h0.8c0.63,3.1,1.85,5.46,3.64,7.08
				c1.8,1.63,3.74,2.44,5.81,2.44c1.6,0,2.88-0.44,3.84-1.31c0.95-0.87,1.43-1.89,1.43-3.05c0-0.69-0.18-1.35-0.55-2
				s-0.92-1.26-1.67-1.84c-0.74-0.58-2.06-1.34-3.96-2.27c-2.65-1.3-4.56-2.41-5.72-3.33c-1.16-0.92-2.05-1.94-2.68-3.07
				c-0.62-1.13-0.94-2.38-0.94-3.74c0-2.32,0.85-4.3,2.56-5.93c1.71-1.63,3.86-2.45,6.45-2.45c0.95,0,1.86,0.11,2.75,0.34
				c0.67,0.17,1.49,0.49,2.46,0.96c0.97,0.47,1.64,0.7,2.03,0.7c0.37,0,0.67-0.11,0.88-0.34c0.21-0.23,0.42-0.78,0.6-1.66H612.25z"
				/>
		</g>
		<g id="XMLID_492_">
			<path id="XMLID_494_" d="M796.87,827.29c1.88,0.14,3.77,0.2,5.65,0.43c3.8,0.46,6.54-0.7,8.18-3.58
				c2.08-3.65,0.79-6.78-3.28-7.84c-0.84-0.22-1.74-0.27-2.61-0.27c-5.32,0-5.47-0.08-4.81-5.28c0.41-3.27,0.79-6.59,1.74-9.72
				c0.34-1.13,2.21-2.27,3.56-2.54c3.49-0.7,7.08-0.96,10.64-1.3c0.5-0.05,1.29,0.34,1.53,0.76c1.1,1.96-1.53,6.78-3.82,6.96
				c-1.75,0.14-3.53,0.17-5.28,0.02c-3.3-0.28-4.71,1.12-4.28,4.75c0.94,0.04,1.88,0.15,2.81,0.12c4.46-0.15,8.47,0.84,10.52,5.23
				c1.93,4.15,0.31,9.86-3.24,13.31c-4.36,4.24-11.03,3.75-15.5,2.28c-1.02-0.34-1.96-0.95-2.93-1.44
				C796.12,828.56,796.5,827.93,796.87,827.29z"/>
			<path id="XMLID_493_" d="M762.31,824.66c4.29,0.29,7.79,0.87,10.67-2.07c0.48-0.49,1.54-0.43,2.32-0.62
				c0.19,0.8,0.66,1.64,0.52,2.38c-0.9,4.89-3.66,7.01-8.66,6.93c-3.3-0.05-6.61,0.04-9.91-0.02c-1.24-0.02-2.48-0.3-4.58-0.58
				c1.75-2.46,3.09-4.26,4.35-6.12c2.94-4.35,5.94-8.68,8.73-13.12c1.21-1.93,1.71-4.19-0.2-6.07c-1.94-1.91-4.18-1.59-6.41-0.43
				c-0.1,0.05-0.19,0.11-0.3,0.14c-1.41,0.31-2.82,0.61-4.23,0.92c0.72-1.47,1.07-3.55,2.25-4.3c2.34-1.47,5.07-2.72,7.77-3.11
				c2.99-0.43,5.83,0.8,7.62,3.63c2.07,3.27,1.13,6.49-0.58,9.36c-2.01,3.38-4.55,6.46-6.86,9.66
				C764.14,822.17,763.44,823.12,762.31,824.66z"/>
			<path id="XMLID_491_" d="M727.26,805.05c-3.97,0-7.12-0.14-10.24,0.1c-0.8,0.06-1.45,1.38-2.27,2c-0.72,0.55-1.57,0.92-2.37,1.37
				c-0.44-0.78-1.28-1.58-1.24-2.33c0.27-5.38,1.88-8.36,7.23-7.84c2.83,0.27,5.72,0.03,8.58,0.05c4.51,0.03,5.7,1.54,4.21,5.68
				c-2.03,5.67-4.43,11.22-6.25,16.95c-0.73,2.28-0.59,4.92-0.42,7.37c0.15,2.11,0.03,3.77-2.38,4.21c-3.76,0.7-5.41-0.12-5.8-2.86
				c-0.55-3.89,0.65-7.4,2.63-10.66c2.16-3.57,4.44-7.06,6.63-10.61C726.08,807.67,726.43,806.76,727.26,805.05z"/>
			<path id="XMLID_490_" d="M687.36,830.43c-1.71,0.43-2.6,0.82-3.5,0.84c-3.74,0.09-7.49,0.12-11.23,0.02
				c-0.74-0.02-1.46-0.69-2.19-1.06c0.47-0.66,0.82-1.75,1.43-1.92c2.65-0.76,2.8-2.61,2.74-4.88c-0.12-4.62-0.01-9.25-0.05-13.88
				c-0.01-1.29-0.18-2.58-0.29-4.04c-0.93,0-1.63,0.17-2.19-0.04c-0.75-0.28-1.38-0.85-2.07-1.29c0.52-0.63,0.92-1.53,1.59-1.84
				c2.58-1.19,5.21-2.29,7.89-3.21c2.32-0.79,2.22,1.02,2.22,2.46c-0.02,6.94,0.02,13.88-0.18,20.81c-0.09,3,0.05,5.51,3.71,6.16
				C685.75,828.65,686.16,829.35,687.36,830.43z"/>
		</g>
	</g>
	<g id="XMLID_488_">
		<rect x="61.44" y="818.22" width="290.55" height="5.41"/>
		<rect x="849.78" y="818.22" width="290.55" height="5.41"/>
	</g>
</g>
</svg>
