<?xml version="1.0" encoding="utf-8"?>
<!-- Generator: Adobe Illustrator 23.0.4, SVG Export Plug-In . SVG Version: 6.00 Build 0)  -->
<svg version="1.1" id="Layer_1" xmlns="http://www.w3.org/2000/svg" xmlns:xlink="http://www.w3.org/1999/xlink" x="0px" y="0px"
	 viewBox="0 0 1200 1200" style="enable-background:new 0 0 1200 1200;" xml:space="preserve">
<g id="XMLID_1051_">
	<g id="XMLID_1066_">
		<path id="XMLID_1074_" d="M548.58,797.76c-1.02,5.79-5.18,19.86-29.11,19.86c-16.49,0-29.48-9.18-29.48-28.18
			c0-15.2,9.54-26.52,30.26-26.52c23.29,0,26.76,15.14,27.54,17.93H537.6c-0.57-1.79-4.59-9.17-16.78-9.17
			c-14.41,0-20.44,8.1-20.44,18.92c0,11.97,8.69,18.27,19.87,18.27c11.89,0,17.13-7.08,18.13-11.1H548.58z"/>
		<path id="XMLID_1071_" d="M595.48,764.21h11.63l25.3,52.11h-10.75l-5.44-11.98h-30.05l-5.53,11.98h-10.81L595.48,764.21z
			 M612.21,795.6l-10.9-23.23l-10.9,23.23H612.21z"/>
		<polygon id="XMLID_1070_" points="645.6,764.21 656.5,764.21 676.07,805.79 696,764.21 706.9,764.21 681.36,816.32 670.76,816.32 
					"/>
		<path id="XMLID_1067_" d="M745.73,764.21h11.61l25.32,52.11h-10.75l-5.44-11.98h-30.05l-5.52,11.98h-10.83L745.73,764.21z
			 M762.44,795.6l-10.9-23.23l-10.9,23.23H762.44z"/>
	</g>
	<g id="XMLID_1052_">
		<path id="XMLID_1063_" d="M540.72,604.59c15.21-9.67,28.24-25.09,34.71-32.95c0.69-0.85,1.4-0.51,0.93,0.49
			c-16.92,36.95,4.67,51.94,31.5,33.7c21.26-15.56,34.99-38.58,34.99-38.58l0.07-7.43c0,0-19.93,29.47-38.42,40.52
			c-12.35,7.37-17.64,4.13-14.38-11.48c1.56-7.48,6.89-19.05,12.37-29c24.13-43.86,28.8-52.57,28.8-52.57h-40.03l-4.82,9.61h17.01
			l-16.99,34.26c-29.23,36.65-51.71,55.25-68.24,52.17c-11.42-2.12-17.1-17.3-11.91-39.39c7.6-0.71,42.51-6.62,57.65-25.93
			c19.57-24.97-3.97-45.51-36.69-26.92c-18.29,10.39-31.05,25.34-40.13,47.32c-7.06-0.72-11.62-3.8-11.81-11.78
			c-0.57-17.22,13.4-42.48,13.4-42.48s-1.79-0.32-10.1,0.21c-6.98,0.51-8.37,1.42-12.75,5.18c-9.64,8.3-22.92,21.43-41.56,48.69
			c-0.82,1.2-1.76,0.63-0.99-0.76c8.77-15.83,27.44-50.19,27.44-50.19h-38.73l-4.77,9.61h17.01l-41.91,84.52h-10.69l-4.76,9.61
			h41.48l5.33-9.61c0,0-8.11,0-10.87,0c24.43-44.69,44.86-65.89,57.32-79.07c-0.67,2.03-17.27,46.37,24.94,42.6
			C471.52,611.8,503.55,628.71,540.72,604.59z M533.3,516.97c12.79-11.61,24.49-8.29,18.83,7.26
			C541.56,552.04,508,557.31,508,557.31S514.19,534.35,533.3,516.97z"/>
		<path id="XMLID_1062_" d="M207.84,512.08c50.71,0,58.79-49.42,48.24-82.81c-8.69,7.65-21.7,15.39-33.44,20.15
			c13.78,13.59,18.2,43.44-4.22,51.92c-39.39,14.9-78.16-58.99-8.66-87.83c12.24-5.07,34.97-11.88,109.74-10.25
			c107.11,2.34,178.75,9.71,219.65,8.5c26.31-1.65,44.65-7.36,58.33-20.87c-16.48,3.63-30.32,5.07-62.19,3.53
			c-167.92-8.12-299.39-27.29-350.69,10.93C135.86,441.64,156.47,512.08,207.84,512.08z"/>
		<path id="XMLID_1059_" d="M406.3,471.73c-11.08-3.89-41.07,8.61-53.57,54.96c-4.49,1.14-20.77,4.14-27.16,4.56
			c36.37-66.18,53.96-93.39,101.9-113.95l-1.44-4.17c-43.27,10.94-73.41,25.13-103.68,74.43c-7.13,11.62-21.54,36.02-26.84,45.78
			c-13.66,1.37-35.63,2.9-55.77,6.07c-54.04,8.5-70.91,38.35-70.91,59.71c0,26.67,15.76,44.52,15.76,44.52s3.25,0,6.16,0
			c-22.16-45.71,9.93-79.2,51.18-90.29c10.32-3.67,26.02-6.22,47.87-9.75c-31.44,56.09-77.96,138.45-108.3,171.24
			c-47.32,51.27-90.76,4.35-77.65-30.69c14.71-39.66,65.2-26.98,65.2-26.98s3.04-2.24,5.34-4.01c-47.19-15.7-100.1-2.64-100.1,44.52
			c0,27.99,25.48,46.29,50.22,48.62c50.8,4.78,89.54-28.25,135.06-100.17c28.83-45.55,43.75-72.65,61.33-106.11
			c10.56-1.29,21.25-3.56,29.69-5.44c-4.74,22.73-4.08,38.91-4.08,38.91l7.68-2.93c0,0,0.27-21.03,4.69-37.7
			C406.88,517.66,419.23,476.26,406.3,471.73z M361.5,524.3c5.85-22.05,22-39.93,30.16-36.39
			C399.99,491.52,385.22,516.28,361.5,524.3z"/>
		<path id="XMLID_1058_" d="M625.3,486.05c5.18,3.68,13.1,1.26,17.73-5.39c4.63-6.69,4.07-15.14-1.11-18.87
			c-5.2-3.75-13.15-1.31-17.81,5.42C619.5,473.89,619.98,482.33,625.3,486.05z"/>
		<path id="XMLID_1057_" d="M913.53,438.85c-15.27-23.35-37.51-31.64-58.82-31.64c-51.73-1.86-97.76,40.07-153.33,109.68
			c0,0-6.74,8.65-19.25,24.74c-3.42-7.11-6.2-12.87-7.48-15.54c-2.43-5.09,0.09-9.14,6.03-9.14c2.08,0,4.2-0.03,4.2-0.03l4.76-9.61
			h-47.84l-4.75,9.61c2.63,0,4.54,0.03,7.16,0.03c5.04,0,7.75,0.06,10.84,6.55c2.64,5.57,9.14,19.08,15.71,32.74
			c-6.17,7.94-13.17,17.02-21.09,27.09C598.2,648.89,548.1,699.25,501.29,699.6c-17.24,0.13-35.59-6.77-50.3-21.62
			c-1.4-1.42-2.59-0.51-1.44,1.82c3.93,7.92,26.15,30.98,58.85,30.98c46.81,0,97.95-42.23,150.8-110.18
			c7.55-9.7,14.62-18.3,20.47-25.81c4.07,8.44,7.31,15.16,8.42,17.46c2.45,5.09-0.08,9.15-6.03,9.15c-2.08,0-4.2,0.03-4.2,0.03
			l-4.75,9.61h47.84l4.76-9.61c-2.63,0-4.54-0.03-7.16-0.03c-5.05,0-7.76-0.06-10.84-6.56c-1.59-3.36-9.12-18.99-16.67-34.67
			c13.7-17.61,20.27-26.06,20.27-26.06c53.2-68.42,101.75-120.15,153.44-117.06c15.57,0,34.94,9.47,46.54,23.28
			C914.23,443.83,915.9,442.49,913.53,438.85z"/>
		<path id="XMLID_1053_" d="M1125.71,422.55l-31.05,16.15l-34.48,68.59l-17.39,0.02l-4.77,9.54v0.05h17.33
			c-6,11.95-10.3,20.47-13.53,26.93c-33.45,43.53-56.68,62.68-73.21,59.61c-11.42-2.12-16.24-17.31-12.76-35.35
			c12.45-1.93,43.35-10.66,58.48-29.98c19.56-24.97-3.96-45.51-36.69-26.92c-18.28,10.39-34.6,28.59-42.14,53.87
			c-1.59,5.3-2.54,10.22-2.97,14.77c-4.97,5.91-13.71,15.83-23.56,21.54c-12.72,7.36-20.91,2.44-15.58-11.95
			c6.93-18.74,27.88-43.62,32.65-65.08c4.45-20.04-12.99-30.23-34.75-13.37c-8.91,6.91-18.27,18.55-27.28,30.47
			c-0.76,1-1.51,0.47-0.88-0.67c7.99-14.35,18.28-33.48,18.28-33.48h-40.57l-4.77,9.61h17.01l-13.49,27.03
			c-33.44,43.53-57.26,62.47-73.79,59.4c-11.41-2.12-16.24-17.31-12.76-35.35c12.45-1.93,43.36-10.66,58.49-29.98
			c20.57-26.25-4.97-44.94-36.69-26.92c-18.28,10.39-34.61,28.59-42.14,53.87c-13.55,45.43,17.21,63.97,55.16,39.92
			c14.13-8.96,28.44-24.09,38.71-37.26c0.79-1.01,1.59-0.66,1.01,0.64l-21.28,42.79h22.28c0,0,33.51-69.2,65.1-94.52
			c7.42-5.96,19.93-8.41,12.14,9.45c-8.76,20.09-21.64,33.74-30.36,57.04c-8.23,22.01,4.45,37.24,27.37,27.64
			c11.57-4.85,22.54-15.54,29.47-23.71c1.03,28.84,27.28,37.74,58.37,18.04c13.42-8.51,35.38-34.3,38.16-37.59
			c0.78-0.93,1.62-0.38,1,0.73c-0.81,1.44-1.84,3.48-2.89,5.62c-16.19,32.92,3.48,52.58,33.87,30.5
			c18.48-13.74,32.72-35.99,32.72-35.99v-7.63c0,0-19.65,28.9-38.6,39.99c-17.23,10.09-17.38-3.44-10.97-16.94
			c7.57-15.96,7.6-15.95,33.55-66.75l28.82,0.02l4.83-9.64l-28.78,0.07L1125.71,422.55z M983.7,517.07
			c12.87-11.53,24.49-8.29,18.82,7.26c-10.58,27.81-45.17,36.83-45.17,36.83S962.61,535.96,983.7,517.07z M780.89,516.97
			c12.87-11.53,24.49-8.29,18.82,7.26c-10.58,27.81-45.17,36.82-45.17,36.82S759.8,535.86,780.89,516.97z"/>
	</g>
</g>
</svg>
