<svg id="Capa_1" data-name="Capa 1" xmlns="http://www.w3.org/2000/svg" xmlns:xlink="http://www.w3.org/1999/xlink" viewBox="0 0 400 300"><defs><style>.cls-1{fill:none;}.cls-2{fill:#fff;}.cls-3{clip-path:url(#clip-path);}.cls-4{fill:#161615;}.cls-5{fill:#0065b2;}</style><clipPath id="clip-path"><rect class="cls-1" x="81.33" y="61" width="237.33" height="178"/></clipPath></defs><title>1</title><rect class="cls-2" width="400" height="300"/><g class="cls-3"><g id="BELVEDERE_VODKA" data-name="BELVEDERE VODKA"><rect id="Rectángulo_1" data-name="Rectángulo 1" class="cls-1" x="81.33" y="61" width="237.33" height="178"/><g id="Grupo_44" data-name="Grupo 44"><g id="Grupo_42" data-name="Grupo 42"><path id="Trazado_87" data-name="Trazado 87" class="cls-4" d="M112.22,138.46a14.38,14.38,0,0,1-1.37,11.19c-3,4.67-9.32,4.24-11.64,4-1.31-.19-2.62-.32-3.94-.38-1.66-.05-4.73.09-4.73.09V152c2.12-.05,2.28-.19,2.28-3.53V119.41c0-3.67-.62-3.53-5.55-3.53V114.6s5,.05,7.54.05c1.87,0,4.73-.19,4.73-.19,2.36-.15,7.58-.34,9.9,4a11.75,11.75,0,0,1,0,9.34,11,11,0,0,1-4.76,4.95C107.41,133,111.06,134.36,112.22,138.46Zm-5.56-13.29c.25-2.62,0-6-2.65-7.76-1.57-1.1-5.18-1.14-6.13-1s-.83,1.71-.83,3v13c1.9,0,4.76.1,6.09-.62,2.57-1.38,3.32-4.38,3.53-6.57Zm-9.61,23.34c0,1.38,0,2.09.83,2.67s5.35.38,6.63-.1c2.16-.9,3.32-2.52,4-5a13.51,13.51,0,0,0-1.33-8.62c-2-3.24-6.09-2.91-8.54-2.91H97.05Z"/><path id="Trazado_88" data-name="Trazado 88" class="cls-4" d="M140.73,152.21c1.88-.05,2-.25,2-3.07v-24.4c0-3.27-.23-3.07-4.44-3.07v-1.12s4,0,6.17,0c2,0,3.93,0,3.93,0v1.12c-1.87,0-2,.25-2,3.07V146.2c0,2.36-.07,4.1.65,4.72s1.62.5,4,.5h2c1.26,0,3,.2,3.82-1.62a36.43,36.43,0,0,0,1.47-4.8h1.08l-1.87,8.53c-.32,0-1.08-.17-1.44-.17,0,0-6.09-.08-10-.08-2.09,0-5.37.08-5.37.08Z"/><path id="Trazado_89" data-name="Trazado 89" class="cls-4" d="M181.28,118.48,169.67,153.9h-1.59l-8.93-29.66c-.69-2.24-.8-2.57-2.45-2.57v-1.12s2.52,0,4.14,0c2.16,0,6.51,0,6.51,0v1.12c-2.12,0-4.28-.12-4.67.62s-.22,1.2.61,3.94l6.42,21.54,7.09-21.83c.61-1.91.94-2.78.57-3.52-.28-.58-1.72-.75-4.74-.75v-1.12s3.7,0,5.43,0c.94,0,1.18-.56,1.74-2.11Z"/><path id="Trazado_90" data-name="Trazado 90" class="cls-4" d="M211.39,152.21c1.91,0,2-.71,2-3.36V124.74c0-3.32-.82-3.07-5-3.07v-1.12s3.77,0,6.69,0c2.59,0,8.47-.2,8.47-.2,4.47-.13,11,1,14.27,7.62,2.24,4.6,2.34,12.68-.54,18.06-4,7.42-11.53,7.67-16.5,7.46,0,0-3.32-.25-5.52-.25-1.69,0-3.89.08-3.89.08Zm5.66-5.27c0,2.07-.15,3.77,1,4.6,1.51,1,9,.5,12.4-1.82,4.76-3.23,5.58-9.2,5.48-13.26-.15-4.8-1.16-9.57-6.13-12.55-2.85-1.74-10.74-2-12.08-1.2-.72.41-.64,1-.64,2Z"/><path id="Trazado_91" data-name="Trazado 91" class="cls-4" d="M249.08,136.36c2.4,0,5.28,0,5.47,0,.85.17,1.06,1.15,1.31,3.66l.1.85h1l-.58-7.13h-1c0,.48-.26.95-.67.95-.78,0-2.29,0-5.59,0h0v-7.54c0-3.23-.11-3.77.58-4.39.29-.25,1.11-.25,3.49-.25,2.67,0,3.61,0,3.82,0,1.09.25,1.37,1.93,1.84,6.12l.11,1H260s-.39-4.62-.54-6a6.08,6.08,0,0,1-.07-1.28c0-.46.77-.75,1.31-.75v-1.12s-7.94,0-12.74,0c-2.52,0-7.52,0-7.52,0v1.12c.15,0,4.1-.08,4.5.25.57.45.47.91.47,3.27v23.66c0,2.86-.18,3.36-2,3.36v1.15s3.54-.08,5.84-.08c5,0,12.94.08,12.94.08l1.3-6.67h-1a12.64,12.64,0,0,1-.9,3.15c-.9,1.78-2.78,1.49-3.86,1.54H253.1c-2.63,0-3,.08-3.64-.63-.43-.45-.4-1.61-.4-4.76v-9.63Z"/><path id="Trazado_92" data-name="Trazado 92" class="cls-4" d="M298.36,136.36c2.4,0,5.28,0,5.47,0,.85.17,1.06,1.15,1.31,3.66l.1.85h1l-.58-7.13h-1c0,.48-.26.95-.67.95-.78,0-2.28,0-5.59,0h0v-7.54c0-3.23-.11-3.77.58-4.39.29-.25,1.12-.25,3.5-.25,2.66,0,3.6,0,3.82,0,1.08.25,1.36,1.93,1.83,6.12l.11,1h1.08s-.39-4.62-.54-6a6.08,6.08,0,0,1-.07-1.28c0-.46.77-.75,1.31-.75v-1.12s-7.94,0-12.73,0c-2.53,0-7.53,0-7.53,0v1.12c.15,0,4.1-.08,4.5.25.58.45.47.91.47,3.27v23.66c0,2.86-.18,3.36-2,3.36v1.15s3.53-.08,5.83-.08c5.05,0,12.94.08,12.94.08l1.3-6.67h-1a12.64,12.64,0,0,1-.9,3.15c-.9,1.78-2.78,1.49-3.86,1.54h-4.61c-2.63,0-3,.08-3.64-.63-.43-.45-.4-1.61-.4-4.76v-9.63Z"/><path id="Trazado_93" data-name="Trazado 93" class="cls-4" d="M192.2,136.36c2.4,0,5.28,0,5.47,0,.85.17,1.06,1.15,1.31,3.66l.1.85h1l-.58-7.13h-1c0,.48-.26.95-.67.95-.78,0-2.28,0-5.59,0h0v-7.54c0-3.23-.11-3.77.58-4.39.29-.25,1.12-.25,3.5-.25,2.66,0,3.6,0,3.82,0,1.08.25,1.36,1.93,1.84,6.12l.1,1h1.08s-.39-4.62-.54-6a6.08,6.08,0,0,1-.07-1.28c0-.46.77-.75,1.31-.75v-1.12s-7.94,0-12.73,0c-2.52,0-7.53,0-7.53,0v1.12c.15,0,4.1-.08,4.5.25.58.45.47.91.47,3.27v23.66c0,2.86-.18,3.36-2,3.36v1.15s3.53-.08,5.83-.08c5,0,12.94.08,12.94.08l1.3-6.67h-1a12.23,12.23,0,0,1-.9,3.15c-.9,1.78-2.77,1.49-3.86,1.54h-4.61c-2.63,0-3,.08-3.64-.63-.43-.45-.4-1.61-.4-4.76v-9.63Z"/><path id="Trazado_94" data-name="Trazado 94" class="cls-4" d="M122.55,136.36c2.4,0,5.28,0,5.47,0,.85.17,1.06,1.15,1.31,3.66l.1.85h1l-.58-7.13h-1c0,.48-.26.95-.67.95-.78,0-2.29,0-5.59,0h0v-7.54c0-3.23-.11-3.77.58-4.39.29-.25,1.11-.25,3.49-.25,2.67,0,3.61,0,3.82,0,1.08.25,1.37,1.93,1.84,6.12l.11,1h1.08s-.39-4.62-.54-6a6.08,6.08,0,0,1-.07-1.28c0-.46.77-.75,1.31-.75v-1.12s-7.94,0-12.74,0c-2.52,0-7.52,0-7.52,0v1.12c.15,0,4.1-.08,4.5.25.57.45.47.91.47,3.27v23.66c0,2.86-.18,3.36-2,3.36v1.15s3.54-.08,5.84-.08c5.05,0,12.94.08,12.94.08l1.3-6.67h-1a12.64,12.64,0,0,1-.9,3.15c-.9,1.78-2.78,1.49-3.86,1.54h-4.61c-2.63,0-3,.08-3.64-.63-.43-.45-.4-1.61-.4-4.76v-9.63Z"/><path id="Trazado_95" data-name="Trazado 95" class="cls-4" d="M274.58,139.28l-1.3,0v9.9c0,3.27.75,3.07,4.93,3.07v1.15s-4.46-.08-6.7-.08c-1.51,0-3.89.08-3.89.08v-1.15c1.87,0,2-.25,2-3.07v-24.4c0-3.27-.74-3.07-5-3.07v-1.12s4.46,0,6.66,0c1.73,0,4.43-.08,4.43-.08,2.77,0,7.28-.37,9.69,4.1,1.45,2.74,1.12,6.75-.17,9.49a8.76,8.76,0,0,1-5.55,4.47l8.5,13.7c2.2,3.8,3.17,6,5.1,7.34l-.43.83c-4.87-2.56-5.08-2.61-8.5-8.07l-8.13-13.13C275.71,139.28,275,139.28,274.58,139.28ZM283,129.09c-.14-2.61-.72-4.68-3.21-6.13-1.44-.87-4.83-1.29-5.87-.59-.61.42-.65,1.21-.65,4.65v10.31c2.16.46,5.12.37,7-1.16,2.38-1.86,2.88-5.18,2.77-7.08Z"/></g><g id="Grupo_43" data-name="Grupo 43"><path id="Trazado_96" data-name="Trazado 96" class="cls-5" d="M152.77,165.22l2.15,13.95H155L157,165.22h2.75L156.21,185H153.6l-3.71-19.82Z"/><path id="Trazado_97" data-name="Trazado 97" class="cls-5" d="M177.05,164.82c4.74,0,5.23,5.2,5.23,10.31,0,5.47-1,10.32-5.23,10.32-4.76,0-5.25-5.2-5.25-10.32C171.8,169.67,172.77,164.82,177.05,164.82Zm0,18.15c1.94,0,2.35-3.39,2.35-8.46,0-6-1-7.21-2.35-7.21s-2.37,2-2.37,8.27C174.68,179.58,175.06,183,177.05,183Z"/><path id="Trazado_98" data-name="Trazado 98" class="cls-5" d="M195.28,165.22h3.18c5.22,0,6.65,4.93,6.65,10.08,0,4.22-1.32,9.74-6.43,9.74h-3.4ZM198,182.7c3.28,0,4.2-3.34,4.2-7.59,0-4.91-1.45-7.54-4.2-7.54Z"/><path id="Trazado_99" data-name="Trazado 99" class="cls-5" d="M221,165.22v9h.05l4.34-9h3l-4.74,9.29L228.67,185H225.6l-4.55-9.88H221V185h-2.75V165.23Z"/><path id="Trazado_100" data-name="Trazado 100" class="cls-5" d="M247.17,165.22,251.64,185h-2.88L248,181h-4.34l-.78,4.09h-2.61l4.17-19.82Zm.4,13.52-1.72-9.05h-.06l-1.72,9.05Z"/></g></g></g></g></svg>