<svg xmlns="http://www.w3.org/2000/svg" xmlns:xlink="http://www.w3.org/1999/xlink" width="400" height="300" viewBox="0 0 400 300">
  <defs>
    <clipPath id="clip-DON_PERIGNON">
      <rect width="400" height="300"/>
    </clipPath>
  </defs>
  <g id="DON_PERIGNON" data-name="DON PERIGNON" clip-path="url(#clip-DON_PERIGNON)">
    <rect id="Rectángulo_1" data-name="Rectángulo 1" width="400" height="300" fill="none"/>
    <g id="Grupo_51" data-name="Grupo 51" transform="translate(-175.611 -301.357)">
      <g id="Grupo_46" data-name="Grupo 46" transform="translate(197.12 385.083)">
        <g id="Grupo_45" data-name="Grupo 45">
          <path id="Trazado_101" data-name="Trazado 101" d="M215.461,386.915a29.981,29.981,0,0,0-11.012,5.355c-4.731,3.751-7.264,8.395-7.329,13.442a14.529,14.529,0,0,0,3.984,10.083,16.4,16.4,0,0,0,11.059,4.666c2.1.107,5.126-.391,6.8-1.735a.942.942,0,0,0,.216-1.134.871.871,0,0,0-.908-.421l-.64.089a9.073,9.073,0,0,1-2.119-.025,12.745,12.745,0,0,1-8.035-4.135,11.605,11.605,0,0,1-3.126-8.3c.047-4.652,2.023-8.444,6.049-11.6a22.29,22.29,0,0,1,14.667-4.794,23.217,23.217,0,0,1,9.871,2.019,27.615,27.615,0,0,1,8.032,5.632,32.437,32.437,0,0,1,8.675,20.653c.244,8.237-1.725,14.5-6.179,19.71-3.055,3.571-6.286,4.771-12.8,4.771a32,32,0,0,1-10.64-2.032l-1.01-.321a22.764,22.764,0,0,0,3.66-2.917,35.927,35.927,0,0,0,4.4-5.578,31.169,31.169,0,0,0,2.738-5.408,38.073,38.073,0,0,0,2.74-9.289,65.531,65.531,0,0,0,1.027-11.6c0-2.114-.1-4.282-.3-6.449a.886.886,0,0,0-.449-.741,1.125,1.125,0,0,0-.919,0,20.06,20.06,0,0,0-5.867,3.381l-.1,1.9c.13,2.792.112,4.544.082,6.011a72.9,72.9,0,0,1-1.113,11.583l-.121.607a41.661,41.661,0,0,1-3.713,11.857c-1.8,3.388-3.862,4.984-6.491,5.026l-.566-.13a2.426,2.426,0,0,0-.982.023,7.619,7.619,0,0,0-4.575,4.153.943.943,0,0,0,.456,1.239c.826.228,3.257.8,4.232.969,2.054.438,6.2,1.017,6.242,1.024l1.136.146,1.394.138a29.467,29.467,0,0,0,3.639.189c11.491.149,19.573-3.115,25.61-10.288a25.253,25.253,0,0,0,3.686-6.051,26.856,26.856,0,0,0,2.284-12.25,31.185,31.185,0,0,0-9.2-20.564,34.82,34.82,0,0,0-23.7-10.155A30.6,30.6,0,0,0,215.461,386.915ZM367,395.729c-.848.356-4.831,3.148-5.543,5.129.7,4.24,2.382,14.376,2.763,19.293l.193,2.184c.123,1.73.163,3.28.14,5.5a39.3,39.3,0,0,1-.717,6.724,14.734,14.734,0,0,1-1.664,4.538c-2.551,4.14-5.68,3.243-7.313,2.331a5.165,5.165,0,0,1-2.382-4.254,5.534,5.534,0,0,1,2.209-4.794c.668-.368.873-.521.773-1.1-.438-1.167-1.653-1.816-3.348-1.816a5.964,5.964,0,0,0-5.015,3.359,7.909,7.909,0,0,0,.123,7.494,8.4,8.4,0,0,0,4.44,3.816,11.309,11.309,0,0,0,5.112.77c8.2-.794,11.541-7.226,12.805-9.648a24.817,24.817,0,0,0,2.16-8.793,49.031,49.031,0,0,0,0-5.608c-.054-1.167-.151-2.372-.245-3.5A184.79,184.79,0,0,0,368.47,398.8l-.105-.41-.161-.659c-.268-1.052-.494-1.969-1.092-2.009Zm-38.68,41.9a.936.936,0,0,0-1.1-.086,11.644,11.644,0,0,1-3.487.969,4.261,4.261,0,0,1-1.16-.123c-.92-.291-1.492-1.541-1.5-1.56a26.547,26.547,0,0,1-1.1-6.524l-.1-1.2c-.259-3.352-.561-7.161-2.573-9.287a6.106,6.106,0,0,0-1.611-1.192c-3.632-1.2-6.165.177-9.329,2.968-.382.287-.524.263-.692.093a15.221,15.221,0,0,0-2.687-2.784c-3.467-1.807-6.624.249-9.157,1.909l-.819.507c-.315-.021-.387-.181-.421-.407a4.01,4.01,0,0,0-.92-2.2,6.5,6.5,0,0,0-4.151-.128,10.613,10.613,0,0,1-1.991.256l-.258,1.427.1,1.458a1.538,1.538,0,0,1-.685,1.385,15.365,15.365,0,0,1-3.551,1.735.977.977,0,0,1-1.159-.586,7.176,7.176,0,0,1-.894-2.465,6.7,6.7,0,0,0-3.488-3.955,8.977,8.977,0,0,0-6.845-.1c-4.182,2.545-6.689,6.067-8.169,11.431-1.434,5.282-.654,9.8,2.205,12.728,2.431,2.5,6.44,2.973,10.723,1.25,4.17-2.733,6.933-8.167,7.08-13.862a1.559,1.559,0,0,1,.822-1.453,35.383,35.383,0,0,0,3.739-2.1.455.455,0,0,1,.4-.058l.2,1.353c.356,5.4.722,10.686,1.383,15.938l1.027.442c1.76.345,4.153.826,5.666-.081L292.7,425.781a3.739,3.739,0,0,1,4.137-2.64c.855.2,1.592,1.083,2.126,2.559.954,2.477,1.1,5.585,1.236,8.593.075,1.753.17,3.646.407,5.367l.121,1.022a7.273,7.273,0,0,0,.6,2.687c1.064.2,1.739.245,2.528.352a6.626,6.626,0,0,0,3.811-.352,58.307,58.307,0,0,1-.528-7.015l-.025-1.18-.032-1.18-.037-1.052-.04-1.28a35.437,35.437,0,0,0-.487-5.776,1.812,1.812,0,0,1,.621-1.572l.328-.4a2.239,2.239,0,0,1,.678-.6,2.873,2.873,0,0,1,3.024.254c1.625,1.977,1.972,4.559,2.231,7.492l.13,1.77.03.421.128,1.548c.338,3.879,1.215,6.4,2.668,7.711a6.426,6.426,0,0,0,5.042,1.634c3.02-.309,5.5-3.3,6.708-5.071l.238-.389a1.151,1.151,0,0,0,.161-.561A.7.7,0,0,0,328.324,437.627Zm-50.45-7.694a10.367,10.367,0,0,1-2.889,6.095,5.426,5.426,0,0,1-6.193.876c-2.151-1.206-3.632-3.984-3.767-7.07.042-4.41,1.22-7.085,3.825-8.651a3.394,3.394,0,0,1,2.268.21c.649.321,1.122.6,1.306,1.022a5.24,5.24,0,0,0-.359,1.853,5.705,5.705,0,0,0,.894,2.523,4.8,4.8,0,0,0,4.295,2.347.623.623,0,0,1,.454.177.773.773,0,0,1,.167.542Zm275.178,7.548a.84.84,0,0,0-.99-.063,8.3,8.3,0,0,1-2.324.847,3.165,3.165,0,0,1-3.327-.934c-.51-.7-1.034-3.266-1.455-7.226l-.137-1.472c-.294-3.324-.575-6.472-2.493-8.661a6.607,6.607,0,0,0-2.068-1.613c-3.075-1.134-4.889.175-7.4,1.986l-.9.647c-.449.135-.522.058-.6-.075a8.937,8.937,0,0,1-.4-1.3,1.521,1.521,0,0,0-1.427-1.331l-.789-.019a15.551,15.551,0,0,0-4.37.279,5.528,5.528,0,0,0-.291,1.963l.019,1.369a1.534,1.534,0,0,1-.892,1.558A16.8,16.8,0,0,1,520,424.8c-.561.14-.806.026-1-.38a23.515,23.515,0,0,1-.9-2.664,5.879,5.879,0,0,0-2.991-3.8,8.97,8.97,0,0,0-7.2-.231,20.125,20.125,0,0,0-9.3,11.361,18.052,18.052,0,0,0-1.115,6.091,15.219,15.219,0,0,0,.079,1.532,10.258,10.258,0,0,1-1.171,1.15,3.144,3.144,0,0,1-3.692-.573c-.852-.952-1.106-5.818-1.208-7.9-.093-1.944-.288-4.037-.517-5.592a6.614,6.614,0,0,0-4.2-5.467c-2.766-1.034-5.282.4-8.539,2.538-.424.279-.582.256-.629.238-.079-.042-.144-.2-.175-.445-.082-.694-.13-1.057-.205-1.43-.147-.6-.624-.917-1.42-.959a23.4,23.4,0,0,0-5.289.456,34.6,34.6,0,0,0,.231,6.549c.068,1.08-.189,1.278-1.278,2.114-.65.526-2.3,1.851-3.585,3.073-.324.316-.6.443-.755.38s-.233-.287-.254-.614l-.249-2.722-.138-1.625c-.174-2.014-.328-3.918-.436-5.788v-.5c0-.484.04-.894.07-1.252l.025-1.01-.018-.438a.879.879,0,0,0-1.082-.862,22.092,22.092,0,0,0-2.887,2.6c-2.417-1-5.562-.449-9.613,1.7-5.162,3.359-8.354,8.395-8.772,13.825a3.467,3.467,0,0,1-.745,2.035,9.081,9.081,0,0,1-1.636,1.569,2.144,2.144,0,0,1-1.827.47,2.568,2.568,0,0,1-1.839-.941,85.283,85.283,0,0,1-1.09-12.08l-.077-1.735c-.051-1.122-.1-2.291-.184-3.448-.582-2.074-2.345-1.914-4.055-1.763a8.964,8.964,0,0,1-2.561.014c-.386.14-.428.221-.428.337l.273,5.49.387,8.109a2.813,2.813,0,0,1-.543,1.823,13.089,13.089,0,0,1-3.867,3.7,5.3,5.3,0,0,1-5.371-.223c-1.359-1.134-1.832-3.225-1.832-5.5a25.788,25.788,0,0,1,1.6-8.407,12.237,12.237,0,0,1,.757-1.132l.273-.4a10.565,10.565,0,0,0,1.444-2.566l.011-.386a1.287,1.287,0,0,0-.356-1.075.92.92,0,0,0-.561-.223,25.97,25.97,0,0,0-2.421,1.443A14.791,14.791,0,0,1,411.393,422a.891.891,0,0,1-.673-.2,2.226,2.226,0,0,1-.024-.925l.082-.834a3.187,3.187,0,0,0-1.627-2.968c-1.129-.3-3.352-.1-4.721,2.547a6.6,6.6,0,0,0-.657,2.191l-.032.689a4.1,4.1,0,0,0,2.216,3.576,29.819,29.819,0,0,1-5.38,8.248c-3.388,2.973-6.425,5.611-11.186,4.435a6.074,6.074,0,0,1-3.765-4.856l-.033-.433a.589.589,0,0,1,.482-.578c3.3-.8,6.481-1.707,9.091-3.925a10.632,10.632,0,0,0,2.913-4.095,5.848,5.848,0,0,0,.338-2.023,6.219,6.219,0,0,0-.417-2.223,5.476,5.476,0,0,0-3.383-3.055c-3.681-.824-7.792,1.073-11.582,5.332a21.439,21.439,0,0,0-4.161,9.042,26.214,26.214,0,0,1-7.936,6.531c-.657.4-.845.8-.845,1.185a1.248,1.248,0,0,0,.154.6,1.071,1.071,0,0,0,1.451.5,37.511,37.511,0,0,0,6.2-4.107l.391-.333c.291-.046.412.123.475.5a9.92,9.92,0,0,0,.33,1.585,7.963,7.963,0,0,0,4.871,5.175c8.661,2.472,15.608-4.281,18.189-7.3a42.432,42.432,0,0,0,6.36-9.224,21.27,21.27,0,0,0,3.693-.9c.47-.154.713-.116.782-.04a.843.843,0,0,1-.1.536l-.231.507c-1.36,2.787-2.756,5.657-2.756,9.045a11.679,11.679,0,0,0,.086,1.429c.386,3.383,1.835,5.241,4.833,6.211a8.823,8.823,0,0,0,6.6-.976,35.715,35.715,0,0,0,6.246-5.245c.2-.174.384-.21.479-.165l.11.438.221,1.387a5.6,5.6,0,0,0,5.6,4.824c2.726,0,5.285-1.718,7.839-5.259a.434.434,0,0,1,.384-.209c.843,2.277,1.877,4.493,4.626,5.32a11.818,11.818,0,0,0,11-3.229c.258-.24.463-.279.568-.24s.168.186.186.4c.168,2.3.247,4.31.247,6.221,0,4.475-.459,7.78-1.325,9.56-.747,1.742-1.483,3.5-2.812,4.337a7.328,7.328,0,0,1-3.779,1.034c-.682.035-2.763-.345-3.441-1.93a5.8,5.8,0,0,1-.479-2.27l.021-.435a6.994,6.994,0,0,1,2.393-4.866,1.214,1.214,0,0,0,.456-.876.952.952,0,0,0-.128-.475.973.973,0,0,0-1.146-.41,13.032,13.032,0,0,0-7.3,8.658,5.9,5.9,0,0,0,2.489,6.617c3.122,1.806,6,.757,9.175-.684,10.924-6,12.318-16.707,12.318-25.369,0-.987-.033-2.156-.065-3.19-.011-.549-.037-2.051.456-2.575,1.246-1.3,2.782-2.628,4.139-3.8l.671-.584c.266-.235.486-.31.568-.277l.212.989c.315,2.792.647,6.167.894,9.024l.144,1.618c.072,1.059.128,1.62.472,1.935.9,1.518,6.249.77,6.3.752a2.188,2.188,0,0,0,.272-1.167c-.067-4.27-1.309-15.936-1.527-17.864,1.059-1.611,2.33-2.3,3.9-2.1a3.222,3.222,0,0,1,1.355.578,2.207,2.207,0,0,1,.706,1.01,17.313,17.313,0,0,1,.994,4.871l.019.393c.13.922.179,1.916.23,2.966l.079,1.49c.349,4.978.708,10.123,5.422,10.123,2.473-.063,4.647-1.162,6.838-3.464l.347-.384c.217-.212.373-.312.482-.3.161.018.37.315.51.531a9.33,9.33,0,0,0,.955,1.3c2.3,2.494,6.369,2.966,10.872,1.255a18.6,18.6,0,0,0,8.39-13.99,1.367,1.367,0,0,1,.822-1.232l.465-.223c1.08-.521,2.414-1.168,3.653-1.927.6,2.67.9,5.042,1.168,7.131.272,2.191.552,4.458.74,6.689l.137,1.243c.158,1.422.344,2.431.729,2.763,1.141.54,3.3.451,5.219.375l1-.035L531.6,424.689c.92-1.423,1.746-2.149,3.4-1.927a2.574,2.574,0,0,1,2.012,1.683,14.992,14.992,0,0,1,1.292,4.694l.13.948c.182,1.343.291,2.154.435,3.685l.035.4c.386,4.372.831,9.313,5.676,10.02,3.229-.077,6.025-1.934,8.582-5.678A.853.853,0,0,0,553.053,437.482Zm-167.728-7.189c-.007-4.258,1.511-8.665,4.9-9.387a2.345,2.345,0,0,1,2.226,1.155,3.154,3.154,0,0,1,.4,1.513,5.621,5.621,0,0,1-1.208,3.324,10.182,10.182,0,0,1-6.056,3.546Zm71.317,7.862c-1.26.92-2.64,1.746-4.225,1.488-2.324-1.331-3.459-3.69-3.459-7.208a27.545,27.545,0,0,1,.284-4.281,9.158,9.158,0,0,1,2.959-5.124,4.671,4.671,0,0,1,3.057-.408c1.388.368,2.07,2.1,2.515,3.576a56.613,56.613,0,0,1,.4,5.934C458.172,434.732,457.842,437.268,456.641,438.155Zm59.619-8.944a12.621,12.621,0,0,1-3.506,6.81,5.559,5.559,0,0,1-6.265.883c-1.926-1.117-3.173-3.671-3.173-6.5l.026-.5c.433-4.481,1.87-7.163,4.654-8.728a3.225,3.225,0,0,1,2.16.286c.524.305.883.521,1.038.959a4.642,4.642,0,0,0-.456,1.979,5.066,5.066,0,0,0,1.073,2.752,3.884,3.884,0,0,0,3.6,1.56c.344-.012.647-.018.768.112Zm-88.29-23.453a7.423,7.423,0,0,0-1.047,1.26,5.009,5.009,0,0,0-.312,1.741,6.084,6.084,0,0,0,.158,1.1,4.318,4.318,0,0,0,4.544,2.838c2.375-.482,3.21-2.721,3.21-4.649a4.82,4.82,0,0,0-.053-.812,3.356,3.356,0,0,0-2.233-2.1A4.716,4.716,0,0,0,427.97,405.759Zm-32.286-3.241a1.852,1.852,0,0,0-.91,1.043,22.228,22.228,0,0,1-3.653,7.191,12.985,12.985,0,0,0-1.986,3.851l.172.491c.331.368.514.363.982.263a36.674,36.674,0,0,0,9.3-8.565,4.391,4.391,0,0,0,.391-1.806,3.483,3.483,0,0,0-.2-1.441,1.975,1.975,0,0,0-1.15-1.222A5.91,5.91,0,0,0,395.684,402.518Zm-31.558-17.435c-3.785.021-16.856.826-26.2,10.735-6.959,7.739-4.745,14.1-3.9,15.862,2.924,6.051,9.452,7.373,14.157,6.665a14.574,14.574,0,0,0,6.751-2.824.894.894,0,0,0,.284-1.036.8.8,0,0,0-.787-.577l-1.544.3c-4.347.764-11.406-.649-13.012-7.694a12.684,12.684,0,0,1,2.519-9.657,20.505,20.505,0,0,1,7.564-6.028A27.7,27.7,0,0,1,362.8,388.27c6.97.379,12.243,2.943,14.847,7.219,1.813,2.952,2.482,8.044-1.557,12.705a13.433,13.433,0,0,1-1.462,1.543,6.749,6.749,0,0,0-1.35,1.232.949.949,0,0,0-.119,1.069.974.974,0,0,0,.971.479,17.881,17.881,0,0,0,7.6-4.645,13.72,13.72,0,0,0,3.925-8.737,11.015,11.015,0,0,0-.613-3.962C382.558,388.829,374.739,385.064,364.126,385.083Z" transform="translate(-197.12 -385.083)" fill="#907645" fill-rule="evenodd"/>
        </g>
      </g>
      <g id="Grupo_50" data-name="Grupo 50" transform="translate(357.438 477.263)">
        <g id="Grupo_47" data-name="Grupo 47">
          <path id="Trazado_102" data-name="Trazado 102" d="M324.1,450.777a31.124,31.124,0,0,0-3.366-13.094,8.183,8.183,0,0,1-7.278,5,7.586,7.586,0,0,1-7.014-4.782c-.431.647-.8,1.194-.8,1.194a7.494,7.494,0,0,1-6.377,3.581,7.622,7.622,0,0,1-7.126-5.012c-.876,1.171-5.077,8.733-2.989,19.156,0,0,1.951,10.9,10.668,17.1a21.338,21.338,0,0,0,6.465,3.213,12.518,12.518,0,0,0,4.247-1.8,24,24,0,0,0,4.235-3.006,28.3,28.3,0,0,0,8.81-16.129c.209-1.16.377-2.44.471-3.667,0-.14.018-.27.028-.41l.018-.636.007-.549Z" transform="translate(-288.577 -437.669)" fill="#907645" fill-rule="evenodd"/>
        </g>
        <g id="Grupo_49" data-name="Grupo 49">
          <path id="Trazado_103" data-name="Trazado 103" d="M324.1,450.777a31.124,31.124,0,0,0-3.366-13.094,8.183,8.183,0,0,1-7.278,5,7.586,7.586,0,0,1-7.014-4.782c-.431.647-.8,1.194-.8,1.194a7.494,7.494,0,0,1-6.377,3.581,7.622,7.622,0,0,1-7.126-5.012c-.876,1.171-5.077,8.733-2.989,19.156,0,0,1.951,10.9,10.668,17.1a21.338,21.338,0,0,0,6.465,3.213,12.518,12.518,0,0,0,4.247-1.8,24,24,0,0,0,4.235-3.006,28.3,28.3,0,0,0,8.81-16.129c.209-1.16.377-2.44.471-3.667,0-.14.018-.27.028-.41l.018-.636.007-.549Z" transform="translate(-288.577 -437.669)" fill="#907645" fill-rule="evenodd"/>
          <g id="Grupo_48" data-name="Grupo 48">
            <path id="Trazado_104" data-name="Trazado 104" d="M324.1,450.777a31.124,31.124,0,0,0-3.366-13.094,8.183,8.183,0,0,1-7.278,5,7.586,7.586,0,0,1-7.014-4.782c-.431.647-.8,1.194-.8,1.194a7.494,7.494,0,0,1-6.377,3.581,7.622,7.622,0,0,1-7.126-5.012c-.876,1.171-5.077,8.733-2.989,19.156,0,0,1.951,10.9,10.668,17.1a21.338,21.338,0,0,0,6.465,3.213,12.518,12.518,0,0,0,4.247-1.8,24,24,0,0,0,4.235-3.006,28.3,28.3,0,0,0,8.81-16.129c.209-1.16.377-2.44.471-3.667,0-.14.018-.27.028-.41l.018-.636.007-.549Z" transform="translate(-288.577 -437.669)" fill="#907645" fill-rule="evenodd"/>
          </g>
        </g>
      </g>
    </g>
  </g>
</svg>
