<svg xmlns="http://www.w3.org/2000/svg" xmlns:xlink="http://www.w3.org/1999/xlink" width="400" height="300" viewBox="0 0 400 300">
  <defs>
    <clipPath id="clip-GLENMORANGIE">
      <rect width="400" height="300"/>
    </clipPath>
  </defs>
  <g id="GLENMORANGIE" clip-path="url(#clip-GLENMORANGIE)">
    <rect id="Rectángulo_1" data-name="Rectángulo 1" width="400" height="300" fill="none"/>
    <g id="Grupo_55" data-name="Grupo 55" transform="translate(-60.435 -72.497)">
      <g id="Grupo_54" data-name="Grupo 54" transform="translate(79.435 186.497)">
        <path id="Trazado_105" data-name="Trazado 105" d="M108.083,230.3l-.482-.1a12.723,12.723,0,0,0-2.511-.333,3.547,3.547,0,0,0-3.788,3.362,3.242,3.242,0,0,0,2.188,2.961l1.7.8c.843.406,1.8.864,1.8,2.081a2.007,2.007,0,0,1-2.226,1.848,2.376,2.376,0,0,1-2.386-2.17l-.023-.261h-1.026l.005.294.065,2.569,0,.207.2.063a10.613,10.613,0,0,0,2.9.406c2.588,0,4.2-1.411,4.2-3.676,0-1.379-.819-2.423-2.507-3.2l-1.446-.66c-1.335-.607-1.609-1.2-1.609-1.892a1.653,1.653,0,0,1,1.854-1.567,2.02,2.02,0,0,1,2.226,2.191l.01.273h1.1v-3.16Zm4.716,11.528.4-.015c.5-.016,1.059-.034,1.6-.034.465,0,.921.016,1.363.033l.643.016.291.007v-1.049h-.569c-.481,0-.752-.045-.752-1v-7.669c0-.954.27-1,.752-1h.569v-1.051l-.291.007-.659.019c-.439.015-.889.027-1.347.027-.533,0-1.086-.018-1.572-.033l-.429-.014-.295-.007v1.051h.568c.48,0,.752.045.752,1v7.669c0,.955-.272,1-.752,1H112.5v1.049Zm20.151-11.765v1.055h-.537c-.277,0-.658,0-.7,1.419l-.283,9.156-.01.273h-.885l-.084-.1-7.31-8.95c.007,2.162.03,4.342.086,6.506.031,1.306.287,1.369.737,1.369h.6v1.049l-.294-.007-.451-.016c-.419-.015-.852-.033-1.269-.033-.447,0-.921.018-1.34.034l-.378.015-.3.012v-1.055h.538c.527,0,.686,0,.738-1.716.06-2.036.092-5,.092-6.872,0-1.034-.276-1.079-.845-1.079h-.727v-1.056l.295.012.4.018c.315.014.641.029.973.029.295,0,.578-.012.851-.027l.381-.019.143-.005.091.11,6.911,8.5c-.024-1.712-.08-5.659-.08-5.659-.034-1.9-.317-1.9-.83-1.9h-.476v-1.055l.3.011.417.015c.4.015.848.031,1.272.031.367,0,.747-.012,1.11-.027l.579-.019Zm14.646,6.223v1.053h-.633c-.295,0-.467.08-.467.5v3.35l-.205.061a15.057,15.057,0,0,1-4.433.783c-5.2,0-6.571-3.894-6.571-5.955,0-3.654,2.767-6.207,6.728-6.207a13.7,13.7,0,0,1,4.255.847l.2.064v2.63h-.973l-.038-.246c-.227-1.525-2.079-2.064-3.6-2.064-2.689,0-4.429,1.814-4.429,4.615,0,2.479,1.8,5.147,4.712,5.147a4.9,4.9,0,0,0,2.4-.544v-2.434c0-.359-.024-.546-.624-.546h-.507v-1.053l.294.009.446.016c.421.014.9.03,1.354.03.394,0,.8-.012,1.195-.026l.606-.02Zm3.351,5.542c.6-.016,2.1-.049,3.887-.049l3.313.033,1.224.016h.28l.009-.276.094-2.779.011-.295h-1.027l-.035.242c-.257,1.623-.413,2-2.877,2-1.9,0-1.9-.379-1.9-1.3v-7.307c0-.954.272-1,.749-1h.651v-1.051l-.294.007-.78.022c-.446.012-.868.024-1.306.024-.529,0-1.083-.018-1.571-.033l-.432-.014-.292-.007v1.051h.571c.478,0,.749.045.749,1v7.669c0,.955-.27,1-.749,1h-.571v1.049Zm20.94-3.41-.034.318-.144,1.3-.17,1.533-.029.261-.261-.005-.227,0c-.943-.012-2.522-.045-4.088-.045-1.875,0-3.306.033-3.856.049l-.3.007v-1.049h.569c.477,0,.75-.045.75-1v-7.669c0-.954-.273-1-.75-1h-.569v-1.051l.3.007c.531.018,2.327.046,3.856.046,1.29,0,2.032-.015,2.749-.029l.938-.018.281-.005.008.281c.034.992.063,1.814.141,2.653l.029.313h-1l-.034-.247,0-.031c-.151-1.041-.257-1.794-2.763-1.794h-1.222v3.876h1.082c1.691,0,1.7-.189,1.726-.984l.01-.275h1.012l-.011.3c-.016.341-.033.821-.033,1.528,0,.68.02,1.18.033,1.416l.012.3h-.739s-.258,0-.261-.026l-.023-.255c-.068-.678-.084-.837-1.586-.837h-1.222v3.484c0,.7.133.89,1.065.89h.425c2.594,0,3.078-.472,3.3-2l.035-.243h1Zm22.454,3.417-.3-.007-.356-.015c-.447-.016-1-.034-1.647-.034-.633,0-1.2.018-1.657.034l-.375.015-.294.007v-1.049h.518c.607,0,.771,0,.771-1.377v-6.552l-3.7,8.933-.072.175h-.718l-.079-.163-3.807-8.178v5.22c0,1.866.208,1.942.722,1.942h.5v1.055l-.3-.012-.217-.009c-.383-.016-.858-.039-1.438-.039-.507,0-.924.018-1.292.034l-.378.015-.3.012v-1.055h.567c.435,0,.752,0,.8-2.026l.067-2.35c.045-1.394.092-2.839.092-4.293,0-.923-.211-1-.864-1h-.568v-1.056l.3.012.507.023c.273.011.531.023.833.023.478,0,1.068-.033,1.235-.045l.2-.015.087.178,4.043,8.637,3.57-8.624.075-.183.2.007.537.022c.317.012.614.024.9.024s.607-.012.932-.027l.5-.019.295-.012v1.056h-.492c-.626,0-.923.1-.923,1l.058,4.554.039,2.56c.012,1.555.166,1.555.81,1.555h.6v1.049Zm14.09-1.049h-.33c-.522,0-.945-.427-1.324-1.347l-4.038-9.63-.072-.175h-.685l-.072.183-3.6,9.459c-.488,1.3-.771,1.51-1.43,1.51h-.474v1.065l.311-.027c.345-.027.9-.045,1.532-.045.735,0,1.381.016,1.915.049l.3.016v-1.059h-.631c-.36,0-.36-.125-.36-.217a3.907,3.907,0,0,1,.251-1.036s.579-1.719.769-2.289h3.263l1.075,2.647a2.577,2.577,0,0,1,.2.677c0,.2-.362.217-.518.217h-.678v1.059l.3-.016c.556-.031,1.3-.049,2.15-.049.828,0,1.542.016,2.121.049l.3.016v-1.059Zm-7.537-4.712,1.089-3.2,1.31,3.2Zm10.4,5.754c.6-.016,2.1-.049,3.888-.049l3.312.033,1.224.016H220l.01-.276.1-2.779.009-.295h-1.026l-.038.242c-.255,1.623-.412,2-2.876,2-1.9,0-1.9-.379-1.9-1.3v-7.307c0-.954.272-1,.749-1h.648v-1.051l-.291.007-.781.022c-.446.012-.868.024-1.3.024-.53,0-1.083-.018-1.57-.033l-.434-.014-.295-.007v1.051h.571c.48,0,.752.045.752,1v7.669c0,.955-.272,1-.752,1H211v1.049Zm20.953-11.761V233.5h-1.083l-.019-.262c-.092-1.2-.254-1.934-1.693-1.934h-1.509v8.275c0,1.2.1,1.2.72,1.2h.648v1.049l-.294-.007-.5-.015c-.461-.016-.984-.034-1.553-.034s-1.094.018-1.553.033l-.5.016-.292.007v-1.049h.646c.624,0,.72,0,.72-1.2v-8.275h-1.506c-1.441,0-1.6.73-1.7,1.937l-.018.26h-1.086v-3.436l.3.007c.476.018,2.967.046,4.988.046,1.843,0,4.44-.029,4.986-.046Zm15.143.232-.484-.1a12.709,12.709,0,0,0-2.509-.333,3.548,3.548,0,0,0-3.792,3.362A3.246,3.246,0,0,0,242.8,236.2l1.7.8c.843.4,1.8.864,1.8,2.081a2.01,2.01,0,0,1-2.23,1.848,2.375,2.375,0,0,1-2.385-2.17l-.023-.261h-1.027l.01.294.063,2.569,0,.2.194.068a10.637,10.637,0,0,0,2.9.406c2.588,0,4.2-1.411,4.2-3.676,0-1.379-.822-2.427-2.509-3.2l-1.446-.66c-1.335-.61-1.609-1.2-1.609-1.892a1.653,1.653,0,0,1,1.852-1.568,2.018,2.018,0,0,1,2.227,2.187l.01.279h1.1v-3.16Zm14.535.45a3.3,3.3,0,0,1-.53-.144l-.193-.065-.057-.015a12.336,12.336,0,0,0-3.63-.654,6.258,6.258,0,0,0-6.132,6.476c0,3.346,2.581,5.686,6.275,5.686a6.2,6.2,0,0,0,4.509-1.862l.09-.086c0-.007,0-.13,0-.13v-1.477h-.53l-.084.11a4.862,4.862,0,0,1-4.112,2.211c-1.612,0-4.006-1.258-4.006-4.735,0-2.291,1.027-4.966,3.925-4.966,2.781,0,3.463,1.371,3.872,2.189l.08.156a.816.816,0,0,0,.179.014h.53l.008-.28.063-2.134.008-.273Zm9.294-.878a6.127,6.127,0,0,0-6.182,6.207,5.983,5.983,0,0,0,6.133,5.955,6.082,6.082,0,1,0,.049-12.162Zm.045,10.992c-2.521,0-4.082-2.623-4.082-5.049,0-4.254,2.79-4.716,3.989-4.716,2.535,0,4.05,2.558,4.05,5.026C275.225,239.138,273.782,240.863,271.269,240.863Zm19.189-10.8v3.44h-1.086l-.02-.262c-.091-1.2-.253-1.935-1.7-1.935h-1.5v8.276c0,1.2.1,1.2.718,1.2h.651v1.049l-.3-.007-.5-.015c-.457-.016-.983-.034-1.551-.034s-1.1.018-1.553.033l-.5.016-.3.007v-1.049h.65c.624,0,.719,0,.719-1.2v-8.276h-1.5c-1.445,0-1.6.731-1.7,1.935l-.022.262H279.9v-3.44l.291.011c.48.018,2.969.046,4.989.046,1.843,0,4.44-.029,4.986-.046Zm12.9.686a3.576,3.576,0,0,1-.529-.144l-.193-.065-.053-.015a12.355,12.355,0,0,0-3.63-.654,6.259,6.259,0,0,0-6.132,6.476c0,3.346,2.579,5.686,6.276,5.686a6.207,6.207,0,0,0,4.508-1.862l.09-.086c0-.007,0-.13,0-.13v-1.477h-.529l-.09.11a4.848,4.848,0,0,1-4.114,2.211c-1.606,0-4-1.258-4-4.735,0-2.291,1.026-4.966,3.925-4.966,2.776,0,3.463,1.368,3.872,2.189l.076.156a.871.871,0,0,0,.183.014h.53l.008-.28.064-2.134.008-.273Zm16.324,11.085-.3-.007-.4-.015c-.5-.016-1.057-.034-1.6-.034-.458,0-.89.016-1.352.026l-.685.023-.292.007v-1.049h.741c.4,0,.61,0,.61-1.377v-3.062h-5.917v3.062c0,1.377.2,1.377.606,1.377h.745v1.049l-.292-.007-.69-.023c-.458-.01-.893-.026-1.345-.026-.544,0-1.109.018-1.6.034l-.4.015-.292.007v-1.049h.569c.477,0,.75-.046.75-1v-7.669c0-.954-.273-1-.75-1h-.569v-.76l0-.295.3.011.429.014c.491.015,1.041.033,1.576.033.448,0,.874-.015,1.326-.027l.709-.019.292-.011v1.055H311.1c-.4,0-.606,0-.606,1.378v2.623h5.917V232.5c0-1.378-.207-1.378-.61-1.378h-.741v-.76l0-.295.3.011.7.019c.453.012.885.027,1.333.027.527,0,1.08-.018,1.57-.033l.429-.014.3-.011v1.055h-.569c-.48,0-.75.045-.75,1v7.669c0,.954.27,1,.75,1h.569v1.049Zm24.905-11.772v1.055h-.569c-.493,0-.753.125-.987.868l-3.141,9.847-.063.2h-.955l-.064-.205-2.592-8.26-2.437,8.256-.063.209h-.95l-.068-.2-3.359-9.8c-.265-.766-.61-.919-1.08-.919h-.607v-1.055l.3.011.526.018c.47.012,1,.029,1.511.029.444,0,.906-.015,1.35-.027l.688-.019.291-.011v1.055h-.569c-.453,0-.453.194-.453.309a2.61,2.61,0,0,0,.139.54l.05.174,2.071,6.262,2.415-8.327.057-.2h.961l.061.2,2.6,8.26c.538-1.714,1.741-5.558,1.741-5.562a5.448,5.448,0,0,0,.3-1.3c0-.264-.035-.355-.439-.355h-.646v-1.056l.3.012.372.014c.416.015.893.033,1.332.033.378,0,.764-.015,1.139-.027l.548-.019Zm14.862,11.772-.3-.007-.4-.015c-.5-.016-1.057-.034-1.606-.034-.453,0-.887.016-1.345.026l-.69.023-.292.007v-1.049h.741c.408,0,.61,0,.61-1.377v-3.062h-5.917v3.062c0,1.377.2,1.377.61,1.377h.741v.756l0,.294-.3-.007-.69-.023c-.457-.01-.893-.026-1.347-.026-.542,0-1.1.018-1.6.034l-.4.015-.3.007v-1.049h.569c.48,0,.75-.046.75-1v-7.669c0-.954-.27-1-.75-1h-.569v-1.055l.3.011.429.014c.485.015,1.042.033,1.57.033.448,0,.875-.015,1.329-.027l.708-.019.292-.011v1.055h-.741c-.408,0-.61,0-.61,1.378v2.623h5.917V232.5c0-1.378-.2-1.378-.61-1.378h-.741v-1.055l.292.011.709.019c.453.012.878.027,1.326.027.53,0,1.086-.018,1.576-.033l.425-.014.3-.011v1.055h-.569c-.477,0-.75.045-.75,1v7.669c0,.954.273,1,.75,1h.569v1.049Zm4.265-.007.4-.015c.495-.016,1.06-.034,1.6-.034.466,0,.924.016,1.363.026l.643.023.295.007,0-.294v-.756h-.569c-.481,0-.749-.046-.749-1v-7.669c0-.954.268-1,.749-1h.569v-1.055l-.291.011-.66.019c-.435.012-.889.027-1.345.027-.53,0-1.086-.018-1.575-.033l-.427-.014-.295-.011v1.055h.569c.48,0,.749.045.749,1v7.669c0,.954-.269,1-.749,1h-.569v1.049Zm15.1-11.528-.481-.1a12.927,12.927,0,0,0-2.511-.33,3.548,3.548,0,0,0-3.79,3.362,3.25,3.25,0,0,0,2.193,2.961l1.7.8c.843.4,1.8.867,1.8,2.081a2.005,2.005,0,0,1-2.223,1.848,2.372,2.372,0,0,1-2.386-2.173l-.023-.258h-1.027l.008.294.064,2.569,0,.2.192.068a10.751,10.751,0,0,0,2.9.406c2.589,0,4.2-1.411,4.2-3.676,0-1.379-.821-2.427-2.509-3.2l-1.443-.66c-1.336-.61-1.612-1.2-1.612-1.892a1.655,1.655,0,0,1,1.854-1.568,2.02,2.02,0,0,1,2.229,2.187l.01.279h1.1v-3.16Zm15.381,11.535-.3-.007-.5-.023c-.337-.01-.686-.026-1.019-.026s-.681.016-1.022.026l-.493.023-.247.007-.045-.243c-.067-.4-.1-.6-.95-1.574l-3.016-3.452-.525.553v2.29c0,1.377.207,1.377.612,1.377h.739v.756l.005.294-.3-.007-.688-.023c-.462-.01-.892-.026-1.35-.026-.544,0-1.1.018-1.6.034l-.4.015-.3.007v-1.049h.571c.48,0,.754-.046.754-1v-7.669c0-.954-.275-1-.754-1h-.571v-1.055l.3.011.429.014c.489.015,1.041.033,1.571.033.453,0,.879-.015,1.332-.027l.705-.019.291-.011v1.055h-.739c-.4,0-.612,0-.612,1.378v2.945c.951-1.059,2.944-3.279,2.944-3.279l.041-.045c.583-.632.637-.832.64-.878s0-.121-.232-.121h-.569v-1.055l.295.011.561.018c.427.014.866.029,1.283.029s.825-.015,1.224-.027l.641-.019.292-.011v1.055h-.569c-.665,0-.853.072-1.754,1.026l-2.858,3,3.885,4.549c.87,1.019,1.248,1.093,1.763,1.093h.525v1.049Zm12.538-11.773v1.056h-.677c-.458,0-.526.03-1.023.964l-2.747,5.136v2.738c0,.792.243.83.67.83h.6v.756l0,.294-.3-.007-.65-.023c-.44-.01-.9-.026-1.337-.026-.507,0-1.037.018-1.507.034l-.485.015-.291.007v-1.049h.665c.542,0,.673-.076.673-.83V237.55c-.337-.606-2.983-5.34-2.983-5.34-.588-1.059-.723-1.093-1.337-1.093h-.425v-1.055l.291.011.7.019c.439.012.858.027,1.271.027.434,0,.882-.015,1.317-.027l.67-.019.291-.011v1.055h-.565c-.295,0-.295.09-.295.215a2.441,2.441,0,0,0,.309.79l2.068,3.732c.565-1.086,1.924-3.679,1.924-3.68a3.257,3.257,0,0,0,.39-.984.088.088,0,0,0,0-.029c-.005-.005-.064-.043-.323-.043h-.583v-.76l0-.295.3.011.726.024c.292.011.548.022.821.022.345,0,.705-.015,1.045-.027l.5-.019Z" transform="translate(-71.585 -171.01)" fill="#161615"/>
        <path id="Trazado_106" data-name="Trazado 106" d="M124.092,192.765" transform="translate(-63.403 -184.247)" fill="#161615"/>
        <path id="Trazado_107" data-name="Trazado 107" d="M149.97,186.9c-1.193,0-1.687.174-2.4.174h-.046a25.894,25.894,0,0,0-3.23-.144.993.993,0,0,0-.964,1.026c0,.59.572.841,1.063.887,1.877.173,2.605,1.635,2.605,4.042v30.023c0,2.405-.728,3.868-2.605,4.04a1.125,1.125,0,0,0-1.063,1.022c0,.635.45.836.964.89,1.67.179.947-.264,4.531-.264h0c3.588,0,2.859.443,4.531.264.514-.054.962-.281.962-.915a1.1,1.1,0,0,0-1.06-1c-1.878-.173-2.607-1.635-2.607-4.04V197.2l.173.27c7.1,11.075,18.693,30.4,18.859,30.673.45.743.6.851,1.56.851,1.09,0,1.038-1.09,1.038-1.782V192.888c0-2.407.73-3.869,2.607-4.042.491-.046,1.063-.3,1.063-.887a1,1,0,0,0-.964-1.026c-1.54-.164-.813.224-4.531.224h0c-3.725,0-2.982-.39-4.532-.224a1,1,0,0,0-.965,1.026c0,.59.572.841,1.063.887,1.878.173,2.607,1.635,2.607,4.042v22.833l-.2-.345c-5.034-7.867-12.465-20.573-15.951-26.028C151.9,188.443,151.36,186.9,149.97,186.9Z" transform="translate(-56.495 -186.355)" fill="#161615"/>
        <path id="Trazado_108" data-name="Trazado 108" d="M270.8,186.9c-1.189,0-1.687.174-2.4.174h-.045a25.916,25.916,0,0,0-3.23-.144.993.993,0,0,0-.964,1.026c0,.59.569.841,1.063.887,1.875.173,2.607,1.635,2.607,4.042v30.023c0,2.405-.731,3.921-2.607,4.093a1.074,1.074,0,0,0-1.063.969.889.889,0,0,0,.964.968c1.682,0,1.661-.341,4.531-.341h0c2.933,0,2.866.425,4.531.315a.935.935,0,0,0,.964-.966,1.1,1.1,0,0,0-1.063-1c-1.874-.173-2.6-1.635-2.6-4.04V197.2l.17.27c7.1,11.075,18.693,30.4,18.859,30.673.448.743.6.851,1.56.851,1.09,0,1.041-1.223,1.041-1.913v-34.2c0-2.407.727-3.869,2.6-4.042.493-.046,1.063-.3,1.063-.887a1,1,0,0,0-.961-1.026c-1.542-.164-.811.224-4.535.224h.005c-3.724,0-2.983-.39-4.531-.224a1,1,0,0,0-.965,1.026c0,.59.569.841,1.063.887,1.875.173,2.607,1.635,2.607,4.042v22.833l-.2-.345c-5.032-7.867-12.466-20.573-15.951-26.028C272.732,188.443,272.192,186.9,270.8,186.9Z" transform="translate(-13.116 -186.355)" fill="#161615"/>
        <path id="Trazado_109" data-name="Trazado 109" d="M111.407,187.246c-3.586,0-3.962-.462-5.633-.283a1,1,0,0,0-.964,1.026c0,.59.572.843,1.064.886,1.877.174,2.6,1.636,2.6,4.042v30.022c0,2.407-.727,3.869-2.6,4.042-.492.045-1.064.3-1.064.889a1,1,0,0,0,.964,1.023c1.672.179,5.523-.3,9.22-.3l.129,0c1.4,0-.071-.007,2.188-.007,8.7,0,5.444.325,8.338.325a1.858,1.858,0,0,0,2.09-1.381c.163-.518,1.5-4.266,2.34-6.356.217-.541.178-1.044-.409-1.3a1.256,1.256,0,0,0-1.513.626c-.295.5-1.966,4.85-9.788,4.85-3.8,0-3.964-.711-3.964-2.41V192.917c0-2.405.73-3.868,2.607-4.042.491-.043,1.063-.3,1.063-.886a1,1,0,0,0-.964-1.026c-1.67-.179-2.086.281-5.673.281Z" transform="translate(-70.325 -186.345)" fill="#161615"/>
        <path id="Trazado_110" data-name="Trazado 110" d="M350.422,227.531c.162-.518,1.5-4.266,2.342-6.356.215-.541.175-1.044-.409-1.3a1.259,1.259,0,0,0-1.515.626c-.3.5-1.964,4.85-9.784,4.85-5.562,0-6.378-.711-6.378-2.41V209.809c0-.889.026-.905.825-.905h7.337c1.832,0,2.191,1.1,2.639,2.5a1.245,1.245,0,0,0,1.233,1.06.843.843,0,0,0,.871-1.06,34.97,34.97,0,0,1-.336-3.777v-.4a35,35,0,0,1,.336-3.779.844.844,0,0,0-.871-1.06,1.246,1.246,0,0,0-1.233,1.06c-.448,1.393-.807,2.5-2.639,2.5H335.5c-.809,0-.825-.029-.825-.892V192.176c0-1.393.285-1.926,1.708-1.926.493,0,1.861-.185,3.558-.185,5.818,0,6.563,1.712,7.98,3.339a1.078,1.078,0,0,0,1.749-1.257,30.312,30.312,0,0,1-1.041-3.359c-.381-1.367-.843-1.889-2.695-1.889-.53,0-2.351.169-4.174.247-2.964.124-7,.079-9.985.079h.005c-3.589,0-4.07-.434-5.738-.254a1,1,0,0,0-.965,1.026c0,.59.575.843,1.063.886,1.88.174,2.607,1.636,2.607,4.042v30.022c0,2.407-.727,3.869-2.607,4.042-.488.045-1.063.3-1.063.889a1,1,0,0,0,.965,1.023c1.668.179,5.522-.291,9.218-.291l.13,0c1.4,0-.072-.005,2.188-.005,8.7,0,7.855.311,10.748.311A1.861,1.861,0,0,0,350.422,227.531Z" transform="translate(8.755 -186.353)" fill="#161615"/>
        <path id="Trazado_111" data-name="Trazado 111" d="M147.869,227.531c.164-.518,1.5-4.266,2.343-6.356.216-.541.175-1.044-.409-1.3a1.259,1.259,0,0,0-1.515.626c-.292.5-1.966,4.85-9.785,4.85-5.564,0-6.374-.711-6.374-2.41V209.809c0-.889.026-.905.825-.905h7.339c1.825,0,2.189,1.1,2.635,2.5a1.243,1.243,0,0,0,1.234,1.06c.556,0,.868-.381.868-1.06,0-1.375-.334-2.718-.334-3.777v-.4c0-1.061.334-2.631.334-3.779,0-.68-.313-1.06-.868-1.06a1.244,1.244,0,0,0-1.234,1.06c-.446,1.393-.81,2.5-2.635,2.5h-7.339c-.81,0-.825-.029-.825-.892V192.176c0-1.393.284-1.926,1.707-1.926.493,0,1.859-.185,3.554-.185,5.818,0,6.563,1.712,7.983,3.339a1.078,1.078,0,0,0,1.749-1.257,29.8,29.8,0,0,1-1.038-3.359c-.383-1.367-.848-1.889-2.7-1.889-.527,0-2.35.06-4.172.14-2.963.124-7,.224-9.985.224h0c-3.586,0-4.066-.472-5.738-.292A1,1,0,0,0,122.53,188c0,.59.575.843,1.065.886,1.875.174,2.6,1.636,2.6,4.042v30.022c0,2.407-.728,3.869-2.6,4.042-.491.045-1.065.3-1.065.889a1,1,0,0,0,.965,1.023c1.672.179,5.523-.318,9.218-.318l.13,0c1.4,0-.071-.007,2.187-.007,8.7,0,7.858.338,10.748.338A1.858,1.858,0,0,0,147.869,227.531Z" transform="translate(-63.963 -186.353)" fill="#161615"/>
        <path id="Trazado_112" data-name="Trazado 112" d="M187.875,225.986c1.364-4.044,5.34-16.541,9.351-28.753l.173-.27v25.976c0,2.4-.73,3.868-2.607,4.04-.492.046-1.064.3-1.064.887a1,1,0,0,0,.965,1.026c1.672.179,2.017-.292,5.6-.292h0c3.586,0,3.934.472,5.606.292a1,1,0,0,0,.962-1.026c0-.591-.572-.841-1.064-.887-1.878-.173-2.605-1.636-2.605-4.04V192.914c0-2.405.727-3.868,2.605-4.04.492-.045,1.064-.3,1.064-.889a1,1,0,0,0-.962-1.026,45.253,45.253,0,0,0-4.573.145h-.043c-.708,0-1.475-.174-2.665-.174-1.39,0-2.189,1.423-2.513,2.446-1.839,5.825-6.215,18.871-8.789,26.925l-.13-.476c-2.408-7.814-6.251-20.206-8.223-26.449-.322-1.023-1.121-2.472-2.51-2.472-1.195,0-2.226.2-2.933.2h-.048c-1.68,0-2.6-.31-4.167-.17a1.017,1.017,0,0,0-.964,1.051c0,.59.571.844,1.063.889,1.877.173,2.605,1.635,2.605,4.04v30.025c0,2.4-.728,3.868-2.605,4.04-.492.046-1.063.3-1.063.887a1,1,0,0,0,.964,1.026c1.67.179.946-.292,4.531-.292h0c3.585,0,2.861.472,4.532.292a1,1,0,0,0,.965-1.026c0-.591-.572-.841-1.063-.887-1.878-.173-2.607-1.636-2.607-4.04V197.23l.171.27c3.631,12.143,7.551,24.689,8.865,28.617C185.186,227.68,187,228.33,187.875,225.986Z" transform="translate(-47.517 -186.353)" fill="#161615"/>
        <path id="Trazado_113" data-name="Trazado 113" d="M280.8,227.917c0,.637-.253,1.064-.965,1.064-1.678,0-2.172-.279-5.755-.279s-4.114.42-5.781.241a1,1,0,0,1-.965-1.026c0-.591.568-.841,1.063-.887,1.875-.173,1.928-1.878,1.4-4.04-.023-.1-.4-1.657-.969-4.029a.914.914,0,0,0-.974-.682h-8.509a.871.871,0,0,0-.785.685c-.636,2.347-1.026,3.928-1.059,4.027-.727,2.434-.745,3.868,1.135,4.04.491.046,1.059.3,1.059.887a.985.985,0,0,1-.959,1.026c-1.8.125-1.867-.266-4.665-.266-1.333,0-1.583.291-3.664.291-.037,0-.1-.016-.14-.022a5.455,5.455,0,0,1-1.731-.382c-4.069-1.619-6.98-6.219-9.255-10.444-1.663-3.093-3.243-8.385-5.97-9.555v14.407c0,2.407.731,3.869,2.605,4.042.495.043,1.065.3,1.065.889a.994.994,0,0,1-.965,1.022c-1.67.179-2.02-.276-5.6-.276s-4.07.455-5.738.276a1,1,0,0,1-.965-1.022c0-.591.575-.845,1.063-.889,1.875-.173,2.607-1.635,2.607-4.042V192.95c0-2.407-.731-3.868-2.607-4.042-.488-.045-1.063-.3-1.063-.886a1,1,0,0,1,.965-1.026c1.668-.179,2.149.28,5.738.28,2.434,0,4.645-.353,7.473-.353a15.866,15.866,0,0,1,5.13.7,10.313,10.313,0,0,1,7.4,10.1c0,7.8-7.9,10.769-10.505,10.769,5.36,6.748,8.236,15.644,11.614,17.977a6.193,6.193,0,0,0,2.328-3.478c.143-.425,8.7-32.142,9.048-33.434.583-2.184.981-2.8,1.919-2.8s1.413.484,2.1,3.138c.111.436,8.885,32.66,9.008,33.093.726,2.57,1.932,3.921,3.812,4.093C280.224,227.129,280.8,227.326,280.8,227.917Zm-36.7-29.872c0-4.148-1.733-6.943-4.55-7.971a9.92,9.92,0,0,0-3.634-.491c-2.331,0-2.87.974-2.87,2.594V205.72a10.853,10.853,0,0,0,4.347.6C241.489,206.316,244.1,202.33,244.1,198.045Zm23.685,16.547c-1.324-5.507-2.956-10.992-4.131-15.847l-.135.476c-1.1,4.683-2.548,10.244-3.884,15.654-.185.753.205.477.6.477H267.1C267.358,215.352,267.9,215.126,267.781,214.592Z" transform="translate(-27.638 -186.403)" fill="#161615"/>
        <path id="Trazado_114" data-name="Trazado 114" d="M323.716,192.917c0-2.405.731-3.868,2.607-4.042.492-.043,1.063-.3,1.063-.886a1,1,0,0,0-.965-1.026c-1.669-.179-2.02.254-5.6.254h.005c-3.589,0-4.069-.434-5.738-.254a1,1,0,0,0-.965,1.026c0,.59.575.843,1.063.886,1.875.174,2.607,1.636,2.607,4.042v30.022c0,2.407-.731,3.869-2.607,4.042-.488.045-1.063.3-1.063.889a1,1,0,0,0,.965,1.023c1.669.179,2.149-.265,5.738-.265h-.005c3.584,0,3.934.444,5.6.265a1,1,0,0,0,.965-1.023c0-.591-.571-.844-1.063-.889-1.875-.173-2.607-1.635-2.607-4.042Z" transform="translate(4.819 -186.345)" fill="#161615"/>
        <path id="Trazado_115" data-name="Trazado 115" d="M128.273,192.765" transform="translate(-61.902 -184.247)" fill="#161615"/>
        <path id="Trazado_116" data-name="Trazado 116" d="M233.084,208.143c0,12.667-7.065,21.645-18.052,21.645s-18.05-8.978-18.05-21.645,7.071-21.646,18.05-21.646S233.084,195.473,233.084,208.143Zm-6.325-.054c0-11.24-4.262-19.055-11.613-19.055s-11.607,7.814-11.607,19.055,4.259,19.053,11.607,19.053S226.759,219.327,226.759,208.089Z" transform="translate(-37.234 -186.497)" fill="#161615"/>
        <g id="Grupo_52" data-name="Grupo 52" transform="translate(283.847)">
          <path id="Trazado_117" data-name="Trazado 117" d="M322.076,210.038c-1.269-.167-1.435.223-4.751.223-3.395,0-3.4-.39-5.068-.211a1.013,1.013,0,0,0-.965.987c0,.59.575.881,1.063.925,1.634.152,2.2,1.658,2.2,4.04v6.211c0,2.3-.337,2.605-1.462,3.262-1.678.974-3.32,1.39-6.733,1.39h-.212c-6.643,0-11.295-6.526-11.295-18.776,0-11.24,3.813-19.055,11.874-19.055,8.94,0,10.922,6.548,11.1,10.252.037.686.408,1.065,1,1.063s.928-.391.974-1.063a41.013,41.013,0,0,0-.009-7.351,2.8,2.8,0,0,0-1.131-2.127c-1.3-1.01-4.576-3.312-11.641-3.312-11.331,0-18.719,9.252-18.719,21.779,0,12.667,6.806,21.275,17.783,21.275a33.979,33.979,0,0,0,11.989-2.195c1.593-.482,2.817-.417,2.817-1.547,0-1.3-.4-1-.4-4.8V216c0-2.4.31-3.828,1.4-4.04.511-.1,1.063-.36,1.063-.953A.958.958,0,0,0,322.076,210.038Z" transform="translate(-288.298 -186.497)" fill="#161615"/>
        </g>
        <g id="Grupo_53" data-name="Grupo 53">
          <path id="Trazado_118" data-name="Trazado 118" d="M113.212,210.038c-1.271-.167-1.439.223-4.751.223-3.4,0-3.4-.39-5.068-.211a1.01,1.01,0,0,0-.965.987c0,.59.571.881,1.063.925,1.632.152,2.2,1.658,2.2,4.04v6.211c0,2.3-.334,2.605-1.462,3.262-1.678.974-3.319,1.39-6.734,1.39h-.209c-6.644,0-11.3-6.526-11.3-18.776,0-11.24,3.813-19.055,11.876-19.055,8.937,0,10.92,6.548,11.1,10.252.031.686.4,1.065.993,1.063s.931-.391.974-1.063a40.762,40.762,0,0,0-.01-7.351,2.8,2.8,0,0,0-1.131-2.127c-1.3-1.01-4.576-3.312-11.64-3.312-11.331,0-18.718,9.215-18.718,21.779,0,12.667,6.8,21.275,17.781,21.275a34,34,0,0,0,11.989-2.195c1.591-.482,2.817-.417,2.817-1.547,0-1.3-.4-1-.4-4.8V216c0-2.4.313-3.828,1.4-4.04.516-.1,1.064-.36,1.064-.953A.956.956,0,0,0,113.212,210.038Z" transform="translate(-79.435 -186.497)" fill="#161615"/>
        </g>
      </g>
    </g>
  </g>
</svg>
