<svg id="Capa_1" data-name="Capa 1" xmlns="http://www.w3.org/2000/svg" xmlns:xlink="http://www.w3.org/1999/xlink" viewBox="0 0 400 300"><defs><style>.cls-1{fill:none;}.cls-2{clip-path:url(#clip-path);}.cls-3{fill:#1e1b1a;}.cls-4{fill:#141215;}</style><clipPath id="clip-path"><rect class="cls-1" x="74.67" y="56" width="250.67" height="188"/></clipPath></defs><title>4</title><g class="cls-2"><g id="CHANDON"><rect id="Rectángulo_1" data-name="Rectángulo 1" class="cls-1" x="74.67" y="56" width="250.67" height="188"/><g id="Grupo_57" data-name="Grupo 57"><g id="Grupo_56" data-name="Grupo 56"><path id="Trazado_119" data-name="Trazado 119" class="cls-3" d="M106.58,167.07a21.59,21.59,0,0,1-10,2.33c-9.38,0-14.85-5.48-14.85-12.9,0-6.95,4.86-12.72,15.5-12.72a25.93,25.93,0,0,1,10,1.91c-.61,1.48-1.38,3.6-1.38,3.6-1.09-2-4.65-3.95-8.78-3.95-6.4,0-10.65,4.17-10.65,11.12,0,7.51,5.23,11.21,11,11.21a12.59,12.59,0,0,0,9.18-3.7,29.15,29.15,0,0,1,0,3.1"/><path id="Trazado_120" data-name="Trazado 120" class="cls-3" d="M120.74,162.08c0,3.28.08,6.89.08,6.89h-4.49s.52-8.44.52-13.15c0-2.78-.36-11.79-.36-11.79H121s-.37,6.42-.29,10.49c2.67.07,5.38.15,8.06.15,3.15,0,5,0,7.48-.12.09-4.89-.2-10.52-.2-10.52h4.54s-.45,11.93-.45,17.3c0,2.93.24,7.64.24,7.64H136s.28-5.92.28-6.81v-5.41c-2.71-.1-3.72-.1-7.77-.1-3.88,0-4.69,0-7.77.06Z"/><path id="Trazado_121" data-name="Trazado 121" class="cls-3" d="M155.46,159.53c-.81,1.66-3.76,9.44-3.76,9.44h-3.44l12.46-25.23h1.9L174.76,169h-5s-3.08-7.45-4.09-9.43Zm5.06-10.74-4.25,8.94h8.62Z"/><path id="Trazado_122" data-name="Trazado 122" class="cls-3" d="M185.32,152.61c.13,8.72.65,16.36.65,16.36h-3.28s.53-8,.53-11.74c0-1.44-.13-7.71-.13-9v-4.33h1.51l1.33,1.4c1.1,1.12,2.06,2.1,4.54,4.41,8.09,7.6,9,8.46,14.12,13.11v-1.33c0-9.19-.53-17.59-.53-17.59h3.32s-.69,10.42-.69,15.6c0,2.81.17,9.7.17,9.7h-1.42s-7.33-7.38-10.17-9.73c-.68-.57-1.37-1.19-2.05-1.8l-7.9-7.32Z"/><path id="Trazado_123" data-name="Trazado 123" class="cls-3" d="M228.77,169H218s.48-6.14.48-14.42c0-5.36-.31-10.59-.31-10.59s4.4.1,6.63.1c7.23,0,11.14,0,14.89,2.68a10.44,10.44,0,0,1,4.45,9.08c0,9.11-7.28,13.14-15.39,13.14m6.81-21.33c-2.83-1.91-6.27-1.91-9.51-1.91a30.19,30.19,0,0,0-3.56.15c-.16,3.31-.21,7-.21,10.3,0,6.59,0,7.34.13,10.93a34.78,34.78,0,0,0,4.33.21c1.74,0,5.62,0,8.37-1.73,3.77-2.39,4.54-6.46,4.54-9.34,0-2.7-.68-6.34-4.09-8.62"/><path id="Trazado_124" data-name="Trazado 124" class="cls-3" d="M283.78,156.25c0,7.52-6,13.26-15.62,13.26-8.83,0-15.22-4.83-15.22-12.83,0-7.68,5.71-13,15.62-13,8.46,0,15.22,4.43,15.22,12.54M268.24,168c6.39,0,10.93-4.16,10.93-11.53a13.16,13.16,0,0,0-1.78-6.92c-2.19-3.28-6.28-4.26-9-4.26-5.39,0-10.8,3.25-10.8,11.4,0,7,4.44,11.31,10.68,11.31"/><path id="Trazado_125" data-name="Trazado 125" class="cls-3" d="M296.4,152.61c.12,8.72.64,16.36.64,16.36h-3.28s.53-8,.53-11.74c0-1.44-.12-7.71-.12-9v-4.33s1.14,0,1.51,0l1.32,1.4c1.1,1.12,2.07,2.1,4.54,4.41,8.09,7.6,9,8.46,14.12,13.11v-1.33c0-9.19-.52-17.59-.52-17.59h3.31s-.68,10.42-.68,15.6c0,2.81.15,9.7.15,9.7h-1.41s-7.33-7.38-10.16-9.73c-.68-.57-1.37-1.19-2.05-1.8l-7.9-7.32Z"/></g><path id="Trazado_126" data-name="Trazado 126" class="cls-4" d="M208.6,88H202L200.11,80,198.21,88h-6.15l5,3.65L191.83,102l8.28-8.12,5,3.59-1.9-5.83Z"/><path id="Trazado_127" data-name="Trazado 127" class="cls-4" d="M163.45,135.58c4-19.48,16.93-36.26,27.89-41.89l-.16-.11c-15.37,8-27.89,24-32,42Z"/><path id="Trazado_128" data-name="Trazado 128" class="cls-4" d="M163.87,174.61h-4.94c4,18.42,17.57,35.43,39.17,44.92V213.2c-18.74-9.69-30.36-23.7-34.23-38.59"/></g></g></g><rect class="cls-1" width="400" height="300"/></svg>