<svg id="Capa_1" data-name="Capa 1" xmlns="http://www.w3.org/2000/svg" xmlns:xlink="http://www.w3.org/1999/xlink" viewBox="0 0 400 300"><defs><style>.cls-1{fill:none;}.cls-2{fill:#fff;}.cls-3{clip-path:url(#clip-path);}.cls-4{fill:#1a1818;}</style><clipPath id="clip-path"><rect class="cls-1" x="57.33" y="43" width="285.33" height="214"/></clipPath></defs><title>6</title><rect class="cls-2" width="400" height="300"/><g class="cls-3"><g id="MOET_Y_CHANDON" data-name="MOET Y CHANDON"><rect id="Rectángulo_1" data-name="Rectángulo 1" class="cls-1" x="57.33" y="43" width="285.33" height="214"/><g id="Grupo_58" data-name="Grupo 58"><path id="Trazado_129" data-name="Trazado 129" class="cls-4" d="M220,110.47a1.5,1.5,0,0,0-1.26.6c-.42.42-1,1.05-1,1.05l-.38-.44c-.14-.22-.29-.88,0-1.13.09-.07,0-.14,0-.14a.86.86,0,0,0-.71.43,2.1,2.1,0,0,0-.31.68,1.08,1.08,0,0,0-.8.31,1.53,1.53,0,0,0-.33,1.22,2.28,2.28,0,0,0-.57.63,1.23,1.23,0,0,0,0,1.06c0,.08.11.09.14,0a1,1,0,0,1,.89-.61c.56,0,.76.11.76.27a2,2,0,0,1-1.53,1,1.24,1.24,0,0,1-1.22-.61,1.63,1.63,0,0,1-.28-1s.69.1,1.08-.81c.3-.71.11-1.18-.17-1.34s-.93.11-1.2.64c-.44.88-.1,1.33-.1,1.33a1.66,1.66,0,0,1-2,.55c-1.22-.43-.62-2.71-.62-2.71a.92.92,0,0,1,.52,0c.17.1.22.53.38.89s.33.68.61.68.49-.62.53-1.11c.48-.1.89-.43.72-1.36,0,0,.59-.64.51-1.06,0-.06-.32-.2-.8-.13a6.54,6.54,0,0,0-1.13.31,1.14,1.14,0,0,1,.14-.54,8,8,0,0,0,1-.93c.2-.29.46-.73.24-.86a1.93,1.93,0,0,0-.88-.24,1.14,1.14,0,0,0-.5-.4l-.05,0a1,1,0,0,0-.63,0,2.21,2.21,0,0,0-.85-.36c-.26,0-.35.47-.39.82a8.44,8.44,0,0,0,.25,1.42,1.26,1.26,0,0,1-.22.52,4.4,4.4,0,0,0-.57-1.07,1,1,0,0,0-.72-.42c-.17,0-.44.71-.39,1.3a1.17,1.17,0,0,0-.46,1.51c-.22.35-.39,1-.21,1.29s.64.08,1.12-.18.64-.53.85-.51.42.29.42.29-1,1.81-2.14,1.82a1.73,1.73,0,0,1-1.34-.43,1.33,1.33,0,0,1-.52-.91,1.47,1.47,0,0,0,.89-1.3,1.05,1.05,0,0,0-.77-1.26h0a1.2,1.2,0,0,0-1.15,1.05,1.33,1.33,0,0,0,.5,1.41,1.69,1.69,0,0,1-1.87,1.11,2.37,2.37,0,0,1-1.54-.57,3.16,3.16,0,0,1-.8-2.08,1.17,1.17,0,0,1,.64-.15c.23,0,.41.47.78.77a2,2,0,0,0,1.27.63c.22,0,.42-1,.26-1.47a1.34,1.34,0,0,0,.13-1.66s.28-1,0-1.33c-.07-.08-.39-.16-.91.11A7.6,7.6,0,0,0,202,108s-.14-.39,0-.56a14.62,14.62,0,0,0,.73-1.42c.11-.35.23-.87-.07-.93a2.4,2.4,0,0,0-1.13.1,1.3,1.3,0,0,0-.72-.29h0a1.3,1.3,0,0,0-.72.29,2.4,2.4,0,0,0-1.13-.1c-.31.06-.18.58-.07.93a11.2,11.2,0,0,0,.73,1.42c.1.17,0,.56,0,.56a7.6,7.6,0,0,0-1.27-.92c-.52-.27-.83-.19-.91-.11-.26.32,0,1.33,0,1.33a1.34,1.34,0,0,0,.14,1.66c-.17.49,0,1.45.26,1.46a1.93,1.93,0,0,0,1.27-.62c.36-.3.54-.73.77-.77a1.32,1.32,0,0,1,.65.15,3.25,3.25,0,0,1-.81,2.08,2.37,2.37,0,0,1-1.54.57,1.7,1.7,0,0,1-1.87-1.11,1.31,1.31,0,0,0,.5-1.41,1.18,1.18,0,0,0-1.14-1.05,1.05,1.05,0,0,0-.8,1.25h0a1.52,1.52,0,0,0,.91,1.3,1.41,1.41,0,0,1-.52.91,1.77,1.77,0,0,1-1.35.43c-1.18,0-2.13-1.82-2.13-1.82s.22-.28.42-.29.49.31.83.51,1,.33,1.13.18a1.58,1.58,0,0,0-.22-1.29,1.17,1.17,0,0,0-.45-1.52c0-.58-.22-1.25-.39-1.29a1,1,0,0,0-.72.42,4.4,4.4,0,0,0-.57,1.07,1.22,1.22,0,0,1-.22-.51,7.68,7.68,0,0,0,.25-1.42c-.05-.36-.13-.85-.38-.82a2,2,0,0,0-.85.35,1.2,1.2,0,0,0-.65,0l0,0a1,1,0,0,0-.48.4,2,2,0,0,0-.9.24c-.21.13.06.57.24.86a9.85,9.85,0,0,0,1,.94,1.24,1.24,0,0,1,.15.53,6.54,6.54,0,0,0-1.13-.31c-.49-.07-.8.07-.8.13-.08.43.5,1.06.5,1.06-.15.94.24,1.26.73,1.36,0,.49.36,1.12.54,1.12s.49-.43.6-.69.21-.78.38-.88a.87.87,0,0,1,.52,0s.6,2.27-.63,2.71a1.65,1.65,0,0,1-2-.55s.34-.46-.1-1.33c-.27-.54-.84-.84-1.19-.64s-.5.63-.19,1.34c.4.9,1.08.81,1.08.81a1.7,1.7,0,0,1-.26,1,1.28,1.28,0,0,1-1.24.6,1.94,1.94,0,0,1-1.52-1c0-.16.2-.28.77-.28a1,1,0,0,1,.87.61c.05.1.11.09.16,0a1.3,1.3,0,0,0,0-1.06,2.67,2.67,0,0,0-.58-.63,1.55,1.55,0,0,0-.34-1.22,1.11,1.11,0,0,0-.8-.3,2,2,0,0,0-.32-.69.82.82,0,0,0-.69-.42c-.08,0-.15.06-.05.14.3.25.15.9,0,1.13l-.39.43s-.58-.63-1-1a1.53,1.53,0,0,0-1.25-.61,1,1,0,0,0-.91.56,1.46,1.46,0,0,1,1.14.31c.35.27,1.27,1.14,1.27,1.14-.09,1.25.32,2.16,1.52,2.28l.79,1h30.81l.77-1c1.21-.12,1.63-1,1.54-2.27,0,0,.9-.88,1.26-1.14a1.42,1.42,0,0,1,1.14-.31A.93.93,0,0,0,220,110.47Zm-35.14,2.94-.18.26s.31.6.2.66a1.4,1.4,0,0,1-1-.48,3.2,3.2,0,0,1-.42-1.54s.27.29.63.7l.21.24a.84.84,0,0,1,.4-.2.87.87,0,0,1,.45.07,2.87,2.87,0,0,0-.31.29Zm6.53-2.24c-.14.11-.62-.64-.62-.64a3.62,3.62,0,0,0-.47,0,5.69,5.69,0,0,0-.59.16,1.28,1.28,0,0,1,.48-.62,1.11,1.11,0,0,1,.39-.16s-.08-.07-.22-.59a4.33,4.33,0,0,1-.07-1.52,4.66,4.66,0,0,1,.85,1.26,1.66,1.66,0,0,1,.19.62,1.3,1.3,0,0,1,.39-.09,1.14,1.14,0,0,1,.76.21,2.78,2.78,0,0,0-.57.21,3.77,3.77,0,0,0-.39.26s.05.88-.13.88Zm9.39-1.28h0c-.25,0-.43-.9-.43-.9a2.15,2.15,0,0,0-.5-.12q-.35,0-.69,0a1.31,1.31,0,0,1,.72-.47,1.44,1.44,0,0,1,.46,0s-.05,0,0-.55a4.18,4.18,0,0,1,.44-1.5h0a4.18,4.18,0,0,1,.44,1.5c0,.56,0,.55,0,.55a1.38,1.38,0,0,1,1.19.51,4.06,4.06,0,0,0-.7,0,2.36,2.36,0,0,0-.51.12s-.16.9-.42.9Zm9.26.41a2.65,2.65,0,0,0-.39-.26,2.86,2.86,0,0,0-.58-.21,1.25,1.25,0,0,1,.77-.25,1,1,0,0,1,.41.1s0-.08.18-.59a4.51,4.51,0,0,1,.85-1.26,4.58,4.58,0,0,1-.08,1.52,1.87,1.87,0,0,1-.2.59,1.17,1.17,0,0,1,.39.15,1.14,1.14,0,0,1,.47.63c-.2-.06-.4-.12-.6-.16a2.43,2.43,0,0,0-.47,0s-.47.74-.62.64S210.06,110.3,210.06,110.3Zm7.61,3.55a1.42,1.42,0,0,1-1,.48c-.1-.06.21-.66.21-.66l-.19-.26c-.1-.1-.2-.2-.31-.29a1.41,1.41,0,0,1,.5-.07.56.56,0,0,1,.38.19,2,2,0,0,1,.17-.23c.36-.41.63-.69.63-.69a3.31,3.31,0,0,1-.42,1.53Z"/><path id="Trazado_130" data-name="Trazado 130" class="cls-4" d="M121.92,182.45l-.24.18a.32.32,0,0,0-.27-.16s-.09,0-.2.11a6.3,6.3,0,0,1-4.32,1.5c-3.57,0-5.88-2.36-5.88-5.5,0-2.64,2.24-5,5.8-5a8.89,8.89,0,0,1,2.94.53c.57.2.91.38,1.16.48a.32.32,0,0,0,.16,0,.29.29,0,0,0,.26-.14l.25.14-1.11,2-.23-.14a.34.34,0,0,0,.05-.17.24.24,0,0,0,0-.15,4.84,4.84,0,0,0-3.53-1.28,3.75,3.75,0,0,0-4,3.87c0,2.53,1.93,4,4.39,4a4.42,4.42,0,0,0,3.25-1.49.52.52,0,0,0,.11-.32.32.32,0,0,0-.07-.19l.25-.16,1.32,1.85"/><path id="Trazado_131" data-name="Trazado 131" class="cls-4" d="M142.6,183.26c0,.28,0,.47.33.47V184h-2.25v-.22c.36,0,.35-.2.35-.48v-3.9h-6.61v3.9c0,.28,0,.48.33.48V184h-2.23v-.23c.35,0,.34-.2.34-.48v-8.87c0-.27,0-.46-.34-.46v-.24h2.23v.24c-.34,0-.33.19-.33.46v3.67H141v-3.67c0-.27,0-.46-.35-.46v-.24h2.25v.24c-.35,0-.33.19-.33.46v8.87"/><path id="Trazado_132" data-name="Trazado 132" class="cls-4" d="M155.48,181.23l-.66,1.56a3.21,3.21,0,0,0-.27.73c0,.13.11.21.25.21V184h-2.17v-.22c.32,0,.32-.07.71-.92l3.51-7.9.52-1.23H159s.36.84.56,1.29l3.45,7.77c.41.92.47,1,.73,1V184h-2.42v-.22c.21,0,.33-.11.33-.28s0-.2-.23-.67l-.68-1.56Zm.62-1.29h4.05l-2-4.61-2,4.61"/><path id="Trazado_133" data-name="Trazado 133" class="cls-4" d="M217,181.23l-.66,1.56a3.21,3.21,0,0,0-.27.73c0,.13.11.21.26.21V184h-2.17v-.23c.31,0,.31-.06.7-.92l3.51-7.89c.2-.45.53-1.23.53-1.23h1.64s.35.84.56,1.28l3.44,7.78c.41.92.45,1,.74,1V184h-2.43v-.23c.21,0,.32-.1.32-.28s0-.19-.23-.66l-.68-1.56Zm.62-1.29h4l-2-4.61-2,4.61"/><path id="Trazado_134" data-name="Trazado 134" class="cls-4" d="M173.58,184v-.23c.35,0,.37-.19.37-.47v-8.88c0-.24,0-.45-.37-.45v-.25h2.31l3.38,7,3.5-7h2.45v.25c-.32,0-.37.3-.37.45v8.88c0,.28,0,.48.41.48V184h-2.39v-.23c.39,0,.41-.2.41-.48V175.5h0l-4,8.27-4-8.27h0v7.76c0,.29,0,.47.35.47V184h-2"/><path id="Trazado_135" data-name="Trazado 135" class="cls-4" d="M196.86,174.39c0-.27,0-.46-.34-.46v-.24h5.78a9,9,0,0,1,1.79.15,2.52,2.52,0,0,1,2.1,2.6,2.82,2.82,0,0,1-1.79,2.77,5.87,5.87,0,0,1-2,.3h-3.93v3.75c0,.27,0,.47.34.47V184h-2.25v-.22c.36,0,.34-.2.34-.48v-8.87Zm1.57,3.79h4.15c1.62,0,2-.8,2-1.68s-.35-1.51-2-1.51h-4.15v3.19"/><path id="Trazado_136" data-name="Trazado 136" class="cls-4" d="M241,180.1c-.41,0-.64,0-.64.35h-.24v-2h.23c0,.43.32.37.65.37h3.6v3.41a7.25,7.25,0,0,1-4.92,1.86c-3.21,0-5.78-2.14-5.78-5.23a5.3,5.3,0,0,1,5.59-5.27c3.21,0,4.16,1.33,4.6,1.32a.24.24,0,0,0,.24-.12l.22.16-1.16,1.75-.22-.15s0,0,0-.09c0-.45-1.58-1.55-3.68-1.55a3.69,3.69,0,0,0-4,3.91,3.83,3.83,0,0,0,3.71,3.95h.22a5.23,5.23,0,0,0,3.72-1.17v-1.49H241"/><path id="Trazado_137" data-name="Trazado 137" class="cls-4" d="M264.34,181.39h0v-7c0-.28,0-.47-.33-.47v-.23h2v.23c-.35,0-.33.19-.33.47V184h-1.16s-.55-.68-.6-.76l-6.63-7.91v8c0,.28,0,.47.37.47V184h-2.09v-.22c.33,0,.37-.2.37-.48v-8.87c0-.27,0-.46-.37-.46v-.24h2.26s.53.62.61.7l5.86,7"/><path id="Trazado_138" data-name="Trazado 138" class="cls-4" d="M277.49,174.39c0-.27-.05-.46-.4-.46v-.24h8.74v1.74h-.23c0-.34-.17-.44-.73-.44h-5.82v3.08h3.79c.45,0,.76,0,.76-.43h.22v2.18h-.22c0-.39-.2-.45-.72-.45h-3.83v3.32h6.23c.52,0,.77,0,.77-.45h.22V184h-9.18v-.24c.35,0,.4-.19.4-.47v-8.87"/><path id="Trazado_139" data-name="Trazado 139" class="cls-4" d="M200.81,197.59l1.84,5.64h5.94c-1.05.75-4.81,3.49-4.81,3.49s1.43,4.43,1.84,5.65c-1.05-.75-4.81-3.49-4.81-3.49l-4.8,3.49,1.82-5.65-4.8-3.49H199l1.2-3.63s.37-1.19.65-2"/><path id="Trazado_140" data-name="Trazado 140" class="cls-4" d="M136.77,117.16h5.09v.93h-4v1.28h3.44v.93h-3.44v2.39h-1.07v-5.53"/><path id="Trazado_141" data-name="Trazado 141" class="cls-4" d="M147.57,117c2.43,0,3.29,1.43,3.29,2.94,0,1.15-.68,2.86-3.29,2.86s-3.3-1.71-3.3-2.86C144.27,118.45,145.14,117,147.57,117Zm2.21,2.88c0-1.33-.95-2-2.21-2s-2.22.62-2.22,2c0,1.57,1.18,2,2.22,2a1.94,1.94,0,0,0,2.21-2"/><path id="Trazado_142" data-name="Trazado 142" class="cls-4" d="M153.75,117.16h1.14l3.71,4v-4h1v5.53h-1l-3.86-4.14v4.14h-1v-5.53"/><path id="Trazado_143" data-name="Trazado 143" class="cls-4" d="M162.88,117.16h2.66c1.76,0,3.15.73,3.15,2.73s-1.28,2.8-3.09,2.8h-2.73v-5.53Zm2.18,4.6c1.83,0,2.55-.56,2.55-1.86s-.75-1.82-2.55-1.82H164v3.67h1.1"/><path id="Trazado_144" data-name="Trazado 144" class="cls-4" d="M171.59,117.16h5v.93h-3.88v1.28H176v.93h-3.33v1.46h4v.93h-5v-5.53Zm2.46-1.49h1.07l-1.21,1.08h-.68l.82-1.08"/><path id="Trazado_145" data-name="Trazado 145" class="cls-4" d="M225.35,117.16h4.76v.93h-3.73v1.28h3.21v.93h-3.21v1.46h3.82v.92h-4.85v-5.52"/><path id="Trazado_146" data-name="Trazado 146" class="cls-4" d="M233,117.16h1.1l3.55,4v-4h1v5.52h-.95L234,118.55v4.13h-1v-5.52"/><path id="Trazado_147" data-name="Trazado 147" class="cls-4" d="M245.06,117.81a2.1,2.1,0,0,0,1.48-.79h.54v5.66h-.92v-4.25h-1.1v-.62"/><path id="Trazado_148" data-name="Trazado 148" class="cls-4" d="M253.59,118H250.2v-.86h4.61v.49l-2.68,5H251l2.59-4.67"/><path id="Trazado_149" data-name="Trazado 149" class="cls-4" d="M259.72,117.16h1v3.52h.69v.83h-.69v1.17h-.91v-1.17H256.5v-.83l3.22-3.52Zm.1,1-2.28,2.49h2.28v-2.49"/><path id="Trazado_150" data-name="Trazado 150" class="cls-4" d="M265.41,119.35h.77c.79,0,1.3-.16,1.3-.73s-.53-.73-1.24-.73c-1.12,0-1.38.53-1.38.69h-.93c0-.37.28-1.56,2.29-1.56,1.44,0,2.21.61,2.21,1.56a1.17,1.17,0,0,1-.74,1.16,1.39,1.39,0,0,1,.88,1.34c0,1-.79,1.74-2.34,1.74-2,0-2.38-1.18-2.41-1.75h1a1.22,1.22,0,0,0,1.34.89c.81,0,1.45-.28,1.46-1,0-.35-.27-.76-1.2-.76h-1v-.86"/><path id="Trazado_151" data-name="Trazado 151" class="cls-4" d="M96.39,157.64c-3.6,0-5.78-4-5.78-9.73s2.18-9.73,5.78-9.73,5.78,4,5.78,9.73S100,157.64,96.39,157.64Zm0-21.36c-5.61,0-10.16,5.19-10.16,11.59s4.55,11.59,10.16,11.59,10.17-5.19,10.17-11.59S102,136.28,96.37,136.28Z"/><path id="Trazado_152" data-name="Trazado 152" class="cls-4" d="M146.78,136.75H131.4a.63.63,0,0,0-.73.52.13.13,0,0,0,0,.06c0,.15-.78,3.78-.87,4.2.2-.17,2.64-2.3,2.81-2.46a.86.86,0,0,1,.67-.23h3.91v18L134.87,159h8.46L141,156.83v-18h3.89a.91.91,0,0,1,.72.24l2.77,2.3c0-.17-.8-3.68-.89-4a.66.66,0,0,0-.72-.58Z"/><path id="Trazado_153" data-name="Trazado 153" class="cls-4" d="M78.89,138.89l2.23-2.15h-5a1.23,1.23,0,0,0-1.26.93c-.19.45-3.87,8.78-4.71,10.72-.32-.74-4.44-10-4.79-10.73-.28-.59-.46-.93-1.3-.93H59c.33.28,1.84,1.74,2.29,2.17,0,.6-1.48,16.65-1.58,17.94L57.34,159H64.4l-2.31-2.12c0-.34,1.23-13.87,1.26-14.47.17.46,5.64,12.63,5.75,12.88a.43.43,0,0,0,.56.24.41.41,0,0,0,.24-.24c.07-.18,5.25-12.13,5.54-12.87.08.63,1.16,13.87,1.19,14.44L74.3,159h8.44l-2.32-2.15c0-.5-1.44-16.9-1.53-17.93Z"/><path id="Trazado_154" data-name="Trazado 154" class="cls-4" d="M122.14,156.91h-5.78v-8.46h4.58s2.09,1.68,2.26,1.84v-5.83L121,146.31h-4.57v-7.47h5.37a1.18,1.18,0,0,1,.75.2l2.88,2.1c0-.08-1.24-3.68-1.31-3.9-.12-.39-.26-.5-.83-.5h-13s2.16,2,2.32,2.1v18L110.24,159h14.14a.7.7,0,0,0,.78-.51c0-.1,1.28-4,1.36-4.25l-3.46,2.45a1.49,1.49,0,0,1-.92.25Zm-6.38-21.47a1.57,1.57,0,1,0-1.62-1.57,1.6,1.6,0,0,0,1.62,1.57Zm4.78,0a1.57,1.57,0,1,0-1.62-1.57,1.6,1.6,0,0,0,1.62,1.57Z"/><path id="Trazado_155" data-name="Trazado 155" class="cls-4" d="M216.68,136.75l2.32,2.09v7.3h-7.73v-7.3l2.31-2.09h-8.42s2,1.74,2.32,2.09v18s-1.85,1.68-2.32,2.12h8.41l-2.31-2.12v-8.49H219v8.49L216.69,159h8.39l-2.3-2.12v-18l2.3-2.09Z"/><path id="Trazado_156" data-name="Trazado 156" class="cls-4" d="M192.89,138.13c3.75,0,5.05,4.25,5.31,5.67.46-.94,2.58-5.56,2.77-6-.3.09-1.56.42-2.24.54a8.85,8.85,0,0,0-5.87-2.1c-5.61,0-10.16,5.19-10.16,11.59s4,11.59,10,11.59c4.58,0,7.28-2.8,7.36-5.5a2.81,2.81,0,0,0-1.67-2.83c-.24,2.78-1.8,6.46-5.55,6.46-3.6,0-5.74-4-5.74-9.69s2.18-9.72,5.79-9.72Z"/><path id="Trazado_157" data-name="Trazado 157" class="cls-4" d="M309.4,157.64c-3.6,0-5.91-4-5.91-9.73s2.31-9.73,5.91-9.73,5.91,4,5.91,9.73S313,157.64,309.4,157.64Zm0-21.36c-5.61,0-10.16,5.19-10.16,11.59s4.55,11.59,10.16,11.59,10.18-5.19,10.18-11.59S315,136.28,309.38,136.28Z"/><path id="Trazado_158" data-name="Trazado 158" class="cls-4" d="M164.27,157.32a3.93,3.93,0,0,1-4.13-4.2,3.87,3.87,0,0,1,1.23-3,63,63,0,0,0,5.28,6.59,4.36,4.36,0,0,1-2.38.65Zm5.61-1.44a6.52,6.52,0,0,0,1.83-4.38,3.73,3.73,0,0,0-1.35-3.1.73.73,0,0,0-1,.07l-.06.07c-.08.1-.78.84-1.26,1.39a2.77,2.77,0,0,1,1.81,2.6,3.22,3.22,0,0,1-.81,2.33c-1.17-1.29-7.28-7.89-7.28-10.89a2,2,0,0,1,1.78-2.17h.14a2.12,2.12,0,0,1,2,2.23h0a3.52,3.52,0,0,1-1.83,3.27c.14.21.41.6.57.82,1.14-.53,3.8-1.59,3.8-4.1,0-1.5-1.47-3.4-4.45-3.4-2,0-4.65,1.57-4.65,4.25a8.19,8.19,0,0,0,1.6,4.08c-1.3.75-3.72,2.49-3.72,5.28,0,3,2.55,5.08,5.83,5.08a7.25,7.25,0,0,0,4.92-1.49c.41.4.67.72,1.42,1.37l4.45,0c.11-.16.68-.83.89-1.13-2.38.2-3.31-.82-4.59-2.2Z"/><path id="Trazado_159" data-name="Trazado 159" class="cls-4" d="M235.05,149.9l2.64-8.68,2.71,8.68Zm5.16-13.15h-3.6l-6.32,20.1L227.93,159h7.2l-2.21-2.09,1.58-5.3,3.26.8,3.16-.8,1.64,5.3L240.44,159H249l-2.37-2.12-6.42-20.1Z"/><path id="Trazado_160" data-name="Trazado 160" class="cls-4" d="M265.77,138.85v11.08s-8.27-12.36-8.42-12.57a1.37,1.37,0,0,0-1.23-.61h-4.79l2.31,2.11v18L251.31,159h7.09l-2.34-2.15V142.25l11.2,16.87a.52.52,0,0,0,.72.15.55.55,0,0,0,.23-.38v-20l2.32-2.1h-7.08l2.32,2.1Z"/><path id="Trazado_161" data-name="Trazado 161" class="cls-4" d="M335.58,136.75l2.32,2.1v11.08s-8.27-12.36-8.42-12.57a1.39,1.39,0,0,0-1.24-.61h-4.79l2.3,2.11v18L323.44,159h7.07l-2.32-2.15V142.25l11.21,16.88a.5.5,0,0,0,.71.14.51.51,0,0,0,.23-.37V138.85l2.33-2.1Z"/><path id="Trazado_162" data-name="Trazado 162" class="cls-4" d="M284,157c-.67,0-2,.06-2.89,0,0-.64,0-18.19,0-18.19.76-.08,2.44-.07,2.77-.07,3.24,0,6.3,2.57,6.3,9.17S287.32,157,284,157Zm2.83-19.81a12,12,0,0,0-3.42-.45h-8.46l2.3,2.1v18.06L274.91,159h8.57a13.25,13.25,0,0,0,3.76-.49,10.76,10.76,0,0,0,7.17-10.33c0-4.49-2.53-9.45-7.6-11"/><path id="Trazado_163" data-name="Trazado 163" class="cls-4" d="M216.09,123.48h-30.6a.6.6,0,0,1,0-1.19H216.1a.6.6,0,0,1,.62.58.59.59,0,0,1-.58.61h0"/><path id="Trazado_164" data-name="Trazado 164" class="cls-4" d="M216.09,117.58h0a.6.6,0,0,0,0-1.19H185.49a.6.6,0,1,0,0,1.19h30.6"/><path id="Trazado_165" data-name="Trazado 165" class="cls-4" d="M201.83,104.58a3.53,3.53,0,0,1,.92,0,6.68,6.68,0,0,0,0-4.1,5.3,5.3,0,0,0,1.85.28H205c1.16,0,2.93-.06,3.85,1.29a3.48,3.48,0,0,1,0,3.23,3.59,3.59,0,0,0-.37,1.61,1.59,1.59,0,0,1,.76.54,4,4,0,0,1,.47-2,3.92,3.92,0,0,0-.07-3.79c-1.22-1.82-3.41-1.71-4.82-1.74h-.1a6.44,6.44,0,0,1-2.74-.5h-.38a7.36,7.36,0,0,1,.25,5.17Zm-9.45,2.88a1.59,1.59,0,0,1,.76-.54,3.71,3.71,0,0,0-.36-1.61,3.37,3.37,0,0,1,0-3.22c.91-1.36,2.69-1.28,3.84-1.3H197a5.3,5.3,0,0,0,1.85-.28,6.75,6.75,0,0,0,0,4.1,3.62,3.62,0,0,1,.93,0,7.38,7.38,0,0,1,.23-5.16h-.37a6.3,6.3,0,0,1-2.74.51h-.11c-1.41,0-3.6-.08-4.82,1.74a4,4,0,0,0-.06,3.79,4,4,0,0,1,.47,2Z"/><path id="Trazado_166" data-name="Trazado 166" class="cls-4" d="M188.07,103l.06,0a1.24,1.24,0,0,1,.35-.9,6.43,6.43,0,0,0-4.15,1.74c-2,1.91-1.36,4.8-.83,6.43,0,.11.07.22.11.33a1.06,1.06,0,0,1,.72-.76c0-.1,0-.12-.14-.44a7.31,7.31,0,0,1-.3-2.18,4.27,4.27,0,0,1,4.18-4.2Zm29.22.82a6.53,6.53,0,0,0-4.16-1.74,1.17,1.17,0,0,1,.34.9l.07,0a4.3,4.3,0,0,1,4.19,4.2,8.44,8.44,0,0,1-.31,2.18,4.39,4.39,0,0,1-.15.44,1.06,1.06,0,0,1,.73.76l.11-.33c.53-1.63,1.14-4.52-.82-6.43Z"/><path id="Trazado_167" data-name="Trazado 167" class="cls-4" d="M182.33,106.6a1.08,1.08,0,1,1-1.08-1.08h0a1.08,1.08,0,0,1,1.07,1.08m.33,2.51a1,1,0,1,0-1,1,1,1,0,0,0,1-1m.43-5a1,1,0,1,0-1,1,1,1,0,0,0,1-1h0m1.61-1.78a.93.93,0,1,0-.93.93.92.92,0,0,0,.93-.93h0m2.05-1a.89.89,0,0,0-1.78,0,.89.89,0,0,0,.89.89h0a.89.89,0,0,0,.89-.89h0m2.15-.5a.85.85,0,1,0-1.7,0,.86.86,0,0,0,.85.86h0a.86.86,0,0,0,.85-.86"/><path id="Trazado_168" data-name="Trazado 168" class="cls-4" d="M220.86,106.76l0,0,0,0s0,0,0,0,0,0,0,0m-1-2.9s0,.06,0,.06a.07.07,0,0,0,0-.06.07.07,0,0,0,0,0s0,0,0,0m-4.51-2.94s0,0,0,0h0a0,0,0,0,0,0,0s0,0,0,0,0,0,0,0h0m3.9,5.68a1.08,1.08,0,1,0,1.08-1.08h0a1.08,1.08,0,0,0-1.08,1.08h0m-.33,2.51a1,1,0,1,0,1-1,1,1,0,0,0-1,1h0m-.42-5a1,1,0,1,0,1-1,1,1,0,0,0-1,1m-1.62-1.78a.93.93,0,1,0,.94-.92h0a.93.93,0,0,0-.93.92h0m-2-1a.89.89,0,1,0,.89-.9.88.88,0,0,0-.89.9h0m-2.15-.5a.85.85,0,0,0,.85.85.83.83,0,0,0,.85-.84.86.86,0,0,0-.85-.86h0a.84.84,0,0,0-.85.84h0M218,102s0,0,0,0h0s0,0,0,0a0,0,0,0,0-.06,0h0"/><path id="Trazado_169" data-name="Trazado 169" class="cls-4" d="M197.93,99.34a.58.58,0,1,0-.58-.57A.57.57,0,0,0,197.93,99.34Zm-7.41,6.94a1,1,0,1,0-1.27-.64v0a1,1,0,0,0,1.25.61h0m.35-3.24a1,1,0,1,0-1,1h0a1,1,0,0,0,1-1m.81-2.15a1,1,0,1,0-1.92,0,1,1,0,0,0,1.92,0h0m1.61-1.44a.92.92,0,1,0-.92.91h0a.92.92,0,0,0,.92-.91m1.85-.55a.79.79,0,0,0-.8-.78.79.79,0,1,0,.8.79h0m1.82-.13a.71.71,0,1,0-.72.71h0a.71.71,0,0,0,.7-.71"/><path id="Trazado_170" data-name="Trazado 170" class="cls-4" d="M203.07,98.77a.6.6,0,1,0,.62-.58h0a.6.6,0,0,0-.6.58m8,7.51a1,1,0,1,0,.75-1.86,1,1,0,0,0-1.3.55l0,0a1,1,0,0,0,.57,1.28m-.35-3.24a1,1,0,1,0,1-1h0a1,1,0,0,0-1,1h0m-.81-2.15a1,1,0,1,0,1.92,0h0a1,1,0,0,0-1.92,0m-1.61-1.44a.92.92,0,1,0,1.83,0h0a.92.92,0,0,0-1.83,0m-1.85-.55a.78.78,0,0,0,.79.78.79.79,0,0,0,0-1.57.78.78,0,0,0-.78.78h0m-1.83-.13a.71.71,0,1,0,.72-.71.71.71,0,0,0-.72.71h0"/><path id="Trazado_171" data-name="Trazado 171" class="cls-4" d="M201.56,101.77a.75.75,0,1,0-1.49,0,.75.75,0,0,0,.73.73.76.76,0,0,0,.76-.76m.12,2a.87.87,0,1,0-.87.87.87.87,0,0,0,.87-.87h0m-.26-3.64a.62.62,0,0,0-.62-.62h0a.62.62,0,0,0-.62.62.63.63,0,0,0,.62.62.62.62,0,0,0,.62-.62"/><path id="Trazado_172" data-name="Trazado 172" class="cls-4" d="M199.72,87.23h2.17l-.48,1.87,1.64-.54v2.2l-1.66-.48v2h-1.2v-2l-1.64.48v-2.2l1.66.54-.48-1.87"/><path id="Trazado_173" data-name="Trazado 173" class="cls-4" d="M200.19,92.29v2.53a15.26,15.26,0,0,0-2.61.32,3.21,3.21,0,0,1,2.61-2.85"/><path id="Trazado_174" data-name="Trazado 174" class="cls-4" d="M201.4,92.29A3.24,3.24,0,0,1,204,95.14a15.62,15.62,0,0,0-2.63-.32V92.29"/><path id="Trazado_175" data-name="Trazado 175" class="cls-4" d="M204,96.22a3.24,3.24,0,0,1-6.3,0,14.55,14.55,0,0,1,6.3,0"/><path id="Trazado_176" data-name="Trazado 176" class="cls-4" d="M185.73,118.16v3.56h30.16v-3.56Zm2.92,2.47h-2v-1.37h2Zm3.31.19-1.82-.87,1.82-.87,1.83.87Zm4.12.06a.94.94,0,0,1-.87-1,.93.93,0,0,1,1.86.06.94.94,0,0,1-1,.92h0Zm6.75-.25h-4.05v-1.37h4.05Zm2.69.25a.94.94,0,0,1-1-.88.92.92,0,0,1,.88-1h.1a.93.93,0,0,1,.13,1.86Zm4.15-.06-1.81-.87,1.81-.87,1.83.87Zm5.31-.19h-2v-1.37h2Z"/></g></g></g></svg>