<svg id="Capa_1" data-name="Capa 1" xmlns="http://www.w3.org/2000/svg" xmlns:xlink="http://www.w3.org/1999/xlink" viewBox="0 0 400 300"><defs><style>.cls-1{fill:none;}.cls-2{fill:#fff;}.cls-3{clip-path:url(#clip-path);}.cls-4,.cls-6{fill:#b47333;}.cls-4{stroke:#b47333;stroke-width:0.83px;}.cls-5{fill:#161615;}.cls-6{fill-rule:evenodd;}.cls-7{fill:#a19590;}</style><clipPath id="clip-path"><rect class="cls-1" x="64" y="48" width="272" height="204"/></clipPath></defs><title>7</title><rect class="cls-2" width="400" height="300"/><g class="cls-3"><g id="CHEVAL_DES_ANDES" data-name="CHEVAL DES ANDES"><rect id="Rectángulo_1" data-name="Rectángulo 1" class="cls-1" x="64" y="48" width="272" height="204"/><g id="Grupo_72" data-name="Grupo 72"><g id="Grupo_66" data-name="Grupo 66"><g id="Grupo_62" data-name="Grupo 62"><g id="Grupo_60" data-name="Grupo 60"><path id="Trazado_177" data-name="Trazado 177" class="cls-4" d="M244,97.23a6.26,6.26,0,0,1,2.32,2.25c.13,6.47,4.87,5,6.69,9.9-.06,1.49.57,1.63.76,2.44a2.69,2.69,0,0,1-1.18-2.38c-1.87-1.49-2.34-4-4.57-6.2,0,0-.51-4.75-3-4.88-3.87-.2-4.86-4.89-7.71-5.23V93C239.79,93,241.85,95.84,244,97.23Z"/><path id="Trazado_178" data-name="Trazado 178" class="cls-4" d="M166.85,98.9c6.21,4.13,4.3-.36,9.85,2.69,6.86,4.07,15.83,7.34,23.4,9.51v.47c-8.54-2.64-17.84-5.08-25.75-10-7.36,2.51-9.93-7.8-17.7-3.46,0,0-7.19,6.07-13.44,8.78a98.33,98.33,0,0,1-30.1,7.36v-.47a105.87,105.87,0,0,0,22.29-5.16,48.63,48.63,0,0,0,18-11C157,94.39,161.18,94.05,166.85,98.9Z"/><path id="Trazado_179" data-name="Trazado 179" class="cls-4" d="M177.89,124.06c4.16.33,7.36,3.25,11,4.61,12,6,28,.27,40.2,5.9,7.39,3.08,15.77,6.14,22.55,6.46-1.88.31-4.72-.19-7.78-.72-9.58-2.37-18.1-7.58-28.52-8-8.47.2-17.29.66-25.2-2.05-5.51.43-7.85-8.75-16-3-10.13,7.46-21.66,14.16-33.64,15.8a43.68,43.68,0,0,1-9,.81c-.29,0,.23-.68.94-.74a29.76,29.76,0,0,0,3.53-.24c10.35-1.09,17.88-4.47,26.42-9.9C162.34,133,175.51,123.87,177.89,124.06Z"/><g id="Grupo_59" data-name="Grupo 59"><path id="Trazado_180" data-name="Trazado 180" class="cls-4" d="M249.83,112.66a3.09,3.09,0,0,0-1.87.9c-1.26,1.07-3.59-1.45-6.37-3-1.26-.73-2.45,0-4-.77-1-.42-1.12-1.15-1.2-2.31a22.59,22.59,0,0,1-3.35,5c-5.53,6.34-15.67,4.45-21.65,10.63-4.65,2.17-10,2.34-14.23,5.63a73.68,73.68,0,0,1,15.69-4.41c5.91-9.36,19.4-2.76,24.13-13.74,1.95,1.21,3.43.66,4,1,2.58,1.22,5.74,3.56,7.09,2.82a2.54,2.54,0,0,1,2-1.12h-.27Z"/></g><path id="Trazado_181" data-name="Trazado 181" class="cls-4" d="M257.69,110c-3.11,2.38-5.2,2.8-6.19,2.67a4,4,0,0,0-3.67,1c-4.15,3.82-6.86,4-8.18,4.33l0,.25a15.77,15.77,0,0,0,6.9-2.41c1.42-1,2.35-2.78,4.08-2.65,7.36,1.77,9.78-8.07,18-5.19a118.07,118.07,0,0,1,15.75,7.57,31,31,0,0,0,9.86,3.36c.49.08,1.09,0,.86,0a19.91,19.91,0,0,1-6-2.06c-6.31-3.45-17.24-8.11-18.91-9.33C265.12,104.05,262.06,106.88,257.69,110Z"/></g><g id="Grupo_61" data-name="Grupo 61"><path id="Trazado_182" data-name="Trazado 182" class="cls-4" d="M234.65,96.28a4,4,0,0,0-.59.17c-4.41-3-12.11-1.89-17.6-.71-17.68-3.79-22.75-1.69-37.32,3.48l-1.53.69c15-4.42,18.37-6.59,35.55-3.49-9,3.07-15.91,6.33-25.17,4.75l-.38.17c6.73,1.76,13.92-.28,20-2,3.14-.87,6.41-2.3,9.71-2.3a22.94,22.94,0,0,1,8.09,2l.83-.72a16.19,16.19,0,0,0-6.42-1.92c3.89-1.28,8.83-.74,12.5.48a17.79,17.79,0,0,0-3.47,2.44h0l-1,1s0,0,0,0l-7.19,6.54c-3.74,3.8-18.25,9.57-30.79,5.66-7-1.63-13.4.82-18.75,3.39-7.37-2.55-15.17-.63-24.76,2.67a109.65,109.65,0,0,1-24.18,4.93A94,94,0,0,1,106,123v.55c4.37,1,13,1.09,17.7,1,15.07-.48,30.62-11,46.17-7.33,1.14.25,3.45,1.35,4.78.19,11.89-10.59,27.51,4.36,38-5.07,1.67-.81,4-.27,5.49-1.49,5.62-4.48,10.74-11.74,17.47-14C235.57,96.7,235,96.38,234.65,96.28Z"/></g></g><g id="Grupo_63" data-name="Grupo 63"><path id="Trazado_183" data-name="Trazado 183" class="cls-5" d="M77.21,184.45a10.07,10.07,0,0,1-3.69-8.17,10.44,10.44,0,0,1,3.42-7.54c1.82-1.65,4.6-3,9.29-3a27.24,27.24,0,0,1,4.42.33,29.74,29.74,0,0,0,3.11.41c.34,0,.4.14.4.31s-.09.55-.15,1.54-.06,2.43-.09,2.84-.09.59-.28.59-.24-.2-.24-.59a3.65,3.65,0,0,0-1.28-2.81,10.9,10.9,0,0,0-6.1-1.57c-4,0-6,1.07-7,2-2.23,1.93-2.75,4.39-2.75,7.2,0,5.28,4.49,10.11,11,10.11,2.29,0,4.09-.25,5.31-1.38a5,5,0,0,0,1.13-2.32c.06-.3.12-.42.3-.42s.21.2.21.42a25,25,0,0,1-.67,3.53c-.18.53-.24.58-.79.8a19.55,19.55,0,0,1-5.49.64C82.7,187.43,79.62,186.4,77.21,184.45Z"/><path id="Trazado_184" data-name="Trazado 184" class="cls-5" d="M116.78,180.09c0,2.3,0,4.19.13,5.19.08.69.23,1.22,1,1.32a11.78,11.78,0,0,0,1.19.09c.16,0,.21.07.21.15s-.13.18-.42.18c-1.46,0-3.12-.06-3.25-.06s-1.8.06-2.59.06c-.29,0-.42,0-.42-.18s0-.15.21-.15a4.16,4.16,0,0,0,.79-.09c.53-.1.66-.63.77-1.32.13-1,.13-2.89.13-5.19v-2.51a.15.15,0,0,0-.15-.14H103.19c-.08,0-.16,0-.16.14v2.51a49.58,49.58,0,0,0,.14,5.19c.08.69.24,1.22,1,1.32a11.78,11.78,0,0,0,1.19.09c.16,0,.21.07.21.15s-.13.18-.42.18c-1.46,0-3.12-.06-3.25-.06s-1.8.06-2.59.06c-.29,0-.42,0-.42-.18s0-.15.21-.15a4.25,4.25,0,0,0,.79-.09c.53-.1.66-.63.76-1.32a49.58,49.58,0,0,0,.14-5.19v-4.21c0-3.73,0-4.4-.06-5.17s-.26-1.19-1.13-1.36a4.55,4.55,0,0,0-.9-.07c-.11,0-.21-.05-.21-.14s.13-.2.42-.2c1.19,0,2.86.07,3,.07s1.79-.07,2.59-.07c.29,0,.42.05.42.2s-.11.14-.21.14a3.51,3.51,0,0,0-.66.07c-.71.12-.93.52-1,1.36s0,1.44,0,5.17v.5a.13.13,0,0,0,.15.15H114.4c.08,0,.16,0,.16-.15v-.5c0-3.73,0-4.4-.06-5.17s-.26-1.19-1.13-1.36a4.55,4.55,0,0,0-.9-.07c-.11,0-.21-.05-.21-.14s.14-.2.42-.2c1.19,0,2.85.07,3,.07s1.79-.07,2.59-.07c.29,0,.42.05.42.2s-.11.14-.21.14a3.7,3.7,0,0,0-.66.07c-.72.12-.93.52-1,1.36s0,1.44,0,5.17Z"/><path id="Trazado_185" data-name="Trazado 185" class="cls-5" d="M126.18,175.88c0-3.73,0-4.4-.05-5.17s-.26-1.19-1.13-1.36a4.59,4.59,0,0,0-.91-.07c-.1,0-.2-.05-.2-.14s.13-.2.42-.2c1.19,0,2.86.07,3,.07s5.44,0,6,0a7.35,7.35,0,0,0,1.14-.12c.13,0,.23-.12.36-.12s.11.1.11.22-.13.45-.21,1.12c0,.24-.08,1.29-.13,1.58,0,.12-.08.26-.19.26s-.21-.11-.21-.3a2.34,2.34,0,0,0-.15-.87c-.19-.38-.46-.67-1.88-.81-.45,0-3.33-.08-3.62-.08-.11,0-.16.08-.16.25v6.59c0,.17,0,.24.16.24.34,0,3.59,0,4.2,0s1-.1,1.24-.34.29-.31.4-.31.13.05.13.19-.13.55-.21,1.34c-.05.48-.11,1.37-.11,1.53s0,.45-.18.45-.19-.09-.19-.21a2.1,2.1,0,0,0-.1-.79c-.11-.33-.35-.74-1.38-.83-.71-.08-3.33-.13-3.78-.13a.16.16,0,0,0-.18.14v2.14c0,.81,0,3.59,0,4.09.08,1.65.47,2,3.06,2a8.71,8.71,0,0,0,2.54-.26c.68-.26,1-.74,1.19-1.72.05-.27.1-.37.23-.37s.16.2.16.37a20.6,20.6,0,0,1-.34,2.32c-.18.62-.4.62-1.43.62-4,0-5.76-.15-6.52-.15-.06,0-.5,0-1.06,0s-1.14,0-1.53,0-.43,0-.43-.19.06-.14.21-.14a4.27,4.27,0,0,0,.8-.1c.53-.09.66-.62.76-1.31a49.58,49.58,0,0,0,.14-5.19Z"/><path id="Trazado_186" data-name="Trazado 186" class="cls-5" d="M148.69,184.11c1.54-3.21,5.08-11.55,5.66-13.28a3.16,3.16,0,0,0,.24-.9.57.57,0,0,0-.34-.55,3.44,3.44,0,0,0-1-.1c-.16,0-.29,0-.29-.14s.16-.2.58-.2c1.06,0,2.27.08,2.59.08.16,0,1.29-.08,2.06-.08.29,0,.45.05.45.18s-.1.16-.31.16a2.66,2.66,0,0,0-1.27.29c-.35.21-.74.62-1.46,2.24-.29.67-1.61,3.54-3,6.49-1.62,3.49-2.81,6.07-3.42,7.25-.73,1.42-.84,1.81-1.11,1.81s-.44-.34-1-1.48l-6.47-14.67c-.58-1.34-1-1.59-1.91-1.83a4.19,4.19,0,0,0-1-.1c-.16,0-.22-.07-.22-.17s.27-.17.7-.17c1.26,0,2.77.08,3.09.08s1.45-.08,2.45-.08c.48,0,.72.05.72.17s-.08.17-.27.17a3.38,3.38,0,0,0-1,.12.48.48,0,0,0-.34.48,8.37,8.37,0,0,0,.71,2Z"/><path id="Trazado_187" data-name="Trazado 187" class="cls-5" d="M162.09,179.11c-.08,0-.13-.05-.08-.16l2.33-6.46c.14-.36.26-.36.4,0l2.51,6.46c0,.09,0,.16-.11.16Zm-3.7,5.28c-.47,1.21-1,2.11-2.22,2.26-.21,0-.58,0-.76,0s-.24,0-.24.14.16.19.5.19c1.24,0,2.7-.07,3-.07s1.43.07,2.06.07c.24,0,.4-.05.4-.19s-.09-.14-.27-.14h-.26c-.45,0-1-.22-1-.7a5,5,0,0,1,.37-1.61l1.59-4.23a.27.27,0,0,1,.26-.19h5.68a.24.24,0,0,1,.24.15l2.46,5.88c.16.38,0,.6-.16.65s-.19.07-.19.16.3.15.8.17c1.82.05,3.75.05,4.15.05s.53-.05.53-.19-.11-.14-.27-.14a3.7,3.7,0,0,1-1-.15c-.56-.14-1.33-.52-2.27-2.65-1.62-3.64-5.77-13.52-6.17-14.43-.31-.74-.42-.86-.58-.86s-.26.15-.58.94Z"/><path id="Trazado_188" data-name="Trazado 188" class="cls-5" d="M181.31,180.14c0,3.52.1,5.05.58,5.48s1.11.55,3.17.55c1.4,0,2.56,0,3.19-.72a3.13,3.13,0,0,0,.69-1.43c0-.2.08-.32.24-.32s.16.1.16.36a14,14,0,0,1-.4,2.4c-.18.54-.26.64-1.66.64-3.81,0-5.55-.14-7.08-.14l-1.09,0c-.53,0-1.11.05-1.51.05s-.42-.05-.42-.19,0-.14.21-.14a5.17,5.17,0,0,0,.79-.1c.53-.1.67-.63.77-1.32.13-1,.13-2.89.13-5.19v-4.21c0-3.73,0-4.4-.05-5.17s-.26-1.19-1.14-1.36a5.46,5.46,0,0,0-.9-.07c-.1,0-.21-.05-.21-.14s.13-.2.43-.2c1.18,0,2.85.07,3,.07s2.06-.07,2.86-.07c.29,0,.42.05.42.2s-.11.14-.21.14a6.52,6.52,0,0,0-.88.07c-.76.12-1,.52-1,1.36s0,1.44,0,5.17Z"/><path id="Trazado_189" data-name="Trazado 189" class="cls-5" d="M244.09,185.85c.18.45,0,.69-.19.75s-.21.08-.21.19.34.17.91.19c2.11.06,4.34.06,4.79.06s.61-.06.61-.22-.12-.17-.3-.17a4.17,4.17,0,0,1-1.22-.16c-.65-.17-1.53-.61-2.63-3.06-1.85-4.2-6.64-15.6-7.1-16.65-.37-.85-.49-1-.67-1s-.31.17-.67,1.08L230.49,184c-.55,1.37-1.16,2.42-2.57,2.59-.24,0-.67.05-.88.05s-.27.06-.27.17.18.22.57.22c1.44,0,3.12-.08,3.45-.08s1.65.08,2.38.08c.28,0,.46-.06.46-.22s-.09-.17-.3-.17H233c-.52,0-1.16-.25-1.16-.8a5.43,5.43,0,0,1,.43-1.85l5.06-13.74c.15-.41.3-.41.46,0Z"/><path id="Trazado_190" data-name="Trazado 190" class="cls-5" d="M254.35,183.77c.05,2,.32,2.59,1,2.78a6.58,6.58,0,0,0,1.32.14c.14,0,.22.05.22.14s-.16.19-.48.19c-1.5,0-2.56-.07-2.81-.07s-1.34.07-2.53.07c-.26,0-.42,0-.42-.19s.08-.14.2-.14a4.4,4.4,0,0,0,1.09-.14c.66-.17.79-.87.79-3l0-13.71c0-.93.08-1.19.29-1.19s.66.53.93.76c.39.41,4.33,4.26,8.4,8.21,2.62,2.54,5.5,5.46,6.34,6.24l-.29-12.15c0-1.55-.2-2.08-1-2.26a6.88,6.88,0,0,0-1.29-.13c-.18,0-.21-.07-.21-.16s.21-.17.53-.17c1.19,0,2.46.07,2.75.07s1.16-.07,2.25-.07c.28,0,.47,0,.47.17s-.11.16-.29.16a2.73,2.73,0,0,0-.64.07c-.87.17-1,.7-1,2.13l0,14c0,1.58-.05,1.7-.23,1.7s-.54-.27-1.93-1.53c-.3-.24-4.1-3.76-6.9-6.49-3.07-3-6.05-6-6.9-6.86Z"/><path id="Trazado_191" data-name="Trazado 191" class="cls-5" d="M280.88,175.5c0-1.84,0-4.29,0-5.1a.43.43,0,0,1,.32-.47,7.58,7.58,0,0,1,1.71-.17c3.14,0,6.16.33,8.65,2.7a8.14,8.14,0,0,1,2.53,6,7.91,7.91,0,0,1-2.11,5.72,9.44,9.44,0,0,1-6.29,2.22c-3.12,0-4.15-.5-4.49-1a4.52,4.52,0,0,1-.29-1.82c0-.46-.06-2.65-.06-5.19Zm-2.21,4.59c0,1.73,0,3.47-.14,5.19-.11.69-.23,1.22-.76,1.32a5.3,5.3,0,0,1-.8.1c-.16,0-.21.06-.21.14s.13.18.42.18c.8,0,2.46-.06,2.59-.06s3.6.28,5.87.28c4.49,0,6.87-1.67,8-2.74a9.35,9.35,0,0,0,2.85-6.75,8.11,8.11,0,0,0-2.56-6.08c-3.14-2.94-8-2.73-10.6-2.73-1.58,0-3.24.07-3.57.07-.12,0-1.79-.07-3-.07-.29,0-.42.05-.42.2s.11.14.21.14a4.55,4.55,0,0,1,.9.07c.87.17,1.08.55,1.13,1.36s.06,1.44.06,5.17Z"/><path id="Trazado_192" data-name="Trazado 192" class="cls-5" d="M302.64,175.88c0-3.73,0-4.4-.05-5.17s-.27-1.19-1.14-1.36a4.55,4.55,0,0,0-.9-.07c-.11,0-.21-.05-.21-.14s.13-.2.43-.2c1.18,0,2.85.07,3,.07s5.44,0,6.05,0a7.1,7.1,0,0,0,1.13-.12c.14,0,.24-.12.38-.12s.1.1.1.22-.13.45-.21,1.12c0,.24-.08,1.29-.13,1.58,0,.12-.09.26-.19.26s-.21-.11-.21-.3a2.35,2.35,0,0,0-.16-.87c-.18-.38-.45-.67-1.87-.81-.46,0-3.33-.08-3.63-.08-.1,0-.15.08-.15.25v6.59c0,.17,0,.24.15.24.35,0,3.6,0,4.2,0s1-.1,1.24-.34.3-.31.41-.31.12.05.12.19-.12.55-.2,1.34c-.06.48-.11,1.37-.11,1.53s0,.45-.18.45-.19-.09-.19-.21a1.92,1.92,0,0,0-.11-.79c-.1-.33-.34-.74-1.37-.83-.71-.08-3.33-.13-3.78-.13a.16.16,0,0,0-.18.14v2.14c0,.81,0,3.59,0,4.09.08,1.65.47,2,3.06,2a8.68,8.68,0,0,0,2.54-.26c.69-.26,1-.74,1.19-1.72.05-.27.1-.37.24-.37s.16.2.16.37a20.64,20.64,0,0,1-.35,2.32c-.18.62-.39.62-1.42.62-4,0-5.76-.15-6.53-.15-.05,0-.5,0-1.06,0s-1.14,0-1.53,0-.42,0-.42-.19.05-.14.21-.14a4.27,4.27,0,0,0,.79-.1c.52-.09.67-.62.77-1.31.13-1.73.17-3.46.13-5.19Z"/><path id="Trazado_193" data-name="Trazado 193" class="cls-5" d="M317.06,186.72c-.37-.17-.39-.27-.39-.91,0-1.2.11-2.15.13-2.54s.08-.38.21-.38.19.07.19.26a3.78,3.78,0,0,0,.08.89c.39,1.77,2.14,2.44,3.91,2.44,2.54,0,3.78-1.65,3.78-3.18s-.77-2.61-3-4.31l-1.19-.88c-2.8-2.08-3.44-3.57-3.44-5.19,0-2.56,2.12-4.31,5.47-4.31a11.28,11.28,0,0,1,2.46.24,4.73,4.73,0,0,0,.93.12c.21,0,.26.05.26.17s-.1.91-.1,2.53c0,.39-.06.55-.19.55s-.18-.12-.21-.31a3.8,3.8,0,0,0-.35-1.19c-.15-.27-.87-1.27-3.3-1.27-1.82,0-3.25,1-3.25,2.77,0,1.37.74,2.18,3.23,4l.73.53c3.12,2.22,3.86,3.71,3.86,5.62a4.78,4.78,0,0,1-2.24,4,7.47,7.47,0,0,1-4,1A9,9,0,0,1,317.06,186.72Z"/></g><g id="Grupo_64" data-name="Grupo 64"><path id="Trazado_194" data-name="Trazado 194" class="cls-6" d="M256.09,170.83a4.22,4.22,0,0,1,.86.17c.28,0,.23-.11.53,0a1,1,0,0,1,0,.24c-.47.23-.33-.05-.65,0s-.32.24-.48.29h-1c-.1,0-.21.18-.3.21-.25.08-.4-.13-.57-.08a3.31,3.31,0,0,1-.47.29l-1,.17c-1.26.33-2.84.55-4.08.91l-.87.12c-.84.26-1.67.4-2.52.67a3.88,3.88,0,0,1-1.42.33.54.54,0,0,1-.05-.21,7.89,7.89,0,0,0,.91-.37l.22-.25.43-.08c.24-.08.54-.22.78-.29.39-.11.66-.07,1.05-.17s1-.33,1.47-.46c.21-.06.4.07.52.09l.91-.13c.25-.07.44-.34.65-.37s.3.19.57.12.47-.15.73-.2c.07-.12.06-.25.14-.38s.33-.19.43-.29h.39c.11.17.17.22.48.21s.42,0,.65-.08.4-.07.56-.13.27-.23.65-.25C255.77,171.16,255.93,171,256.09,170.83Z"/><path id="Trazado_195" data-name="Trazado 195" class="cls-6" d="M259.51,171.54v.16h-.08a8.77,8.77,0,0,1-1.61.21.89.89,0,0,1-.08-.17.87.87,0,0,0,.21-.17C258.65,171.58,259,171.54,259.51,171.54Z"/><path id="Trazado_196" data-name="Trazado 196" class="cls-6" d="M256,171.62c.25,0,.5.17.7.21s.53-.09.82-.09a.53.53,0,0,1,0,.17.46.46,0,0,1-.3.08c-.21.16-.43,0-.69,0s-.42.2-.61.25l-.91,0a.69.69,0,0,1-.05-.24C255.27,171.85,255.7,171.83,256,171.62Z"/><path id="Trazado_197" data-name="Trazado 197" class="cls-6" d="M254.44,172.16h.26a.54.54,0,0,1,.09.25.62.62,0,0,1-.35.08C254.35,172.34,254.35,172.31,254.44,172.16Z"/><path id="Trazado_198" data-name="Trazado 198" class="cls-6" d="M254,172.28c.09,0,.09,0,.13,0s0,.07,0,.17a.73.73,0,0,1-.25,0l0-.12h0C253.91,172.32,253.91,172.35,254,172.28Z"/><path id="Trazado_199" data-name="Trazado 199" class="cls-6" d="M253,172.37l.57,0a.94.94,0,0,1,0,.16,6.32,6.32,0,0,1-2.43.46v-.25a.7.7,0,0,1,.35-.12C251.86,172.45,252.6,172.62,253,172.37Z"/><path id="Trazado_200" data-name="Trazado 200" class="cls-6" d="M250.66,172.82a.73.73,0,0,1,.35.09c0,.07,0,0,0,.08-.13.24-.22.06-.44.12s-1.4.71-1.51.17a7.15,7.15,0,0,1,1-.38C250.39,172.8,250.46,173,250.66,172.82Z"/><path id="Trazado_201" data-name="Trazado 201" class="cls-6" d="M248.36,173.36h.35l.09.09c0,.07,0,0-.05.08-.08.21-.29.22-.6.2a1,1,0,0,1-.05-.16s0,0,.05-.09A.55.55,0,0,0,248.36,173.36Z"/><path id="Trazado_202" data-name="Trazado 202" class="cls-6" d="M245.81,174h.6a.8.8,0,0,1,.05.21,1.43,1.43,0,0,1-.79.17.49.49,0,0,1-.08-.21s0,0,0-.08A.31.31,0,0,0,245.81,174Z"/><path id="Trazado_203" data-name="Trazado 203" class="cls-6" d="M243.68,174a1,1,0,0,1,.35,0v.08a.51.51,0,0,1-.39.12C243.6,174.13,243.61,174.15,243.68,174Z"/><path id="Trazado_204" data-name="Trazado 204" class="cls-6" d="M245.29,174.23v.17h-.22c0-.09,0-.08,0-.13A.39.39,0,0,1,245.29,174.23Z"/><path id="Trazado_205" data-name="Trazado 205" class="cls-6" d="M208.89,167.72c-.16-.15-.21-.37-.35-.54l-.43-.29c-.3,0-.38,0-.48.2a.49.49,0,0,1-.35-.2c-.44,0-.56.26-.86.41s-.39.07-.57.17a6.16,6.16,0,0,0-1.78,1.78l-.61.54a7.75,7.75,0,0,0-.52.62c-.24.31-.62.55-.86.88s-.35.82-.61,1.2-.41.5-.61.75-.89.55-1.26.91-.41.67-.73.87c-.49.31-1,0-1.39-.08a8.72,8.72,0,0,0-1.43-.12,6.36,6.36,0,0,0-2.17.29c-.6.15-1.1.15-1.65.33a25.55,25.55,0,0,0-13.15,9.17,11.71,11.71,0,0,0-1.47,2.45,7,7,0,0,0-.26,1.12,3.7,3.7,0,0,0,0,1.87,1.19,1.19,0,0,0,1.22.62l.47,0c1,.19,2.36-.7,3-1.08,1.66-1,3.07-2.18,4.68-3.24l.65-.66c.32-.23.65-.36,1-.58s.74-.86,1.18-1.17c.77-.54,1.41-1.21,2.17-1.74a8.21,8.21,0,0,0,1.51-1.12c.09.05.14.24.18.33.3,0,.32-.14.47-.29,0-.19,0-.25-.13-.33a7,7,0,0,1,1.09-1.08c.21-.09.37,0,.52-.13.21,0,.23.14.3.29.52,0,1.78-1.16,2.08-1.49.1-.1.14-.3.26-.37s.21.07.4,0a2.48,2.48,0,0,0,.3-.25h0l-.47.45c-.16.21-.26.52-.48.67s-.64.21-.91.41c-.12.09-.18.29-.3.38a3.61,3.61,0,0,0-.78.62c-.4.55-.89,1-1.26,1.58-.19.27-.26.59-.52.79,0,.29.11.3.34.37-.19.5-1.43.9-1.82,1.41-.62.83-1.3,1.62-1.86,2.49a13.14,13.14,0,0,1-1.31,2.12.54.54,0,0,0,.09.25A1.56,1.56,0,0,0,190,189h0a7.73,7.73,0,0,1-.95,1.62,1.17,1.17,0,0,0,0,.37h.31a1.74,1.74,0,0,1-.44.75.43.43,0,0,0,.09.21c.39-.06.5-.46.69-.71.32-.41.66-.86,1-1.29a4.66,4.66,0,0,1,.43-.66c0-.41-.25-.49-.48-.67-.2,0-.26,0-.34.13h0c.08-.14.14-.08.26-.17a3.58,3.58,0,0,0,.65-.75c.55-.73,1-1.51,1.57-2.24s1.05-1.15,1.47-1.78h.05a4,4,0,0,1-.7,1.08.5.5,0,0,0,.09.33c.65,0,1.65-1.38,2-1.83.58-.75,1.33-1.4,1.91-2.16.25-.32.71-.47.95-.79.38-.47.86-.86,1.22-1.33s.7-.92,1.08-1.37c0-.08,0-.08,0-.12s-.25-.07-.35-.21.3-.71.44-.87.66-.11.91-.25l1-.95a6.16,6.16,0,0,0,.52-.71c.31-.4.8-.7,1.13-1.12l.61-.54a9,9,0,0,0,.86-1l.31-.25c.42-.56.66-1.19,1.09-1.75S209,168.75,208.89,167.72Zm-13.28,10c-1,.7-1.82,1.55-2.82,2.24-.51.36-1,.85-1.47,1.21-2,1.42-3.94,3-6,4.36-1.31.84-2.72,1.56-4.08,2.36a6.23,6.23,0,0,1-.86.42c-.17.07-.35,0-.48.12a.35.35,0,0,1-.22,0c-.1-.24.29-.84.39-1.08.29-.66.49-1.22.83-1.83.14-.25.4-.51.52-.78s.12-.39.17-.59a11.47,11.47,0,0,1,1.91-2,20.42,20.42,0,0,1,2.95-2.37l.35-.12c.54-.34,1.14-.78,1.73-1.08.81-.4,1.69-.66,2.52-1,.35-.14.7-.12,1.08-.24.6-.19,1.26-.38,1.91-.54.41-.1.91,0,1.22-.17a7.62,7.62,0,0,1,1.34.21C196.53,177.24,196,177.44,195.61,177.68Z"/><path id="Trazado_206" data-name="Trazado 206" class="cls-6" d="M211.23,189.51v.12l-.78.75c-.19.1-.31,0-.48,0-.37.21-.26.41-.87.38-.07-.14,0-.21-.17-.25s0,0-.09,0v0c.12.07.11,0,.13.21a2.41,2.41,0,0,1-1.12.58.56.56,0,0,1-.09-.17h0c.08-.21.29-.25.39-.41s.08-.51.22-.71c.36-.53,1.69-1,2.3-1.41l.17-.2c.44-.29.89-.48,1.35-.75.12-.07.24-.25.39-.29s.32.09.43,0,.15-.24.26-.33c.51-.4,1.15-.59,1.69-.95.3-.2.49-.52,1-.54a1,1,0,0,1,0,.25c-.44.27-.8.7-1.21,1-.15.08-.3.16-.44.25-.3.26-.24.65-.82.67-.2-.1-.27.15-.57.12s-.49.27-.73.42a10.25,10.25,0,0,0-1.78,1.12v.08h.08C210.73,189.71,211,189.53,211.23,189.51Z"/><path id="Trazado_207" data-name="Trazado 207" class="cls-6" d="M213,188.14a1.25,1.25,0,0,1-.08.42H213a2.35,2.35,0,0,0,0,.53,1.1,1.1,0,0,1-.7.29c0-.06-.12-.19-.17-.12l-.3.25-.39,0v-.21l.26-.25a.64.64,0,0,1,.43,0s.6-.39.61-.41h-.22c-.08.1-.08.11-.26.12l0-.12c.18-.12.28-.34.47-.42A.46.46,0,0,1,213,188.14Z"/><path id="Trazado_208" data-name="Trazado 208" class="cls-6" d="M244.37,174.48a6,6,0,0,0-2.12.58c-.27.1-.54.07-.74.21h-.22v0l.18-.08V175c-.27,0-.36.15-.52.21l-.39,0a6.88,6.88,0,0,0-1.3.58l-.4.12c-.11.08-.12.3-.26.38s-.54,0-.86.12-.31.21-.48.25-.55,0-.78.13-1.66.78-2,.54a1,1,0,0,1-.3-.05c0-.07-.06-.25-.09-.33a7.55,7.55,0,0,0-1.6.42l-.13,0c0,.29.13.29.34.37,0,.07,0,0,0,.09,0,.45-.79.46-1.17.62a7.29,7.29,0,0,1-.74.37c-.41.12-.94-.1-1.21,0a6.23,6.23,0,0,0-1,.42c-.28.1-.57,0-.78.2h-.09c.05-.61.55-.92.57-1.57H228a5.21,5.21,0,0,0-1.3,2c-.07,0,0,0-.09,0h-.13a13.44,13.44,0,0,1,1-1.75c.19-.29.25-.62.44-.91.46-.73.88-1.48,1.39-2.2s1.16-1.09,1.47-1.87-.35-1.24-.69-1.7c-.15-.19-.23-.44-.52-.49s-.35.24-.66.16-.56-.3-.86-.2-.4.37-.48.41h-.47s-.67.47-.7.5c-.62.76-.86,2.23-1.65,2.78-1.69,1.18-3.39,2.41-5.16,3.53-.76.48-1.57.83-2.34,1.29-2.34,1.39-4.73,2.68-7.25,3.94a43.72,43.72,0,0,1-4.94,2.08c-.31.1-1.66.44-1.91.25s-.1-.06-.17-.13a1.87,1.87,0,0,1,.34-.91,6,6,0,0,1,.44-.83,2.9,2.9,0,0,1,1-.62c.13-.09.25-.25.39-.34.49-.29,1-.5,1.47-.79,1.13-.67,2.27-1.44,3.39-2.11,2.46-1.49,5-2.87,7.29-4.49,1.19-.82,3.74-2.06,3.68-3.82-.57-.51-1.5-.69-2-1.28-.32,0-.32.09-.52.16a1.79,1.79,0,0,1-.91-.24c-.46,0-.51.37-.83.45s-.37-.13-.61,0c-.09,0-.2.17-.3.21a19.6,19.6,0,0,0-3.3,1.66c-.24.15-.53.18-.78.33-1,.61-2,1.31-3,2l-.3.34a15.74,15.74,0,0,0-3.73,3.32c-.31.38-.79.69-1.09,1.08-.42.54-.91,1-1.3,1.57-.22.31-.33.67-.57,1l-.3.2c-.17.25-.13.57-.3.79s-.43.13-.52.29,0,.22-.05.33a1.9,1.9,0,0,1-.43.54c-.29.21-.75.35-.91.67h0c.06.14.14.18.22.29a1,1,0,0,0,.43,0,.58.58,0,0,1,.18,0c.32.83.45,1.63,1.17,2.07a3.51,3.51,0,0,0,1.95.13,41,41,0,0,0,4.3-1.45c.64-.27,1.33-.69,1.95-1,.31-.15.62-.17.91-.33,1.53-.86,3.14-1.57,4.64-2.45.58-.34,1.19-.68,1.78-1,.27-.16.54-.44.82-.58s.33-.07.48-.17c1-.57,2-1.25,2.91-1.82a19.79,19.79,0,0,0,2.69-1.62h.13a5.44,5.44,0,0,1-.44.91c-.15.35-.16.64-.3,1-.37.91-.85,1.92-1.26,2.82-.29.65-.36,1.59-1,1.95a1.86,1.86,0,0,0,0,.33c-.46.36-1.06.55-1.56.87l-.39.42a.73.73,0,0,0,0,.25,4.65,4.65,0,0,0,1.57-.79h.08a4.43,4.43,0,0,1-.47,1c-.25.54-.47,1.05-.7,1.58,0,.15-.09.3-.13.45s-.26.25-.35.38-.17.44-.26.66c-.4.64-.74,1.32-1.17,2s-.91,1.33-1.39,1.95l-.65.58c-.13.18-.22.45-.39.58a7.8,7.8,0,0,1-1.43.75l-.52,0-.48.46a.17.17,0,0,0,.14.21.17.17,0,0,0,.21-.13c.17,0,.46.09.7,0s.82-.08,1.12-.16.78,0,1.13-.13a4.17,4.17,0,0,0,.78-.54c.11-.07.27-.1.35-.2s0-.32.09-.46l.3-.29a8.85,8.85,0,0,1,.65-.95c0-.31-.16-.18-.3-.25a1.84,1.84,0,0,1,.17-.62l0-.09a1.17,1.17,0,0,0,.44.13,4.57,4.57,0,0,1,.91-.79l0,.08h0a2.28,2.28,0,0,1-.44.71c0,.09,0,.11.05.16s.18.19.26.33c.6,0,1.39-1.1,1.69-1.49s.83-.84,1.17-1.29a11.09,11.09,0,0,0,.83-1.37c.41-.78.68-1.64,1.08-2.41l.18-.45c.11-.13.36-.11.47-.25.25-.32.37-.93.7-1.16a16.33,16.33,0,0,1,1.51-.75,5,5,0,0,1,.79-.5,4.12,4.12,0,0,0,.95-.33c.41-.25.82-.59,1.26-.83l.47-.17.65-.7a3.74,3.74,0,0,1,.57-.17l0,0a1.58,1.58,0,0,1-.48.71l.05.12a2.86,2.86,0,0,0,1.69-.91l.21-.29c.5-.28,1-.42,1.48-.71.16-.1.22-.37.39-.46s.74,0,1-.12.23-.34.39-.46a4.3,4.3,0,0,1,.78-.29c.29-.11.6-.34.87-.45s.34-.05.52-.13l2.6-1a14.62,14.62,0,0,0,2.22-.78c.22-.14.31-.46.52-.59s.35-.06.47-.16a1.46,1.46,0,0,0,.09-.13A.43.43,0,0,0,244.37,174.48Zm-39.21,6.1c0-.08.12.14.3.09s.34-.35.52-.46c0-.2,0-.27-.13-.33.07-.33.37-.49.61-.67s.35-.52.6-.7a3.54,3.54,0,0,1,.52-.37c.12,0,.24,0,.31,0s.06-.28.17-.45.52-.43.57-.46c.22-.13.53-.08.73-.21.66-.41,1.3-.95,2-1.37.18-.12.41-.13.6-.24.72-.43,1.51-.88,2.26-1.29l.52-.17c.54-.26,1.15-.59,1.73-.83a6,6,0,0,0,1.18-.37c.16,0,.15.06.26.12-.08.45-.59.62-.91.83-.54.35-1,.82-1.57,1.17-.23.14-.46.18-.69.33-2.07,1.3-4.16,2.65-6.25,3.9l-2.08,1.24a7.53,7.53,0,0,0-1.17.67.57.57,0,0,1-.26,0h-.05a.59.59,0,0,1,.27-.33Zm14.62,8.35a6.5,6.5,0,0,1-.22.62c-.33.51-.82.93-1.13,1.45h0c.49-.95,1.11-1.81,1.64-2.74h.09c-.05.3-.24.45-.34.67Zm13.7-11.38a1,1,0,0,0-.13.09h-.08l0-.13h.17Z"/><path id="Trazado_209" data-name="Trazado 209" class="cls-6" d="M207.67,191.3v.2a.38.38,0,0,0-.13.09c-.07,0,0,0-.09-.05s-.06,0-.08-.16A.46.46,0,0,1,207.67,191.3Z"/><path id="Trazado_210" data-name="Trazado 210" class="cls-6" d="M187.06,194.2c-.1,0-.24-.08-.39,0h-.08a1.24,1.24,0,0,1,.47-.91v0c.11.06.07.15.13.25v0a2,2,0,0,0,.39-.25c0-.28-.09-.3-.3-.38a1.08,1.08,0,0,1,.3-.54V192c-.07,0,0,0-.08,0-.43.06-.72.49-1,.75h0c.07-.38.38-.5.52-.79a7,7,0,0,1,.48-1c.17-.26.43-.52.6-.79s.17-.41.31-.58a.6.6,0,0,0-.09-.37c-.6.08-.58.64-.87,1-.09.13-.32.12-.43.24s0,.2,0,.29l-.39.3c0,.78-.64,1.2-.87,1.82v.25c-.07.18-.28.33-.35.5s0,.19,0,.29a4.63,4.63,0,0,0-.74,1.12c-.08.19,0,.44,0,.67a2.26,2.26,0,0,0-.13.2v.46c-.08.22-.38.3-.48.5s.09.38,0,.62c-.25.71-1,1.25-1,2.2.58,0,.61-.61.83-1a3.07,3.07,0,0,1,.26-.25,6.59,6.59,0,0,1,.65-1.08c.15-.07.17.11.3.16l.26,0v.08c0,.08-.12.26-.22.34a.35.35,0,0,0,0,.2s0,.08,0,.13a.42.42,0,0,0,.22-.05c.28-.11.08-.34.26-.54s.19-.07.26-.12a2,2,0,0,0,.48-.79,17.45,17.45,0,0,1,1.34-2.24,4.43,4.43,0,0,0,.74-1.41.7.7,0,0,1-.13-.17C187.63,192.88,187.39,193.82,187.06,194.2Zm-1.73,2.37v.25a1.48,1.48,0,0,1-.35.25l0,0v0h-.09a3.39,3.39,0,0,1,.65-1.08c.11-.17.17-.39.26-.55.11.21-.36.93-.43,1.13Z"/><path id="Trazado_211" data-name="Trazado 211" class="cls-6" d="M184.81,197.69a.2.2,0,0,1,.13,0,.32.32,0,0,1,0,.17c-.11.09-.11.13-.3.16a.47.47,0,0,1,0-.16C184.7,197.84,184.76,197.75,184.81,197.69Z"/></g><g id="Grupo_65" data-name="Grupo 65"><path id="Trazado_212" data-name="Trazado 212" class="cls-7" d="M80.31,202.08a1.62,1.62,0,0,0-1.81-1.25c-1.38,0-2.07,1-2.07,2.51,0,1.83.92,2.51,2.17,2.51a1.69,1.69,0,0,0,1.74-1.21l.56.28a2.35,2.35,0,0,1-2.42,1.43c-1.47,0-2.64-.85-2.64-3s1.25-3,2.6-3a2.35,2.35,0,0,1,2.46,1.48Z"/><path id="Trazado_213" data-name="Trazado 213" class="cls-7" d="M83.93,200.47h.59V203h3.7v-2.53h.59v5.74h-.59V203.5h-3.7v2.71h-.59Z"/><path id="Trazado_214" data-name="Trazado 214" class="cls-7" d="M92.21,200.47h4.05v.5H92.8v2h3.12v.5H92.8v2.21h3.64v.49H92.21Z"/><path id="Trazado_215" data-name="Trazado 215" class="cls-7" d="M98.94,200.47h.64l1.94,4.87,2-4.87h.61l-2.32,5.74h-.53Z"/><path id="Trazado_216" data-name="Trazado 216" class="cls-7" d="M109.19,200.47l2.4,5.73H111l-.7-1.72h-2.72l-.74,1.72h-.61l2.52-5.73Zm.88,3.56-1.15-2.82L107.74,204Z"/><path id="Trazado_217" data-name="Trazado 217" class="cls-7" d="M114.38,200.47H115v5.24h3.42v.5h-4Z"/><path id="Trazado_218" data-name="Trazado 218" class="cls-7" d="M125.78,200.47h2.66c1.63,0,1.84,1,1.84,1.35a1.15,1.15,0,0,1-1,1.27h-.09a1.42,1.42,0,0,1,1.36,1.47v0c0,.83-.59,1.59-2,1.59h-2.72Zm.59,2.42h1.9c.9,0,1.43-.34,1.43-1s-.46-.95-1.38-.95h-1.95Zm0,2.82h2.14c1,0,1.41-.55,1.41-1.1,0-.72-.57-1.22-1.62-1.22h-1.93Z"/><path id="Trazado_219" data-name="Trazado 219" class="cls-7" d="M133.69,200.47h.59v5.24h3.42v.5h-4Z"/><path id="Trazado_220" data-name="Trazado 220" class="cls-7" d="M142.92,200.47l2.4,5.74h-.64l-.69-1.73h-2.72l-.74,1.72h-.61l2.52-5.73Zm.88,3.56-1.15-2.82L141.47,204Z"/><path id="Trazado_221" data-name="Trazado 221" class="cls-7" d="M148.11,200.47h.58l3.54,4.82h0v-4.82h.59v5.74h-.58l-3.53-4.82h0v4.82h-.59Z"/><path id="Trazado_222" data-name="Trazado 222" class="cls-7" d="M160.52,202.08a1.62,1.62,0,0,0-1.8-1.25c-1.39,0-2.07,1-2.07,2.51,0,1.83.91,2.51,2.16,2.51a1.67,1.67,0,0,0,1.74-1.22l.57.29a2.35,2.35,0,0,1-2.42,1.43c-1.47,0-2.64-.85-2.64-3s1.25-3,2.59-3a2.34,2.34,0,0,1,2.46,1.48Z"/><path id="Trazado_223" data-name="Trazado 223" class="cls-7" d="M172.8,203.66a3,3,0,0,1-.44,1.46,1.45,1.45,0,0,0,1,.68v.5a1.72,1.72,0,0,1-1.32-.72,2.25,2.25,0,0,1-1.73.72,1.75,1.75,0,0,1-1.92-1.57.28.28,0,0,0,0-.09c0-.85.8-1.52,1.58-1.91a1.89,1.89,0,0,1-.51-1.22,1.11,1.11,0,0,1,1.08-1.14h.18a1,1,0,0,1,1.19,1c0,.71-.62,1.12-1.19,1.48.4.63.86,1.22,1.3,1.82a3.87,3.87,0,0,0,.27-1.05Zm-3.82,1a1.25,1.25,0,0,0,1.3,1.21h0a1.91,1.91,0,0,0,1.42-.66,19.61,19.61,0,0,1-1.48-2C169.62,203.51,169,203.9,169,204.64Zm1.73-3.81a.66.66,0,0,0-.73.59.27.27,0,0,0,0,.09,2,2,0,0,0,.44,1c.43-.25,1-.53,1-1.07a.63.63,0,0,0-.64-.59Z"/><path id="Trazado_224" data-name="Trazado 224" class="cls-7" d="M180.27,200.47h4.47v.5H182.8v5.24h-.59V201h-1.94Z"/><path id="Trazado_225" data-name="Trazado 225" class="cls-7" d="M187.54,200.47h4.05v.5h-3.46v2h3.12v.5h-3.12v2.2h3.64v.5h-4.23Z"/><path id="Trazado_226" data-name="Trazado 226" class="cls-7" d="M194.83,200.47h2.74a1.6,1.6,0,0,1,1.8,1.37,1.69,1.69,0,0,1,0,.23c0,1-.7,1.49-1.82,1.57l2,2.56h-.75l-2-2.54h-1.41v2.54h-.59Zm.59,2.69h1.84c1.25,0,1.53-.59,1.53-1.09,0-.67-.38-1.1-1.43-1.1h-1.93Z"/><path id="Trazado_227" data-name="Trazado 227" class="cls-7" d="M202.28,200.47H205a1.6,1.6,0,0,1,1.8,1.37,1.69,1.69,0,0,1,0,.23c0,1-.7,1.49-1.82,1.57l2,2.56h-.75l-2-2.54h-1.4v2.54h-.6Zm.59,2.69h1.84c1.25,0,1.53-.59,1.53-1.09,0-.67-.38-1.1-1.43-1.1h-1.93Z"/><path id="Trazado_228" data-name="Trazado 228" class="cls-7" d="M212.13,200.47l2.4,5.73h-.64l-.7-1.72h-2.72l-.73,1.72h-.61l2.52-5.73ZM213,204l-1.14-2.82L210.67,204Z"/><path id="Trazado_229" data-name="Trazado 229" class="cls-7" d="M217,200.47h4.37v.36l-3.74,4.88h3.71v.49h-4.54v-.35l3.75-4.88H217Z"/><path id="Trazado_230" data-name="Trazado 230" class="cls-7" d="M226.71,200.47l2.4,5.73h-.64l-.7-1.72h-2.72l-.73,1.72h-.61l2.52-5.73Zm.87,3.56-1.14-2.82L225.25,204Z"/><path id="Trazado_231" data-name="Trazado 231" class="cls-7" d="M232.14,204.48c.05,1,.71,1.37,1.74,1.37s1.69-.47,1.69-1.17c0-1.75-3.69-.66-3.69-2.9,0-1,1.1-1.45,2-1.45a2.07,2.07,0,0,1,2.21,1.28l-.55.27a1.6,1.6,0,0,0-1.66-1.06c-.63,0-1.38.33-1.38,1,0,1.7,3.69.61,3.69,2.81,0,1.13-.85,1.76-2.28,1.76-1.25,0-2.11-.43-2.33-1.59Z"/><path id="Trazado_232" data-name="Trazado 232" class="cls-7" d="M243.9,200.47h2.44c1.89,0,2.44,1.61,2.44,2.87a2.59,2.59,0,0,1-2.61,2.86H243.9Zm.6,5.24h1.64c1.54,0,2.05-1.22,2.05-2.37s-.48-2.37-1.93-2.37h-1.77Z"/><path id="Trazado_233" data-name="Trazado 233" class="cls-7" d="M251.87,200.47h4v.5h-3.46v2h3.12v.5h-3.12v2.2h3.64v.5h-4.23Z"/><path id="Trazado_234" data-name="Trazado 234" class="cls-7" d="M263.85,200.47h.59v5.24h3.42v.5h-4Z"/><path id="Trazado_235" data-name="Trazado 235" class="cls-7" d="M273.19,200.33a3,3,0,1,1-2.68,3A2.72,2.72,0,0,1,273.19,200.33Zm0,5.52c1.47,0,2.08-1.32,2.08-2.51s-.61-2.51-2.08-2.51a2.55,2.55,0,0,0,0,5Z"/><path id="Trazado_236" data-name="Trazado 236" class="cls-7" d="M279.32,204.48c.06,1,.72,1.37,1.74,1.37s1.7-.47,1.7-1.17c0-1.75-3.7-.66-3.7-2.9,0-1,1.11-1.45,2-1.45a2,2,0,0,1,2.2,1.28l-.54.27a1.58,1.58,0,0,0-1.66-1c-.64,0-1.38.33-1.38.95,0,1.7,3.69.61,3.69,2.81,0,1.13-.85,1.76-2.28,1.76-1.25,0-2.11-.43-2.33-1.59Z"/><path id="Trazado_237" data-name="Trazado 237" class="cls-7" d="M293.35,200.47l2.4,5.73h-.64l-.69-1.72H291.7L291,206.2h-.61l2.52-5.73Zm.87,3.56-1.14-2.82L291.89,204Z"/><path id="Trazado_238" data-name="Trazado 238" class="cls-7" d="M298.54,200.47h.58l3.54,4.82h0v-4.82h.6v5.73h-.59l-3.53-4.81h0v4.81h-.59Z"/><path id="Trazado_239" data-name="Trazado 239" class="cls-7" d="M306.8,200.47h2.43c1.9,0,2.45,1.61,2.45,2.87a2.59,2.59,0,0,1-2.61,2.86H306.8Zm.59,5.24H309c1.54,0,2.06-1.22,2.06-2.37s-.48-2.37-1.93-2.37h-1.77Z"/><path id="Trazado_240" data-name="Trazado 240" class="cls-7" d="M314.76,200.47h4.05v.5h-3.46v2h3.13v.5h-3.13v2.2H319v.5h-4.24Z"/><path id="Trazado_241" data-name="Trazado 241" class="cls-7" d="M322.43,204.48c.05,1,.71,1.37,1.74,1.37s1.7-.47,1.7-1.17c0-1.75-3.7-.66-3.7-2.9,0-1,1.1-1.45,2-1.45a2.07,2.07,0,0,1,2.21,1.28l-.54.27a1.6,1.6,0,0,0-1.66-1.06c-.64,0-1.39.33-1.39,1,0,1.7,3.7.61,3.7,2.81,0,1.13-.85,1.76-2.29,1.76-1.24,0-2.1-.43-2.33-1.59Z"/></g></g></g></g></g></svg>