<svg id="Capa_1" data-name="Capa 1" xmlns="http://www.w3.org/2000/svg" xmlns:xlink="http://www.w3.org/1999/xlink" viewBox="0 0 400 300"><defs><style>.cls-1{fill:none;}.cls-2{fill:#fff;}.cls-3{clip-path:url(#clip-path);}.cls-4{fill:#f4a324;}</style><clipPath id="clip-path"><rect class="cls-1" x="58.67" y="44" width="282.67" height="212"/></clipPath></defs><title>9</title><rect class="cls-2" width="400" height="300"/><g class="cls-3"><g id="VEUVE_CLICQUOT" data-name="VEUVE CLICQUOT"><rect id="Rectángulo_1" data-name="Rectángulo 1" class="cls-1" x="58.67" y="44" width="282.67" height="212"/><g id="Grupo_73" data-name="Grupo 73"><g id="Grupo_70" data-name="Grupo 70"><g id="Grupo_68" data-name="Grupo 68"><rect id="Rectángulo_5" data-name="Rectángulo 5" class="cls-4" x="278.5" y="211" width="6.26" height="6.26"/><rect id="Rectángulo_6" data-name="Rectángulo 6" class="cls-4" x="116.91" y="211" width="6.26" height="6.26"/></g><g id="Grupo_69" data-name="Grupo 69"><path id="Trazado_242" data-name="Trazado 242" d="M185.88,111.78l4.27,9.78,4.17-9.5a.9.9,0,0,1,.9-.63H196v-.61h-4v.61h.89c.57,0,.6.44.41.92l-2.45,5.71-2.58-6.63h1.53v-.61h-5.42v.61h.86C185.59,111.43,185.75,111.49,185.88,111.78Zm19.88-1v.61h1.34v9.37h-1.37v.6h4.85v-.6h-1.34v-3.89h1.15c2.93,0,4.24-1.46,4.24-3.22,0-1.56-1.41-2.87-4.27-2.87Zm6.6,2.87c0,1.63-.73,2.55-2.33,2.55h-.79v-4.81h.8a2.08,2.08,0,0,1,2.32,1.81,2.26,2.26,0,0,1,0,.45Zm-12.16,31.8h.06c8.07-9.75,15.33-14,27.09-15.58a35.85,35.85,0,0,1-3.41-15.62,37.41,37.41,0,0,1,3.41-15.58c-6.66.48-23.07-7.07-27.12-15.62-4,8.55-20.46,16.1-27.12,15.62a37.29,37.29,0,0,1,3.41,15.58,35.71,35.71,0,0,1-3.41,15.62c11.76,1.59,19,5.83,27.09,15.58Zm-23.87-44.77c7.2-1.25,18.52-6.85,23.9-13.55,5.36,6.7,16.67,12.3,23.9,13.55a39.58,39.58,0,0,0,.07,27.43c-10,1.82-16.8,5.87-24,13.9-7.14-8-14-12.08-23.93-13.9a39.58,39.58,0,0,0,.06-27.43Zm18,30.88a17.63,17.63,0,0,1,5.87,3.41,17.64,17.64,0,0,1,5.86-3.41c8-3.31,12.59-9.94,13-13.93l-3.29,2c-.6,5.07-6.56,9.91-12.36,9.91-1.47,0-2.33-1.18-2.33-3.41v-4.59a6.94,6.94,0,0,0,3.06-1v-1.64a5,5,0,0,1-3.6,1.89c-2.13,0-3-2.48-3-4.71s.77-4.72,2.9-4.72a5.06,5.06,0,0,1,3.67,2.16v-3h-.43s-.28.65-.68.48h0a7.7,7.7,0,0,0-2-.41v-4.75l11.34.39V104l-11.34.29v-5a3.48,3.48,0,0,0,2.7-3.35,3.63,3.63,0,0,0-7.26,0,3.47,3.47,0,0,0,2.71,3.35v5L188,104v2.27l11.35-.39v4.88c-2.58.54-3.92,2.77-3.92,5.35s1.34,4.85,3.92,5.36v4.68c0,2.23-.86,3.41-2.33,3.41-5.8,0-11.76-4.84-12.37-9.91l-3.28-2c.45,4,5,10.62,13,13.93Zm4-35.66a1.85,1.85,0,1,1,1.84,1.85,1.84,1.84,0,0,1-1.84-1.85ZM140.73,214.41a1.54,1.54,0,0,0,.52-.35,1.62,1.62,0,0,0,.38-.52,1.48,1.48,0,0,0,.14-.68,1.51,1.51,0,0,0-.7-1.43,3.91,3.91,0,0,0-2-.42h-3.67v6.25h1.37v-2.5h2l1.67,2.5H142l-1.81-2.64A2.86,2.86,0,0,0,140.73,214.41Zm-3.93-.7v-1.65h2.26a2.05,2.05,0,0,1,1.06.2.66.66,0,0,1,.33.57c0,.59-.46.88-1.39.88Zm12.24.82H152v-1.06H149v-1.41h4.17V211h-5.53v6.25h5.66V216.2H149Zm10.41,2.73h1.36V211h-1.36ZM171.17,215,169,211h-1.43v6.26h1.2v-4.47h0l2.29,4.47h.12l2.42-4.47h0v4.47h1.19V211h-1.46Zm14.46-1.24a5,5,0,0,0-1.14-.26c-.41-.05-.79-.1-1.14-.16a3.89,3.89,0,0,1-.88-.21.46.46,0,0,1-.35-.45.5.5,0,0,1,.12-.33.77.77,0,0,1,.31-.22A1.76,1.76,0,0,1,183,212a4.74,4.74,0,0,1,.55,0,5.39,5.39,0,0,1,1.33.17,15,15,0,0,1,1.41.65l.51-1-.68-.32c-.18-.09-.35-.17-.53-.24a6.21,6.21,0,0,0-.81-.24,5.53,5.53,0,0,0-1.15-.1,3.53,3.53,0,0,0-2.12.54,1.71,1.71,0,0,0-.76,1.45,1.29,1.29,0,0,0,.35,1,2.45,2.45,0,0,0,.88.51,6.28,6.28,0,0,0,1.14.26l1.14.15a3.78,3.78,0,0,1,.88.22.51.51,0,0,1,.35.46.54.54,0,0,1-.2.43,1.54,1.54,0,0,1-.49.26,2.75,2.75,0,0,1-.57.12,4.19,4.19,0,0,1-.5,0,4,4,0,0,1-.59-.07,6.33,6.33,0,0,1-.75-.19s-1.11-.37-1.4-.5l-.38,1,.64.28c.18.07.4.15.66.23s.58.16.87.21a5.23,5.23,0,0,0,1,.09,7.13,7.13,0,0,0,1-.07,2.9,2.9,0,0,0,1-.3,2.23,2.23,0,0,0,.77-.63,1.59,1.59,0,0,0,.3-1,1.32,1.32,0,0,0-.35-1,2.37,2.37,0,0,0-.87-.54Zm14.49,3.5h1.36v-2.64h3.13v-1.05h-3.13v-1.51H206V211h-5.92Zm16.78-2.85a2.26,2.26,0,0,0,.52-.35,1.9,1.9,0,0,0,.37-.52,1.6,1.6,0,0,0,.15-.68,1.53,1.53,0,0,0-.72-1.43,3.88,3.88,0,0,0-2-.43h-3.66v6.26h1.36v-2.5h2l1.67,2.5h1.57l-1.85-2.64a3.6,3.6,0,0,0,.58-.2Zm-3.93-.7v-1.65h2.24a2,2,0,0,1,1.06.21.63.63,0,0,1,.34.56c0,.58-.47.88-1.39.88Zm12.7-2.71-2.88,6.26h1.35l.66-1.57h3.12l.76,1.57h1.37l-3-6.26Zm-.42,3.64,1-2.39,1.15,2.39Zm15.52.69L236.69,211h-1.38v6.26h1.2v-4.61l4.34,4.61H242V211h-1.19Zm11.72.63a4.79,4.79,0,0,1-.73.24,3.33,3.33,0,0,1-.78.1,2.24,2.24,0,0,1-1.52-.59,2.3,2.3,0,0,1-.5-.7,2.09,2.09,0,0,1-.2-.92,2.38,2.38,0,0,1,.18-.91,1.84,1.84,0,0,1,.48-.66,1.89,1.89,0,0,1,.73-.41,3,3,0,0,1,.93-.14,4,4,0,0,1,.78.08,7.42,7.42,0,0,1,1.53.58l.63-.9c-.15-.06-.94-.4-1.17-.48a4.45,4.45,0,0,0-.79-.23,4.75,4.75,0,0,0-1-.1,4.81,4.81,0,0,0-1.36.2,3.36,3.36,0,0,0-1.17.61,3.09,3.09,0,0,0-.83,1,3.25,3.25,0,0,0,0,2.79,3.2,3.2,0,0,0,.82,1,3,3,0,0,0,1.13.58,4.4,4.4,0,0,0,1.3.19,5,5,0,0,0,1.15-.11,4.79,4.79,0,0,0,.91-.28c.26-.11.48-.2.65-.29l.63-.31-.61-.9Zm8.65-1.43h2.92v-1.06h-2.92v-1.42h4.17V211h-5.53v6.25h5.66V216.2h-4.3ZM109.2,159.09v-.89h-7.92v.89h3.46l-8.31,23.8-7.8-23.8H92.2v-.89H78.6v.89h3.84L93.37,191h1.45l11-31.88Zm156.06,13h2.06v-.84H261v3.12H261c-.67-1.89-1.89-3.45-3.95-3.45-5.24,0-8,4.46-8,9.81,0,5.52,2.56,10,7.63,10,2.06,0,3.57-1.72,4.18-3.4H261v10.32H258.4v.89h9.42v-.89h-2.56ZM257,189.75c-2.45,0-3.12-2.29-3.12-9,0-6.4.56-9,3.18-9,2.78,0,4.07,4.35,4.07,9.14s-1.62,8.87-4.13,8.87Zm-40.74-31.49h-6.69v.83h2.4v30.38h-2.46v.89h9.2v-.89H216.2Zm70.17,13h-6.69v.84H282V183.5c0,2.34-1.34,5.75-3.73,5.75-2.12,0-2.29-2.23-2.29-3.8V171.24h-6.44v.84h2.09v12.76c0,3.45,1.56,5.85,5.08,5.85a5.58,5.58,0,0,0,5.29-3.9h.11v3.57h6.25v-.89h-2Zm-127.47,0h-5.46v.84h2.73l-3.85,11.76L148,172.08h2.51v-.84h-9.26v.84h1.95l7,18.95h.5l6.3-18.95h1.89ZM140.3,190.36v-.89h-2V171.24H131.6v.84h2.34V183.5c0,2.34-1.34,5.75-3.73,5.75-2.12,0-2.29-2.23-2.29-3.8V171.24h-6.74v.84h2.39v12.76c0,3.45,1.57,5.85,5.08,5.85a5.58,5.58,0,0,0,5.29-3.9h.11v3.57Zm58.13-.56c-3.9,0-6.36-3.51-6.36-15.33,0-13.37,1.84-15.38,6.19-15.38,3.4,0,5.63,5,6.75,10h1.06V158.26h-.84c0,.61-.11,1.56-.78,1.56-.83,0-3.12-1.79-6.18-1.79-8.59,0-12.54,6.91-12.54,16.39s4.4,16.44,12.59,16.44c5.58,0,7.86-6.19,8.2-10.14l-.9-.22c-.45,3.51-2.57,9.3-7.19,9.3Zm-24.3-4.9-.73-.23c-.5,2.57-2.67,5.08-5.24,5.08-4.18,0-4.51-4.85-4.51-8.59v-1.73h10.48c0-4.06-2.51-8.52-7.19-8.52-4.91,0-8.09,5.12-8.09,9.81,0,5,3.18,10,8.76,10,3.12,0,5.9-2.67,6.52-5.79Zm-10.48-9.26c0-2.23,1-3.9,3.18-3.9,1.89,0,2.51,1.56,2.51,3.9v2.9h-5.69Zm-44.87,3.79c0-4.06-2.51-8.52-7.19-8.52-4.9,0-8.08,5.12-8.08,9.81,0,5,3.18,10,8.75,10,3.12,0,5.91-2.67,6.52-5.79l-.72-.22c-.5,2.56-2.68,5.07-5.24,5.07-4.18,0-4.52-4.85-4.52-8.59v-1.73Zm-10.48-3.79c0-2.23,1-3.9,3.18-3.9,1.9,0,2.51,1.56,2.51,3.9v2.9h-5.68Zm212.58,10c-.28,1.28-1.17,3.85-3.07,3.85-1.56,0-1.89-2-1.89-3.51V172.08h4.18v-.84h-4.18v-7.41l-4.29,2.34v5.07h-2.4v.84h2.4v13.1c0,3.23,1.17,5.51,5,5.51,2.84,0,4.57-2.22,5-4.85Zm-21.79-14.71c-5,0-8.58,4.57-8.58,9.86s3.62,9.92,8.58,9.92,8.58-4.62,8.58-9.92-3.62-9.86-8.58-9.86Zm0,19c-3.07,0-3.79-2.51-3.79-9.09s.72-9,3.79-9,3.79,2.46,3.79,9-.72,9.09-3.79,9.09Zm-71.15-18.62H221.2v.84h2.45v17.39H221.2v.89h9.2v-.89h-2.46ZM223,163.1a2.31,2.31,0,0,0,2.1,2.51h.41a2.35,2.35,0,0,0,2.56-2.13,2.81,2.81,0,0,0-2.23-2.94h-.33a2.35,2.35,0,0,0-2.51,2.19A2.28,2.28,0,0,0,223,163.1Zm17.78,26.65c-3.07,0-3.91-2.46-3.91-9s.73-9,3.79-9c3.46,0,1.68,3.12,1.68,5,0,1.28.83,1.9,2.17,1.9,1.11,0,2.12-.95,2.12-2.62,0-2.9-2.84-5.07-5.85-5.07-5,0-8.69,4.51-8.69,9.81,0,5,2.56,10,8.13,10,3.13,0,5.91-2.67,6.52-5.79l-.72-.23c-.51,2.57-2.68,5.08-5.25,5.08Z"/></g></g><rect id="Rectángulo_7" data-name="Rectángulo 7" class="cls-1" x="58.81" y="63.31" width="282.52" height="173.71"/></g></g></g></svg>