<?xml version="1.0" encoding="utf-8"?>
<!-- Generator: Adobe Illustrator 23.0.4, SVG Export Plug-In . SVG Version: 6.00 Build 0)  -->
<svg version="1.1" id="Layer_1" xmlns="http://www.w3.org/2000/svg" xmlns:xlink="http://www.w3.org/1999/xlink" x="0px" y="0px"
	 viewBox="0 0 1200 1200" style="enable-background:new 0 0 1200 1200;" xml:space="preserve">
<g id="XMLID_999_">
	<g id="XMLID_1031_">
		<g id="XMLID_1032_">
			<g id="XMLID_1033_">
				<path id="XMLID_1047_" d="M416.32,456.86c8.76,0,14.2,3.2,14.2,8.35c0,2.57-1.55,5.02-3.98,6.39c-1.62,0.89-2.32,1.11-5.13,1.8
					v0.09c7.79,1.15,11.64,4.2,11.64,9.07c0,3.76-2.89,7.08-7.12,8.28c-1.85,0.5-4.82,0.89-7.56,0.89h-3.05H394.9v-1
					c4.34-0.78,5.15-1.63,5.15-5.69v-1.76v-17.92v-2.51c0-3.22-1.23-4.41-5.15-4.94v-1.05h18.53H416.32z M412.31,473.02
					c5.35,0,8.54-2.66,8.54-7.09c0-4.49-3.19-6.95-9.14-6.95h-2.65v14.04H412.31z M409.05,484.94c0,3.73,1.28,4.8,5.85,4.8
					c5.19,0,8.31-2.72,8.31-7.38c0-3.81-2.36-6.48-6.6-7.23c-0.79-0.12-1.62-0.26-2.4-0.26c-0.22-0.04-0.78-0.04-1.75-0.04h-3.4
					V484.94z"/>
				<path id="XMLID_1044_" d="M510.96,474.39c0,10.71-9.06,18.23-22.14,18.23c-13.1,0-22.37-7.62-22.37-18.49
					c0-10.52,9.28-18.13,21.99-18.13C501.95,456,510.96,463.4,510.96,474.39z M476.39,473.62c0,7.02,1.43,11.48,4.42,14.22
					c2.11,1.91,4.94,2.93,7.91,2.93c8.01,0,12.56-5.9,12.56-16.19c0-6.96-1.55-11.47-4.8-14.21c-2.04-1.61-4.9-2.6-7.92-2.6
					C481.05,457.78,476.39,463.77,476.39,473.62z"/>
				<path id="XMLID_1041_" d="M543.98,490.73c4.67-1.04,5.2-1.63,5.2-5.69v-1.76v-17.92v-2.51c0-3.22-0.84-4.08-5.2-4.94v-1.05
					h18.35c7.24,0,10.94,0.42,14.4,1.58c8.11,2.77,12.94,8.87,12.94,16.28c0,10.56-8.63,17.01-22.93,17.01h-2.65h-20.11V490.73z
					 M558.26,484.46c0,4.34,1.24,5.35,6.66,5.35c9.5,0,14.84-5.55,14.84-15.42c0-9.66-6.1-15.63-15.98-15.63h-5.52V484.46z"/>
				<path id="XMLID_1039_" d="M653.14,456.86h-30.72v1.05c4.34,0.86,5.2,1.72,5.2,4.94v2.51v17.92l-0.1,1.76
					c0,4.1-0.63,4.83-5.1,5.69v1h31.22l0.77-8.45h-1.27c-0.78,1.96-1.61,3.26-2.79,4.41c-1.75,1.64-3.11,2.13-6.53,2.13h-1.69
					c-4.11,0-5.65-1.18-5.65-4.28v-1.25v-9.07h7.28c3.43,0,5.29,1.42,5.75,4.47h1.22v-10.74h-1.22c-0.91,3.09-2.39,4.22-5.75,4.22
					h-7.28v-14.19h6.94c5.28,0,6.84,0.9,8.45,5.01l0.29,0.66h1.02L653.14,456.86z"/>
				<path id="XMLID_1037_" d="M724.87,466.67h-1.27c-2.38-5.31-7.81-8.7-13.95-8.7c-8.12,0-13.01,6.3-13.01,17.04
					c0,10.22,4.59,15.63,13.09,15.63c4.8,0,6.13-1.01,6.13-4.47v-3.98c0-3-1.11-4.21-4.24-4.65v-1.09h17.27v1.09
					c-3.15,0.79-4.02,1.9-4.02,5.14v7.43c-3.89,1.6-9.61,2.49-15.75,2.49c-13.16,0-22.29-7.46-22.29-18.04
					c0-10.65,9.48-18.58,22.21-18.58c2.21,0,4.04,0.16,5.49,0.61l4.72,1.29c0.41,0.12,0.89,0.2,1.4,0.2c1.21,0,1.96-0.38,2.95-1.45
					h1.27V466.67z"/>
				<path id="XMLID_1034_" d="M796.79,483.82c2.24,4.97,4.05,6.61,7.63,6.9v1h-20.09v-1c3.57-0.69,4.58-1.25,4.58-2.74
					c0-0.46-0.05-0.91-0.27-1.27l-0.49-1.35l-0.48-1.19l-1.9-4.15h-14.55l-2.01,4.62c-0.72,1.53-0.85,2.08-0.85,2.89
					c0,1.57,1.29,2.51,4.17,3.2v1h-13.26v-1c1.4-0.2,2.36-0.69,3.63-1.69c1.7-1.49,2.67-2.92,4.09-6.22l11.71-26.88h5.62
					L796.79,483.82z M778.47,463.4l-6.25,14.15h12.44L778.47,463.4z"/>
			</g>
		</g>
	</g>
	<g id="XMLID_1000_">
		<g id="XMLID_1007_">
			<path id="XMLID_1028_" d="M696.27,597.69c0,0,0.85,0.73,2-0.81c1-1.3,2.19-2.38,3.35-3.54c33.5-34.73,70.45-40.99,70.45-40.99
				c21.72-4.98,24.27,5.73,24.27,5.73c4.1,23.4-36.67,39.87-36.67,39.87s-18.2,9.25-49.72,6.46c0,0-1.28-0.41-2.35,0.99
				c-7.73,10.3-15.12,22.65-21.28,37.21c0,0-20.61,42.12-2.94,57.37c0,0,12.56,10.36,34.38-6.2c0,0,26.27-18.07,29.38-50.94
				c0,0,1.43-12.74-8.99-11.86c0,0-9.56-0.73-20.39,12.94c0,0-0.82,1.31-2.12,0.88c0,0-1.14-1.29,1.57-5.51
				c0,0,8.99-14.23,26.82-16.24c0,0,14.6-1.87,15.78,11.38c1.87,20.29-19.76,44.35-19.76,44.35
				c-24.92,29.35-49.19,30.65-49.19,30.65c-32.2,3.55-31.04-29.09-31.04-29.09c-1.01-26.64,17.25-53.96,17.25-53.96
				c5.02-8.74,10.49-16.39,15.9-23.33c1-1.27-0.42-1.3-0.42-1.3 M713.08,600.34c24.84,2.25,38.04-3.96,38.04-3.96
				s31.45-10.25,30.23-34.31c0,0-1.99-11.46-28.69,1.32c0,0-18.38,8.86-36.08,30.94c-1.24,1.52-2.69,2.97-3.92,4.57
				C711.5,600.45,713.08,600.34,713.08,600.34z"/>
			<path id="XMLID_1025_" d="M572.06,646.99c0,0,9.91-14.52,22.81-19.19c0,0,11.72-4.19,17.18,0.22c0,0,0.72,0.54,1.11-0.07
				c0.53-0.71,1.05-1.31,1.7-1.99c0,0,2.41-2.54,4.38-2.97c0,0,4.62-1.37,10.35-0.93c0,0,1.84,0.44,0.25,2.21
				c0,0-7.85,8.41-11.67,16.73c0,0-8.59,19.1,9.2,18.82c0,0,14.19,0.08,23.79-17.08c1.58-2.85,3.4-6.32,4.11-9.98
				c0,0,0.31-1.11,0.95-0.36c0,0,1.96,1.51,1.3,4.84c-3.51,18.07-23.4,24.3-23.4,24.3c-15.44,5.28-21.94-2.7-21.94-2.7
				c-0.64-0.42-0.95,0.23-0.95,0.23c-5.22,11.92-14.01,21.2-14.01,21.2c-14.4,16.09-26.68,16.16-26.68,16.16
				c-13.18,1.05-12.72-13.29-12.72-13.29c-0.49-12.22,7.36-25.28,7.36-25.28C568.18,651.89,572.06,646.99,572.06,646.99z
				 M585.34,685.29c11.02-6.17,17.5-18.25,20.44-25.17c1.37-3.26,1.28-4.78,1.28-4.78c0.62-1.1,0.02-1.83,0.02-1.83
				s-5.14-8.99,3-21.54c0,0,0.28-0.59,0.07-0.91c-1.61-2.58-6.27-0.84-6.27-0.84c-9.78,3.42-20.65,22.34-20.65,22.34
				s-12.39,20.48-10.32,29.75C572.9,682.31,573.9,691.67,585.34,685.29z"/>
			<path id="XMLID_1021_" d="M605.55,687.4c-0.92-0.67-0.88,0.33-0.88,0.33c-11.82,37.93-47.31,31.82-47.31,31.82
				c-32.35-5.96-17.6-37.56-17.6-37.56c2.08-5.22,10.92-18.68,10.92-18.68c7.98-11.79,8.02-16.72,8.02-16.72
				c1.68-7.97-5.31-15.16-5.31-15.16c-4.28-4.78-5.26-7.08-5.26-7.08c-0.47-1.12,0-1.82,0-1.82c5.2-7.47,9.11-13.98,12.75-20.21
				c0,0,1.57-2.6-0.58-3.61c-1.85-0.85-9.01,2.86-9.01,2.86c-11.85,7.01-11.6,14.44-11.6,14.44c-1.24,4.21,2.11,7.76,2.11,7.76
				c0.79,0.95,0,1.75,0,1.75s-9.84,19.12-25.56,40.57c-9.09,12.39-14.59,17.37-14.59,17.37c-6.02,5.6-8,4.4-8,4.4
				c-2.72-0.75-1.45-5.53-1.45-5.53c1.98-7.93,12.99-23,12.99-23c5.02-7.16,5.72-11.03,5.72-11.03c3.21-8.27-5.13-16.46-5.13-16.46
				c-5.07-6.88-4.53-6.59-4.65-7.6c-0.11-1.28,0.26-1.78,0.26-1.78c3.61-5.49,7.71-12.14,12.13-19.51c0,0,1.52-2.24,0.15-3.59
				c-1.8-1.81-8.11,1.82-8.11,1.82c-11.88,7.02-12.94,14.9-12.94,14.9c-1.26,4.22,2.38,7.64,2.38,7.64c0.76,0.95,0,1.73,0,1.73
				c-6.51,11.8-14.16,23.34-19.84,31.19c-6.78,9.96-13.66,17.49-13.66,17.49c-14.93,17.16-19.51,13.83-19.51,13.83
				c-2.34-0.92-0.22-6.51-0.22-6.51c6.52-18.13,32.52-53.73,32.52-53.73c2.05-2.83-0.28-2.96-0.28-2.96
				c-8.75-0.94-10.87,1.8-10.87,1.8c-1.23,0.61-4.41,5.69-4.41,5.69c-1.09,1.56-1.36,0-1.36,0c-0.6-3.83-4.44-5.02-4.44-5.02
				c-5.1-1.95-10.82-0.9-15.72,0.74c-10.33,3.58-18.2,11.56-18.2,11.56c-3.1,2.67-5.85,5.63-8.4,8.83
				c-7.71,9.63-13.25,9.3-13.25,9.3c-8.76,0.44-3.12-12.74-3.12-12.74c4.43-10.35,13.43-18.57,13.43-18.57
				c1.56-1.7-0.14-2.17-0.14-2.17c-5.46-0.63-9.91,0.57-9.91,0.57c-1.84,0.35-3.22,1.6-3.22,1.6c-3.18,2.47-4.89,5.03-6.27,7.04
				c-7.34,10.63-5.45,19.49-5.45,19.49c0.15,0.94-0.33,1.57-0.33,1.57c-7.05,12.12-26.18,29.59-26.18,29.59
				c-2.52,1.9-2.34-1.18-2.34-1.18c4.86-24.05,18.09-53.03,18.09-53.03c0.93-2.5-1.16-2.45-1.16-2.45
				c-7.07-0.47-9.58,1.66-9.58,1.66c-2.21,1.26-4.98,8.22-4.98,8.22c-2.01,4.68-5.22,9.69-5.22,9.69
				c-5.92,11.7-20.19,26.67-20.19,26.67c-15.25,16.56-19.61,14.39-19.61,14.39c-2.34-0.95-0.23-6.59-0.23-6.59
				c6.55-18.09,32.56-53.67,32.56-53.67c2-2.82-0.33-2.96-0.33-2.96c-8.76-0.94-10.84,1.77-10.84,1.77
				c-1.26,0.63-4.41,5.69-4.41,5.69c-1.11,1.58-1.37,0-1.37,0c-0.47-4.06-4.43-5.03-4.43-5.03c-15.48-4.87-33.73,11.93-33.73,11.93
				c-22.8,20.01-24.82,43.38-24.82,43.38s-1.57,12.34,5.75,12.03c0,0,6.55,0.47,17.33-9.23c0,0,9.35-7.76,16.42-16.35
				c0,0,1.71-0.97,0.75,0.58c0,0-10.78,18.61-6.38,25.62c0,0,3.11,4.98,14.39-1.58c0,0,16.37-8.74,35.56-35.29
				c0,0,1.74-1.38,1.11,0.47c0,0-7.65,22.94-7.97,36.84c0,0,0.32,2.18,1.88,2.18c0,0,2.02,0.31,6.41-3.26
				c0,0,18.25-14.51,35.74-36.55c0,0,0.75-0.62,1.42,0c0,0,5.41,7.2,15.95,0.94c1.14-0.68,0.73,0.46,0.73,0.46
				c-7.54,12.8-8.26,23.07-8.26,23.07s-1.55,12.32,5.8,12.03c0,0,6.69,0.45,17.48-9.2c0,0,9.6-7.74,16.43-16.97
				c0,0,1.75-0.97,0.82,0.6c0,0-9.83,18.47-4.86,25.17c0,0,3.82,5.41,15.06-1.14c0,0,10.5-4.8,26.93-26.76
				c9.02-11.86,19.75-28.07,25.7-38.43c0,0,0.54-1.09,1.47,0.09c0,0,3.75,2.89,3.32,8.5c0,0,0.61,3.91-7.41,14.79
				c0,0-10.68,13.61-13.56,24.24c0,0-5.42,17,6.25,18.56c0,0,6.02,0.53,14.68-7.32c7.84-7.21,13.27-14.61,13.27-14.61
				c6.5-8.09,18.05-25.44,29.2-44.96c0,0,0.35-0.76,1.12-0.02c0,0,4.86,3.21,3.04,11.46c0,0-0.36,3.98-9.84,17.76
				c0,0-11.81,17.48-13.53,28.33c0,0-8.87,31.86,29.84,37.76c0,0,18.09,3.26,34.67-7.36c0,0,11.45-6.86,15.08-17.04
				C608.25,689.82,605.55,687.4,605.55,687.4z M296.15,671.81c-10.89,12.17-14.97,11.35-14.97,11.35c-4.69,0,0.03-10.94,0.03-10.94
				s9.8-24.04,26.21-36.97c0,0,7.29-6.33,13.1-4.71c0,0,4.55,1.43,1.86,6.41C313.84,653.02,296.15,671.81,296.15,671.81z
				 M427.26,671.77c-10.92,12.15-15.24,11.35-15.24,11.35c-4.68,0,0.02-10.94,0.02-10.94s9.81-24.03,26.22-36.99
				c0,0,8.42-6.59,13.42-4.69c0,0,4.22,1.44,1.56,6.43C444.64,652.98,427.26,671.77,427.26,671.77z"/>
			<path id="XMLID_1018_" d="M811.18,658.36c-0.53-0.34-0.77,0.44-0.77,0.44c-3.97,10.72-12.71,20.09-12.71,20.09
				c-15.4,17.92-28.36,17.55-28.36,17.55c-16.55,0-11.06-22.49-11.06-22.49c4.13-17.89,17.57-32.81,17.57-32.81
				c13.34-15.21,26.11-15.03,26.11-15.03c6.8-0.61,9.66,1.88,9.66,1.88c0.62,0.72,1.31-0.56,1.31-0.56
				c0.85-1.54,3.69-3.55,3.69-3.55c3.34-2.29,11.78-1.71,11.78-1.71c1.99,0.22,1.17,1.46,1.17,1.46
				c-6.39,6.69-10.32,14.26-10.32,14.26c-6.86,14.04,0.63,16.46,0.63,16.46s6.66,3.03,17.57-11.51c0,0,6.47-7.68,11.19-17.1
				c0,0,0.57-1.21,0-1.7c0,0-3.73-2.94-2.54-7.77c0,0,0.78-7.88,12.64-14.9c0,0,6.05-3.25,8.19-1.91c1.61,1.02,0.04,3.46,0.04,3.46
				c-4.43,7.36-8.76,14.22-12.39,19.71c0,0-0.47,1.15-0.27,1.82c0,0,0.24,1.83,4.65,7.52c0,0,3.31,3.56,4.67,7.41
				c1.05,2.97,1.59,5.73,0.33,9.58c0,0-0.47,2.92-5.44,10.13c0,0-11.14,15.44-13.14,23.39c0,0-1.23,4.74,1.48,5.49
				c0,0,2.11,1.35,8.15-4.3c0,0,5.68-5.26,14.64-17.73c14.84-20.6,25.62-40.43,25.62-40.43s0.8-0.78,0-1.68c0,0-3.55-3.72-2.29-7.91
				c0,0,0.63-7.45,11.95-14.05c0,0,6.44-3.73,9.13-2.36c1.71,0.83-0.15,3.58-0.15,3.58c-3.7,5.78-7.99,12.6-12.22,19.39
				c0,0-0.63,0.73,0,1.81c1.05,1.82,2.52,3.93,5.13,7.33c0,0,6.25,7.18,4.88,15.73c0,0-1.1,6.14-7.83,16.16
				c0,0-8.41,12.63-11.13,20.59c0,0-15.84,31.68,16.48,37.59c0,0,34.78,6.79,49.5-31.97c0,0,0.47-1,1.41-0.35c0,0,2.34,1.53-1,9.52
				c-4.52,10.85-14.06,16.58-14.06,16.58c-18.67,13.02-37.09,9.22-37.09,9.22c-38.7-5.95-29.02-38.41-29.02-38.41
				c2.6-13.35,12.89-28.31,12.89-28.31c9.85-14.73,10.5-19.57,10.5-19.57c1.58-7.35-3.21-10.74-3.21-10.74
				c-0.75-0.66-1.08,0.08-1.08,0.08c-10.79,17.85-21.44,35.58-29.28,44.78c0,0-5.31,7.82-13.13,15c-8.67,7.91-14.61,6.58-14.61,6.58
				c-11.65-1.58-6.3-19.43-6.3-19.43c3.34-10.71,13.54-23.42,13.54-23.42c7.94-9.93,7.51-14.7,7.51-14.7
				c0.14-5.26-3.05-8.3-3.05-8.3c-0.91-1.15-1.45-0.31-1.45-0.31c-6.09,9.51-9.57,14.77-13.07,18.81c-5.65,6.38-8.35,7.98-8.35,7.98
				C819.09,662.5,811.18,658.36,811.18,658.36z M806.43,655.05c0.24-1.04-0.1-1.61-0.1-1.61c-4.68-10.64,3.19-21.58,3.08-21.38
				c0.48-0.8,0.1-1,0.1-1c-2.07-2.55-7.08-0.37-7.08-0.37c-10.41,4.38-21.54,24.65-21.54,24.65s-8.93,15.43-8.84,25.3
				c0,0-0.07,7.45,6.29,6.8c0,0,6.27,0.46,14.99-9.15C793.31,678.28,804.15,667.51,806.43,655.05z"/>
			<path id="XMLID_1011_" d="M1135.6,665.82c-4.39-5.6-16.46-7.11-16.46-7.11c-14.87-2.91-33.4,0.22-33.4,0.22
				c-0.76,0.1-0.68-0.53-0.68-0.53c-0.28-4.19-0.95-6.51-0.95-6.51c-1.21-13.29,0-17.68,0-17.68c3.89-13.18,17.28-10.2,17.28-10.2
				s1.45,0.4,3.54-0.62c0,0,4.79-2.71,5.42-6.9c0.3-2.16-1.47-1.86-1.47-1.86c-12.68,0.97-30.43,14.73-44.69,27.97
				c-12.57,11.62-23.92,24.57-23.92,24.57c-17.78,19.54-22.61,18.68-22.61,18.68c-2.73-0.33-0.78-5.98-0.78-5.98
				c6.58-18.07,32.35-52.77,32.35-52.77c2.04-2.79-0.33-2.94-0.33-2.94c-8.72-0.96-10.8,1.77-10.8,1.77
				c-1.28,0.63-4.42,5.71-4.42,5.71c-1.09,1.55-1.45,0-1.45,0c-0.46-4.21-4.36-5.01-4.36-5.01c-15.65-4.05-34.26,12.89-34.26,12.89
				c-3.1,2.69-5.9,5.38-8.13,8.24c0,0-4.47,5.14-7.26,8.61c-28.07,35.25-44.71,34.11-44.71,34.11c-14.83,1.4-6.82-19.49-6.82-19.49
				c0.6-1.48,1.21-2.9,1.91-4.31c0,0,0.58-0.93,1.39-0.97c5.06-0.22,21.86-2.55,33.73-12.81c0,0,9.64-7.51,9.64-18.32
				c0,0,0.7-11.38-13.71-10.2c0,0-6.46-0.1-15.89,4.71c-5.85,3.02-12.98,8.81-19.12,16.96c0,0-12.82,16.99-13.32,32.24
				c0,0-2.31,18.44,16.71,17.03c0,0,8.33-0.23,19.84-6.67c7.31-4.06,16.09-11.28,25.1-21.77c0,0,1.81-1.45,0.85,0.4
				c-3.72,7.49-4.51,14.61-4.51,14.61s-1.57,12.32,5.76,12.03c0,0,6.6,0.47,17.33-9.22c0,0,9.38-7.75,16.42-16.37
				c0,0,1.71-0.94,0.76,0.61c0,0-10,17.04-5.63,24.07c0,0,2.78,4.87,14.53-2.08c0,0,11.04-6.28,29.92-28.3
				c0,0,18.28-19.63,30.72-29.11c0,0,2.3-1.87,1.46,0.64c0,0-3.96,13.96-5.97,26.7c0,0-0.05,0.53-0.93,0.75
				c0,0-11.43,1.86-23.74,11.02c-4.69,3.51-10.35,8.67-13.98,14.22c0,0-8.72,12.37-2.96,20.83c0,0,4.5,7.17,21.14,1.13
				c0,0,14.52-6.28,23.05-19.89c0,0,8.36-12.73,7.95-26.17c0,0,0.08-0.64,0.71-0.72c0,0,15.36-3.02,27.74-0.05
				c0,0,17.26,3.58,16.52,14.93c0,0-0.2,10.41-9.86,18.01c0,0-0.96,0.94-0.66,1.37c0,0,0.34,0.7,2.41-0.55
				c0,0,11.95-6.37,15.16-18.32C1138.54,672.06,1137.88,668.78,1135.6,665.82z M931.22,661.62c10.99-22.46,21.52-30.46,21.52-30.46
				c5.6-4.9,9.85-3.25,9.85-3.25c1.95,0.43,1.89,3.4,1.11,5.98c-1.42,4.79-5.75,11.01-5.75,11.01
				c-10.32,15.01-20.92,17.55-26.18,17.67C930.7,662.62,931.22,661.62,931.22,661.62z M1001.96,671.47
				c-10.91,12.21-15.02,11.11-15.02,11.11c-4.7,0,0.06-10.95,0.06-10.95s9.76-24.03,26.14-37.02c0,0,8.14-6.54,13.13-4.63
				c0,0,4.55,1.34,1.9,6.37C1019.56,652.42,1001.96,671.47,1001.96,671.47z M1051.94,704.81c-6.67,4.67-9.91,2.12-9.91,2.12
				c-3.95-3.83,2.41-16.94,2.41-16.94c12.24-22.76,28.52-25.03,28.52-25.03s0.94-0.53,0.64,0.58
				C1065.83,695.73,1051.94,704.81,1051.94,704.81z"/>
			<path id="XMLID_1010_" d="M160.51,628.81c1.17-19.32-22.66-17.94-22.66-17.94c-32.64,1.01-54.69,22.19-65.16,39.29
				c-9.08,14.83-9.81,26.75-9.81,26.75c-6.43,43.65,30.8,46.38,30.8,46.38c38.97,3.72,73.61-36.56,73.61-36.56
				c28.79-30.81,57.73-85.47,57.73-85.47c2.56-3.95,2.06,0.23,2.06,0.23c-0.57,9.2-1.36,21.78-3.36,36.48c0,0-3.6,34.74-4.77,57.65
				c-0.72,14.07-0.55,25.47,3.35,27.9c0,0,2.24,2.26,4.04-2.24c0,0,30.28-70.25,64.47-112.44c0,0,37.69-54.02,96.83-56.26
				c0,0,35.57-0.92,40.29,17.04c0,0,5.11,19.67-30.79,29.59c0,0-27.81,6.67-41.34-4.53c0,0-3.16-2.14-2.5,1.91
				c0,0,2.73,8.2,24.41,8.87c33.4,1.04,52.61-19.65,52.61-19.65c15.23-15.27,3.71-25.66,3.71-25.66c-7.8-8.56-23.4-12-35.55-12.7
				c-14.19-0.8-26.08,1.78-26.08,1.78c-45.05,8.47-77.58,43.26-102.1,80.06c-19.95,30.03-31.11,54.08-31.11,54.08
				c-2.28,5.37-3.6-0.93-3.6-0.93c-1.02-14.65,2.6-46.73,2.6-46.73c5.63-43.02,2.84-67.18,2.84-67.18
				c-1.35-13.86-8.71-13.2-8.71-13.2c-23.46-1.57-36.56,9.95-36.56,9.95s-5.44,4.96-4.06,8.47c0,0,1.33,0.67,2.67-1.03
				c0,0,7.46-11.5,22.37-11.5c0,0,5.21-0.03,7.21,2.72c1.08,1.5,2.05,3.44,2.58,6.6c0,0,0.81,3.07,0.72,10.31
				c0,0-1.33,8.67-2.9,11.5c-4.17,7.46-10.49,20.64-23.51,41.78c0,0-46.07,82.04-97.55,84.1c0,0-38.6,6.08-28.79-47.09
				c0,0,9.38-41.97,50.46-54.85c0,0,27.1-8.14,26.76,13.91c0,0,1.37,10.8-6.44,21.64c0,0-1,3.75,2.73,1.38
				C148,653.21,159.51,645.73,160.51,628.81z"/>
			<path id="XMLID_1008_" d="M698.22,597.93c-10.65-1.55-21.78-4.39-30.61-10.76c0,0-15.69-10.3-5.6-26.07
				c0,0,4.54-7.83,16.76-15.02c12.28-7.27,32.32-13.94,61.49-12.27c0,0,19.08-0.31,53.14,9.67c10.88,3.17,23.31,7.44,37.13,13.05
				c0,0,48.4,21.24,72.97,23.31c0,0,42.25,6.33,51.51-19.89c1.72-4.88-2.59-1.37-2.59-1.37c-4.93,7.99-17.4,11.97-17.4,11.97
				c-19.08,8.19-46.83,1.55-67.9-5.27c-14.09-4.56-26.46-9.34-26.46-9.34c-16.47-6.75-29.21-11.43-41.36-15.12
				c-34.84-10.52-55.57-11.34-55.57-11.34c-47.57-5.12-75,13.15-75,13.15c-27.83,17.45-14.17,37.22-14.17,37.22
				c7.6,13.89,25.42,20.09,39.82,22.44L698.22,597.93z"/>
		</g>
		<g id="XMLID_1001_">
			<path id="XMLID_1002_" d="M1097.95,744.06c-6.94,0-12.53-5.61-12.53-12.56c0-6.94,5.58-12.54,12.53-12.54
				c6.94,0,12.54,5.6,12.54,12.54C1110.49,738.46,1104.89,744.06,1097.95,744.06z M1097.95,720.82c-5.8,0-10.52,4.81-10.52,10.69
				c0,5.89,4.72,10.71,10.52,10.71c5.84,0,10.59-4.82,10.59-10.71C1108.54,725.63,1103.8,720.82,1097.95,720.82z M1101.02,738.35
				l-3.14-5.6h-2.13v5.6h-1.87v-13.74h4.67c2.39,0,4.3,1.82,4.3,4.12c0,2.01-1.21,3.26-2.91,3.78l3.29,5.84H1101.02z
				 M1098.33,726.32h-2.58v4.84h2.58c1.53,0,2.61-1.05,2.61-2.41C1100.94,727.35,1099.86,726.32,1098.33,726.32z"/>
		</g>
	</g>
</g>
</svg>
