<?xml version="1.0" encoding="utf-8"?>
<!-- Generator: Adobe Illustrator 23.0.4, SVG Export Plug-In . SVG Version: 6.00 Build 0)  -->
<svg version="1.1" id="Layer_1" xmlns="http://www.w3.org/2000/svg" xmlns:xlink="http://www.w3.org/1999/xlink" x="0px" y="0px"
	 viewBox="0 0 1200 1200" style="enable-background:new 0 0 1200 1200;" xml:space="preserve">
<g id="XMLID_1_">
	<g id="XMLID_2_">
		<g id="XMLID_77_">
			<path id="XMLID_89_" d="M373.45,352.1c0,5.4,2.23,7.35,8.42,7.35c9.75,0,12.58-5.87,12.58-11.46c0-5.52-4.37-11.19-13.02-11.19
				h-7.98V352.1z M373.45,335.47h8.05c7.08,0,10.66-2.74,10.66-8.33c0-5.02-3.14-9.59-12.23-9.59c-1.62,0-4.65,0.15-6.49,0.21
				V335.47 M367.3,324.44c0-4.08-0.52-6.26-5.7-6.26h-2.56v-1.38c2.06-0.05,7.15-0.32,9.3-0.4c4.06-0.16,9.69-0.22,11.1-0.22
				c6.51,0,12.19,0.94,14.86,2.8c3.03,2.07,4.5,4.49,4.5,7.92c0,4.11-3.49,7.93-8.43,8.79v0.16c6.95,1.99,11.03,6.36,11.03,11.92
				c0,5.7-4.07,13.64-16,13.64h-27.04v-1.38h1.7c6.06,0,7.24-1.36,7.24-5.85V324.44"/>
			<path id="XMLID_86_" d="M471.34,317.55c-13,0-18.2,11.74-18.2,20.35c0,13.39,9.4,22.85,21.32,22.85
				c12.02,0,17.83-10.31,17.83-20.52C492.29,326.9,483.55,317.55,471.34,317.55z M472.91,362.53c-14.52,0-26.7-9-26.7-22.42
				c0-14.27,11.31-24.34,27.04-24.34c13.95,0,25.97,9.23,25.97,22.14C499.23,352.37,487.21,362.53,472.91,362.53"/>
			<path id="XMLID_83_" d="M554.48,356.09c0,2.97,0.21,3.93,6.04,3.93c9.9,0,14.05-1.36,18.66-5.78c2.7-2.57,6.12-8.11,6.12-15.48
				c0-5.28-1.56-11.19-5.91-15.4c-3.42-3.3-8.64-5.79-19.02-5.79c-3.02,0-5.02,0.21-5.89,0.27V356.09z M548.33,323.98
				c0-4.66-1.27-5.8-5.62-5.8h-1.47v-1.38c2.72-0.14,6.36-0.27,10.41-0.4c4.03-0.16,8.58-0.22,12.42-0.22
				c19.51,0,28.15,9.57,28.15,21.43c0,10.81-8.64,23.79-27.34,23.79h-23.65v-1.38h1.24c4.01,0,5.86-1.04,5.86-5.22V323.98"/>
			<path id="XMLID_82_" d="M667.58,345.28h-1.39c-0.58-5.11-2.01-5.64-5.02-5.64h-12.51v15.24c0,3.27,1.25,3.93,3.99,3.93h11.38
				c5.17,0,6.72-1.92,8.62-8.09h1.3l-1.19,10.68h-39.31v-1.38h2.09c5.94,0,6.94-1.56,6.94-5.85v-30.23c0-4.03-0.94-5.75-5.9-5.75
				h-1.62v-1.38h35.47l0.61,9.96h-1.33c-0.96-6.08-2.8-7.37-5.48-7.37h-15.59v17.62h13.24c2.67,0,3.92-1.18,4.28-5.36h1.39V345.28z"
				/>
			<path id="XMLID_81_" d="M761.95,358.02c-7.32,3.66-16.69,4.51-19.78,4.51c-16.21,0-23.77-12.1-23.77-22.57
				c0-10.73,7.77-24.19,25.83-24.19c7.9,0,13.14,2.42,14.71,2.42c0.7,0,1.28-0.15,1.7-0.48h1.03v11.59h-1.45
				c-2-8.93-8.3-11.74-15.17-11.74c-13.03,0-19.7,10.44-19.7,21.97c0,14.71,10.67,21.22,19.17,21.22c3.42,0,7.19-0.73,11.32-2.73
				v-9.03c0-4.08-1.49-5.42-5.91-5.42h-2.74v-1.3h19.96v1.3c-3.7,0.2-5.19,1.43-5.19,4.51V358.02z"/>
			<path id="XMLID_78_" d="M829.39,321.78l-6.28,16.68h12.79L829.39,321.78z M821.88,341.6l-4.31,11.27
				c-0.51,1.36-1.48,3.51-1.48,4.52c0,1.94,1.94,2.62,6.02,2.62h1.16v1.38h-17.09v-1.38c4.79-0.07,5.64-0.85,8.02-7.06l13.44-35.62
				l-0.68-1.57h6.45l15.46,39.76c1.45,3.81,3.01,4.49,6.7,4.49v1.38h-20.33v-1.38h1.93c4.21,0,5.77-0.43,5.77-2.4
				c0-1.17-0.51-2.25-0.83-2.97l-4.94-13.04H821.88"/>
		</g>
		<path id="XMLID_74_" d="M446.88,454.69c-0.56-1.24-1.18-2.45-1.82-3.64c-0.12-0.23-0.23-0.46-0.36-0.68
			c-0.42-0.76-0.85-1.5-1.3-2.24c-2.01-3.38-4.26-6.58-6.76-9.54c-0.29-0.34-0.58-0.67-0.87-1.01c-0.39-0.46-0.78-0.91-1.18-1.35
			c-0.4-0.45-0.81-0.9-1.22-1.34c-3.08-3.34-6.32-6.29-9.74-8.87c-0.6-0.46-1.2-0.92-1.82-1.36c-0.09-0.06-0.18-0.13-0.27-0.19
			c-11.16-7.96-24.09-12.58-38.22-13.51c-22.33-1.44-45.55,6.83-62.06,22.16c-35.1,31.29-41.02,81.46-13.48,114.23
			c3.05,3.63,6.39,6.91,9.95,9.86c0.16,0.13,0.32,0.27,0.47,0.4c0.66,0.54,1.33,1.06,2.01,1.57c0.32,0.25,0.65,0.5,0.97,0.74
			c0.64,0.47,1.3,0.93,1.95,1.38c0.32,0.22,0.64,0.44,0.96,0.66c0.88,0.58,1.77,1.15,2.67,1.69c0.02,0.01,0.03,0.02,0.04,0.03
			c10.05,6.09,21.44,9.81,33.5,10.78c2.15,0.17,4.3,0.26,6.45,0.26c20.08,0,39.74-7.51,55.96-21.49
			C456.18,524.34,460.63,484.16,446.88,454.69z M324.66,529.2c-16.73-26.52-15.48-70.25,3.13-88.72
			c12.43-12.33,26.06-15.49,36.73-15.49c2,0,3.89,0.11,5.65,0.29c17.37,1.78,34.32,11.59,45.12,25.89c0.34,0.45,0.67,0.92,0.99,1.38
			c0.4,0.55,0.8,1.1,1.18,1.67c0.87,1.32,1.72,2.68,2.53,4.08c0.11,0.18,0.21,0.37,0.31,0.55c0.85,1.49,1.67,3.02,2.45,4.6
			c0.64,1.29,1.22,2.6,1.8,3.92c12.57,29.29,6.97,62.4-8.37,78.42c-10.57,11.03-24.17,16.3-39.23,15.17
			c-17.91-1.32-37.12-11.96-48.75-26.77C326.95,532.59,325.77,530.92,324.66,529.2z"/>
		<circle id="XMLID_73_" cx="807.12" cy="438.94" r="0.09"/>
		<circle id="XMLID_72_" cx="898.55" cy="547.24" r="0.09"/>
		<path id="XMLID_71_" d="M581.34,535.51c0,0-27.32-44.61-26.67-44.71c15.86-3.04,36.16-15.84,36.68-36.45
			c0.83-32.03-26.8-38.8-40.74-38.8h-75.71v5.24l-0.02,0.55c6.03,0.16,10.98,1.64,13.94,4.18c2.62,2.27,3.95,7.24,3.95,14.8V545.2
			c0,7.06-1.21,11.96-3.6,14.56c-2.49,2.63-7.17,4.16-13.21,4.4c-0.36,0.01-0.7,0.03-1.08,0.04v0.01h0l0,0.6v5.19
			c24.47,0,29.56-4.95,29.56-4.95s6.27,4.95,29.39,4.95v-5.79c-12.25-0.33-18.37-3.27-18.37-18.99V426.12
			c7.12-3.25,15.56-3.24,21.73-3.23l1.12,0c6.48,0,15.75,2.43,22.35,9.26c5.74,5.94,8.48,14.15,8.14,24.42
			c-0.01,0.91-0.08,1.78-0.15,2.66c-0.42,4.43-1.5,8.29-3.09,11.63c-0.31,0.63-0.61,1.26-0.96,1.85c-0.03,0.05-0.05,0.1-0.08,0.15
			c-2.07,3.52-4.78,6.47-7.87,8.89c-0.11,0.08-0.22,0.17-0.33,0.25c-0.28,0.22-0.58,0.41-0.87,0.62
			c-8.11,5.59-18.57,7.45-27.45,6.96l42.52,70.05c4.47,6.93,12.22,10.36,17.95,10.36h26.35v-5.79
			C604.57,563.65,593.41,554.12,581.34,535.51z"/>
		<circle id="XMLID_70_" cx="807.12" cy="438.94" r="0.09"/>
		<circle id="XMLID_69_" cx="898.55" cy="547.24" r="0.09"/>
		<path id="XMLID_68_" d="M752.4,423.99c2.89-2.63,2.58-8.52,2.58-8.52h-3.71l0,0h-5.02h-37.21v0l-37.87,0v0h-44.91
			c0,0-0.28,4.28,2.46,8.52c-4.58,6.45-4.91,34.72-4.91,34.72h8.39c0.72-23.14,10.57-34.74,34.96-34.74h4.02v-0.01
			c0.11,0,0.21,0.01,0.32,0.01h7.28v121.24c0,6.96-1.16,11.74-3.43,14.2c-1.34,1.41-5.38,4.69-13.88,4.79l-1.03,0.01v5.79h1.04v0
			c0.02,0,0.04,0,0.06,0h0.98v-0.01c19.78-0.17,28.69-4.94,28.69-4.94s5.01,4.79,28.13,4.94v0.01h0.97c0.02,0,0.04,0,0.07,0v0h1.04
			v-5.77l-1.02-0.02l-0.02,0v0c-0.08,0-0.15-0.01-0.23-0.01c-11.18-0.32-17.09-6.87-17.09-18.98V423.97h5.53
			c3.56,0,7.06,0.12,10.43,0.31c21.89,1.89,30.38,13.36,30.63,34.43h8.36C758.01,458.71,758.46,429.61,752.4,423.99z"/>
		<path id="XMLID_65_" d="M928.7,454.74c-0.58-1.29-1.22-2.55-1.89-3.79c-0.1-0.18-0.19-0.37-0.29-0.55
			c-0.42-0.77-0.86-1.53-1.32-2.28c-2-3.37-4.25-6.56-6.75-9.53c-0.28-0.34-0.58-0.66-0.86-0.99c-0.4-0.47-0.8-0.93-1.2-1.38
			c-0.39-0.44-0.79-0.88-1.19-1.31c-3.09-3.36-6.36-6.32-9.79-8.91c-0.58-0.45-1.17-0.89-1.76-1.32c-0.1-0.07-0.21-0.14-0.31-0.22
			c-11.16-7.95-24.08-12.57-38.19-13.5c-22.37-1.45-45.55,6.83-62.06,22.16c-35.1,31.29-41.02,81.46-13.48,114.23
			c3.02,3.6,6.33,6.85,9.87,9.79c0.2,0.16,0.39,0.33,0.59,0.49c0.63,0.51,1.27,1.01,1.92,1.5c0.35,0.27,0.71,0.55,1.07,0.81
			c0.62,0.45,1.24,0.89,1.87,1.32c0.35,0.24,0.69,0.48,1.04,0.71c0.86,0.57,1.73,1.12,2.61,1.65c0.03,0.02,0.07,0.04,0.1,0.06
			c10.05,6.08,21.43,9.81,33.48,10.77c2.15,0.17,4.3,0.26,6.44,0.26c20.08,0,39.74-7.51,55.96-21.49
			C937.97,524.38,942.43,484.22,928.7,454.74z M810.46,534.81c-0.12-0.15-0.22-0.3-0.34-0.45c-1.3-1.66-2.51-3.38-3.65-5.14
			c-16.73-26.52-15.47-70.25,3.14-88.7c12.43-12.33,26.06-15.49,36.73-15.49c2,0,3.89,0.11,5.65,0.29
			c17.37,1.78,34.32,11.59,45.12,25.9c0.33,0.44,0.65,0.89,0.97,1.35c0.4,0.57,0.82,1.13,1.2,1.71c0.87,1.31,1.71,2.67,2.52,4.06
			c0.11,0.19,0.22,0.39,0.33,0.58c0.84,1.48,1.66,3.01,2.44,4.58c0.64,1.29,1.22,2.59,1.8,3.9c12.58,29.29,6.98,62.42-8.36,78.43
			c-10.57,11.03-24.16,16.28-39.23,15.17c-17.65-1.3-36.58-11.65-48.26-26.13C810.49,534.85,810.47,534.83,810.46,534.81z"/>
		<path id="XMLID_62_" d="M248.64,387.45c-10.17-5.13-32.14-3.92-32.14-3.92v6.98v0.78c19.4,0,25,2.77,25,64.98v66.81L136.77,383.53
			H88.58v5.95l-0.04,1.82c8.74,0.21,13.74,3.31,15.93,5.13c2.94,2.48,4.43,7.8,4.43,15.83v81.51c0,66.24-2.47,68.46-25,68.46v0.78h0
			v6.99c0,0,21.99,1.5,31.01-4.46c9.8,5.57,31.86,4.46,31.86,4.46v-6.99h0v-0.78c-22.15,0-24.98-2.51-24.98-67.9l0.23-85.2
			l124.95,167.46h6.34h1.82V456.45c0-60.55,3.78-65.39,24.98-65.39v-3.64v-3.88C280.11,383.53,260.01,382.32,248.64,387.45z
			 M120.2,406.68L120.2,406.68L120.2,406.68L120.2,406.68z"/>
		<path id="XMLID_59_" d="M1089.76,418.54c-11.81-4.17-26.76-2.99-26.76-2.99v5.78h0v0.51c14.31,0,20.64,2.18,20.64,54.01v55.42
			l-86.22-115.73h-1.32h0h-38.66v4.71l-0.05,1.85c6.92,0.18,11.12,2.84,13.01,4.41c2.35,1.93,3.59,6.37,3.59,12.84v67.52
			c0,56.55-2.72,56.55-20.39,56.55v3.64h0v2.92c0,0,20,0.72,26.13-4.31c5.16,4.93,26.33,4.31,26.33,4.31v-2.93h0v-3.64
			c-17.64,0-20.36,0-20.36-56.08V437.2l102.55,138.26h4.06h3.12v-99.5c0-46.53,2.9-54.12,20.66-54.12v-0.51v-5.78
			C1116.1,415.54,1103.24,414.37,1089.76,418.54z M983.88,434.75L983.88,434.75L983.88,434.75L983.88,434.75z"/>
		<g id="XMLID_3_">
			<path id="XMLID_56_" d="M329.77,771.86c0,1.4,0.11,1.9,3.11,1.9c5.04,0,7.18-0.69,9.51-2.86c1.41-1.22,3.16-3.91,3.16-7.48
				c0-2.56-0.79-5.44-3.03-7.43c-1.75-1.63-4.44-2.87-9.69-2.87c-1.56,0-2.58,0.13-3.05,0.17V771.86z M326.65,756.26
				c0-2.27-0.65-2.84-2.88-2.84h-0.76v-0.62c1.39-0.08,3.26-0.13,5.33-0.22c2.08-0.07,4.39-0.1,6.35-0.1
				c9.95,0,14.39,4.66,14.39,10.39c0,5.28-4.44,11.51-13.97,11.51h-12.1v-0.61h0.64c2.04,0,3-0.53,3-2.54V756.26"/>
			<path id="XMLID_55_" d="M372.98,767.36h-0.66c-0.29-2.21-0.91-2.47-2.3-2.47h-5.75v6.64c0,1.43,0.58,1.73,1.83,1.73h5.25
				c2.4,0,3.07-0.86,3.95-3.51h0.58l-0.51,4.6h-18.05v-0.56h0.97c2.68,0,3.18-0.72,3.18-2.56v-13.19c0-1.74-0.46-2.49-2.68-2.49
				h-0.8v-0.6h16.32l0.25,4.34h-0.58c-0.45-2.63-1.29-3.19-2.53-3.19h-7.17v7.63h6.11c1.22,0,1.77-0.51,1.95-2.32h0.66V767.36z"/>
			<path id="XMLID_54_" d="M384.94,769.61c0.73,2.8,3.1,4.46,5.75,4.46c2.28,0,4.7-1.22,4.7-3.69c0-4.54-10.9-5.88-10.9-11.34
				c0-2.63,2.54-4.52,6.02-4.52c2.87,0,3.44,0.78,4.64,0.78c0.28,0,0.41-0.08,0.61-0.32h0.52l0.6,3.95h-0.6
				c-0.95-2.23-3.12-3.7-5.46-3.7c-2.27,0-3.79,1.18-3.79,2.98c0,4.41,10.89,5.59,10.89,11.35c0,3.08-2.97,5.34-6.93,5.34
				c-1.86,0-4.25-0.82-4.7-0.82c-0.32,0-0.56,0.12-0.7,0.29h-0.57l-0.73-4.75H384.94z"/>
			<path id="XMLID_51_" d="M411.47,772.09c0,1.29,0.12,1.72,2.79,1.72c4.56,0,6.46-0.6,8.57-2.54c1.26-1.09,2.83-3.54,2.83-6.74
				c0-2.33-0.71-4.85-2.73-6.73c-1.55-1.41-3.97-2.51-8.71-2.51c-1.41,0-2.33,0.08-2.75,0.11V772.09z M408.67,758.06
				c0-2.01-0.56-2.49-2.61-2.49h-0.65v-0.6c1.27-0.07,2.93-0.16,4.78-0.18c1.84-0.07,3.94-0.11,5.68-0.11
				c8.98,0,12.96,4.2,12.96,9.38c0,4.68-3.98,10.31-12.56,10.31h-10.87v-0.56h0.57c1.83,0,2.68-0.48,2.68-2.31V758.06"/>
			<path id="XMLID_50_" d="M451.91,767.36h-0.65c-0.25-2.21-0.94-2.47-2.3-2.47h-5.73v6.64c0,1.43,0.54,1.73,1.8,1.73h5.25
				c2.36,0,3.08-0.86,3.92-3.51h0.62l-0.52,4.6h-18.05v-0.56h0.96c2.71,0,3.2-0.72,3.2-2.56v-13.19c0-1.74-0.44-2.49-2.75-2.49
				h-0.76v-0.6h16.34l0.25,4.34h-0.59c-0.48-2.63-1.3-3.19-2.55-3.19h-7.12v7.63h6.08c1.2,0,1.78-0.51,1.94-2.32h0.65V767.36z"/>
			<path id="XMLID_49_" d="M778.18,752.27v20.14c0,1.04,0.22,1.34,1.4,1.34h2.12v0.61h-9.53v-0.61h2.05c1.22,0,1.43-0.35,1.43-1.39
				v-17.32c-1.22,0.95-3.32,2.26-4.72,2.83l-0.3-0.44c2.18-1.39,5.31-4.01,6.24-5.16H778.18z"/>
			<path id="XMLID_45_" d="M809.2,752.88c-2.61,0-4.65,1.74-4.65,3.93c0,1.92,1.12,3.33,6.03,5.17c2.11-1.15,3.18-2.79,3.18-4.74
				C813.77,754.72,811.84,752.88,809.2,752.88z M808.25,763.81c-2.58,1.29-3.85,3.02-3.85,5.26c0,3.01,2.13,5.17,4.99,5.17
				c2.85,0,4.99-2.08,4.99-4.78C814.37,767.1,812.66,765.66,808.25,763.81 M811.12,762.34c4,1.6,5.65,3.45,5.65,6.16
				c0,3.59-3.24,6.38-7.39,6.38c-4.14,0-7.37-2.54-7.37-5.7c0-2.43,1.83-4.34,5.51-5.71c-3.59-1.49-5.17-3.22-5.17-5.61
				c0-3.05,3.11-5.6,6.87-5.6c3.81,0,6.82,2.21,6.82,4.98C816.04,759.48,814.43,761.11,811.12,762.34"/>
			<path id="XMLID_42_" d="M841.78,764.84c1.22,0,3.34-0.76,5.03-2.13c0.1-0.41,0.15-0.97,0.15-2.12c0-5.71-2.64-7.72-5.14-7.72
				c-2.66,0-4.45,2.18-4.45,6.06C837.37,762.7,839.29,764.84,841.78,764.84z M836.75,774.35c5.88-2.21,9.02-5.64,9.85-10.71
				c-2.02,1.46-3.51,2.02-5.37,2.02c-3.68,0-6.66-2.84-6.66-6.39c0-3.81,3.3-7,7.36-7c4.63,0,7.87,3.71,7.87,8.98
				c0,6.44-4.72,11.6-12.63,13.63L836.75,774.35"/>
			<path id="XMLID_41_" d="M869.71,752.72h8.95c0.71,0,0.93-0.15,1.11-0.45h0.74l-0.44,2.7h-9.55l-0.33,6.25
				c1.21-0.6,2.57-0.89,4.12-0.89c4.22,0,7.72,3.24,7.72,7.14c0,4.17-3.81,7.4-8.87,7.4c-3.02,0-5.51-0.97-5.51-2.14
				c0-0.65,0.55-1.15,1.23-1.15c2.06,0,2.79,2.48,5.17,2.48c2.79,0,5.21-2.69,5.21-5.87c0-3.18-2.43-5.55-5.67-5.55
				c-1.41,0-2.89,0.52-4,1.3l-0.4-0.22L869.71,752.72z"/>
			<g id="XMLID_4_">
				<path id="XMLID_40_" d="M598.25,770.17c-0.35,0.53-0.65,1.16-0.87,1.74L598.25,770.17z"/>
				<path id="XMLID_5_" d="M719.01,744.93c-9.72-11.19-6.43-23.92-6.43-23.92c2.53-24.45-18.28-29.96-18.28-29.96
					c-13.84-4.06-17.57-17.29-17.57-17.29c-8.09-22.53-29.9-18.08-29.9-18.08c-14.49,3.23-23.83-5.62-23.83-5.62
					c-10.76-9.17-24.57-8.91-35.87,0.22c-11.26,9.23-23.15,5.81-23.15,5.81c-26.69-3.76-31.86,19.82-31.86,19.82
					c-5.83,13.08-16.97,15.49-16.97,15.49c-21.4,7.98-17.74,30.06-17.74,30.06c3.42,16.67-6.2,25.37-6.2,25.37
					c-14.49,17.4-0.77,34.36-0.77,34.36c11.96,12.33,7.48,25.69,7.48,25.69c-2.25,23.72,18.08,29.4,18.08,29.4
					c15.2,4.76,17.95,18.16,17.95,18.16c8.53,21.22,29.4,17.26,29.4,17.26c14.71-3.39,24.08,5.87,24.08,5.87
					c18.99,14.83,34.88,0.28,34.88,0.28c10.63-10.78,24.34-7.27,24.34-7.27c24.58,4.16,31.49-17.77,31.49-17.77
					c3.71-13.01,17.59-17.36,17.59-17.36c21.52-7.7,17.26-30.61,17.26-30.61c-3.66-14.37,5.66-24.08,5.66-24.08
					C734.15,761.98,719.01,744.93,719.01,744.93z M604.78,670.64c25.58,0,49.28,10.81,66.49,29.39
					c-17.95-15.03-41.62-22.37-66.49-22.37c-24.86,0-48.54,7.34-66.52,22.4C555.47,681.46,579.21,670.64,604.78,670.64z
					 M655.55,730.81c0.85,1.36-0.06,2.94-0.06,2.94s-0.25-0.21-1.8-0.75c-0.87-0.34-1.91-2.27-2.5-2.91
					c0.4-0.61,2.45-1.04,2.45-1.04s0.1-0.2-0.68-1.6c-0.47-1.47-1.35-2.63-0.41-4.33c0.73-1.36,1.49-0.93,1.49-0.93
					s0.32,0.01,1.08,1.55c0.58-0.98,2.08-1.9,2.51-1.32c0.41,0.58,1.44,1.36,2.21,1.41c-0.58,1.25-2.15,1.11-2.82,1.23
					c-1.27,0.23-0.74,1.66,0.18,1.36c0.93-0.32,1.36-0.92,2.86-0.49c1.49,0.43,2.54,2.96,2.72,5.06c-0.78-0.42-1.98-0.13-3.17,0.74
					c-1.18,0.88-2.04-0.27-2.35-0.97c-0.32-0.69-0.21-1.24-0.78-1.63C655.9,728.73,654.7,729.48,655.55,730.81z M646.89,730.32
					c1.36-0.04,1.55-0.32,2.3,0.19c1.95,1.45,1.73,7.51,0.44,9.81c-0.79-1.59-3.2-1.44-5.94-2.03c-2.74-0.54-1.66-3.14-1.29-3.91
					c0.38-0.77-0.44-1.41-1.01-1.41c-0.57,0-0.95,0.32-0.68,1.26c0.29,0.94-0.12,1.82-1,2.53c-0.9,0.72-1.19,1.45-1.19,1.45
					s-0.14-0.47-0.68-1.02c-0.56-0.57-1.19-0.97-1.48-1.79c-0.62-2.04,1.05-2.29,1.75-2.44c0.7-0.14,1.09-0.83,0.9-1.24
					c-0.22-0.4-0.68-0.88-1.6-0.25c-0.94,0.66-1.69,0.7-2.5,0.62c-1.14-4.47,1.93-6.15,3.76-6.03c1.43,0.07,2.23-0.06,2.23-0.06
					s0.05-0.19,0.16-0.59c1.23-2.19,4.31-4.32,4.31-4.32c0.4,0.98,1.4,2-0.38,3.9c-0.35,0.42-0.35,1.18-0.12,1.43
					c0.43,0.44,0.84,0.25,1.06-0.02c0.37-0.82,0.49-1.73,1.66-1.91c1.9-0.55,3.05,2.14,3.64,4.09c-0.89,0.44-3.22,0.65-3.91,0.21
					c-0.68-0.43-1.58-0.4-1.79,0.07C645.35,729.38,645.49,730.34,646.89,730.32z M634.66,745.83c-1.41,0.62-2.37-0.58-2.46-1.04
					c-0.25,1.35,0.47,2.37,1.61,2.27c0.4,1.31-0.48,3.08-2.34,2.95c-1.88-0.12-3.15-1.88-2.39-3.61c-2.4,0.15-2.16-1.57-2.16-1.57
					s2.05,0.6,2.1-1.76c-1.22,0.64-2.76,0.4-3.5-0.3c-2.04-1.99-0.5-3.49-0.5-3.49c1.53,0.36,2.12-1.06,2.53-2.41
					c-2.01,1.87-5.32,1.13-5.9-1.69c-0.6-2.86,1.87-3.64,1.87-3.64v-0.01c0.63-0.35,0.2-1.42,0.2-1.42
					c-0.07-0.28-0.64-2.56,1.4-3.65c1.32-0.71,2.55-0.38,3.33,0.09c0.68,0.44,0.97,0.97,0.97,0.97c0.19-0.58,0.99-0.89,1.57-0.25
					c1.12-1.9,2.6-1.4,3.26-0.87c-2.54,1.61-2.11,4.2-2.11,4.2l0.31,3.13l1.73,0.13c0,0-1.62,2.53,1.33,4.78
					c1.16,0.96,1.1,1.55,1.1,1.55s0.22-0.1,0.47-0.2c0.24-0.1,0.37-0.11,0.37-0.11s0.3,0.32,0.34,0.88c0.06,1.08-0.4,2.74-2.47,2.68
					C635.76,744.03,635.67,745.41,634.66,745.83z M620.73,718.28c-2.59,0-2.66-3.53-1.91-4.4c0.76-0.89,1.75-1.52,1.75-1.52
					s0.33,2,0.87,2.45c0.52,0.46,1.68-0.29,1.22-0.93c-0.45-0.65-0.68-2.64-0.38-3.2c1.27-1.08,2.44-1.55,2.44-1.55l0.4,1.44
					c0,0,1.43,1.63,0.58,2.93c-0.47,0.7-1.17,1.51-0.55,1.75c0.61,0.21,1.06,0.15,1.68-1.14c0.62-1.28,1.63-2.04,2.58-0.97
					c0.9,1.11,3.41,1.98,4.81,1.82c-0.02,0.49-0.78,2.81-1.81,4.45c-1.03,1.62-3.55,0.71-4.4,0.33c-1.41-0.63-1.24,1.3-0.64,1.41
					c1.18,0.21,1.98,0.92,2.25,1.83c-0.9,0.13-1.87,1.49-2.73,1.49c-1.48,0.13-1.54-1.62-1.39-2.38c0.17-0.79-0.68-1.22-0.93-1.19
					c-0.24,0.02-1.1,0.67-0.86,1.33c0.54,1.2,0.03,2.36-0.98,3.27c-0.39-1.07-2.53-2.76-2.32-4.53c0.18-1.44,1.95-2.5,1.95-2.5
					S621.31,718.28,620.73,718.28z M611.1,721.53c-0.32,0.33-2.72,0.94-2.82-0.93c-0.1-1.9-0.39-2.78-0.39-2.78s1.58,0.27,3.05,0.8
					c-2.76-2.41-1.51-5.86,0.78-8.21c0.86,0.93,1.45,1.55,2.45,1.95c2.49,1,1.26,5.09,3.34,6.6c0.36,0.27,1.02,0.72,0.91,1.08
					c-0.32,1.1,0,2.36,0.88,3.38c-1.13,1.01-2.5-0.76-2.76-1.62c-0.25-0.86,0,0.56-2.3,2.36c-1.29,0.61-2.05,0.28-3.59,0.41
					c-0.06-1.8,1.76-2.52,1.76-2.52S612.35,720.52,611.1,721.53z M612.51,705.39c0.16-1.58-0.77-2.83-0.77-2.83
					c3.44-2.19,5.31,0.17,5.54,1.1c0.22,0.92,0.3-0.4,0.71-1.1c0.38-0.71,1.51-0.58,2.06-0.96c0.25,0.74,0.35,2.61,0.35,4.16
					c0,0.9,0.47,1.51,1.05,1.86c0.43,0.26-0.23,1.19-1.27,1.32c0,0-0.73,0.17-0.86,0.87c-0.3,1.52-2.34,2.01-2.99,1.66
					c-0.44-0.16-1.31-0.61-2.11-1.22c-0.77-0.62-1.19-0.95-1.19-0.95s0.42-0.32,1.29-1.22C613.1,708.33,612.35,706.98,612.51,705.39
					z M625.59,698.94c0.97-0.36,1.93-0.94,1.93-0.94s-0.45,2.04-0.39,2.87c0.06,0.85,1.2,0.94,1.57-0.34
					c0.85-1.82,3.4-1.83,5.22-0.36c-0.29,0.26-1.09,1.1-0.97,2.6c0.13,1.53-0.26,2.31-0.26,2.31c-0.43,0.8-1.94,1.32-1.94,1.32
					s1.24,1.18,1.89,2.14c-0.37,0.17-0.99,0.51-1.55,1.08c-0.33,0.3-0.77,0.86-1.86,1.45c-1.66-0.19-1.94-0.6-2.5-1.45
					c-0.56-0.89,0.26-2.8,0.26-2.8s-1.43-0.01-2.01,0c-1.78,0.07-2.9-1.26-2.9-2.26c0-1.01-0.11-2.55-0.11-2.55s1.08-0.29,2.3,0.42
					C623.11,700.42,624.64,699.28,625.59,698.94z M635.89,705.71c-1.92-0.64-0.82-3.47-0.82-3.47s1.46,0.22,2.18,0.71
					c0.64,0.42,0.69-0.13,0.25-1.14c-0.43-1.01,0.73-1.59,2.05-1.65c1.33-0.05,2.05-1.19,2.05-1.19c2.55,4.17,0.46,4.97,0.46,4.97
					s0.86,0.51,1.91,0.09c0.24,2.58-2.04,3.27-2.04,3.27s0.49,0.96,0.16,1.73c-3.08,1.09-1.42-1.22-3.06-1.37
					c-0.76-0.06-1.25,1.65-3.73,1.48c-2.18-0.34-1.43-2.06-1.26-2.57C635.28,707.71,636.85,706.02,635.89,705.71z M643.55,719.25
					c-2.38,5.09-3.72,4.36-4.41,2.4c-0.17-0.49-0.67-0.78-1.03-0.74c-0.38,0.08-0.82,0.98-0.54,1.41c0.27,0.43,1.72,1.19,0.7,1.95
					c-1.01,0.76-3.39,0.87-4.58-0.74c-0.61-0.85-1.96-1.29-1.58-2.08c1.88-1.06,2.51-3.43,2.51-3.43s0.84-2.32,1.1-4.1
					c-2.94,0.24-4.56-1.41-4.56-1.41c0.52-0.97,2.47-2.36,2.47-2.36s0.54,0.4,1.65,2.37c0.68-2.49,3.02-1.97,4.06-1.73
					c1.03,0.21,3.09,0.72,3.7-0.21c0.81,1.74,2.19,5.51-0.57,6.59c-0.77,0.32-1.59,0.24-1.66,1.54
					C641.79,718.3,642.72,718.9,643.55,719.25z M649.07,710.72c-0.38-0.46-0.99-0.77-1.07-2.19c-0.12-1.4,0.83-1.97,3.05-2.77
					c0.1,1.11,2.06,2.37,1.41,3.33c-0.65,0.96-1.35,1.68-0.87,2.02c0.46,0.35,1.08,0.75,1.62-0.23c0.72-1.69,2.82-2.44,3.85-1.32
					c1.03,1.11,2.4,2.17,4.02,1.76c-0.61,4.73-4.35,6-5.61,5.49c-1.28-0.5-1.6-0.85-1.37,0.11c0.25,0.96,2.32,2.01,2.32,2.01
					s-0.89,0.05-1.97,0.8c-1.05,0.73-2.51,0.96-3.77-0.8c0.14,1.12-1.22,3.5-1.22,3.5c-0.29,0.11-1.37-1.27-2.62-2.27
					c-1.4-1.07-3.25-4.41-0.5-4.3c0,0,1.5-0.04-0.16-0.87c-3.02-3.65-0.12-6.32-0.12-6.32s0.63,0.5,1,1.36
					c0.36,0.85,0.3,0.89,0.86,1.59C648.48,712.36,649.48,711.18,649.07,710.72z M600.81,727.75c-3.4,2.36-4.22-0.55-4.55-2.15
					c0.86-0.14,2.75-0.51,2.75-0.51s-1.63-1.97,0.34-3.52c0.63-0.56,0.8-1.51,0.8-1.51s0.81,1.11,0.89,1.95
					c0.72-2.45,2.63-2.57,3.87-2.53c1.24,0.04,1.35-0.57,1.35-0.57s0.29,2.55-0.18,3.98c-0.56,1.71-0.77,2-2.21,2.99
					C602.43,726.86,602.11,726.72,600.81,727.75z M593.46,721.49c-0.51-0.27-1.92-0.11-1.48,0.7c0.43,0.81,0.3,2.52,0.3,2.52
					s-1.37,0.14-2.59-0.28c-2.86-1.04-0.94-3.56-0.94-3.56s-0.34,0.17-2.12-0.4c-1.76-0.59-2.02-3.01-1-3.85
					c1.02-0.83,0.96-2.09,0.96-2.09s0.5,0.97,0.93,1.8c0.46,0.85,1.39,0.38,1.68-0.03c0.28-0.43,0.24-1.23-0.58-1.45
					c-0.79-0.21-1.11-0.54-1.29-1.17c-0.19-0.62,0.14-1.74,1.14-2.09c0.97-0.33,1.79-0.66,2.88-1.96c0.18,0.18,1,2.46,0.47,3.2
					c-0.51,0.73-0.47,1.59,0.26,1.7c0.73,0.11,1.12-0.57,1.32-0.92c0.18-0.37,0.04-1.79,2.27-2.09c3.12-0.52,5.77,1.72,5.77,1.74
					c0,0.08-1.39,1.09-1.39,2.7c0,1.62-1.03,2.89-2.17,3.24c-1.14,0.32-1.78-0.89-3-1.05c-1.21-0.2-1.59,1.97-0.17,1.87
					c1.43-0.11,1.77,0,2.09,0.74c0.34,0.74,0.1,0.92,0.66,1.63c-1.35,1.22-3.17,1.9-3.66,1.01
					C593.33,722.52,593.97,721.74,593.46,721.49z M584.16,721.75c-0.86,1.41-3.38,0.96-3.38,0.96s-0.19-0.3-0.03-0.96
					c0.17-0.66,0.44-1.45-0.61-1.72c-1.07-0.26-1.25,0.7-0.9,1.68c0.56,1.61-3.9,0.83-3.9,0.83s0.19-0.6,0.83-1.6
					c0.67-0.98,1.94-0.79,1.4-2.04c-0.72-0.71-1.27-0.36-2.14,0.55c-0.92,0.94-2.4,0.15-3.32-1.76c-0.93-1.9-2.06-2.98-2.06-2.98
					c3.02-2.61,4.18-1.95,5.28-1.43c1.1,0.5,1.28,1.06,2.07,1.37c0.44,0.13,1.08-0.72,0.34-1.52c-0.7-0.82-0.8-1.64-1.02-2.45
					c0.68,0.37,1.08,0.14,3.2,0.14c2.12,0,2.16,2.11,1.65,2.45c-0.51,0.34-0.82,0.99-0.25,1.19c0.58,0.22,1.31,0.19,1.59-0.62
					c0.45-1.19,0.92-1.23,1.56-1.58c2.05,3.38-0.81,4.7-1.37,4.67C583.62,718.53,585.02,720.35,584.16,721.75z M584.88,736.13
					c0,0.87-0.27,1.64-0.79,2.28c-0.61,0.83-1.34,1.23-2.05,1.44v-0.02c-0.17,0.04-0.32,0.07-0.45,0.1
					c-0.67,0.1-1.26,0.03-1.66-0.06c-0.16-0.03-0.31-0.07-0.46-0.13c0.44,0.72,1.03,1.48,1.95,1.48c0.32,0,0.93,0.02,1.22-0.08
					c0.13,0.36,0.13,0.4,0.13,0.82c0,1.73-1.28,3.23-2.95,3.56c0.11,0.32,0.21,0.64,0.21,1.02c0,1.55-1.32,2.85-2.97,2.85
					c-1.62,0-2.97-1.3-2.97-2.85c0-0.43,0.24-0.51,0.4-0.87c2.73-0.17,2.83-2.7,2.83-2.7h-0.01c-0.24,0.29-0.48,0.54-0.79,0.75
					c-0.36,0.26-0.78,0.42-1.24,0.52c-0.24,0.08-0.51,0.1-0.76,0.1c-1.91,0-3.47-1.48-3.47-3.33c0-0.58,0.15-1.14,0.43-1.62
					c0.06-0.04,0.1-0.07,0.16-0.15c-0.02-0.01-0.04-0.01-0.04-0.01c-0.42-0.29-0.93-0.67-1.32-1.68c-0.21-0.45-0.32-0.97-0.32-1.48
					c0-0.67-0.04-0.51,0.27-1.09c0.05-0.13,0.12-0.25,0.12-0.25c0.22,0.12,0.5,0.19,0.74,0.25c0.02,0-0.02,0-0.02,0
					c0.07,0.03,0.13,0.03,0.19,0.06c0.16,0.02,0.34,0.03,0.49,0.03c0.06,0,0.1,0,0.13,0c0.87,0,1.65-0.38,2.22-0.9
					c0.1-0.11,0.43-0.96,0.51-1.07c-0.05,0.02-0.08,0.04-0.14,0.06c-0.21,0.11-0.41,0.19-0.63,0.25c-0.37,0.1-0.76,0.11-1.11,0.13
					h-0.02c-0.06,0-0.09-0.02-0.15-0.02c-0.09,0-0.16,0-0.25,0c-0.05,0-0.07,0-0.11-0.01c-0.86-0.1-1.6-0.4-2.19-0.91
					c-0.05-0.03-0.1-0.07-0.13-0.11c-0.05-0.04-0.1-0.08-0.15-0.13c-0.45-0.44-0.83-0.95-1.06-1.56c0,0,0,0,0-0.03
					c-0.81-2.06-0.05-4.67,3-5.56c0.63-0.21,1.74-0.12,2.18,0.11c0.64-1.22,4.69-2.2,5.61,1.09c0,0,3.21,0,3.34,1.29
					c0.08,0,0.15-0.01,0.23-0.01c1.64,0,2.98,1.29,2.98,2.87c0,1.37-1,2.53-2.33,2.82C584.42,734.06,584.88,735.05,584.88,736.13z
					 M565.36,737.61c0.06,2.29-3.96,2.37-3.96,2.37s0.24-0.86-0.09-1.48c-0.3-0.61-0.33-0.42-0.46-2.01
					c-0.53,2.52-3.03,2.7-3.93,1.59c-0.89-1.07-3.18-1.72-4.75-1.5c0.05-2.12,0.49-3.57,0.49-3.57c1.09-4.49,4.48-1.62,5.78-1.66
					c1.3-0.04,1.33-1.88,0.23-1.89c-1.09-0.02-1.61-0.12-2.25-0.88c-0.61-0.75-1.63-2.67-1.63-2.67s0.51,0,1.44,0
					c3.1-0.95,3.82,0.57,3.81,1.25c-0.13,1.63,2.19,1.21,1.68-0.18c-0.5-1.41-0.98-2.19-0.77-2.7c3.94,0.4,5.62,2.92,4.04,6.17
					c0.25,0.79,1.64-0.5,2.32,0.44c2.12,2.9-0.6,6.02-0.6,6.02s-0.29-0.78-0.84-1.51c-0.58-0.71-1.48-1.36-1.99-0.76
					C562.85,735.8,565.29,735.32,565.36,737.61z M550.09,730.89c-1.19,0.31-1.04,0.4-1.28,0.63c-0.24-0.96,0.24-2.03,0.44-2.85
					c0.1-0.34-0.83-0.69-1.01,0.11c-0.17,0.83-0.94,1.6-2.04,1.23c-1.07-0.37-2.5-1.65-3.89-1.19c-0.47-3.55,2.29-4.28,3.01-4.21
					c0.72,0.1,2.35,1.02,2.51-0.49c0.08-0.55-0.07-0.64-1.01-0.64c-0.94,0-1.8-1.45-1.8-1.45c1.22-0.61,1.27-1.32,2.15-1.32
					c0.87,0,1.06,0.71,1.06,1.33c0,0.61,1.19,0.32,1.1-0.39c-0.1-0.72,0.1-1.52,0.29-1.87c0,0,2.52,1.22,1.44,4.16
					c-0.48,0.35,0.92-0.47,2.02,0.33c0.49,0.34,0.15,1.44,0.35,2.4c0.1,0.5,0.68,1.75,0.68,1.9c-1.11-0.11-1.61-0.3-2.01-1
					c-0.4-0.68-1.29-1.19-1.39,0.17C550.66,728.43,551.69,730.28,550.09,730.89z M551.5,706.35c0.15-0.42,0.12-0.98-0.05-1.34
					c1.35,0.57,2.47,0,3.32,0.71c0.84,0.72,0.64,1.87,0.44,2.27c1.05-0.83,1.62-1.12,1.62-1.12c0.42,0.89,2.68,4.86-1.07,4.55
					c0.11,0.86,0.37,0.07,0.02,2.59c-0.11,0.66-1.82,0.12-3.28,1.3c-0.02-0.82,0.25-0.51,0.43-0.93c0.17-0.4-0.93-1.41-1.18-0.52
					c-0.22,0.89-1,2.61-3.18,1.49c0.27-0.75-0.06-1.84,0.92-2.17c0.99-0.3,1.12-0.65,0.86-0.9c-0.28-0.28-0.62-0.91-1.61-0.09
					c-0.44,0.41-1.68,0.93-2.08-1.12c-0.18-1.09-0.86-2.36-1.61-2.64c1.49-1.79,4.06-3.01,5.11-1.94c0.59,0.54,0.86,1.22,1.23,1.08
					C551.77,707.46,551.04,707.07,551.5,706.35z M563.96,702.59c-0.48-0.58-1.22-1.33-1.01-2.56c0.18,0.14,1.09,0.37,2.69,0.21
					c1.95-0.14,1.7,2.84,1.38,3.22c-0.36,0.38-0.12,0.5,0.17,0.68c0.25,0.17,2.3-1.28,2.3-1.28s0.48,2.8,0.15,4.59
					c-0.37,1.25-1.39,0.28-1.85,0.84c-0.23,0.25,1.15,1.95,0.76,2.33c-0.39,0.69-1.37,0.86-1.37,0.86
					c-1.88-0.36-3.12,0.67-3.86,1.02c-1.05,0.51-2.6,0.63-3.66-2.01c1.4,0.07,2.97-1.58,3.15-1.71c0.36-0.32-0.55-1.26-1.09-1.07
					c-0.54,0.22-0.21,0.42-1.43,0.57c-1.23,0.11-1.72-0.94-2.31-2.22c-0.57-1.26-1.22-2.34-2.3-3.05c1.26-0.93,3.2-1.58,4.77-1.65
					c1.56-0.07,2.07,1.65,2.52,2.08C563.42,703.9,564.45,703.17,563.96,702.59z M555.08,721.01c-0.59,0.65-1.87,1.83-2.36,0.45
					c-0.48-1.36-1.06-2.85-2.45-3.02c1.69-1.38,5.09-3.22,6-1.99c0.58,0.72,1.45,0.66,0.93,0.08c-0.54-0.58-0.17-2.02,0.21-2.65
					c1.73,1.54,2.84,0.71,3.6,1.21c0.76,0.47,0.47,1.12,0.47,1.12c-3.25,2.57-3.37,5.98-3.4,6.11c0.07,1.53-1.17,1.68-1.44,1.68
					c-1.09,0.02-2.16-0.13-2.16-0.13s0.03-1.15,1.15-1.55C556.77,721.88,555.68,720.41,555.08,721.01z M567.47,726.26
					c0.08-1.05-0.32-1.6-0.46-2.12c-0.14-0.51-0.32-1.31-0.48-1.06c-0.51,0.71-1.52,1.39-2.4,0.9c-1.15-0.66-3.18-1.83-4.59-1.83
					c0.4-1.98,2.99-6.55,4.7-5.64c1.27,0.75,1.87,0.75,2.1,0.28c0.26-0.43-0.27-0.74-1.15-0.62c-0.87,0.09-1.84-1.7-1.84-1.7
					s0.56-0.55,1.19-0.91c0.65-0.37,5.28-1.73,3.29,1.31c1.62,0.29,1.89,1.9,3.08,3.49c1.06,1.81,2.25,2.72,2.28,2.74
					c0.35,0.87-0.43,1.58-0.43,1.58s-1.07-1.73-2.15-2.07c-1.09-0.36-1.13,0.42-0.39,0.72c0.75,0.28,1.24,1.85-0.39,2.72
					C568.16,724.88,567.76,725.6,567.47,726.26z M572.69,704.66c-0.64-0.33-3.26-3.65,2.18-7.5c0.16,0.5,0.72,1.77,2.83,2.34
					c2.1,0.59,2.56,2.47,0.88,3.79c-0.54,0.29,0.86,1.66,1.5,0.45c0.66-1.19,2.09-1.94,2.09-1.94s0.78,1.39,0.66,2.65
					c-0.14,1.26-1.26,1.58-2.31,1.4c-1.01-0.15-1.22,1.17-0.44,1.25c0.79,0.12,1.31-0.83,2.65-0.1c0,0-0.47,2.29-3.37,2.5
					c-1.41,0.34-3.98-0.53-3.98-0.53s0.62,2.43-0.84,2.29c-1.58-0.14-2.4-0.08-2.4-0.08s0.41-1.75,0.74-2.37
					c-1.26,0.57-2.16-0.32-1.99-3.51c1.19,0,0.94,0.79,1.72,0.79C573.23,706.09,573.3,705.01,572.69,704.66z M588.32,700.54
					c0.44,1.25,0.95,1.31,1.5,0.79c0.54-0.52,0.62-1.17-0.26-1.72c-0.89-0.52-1.82-2.85,0.49-3.75c2.31-0.86,3.65-3.13,3.98-4.17
					c2.76,2.09,3.79,4,4.1,5.61c0.28,1.6,0.19,2.87-0.91,3.72c-1.14,0.83-0.66,1.64,0,1.71c0.67,0.07,1.49-1.1,2.84-1.13
					c-0.25,0.98-0.22,1.53-0.18,2.63c0.04,1.1-1.09,2.86-3.15,2.53c1.42,1.51,1.29,2.86,1.29,2.86s-0.84-0.47-2.4-0.1
					c-1.53,0.36-2.16,0.36-2.64-0.96c-0.22-0.64-1.06-2.12-1.06-2.12s-0.4,1.15-2.07,2.49c-1.08,0.94-4.02,0.51-4.65-1.76
					c-0.32-1.11-0.68-1.47-0.68-1.47s0.44,0.31,1.21-0.09c0.79-0.4,1.03-0.32,1.73-0.23c0.7,0.06,0.79-2.14-0.16-1.86
					c-0.94,0.25-2.75,0.73-2.97-1.11c-0.22-1.87,0.05-3.93,0.05-3.93s0.72,0.41,1.72,0.49
					C587.07,699.08,587.87,699.27,588.32,700.54z M604.79,855.93c-25.6,0-49.32-10.82-66.53-29.4c18.01,15,41.67,22.61,66.53,22.61
					c24.88,0,48.56-7.62,66.51-22.61C654.11,845.11,630.39,855.93,604.79,855.93z M556.89,787.25c4.17-1.23,13.05-2.78,19.89,3.37
					l0.08,0.12l0.13-0.06c9.3-4.2,14.82-3.75,19.25-3.34c0,0,2.79,0.16,3.09,0.17c0.19,0.68,0.27,1.46,0.27,2.2
					c0,0.93-0.11,1.79-0.17,2.2c-1.24-0.29-15.93-3.46-23.15,4.35c-3.21-1.75-10.32-0.47-14.27,2.59c-3.36,2.6-9.7,2.28-13.66,1.1
					c5.77-0.21,10.3-1.6,12.48-4.02l0.13-0.14l-0.14-0.12c-2.66-2.61-9.18-4.08-16.58-3.91c8.93-1.91,16.15,0.36,18.79,2.48
					l0.08,0.08l0.13-0.04c5.4-2.18,9.7-1.36,11.29-0.92l0.2-0.35C570.05,788.88,562.4,786.98,556.89,787.25z M592.49,797.8
					c-2.6-0.63-5.32-1.21-8.93-0.04c4.31-3.56,11.45-2.64,14.69-1.17c-0.29,0.89-2.56,7.46-10.08,9.29
					c-3.39,0.87-7.17,0.26-10.8-0.3c-2.62-0.4-5.35-0.84-7.91-0.74c-4.96,0.28-9.64,2.86-12.17,5.44c1.85-4.24,5.44-7.04,11.09-8.45
					c2.78-0.59,5.89-0.01,8.9,0.55c5.58,1.06,11.37,2.15,15.55-4.22l0.16-0.22L592.49,797.8z M576.59,825.74
					c9.94,0.53,16.81-1.47,20.93-6.09c0,1.08-0.26,4.06-2.84,6.1C591.25,828.45,585.13,828.44,576.59,825.74z M603.15,815.91
					c1.9-1.67,2.76-3.14,3.06-3.85c1.58,2.61,2.45,5.27,2.45,7.75c0,1.29-0.23,2.53-0.68,3.71c-1.22,3.31-4.25,5.85-8.6,7.52
					c3.06-2.11,5.15-5.23,5.57-8.74c0.04-0.43,0.06-0.85,0.06-1.29C605.01,818.86,604.33,817.03,603.15,815.91z M637.11,794.42
					c0.09,0.15,0.28,0.17,0.35,0.19c1.96,0.11,3.98,0.39,10.38,2.62c3.36-1.14,9.12-2.2,13.31,1.86c-5.4-2.79-10.66-0.2-10.71-0.17
					l-0.33,0.18l0.32,0.18c0.06,0.02,4.66,2.79,6.12,7.5c-8.34-7.12-16.24-10.09-24.85-9.2c-7.93-7.56-17.25-6.54-18.88-6.27
					c0.02-0.43,0.19-3.06,0.21-3.37c1.23-0.12,12.17-1.17,19.15,4.66l0.11,0.09l0.12-0.07c8.11-4.42,25.1-5.4,33.25-0.76
					c-16.17-2.94-27.7,1.33-28.46,2.25l-0.09,0.1L637.11,794.42z M626.8,805.68l0.06,0.16l0.2-0.05c6.07-2.12,17.27-0.01,22.27,9.03
					c-6.29-4.74-14.79-7.28-20.58-6l-0.2,0.04l0.05,0.19c1.22,6.22,6.88,8.58,11.18,9.9c-8.2-0.54-11.95-1.4-15.63-10.83
					c-2.75-7.03-9.57-10.79-11.52-11.79C616.24,795.5,622.64,797.71,626.8,805.68z M611.86,781.13c0,0-2.32-6.6-4.24-8.92
					c-2.1-2.52-7.37-8.64-8.63-13.4c-0.7,6.32,4.93,14.61,7.86,20.77c1.94,4.09,1.92,7.93,1.92,9.36c0,4.12-1.42,9.66-1.42,9.66
					s0.93,0.67,1.31,0.96c6.38,4.89,8.82,9.84,11,14.25c0,0,1.93,3.66,1.93,3.68c2.95,5.14,6.22,6.97,12.87,7.19
					c-3.77,1.08-11,2.36-15.98-6.18l-0.33-0.51l-0.05,0.63c-0.02,0.09-1.07,10.09-4.64,13.13c0.98-4.31,1.61-8.15,1.61-11.55
					c0-5.41-1.51-9.89-5.45-14.14c-1.09-1.17-4.09-3.66-4.09-3.66s-1.23,2.37-2.5,3.94c-3.28,4.09-9.77,9.59-19.36,9.59h-0.1
					l-0.07,0.1c-2.17,3.13-7.39,6.07-14.94,4.89c5.36-1,10.92-3.06,11.76-6.07c-2.6-3.5-8.65-3.56-18.36-0.37
					c4.45-2.79,12.6-7.71,21.61-1.85c16.81-1.61,19.29-14.32,19.66-21.77c0.15-2.83-0.4-5.43-0.97-7.33
					c-0.76-2.51-2.12-5.27-2.71-7.07c-0.67-1.94-1.72-3.49-1.29-6.19l-0.48,1.45c0,0-1.33,2.47-1.23,4.7
					c0.16,1.81,0.73,4.78,0.73,4.78l-73.02-0.05c0,0,5.86-11.19,12.66-13.98c3.12,0.85,5.59,3.32,7.83,3.38
					c3.6,0,5.66-3.7,9.36-6.03c1.54-0.92,2.52-1.75,5.25-1.34c2.41,0.78,5.01,4.38,8.89,4.21c2.03-0.07,8.31-7.6,10.26-8.12
					c6.25-0.43,10.3,12.11,16.68,5.01c1.02-1.97,2.66-7.75,0.92-15.29c-0.83-3.17-1.84-4.88-2.99-7.56
					c-1.07-2.03-1.53-3.8-2.42-6.86c-1-2.8-2.1-6.51-5.44-8.38l-2.11-0.75c0,0-0.78-0.77-1.4-1.15c1.53,0.07,6.74-1,14.7,6.16
					c2.37,1.73,3.3,0.39,4.9-0.78c5.38-3.28,10.61-3.95,14.87-3.23c2.16,0.36,4.08,0.8,5.64,1.55l0.07,1.6
					c-3.34-1.48-8.99-1.66-12.52-0.69c-4.18,1.22-7.89,4.98-6.51,9.87c0.64,1.83,2.75,5.9,2.27,5.78c-1-0.25-2.72-1.12-4.32-2.34
					c-4.04-3.05-6.36-6.7-7-8.61c0.97,3.44,2.2,11.08,10.17,14.35c5.75,2.36,6.85,6.56,8.09,12.83c-0.48-0.41-1.17-2.44-6.21-5.52
					c-2-1.21-5.19-2.34-7.12-6.61c0.57,2.47,0.49,6.22,7.12,11.8c3.3,2.73,4.49,4.03,5.66,5.89c0.97,1.59,2.23,1.18,3.36,1.03
					c0.68-0.1,3.17-2.34,5.03,0.14c1.51,1.76,2.12,1.94,3.51,1.94c1.67,0.12,9.98-7.34,14.7-8.81c1.41,0.43,6.58,2.59,7.28,2.92
					c1.67,0.78,7.01,5.43,8.27,5.43c4.18,0,5.96-3.01,7.96-3.99c0.82,0.25,8.22,6.01,10.85,5.24c5.56,0.85,10.55,10.93,10.55,10.93
					H611.86z M615.86,740.48c0.8,0.74,4.23,4.14-3.16,7.4c0.26-1.59-1.25-2.55-2.44-3.36c-1.18-0.82-1.41-2.57-0.29-3.68
					c1.13-1.15,1.85-1.38,1.29-2.32c-0.53-0.92-1.36-0.18-1.76,0.47c-0.39,0.64-2.25,0.75-2.98,1.19c-1-2.08-0.1-3.93,1-4.23
					c1.08-0.27,1.24-0.01,1.88,0.53c0.65,0.59,0.93,0.11,1.02-0.14c0.04-0.25,0.44-1.28-0.79-1.49c-0.98-0.17-2.11-0.31-2.11-0.31
					s1.3-2.63,3.17-2.76c1.86-0.17,3.3,1.82,3.3,1.82s0.52-3.7,5.63-1.31c-0.97,1.31-0.27,2.92-1.89,3.02
					c-1.31,0.08-1.51,1.97,0.05,1.65c0.64-0.14,2.04-0.95,2.91,0.19c0.86,1.15,0.64,1.64,0.26,2.51c-0.39,0.85-0.68,1.41-0.68,2.14
					c-1.69-0.56-2.95-1.42-3.27-2.43c-0.32-1.04-0.77-0.68-0.92-0.56C615.9,738.94,615.06,739.75,615.86,740.48z"/>
			</g>
		</g>
	</g>
</g>
</svg>
