<svg id="Capa_1" data-name="Capa 1" xmlns="http://www.w3.org/2000/svg" viewBox="0 0 546 325"><defs><style>.cls-1{fill:#fff;opacity:0;}.cls-2{fill-rule:evenodd;}</style></defs><title>Logos Socios</title><rect class="cls-1" width="546" height="325"/><path class="cls-2" d="M388.09,242.58a6.31,6.31,0,1,1-6.33,6.29,6.3,6.3,0,0,1,6.33-6.29Zm-2,10.47v-3.44h.77c1,0,1.39.34,2.44,2.17l.71,1.27h1.6l-1-1.57c-.82-1.32-1.28-1.81-1.89-2.06a2.32,2.32,0,0,0,2.31-2.36,2.16,2.16,0,0,0-1.26-1.86,5.22,5.22,0,0,0-2.22-.26h-2.8v8.11Zm0-7h1.5c1.53,0,2.07.31,2.07,1.21s-.61,1.22-2,1.22h-1.6V246Zm2-4.72a7.56,7.56,0,1,0,7.55,7.55,7.56,7.56,0,0,0-7.55-7.55Z"/><path class="cls-2" d="M182,96.1c2.48.38,4.41,2.84,2.85,5.09-3.28,2.19-9.37,1.9-9.61,7,3.87,3.85,4.72,9.41,10.19,12.41,7.17,7.34,10.27,17.32,19.79,23.07.82,1.87,3.37,2.71,5.29,2.87,1.44,6.08-5.51,10.22-2.27,16.64-4.61,3.78-1.11,12.93-9.37,12.06-6.68-4.2-7.05-12.13-14.08-16.28-3.48-4.69-7.94-8.92-9.34-14.7-8.33-2.4-8.36-10.53-15.5-14.2-.79-7.41-8.75-10.79-11.78-17.07-4.86-3.56-14.16,2.33-16.18-5.19.19-2.19,1.83-3.82,3.89-5.06,15.37-2.22,30.48-5,46.12-6.65Z"/><path class="cls-2" d="M230.81,89.94c1.22,1,2.12,2.45,1.15,4-3,3.84-10.28,2.81-11.11,8.62-1.08,4.16.8,7.4-2.1,11.08.81,7.4-3.53,13.91-4.53,21a8.11,8.11,0,0,1-6.58,3.17c-6-3.37.05-8.61.07-12.93-.91-8.15,8.54-15.14,2.07-23.51-2.88-3.09-8.17-.43-10.16-4.27.18-7.87,9.11-3.71,14.51-5.62,4.7-.88,12.42-3.46,16.68-1.51Z"/><path class="cls-2" d="M342.34,72.08c2.14,4.3-5.14,6.53-5.93,10.77,1.23,5.2-.72,9.76-2.53,14.3-1.55,6.19,1.92,13.85-2.89,19.1-2.52.5-4.08-.83-5.18-2.51.2-3.55-.48-6.07-1.29-9.48-3.53-9.33-.16-18.68-3.15-27.92,5.35-5,14-4.69,21-4.26Z"/><path class="cls-2" d="M378.21,68.54c-1.79,5.76,4.73,9.46,1.7,14.94,1.85,13.54,4.27,27.32,4.7,40.58,3.67,5.33-.86,15,8.87,15.65a6.73,6.73,0,0,1,4.37,1.56c2,3.1-2.05,3.95-4,5-6.21,1.16-13-.52-18.27,2.5-3.38-2.13-6.34,1.49-10.14,1.4-4.44-.93-9,3.08-13.2.44-.4-6.7,9.5-6.06,9.6-11.75-2.29-17.77-4.94-33.36-6.43-50.62-3.37-4.45.53-9.89-2.84-14.33.11-1.85,1.47-4.33,3.83-4.81l.93.48c6.35-.11,12.58-3.72,19.43-2.67l1.44,1.65Z"/><path class="cls-2" d="M411.18,64c1.89,5,.82,12.16,3.86,16.8-1.68,7.89,4.68,16.52.46,23.54-9.32-.25-5.88-11.46-11.29-15.77,2-6.87-7.91-6.27-5.93-13.13-3.19-4.48-13.48-2.76-10.79-9.57,8.43-1.31,15.65-4,23.69-1.87Z"/><path class="cls-2" d="M281.62,83.19c4.64,4.35,3.05,10.89,8.18,15-.82,3.66,1,6.76,4.59,8.51C299,114,301.82,122.33,307.33,129c1.12,7.35,7.32,11.62,9.89,18.14,2.83,4.94,11.44-.84,10.81,6.32-8.34,7.44-21.39,2.38-32.44,6.85-4.47.22-10.52,4.55-14.71.88-.3-6.39,15.86-6.9,6.13-13.85.46-2.68-2-4.14-4.2-4.88-6.45-.39-12,6.3-17.5,1.93-.59-5,6.13-6.17,10-8.14,9-6.32-1.57-12.37-2.51-18.52-4.29-2.1-1.75-8-6.06-10.13.25-1.73-1.12-2.74-2.63-3.58-3.32.81-4.8-2-7-2.92-1.41-5.93,3.73-10.56,3.75-16.1,4.93-2.76,11.64-2.86,18.11-3.56l2.69,1.74Z"/><path class="cls-2" d="M261.22,110c-.54,9.91-.56,19.91-3.77,29.32.52,6.67-2.65,14.08,1,20.11,2.14,1.53,4.86,1.26,6.42,3.48.28,5.18-7,1.69-10.08,4.16l-15.93,2c-1.49-1.92-.57-4.82,2-5.83,3.72-.58,7-3.08,7.27-6.66,1.67-8.25,1.55-16.84,4.44-25-3.82-5.7,3.68-10.86,1-17,.71-2.12,1.07-4.31,3.27-5.73,1.79-.58,3.57-.24,4.32,1.18Z"/><path class="cls-2" d="M269.33,188c3.16,1.52,3.78,4.34,4.86,6.94.18,3.35-1,6.91-4.5,8.84-2.69.56-5.2,2.18-8,1.69a6.06,6.06,0,0,1-3.47-6.84c1.24-2,3.47-4.37,1.41-6.51-3-4.14-12,.47-11.34-6.39,1.37-3.45,6-2.46,8.7-2.88,4.29-.21,8.8,3.26,12.38,5.15Z"/><path class="cls-2" d="M242.79,187.37c-.9,5.36-9.19,7.56-8.29,13.41-.82,10.43,2.68,20.64,3,30.88,4.47,5.46,2.19,13,4.75,19.55.89,4.63,6.46,6.07,9.73,9.26-.27,1.72-2,3.55-4,4.3a29.24,29.24,0,0,1-17.82-5.85c-4.22.64-3.84-4.78-8.19-4.89-2.53-4.06-4.23-8.41-7.25-12.25a46.5,46.5,0,0,1-2.26-19.16c2.08-3.39,1.11-7.39,1.76-11a42.19,42.19,0,0,1,23.31-25.72,6.2,6.2,0,0,1,5.24,1.5Z"/><path class="cls-2" d="M284.78,221c6.63,7.13,5.27,18.56,2.05,26.73-4.88,5.36-8.44,12.53-17,13.22-2.81.74-6.93.92-8.87-1.55,0-4.31,7.77-4.43,6.32-9.42.36-8.82,1.3-17.41-6.6-23.72-5.34-1-8.65,6.55-12.87,1.67-2-2.92,1.89-4.59,2.19-7.1,9.25-8.34,26.06-9.09,34.75.17Z"/><path class="cls-2" d="M324.47,174.3c.37,3.48-4.4,5-5,8.15a33.81,33.81,0,0,0,1.43,25c1.38,1.17,1.89,3.25,4.19,3.66,3.57.68,8.07-2.64,10.19,1a10.74,10.74,0,0,1-6,6.92c-10.16,2.48-21.15,2.81-28-4.9-5.22-4.72-5.4-11.46-5.38-18.06,4.66-5.64,2.61-13.32,10.21-17.72,6.2-1.26,12.06-8,18.37-4.06Z"/><path class="cls-2" d="M370.83,200.34c4.72,7.11,1,15.22,1.41,22.68a25.16,25.16,0,0,1-10.93,17.51c-1.67,3.8-4.58,6.24-8.42,8.06-3.78.12-8.14,2.18-11.49.55-2.31-4.87,6.51-7,6.92-12.13,2.07-16.77-2.06-33.49-4.95-50.1-1.55-5.45-7.27-7.94-11.63-11.42-.76-1.72.23-3.11,1.41-4.37,11.19-1.42,22.88,6.15,29.94,13.83,4.3,4.25,6.32,9.62,7.74,15.39Z"/><path class="cls-2" d="M324,232.76c3.05,5.22-3.74,15,6.9,15.54,2.31,2.71-1.61,4.23-4.31,4.66a20.26,20.26,0,0,1-13.08-2c-4.33-2.26-5-6.46-6.56-10-.18-3.35,2.4-6.82,4.84-8.9,3.6-1.31,10-3.68,12.21.73Z"/></svg>