<svg id="Capa_1" data-name="Capa 1" xmlns="http://www.w3.org/2000/svg" viewBox="0 0 546 325"><defs><style>.cls-1{fill:#fff;opacity:0;}</style></defs><title>Logos Socios</title><rect class="cls-1" width="546" height="325"/><path d="M384.32,138.82a3.61,3.61,0,0,1-2.72-1.29,4.37,4.37,0,0,1-1.19-3.08,4.15,4.15,0,0,1,3.91-4.36,4.1,4.1,0,0,1,3.9,4.36,4.15,4.15,0,0,1-3.9,4.37m-232.94,38c2.74-.15,3.28-.83,3.48-2.78,0-.15,0-1.17,0-2.37,0-1.67.08-3.74.08-4.14V141.9c0-.83,0-2.71-.13-5.78-.07-2.28-1.64-2.51-3.42-2.52v-2.13c3.95-.74,5.38-1.34,9.6-3.51l1.22.73a85.75,85.75,0,0,0-.6,10.52v31.42c0,4.79,0,6.12,3.42,6.14V179c-2.22-.13-4.53-.19-6.85-.19s-4.53.06-6.85.19Zm240,2.18c-2.29-.13-4.62-.19-6.92-.19s-4.56.06-6.79.19v-2.18c3.6-.09,3.62-1.43,3.69-5.33V157.57c-.06-3.45-.09-4.61-3.22-4.61h-.2v-2.21a35.73,35.73,0,0,0,9.39-3.17l1.3.86a69.65,69.65,0,0,0-.53,10.6v11c0,.69.07,3.9.2,4.45.41,2.1,1.81,2.22,3.08,2.29ZM226.27,162.8l5.72-7.31a5.43,5.43,0,0,0,1.29-2.55c0-1.52-1.87-1.58-2.88-1.59v-2.17c2,.06,4.09.13,6.12.13,1.45,0,2.7,0,4.29-.08l1.62,0v2.19c-3.34.33-4.23.87-7.14,4.18l-3.33,4L239.23,172c2.54,3.84,3.2,4.59,5.42,4.81V179c-1.52-.13-3-.19-4.58-.19s-3,.06-4.56.2ZM229.1,179c-2.49-.13-4.39-.2-6.65-.2s-4.49.06-6.72.19v-2.18c2.75-.15,3.28-.83,3.48-2.78,0-.15,0-1.17,0-2.37,0-1.67.09-3.74.09-4.14V141.9c0-.8-.06-6-.21-6.61-.5-1.64-2-1.68-3.34-1.69v-2.13c3.94-.74,5.37-1.34,9.59-3.51l1.22.73a85.39,85.39,0,0,0-.59,10.45v31.49c0,4.73,0,6.05,3.08,6.14Zm133.41-2.25c2.92,0,2.95-1.87,3-6.19V159.9c0-.27,0-.55,0-.84a17.67,17.67,0,0,0-.52-4.73,3.32,3.32,0,0,0-3.19-2.56c-1.63,0-3.45,1.28-4.53,2l-.34.22v16.63c0,4,0,6.05,3,6.05h0V179c-2.25-.14-4.43-.2-6.65-.2s-4.49.07-6.72.2v-2.25c2.6,0,3.41-.87,3.48-3.56l.14-5.25V139.3c0-1.53-.07-3-.82-3.61a2.44,2.44,0,0,0-1.93-.6l0-2.08a15.22,15.22,0,0,0,6.84-2.43l1.95-1.09,1.25.71c-.06.7-.13,1.28-.19,1.79a63.46,63.46,0,0,0-.41,7.73v11.84l.18-.13a37.05,37.05,0,0,1,6.06-3.78l1.19-.06c7.85,0,7.85,6.93,7.85,10.65v14c-.05,2,.19,3.07.8,3.7a3.38,3.38,0,0,0,2.54.76V179c-2.25-.14-4.42-.2-6.65-.2s-3.9.07-6.38.2Zm41,2.45a6.74,6.74,0,0,1-5.07-1.94c-1-1.13-1.51-2.41-1.51-6.3l.34-19h-3.41l.18-2c4.81-3.08,6.13-5.24,8.42-11.49h1.81l-.34,10.34h6.27l-.81,3.17h-5.66v19c0,2.2,0,4.93,2.73,4.93a5.32,5.32,0,0,0,2.43-.81l1,1.86,0,0c-1.85,1.19-3.59,2.31-6.38,2.31M265.08,136.58c-1.41,0-2.93,1.33-2.93,4.23,0,3.94,2.18,7.08,3.76,9.36l.27.39.29-.37c.9-1.12,2.15-2.65,2.15-7.11,0-1.52-.26-6.5-3.54-6.5m-3.25,19.95a10.58,10.58,0,0,0-4.27,8.71c0,5.26,3.79,8.4,7.46,8.4,3.15,0,5.12-2.07,6.17-3.18l.19-.2-9.25-14Zm-.15,22.88c-5.93,0-10.24-4.54-10.24-10.8,0-7.35,5-11.13,9-14.18l.24-.18-.35-.58c-1.93-3.19-3.75-6.2-3.75-10.36,0-6.09,4.45-9.27,8.83-9.27,6.33,0,8.62,5.23,8.62,8.75,0,4.86-3.67,7.75-6.11,9.67l-.31.23,7.91,11.51.5-.89c1.43-2.52,4.1-7.21,4.1-9.51,0-2.71-2.47-2.84-3.54-2.85V149.1c2.16.13,4.35.2,6.52.2s4.42-.07,6.69-.2V151c-4,.33-4.94,1.44-7.88,6.75l-4.76,8.85,2.43,3.37c1.47,2,3.31,4.5,5.59,4.5,1.52,0,2.5-1,3.61-2.29l1.32,1c-2.39,3.4-4.7,6.19-8.55,6.19s-6.18-3.2-8.1-6l-.3-.44-.3.35c-2.19,2.61-5.2,6.18-11.14,6.18m-80.5-14.78c-4.52,2.2-5.89,2.86-5.89,6.67,0,3.59,1.55,4.34,2.86,4.34,1.12,0,1.89-.57,3.15-1.57l0,0v-9.49Zm4.07,14.8a3.74,3.74,0,0,1-3.58-2.75l0-.13-.35.25c-1.62,1.17-3.63,2.63-6.54,2.63a6.41,6.41,0,0,1-4.47-1.71c-1.71-1.71-1.71-4.12-1.71-5.41,0-4.65,1.66-5.42,12.45-10.42l.35-.16v-5.64c0-1.18,0-4.33-2.73-4.33a4,4,0,0,0-1.42.35l-.16.06-.12.07a3.58,3.58,0,0,0-2,3c0,.1,0,.2,0,.29a1.94,1.94,0,0,1-.21.81c-.58,1.09-3.9,2.09-4.12,2.09-.85,0-1-.84-1-1.56,0-2.49,1.28-3.45,2.9-4.67l.22-.14a39,39,0,0,1,6.65-3.92H180c4.77,0,7.93,1.53,7.93,9v16.48c0,.52,0,1.6,1,1.6.44,0,.85-.35,1.52-1l1.2,1.63c-1.63,1.51-3.86,3.52-6.41,3.52m238.06-28.61a2.64,2.64,0,0,0-1.83.9c-1.66,1.6-2.12,4.13-2.5,6.17l-.1.54h5.63l.12,0c.73-.06,1.74-.15,1.74-1.91a10.89,10.89,0,0,0-.27-2.79c-.57-2.28-2-2.89-2.79-2.89M423,179.5a9.83,9.83,0,0,1-6.89-2.72c-2.86-2.69-4.25-6.74-4.25-12.38,0-11,6.16-16,11.88-16,3.87,0,8.39,2.58,8.39,9.87,0,2.56-1.79,2.56-2.56,2.56H418.7v.28c.06,2.7.17,6.77,2,10.34s4.23,3.88,5.19,3.88c2.57,0,4.39-2.08,5.31-3.17l1.77,1.4c-1.59,2.28-4.26,6-10,6M205,179.63c-6.73,0-11.07-5.79-11.07-14.76,0-5.89,1.49-10.35,4.45-13.25a10.62,10.62,0,0,1,7.69-3.18c4.12,0,8,2.54,8,4.5,0,.67-.42,1.05-1,1.45l-1.28,1a3.05,3.05,0,0,1-1.33.51,1.57,1.57,0,0,1-1.1-.53l0,0a12,12,0,0,1-1.45-2.52c-.3-.53-1.08-1.93-2.45-1.93-2.3,0-4.74,3.8-4.74,10.83,0,9.43,3.67,13.72,7.09,13.72,2.49,0,4.06-1.67,5.43-3.17l1.71,1.46c-1.79,2.52-4.25,5.9-10,5.9m-74.73-48.85c-.71,0-1.49,0-2.39.07h-.11l0,.11c-.14,4.06-.14,4.3-.21,8.34v11.16l.11,0c.52,0,1.13,0,1.7,0h0a10.91,10.91,0,0,0,3.36-.41c4.69-1.46,5.39-6.87,5.39-10,0-1.36,0-5-2.51-7.5-1.63-1.57-3.07-1.86-5.32-1.86m-2.74,32c0,1.54,0,9.36.64,11.42.55,1.81,1.73,2.51,4.22,2.51a7.14,7.14,0,0,0,5.6-2.24c1.05-1.19,2.8-4,2.8-9.63,0-7.87-3.87-10.15-5.53-10.76-1.33-.54-2.72-.61-5.56-.61h-2.17Zm4.43,17c-1.27,0-2.59,0-3.86-.07s-2.58-.08-3.86-.08c-3,0-6,.07-9,.14h-.13v-2.56h.33c2.48,0,3.78-.69,4.06-4.45.08-1.91.14-4.68.21-8.46V138.45c0-6.13,0-8-4.46-8v-2.64c2.63.08,5.6.15,8.46.15.69,0,2.67,0,4.78-.07s4.34-.08,5.13-.08c3.17,0,6.78.4,9.62,3.35a11.5,11.5,0,0,1,3,8.29c0,8.2-5.58,10.57-8.26,11.71l-.34.14.33.09a20.89,20.89,0,0,1,5.07,1.53c3.94,2,6.1,6,6.1,11.37A15.83,15.83,0,0,1,145,175.49c-3.83,4-8.73,4.3-13,4.3M327,180c-.51-1.77-.75-2.42-1.15-3.49-.09-.27-.2-.56-.33-.91l-5.68-15.77-6.2,14.44c-.86,2-1.22,2.88-2.26,5.73h-1.84c-.79-2.58-1.08-3.46-1.91-5.79l-13-37.6c-1.9-4.68-2.3-5.69-5.86-6.14v-2.64c2.6.14,5.27.21,8,.21s5.2-.07,7.9-.21v2.64a2.23,2.23,0,0,0-2.36,2.51,13,13,0,0,0,.86,3.71l10,29.5,5-11.51-6.84-19c-1.66-4.19-2.07-5-4.43-5.2v-2.63c2.45.14,4.94.21,7.39.21s4.95-.07,7.41-.21v2.62h-.05c-.85,0-2.6,0-2.6,2.53a21.61,21.61,0,0,0,1.29,5.25l2.51,6.91.11-.28c.12-.3,3.05-7.47,3.48-8.85a5.6,5.6,0,0,0,.5-2.65c0-2.26-1.89-2.79-3.08-2.89v-2.64c2,.14,3.88.21,5.82.21s4-.07,5.87-.21v2.64c-2.45.31-3.34,1.31-5.76,6.42l-5.19,12.74L330.13,166l9.68-28a29.41,29.41,0,0,0,1.06-5c0-2.44-2.12-2.52-3.25-2.53v-2.62c1.89.13,4.13.21,6.2.21,1.76,0,3.4-.06,5.61-.2v2.63c-2.89.1-3.84,1.4-5.38,5.42L330.61,175c-.63,1.82-.92,2.63-1.76,5Z"/><path d="M221.84,211.82c.14,0,.33.05.33.42a2.79,2.79,0,0,1-1.14,1.93,8,8,0,0,1-2.63,1.54,14.79,14.79,0,0,1,1.87-2.77c.65-.74,1.18-1.12,1.57-1.12M233.12,220c-.14,0-.57,0-.57-1a9.42,9.42,0,0,1,1.71-4.46c1.12-1.83,2-2.75,2.71-2.75.12,0,.49,0,.49.75a9,9,0,0,1-1.21,3.14c-1.86,3.54-2.73,4.28-3.13,4.28m12.16-8.21c.15,0,.33.05.33.42a2.79,2.79,0,0,1-1.14,1.93,8,8,0,0,1-2.63,1.54,14.47,14.47,0,0,1,1.87-2.77c.65-.74,1.18-1.12,1.57-1.12m1.93,8.21c-.13,0-.56,0-.56-1a9.42,9.42,0,0,1,1.71-4.46c1.12-1.83,2-2.75,2.7-2.75.13,0,.5,0,.5.75a9.1,9.1,0,0,1-1.2,3.14c-1.87,3.54-2.74,4.28-3.15,4.28m10.11-15.74.06-.13-.13,0-.72.06a2,2,0,0,1-.73-.15l-.07,0-3.85,8.62c0-.07,0-.14,0-.2,0-.84-.44-1-.8-1-.75,0-1.74.55-3,1.68a7.36,7.36,0,0,0-1.83,2.28c-1.71,3-3.18,4.58-4.35,4.58-.67,0-1-.42-1-1.26a6.21,6.21,0,0,1,.77-2.61,12.17,12.17,0,0,0,3.66-1.47,2.4,2.4,0,0,0,1.13-2,1.25,1.25,0,0,0-.32-.86,1,1,0,0,0-.77-.36,4.81,4.81,0,0,0-2.56,1.14,7.1,7.1,0,0,0-2.64,3.24c-1.48,2.77-2.54,4.18-3.16,4.18-.18,0-.41-.06-.41-.62a12.42,12.42,0,0,1,1.15-3.28c.78-1.76,2.69-5.85,5.51-11.84l.06-.13-.13,0-.71.06a2,2,0,0,1-.74-.15l-.07,0-3.85,8.62c0-.07,0-.14,0-.2,0-.84-.44-1-.8-1-.74,0-1.76.57-3,1.68a7.29,7.29,0,0,0-2.08,2.83c-1.78,3.32-2.65,4.05-3.07,4.05-.17,0-.4-.05-.4-.55a9.56,9.56,0,0,1,1.08-2.77,8.26,8.26,0,0,0,1.09-3.22,2.69,2.69,0,0,0-.36-1.43,1.1,1.1,0,0,0-.93-.59c-.45,0-.92.31-1.43,1a17.78,17.78,0,0,0-1.41,2.19,4.51,4.51,0,0,0,.3-1.44,2.36,2.36,0,0,0-.29-1.19.86.86,0,0,0-.74-.52c-.29,0-.85.33-2.47,3.23l-.18.32a.84.84,0,0,0-.17.22c-1.77,3.16-3.26,4.77-4.45,4.77-.68,0-1-.42-1-1.26a6.18,6.18,0,0,1,.76-2.61,12.17,12.17,0,0,0,3.66-1.47,2.39,2.39,0,0,0,1.13-2,1.25,1.25,0,0,0-.32-.86,1,1,0,0,0-.77-.36,4.81,4.81,0,0,0-2.56,1.14,6.94,6.94,0,0,0-2.68,3.37c-1.83,3.32-2.69,4.05-3.08,4.05-.16,0-.37-.06-.37-.62a9,9,0,0,1,.81-2.5c.58-1.36,2.6-5.9,5.71-12.78l.08-.2-.19.1a1.72,1.72,0,0,1-.78.18,1.82,1.82,0,0,1-.59-.12l-.07,0,0,.07c-1,2.29-2.15,5-3.55,8.11q-1.72,3.82-2,4.64a4.8,4.8,0,0,0-.3,1.68,2.41,2.41,0,0,0,.33,1.32,1,1,0,0,0,.89.54c.67,0,1.64-1.13,2.94-3.41a3.79,3.79,0,0,0,0,.58,3.43,3.43,0,0,0,.57,2,1.72,1.72,0,0,0,1.44.82c1.19,0,2.56-1.31,4.2-4l.51-.84.12-.21a.87.87,0,0,0,.13-.19c1.43-2.74,2-3.31,2.28-3.31,0,0,.21,0,.21.38a15.33,15.33,0,0,1-1.54,4.09l-1.88,4,.14,0a4.59,4.59,0,0,1,.76-.06l.67.06H224l0,0c2.35-5.57,4.09-8.38,5.18-8.38.19,0,.43,0,.43.55a7.91,7.91,0,0,1-.94,2.35c-.6,1.18-1,2-1.13,2.38a4,4,0,0,0-.21,1.32,2.54,2.54,0,0,0,.36,1.39,1.11,1.11,0,0,0,.95.57c.56,0,1.29-.73,2.24-2.24l.65-1a4.28,4.28,0,0,0-.05.72,3.63,3.63,0,0,0,.42,1.82,1.31,1.31,0,0,0,1.11.74c.63,0,1.52-1,2.7-3.16a4.68,4.68,0,0,0-.16,1.17,2.56,2.56,0,0,0,.35,1.42,1.06,1.06,0,0,0,.93.57c.68,0,1.65-1.14,3-3.45,0,.21,0,.41,0,.62a3.36,3.36,0,0,0,.57,2,1.72,1.72,0,0,0,1.44.82c1.1,0,2.42-1.2,3.92-3.55a4.62,4.62,0,0,0-.1,1,3.63,3.63,0,0,0,.42,1.82,1.31,1.31,0,0,0,1.11.74c.63,0,1.52-1,2.7-3.16a4.72,4.72,0,0,0-.17,1.17,2.64,2.64,0,0,0,.35,1.42,1.09,1.09,0,0,0,.94.57c.74,0,1.83-1.34,3.33-4.1l.5-.92a1.5,1.5,0,0,0,.12-.27v0a.15.15,0,0,0-.15-.17c-.1,0-.16.12-.2.2-2.08,4.05-3.07,4.89-3.54,4.89-.1,0-.4,0-.4-.62a12.54,12.54,0,0,1,1.15-3.28c.76-1.72,2.62-5.71,5.51-11.84"/><path d="M270.72,208.2a50.54,50.54,0,0,0-7.92,7.71,2.54,2.54,0,0,1-.69-1.74,2.87,2.87,0,0,1,.23-1.08c.18-.47.31-.52.36-.53v0a1,1,0,0,1,0,.2,1.25,1.25,0,0,0-.13.53c0,.68.38.82.69.82a1,1,0,0,0,.8-.4,1.39,1.39,0,0,0,.33-.92c0-.86-.5-1-.92-1a1.45,1.45,0,0,0-1.21.7,2.79,2.79,0,0,0-.5,1.66,3.15,3.15,0,0,0,.81,2.14,23.67,23.67,0,0,0-2.38,3.73c-1.14-.86-1.71-2.3-1.71-4.29a15.43,15.43,0,0,1,3.14-9.07c2.08-2.9,4.26-4.37,6.48-4.37a2.66,2.66,0,0,1,2.14,1,3.94,3.94,0,0,1,.82,2.61,11.08,11.08,0,0,1-.3,2.34m-6.59,8.27a2,2,0,0,1-1-.29,51.89,51.89,0,0,1,6.77-6.73l.63-.54a14.93,14.93,0,0,1-2.76,5.28c-1.26,1.51-2.48,2.28-3.62,2.28m3.15,2.66a7.37,7.37,0,0,1-4.53,1.67,4.68,4.68,0,0,1-2.23-.54,22.58,22.58,0,0,1,2.33-3.74,2.73,2.73,0,0,0,1.25.36c1.29,0,2.65-.86,4-2.55a14.65,14.65,0,0,0,2.91-5.85c1.12-.95,2.11-1.75,3-2.46-.17.48-.32,1-.46,1.47-.63,2.16-1.09,3.66-1.38,4.47a19.17,19.17,0,0,1-1.17,2.55,13.77,13.77,0,0,1-3.77,4.62M279,199.69c.2,0,.28.09.28.3a3.64,3.64,0,0,1-1.07,1.89,17.92,17.92,0,0,1-2.54,2.39,11,11,0,0,1,1.52-3.16c.67-.94,1.28-1.42,1.81-1.42m-4.17,8.44c.29-1.53.51-2.61.66-3.22a17.75,17.75,0,0,0,3-2.72A4.09,4.09,0,0,0,279.7,200a.61.61,0,0,0-.67-.69c-.7,0-1.52.61-2.44,1.81a16.26,16.26,0,0,0-2.29,4.24c-.9.68-1.94,1.51-3.08,2.46a10.17,10.17,0,0,0,.18-1.86,4.5,4.5,0,0,0-.93-3,3.12,3.12,0,0,0-2.51-1.11,8.72,8.72,0,0,0-5.79,2.69,15.56,15.56,0,0,0-3.55,4.76,12.21,12.21,0,0,0-1.27,5.31c0,2.74.88,4.72,2.61,5.86a7,7,0,0,0-.62,2.68,5.55,5.55,0,0,0,.34,1.85c.24.71.46,1,.69,1a.18.18,0,0,0,.2-.2.45.45,0,0,0-.08-.26,4.49,4.49,0,0,1-.71-2.45,6.84,6.84,0,0,1,.55-2.41,5.17,5.17,0,0,0,2.42.55c3.26,0,6.23-1.57,8.85-4.67a10.72,10.72,0,0,0,1.95-3.17,34,34,0,0,0,1.31-5.26"/><path d="M284.1,211.82c.53,0,.78.39.78,1.18a3.7,3.7,0,0,1-.12,1,.28.28,0,0,0-.25-.15c-.31,0-.63.28-.95.85a3.27,3.27,0,0,0-.46,1.61,1.92,1.92,0,0,0,.32,1c-1,1.78-1.85,2.69-2.65,2.69-.47,0-.69-.33-.69-1a9.71,9.71,0,0,1,1.51-4.52c1-1.77,1.84-2.67,2.51-2.67M304,214.94c-.14,0-.2.16-.21.2l-.21.34-.37.67c-1.71,3.21-2.54,3.88-2.94,3.88-.18,0-.43-.05-.43-.59a9.6,9.6,0,0,1,1.14-2.79,7.76,7.76,0,0,0,1-3.13,2.64,2.64,0,0,0-.37-1.44,1.07,1.07,0,0,0-.92-.61c-.68,0-1.52.84-2.55,2.58l1-2.15q2.4-5.18,3.61-7.77l.08-.17-.17.06a2.47,2.47,0,0,1-.86.15,2,2,0,0,1-.58-.09h-.06l-1.8,4.07c-1.32,3-2.11,4.79-2.37,5.35l-.71,1.7,0,0c-1.82,3.19-3.27,4.8-4.3,4.8-.64,0-1-.45-1-1.38a9.45,9.45,0,0,1,1.41-4.27c.92-1.68,1.7-2.52,2.31-2.52.21,0,.49.06.49.62a1.58,1.58,0,0,1-.79,1.37,2,2,0,0,0-1.11,1.58c0,.64.32.78.6.78s.77-.36,1.15-1.12a4.73,4.73,0,0,0,.55-2.18c0-.95-.31-1.44-.94-1.44a3.48,3.48,0,0,0-1.89.89,7.91,7.91,0,0,0-2.15,2.43,6.78,6.78,0,0,0-.5,1.11c-1.45,2.73-2.5,4.13-3.12,4.13-.2,0-.47-.06-.47-.62a4.49,4.49,0,0,1,.47-1.68l2.58-5.87h1.53l.16-.39h-1.53l1.37-3.07-.17,0a1.74,1.74,0,0,1-1.29,0l-.07,0-1.37,3h-1.17l-.18.39h1.19l-1.46,3.27a.7.7,0,0,0-.06.09,5.48,5.48,0,0,1-1.13,1.55c-.66.61-1.2.77-1.6.49a9.29,9.29,0,0,0,1.39-4.28c0-1-.36-1.51-1.08-1.51a4.61,4.61,0,0,0-2.78,1.59,8.54,8.54,0,0,0-1.63,2l-.1.13c-1.81,3.19-3.26,4.8-4.3,4.8-.64,0-.95-.45-.95-1.38a9.41,9.41,0,0,1,1.4-4.27c.93-1.68,1.7-2.52,2.32-2.52.21,0,.49.06.49.62a1.6,1.6,0,0,1-.79,1.37,2,2,0,0,0-1.11,1.58c0,.64.33.78.6.78s.77-.36,1.15-1.12a4.86,4.86,0,0,0,.55-2.18c0-.95-.32-1.44-.94-1.44a3.43,3.43,0,0,0-1.89.89,7.76,7.76,0,0,0-2.15,2.43,5.48,5.48,0,0,0-.81,2.74,3.45,3.45,0,0,0,.6,2,1.77,1.77,0,0,0,1.46.86c.88,0,1.9-.87,3.13-2.65l.72-1.07a4.53,4.53,0,0,0-.12,1,3.4,3.4,0,0,0,.51,1.89,1.48,1.48,0,0,0,1.25.8c.92,0,1.9-1,2.92-2.88a1.13,1.13,0,0,0,.61.16,2.47,2.47,0,0,0,1.69-1.08,5.47,5.47,0,0,0-.43,1.87,2.29,2.29,0,0,0,.39,1.37,1.14,1.14,0,0,0,1,.56c.71,0,1.69-1.12,3-3.41,0,.18,0,.35,0,.52a3.44,3.44,0,0,0,.59,2,1.78,1.78,0,0,0,1.47.86c.87,0,1.89-.87,3.12-2.65l.56-.83-1.42,3.43.14,0a3.44,3.44,0,0,1,.67-.09,2.35,2.35,0,0,1,.58.09l.06,0,0-.06a45.71,45.71,0,0,1,3.2-6.65c.79-1.19,1.41-1.79,1.85-1.79.17,0,.4,0,.4.52a12.11,12.11,0,0,1-1.38,3.2,6.89,6.89,0,0,0-.9,2.88,2.5,2.5,0,0,0,.37,1.39,1.15,1.15,0,0,0,1,.57c.76,0,1.85-1.34,3.34-4.1l.49-.91a.55.55,0,0,0,.14-.33.13.13,0,0,0-.12-.14"/><path d="M314.3,199.63l0-.06,0,.06Zm16.2,4.27a23.59,23.59,0,0,1,3.64-3.64c2.53-2.07,4.72-3.13,6.53-3.16a6.27,6.27,0,0,1,.93.05h.16a.42.42,0,0,0,.45-.46c0-.32-.31-.48-.89-.48h-.05a10.93,10.93,0,0,0-5.86,2.45,26.67,26.67,0,0,0-4.38,4,51.9,51.9,0,0,0-4.38,6c-3.12,4.87-5,7.79-5.74,8.7a14.75,14.75,0,0,1-1.55,1.9h0a18.62,18.62,0,0,0,2.46-4.37,58.42,58.42,0,0,0,2-6.78c.67-2.75,1.16-4.56,1.5-5.54a14.17,14.17,0,0,1,1.17-2.54.37.37,0,0,0,.08-.2.18.18,0,0,0,0-.13.13.13,0,0,0-.1,0h0c-.17,0-.5.22-1.69,1.85-.86,1.21-1.76,2.59-2.66,4.12a137.76,137.76,0,0,1-7.5,11.7,12,12,0,0,1-2.21,2.57,1.83,1.83,0,0,1,.2-.24,27.41,27.41,0,0,0,4.48-7.05,17.23,17.23,0,0,0,1.79-6.95,7.73,7.73,0,0,0-1.34-4.47,3.81,3.81,0,0,0-3.14-1.8v.08l0,0v-.07h-.06c-2.07,0-4.23,1.3-6.44,3.75a12.87,12.87,0,0,0-2.3,3.61,9.51,9.51,0,0,0-.82,3.79,5.31,5.31,0,0,0,1,3.2,3,3,0,0,0,2.45,1.25h.06c1.7,0,3.31-1.19,4.77-3.49a10.5,10.5,0,0,0,1.94-5.59,2.88,2.88,0,0,0-.53-1.76,1.61,1.61,0,0,0-1.33-.66h0a1.78,1.78,0,0,0-1.28.55,1.67,1.67,0,0,0-.54,1.27,1,1,0,0,0,.24.74.8.8,0,0,0,.57.19.92.92,0,0,0,.7-.32,1.07,1.07,0,0,0,.3-.76.86.86,0,0,0-.2-.58.55.55,0,0,0-.4-.15h0c-.07,0-.2,0-.41.06s-.09,0-.08,0,.12-.25.35-.4a1.59,1.59,0,0,1,.78-.22h0a1.27,1.27,0,0,1,1.05.53,2.52,2.52,0,0,1,.43,1.5,9.46,9.46,0,0,1-1.44,4.64c-1.52,2.67-3.16,4-4.88,4.06h-.05a2.4,2.4,0,0,1-1.93-.92,3.91,3.91,0,0,1-.79-2.5,12.08,12.08,0,0,1,2.85-7.58c1.93-2.51,3.91-3.8,5.89-3.82v0h0a2.57,2.57,0,0,1,2.22,1.2,6,6,0,0,1,.89,3.38,24.33,24.33,0,0,1-2,8.5,28.4,28.4,0,0,1-4.34,8c-.15.16-.18.22-.18.28a.19.19,0,0,0,.13.14h0c.15,0,.53-.22,2.16-1.84,2.24-2.25,4.86-6,7.78-11.1,1.77-3,2.94-5,3.49-5.85a22.85,22.85,0,0,0-1.45,3.32c-.54,1.53-1.27,4-2.18,7.26-1,3.68-2,6.2-3,7.48-.36.46-.36.46-.36.49v0a.14.14,0,0,0,.14.12h0c.07,0,.22-.06,1-.79,1.64-1.54,3.91-4.59,6.78-9.07,2.36-3.68,4.07-6.21,5.07-7.47"/><path d="M213,206.09a5.14,5.14,0,0,0-1.35-4h0a10,10,0,0,1,3.07-1.53c4-1.17,7.06.27,8.13,1.88a3.53,3.53,0,0,1,.48.87l.1.15a.37.37,0,0,0,.53.19c.26-.1.27-.42,0-1-.9-1.57-3.37-3.1-6.83-2.89a10.35,10.35,0,0,0-5.6,2.09,8.9,8.9,0,0,0-5.75-2.55,12,12,0,0,0-8.79,2.93,11,11,0,0,0-4.53,7.76,5.64,5.64,0,0,0,.7,3.59,3.21,3.21,0,0,0,2.56,1.54q2.55.21,5.45-2.66a9.65,9.65,0,0,0,3.16-5.92c.14-1.66-.48-2.55-1.85-2.66a5.77,5.77,0,0,0-4.42,1.94,7.14,7.14,0,0,0-2.46,4.56,3.4,3.4,0,0,0,.25,1.7,1.16,1.16,0,0,0,.92.76q.22,0,.24-.12c0-.05-.06-.1-.19-.14a.83.83,0,0,1-.64-.46,1.59,1.59,0,0,1-.2-1,8.09,8.09,0,0,1,2.46-4.7c1.51-1.61,2.87-2.36,4.06-2.26s1.73.91,1.59,2.42a9.24,9.24,0,0,1-3.08,5.66c-1.89,1.87-3.64,2.73-5.25,2.6a2.93,2.93,0,0,1-2.25-1.24,4.19,4.19,0,0,1-.62-2.86c.2-2.31,1.43-4.68,3.71-7.12q4.16-4.45,9.22-4a7.1,7.1,0,0,1,5.32,2.55,20.41,20.41,0,0,0-3.09,3.2,39.19,39.19,0,0,0-3.27,4.5c-1.92,3.11-4,5.87-4.48,6.62a15.94,15.94,0,0,1-1.81,2.16,6.2,6.2,0,0,1-5,2.13,3.58,3.58,0,0,1-2.39-1.07,2.8,2.8,0,0,1-.8-2.24c.05-.56.14-.83.27-.82s0,.12,0,.35c-.07.56.11.86.52.9a.71.71,0,0,0,.64-.33,1.56,1.56,0,0,0,.32-.89c.07-.71-.15-1.08-.63-1.12a1.06,1.06,0,0,0-.93.5,2.63,2.63,0,0,0-.48,1.35,3.16,3.16,0,0,0,.86,2.5,3.89,3.89,0,0,0,2.59,1.19,8.75,8.75,0,0,0,4.62-1.21,11.48,11.48,0,0,0,3.54-2.78,33.79,33.79,0,0,0,3.92-6.2q2.86-6.09,5.72-8.51a4.76,4.76,0,0,1,.68,2.92,5.57,5.57,0,0,1-1,2.82,3.9,3.9,0,0,1-2.12,1.59,5,5,0,0,0-1.41-.4q-.75-.08-.78.21c0,.26.27.42.88.47h.58l.71-.05a4.22,4.22,0,0,1,1.59,4,9.22,9.22,0,0,1-2,5c-1.15,1.46-2.34,2.14-3.56,2a1.63,1.63,0,0,1-1.28-.8,2.72,2.72,0,0,1-.39-1.77,6.59,6.59,0,0,1,1.62-3.69c1-1.18,1.9-1.72,2.81-1.65a1.44,1.44,0,0,1,1.11.65,2.27,2.27,0,0,1,.32,1.48,4.75,4.75,0,0,1-.81,2.1.46.46,0,0,0-.06.18c0,.09,0,.13.12.14s.3-.28.54-.87a5,5,0,0,0,.42-1.49,2.66,2.66,0,0,0-.36-1.72,1.56,1.56,0,0,0-1.24-.76c-1-.08-2,.49-3,1.72a6.86,6.86,0,0,0-1.75,3.85,3,3,0,0,0,.49,2.12,2.28,2.28,0,0,0,1.73.92,5.36,5.36,0,0,0,4.29-1.67,7,7,0,0,0,2.16-4.57,5,5,0,0,0-2.56-5.26q3.69-.33,4-3.83"/><path d="M336.59,208.44a1.7,1.7,0,0,0-.37,1c0,.64.32.77.6.77a1,1,0,0,0,.81-.5,1.79,1.79,0,0,0,.36-1.07c0-.61-.32-.74-.58-.74a1.06,1.06,0,0,0-.82.5"/><path d="M340.32,214.29c0,.33,0,.63,0,.92a6.34,6.34,0,0,1-.87,3.23c-.56,1-1.17,1.47-1.79,1.47a.93.93,0,0,1-.78-.39,1.56,1.56,0,0,1-.33-1,2,2,0,0,1,.33-1.05,1.41,1.41,0,0,1,.74-.63c.79-.22,1.19-.67,1.19-1.31a1,1,0,0,0-.21-.62c.73-1.17,1.28-2.08,1.7-2.78,0,.24,0,.52,0,.85,0,.56,0,1,0,1.31m.88.93a10.62,10.62,0,0,1-.61-2.84,6.57,6.57,0,0,1,.06-.81,5.75,5.75,0,0,0,1.47-2.49c0-.3-.17-.35-.26-.35-.3,0-.59.27-.88.82a6.63,6.63,0,0,0-.61,1.87c-.46.78-.84,1.4-1.11,1.84l-.9,1.46a.57.57,0,0,0-.18,0c-.47,0-.92.38-1.36,1.14a4.75,4.75,0,0,0-.62,2.13c-1.06,1.65-1.64,2.07-2,2.07s-.47-.06-.47-.62a5.26,5.26,0,0,1,.56-1.91l2.71-5.93-.14,0a4.49,4.49,0,0,1-.88.11,2.07,2.07,0,0,1-.55-.1l-.06,0L333.89,215a.49.49,0,0,0-.08.13l-.21.34-.36.67c-1.72,3.21-2.55,3.88-2.94,3.88-.19,0-.43-.05-.43-.59a9.87,9.87,0,0,1,1.13-2.79,7.57,7.57,0,0,0,1-3.13,2.64,2.64,0,0,0-.37-1.44,1.07,1.07,0,0,0-.92-.61c-.68,0-1.52.85-2.55,2.58.61-1.36.93-2.07,1-2.15q2.4-5.18,3.62-7.77l.08-.17-.18.06a2.37,2.37,0,0,1-.85.15,1.91,1.91,0,0,1-.58-.09h-.06l-1.81,4.07c-1.38,3.15-2.11,4.81-2.36,5.35-.54,1.3-.86,2.09-1.08,2.61l-1.76,4.27.14,0a3.44,3.44,0,0,1,.67-.09,2.22,2.22,0,0,1,.57.09h.07l0,0a46.26,46.26,0,0,1,3.2-6.65c.79-1.19,1.41-1.8,1.84-1.8.17,0,.41.06.41.53a12.11,12.11,0,0,1-1.38,3.2,6.85,6.85,0,0,0-.9,2.88,2.42,2.42,0,0,0,.37,1.39,1.13,1.13,0,0,0,1,.57c.66,0,1.58-1,2.81-3.16a4.46,4.46,0,0,0-.24,1.26,2.31,2.31,0,0,0,.38,1.35,1.18,1.18,0,0,0,1,.55c.56,0,1.26-.65,2.13-1.94a2.49,2.49,0,0,0,.44,1.31,1.59,1.59,0,0,0,1.32.63,3.57,3.57,0,0,0,3.52-3.53,5.48,5.48,0,0,0-.32-1.67"/><path d="M349.74,222.82l1.08-.72,0,.05a36.49,36.49,0,0,1-3,6.25c-.8,1.17-1.6,1.76-2.4,1.76-.6,0-.9-.36-.9-1.09,0-1.83,1.78-3.94,5.27-6.25m7.94-7.86c-.06,0-.12,0-.27.32a22.64,22.64,0,0,1-2.19,3.21,12.15,12.15,0,0,1-2.17,1.95c1.58-3.79,2.87-6.73,3.81-8.74l.07-.14-.16,0a3,3,0,0,1-.76.11,3,3,0,0,1-.64-.06h-.06l-1.1,2.5c-2.14,4.88-3.25,5.9-3.8,5.9-.17,0-.4-.06-.4-.62a9.26,9.26,0,0,1,1-2.73l2.3-5,.06-.14-.14,0a3.93,3.93,0,0,1-.83.11,2.71,2.71,0,0,1-.6-.06h-.06l-1.82,4.1a10.9,10.9,0,0,0-.73,2.07c-1.09,1.78-1.71,2.23-2.06,2.23s-.31-.09-.31-.32a3.14,3.14,0,0,1,.24-.88,7.72,7.72,0,0,0,.58-2.13,2.1,2.1,0,0,0-1.15-1.72,7.12,7.12,0,0,0,1.5-1.8c.6-.94,1-1.14,1.19-1.14s.29.09.29.29a.84.84,0,0,1-.29.69,1.82,1.82,0,0,0-.79,1.26c0,.56.32.69.58.69s.64-.26,1-.78a2.91,2.91,0,0,0,.46-1.52c0-.8-.33-1.2-1-1.2s-1,.36-1.48,1.09a8.41,8.41,0,0,1-1.81,2.26,1.65,1.65,0,0,0-.68-.14.5.5,0,0,0-.35.1q.36-.84.78-1.74l2-4.32.9-2,.91-1.94.29-.64L350,204l-.15,0a3.87,3.87,0,0,1-.73.13,3.36,3.36,0,0,1-.69-.13h-.06l-4.31,9.61c-.34.79-.61,1.41-.8,1.87l-1.46,3.38-.6,1.37-.05.13.14,0a4.6,4.6,0,0,1,.74-.09,2.18,2.18,0,0,1,.6.09l.06,0,.18-.37c.32-.72.73-1.71,1.26-3,.24-.6.51-1.25.81-1.93,0,.15.06.39.49.39a1.59,1.59,0,0,0,.72-.24.75.75,0,0,1,.32.55,2.63,2.63,0,0,1-.22.84v.05a9.06,9.06,0,0,0-.66,2.26,1.59,1.59,0,0,0,.41,1.07,1.2,1.2,0,0,0,.94.48c.54,0,1.23-.64,2.1-1.93v0a2.46,2.46,0,0,0,.37,1.33,1.07,1.07,0,0,0,.9.57,1.57,1.57,0,0,0,1.17-.72,15.3,15.3,0,0,0,1.09-1.71l-1.51,3.57-.15.12c-.58.34-1,.62-1.33.82-3.61,2.24-5.44,4.44-5.44,6.54a1.68,1.68,0,0,0,.34,1,1.06,1.06,0,0,0,.86.43c.95,0,2.08-.69,3.36-2.06a20.68,20.68,0,0,0,3.54-6l.57-1.35a15.72,15.72,0,0,0,3.71-3.76c1.15-1.7,1.3-2.05,1.3-2.17s-.08-.17-.15-.17"/><path d="M199.94,99.26a4.06,4.06,0,0,0,.06.86c.09.24.39.2.62.21v.15l-1,0-1,0v-.15c.21,0,.48,0,.56-.21a4.85,4.85,0,0,0,.05-.86V97.45a4.8,4.8,0,0,0-.05-.86c-.08-.22-.35-.22-.56-.22v-.14l1,0,.92,0c.7,0,1.49.29,1.49,1.11s-.91,1.16-1.68,1.16l-.43,0Zm0-1,.37,0c.67,0,1-.28,1-1a.83.83,0,0,0-.93-.94c-.47,0-.44,0-.44.3Z"/><path d="M207,100a.85.85,0,0,0,.63.38v.15l-.58,0-.48,0-.3-.37-1.08-1.33c-.21-.24-.18-.28-.53-.28v.76a4.06,4.06,0,0,0,.06.86c.08.22.34.21.55.21v.15l-.91,0-1,0v-.15c.21,0,.48,0,.55-.21a4.06,4.06,0,0,0,.06-.86V97.44a3.92,3.92,0,0,0-.06-.85c-.07-.22-.34-.22-.55-.22v-.15l1.11,0,.82,0c.74,0,1.48.17,1.48,1.07,0,.69-.53,1-1.17,1.1Zm-2.34-1.63c.81,0,1.4,0,1.4-.95a.87.87,0,0,0-.91-1,2,2,0,0,0-.42,0c-.08,0-.07.16-.07.23Z"/><path d="M208.74,98.36a2.3,2.3,0,0,1,2.37-2.21,2.21,2.21,0,1,1-2.37,2.21m.81,0c0,1,.39,2,1.57,2s1.5-1.07,1.5-2-.4-2-1.54-2-1.53,1.1-1.53,2"/><path d="M215.49,97.46a4,4,0,0,0-.06-.86c-.07-.22-.34-.22-.54-.22v-.15l.81,0,1,0a2.16,2.16,0,0,1,2.4,2.21,1.94,1.94,0,0,1-2.23,2l-1.15,0-.87,0v-.15c.2,0,.47,0,.54-.21a4.06,4.06,0,0,0,.06-.86Zm.67,1.89a1.31,1.31,0,0,0,.1.71.85.85,0,0,0,.72.24c1.13,0,1.35-.81,1.35-1.75,0-1.28-.36-2.15-1.75-2.15-.07,0-.33,0-.39,0a.44.44,0,0,0,0,.2Z"/><path d="M224.66,98.77c0,1.17-.46,1.78-1.68,1.78s-1.72-.41-1.72-1.57V97.44a3.41,3.41,0,0,0-.07-.85c-.08-.22-.35-.22-.55-.22v-.14l.92,0,1,0v.14c-.21,0-.48,0-.56.22a4.74,4.74,0,0,0,0,.85V99c0,.82.32,1.29,1.2,1.29A1.19,1.19,0,0,0,224.47,99V97.58a3.86,3.86,0,0,0-.07-.91c-.09-.27-.34-.3-.6-.3v-.14l.75,0,.72,0v.14c-.2,0-.43,0-.52.23a3.55,3.55,0,0,0-.09,1Z"/><path d="M230.45,96.24h.09l.05,1.27h-.14a1.35,1.35,0,0,0-1.36-1.22c-1.16,0-1.51,1.14-1.51,2.11s.37,2,1.52,2c.9,0,1.23-.65,1.42-1.42h.12v1.4h-.09l-.15-.33a2.13,2.13,0,0,1-1.43.49,2.06,2.06,0,0,1-2.2-2.15,2.28,2.28,0,0,1,3.57-1.85Z"/><path d="M236,97.23h-.17c0-.63-.29-.8-.9-.8-.24,0-.62,0-.62.17v3.05c0,.48.09.65.71.68v.15l-1.07,0-1,0v-.15c.62,0,.71-.2.71-.68V96.6c0-.19-.28-.17-.54-.17-.64,0-1,0-1,.8H232v-1h4Z"/><path d="M240,98.36a2.3,2.3,0,0,1,2.37-2.21A2.21,2.21,0,1,1,240,98.36m.81,0c0,1,.4,2,1.57,2s1.5-1.07,1.5-2-.4-2-1.54-2-1.53,1.1-1.53,2"/><path d="M249.44,97.23h-.15c-.08-.27-.14-.54-.43-.66a2.38,2.38,0,0,0-1-.12c-.51,0-.49,0-.51.36v1.44c.89,0,1-.32,1.05-.78h.15c0,.29,0,.59,0,.88s0,.53,0,.79h-.15c-.09-.68-.43-.68-1.05-.68v.8a3.49,3.49,0,0,0,.07.86c.09.25.41.2.64.21v.15l-1,0-1,0v-.15c.2,0,.47,0,.55-.21a3.49,3.49,0,0,0,.07-.86V97.44a3.41,3.41,0,0,0-.07-.85c-.08-.22-.35-.22-.55-.22v-.14l1.16,0,2.07,0Z"/><path d="M298.71,99.18h.15c.13.65.48,1.19,1.22,1.19a.82.82,0,0,0,.92-.8c0-.58-.51-.81-1-1s-1.21-.53-1.21-1.27a1.16,1.16,0,0,1,1.28-1.15,1.71,1.71,0,0,1,1,.32l.15-.25h.07l0,1.12h-.14c-.15-.54-.46-1-1.08-1a.7.7,0,0,0-.76.68c0,.51.46.69.86.85.67.28,1.42.61,1.42,1.45a1.38,1.38,0,0,1-1.54,1.25,1.78,1.78,0,0,1-1.13-.39l-.16.27h-.07Z"/><path d="M306.73,96.24h.1l.05,1.27h-.15a1.34,1.34,0,0,0-1.36-1.22c-1.16,0-1.51,1.14-1.51,2.11s.38,2,1.52,2c.9,0,1.23-.65,1.43-1.42h.11v1.4h-.08l-.16-.33a2.1,2.1,0,0,1-1.42.49,2.06,2.06,0,0,1-2.21-2.15,2.18,2.18,0,0,1,2.26-2.25,2.23,2.23,0,0,1,1.32.4Z"/><path d="M308.42,98.36a2.3,2.3,0,0,1,2.37-2.21,2.21,2.21,0,1,1-2.37,2.21m.8,0c0,1,.4,2,1.58,2s1.5-1.07,1.5-2-.4-2-1.54-2-1.54,1.1-1.54,2"/><path d="M318.55,97.23h-.18c0-.63-.29-.8-.89-.8-.24,0-.63,0-.63.17v3.05c0,.48.09.65.72.68v.15l-1.07,0-1,0v-.15c.63,0,.72-.2.72-.68V96.6c0-.19-.29-.17-.55-.17-.64,0-.95,0-1,.8h-.15v-1h4Z"/><path d="M320.41,97.44a3.37,3.37,0,0,0-.07-.85c-.08-.22-.35-.22-.55-.22v-.14l.92,0,1,0v.14c-.2,0-.47,0-.56.22a3.92,3.92,0,0,0-.06.85v1.91c0,.82.13,1,.95,1a1.63,1.63,0,0,0,.92-.16c.32-.2.36-.44.42-.8h.16l-.06,1.14-.33,0c-1.11,0-2.23,0-3.34,0v-.15c.2,0,.47,0,.55-.21a3.49,3.49,0,0,0,.07-.86Z"/><path d="M325.62,99.08a3.71,3.71,0,0,0-.31,1c0,.27.33.25.52.27v.15l-.71,0-.67,0v-.15a.62.62,0,0,0,.62-.46l.53-1.23,1-2.52h.22l1.31,3.27a4.94,4.94,0,0,0,.33.7.72.72,0,0,0,.55.24v.15l-.91,0-.94,0v-.15c.18,0,.5,0,.5-.24a1.48,1.48,0,0,0-.13-.51l-.25-.65h-1.59Zm1.57-.36-.71-1.82-.72,1.82Z"/><path d="M330.68,96.76a.76.76,0,0,0-.71-.39v-.14l.61,0,.52,0,2.72,3.3h0V97.75a5.43,5.43,0,0,0-.06-1c-.08-.36-.26-.34-.58-.39v-.14l.71,0,.69,0v.14c-.24,0-.41,0-.5.28a6.79,6.79,0,0,0-.07,1.13v2.77h-.19l-.43-.53-2.53-3h0v2.16a2.86,2.86,0,0,0,.1.93c.11.26.32.24.56.27v.15l-.74,0-.72,0v-.15c.25,0,.49,0,.55-.31a4.39,4.39,0,0,0,.06-.89Z"/><path d="M336.5,97.46a4,4,0,0,0-.06-.86c-.07-.22-.34-.22-.55-.22v-.15l.82,0,1,0a2.16,2.16,0,0,1,2.4,2.21,1.94,1.94,0,0,1-2.23,2l-1.15,0-.88,0v-.15c.21,0,.48,0,.55-.21a4.06,4.06,0,0,0,.06-.86Zm.66,1.89a1.32,1.32,0,0,0,.11.71.84.84,0,0,0,.72.24c1.13,0,1.35-.81,1.35-1.75,0-1.28-.37-2.15-1.75-2.15-.08,0-.33,0-.39,0s0,.15,0,.2Z"/><path d="M256.74,104.3a7.11,7.11,0,0,0-1,3.8,7,7,0,0,0,1.13,3.25,6.57,6.57,0,0,1,.45,2.68c.32,0,.8.18,1-.42s-.66-1.6-.66-1.6a5.88,5.88,0,0,0,4.17,1.83,5.08,5.08,0,0,0,4.73-2.84c.08-.14-.07-.19-.14-.07a4.75,4.75,0,0,1-6,1.37,4.92,4.92,0,0,0,1.56.27c.4,0,1.82-.09,1.82-.84,0-.17-.17-.34-.33-.51a2.73,2.73,0,0,1-2,.77,4.16,4.16,0,0,1-2.5-.71,6,6,0,0,1-1.83-1.94,3.87,3.87,0,0,0,2.62,1.47.63.63,0,0,0,.68-.57,1,1,0,0,0,0-.26,5.68,5.68,0,0,1-.89.09,3.15,3.15,0,0,1-2.4-1.25,3.72,3.72,0,0,1-.7-2.31,6.22,6.22,0,0,1,.45-2.18c.05-.1,0-.14-.1,0"/><path d="M263.05,110.61a1.25,1.25,0,0,0,1.24-1.09c-.27,0-.94.09-1.36.11a4.46,4.46,0,0,0,.12,1"/><path d="M259,104a4.1,4.1,0,0,0,.45.62,4.9,4.9,0,0,1,.76-.94A1,1,0,0,0,259,104"/><path d="M265.36,104.63a3.84,3.84,0,0,1,.72.07,1.41,1.41,0,0,0-.6-1.21,3.69,3.69,0,0,0-.12,1.14"/><path d="M263.52,104.67a2,2,0,0,0,.64,1.34,4.25,4.25,0,0,1,.92,1.36,5.35,5.35,0,0,0-1.24-1.23,10.81,10.81,0,0,0-2.3-1.06,1.61,1.61,0,0,1-.82-1.06.66.66,0,0,0-.63.65c0,.4.3,1.13,1.58,1.31a3.53,3.53,0,0,1-2.91-1.83,5,5,0,0,0-.62,1.11,3,3,0,0,0,.91,1.15,4.71,4.71,0,0,0,1.9.74c-.65-.13-1.35-.29-1.83.11a1.16,1.16,0,0,0-.18,1.66,3.93,3.93,0,0,1,3.17-1.36,6.58,6.58,0,0,1,1.47.2,9.81,9.81,0,0,0-1.12-.09,1.67,1.67,0,0,0-1.78,1.46,1.59,1.59,0,0,0,1.75,1.52h.09a1.87,1.87,0,0,1-.38-1.05,1.26,1.26,0,0,1,1.32-1.18,2.09,2.09,0,0,1,2.18,1.83c0,.62-.27.75-.29.94s0,.18.09.18a4.44,4.44,0,0,0,.72-2.48,5.72,5.72,0,0,0-.67-3,2.8,2.8,0,0,1-.34-2.46s0,0,0,0h0a1.35,1.35,0,0,0-1.61,1.3"/><path d="M257.35,108.23a3.35,3.35,0,0,1-.53-1.9c0-1.49,1.07-4.58,5.27-4.58a5.1,5.1,0,0,0-1.33.86.92.92,0,0,0,.7.92.94.94,0,0,1-.42.09c-.4,0-.45-.34-.79-.51-.73-.36-1.37,0-1.94.75a2.71,2.71,0,0,0-.33,2.73,9,9,0,0,0-.63,1.64"/><path d="M261.3,102.85a5.38,5.38,0,0,1,1.44-.83c1.43-.49,2.38-.28,3.35-.94v.61c-.33.21-1.69,1.14-2.19,1.44a19.11,19.11,0,0,1-2.2,1.12.68.68,0,0,1-.22-.26,4.67,4.67,0,0,0,1.63-1.21,1.42,1.42,0,0,1-.95.42,1,1,0,0,1-.86-.35"/><path d="M266.09,100.05a6,6,0,0,1-2.67.76,5.13,5.13,0,0,1-2.83-.77.75.75,0,0,0-.33.65.68.68,0,0,0,.72.7.55.55,0,0,0,.51-.24,8.66,8.66,0,0,0,1.62.16,6.61,6.61,0,0,0,3-.8Z"/><path d="M261.15,97.43a1.35,1.35,0,0,1,.15-.64,1,1,0,0,1-.63-.33.87.87,0,0,0-.24.65,1.2,1.2,0,0,0,1,1.1,1,1,0,0,1-.32-.78"/><path d="M262.93,97.19a2.14,2.14,0,0,0-.7-1.45,1.53,1.53,0,0,0-.36,0,6.2,6.2,0,0,1,.08.93,1.27,1.27,0,0,1-.4.9,1.46,1.46,0,0,0,.49.62,1,1,0,0,0,.89-1"/><path d="M256.46,101.38c-.18.62.15,1.4,1.05,1.21.26-.38.61-.93.61-.93a1.8,1.8,0,0,1-1.3-.32l-.36,0"/><path d="M266.09,99.1a6.12,6.12,0,0,1-2.95.75c-2,0-3.19-1.3-3.19-2.49a1.83,1.83,0,0,1,1.92-1.93,2.73,2.73,0,0,0-1.56-.56,1.88,1.88,0,0,0-1.85,1.62A5.29,5.29,0,0,1,258.3,95a3.8,3.8,0,0,1,.61-1.76.17.17,0,0,0,0-.18,5.16,5.16,0,0,0-1.59,3.56A4.29,4.29,0,0,0,258.7,100c.51-.07.64.18.64.35s-.15.32-.23.27a3.25,3.25,0,0,0-1.54-.49,6.71,6.71,0,0,0-.86.89,4.16,4.16,0,0,1,2.56,1c.16-.1.52-.31.77-.43a1.32,1.32,0,0,1-.29-.87,1.58,1.58,0,0,1,.63-1.25,4.43,4.43,0,0,0,2.81.94,6,6,0,0,0,2.9-.81Z"/><path d="M261.25,94.59a2.82,2.82,0,0,1,2.2,2.7,3.69,3.69,0,0,0,1.41.35,4.65,4.65,0,0,0,2.66-.86,1.67,1.67,0,0,1-.59-1.47,3.2,3.2,0,0,0,3.25-1.83c0-.27,0-1.69,0-1.69l.28-.12a1.5,1.5,0,0,1,.32-.67c-.54.33-1,.67-1.37.92a2.45,2.45,0,0,1-1.53.53.7.7,0,0,1-.65-.56c-.16,0-.7.21-.7.52s.22.72.87.72a3.91,3.91,0,0,0,1.5-.39c0,.11,0,.26,0,.26a3.8,3.8,0,0,1-1.74.74,2,2,0,0,1-1.75-1.23c-.24.06-.94.52-.94,1.09a1,1,0,0,0,.38.83c0-.26,0-.49.23-.62a.63.63,0,0,1,.73-.06,2.59,2.59,0,0,0,1.19.48,3.77,3.77,0,0,0,2-.73v.4a3.34,3.34,0,0,1-2,.83,2.35,2.35,0,0,1-1.51-.61.87.87,0,0,0-.25.69.55.55,0,0,0,.37.54,1.36,1.36,0,0,0,.65,0c.07.36,0,.69-.47.73a4.84,4.84,0,0,1-1.48-.08c-.7-.14-1.46-.76-1.46-1.46a1.3,1.3,0,0,1,.59-1,7.09,7.09,0,0,1-.88,0,5.23,5.23,0,0,1-.86-.08,1.09,1.09,0,0,0-.51,1.07"/><path d="M266.6,91.28c.18.37,1.13.22,1-.67a6.92,6.92,0,0,0-1.27-.31c0,.19.18.85.22,1"/><path d="M265.49,88.44a10.23,10.23,0,0,0-3.95,1.17,5.27,5.27,0,0,0,.51-.55c.58.23,1.07-.42,1.07-1a1.23,1.23,0,0,0-.63-1.11,6.53,6.53,0,0,1-2.95,3.69c-1.82,1.67-2.85,3.52-2.85,5.16a6.43,6.43,0,0,0,0,.9.53.53,0,0,1,.22-.12,6,6,0,0,1-.06-1c0-1.91,2-3.68,4.2-3.68a3.87,3.87,0,0,1,2.58,1,1.09,1.09,0,0,0,.39-.89,1.2,1.2,0,0,0-1.21-1.2,1,1,0,0,0-.72.27,3.16,3.16,0,0,0-1,.17,9.85,9.85,0,0,1,5-1.53,4.62,4.62,0,0,1,1.61.3,4.15,4.15,0,0,0-.26-1.23,3.22,3.22,0,0,0-1.92-.48"/><path d="M263.31,94.58a1.06,1.06,0,0,1,.42-.89,1,1,0,0,1,.44.76.58.58,0,0,1-.18.44l-.34-.23a.66.66,0,0,0-.34-.08"/><path d="M267.34,95.66a3.32,3.32,0,0,0,3.13-2,1.49,1.49,0,0,1,.21.9,2.62,2.62,0,0,1-2.25,2.56c.31-.16,1.42-.73,1.35-1.75-.2.29-.6,1.26-1.44,1.26a1,1,0,0,1-1-1"/><path d="M291.42,104.3a6.27,6.27,0,0,1-.09,7,6.39,6.39,0,0,0-.46,2.68c-.32,0-.8.18-1-.42s.66-1.6.66-1.6a5.88,5.88,0,0,1-4.17,1.83,5.07,5.07,0,0,1-4.72-2.84c-.08-.14.06-.19.13-.07a4.76,4.76,0,0,0,6,1.37,5,5,0,0,1-1.56.27c-.41,0-1.83-.09-1.83-.84,0-.17.18-.34.33-.51a2.75,2.75,0,0,0,2,.77,4.16,4.16,0,0,0,2.5-.71,5.81,5.81,0,0,0,1.82-1.94,3.8,3.8,0,0,1-2.6,1.47.64.64,0,0,1-.69-.57,1,1,0,0,1,0-.26,5.68,5.68,0,0,0,.89.09,3.16,3.16,0,0,0,2.41-1.25,3.71,3.71,0,0,0,.69-2.31,6.22,6.22,0,0,0-.45-2.18c-.05-.1,0-.14.11,0"/><path d="M285.1,110.61a1.24,1.24,0,0,1-1.23-1.09c.26,0,.94.09,1.35.11a4.46,4.46,0,0,1-.12,1"/><path d="M289.15,104a3.07,3.07,0,0,1-.45.62,4.9,4.9,0,0,0-.76-.94,1,1,0,0,1,1.21.32"/><path d="M282.79,104.63a3.68,3.68,0,0,0-.71.07,1.36,1.36,0,0,1,.6-1.21,3.68,3.68,0,0,1,.11,1.14"/><path d="M284.64,104.67A2.08,2.08,0,0,1,284,106a4.25,4.25,0,0,0-.92,1.36,5.28,5.28,0,0,1,1.23-1.23,10.81,10.81,0,0,1,2.3-1.06,1.59,1.59,0,0,0,.82-1.06.66.66,0,0,1,.63.65c0,.4-.3,1.13-1.58,1.31a3.54,3.54,0,0,0,2.91-1.83,5,5,0,0,1,.62,1.11,3,3,0,0,1-.91,1.15,4.65,4.65,0,0,1-1.9.74c.65-.13,1.35-.29,1.83.11a1.16,1.16,0,0,1,.18,1.66,3.93,3.93,0,0,0-3.16-1.36,6.36,6.36,0,0,0-1.47.2,9.38,9.38,0,0,1,1.11-.09,1.67,1.67,0,0,1,1.79,1.46,1.6,1.6,0,0,1-1.76,1.52h-.09a1.87,1.87,0,0,0,.39-1.05,1.27,1.27,0,0,0-1.33-1.18,2.09,2.09,0,0,0-2.18,1.83c0,.62.27.75.29.94s-.05.18-.09.18a4.55,4.55,0,0,1-.71-2.48,5.82,5.82,0,0,1,.66-3,2.81,2.81,0,0,0,.35-2.46.05.05,0,0,1,0,0h0a1.36,1.36,0,0,1,1.62,1.3"/><path d="M290.81,108.23a3.43,3.43,0,0,0,.52-1.9c0-1.49-1.06-4.58-5.27-4.58a5.1,5.1,0,0,1,1.33.86.92.92,0,0,1-.7.92,1,1,0,0,0,.43.09c.39,0,.45-.34.78-.51.73-.36,1.38,0,1.94.75a2.71,2.71,0,0,1,.33,2.73,9.67,9.67,0,0,1,.64,1.64"/><path d="M286.85,102.85a5.38,5.38,0,0,0-1.44-.83c-1.42-.49-2.38-.28-3.35-.94v.61c.33.21,1.7,1.14,2.19,1.44a19.11,19.11,0,0,0,2.2,1.12.68.68,0,0,0,.22-.26,4.86,4.86,0,0,1-1.63-1.21,1.41,1.41,0,0,0,1,.42.94.94,0,0,0,.85-.35"/><path d="M287.57,100a5.19,5.19,0,0,1-2.84.77,6.05,6.05,0,0,1-2.67-.76v.46a6.61,6.61,0,0,0,3,.8,8.66,8.66,0,0,0,1.62-.16.56.56,0,0,0,.51.24.68.68,0,0,0,.72-.7.76.76,0,0,0-.32-.65"/><path d="M287,97.43a1.35,1.35,0,0,0-.15-.64,1,1,0,0,0,.64-.33.91.91,0,0,1,.23.65,1.2,1.2,0,0,1-1,1.1,1,1,0,0,0,.32-.78"/><path d="M285.23,97.19a2.13,2.13,0,0,1,.69-1.45,1.53,1.53,0,0,1,.36,0,6.2,6.2,0,0,0-.08.93,1.27,1.27,0,0,0,.4.9,1.46,1.46,0,0,1-.49.62,1,1,0,0,1-.88-1"/><path d="M291.7,101.38c.17.62-.16,1.4-1.06,1.21l-.61-.93a1.8,1.8,0,0,0,1.3-.32l.37,0"/><path d="M290.58,100.08a3.18,3.18,0,0,0-1.53.49c-.09.05-.23-.08-.23-.27s.13-.42.63-.35a4.26,4.26,0,0,0,1.39-3.37,5.12,5.12,0,0,0-1.6-3.56.17.17,0,0,0,0,.18,3.8,3.8,0,0,1,.61,1.76,5.29,5.29,0,0,1-.16,1.53c-.27-.93-.78-1.62-1.85-1.62a2.73,2.73,0,0,0-1.56.56,1.83,1.83,0,0,1,1.92,1.93c0,1.19-1.18,2.49-3.19,2.49a6.12,6.12,0,0,1-2.95-.75v.41a6,6,0,0,0,2.9.81,4.45,4.45,0,0,0,2.81-.94,1.56,1.56,0,0,1,.63,1.25,1.32,1.32,0,0,1-.29.87,6.37,6.37,0,0,1,.77.44,4.16,4.16,0,0,1,2.57-1,6.52,6.52,0,0,0-.87-.89"/><path d="M286.91,94.59a2.83,2.83,0,0,0-2.21,2.7,3.69,3.69,0,0,1-1.41.35,4.67,4.67,0,0,1-2.66-.86,1.69,1.69,0,0,0,.59-1.47A3.17,3.17,0,0,1,278,93.48c0-.27,0-1.69,0-1.69l-.28-.12a1.5,1.5,0,0,0-.32-.67c.54.33,1,.67,1.38.92a2.4,2.4,0,0,0,1.52.53.7.7,0,0,0,.65-.56c.15,0,.7.21.7.52a.76.76,0,0,1-.86.72,4,4,0,0,1-1.51-.39c0,.11,0,.26,0,.26a3.8,3.8,0,0,0,1.74.74,2,2,0,0,0,1.76-1.23c.23.06.93.52.93,1.09a1,1,0,0,1-.38.83c0-.26-.05-.49-.23-.62a.61.61,0,0,0-.72-.06,2.63,2.63,0,0,1-1.2.48,3.8,3.8,0,0,1-2-.73v.4a3.34,3.34,0,0,0,2,.83,2.38,2.38,0,0,0,1.51-.61.87.87,0,0,1,.26.69.56.56,0,0,1-.38.54,1.35,1.35,0,0,1-.65,0c-.07.36,0,.69.47.73a4.84,4.84,0,0,0,1.48-.08,1.75,1.75,0,0,0,1.46-1.46,1.3,1.3,0,0,0-.59-1,7.17,7.17,0,0,0,.89,0,5.2,5.2,0,0,0,.85-.08,1.1,1.1,0,0,1,.52,1.07"/><path d="M281.55,91.28c-.18.37-1.13.22-1.05-.67a7.34,7.34,0,0,1,1.27-.31c0,.19-.17.85-.22,1"/><path d="M282.66,88.44a10.34,10.34,0,0,1,4,1.17,4.47,4.47,0,0,1-.52-.55c-.58.23-1.07-.42-1.07-1a1.22,1.22,0,0,1,.64-1.11,6.48,6.48,0,0,0,2.94,3.69c1.82,1.67,2.85,3.52,2.85,5.16a6.43,6.43,0,0,1,0,.9.48.48,0,0,0-.22-.12,6,6,0,0,0,.06-1c0-1.91-2-3.68-4.2-3.68a3.87,3.87,0,0,0-2.58,1,1.06,1.06,0,0,1-.39-.89,1.21,1.21,0,0,1,1.21-1.2,1,1,0,0,1,.72.27,3.27,3.27,0,0,1,1,.17,9.88,9.88,0,0,0-5-1.53,4.6,4.6,0,0,0-1.6.3,3.86,3.86,0,0,1,.26-1.23,3.15,3.15,0,0,1,1.91-.48"/><path d="M284.85,94.58a1.09,1.09,0,0,0-.42-.89,1,1,0,0,0-.45.76.59.59,0,0,0,.19.44,3,3,0,0,1,.33-.23.67.67,0,0,1,.35-.08"/><path d="M280.81,95.66a3.32,3.32,0,0,1-3.13-2,1.49,1.49,0,0,0-.21.9,2.62,2.62,0,0,0,2.26,2.56c-.32-.16-1.43-.73-1.35-1.75.19.29.59,1.26,1.43,1.26a1,1,0,0,0,1-1"/><path d="M274.09,93.84a4.87,4.87,0,0,0-1.28.14l.08.3a5.86,5.86,0,0,1,1.21-.11h-.05a6,6,0,0,1,1.22.11l.07-.3a4.87,4.87,0,0,0-1.28-.14Zm0-.27a5.65,5.65,0,0,1,2.27.44c-.11.22-.27.57-.38.77a4.65,4.65,0,0,0-1.9-.29h.06a4.66,4.66,0,0,0-1.89.29c-.11-.2-.26-.55-.38-.77a5.7,5.7,0,0,1,2.27-.44Z"/><path d="M274.1,91.26s-.42,0-.73,0c-.05.47-.42.58-.67.13-.14.1-.71.32-.85.39a2.91,2.91,0,0,0-.13.64c-.16,0-.29.08-.5.13a3.76,3.76,0,0,0,0,.49,5.68,5.68,0,0,0,.9-.27,3.78,3.78,0,0,0,.1-.63,2.78,2.78,0,0,0,.52-.22c.36.5.78.32,1-.21h.79c.18.53.6.71,1,.21a2.46,2.46,0,0,0,.51.22,5.21,5.21,0,0,0,.1.63,6,6,0,0,0,.9.27,3.76,3.76,0,0,0,0-.49l-.49-.13a3.63,3.63,0,0,0-.13-.64,8.19,8.19,0,0,1-.85-.39c-.26.45-.63.34-.67-.13-.32,0-.74,0-.74,0Zm-.05-1.21A3.09,3.09,0,0,1,277.16,92l.32.1s0,1.22,0,1.47a3.35,3.35,0,0,1-.56-.27s-.12.19-.2.34a6.28,6.28,0,0,0-5.23,0c-.08-.15-.2-.34-.2-.34a2.78,2.78,0,0,1-.57.27c0-.25,0-1.47,0-1.47L271,92a3.08,3.08,0,0,1,3.11-1.91Z"/><path d="M285,98a3.89,3.89,0,0,1-2.23.67,1.83,1.83,0,0,1-.69-.14V99a4.26,4.26,0,0,0,1.79.37,2.93,2.93,0,0,0,1.63-.36c-.13-.31-.5-1.1-.5-1.1"/><path d="M278,97.12A4,4,0,0,0,277,97a3.48,3.48,0,0,0-2.62,1.27l-.26.26-.25-.26A3.47,3.47,0,0,0,271.2,97a3.92,3.92,0,0,0-1.08.14l-.11,0,0,.35.17-.05a3.8,3.8,0,0,1,1-.13,3.11,3.11,0,0,1,2.37,1.16l.5.52.51-.52A3.15,3.15,0,0,1,277,97.33a3.8,3.8,0,0,1,1,.13l.17.05,0-.35Z"/><path d="M274.32,95.6h-.49v1.79h.49Zm-.27-.62a5.09,5.09,0,0,1,1.86.28,1.8,1.8,0,0,0,.51,1.08,5.3,5.3,0,0,1,.68-.11,2.46,2.46,0,0,1-.46-1.55,2.15,2.15,0,0,1,.1-.73l.35.18a2.25,2.25,0,0,0,0,.56,2.7,2.7,0,0,0,1.09,2.1,4.24,4.24,0,0,0-1.2-.16A3.84,3.84,0,0,0,274.07,98a3.79,3.79,0,0,0-2.87-1.37,4.17,4.17,0,0,0-1.19.16,2.72,2.72,0,0,0,1.08-2.1,1.85,1.85,0,0,0,0-.56l.35-.18a2.15,2.15,0,0,1,.1.73,2.46,2.46,0,0,1-.46,1.55,5.89,5.89,0,0,1,.69.11,1.85,1.85,0,0,0,.5-1.08A5.13,5.13,0,0,1,274.1,95Z"/><path d="M285.46,84.78a.29.29,0,0,0,0,.27.51.51,0,0,0,.23.23.48.48,0,0,0,.31.07.26.26,0,0,0,.2-.15.26.26,0,0,0,0-.22.79.79,0,0,0-.12-.15L286,84.7a.45.45,0,0,1-.1-.1.07.07,0,0,1,0-.09.08.08,0,0,1,.08-.06.35.35,0,0,1,.14,0l.1.09a.16.16,0,0,1,0,.15l.18.1a.34.34,0,0,0,0-.28.45.45,0,0,0-.21-.2.43.43,0,0,0-.3-.06.24.24,0,0,0-.19.15.23.23,0,0,0,0,.24.62.62,0,0,0,.15.18l.09.06.1.11a.14.14,0,0,1,0,.09.12.12,0,0,1-.14.06.41.41,0,0,1-.12,0,.22.22,0,0,1-.12-.14.22.22,0,0,1,0-.11Zm-1.17-.65a.43.43,0,0,0-.06.25.36.36,0,0,0,.25.3.36.36,0,0,0,.39,0,.56.56,0,0,0,.16-.2l.26-.57-.2-.09-.26.57a.31.31,0,0,1-.09.12s-.1,0-.19,0-.11-.08-.11-.15a.37.37,0,0,1,0-.15l.27-.56-.2-.09Zm-1-1.08-.07.17.29.11-.32.77.2.08.31-.76.28.11.07-.17Zm-.47-.17-.19-.08-.35,1,.19.06Zm-1.15-.22.09,0a.16.16,0,0,1,0,.14s-.05.09-.1.09a.19.19,0,0,1-.1,0l-.21-.07.08-.26Zm.1-.15-.46-.15-.31,1,.19.06.12-.37.2.06c.05,0,.09,0,.1.07s0,.07,0,.13l0,.09a.29.29,0,0,0,0,.09v0l.22.08v0a.06.06,0,0,1,0-.07s0,0,0-.09l0-.06a.36.36,0,0,0,0-.16.26.26,0,0,0-.08-.11.25.25,0,0,0,.15,0,.35.35,0,0,0,.08-.13.38.38,0,0,0,0-.1.3.3,0,0,0,0-.1.36.36,0,0,0-.07-.1.3.3,0,0,0-.14-.07m-1-.32-.2-.06-.29,1,.21.06Zm-1,.06s0,.09-.07.1a.16.16,0,0,1-.12,0l-.18,0,.07-.28.19,0,.1.06a.16.16,0,0,1,0,.12m.2,0a.33.33,0,0,0,0-.26.38.38,0,0,0-.21-.13l-.43-.11-.24,1,.2.06.09-.35.2.05a.4.4,0,0,0,.27,0,.26.26,0,0,0,.14-.22m-2.16-.11a.27.27,0,0,0,.07.26.46.46,0,0,0,.28.16.54.54,0,0,0,.32,0,.28.28,0,0,0,.15-.2.22.22,0,0,0-.05-.22.48.48,0,0,0-.15-.11l-.16-.08-.13-.07a.08.08,0,0,1,0-.09.11.11,0,0,1,.07-.08.22.22,0,0,1,.14,0l.12,0a.18.18,0,0,1,.05.15l.2,0a.35.35,0,0,0-.07-.27.51.51,0,0,0-.25-.14.4.4,0,0,0-.31,0,.32.32,0,0,0-.15.19A.31.31,0,0,0,278,82a1.66,1.66,0,0,0,.2.12l.1,0,.13.07a.08.08,0,0,1,0,.09.1.1,0,0,1-.11.09.28.28,0,0,1-.13,0c-.08,0-.14,0-.16-.1a.31.31,0,0,1,0-.11Zm-8.2-.39h.1a.15.15,0,0,1,.08.11.14.14,0,0,1,0,.13l-.1,0-.22,0-.06-.27Zm0-.17-.47.1.22,1,.2,0-.08-.39.2,0a.16.16,0,0,1,.12,0,.17.17,0,0,1,.06.12l0,.09,0,.08a.33.33,0,0,1,0,.06l.23-.06v0a.12.12,0,0,1-.05,0,.46.46,0,0,1,0-.09v-.07a.52.52,0,0,0-.07-.15.16.16,0,0,0-.11,0A.23.23,0,0,0,270,82a.38.38,0,0,0,0-.15.26.26,0,0,0-.11-.17.24.24,0,0,0-.1,0,.51.51,0,0,0-.17,0m-1.26,1.19a.24.24,0,0,1-.22,0,.43.43,0,0,1-.14-.23.35.35,0,0,1,0-.27.22.22,0,0,1,.17-.15.23.23,0,0,1,.21,0,.48.48,0,0,1,.14.23.44.44,0,0,1,0,.28.24.24,0,0,1-.17.14m.37-.47a.53.53,0,0,0-.25-.36.41.41,0,0,0-.35,0,.43.43,0,0,0-.29.2.63.63,0,0,0,.22.8.39.39,0,0,0,.34,0,.44.44,0,0,0,.3-.2.55.55,0,0,0,0-.44m-1.62-.07-.2.06.29,1,.21-.06Zm-1.07.53a.22.22,0,0,1,.1,0,.12.12,0,0,1,.09.1.12.12,0,0,1,0,.13.34.34,0,0,1-.1,0l-.21.08-.09-.26Zm0-.18-.45.15.33,1,.19-.06L266,83.3l.2-.07a.17.17,0,0,1,.12,0,.2.2,0,0,1,.08.11l0,.09,0,.08,0,0,.22-.08v0s0,0-.06,0a.46.46,0,0,1,0-.09l0-.06a.35.35,0,0,0-.07-.14.21.21,0,0,0-.12-.05.26.26,0,0,0,.08-.13.39.39,0,0,0,0-.15.41.41,0,0,0-.05-.09l-.07-.07-.12,0-.16,0m-1.31.73.26.32-.24.1Zm-.16.9.21-.08,0-.22.35-.14.14.17.21-.08-.71-.81-.22.09Zm-1,.44.65-.3-.07-.16-.47.21-.34-.76-.19.09Zm-1.48.2a.49.49,0,0,0,.29.28.39.39,0,0,0,.36,0,.35.35,0,0,0,.2-.23.39.39,0,0,0,0-.3l-.18.1a.62.62,0,0,1,0,.13.19.19,0,0,1-.11.14.2.2,0,0,1-.2,0,.34.34,0,0,1-.18-.19.46.46,0,0,1-.07-.26.19.19,0,0,1,.12-.16.2.2,0,0,1,.18,0,.32.32,0,0,1,.09.08l.19-.1a.32.32,0,0,0-.15-.13.39.39,0,0,0-.4,0,.41.41,0,0,0-.22.25.53.53,0,0,0,.07.43m13.31-4.08a.57.57,0,0,0,.1.4.46.46,0,0,0,.33.16.47.47,0,0,0,.29-.08.54.54,0,0,0,.16-.26l-.22,0a.33.33,0,0,1-.05.12.25.25,0,0,1-.17.06.22.22,0,0,1-.17-.1.39.39,0,0,1-.05-.26.47.47,0,0,1,.08-.26.19.19,0,0,1,.18-.07.19.19,0,0,1,.17.07s0,.07,0,.11l.21,0a.53.53,0,0,0-.05-.2.43.43,0,0,0-.36-.19.44.44,0,0,0-.32.1.57.57,0,0,0-.17.4m-1.36.47h.2v-.72l.41.72h.21v-1h-.2V81l-.39-.72h-.22Zm-.57-1h-.21l0,1h.22Zm-1.32,1.08,0-.45.39,0,0,.45.21,0-.07-1-.21,0,0,.38-.4,0,0-.39-.21,0,.07,1Zm10.26,4.5a1.15,1.15,0,0,0-.16.46.82.82,0,0,0,.52.73,7.23,7.23,0,0,1,.65-1.15,5.43,5.43,0,0,0-.71,0Zm.83-1.13a5.68,5.68,0,0,0-.64.77,9.06,9.06,0,0,1,4.34,1.19,20.43,20.43,0,0,0-3.7-2M277,82.57a26.63,26.63,0,0,1,10.2,3.84l.85-1.25a28.17,28.17,0,0,0-10.79-4.09Zm1.1-1.7.52.1.05-.26-.19.06Zm-12.6,5a5.43,5.43,0,0,0-.71,0,8.1,8.1,0,0,1,.65,1.15.82.82,0,0,0,.52-.73,1,1,0,0,0-.17-.46Zm-4.23.83a9.06,9.06,0,0,1,4.34-1.19,6.53,6.53,0,0,0-.64-.77,20.43,20.43,0,0,0-3.7,2m9.72-5.63a28.12,28.12,0,0,0-10.78,4.09l.86,1.25a26.52,26.52,0,0,1,10.19-3.84Zm-1.22-.3-.18-.06,0,.26.52-.1Zm4.36-.77a17.41,17.41,0,0,1,4.26.42l-1.43.38-.18.86a20.42,20.42,0,0,0-2.65-.15,22.37,22.37,0,0,0-2.65.15l-.18-.86-1.44-.38a17.55,17.55,0,0,1,4.27-.42Z"/><path d="M266.09,98.48a1.83,1.83,0,0,1-.69.14,3.89,3.89,0,0,1-2.23-.67l-.5,1.1a2.93,2.93,0,0,0,1.63.36,4.26,4.26,0,0,0,1.79-.37Z"/><path d="M273.66,103.72a.29.29,0,0,0-.17.29c0,.1,0,.5,0,.67s.28.08.39,0a.71.71,0,0,1,.17-.11v-1c-.19.09-.36.16-.42.2"/><path d="M273.81,102.35a2.87,2.87,0,0,0-1.27.67c-.17.15-.27.57-.15.65s.35-.13.65-.33.69,0,1,0h.05v-1a2,2,0,0,1-.27,0"/><path d="M267.85,108.64V99h5.75l-.28-.28c-.16-.17-.33-.32-.5-.47H267.1v10.37c0,4,4.5,6,7,6.61v-.77c-2-.5-6.23-2.32-6.23-5.84"/><path d="M275.77,98c-.15.09-.29.19-.44.3h5.73v10.37c0,4-4.49,6-7,6.61v.31c2.56-.57,7.28-2.73,7.28-6.92V98Z"/><path d="M276.33,104.1a1.15,1.15,0,0,1-.76.55c-.06,0-.11,0-.11-.07a.77.77,0,0,1,.11-.39.89.89,0,0,0,0-.22.77.77,0,0,1,.16-.22c.15-.14.42-.34.46-.46s.22-.21.22-.06a1.66,1.66,0,0,1-.12.87M274.56,99l-.48.49v.42c.13,0,.1,0,.08.13s-.07.11,0,.25.23.16.36.25.3,0,.46,0a2.79,2.79,0,0,0,.34-.07.59.59,0,0,0-.19,0,.54.54,0,0,1-.35-.18.55.55,0,0,0-.46-.12c-.12,0-.08-.1,0-.1a1,1,0,0,0,.35-.12.63.63,0,0,1,.33-.06c.15,0,.24,0,.28.1s.17.14.27.1.11.08.09.15,0,.14.06.25.2.08.24-.08.16-.11.13-.16.05-.12.13-.18,0-.09-.08-.11-.16.08-.25.12-.13,0-.11,0a.5.5,0,0,1,.5-.2c.15,0,.18,0,.13.18s-.06.15-.25.38l.22.26c.21.26.19.62.19,1.19a2.05,2.05,0,0,1-.89,1.73c-.21.17-.18,0-.18-.17a2.82,2.82,0,0,1,.12-.56c0-.14.11-.11.22-.24a1.49,1.49,0,0,0,.14-1.86,1.5,1.5,0,0,0-.27,0,1.06,1.06,0,0,1,.25.82,1.63,1.63,0,0,1-.67,1.2c-.08,0-.15,0-.19-.06a2.14,2.14,0,0,1,.06-.56c0-.12.07-.12.17-.18.34-.19.29-.52.29-.74s-.1-.19-.3-.22a1.36,1.36,0,0,1,0,.3c0,.16-.1.23-.28.37a.38.38,0,0,1-.53,0c.14,0,.27-.08.26-.18-.21,0-.26-.12-.4-.28s0-.29-.09-.32-.17.08-.22.19v.5a.39.39,0,0,0,.09.15c.09.07.1.17,0,.22l-.1,0v.42a3.38,3.38,0,0,0,.5-.07c.12,0,.15.07.1.2s-.15.52-.18.64-.15.21-.42.22v.21l.75-.3c.19-.08.3-.08.27,0s-.16.58-.18.69,0,.17-.18.23-.45.23-.66.36v.31l.14-.08a7.86,7.86,0,0,0,.67-.44c.08-.08.28-.12.24,0s0,.55-.23.73-.47.47-.72.5a.18.18,0,0,0-.1.06v.13h0c.12,0,.3.11.39,0s.69-.58.81-.64.36-.2.36,0a1.69,1.69,0,0,0,.05.43,5.92,5.92,0,0,0,.92,1.47,7,7,0,0,1,.67,1.91c.2.47.57,1,1,1a.61.61,0,0,0,.62-.55c0-.92-.4-1.36-1.09-2.51a4.27,4.27,0,0,1-.95-2.51,2.73,2.73,0,0,1,.72-1.89,2.27,2.27,0,0,0,.28-1.29c0-.49.22-1.67,1.41-1.54a.72.72,0,0,0-.54.6,5.7,5.7,0,0,1-.23.82c-.07.22.13.62.32.15a4,4,0,0,0,.21-.58c.15.6.19,1.07-.26,1.47.08,0,.13.14.19.12a.7.7,0,0,1,.31,0c-.26.77-.94.6-1.39.79a1,1,0,0,0-.68.9c-.06.59.17.85.42.46.16.45.11.62.05.67a.83.83,0,0,0-.25.33c0,.16.2.22.34.08l.17-.17c.13.32.22.31,0,.71a.15.15,0,0,0,.22.2.62.62,0,0,0,.21-.22c.08.2.17.45.08.56s-.09.08-.1.17.06.19.15.13a.61.61,0,0,0,.15-.15c.07.27.17.41,0,.64s0,.33.12.49a2.74,2.74,0,0,1,.43,1.66.83.83,0,0,1-.7.82,1.22,1.22,0,0,1-.72-.14.49.49,0,0,0-.44-.44l-.06-.08a2.77,2.77,0,0,1-.31-1.14,1.76,1.76,0,0,0-.59-1.2,2.87,2.87,0,0,1,.38,1.15c0,.3-.26.82-.13,1a.78.78,0,0,0,.53.41c.21,0,.43.09.43.3a.2.2,0,0,0,.16.2c.21.08.23.33.2.57a.63.63,0,0,0-.27-.07c-.09,0-.14,0-.11.12s.38.33.27.61c-.13,0-.22,0-.37-.07a1.6,1.6,0,0,0,0,.47c0,.07.15.25.08.33s-.22-.13-.3-.08-.05.18-.07.27a1.28,1.28,0,0,0,0,.33c-.15,0-.38-.1-.45,0s0,.23-.11.21,0,.24-.14.14,0-.22-.11-.22a.58.58,0,0,0-.38.13.26.26,0,0,1-.3.09.4.4,0,0,0-.39,0,.54.54,0,0,0,.05-.25c0-.07,0-.21.14-.23l.28-.08a3.3,3.3,0,0,0-.43-.06c-.05,0-.1-.09-.13-.19a.22.22,0,0,0-.06-.13.8.8,0,0,1-.22-.07l.23,0c0-.13.11-.29.25-.21s.21.26.34.34a1.61,1.61,0,0,1,0-.38.31.31,0,0,0,0-.28c-.05-.07,0-.11.13,0s.23.14.22.24,0,.27.1.27a.42.42,0,0,0,.44-.31,6.33,6.33,0,0,0,0-1.29,1.25,1.25,0,0,0,.26-.11,1.23,1.23,0,0,1-.66-.27c-.09-.09-.16,0-.11,0s-.09.11-.09.16a2.06,2.06,0,0,1,0,.21c-.12-.08-.14-.14-.12-.25s-.11-.09-.11-.18a.07.07,0,0,0-.13,0,.36.36,0,0,1-.29.08c-.05,0,0-.11,0-.19s-.06,0-.1-.14a2.18,2.18,0,0,1-.24-1.14c0-.67.09-.77.13-1.31a1.17,1.17,0,0,0,0-.49c0-.07-.07-.18-.18-.15s-.28,0-.45,0l-.3,0v7.77c2-.5,6.23-2.32,6.23-5.84V99Z"/><path d="M274.08,105.65v-.79a2.16,2.16,0,0,1-.66.23c-.15,0-.22.26-.22.37a2.21,2.21,0,0,0,.07.32c0,.08.13.07.25.06a.37.37,0,0,1-.35.12c-.07,0-.15,0-.11.06l.41.59c.07.09.18.17.25.16l.36-.06v-.93c-.05,0,0-.08,0-.13"/><path d="M274,101.11a.36.36,0,0,0,0-.11V99.93H274c-.18,0-.52.08-.66.09s-.29,0-.26.26a1.37,1.37,0,0,1,0,.42c0,.28.16.23.16.3s-.15.12-.28.11a.65.65,0,0,1-.64-.74c0-.12,0-.2-.12-.15a1.23,1.23,0,0,0-.39.36.34.34,0,0,0,.09.38.82.82,0,0,0,.62.37h.61a.28.28,0,0,0,0,.29c.08.15.18.15.13.28s-.1.25,0,.28a.27.27,0,0,0,.33-.21c0-.07.08,0,.19,0a1.21,1.21,0,0,0,.37,0v-.4a.7.7,0,0,1,0-.39"/><path d="M274.07,107c.14.09,0,.32.16.31s.22.11.32.18.16.24.09.39a1.26,1.26,0,0,0,.09.37.56.56,0,0,1-.34.11c-.21,0-.13-.11-.21-.1a.66.66,0,0,1-.37.13c-.21,0-.23.17-.36.24a1.75,1.75,0,0,1,0,.31c.18,0,.29,0,.28.23l-.17,0c-.12,0-.09.27-.09.36s0,.13-.16.19l-.45.17s0-.19,0-.31-.14,0-.14.06a.68.68,0,0,1-.09.35,1.21,1.21,0,0,1-.46.15,1.45,1.45,0,0,0,0-.22c0-.1-.11-.07-.11,0s0,.11,0,.29-.26.18-.48.18a.31.31,0,0,0,0-.28s-.1,0-.12,0a1,1,0,0,1-.41.49.9.9,0,0,1-.2-.48c0-.15-.12-.18-.24-.15a2,2,0,0,1-.41,0c-.1,0-.2,0-.28-.1s-.23.06-.37.22c-.06-.37.14-.4.26-.48a.2.2,0,0,1,.05-.22c.09-.08.24,0,.28-.09s-.06-.18-.14-.25.09-.18,0-.24a.83.83,0,0,0-.36-.06c.15-.27.49-.25.78-.15a.5.5,0,0,1,.25,0c.17,0,.16-.15.16-.26s0-.08.09-.19c.21,0,.36.22.46.38.08,0,.15,0,.16.18s-.06.31.14.31a1,1,0,0,0,.62-.28c.09-.08,0-.26,0-.43s-.22-.07-.26-.16,0-.12,0-.2-.08-.12-.08-.23.12-.22.16-.29a.37.37,0,0,1,.33-.29c.26,0,.37-.22.51-.34a.76.76,0,0,1,.62-.08,1.41,1.41,0,0,1,.56.18"/><path d="M273.32,104.4c0,.34-.13.42-.23.64s0,.2-.06.56c0,.15-.28.25-.49.21a.67.67,0,0,0,0-.34c0-.14-.18-.06-.18-.06a1,1,0,0,1,0,.34c-.05.19-.31.26-.57.27a.85.85,0,0,1,0-.24c0-.17-.16-.14-.16,0s0,.28-.1.32a2.54,2.54,0,0,0-.38.08s.06-.32-.08-.29-.09.27-.18.35a.7.7,0,0,1-.45.1c-.08,0,0-.18-.06-.39a.67.67,0,0,0-.12.36.39.39,0,0,0-.17.19c-.1.22-.17.27-.38.3.15-.23,0-.19,0-.29-.2,0-.22-.13-.22-.26s-.17-.2-.17-.13c0,.25-.31.27-.54.26-.07,0-.13.1-.15.29-.27-.22-.2-.4-.13-.52a.35.35,0,0,1,.27-.34c.14,0,.15-.25,0-.27s-.25-.08-.3-.22a.54.54,0,0,0-.36.15c-.08-.11,0-.29.16-.33s.11-.15.34-.22a1.07,1.07,0,0,1,.58,0s0-.06-.07-.18.07-.21,0-.3-.25,0-.25-.25c.35-.09.39.07.59.17s.3,0,.39.2,0,.28,0,.46.49-.16.56-.19a21.08,21.08,0,0,0,1.95-.82,2.15,2.15,0,0,1,1-.47,2.85,2.85,0,0,0-.09.77"/><path d="M270.46,99.54c.27.1.47.22.52.37s.17.2.12.4c.18,0,.37-.07.25-.35.25.1.24.15.27.48s-.09.27-.22.37-.19.15-.19.3c0,.39.22.3.3.43.27.46.55.75.83,1.17a1.32,1.32,0,0,0-.29.58,5.1,5.1,0,0,0,0,.68.69.69,0,0,1-.88,0,2.65,2.65,0,0,1,.42-.16,1.47,1.47,0,0,1,0-.26c-.37,0-.68,0-.79-.32a3.15,3.15,0,0,0,.39,0L271,103a.68.68,0,0,1-.63-.4,2.54,2.54,0,0,1,.39,0,2.43,2.43,0,0,0-.16-.28.57.57,0,0,1-.56-.41,1.43,1.43,0,0,0,.4,0v-.31c-.16,0-.35.13-.55,0s-.13,0-.22-.06-.27-.07-.28-.4a.51.51,0,0,0,.41,0c.12-.07.19-.13.14-.22s-.2-.16-.21-.33,0-.38,0-.38-.11-.12-.24-.1a.64.64,0,0,1,.61,0,.59.59,0,0,1,.34.27c.08-.06,0-.1.06-.22s.17-.25,0-.51"/><path d="M277.27,97.68H277a2.51,2.51,0,0,0-1.62.59h5.73v10.37c0,4-4.49,6-7,6.61v.61c2.54-.54,7.58-2.76,7.58-7.22v-11Z"/><path d="M266.8,108.64V98h5.57a2.41,2.41,0,0,0-1.17-.28h-4.69v11c0,4.46,5,6.68,7.57,7.22v-.3c-2.55-.57-7.28-2.73-7.28-6.92"/><path d="M274.24,100.38l-.06-.07c-.09-.14-.05-.15,0-.25s.06-.13-.18-.14-.52.08-.66.09-.29,0-.26.26a1.35,1.35,0,0,1,0,.42c0,.28.16.23.16.3s-.15.12-.28.11a.65.65,0,0,1-.64-.74c0-.12,0-.2-.12-.15a1.23,1.23,0,0,0-.39.36.32.32,0,0,0,.09.37.8.8,0,0,0,.62.38h.61a.29.29,0,0,0,0,.3c.08.14.18.14.13.27s-.1.25,0,.28a.27.27,0,0,0,.33-.21c0-.07.08,0,.19,0a1.2,1.2,0,0,0,.47,0c.09-.05.08-.15,0-.22s0-.49,0-.72c-.15-.17.11-.4,0-.55"/><path d="M269.21,85.93a1.51,1.51,0,0,1,.55-.75c.39-.25.52-.17.73-.31a1.36,1.36,0,0,1-.35.72,1.57,1.57,0,0,1-.93.34"/><path d="M270.81,83.54a1.56,1.56,0,0,0-1.29,1c.13.15.38.13.7,0a1.61,1.61,0,0,0,.59-1"/><path d="M269.25,87.23a1.54,1.54,0,0,1,.38-.93,4.24,4.24,0,0,1,.65-.4,1.24,1.24,0,0,1-.31.89,4,4,0,0,1-.72.44"/><path d="M269.5,88.2a1.45,1.45,0,0,1,.36-1c.19-.18.49-.26.55-.39a1.84,1.84,0,0,1-.2.88,1.43,1.43,0,0,1-.71.53"/><path d="M270,89.24a1.66,1.66,0,0,1,.55-1.42c.28.21.2.64.11.94a.68.68,0,0,1-.66.48"/><path d="M271,88.58a1.48,1.48,0,0,0-.32,1.45.9.9,0,0,0,.32-1.45"/><path d="M270.75,89.93a.81.81,0,0,0-.7-.23,1.2,1.2,0,0,1-1.05-.26c.29.45.52.76,1,.82s.88-.1.74-.33"/><path d="M269.87,89.07c-.49-.58-1.06-.53-1.51-.89a2.16,2.16,0,0,0,.68,1c.29.19.94.25.83-.1"/><path d="M269.4,88a.63.63,0,0,1-.7-.19c-.25-.25-.34-.46-.46-1.22.27.35.48.45.67.68s.5.46.49.73"/><path d="M269.21,87.06c-.53-.36-.64-.44-.78-.81a2.48,2.48,0,0,1-.08-.9,2.68,2.68,0,0,1,.56.61,2.31,2.31,0,0,1,.3,1.1"/><path d="M269.17,85.52a.86.86,0,0,1-.42-.69c0-.49.36-.8.27-1a1.42,1.42,0,0,1,.33.78,2.76,2.76,0,0,1-.18.94"/><path d="M270.91,90.43c.16-.19.31-.35.53-.35a1.8,1.8,0,0,1,.72.13c-.1.13-.18.27-.33.32a1.12,1.12,0,0,1-.92-.1"/><path d="M271.87,89.76a.91.91,0,0,1,.64-.22,2.28,2.28,0,0,1,.88.44,2.06,2.06,0,0,1-.92,0,2.78,2.78,0,0,1-.6-.25"/><path d="M273.14,89.23a1.18,1.18,0,0,1,1,.23c.36.26.3.47.3.47a1.22,1.22,0,0,1-.73-.15,1.39,1.39,0,0,1-.6-.55"/><path d="M274.46,89.14a1.2,1.2,0,0,0,.33.64,1.27,1.27,0,0,0,.63.34.37.37,0,0,0,0-.46,1.41,1.41,0,0,0-.92-.52"/><path d="M275.66,89.54a1,1,0,0,0,.21.68,1.14,1.14,0,0,0,.6.41.79.79,0,0,0-.14-.6.79.79,0,0,0-.67-.49"/><path d="M276.66,90a1.08,1.08,0,0,1,.4.59,3.36,3.36,0,0,1,.07.62.63.63,0,0,1-.41-.51,4.72,4.72,0,0,1-.06-.7"/><path d="M278.79,84.59a3.29,3.29,0,0,0-.05,1.12c.16.25.45.34.56,0s-.27-.83-.51-1.08"/><path d="M278,84.83a1.2,1.2,0,0,1,.65.72.22.22,0,0,1-.39.17,1.51,1.51,0,0,1-.26-.89"/><path d="M279.72,84.59a1,1,0,0,1,.12,1c-.12.27-.46.14-.42-.16a7.33,7.33,0,0,1,.3-.86"/><path d="M278.12,83.38a2.67,2.67,0,0,0,.26,1c.2.17.48.17.46-.18s-.45-.63-.72-.79"/><path d="M277.49,83.82a1.11,1.11,0,0,1,.72.4c.08.13,0,.39-.27.25a1.23,1.23,0,0,1-.45-.65"/><path d="M278.9,83.17a.86.86,0,0,1,.37.8c0,.24-.33.23-.38,0a6.77,6.77,0,0,1,0-.78"/><path d="M279.1,86.11a3.31,3.31,0,0,0-.34,1.14c.1.29.38.45.58.09s-.06-.91-.24-1.23"/><path d="M278.14,86.13a1.42,1.42,0,0,1,.52.94.24.24,0,0,1-.47.08,1.64,1.64,0,0,1-.05-1"/><path d="M280.06,86.31a1.13,1.13,0,0,1-.14,1.12c-.2.27-.52,0-.41-.28s.42-.63.55-.84"/><path d="M278.85,87.73c-.12.16-.61.82-.59,1s.26.54.53.24.16-.9.06-1.25"/><path d="M277.93,87.48a1.38,1.38,0,0,1,.28,1,.24.24,0,0,1-.47,0,1.6,1.6,0,0,1,.19-1"/><path d="M279.75,88.14a1.1,1.1,0,0,1-.4,1c-.25.22-.52-.09-.33-.36a9.68,9.68,0,0,1,.73-.69"/><path d="M278.41,89.24c-.2.08-1,.39-1,.56s-.06.59.34.48.6-.69.7-1"/><path d="M277.68,88.66a1.32,1.32,0,0,1-.28,1,.23.23,0,0,1-.37-.25,1.52,1.52,0,0,1,.65-.73"/><path d="M278.93,90a1.06,1.06,0,0,1-.85.67c-.31,0-.37-.33-.09-.45a9.21,9.21,0,0,1,.94-.22"/><path d="M271.5,86.66l.42.47a1.59,1.59,0,0,0,.6.1c.28,0,0-.38-.11-.38Z"/><path d="M275.1,85.86l.18.54.71,0c.37,0,.28-.54-.18-.55Z"/><path d="M273,84.86v.29l-.14.17.54,0-.11-.16-.14-.33Zm-.78-1.11-.21.1.3.14.15.13.18,0,.25,0c-.08.17-.13.45.11.45s.22-.23.2-.33l.16-.14.11-.26h.33l0-.15-.46,0-.23.27h-.6Zm-1,2.07.56.27c.22.08.3,0,.3-.18l-.09,0,0-.13a.65.65,0,0,0,.25-.14,6,6,0,0,1-.74-1.74l.38,0a.74.74,0,0,1,.74-1.07c.15-.41.91-.43,1-.17a.51.51,0,0,0,.5.29.84.84,0,0,1,.7.3c.25.32.5.19.55.13s-.26-.18-.5-.23-.16-.33-.49-.31c-.07-.11-.15-.09-.33-.17-.23.12-.38-.06-.33-.19.2-.5,1-.21,1,.07h.22a.49.49,0,0,1,.67.26l.63.12c.56.3.51,1,.11,1-.24,0-.4.39-.8.14-.44.16-.57-.08-.64-.3h-.38v.1a.33.33,0,0,1,.33.35l.24.06,0,.28c0,.18.36.2.42,0l.06-.32.36.07.26-.19.29.07A1.17,1.17,0,0,1,277,84a3.53,3.53,0,0,1-1.14,1.75l-.75,0-.12-.33.58-.08-.11-.41c-.24,0-1,0-1.13,0s-.21.14-.14.28.1-.21.35-.15a3.35,3.35,0,0,1,.5,1.63,2.38,2.38,0,0,1-.39,1c0,.45.12.51.1,1.09a1.19,1.19,0,0,1-1.32.07c0-.2,0-.8,0-1.15a1.65,1.65,0,0,1-.3-.84.94.94,0,0,1,.63,0,.82.82,0,0,0,.34-1l-.89,0v.15h.62c.36,0,0,.63-.15.63l-.87,0a.53.53,0,0,1-.66.13l-1-.51c-.14-.07-.1-.34.08-.26"/></svg>