<svg id="Capa_1" data-name="Capa 1" xmlns="http://www.w3.org/2000/svg" xmlns:xlink="http://www.w3.org/1999/xlink" viewBox="0 0 546 325"><defs><style>.cls-1{fill:#1f140f;}.cls-2{fill:#fff;opacity:0;}.cls-3{clip-path:url(#clip-path);}.cls-4{clip-path:url(#clip-path-2);}.cls-5{clip-path:url(#clip-path-3);}.cls-6{clip-path:url(#clip-path-4);}.cls-7{clip-path:url(#clip-path-5);}.cls-8{clip-path:url(#clip-path-6);}.cls-9{clip-path:url(#clip-path-7);}.cls-10{clip-path:url(#clip-path-8);}.cls-11{clip-path:url(#clip-path-9);}.cls-12{clip-path:url(#clip-path-10);}</style><clipPath id="clip-path"><path class="cls-1" d="M358.83,155.05l5.92,15.87H352.88Zm-18.69,31.28a5.17,5.17,0,0,1-1.94,2v1h11.37v-1c-1.15-1-2.12-2.39-1.46-3.95.19-.39,1.68-4.87,3.34-8.56l15,0s3.64,8.67,3.8,9.26a2.72,2.72,0,0,1-1,3.27v1h13.42v-1a5.75,5.75,0,0,1-2.1-2c-.77-1.64-16.26-38.56-16.26-38.56l-9-.09s-14,36.36-15.27,38.65"/></clipPath><clipPath id="clip-path-2"><path class="cls-1" d="M229.9,148.43v1a4.27,4.27,0,0,1,1.95,3.47v12.52h-18V152.58a4.22,4.22,0,0,1,1.79-3.17v-1H203.47v1a4.76,4.76,0,0,1,1.94,3.65V185a4.76,4.76,0,0,1-1.77,3.34v1h12.3v-1a5,5,0,0,1-2.05-3.3v-14.7h18V185a4.42,4.42,0,0,1-2,3.27v1h13.26v-.85c-1.16-.71-2.45-1.8-2.45-3.45V152.58a4.12,4.12,0,0,1,2-3.19v-1Z"/></clipPath><clipPath id="clip-path-3"><path class="cls-1" d="M325,148.43v1c1.14.71,2.07,1.91,2.07,4.31l-.1,25-18-30.3H296.56v1a7.54,7.54,0,0,1,1,.84c1.43,1.67,1.24,2.45,1.24,5.28v28.53a5,5,0,0,1-2.06,4.2v1H308v-1c-1.44-.87-3.07-2.28-3.07-4.46l.08-24.71c0,.41,18,30,18,30h10.26V153.84a4.92,4.92,0,0,1,2.6-4.41v-1Z"/></clipPath><clipPath id="clip-path-4"><path class="cls-1" d="M432.3,144.28c-.06,1.86,1.07,2.95,2.95,3.4a3.83,3.83,0,0,0,2.11,0c.28-.16.35.55.35,1a4.36,4.36,0,0,1-3.19,4.24c-.78.12-.5.58-.14.47,3.08-.09,6.36-3.26,6.36-7.4,0-3.29-2.21-5.23-4.65-5.23a3.76,3.76,0,0,0-3.79,3.48"/></clipPath><clipPath id="clip-path-5"><path class="cls-1" d="M415.92,148.43v1c1.25.83,2.19,2.29,2.19,4.93l-.1,24.37-18-30.3H387.57v1a4.52,4.52,0,0,1,.82.67c1.43,1.68,1.39,2.58,1.39,5.41v28.53a5.18,5.18,0,0,1-2.26,4.2v1h10.85v-1a4.7,4.7,0,0,1-2.42-4.4l.09-24.71c0,.41,18,30,18,30h10.3V154.36c0-2.8,1.15-4.18,2.31-4.93v-1Z"/></clipPath><clipPath id="clip-path-6"><path class="cls-1" d="M83.73,184.76V170.28l5.41,0c6.32,0,11.57,1.49,11.57,7.13,0,4.24-2.55,7.5-9.72,7.5-.92,0-7.26-.13-7.26-.13m0-32.32s4.13-.11,5.41-.11c7.21,0,8.94,3.22,8.94,6.65,0,6.93-8.3,6.61-12,6.61h-2.4Zm-10.75-4v.88a4.44,4.44,0,0,1,1.85,3.29v32.4a4.32,4.32,0,0,1-2.11,3.31v.89H94c12.12,0,16.79-6.59,16.79-11.36,0-9.61-13.59-10.76-13.59-10.76s10.59-1.31,10.59-9c0-8-9.34-9.64-13.59-9.64Z"/></clipPath><clipPath id="clip-path-7"><path class="cls-1" d="M441.81,159.72c0,4.38,2.51,7.39,7.59,9.77,6.11,2.86,16.62,3,16.72,9.83,0,2.94-2.89,6.61-9.25,6.61a17.85,17.85,0,0,1-13.53-6.41h-1.59l.06,10.06,1.15,0c1-2.58,6.51.86,13.52.86,10,0,17.52-6,17.52-13.45,0-8.72-8.65-11.31-13.91-13-6.53-2.1-9.74-3.19-9.74-6.86,0-2.57,2.4-5.53,7.1-5.53a14.57,14.57,0,0,1,11.45,5.69h1.55l-.15-9.14-1.18,0c-1.46,1.83-7.29-1.13-11.85-1.13-6.22,0-15.46,3.68-15.46,12.69"/></clipPath><clipPath id="clip-path-8"><path class="cls-1" d="M144.05,148.43v1a5.46,5.46,0,0,1,2.16,3.49l.13,23.19c0,6.31-1.92,9.89-9.25,9.89-8.63,0-10.19-5.61-10.19-10l.12-21.76,0-1.43a4.11,4.11,0,0,1,2.25-3.42v-.91h-2.22v0H115.9v1a4.44,4.44,0,0,1,2,3.23v23.7c0,12.32,10,14.24,17.71,14.24,11.52,0,17.21-3.95,17.28-14.62l0-23a4.75,4.75,0,0,1,2.57-3.58v-1Z"/></clipPath><clipPath id="clip-path-9"><path class="cls-1" d="M160.07,169c0,12.86,9.73,21.31,21.1,21.22,5.58,0,10-1.09,14.9-4.51,0,0,0-4.26,0-7.47h-1.63a15.69,15.69,0,0,1-12.32,7.69c-10.3,0-11.72-9.9-11.72-17.65,0-9.72,3.86-16.4,11.25-16.32a14.86,14.86,0,0,1,11.86,6.34h1.66c.05-3.74.09-10,.09-10s-1.2,0-1.2,0c-1.43.93-3.38.65-6.31-.11a21.55,21.55,0,0,0-6-1c-12.1,0-21.7,11-21.7,21.79"/></clipPath><clipPath id="clip-path-10"><path class="cls-1" d="M267.81,155.05l5.92,15.87H261.87Zm-18.66,31.28a6.29,6.29,0,0,1-2.68,2.15v.78h12.32v-.78c-1.25-1-2.41-2.5-1.67-4.17.18-.39,1.67-4.87,3.31-8.56h15.1c1.64,3.7,3.58,8.65,3.78,9.24a2.85,2.85,0,0,1-1.26,3.45v.82h13.89v-1a5.25,5.25,0,0,1-2.39-2.41c-.8-1.62-16.18-38.11-16.18-38.11l-8.95-.09s-14,36.36-15.27,38.65"/></clipPath></defs><title>Logos Socios</title><rect class="cls-2" width="546" height="325"/><path class="cls-1" d="M358.83,155.05l5.92,15.87H352.88Zm-18.69,31.28a5.17,5.17,0,0,1-1.94,2v1h11.37v-1c-1.15-1-2.12-2.39-1.46-3.95.19-.39,1.68-4.87,3.34-8.56l15,0s3.64,8.67,3.8,9.26a2.72,2.72,0,0,1-1,3.27v1h13.42v-1a5.75,5.75,0,0,1-2.1-2c-.77-1.64-16.26-38.56-16.26-38.56l-9-.09s-14,36.36-15.27,38.65"/><g class="cls-3"><rect class="cls-1" x="332.46" y="141.35" width="56.01" height="54.24" transform="translate(-35.79 132.42) rotate(-19.85)"/></g><path class="cls-1" d="M229.9,148.43v1a4.27,4.27,0,0,1,1.95,3.47v12.52h-18V152.58a4.22,4.22,0,0,1,1.79-3.17v-1H203.47v1a4.76,4.76,0,0,1,1.94,3.65V185a4.76,4.76,0,0,1-1.77,3.34v1h12.3v-1a5,5,0,0,1-2.05-3.3v-14.7h18V185a4.42,4.42,0,0,1-2,3.27v1h13.26v-.85c-1.16-.71-2.45-1.8-2.45-3.45V152.58a4.12,4.12,0,0,1,2-3.19v-1Z"/><g class="cls-4"><rect class="cls-1" x="197.72" y="142.9" width="51.13" height="51.88" transform="translate(-44.07 85.86) rotate(-19.85)"/></g><path class="cls-1" d="M325,148.43v1c1.14.71,2.07,1.91,2.07,4.31l-.1,25-18-30.3H296.56v1a7.54,7.54,0,0,1,1,.84c1.43,1.67,1.24,2.45,1.24,5.28v28.53a5,5,0,0,1-2.06,4.2v1H308v-1c-1.44-.87-3.07-2.28-3.07-4.46l.08-24.71c0,.41,18,30,18,30h10.26V153.84a4.92,4.92,0,0,1,2.6-4.41v-1Z"/><g class="cls-5"><rect class="cls-1" x="290.79" y="142.97" width="50.86" height="51.76" transform="translate(-38.55 117.42) rotate(-19.85)"/></g><path class="cls-1" d="M432.3,144.28c-.06,1.86,1.07,2.95,2.95,3.4a3.83,3.83,0,0,0,2.11,0c.28-.16.35.55.35,1a4.36,4.36,0,0,1-3.19,4.24c-.78.12-.5.58-.14.47,3.08-.09,6.36-3.26,6.36-7.4,0-3.29-2.21-5.23-4.65-5.23a3.76,3.76,0,0,0-3.79,3.48"/><g class="cls-6"><rect class="cls-1" x="430.33" y="139.73" width="12.33" height="14.87" transform="translate(-24.04 156.97) rotate(-19.85)"/></g><path class="cls-1" d="M415.92,148.43v1c1.25.83,2.19,2.29,2.19,4.93l-.1,24.37-18-30.3H387.57v1a4.52,4.52,0,0,1,.82.67c1.43,1.68,1.39,2.58,1.39,5.41v28.53a5.18,5.18,0,0,1-2.26,4.2v1h10.85v-1a4.7,4.7,0,0,1-2.42-4.4l.09-24.71c0,.41,18,30,18,30h10.3V154.36c0-2.8,1.15-4.18,2.31-4.93v-1Z"/><g class="cls-7"><rect class="cls-1" x="381.75" y="143" width="50.66" height="51.69" transform="translate(-33.15 148.27) rotate(-19.85)"/></g><path class="cls-1" d="M83.73,184.76V170.28l5.41,0c6.32,0,11.57,1.49,11.57,7.13,0,4.24-2.55,7.5-9.72,7.5-.92,0-7.26-.13-7.26-.13m0-32.32s4.13-.11,5.41-.11c7.21,0,8.94,3.22,8.94,6.65,0,6.93-8.3,6.61-12,6.61h-2.4Zm-10.75-4v.88a4.44,4.44,0,0,1,1.85,3.29v32.4a4.32,4.32,0,0,1-2.11,3.31v.89H94c12.12,0,16.79-6.59,16.79-11.36,0-9.61-13.59-10.76-13.59-10.76s10.59-1.31,10.59-9c0-8-9.34-9.64-13.59-9.64Z"/><g class="cls-8"><rect class="cls-1" x="66.93" y="143.23" width="49.65" height="51.27" transform="translate(-51.89 41.19) rotate(-19.85)"/></g><path class="cls-1" d="M441.81,159.72c0,4.38,2.51,7.39,7.59,9.77,6.11,2.86,16.62,3,16.72,9.83,0,2.94-2.89,6.61-9.25,6.61a17.85,17.85,0,0,1-13.53-6.41h-1.59l.06,10.06,1.15,0c1-2.58,6.51.86,13.52.86,10,0,17.52-6,17.52-13.45,0-8.72-8.65-11.31-13.91-13-6.53-2.1-9.74-3.19-9.74-6.86,0-2.57,2.4-5.53,7.1-5.53a14.57,14.57,0,0,1,11.45,5.69h1.55l-.15-9.14-1.18,0c-1.46,1.83-7.29-1.13-11.85-1.13-6.22,0-15.46,3.68-15.46,12.69"/><g class="cls-9"><rect class="cls-1" x="435.34" y="142.84" width="45.07" height="51.77" transform="translate(-30.09 165.51) rotate(-19.85)"/></g><path class="cls-1" d="M144.05,148.43v1a5.46,5.46,0,0,1,2.16,3.49l.13,23.19c0,6.31-1.92,9.89-9.25,9.89-8.63,0-10.19-5.61-10.19-10l.12-21.76,0-1.43a4.11,4.11,0,0,1,2.25-3.42v-.91h-2.22v0H115.9v1a4.44,4.44,0,0,1,2,3.23v23.7c0,12.32,10,14.24,17.71,14.24,11.52,0,17.21-3.95,17.28-14.62l0-23a4.75,4.75,0,0,1,2.57-3.58v-1Z"/><g class="cls-10"><rect class="cls-1" x="109.91" y="142.96" width="51.56" height="53.11" transform="translate(-49.5 56.15) rotate(-19.85)"/></g><path class="cls-1" d="M160.07,169c0,12.86,9.73,21.31,21.1,21.22,5.58,0,10-1.09,14.9-4.51,0,0,0-4.26,0-7.47h-1.63a15.69,15.69,0,0,1-12.32,7.69c-10.3,0-11.72-9.9-11.72-17.65,0-9.72,3.86-16.4,11.25-16.32a14.86,14.86,0,0,1,11.86,6.34h1.66c.05-3.74.09-10,.09-10s-1.2,0-1.2,0c-1.43.93-3.38.65-6.31-.11a21.55,21.55,0,0,0-6-1c-12.1,0-21.7,11-21.7,21.79"/><g class="cls-11"><rect class="cls-1" x="153.82" y="142.34" width="48.51" height="52.77" transform="matrix(0.94, -0.34, 0.34, 0.94, -46.72, 70.5)"/></g><path class="cls-1" d="M267.81,155.05l5.92,15.87H261.87Zm-18.66,31.28a6.29,6.29,0,0,1-2.68,2.15v.78h12.32v-.78c-1.25-1-2.41-2.5-1.67-4.17.18-.39,1.67-4.87,3.31-8.56h15.1c1.64,3.7,3.58,8.65,3.78,9.24a2.85,2.85,0,0,1-1.26,3.45v.82h13.89v-1a5.25,5.25,0,0,1-2.39-2.41c-.8-1.62-16.18-38.11-16.18-38.11l-8.95-.09s-14,36.36-15.27,38.65"/><g class="cls-12"><rect class="cls-1" x="240.76" y="141.19" width="56.89" height="54.56" transform="translate(-41.21 101.43) rotate(-19.85)"/></g></svg>