<svg id="Capa_1" data-name="Capa 1" xmlns="http://www.w3.org/2000/svg" viewBox="0 0 546 325"><defs><style>.cls-1{fill:#fff;opacity:0;}.cls-2{fill:#4d4d4d;}</style></defs><title>Logos Socios</title><rect class="cls-1" width="546" height="325"/><path class="cls-2" d="M256.07,174.65l-8.94-22.8a14.29,14.29,0,0,0,4.09-2.64,17,17,0,0,0,5.28-12.84c0-5.77-1.75-10.89-5.69-14.05a14.81,14.81,0,0,0-9.92-3.28H221.73v.25c1.22.23,3.5,1.75,3.5,5.71v49.27c0,5.17-3.46,5.22-3.46,5.22v.3H238.2v-.3s-3.14-.07-3.14-5.23V153a3.89,3.89,0,0,1,2.7.67,6.21,6.21,0,0,1,1.36,2.45L248,179.79h12.34v-.3C258.75,178.94,257.31,177.75,256.07,174.65ZM238.3,145.57h-3.24V127h3.09c5.64,0,8.27,3.61,8.27,9.47S243.47,145.57,238.3,145.57Zm159.22-35.1a3.89,3.89,0,0,0-4,3.77,3.57,3.57,0,0,0,2.64,3.55,7.55,7.55,0,0,1-2.78,4.54c4.11.25,8.11-4.18,8.11-7.4C401.5,112.29,399.72,110.47,397.52,110.47Zm-23.62,8.82s2.7.35,2.73,5.12v29.88L366,124.93c-1.53-4.41.91-5.64.91-5.64V119H350.63v.26s3.2.55,3.2,5.07v49.89c0,5.16-3.15,5.23-3.15,5.23v.29h14.77v-.3s-3.16-.06-3.16-5.22V140.7l12,32.66c1.83,5.29-.87,6.11-.87,6.11v.3h14.1v-.3s-2.73-.47-2.73-5.64V124.36c0-4.72,3-5.1,3-5.1V119H373.9Zm-175.27-1.42A14.88,14.88,0,0,0,186.14,124c-4.39,5.79-6.48,15.27-6.48,25.58s2.07,19.61,6.4,25.42a15.71,15.71,0,0,0,25.07.08c4.38-5.8,6.48-15.2,6.48-25.5s-2.1-19.78-6.48-25.57A14.87,14.87,0,0,0,198.63,117.87Zm6.2,50.35c-1.42,3-3.43,4.54-6.2,4.54s-4.77-1.53-6.18-4.5c-1.91-4-2.7-10.61-2.7-18.7s.79-14.79,2.7-18.81c1.41-3,3.42-4.44,6.18-4.44s4.9,1.57,6.31,4.71c1.81,4,2.56,10.63,2.56,18.54C207.5,157.63,206.72,164.19,204.83,168.22Zm122.71-50.35h0A14.86,14.86,0,0,0,315.06,124c-4.39,5.79-6.49,15.27-6.49,25.58s2.07,19.61,6.4,25.42a15.71,15.71,0,0,0,25.07.08c4.38-5.8,6.47-15.2,6.47-25.5S344.42,129.78,340,124A14.84,14.84,0,0,0,327.54,117.87Zm6.2,50.35c-1.41,3-3.43,4.54-6.2,4.54s-4.78-1.53-6.18-4.5c-1.9-4-2.69-10.61-2.69-18.7s.79-14.79,2.69-18.81c1.4-3,3.43-4.44,6.18-4.44s4.9,1.57,6.31,4.71c1.81,4,2.56,10.63,2.56,18.54C336.41,157.63,335.62,164.19,333.74,168.22Zm78.3-8.31a10.74,10.74,0,0,1-9.21-5.37h-.21v11.68h.21a3.17,3.17,0,0,1,2.67-1.16c2.47,0,4.27,1.24,7,1.24,7.65,0,12.44-5.69,12.44-12.56,0-7.18-4.2-11.48-8.17-15.24-3.53-3.36-6.87-5.81-6.87-9.28,0-2.09,1.14-4.67,4.39-4.67a8.37,8.37,0,0,1,7.1,3.87h.2v-9.81c-2.27,1.27-3.34-.45-8.53-.45-6.93,0-10.72,5.46-10.72,11.66,0,6.78,5.64,11,9.65,14.91,3,2.87,5.45,5.42,5.45,9.3C417.4,157.16,415.44,159.91,412,159.91Zm12.11,11.69c-.1.3-.5,1.6-5.06,1.6H407.87c-4.55,0-4.84-1.21-5-1.6h-.22v8.18h.2c.21-.31.59-1.53,5.08-1.53h11.21c4.68,0,4.8,1.22,5,1.53h.22V171.6ZM157.49,141.13s3.53.18,3.53,5.35v25.21a5.82,5.82,0,0,1-4.1,1.49c-7.69,0-11.51-10.54-11.51-26.78s2.91-28.73,12.26-28.73a13.4,13.4,0,0,1,11.8,7.26h.25V109.3h-.19c-2.29,2.2-6.48-1-13.31-1A18.62,18.62,0,0,0,140.37,117c-4.67,7.1-7.26,18.37-7.26,29.49,0,10.78,2.44,20.42,7.29,27.13,4.12,5.69,9.61,8.63,16.5,8.63,11,0,13.93-7.27,16.35-7.35,0,0-2.1-.89-2.1-5.34V146.47c0-5.16,3.15-5.34,3.15-5.34v-.27H157.49Zm124-22.09H264.06v.25c1.58.33,3.8,2,3.8,5.71v49.3c0,3.45-.83,4.8-2.05,5.19v.3H279.4c8,0,14.14-3,17.54-8.48s4.94-13.37,4.94-21.94c0-8.87-1.43-17.28-4.83-22.83S288.72,119,281.44,119Zm7.37,47.74c-1.71,3.28-4.52,4.71-8.34,4.71h-2.75V127.1h2.53c4.12,0,7,1.41,9,5.75,1.52,3.42,2.41,8.65,2.41,16.45C291.62,157.6,290.64,163.25,288.81,166.78Z"/><path d="M74.25,217.48v-18.2h5.3v18.2Z"/><path d="M105.11,203.52H97.54v14h-5.3v-14H84.72v-4.24h20.39Z"/><path d="M115.33,202.12a7.83,7.83,0,0,1-4.06,6.29l-1-1.46a6,6,0,0,0,2.52-3.12c-.1.13-.33.18-.72.18a2.62,2.62,0,0,1-2.73-2.6,2.7,2.7,0,0,1,2.91-2.57A3.11,3.11,0,0,1,115.33,202.12Z"/><path d="M141.28,211.79c0,3.74-3.46,6.29-10.07,6.29a18,18,0,0,1-11.46-3.56l2.78-3.28a13.36,13.36,0,0,0,8.79,2.84c3.12,0,4.68-.58,4.68-1.77s-1.46-1.56-5.2-1.87c-5.41-.47-10.32-1.67-10.32-5.72,0-3.9,4.21-6,10-6a17.48,17.48,0,0,1,10,2.71l-2.67,3.3a12.55,12.55,0,0,0-7.31-2c-2.13,0-4.71.34-4.71,1.64s2.11,1.38,5.36,1.64C137.06,206.43,141.28,207.6,141.28,211.79Z"/><path d="M177.7,214.05c-1.95,2.42-5.54,4-10.4,4-7.46,0-12.09-3.54-12.09-9.7s4.63-9.7,12.09-9.7A14,14,0,0,1,177,202l-3.88,2.86a7.65,7.65,0,0,0-5.64-2c-4.42,0-6.84,1.95-6.84,5.51s2.5,5.54,6.92,5.54a7.48,7.48,0,0,0,5.28-1.61v-1.64h-6V207H177.7Z"/><path d="M183.68,217.48v-18.2H189v18.2Z"/><path d="M217.4,199.28v18.2h-4.65l-11.75-12v12h-5.12v-18.2h5.61l10.79,11.13V199.28Z"/><path d="M277.29,203.52h-7.56v14h-5.31v-14h-7.51v-4.24h20.38Z"/><path d="M280.8,208.38c0-6.16,4.66-9.7,11.86-9.7s11.88,3.54,11.88,9.7-4.68,9.7-11.88,9.7S280.8,214.54,280.8,208.38Zm18.34,0c0-3.43-2.47-5.38-6.48-5.38s-6.47,1.95-6.47,5.38,2.47,5.39,6.47,5.39S299.14,211.81,299.14,208.38Z"/><path d="M331.9,199.28v18.2h-4.66l-11.75-12v12h-5.12v-18.2H316l10.79,11.13V199.28Z"/><path d="M338.76,217.48v-18.2h5.3v18.2Z"/><path d="M367.13,211l4.55,2.34c-1.69,2.68-5.36,4.76-10.27,4.76-6.87,0-11.5-3.56-11.5-9.7s4.63-9.7,11.7-9.7c4.71,0,8.35,2.14,10,4.74L367,205.76a6,6,0,0,0-5.48-2.76c-3.75,0-6.24,1.9-6.24,5.38s2.49,5.39,6.24,5.39A6.17,6.17,0,0,0,367.13,211Z"/><path d="M404.23,203.52h-7.57v14h-5.3v-14h-7.52v-4.24h20.39Z"/><path d="M409.35,217.48v-18.2h5.3v18.2Z"/><path d="M446.71,199.28v18.2h-5.27V205.86l-7.26,8.89h-.26l-7.25-8.89v11.62h-5.13v-18.2h5.8l6.84,8.74,6.89-8.74Z"/><path d="M473,213.43v4H453.58v-18.2h19.13v4.06H458.8v3h11.47v3.87H458.8v3.23Z"/><path d="M244.47,217.49l-1.06-.8a13.43,13.43,0,0,1-6.17,1.32c-5.65,0-9.78-2.65-9.78-6.19,0-2,1.35-3.67,3.74-4.6a4.52,4.52,0,0,1-1.61-3.31c0-2.88,2.73-5.15,7.52-5.15,5,0,7.6,2.24,9.18,4.82L242,205.21c-1.46-2.28-3.1-2.94-4.76-2.94s-2.74.6-2.74,1.67.81,1.59,2.61,3l6.08,4.79a7.07,7.07,0,0,0,.89-3h4.47a9.36,9.36,0,0,1-2.13,5.54l4.08,3.22Zm-4.39-3.38-6.46-5a3.05,3.05,0,0,0-1,2.19c0,2,2.06,3.15,4.87,3.15A9,9,0,0,0,240.08,214.11Z"/></svg>