<svg id="Capa_1" data-name="Capa 1" xmlns="http://www.w3.org/2000/svg" viewBox="0 0 546 325"><defs><style>.cls-1{fill:#fff;opacity:0;}</style></defs><title>Logos Socios</title><rect class="cls-1" width="546" height="325"/><path d="M225.66,238.18l2.53,1.93c0,1.76.05,3.65.09,5.72s0,4.23,0,6.56c-1.53-2-2.91-3.74-4.17-5.31s-2.35-3-3.32-4.13-1.8-2.19-2.45-3.06A14.2,14.2,0,0,1,217,238h-5.57v.19l2.62,1.87c.2,6,.2,10.87,0,14.65l-2.19,1.8v.25h6.4v-.25l-2.42-1.8h0c-.14-4.39-.2-8.67-.2-12.94l11,13.93.51.62a.88.88,0,0,1,.25.54H230c-.14-2.4-.25-5-.25-7.76s0-5.74.11-9l2.2-1.93V238h-6.43Z"/><path d="M243.25,239.7l2.15-1.52V238h-7.55v.19L240,239.7c0,5,0,10.06,0,15.19l-2.24,1.56v.24h7.71v-.24l-2.24-1.56c-.1-4.9-.1-9.91,0-15.19"/><path d="M264.46,255.09c-2.66.11-5.21.11-7.63,0q-.07-3.71,0-7.37c1.41,0,3.36-.07,5.87-.07l1.44,2.14h.21V244h-.21l-1.44,2.18c-3.31,0-5.3,0-5.92-.08,0-1.05-.07-2.12-.07-3.19s0-2.14,0-3.3c1.16-.09,2.43-.1,3.67-.1h3.93l1.57,2.16h.21V238H251.47v.19l2.14,1.52c0,4.36,0,9.39,0,15.19l-2.14,1.56v.24h15v-4.15h-.21Z"/><path d="M199.8,238.18l2.48,1.93c0,1.76.06,3.65.08,5.72s0,4.23,0,6.56c-1.49-2-2.88-3.74-4.13-5.31s-2.39-3-3.37-4.13-1.75-2.19-2.41-3.06a18,18,0,0,1-1.38-1.9h-5.56v.19l2.6,1.87c.2,6,.2,10.87,0,14.65L186,256.5v.25h6.39v-.25L190,254.7h0c-.14-4.39-.24-8.67-.24-12.94l11.08,13.93a8,8,0,0,1,.5.62.91.91,0,0,1,.26.54h2.56q-.27-3.6-.27-7.76c0-2.72,0-5.74.13-9l2.2-1.93V238h-6.4Z"/><path d="M311.59,233.38c.36.21.73.49,1.09.74s.72.52,1,.77c-.68,2.46-1.34,4.66-1.89,6.69s-1.07,3.68-1.49,5.14-.76,2.63-1,3.58-.41,1.57-.48,1.91l-5.19-17.11c.36-.36.7-.7,1-1a8.69,8.69,0,0,1,1-.74v-.21h-8.27v.24l2.07,1.61c-.57,1.78-1.09,3.48-1.58,5.14s-.91,3.1-1.33,4.51-.79,2.73-1.15,3.94-.68,2.39-1,3.5l-4.9-17.06,2-1.67v-.21h-8v.21c.34.28.64.5.87.71a5.11,5.11,0,0,1,.58.48,2.19,2.19,0,0,1,.34.36.75.75,0,0,1,.19.39c.27.82.62,2,1.11,3.43s1,3.25,1.65,5.16,1.33,4,2,6.23,1.44,4.56,2.15,7h2.62a.69.69,0,0,1,0-.25,2.07,2.07,0,0,1,.06-.47c0-.14.09-.32.11-.48a2,2,0,0,0,.16-.44c.22-.83.46-1.71.71-2.67s.53-2,.83-3,.62-2.14.91-3.25.61-2.19.94-3.29.6-2.1.91-3.1.59-2,.83-2.84l6.22,19.83h2.51c.1-.41.29-1.2.62-2.4s.77-2.65,1.34-4.51,1.23-4,2-6.53,1.61-5.42,2.51-8.55c.54-.52,1-.9,1.31-1.22s.55-.51.69-.61v-.17h-6.1Z"/><path d="M119.58,233.27l2.87,1.78.19,20.09c0,.83,0,1.53,0,2.15a14.18,14.18,0,0,1-.18,1.68,6.71,6.71,0,0,1-.45,1.44,6.55,6.55,0,0,1-.85,1.27,5.15,5.15,0,0,1-1.61,1.28,4.21,4.21,0,0,1-2,.43,1.11,1.11,0,0,0,.2-.31,1.8,1.8,0,0,0,.16-.36,2.37,2.37,0,0,0,0-.51,1.22,1.22,0,0,0-.14-.56,2.89,2.89,0,0,0-.38-.58,2.32,2.32,0,0,0-.57-.37,1.53,1.53,0,0,0-.7-.17,1.92,1.92,0,0,0-1.29.54,1.71,1.71,0,0,0-.42.6,1.76,1.76,0,0,0-.18.75,2,2,0,0,0,.31,1.08,2.31,2.31,0,0,0,.75.74,3.35,3.35,0,0,0,1,.41,3.64,3.64,0,0,0,1.07.15,6.7,6.7,0,0,0,2.1-.35,7.81,7.81,0,0,0,1.86-1,8.75,8.75,0,0,0,2.88-3.41c.31-.59.61-1.17.87-1.74a7.43,7.43,0,0,0,.68-1.82,13.73,13.73,0,0,0,.44-2.07,20.82,20.82,0,0,0,.12-2.61c0-1,0-2.05-.07-3.13s0-2.3,0-3.65,0-2.83-.06-4.49,0-3.61,0-5.76l2.39-1.54v-.22h-8.89Z"/><path d="M150.27,251.14a8.4,8.4,0,0,1-1.47,2.7,7.25,7.25,0,0,1-2.07,1.74,5.88,5.88,0,0,1-5-.05,7,7,0,0,1-2.16-1.75,8.36,8.36,0,0,1-1.49-2.76,11.68,11.68,0,0,1-.53-3.67,13.24,13.24,0,0,1,.44-3.47,8.29,8.29,0,0,1,1.31-2.72,6.54,6.54,0,0,1,2.07-1.86,5.9,5.9,0,0,1,2.79-.67,6,6,0,0,1,2.82.67,6.08,6.08,0,0,1,2.11,1.84,8.71,8.71,0,0,1,1.31,2.74,12.24,12.24,0,0,1,.46,3.47,11.4,11.4,0,0,1-.56,3.79m2.77-9a7.92,7.92,0,0,0-1.68-2,8.87,8.87,0,0,0-2.05-1.61,9,9,0,0,0-2.34-1,9.51,9.51,0,0,0-2.49-.33,10.56,10.56,0,0,0-4.16.79,10.32,10.32,0,0,0-5.52,5.4,9.89,9.89,0,0,0-.78,4,9.39,9.39,0,0,0,.8,3.9,9.74,9.74,0,0,0,2.24,3.2,10.56,10.56,0,0,0,3.28,2.22,8.79,8.79,0,0,0,4,.75,8.41,8.41,0,0,0,4-.78,9.38,9.38,0,0,0,3.2-2.23,10.17,10.17,0,0,0,2.16-3.19,9.89,9.89,0,0,0,.76-3.87,9.61,9.61,0,0,0-.38-2.77,10,10,0,0,0-1.09-2.44"/><path d="M172.49,238.18l2.16,1.52v6.39c-3.37,0-6.66,0-9.93,0V239.7l2.15-1.52V238H159.4v.19l2.1,1.52v15.19l-2.1,1.56v.24h7.47v-.24l-2.15-1.56v-7.28c3.27,0,6.56,0,9.93,0v7.28l-2.16,1.56v.24H180v-.24l-2.11-1.56c-.06-4.76-.06-9.77,0-15.19l2.11-1.52V238h-7.47Z"/><path d="M324,248.43l2.88-7.93,3.08,7.93ZM329,237.7h-2.68l-6.49,17.06-2.17,1.81v.23H324v-.23l-2.37-1.81,1.79-4.94q3.75,0,7,0l1.94,4.94L330,256.57v.23h8.23v-.23l-2.16-1.88Z"/><path d="M398.64,255.2q-4.11.17-7.68,0-.06-3.7,0-7.36c1.39-.05,3.33-.07,5.9-.07l1.45,2.13h.22v-5.77h-.22l-1.45,2.17c-3.36,0-5.3,0-5.94-.07,0-1-.06-2.12-.06-3.19s0-2.14,0-3.3c1.15-.09,2.35-.11,3.63-.11l4,0,1.53,2.16h.21V238.1H385.6v.2l2.12,1.52c.07,4.36.07,9.39,0,15.19l-2.12,1.56v.23h15v-4.14h-.22Z"/><path d="M414.53,247.32h-1.61a2.54,2.54,0,0,1-.51,0l0-7.69c.24,0,.55,0,.84-.05l.87,0,.72,0h.47a4.69,4.69,0,0,1,1.7.3,3.6,3.6,0,0,1,1.31.86,3.07,3.07,0,0,1,.82,1.18,3.93,3.93,0,0,1,.28,1.44,3.64,3.64,0,0,1-1.27,3,5.49,5.49,0,0,1-3.66,1m9.69,8.93c-.16-.16-.36-.36-.56-.54s-.38-.51-.55-.73a4.23,4.23,0,0,1-.46-.57l-2.95-4.57a3.91,3.91,0,0,0-1.08-1.27,3.73,3.73,0,0,0-1.59-.52,10,10,0,0,0,2.45-.43,6.56,6.56,0,0,0,1.93-1,4.56,4.56,0,0,0,1.28-1.5,4,4,0,0,0-.07-3.95,5.41,5.41,0,0,0-1.5-1.64,7.17,7.17,0,0,0-2.34-1,11,11,0,0,0-3-.36H407v.19l2.12,1.59V255l-2.24,1.56v.23h7.66v-.23l-2.11-1.47-.07-6.42c.44,0,.84-.06,1.22-.06h.81a2.94,2.94,0,0,1,.92.16,1.86,1.86,0,0,1,.64.64l4.39,7.38h4.26v-.23a1.63,1.63,0,0,1-.42-.32"/><path d="M370.63,246q2.44-2.33,4.16-3.89c1.15-1,2-1.79,2.58-2.3l2.83-1.48v-.19h-6.3v.19l1,1.45c-.66.71-1.34,1.36-2,2s-1.36,1.27-2,1.88-1.28,1.21-1.89,1.75-1.2,1.08-1.76,1.51c2.17,2.17,4.64,4.88,7.52,8.19l-.82,1.47v.23h6.81v-.23l-1.45-1.47c-4-4.17-6.9-7.17-8.63-9.13"/><path d="M367.2,239.82l2.19-1.52v-.19h-7.6v.19l2.15,1.52c0,5,0,10.06,0,15.19l-2.23,1.56v.23h7.71v-.23L367.2,255c0-5.18,0-10.21,0-15.19"/><path d="M355,255.12h-3.72l-3.2,0c-.06-5.16-.06-10.2,0-15.28l2.37-1.49v-.21h-7.78v.21l2.13,1.49c.07,5,.07,10.05,0,15.19l-2.13,1.56v.23H357v-4.17h-.28Z"/><path d="M221.58,212.29h1v-.38H220v.38h1.09v2.48h.46Zm3.2,1.37-1.13-1.75h-.48v2.86h.48v-2l1.13,1.69,1.12-1.69v2h.46v-2.86h-.46Z"/><path d="M231.9,209.54c-.57,0-.53.42-1,.45-.23,0-.35-.25.19-.76a1.87,1.87,0,0,1,1.54-.31c.78.17.17.61-.71.62m1.82,1.08a2.32,2.32,0,0,0,.76.82,3.72,3.72,0,0,0,.78.3c.11,0,.13.09.05.13a.65.65,0,0,1-.25.06,1.65,1.65,0,0,1-1-.26c-.53-.33-1.36-.38-1.92-.81s.16-.85.7-.84a1.14,1.14,0,0,1,.86.6m-4.37-2.87c-.5.59-1-1-1.28-1.78s-1.32-1.77-1.33-2.78.2-1.1.2-1.1c.5-.48.47.42.53,1.16s.74,1.12,1.48,2.06.91,1.85.4,2.44m15.06-26.11a27.13,27.13,0,0,1-5.08,0,14.09,14.09,0,0,1-2.83-.77c-.33-.15-.53-.3-.83.3s-2.54,4.41-3.26,6.14-2,5-2.28,6.11-.89,2.83-.56-.21,2.52-8.18,3-9.3a26.6,26.6,0,0,1,2.19-3.68c.12-.22-.52-.63-.62-.7a1.63,1.63,0,0,1-.41-.46c-.16-.27-.08-.68-.32-.37a24.41,24.41,0,0,0-3,5.64c-.61,1.66-1.73,5.56-2.16,7.5a24.06,24.06,0,0,1-.81,3,4.56,4.56,0,0,1-.62,1.15c-.14.14-.34.31-.55.5,0,0-.08.07,0,.06a1.48,1.48,0,0,1,1.12.17c.24.23.34.47-.28.86a6.48,6.48,0,0,0-1.14,1.18c-.36.38-.93.09-1-.47,0-.08,0,0-.05,0a4.23,4.23,0,0,0-.45,2.29l-.11.24a4.35,4.35,0,0,0,0,3.17,13.27,13.27,0,0,0,1,2l1.39,0s.79,2.06,1.7,4.14,1.69,2.69,3.86,3.57a14.18,14.18,0,0,0,5.68,1c1.17,0,1.64-.18,1.75-.41.37-.77-.14-.95-.14-.95a1.72,1.72,0,0,0-.23-2,15,15,0,0,0-2.72-2,11.71,11.71,0,0,1-1.84-3.57,14.85,14.85,0,0,1-.72-4.81s0,0,.06,0a.86.86,0,0,0,.65-1.05,1.83,1.83,0,0,0-.26-.5c0-.09,0,0,0,0a.44.44,0,0,1-.27.41c-.46.24-.45-.35-.91-.43s-.77-.38-.34-.63a.89.89,0,0,1,.93-.08,1.41,1.41,0,0,1,.36.24s0,0,0,0l0-.17a11.59,11.59,0,0,1,1-3.41c1.31-3.06,5.73-8.88,6.8-10.22,1.45-1.81,2.31-2.64,2.59-3s.51-.45-.28-.57"/><path d="M280.61,88.9a4,4,0,0,0-1.05.25,2,2,0,0,0-.82.58.44.44,0,0,0,0,.32c.05.17-.14,0-.24,0a1,1,0,0,0-.5-.3c-.44-.07-.76.42-1.27-.11-1.06-1.12-2.29-1.87-2.41-1.25a3,3,0,0,0,0,1.42c.25,1.23.53,2.36.53,2.36s.12.46.71.19a4,4,0,0,1,1.23-.36c.14,0,.29.23.5.4a1.07,1.07,0,0,0,1,.2c.24-.1.47-.37.52-.34.58.29,1.9,1.33,1.53.26a3.19,3.19,0,0,1,.09-2.83c.21-.31.36-.67.14-.74"/><path d="M267,94.84a10.28,10.28,0,0,1,3-1.41c.3.1-1.2,1.31-1,1.7.13.21,1.67,1.46,3.65,3.52a16.57,16.57,0,0,1,2.73,3.41c.87,1.74.07.82.07.82-.26-.29-1.08-1.39-2.1-2.44-3-3.06-6.49-5.32-6.39-5.6m8.37,11.93a.82.82,0,0,1-.94-.66.75.75,0,1,1,1.43-.37.82.82,0,0,1-.49,1m1.13,3.37a.83.83,0,0,1,.94.65.75.75,0,1,1-1.44.38.82.82,0,0,1,.5-1M233,156c.16.14.22.09.21,0-.56-5.94,5.75-10.57,9.08-12.88a19.49,19.49,0,0,0-7.33,2.61,5.55,5.55,0,0,0-2.54,3.82c-.25-1.93.81-4,3.17-5.31,3.82-2.14,7.74-1.94,15.3-4.22.28-.08.57-.16.86-.27a25.87,25.87,0,0,0,5.88-2.75c3.41-2.23,4.13-3.68,5.51-5.17l.42-.46a5.05,5.05,0,0,0-.62.21c-2.36.88-2.93,1.07-4.15,1.48a18.87,18.87,0,0,1-5,1.07,7.65,7.65,0,0,1,1.06-.44c2.62-.94,9.69-4.88,15.93-4.88a17.1,17.1,0,0,1,3.21.25,12,12,0,0,0,1.87-2.18l.28-.49c.05-.09.1-.19.14-.28a1.17,1.17,0,0,1,.05.11c.41.92,1.84,4,2.54,3.41.39-.33.82-3.1,1-4.42-1-.48-2.29-1.07-2.42-1.16a1.29,1.29,0,0,1,.28.08A1.28,1.28,0,0,0,279,124a2.08,2.08,0,0,1,.36-.29.41.41,0,0,1,.51.19,1.41,1.41,0,0,1,.22.47,1.66,1.66,0,0,0,.29.56c.45.55.51.37,2.05,1l.23.09.09,0s0,0-.06-.08a5.49,5.49,0,0,1-.47-.62c-.62-1,.64-.88,1.17-.46.87.68.44,1,.34,1.47,0,0,0,0,0,0a12.66,12.66,0,0,0,1.72.36,1,1,0,0,0,1.16-.68c.24-.7-1-.28-1.26-1.85a4.27,4.27,0,0,1,1.46-3.69,10,10,0,0,1,1.31-.83c.27-.15.53-.28.7-.36s.46-.24.62-.34a1.82,1.82,0,0,0,.44-.32c.14-.16.17-.29,0-.34a.59.59,0,0,0-.33,0,7,7,0,0,1-1.38,0l-1.59-.12-.81-.11c-.35,0-.71-.11-1.07-.18-1.24-.26-1.8-.42-3.2-.81l-.54-.14s-1.3-.41-1.57-.46a11.81,11.81,0,0,0-2.11-.31,11.55,11.55,0,0,0-1.57,0,16.94,16.94,0,0,1-3.7.12c-2.15-.25-2.58-.76-1.33-1.06a10.54,10.54,0,0,1,2.26-.31,24.79,24.79,0,0,1,3.72.21,16,16,0,0,1,2.29.48c.5.15,1,.3,1.3.42l.53.18.38.1c.33-1.43,1.32-4.64,1.85-6.64a62.14,62.14,0,0,0,1.47-7.51,50.33,50.33,0,0,0,8.32,1.67c5.21.77,9.89.49,10.72.19s2.59-1.22,2.73-2.1c.24-1.49-2.1-5-4.09-7.41a13.07,13.07,0,0,1-2.14-3.46c0-.15-.07-.28-.09-.38,0-.77,0-1.35-1-1.44a1,1,0,0,0-.45.07c-.17,0-.27,0-.37-.27l-.06-.16,0,0a0,0,0,0,0,0,0,.42.42,0,0,0-.33-.34,2.46,2.46,0,0,0-.29-.09.9.9,0,0,1-.41-.58c-.08-.28-.15-.47-.2-.62v0l0,0a2.13,2.13,0,0,0-.52-.79l0,0a9.51,9.51,0,0,1-.58-1.12A15.3,15.3,0,0,1,295,83a1,1,0,0,0-.64-.58l-.36,0c-.56-.06-.87-.19-.69-.21a5.76,5.76,0,0,1,.83,0,5.91,5.91,0,0,1-.27-.63.87.87,0,0,0-.81-.6c-.3,0-1.91-.1-2.12.24a.25.25,0,0,1,0,.07.88.88,0,0,1,.33-.08c.31,0,.45.22.51.59a1.32,1.32,0,0,1,0,.67s.47-.12.57.25a1.77,1.77,0,0,1,0,.83s.22-.23.49.08a.82.82,0,0,1,.12.2.86.86,0,0,1,0,.54l-.13.3c0,.1-.14.14-.18.21s0,.2,0,.32a1.61,1.61,0,0,1-.28.64.38.38,0,0,1-.27.12.34.34,0,0,1-.31-.22s-.38.55-.69.6-.43-.2-.47-.4-.2-1.36-.34-2a2.62,2.62,0,0,1,0-.43.59.59,0,0,0,0-.14v0c0-.11,0-.23.07-.36.08-.38.17-.75.11-.74l0,0a3.48,3.48,0,0,0-.49,1.36,6.22,6.22,0,0,1-.05,1.11s-.05,0-.09,0a5.12,5.12,0,0,0-.39-.56c-.32-.37-1-.68-1.4-.38s.17.52.43,1,.46,1,.71,1.55a2.81,2.81,0,0,0,.71,1.17,10.75,10.75,0,0,0,2,1.28,8.12,8.12,0,0,1,1.81,1.11,3,3,0,0,1,.29.33c.11.16.19.3.26.38a.44.44,0,0,0,.28.14l.14,0s.4,0,.81,0a.78.78,0,0,1,.35,0c.24.1.13.35.07.46a1,1,0,0,1-.39.33l-.28.13a1.4,1.4,0,0,1-.39.1,4.12,4.12,0,0,1-.61,0H294a1.85,1.85,0,0,1-.42-.1l-.07,0-.07,0-.08,0a2.77,2.77,0,0,1-.66-.58.1.1,0,0,0,0,0c-.09-.13-.16-.2-.33-.13s-.56.27-.49.48a.48.48,0,0,0,.05.11,3,3,0,0,1,.2,1.66c-.06.59.16,1.62.71.72.37-.61,1.56.78,1,1.14s-1.29,0-.94.6.95.42,1.78,1.07l0,0,.17.05.34.07h.15a2.39,2.39,0,0,0,.46,0,1.76,1.76,0,0,1,.9.06c.13.08.09.2-.11.36a1.53,1.53,0,0,1-.73.32c.3.56.42.9.61,1.24s.39.62.51.8c.48.69.88.92,2.81,2.28.16.11,0,.19-.25.11a9.25,9.25,0,0,1-3.21-1.88c-.06-.06-.25-.25-.3-.32a7,7,0,0,1-.58-.83c-.08-.15-.17-.33-.24-.48a1.2,1.2,0,0,0-.29-.44c-.24-.17-.62-.06-.71.85a5.65,5.65,0,0,0,0,.84,1,1,0,0,1,0,.26c0,.26-.2.18-.37,0a2.49,2.49,0,0,1-.61-1.4,2.1,2.1,0,0,1,.55-1.52,3.62,3.62,0,0,1-1.3-1.11,3.46,3.46,0,0,0-2.84-1.27c-1.87.12-2.63-1.65-3.27-2.2a4.85,4.85,0,0,0-3.13-.92c-1.31,0-1.94.2-2.17.15,0,0-.17.33.4,1.38.32.58,1.32.77,1.22,2.11s-.7,2.39.09,3.36l.13.19a4.25,4.25,0,0,1,.71,2.92c-.58,3.14-1.6,8.11-2.87,10.29-.29.58-.4.25-.4.25a44.1,44.1,0,0,0-3.64-13.67,46.31,46.31,0,0,0-6.49-10.46c-2.55-3-3.95-4.7-4.16-4.45s.14.54-.16,1.73a3,3,0,0,1-1.5,1.79c-.24.21.8.2,1.67.53s1.5.9.7.78c-1.21-.18-3.42-.25-3.27,0a32.38,32.38,0,0,1,3,1.48c.79.54,1.64,1.45.67,1.23a48.15,48.15,0,0,0-5.51-1c-2.28-.24-4.39.74-3.93.94a5.73,5.73,0,0,1,3,1.89c-.17.11-.65,0-1.74-.56-1.59-.88-2-.47-1.73-.28a14.83,14.83,0,0,1,1.69,1,7.48,7.48,0,0,1,2,2.48,12.76,12.76,0,0,1,.89,2.05c.28,1,.73,2.62.51,2.43-.45-.38-3.07-5.29-4-5.16-.45.06-.09,1.72.29,2.41a38.38,38.38,0,0,0,3.2,3.5c2.14,2.52,3.16,5.23,4.66,7.79a8.59,8.59,0,0,1,.44,1.18,3.15,3.15,0,0,0,.24.66,1.35,1.35,0,0,0,.45.51l.16.09.22.1a2.07,2.07,0,0,1,.7.4,4,4,0,0,1,.39.46.94.94,0,0,1,.1.1,3.75,3.75,0,0,0,2.06,1,6.86,6.86,0,0,1,1.14.34c.77.31,1,.92.67,1a.61.61,0,0,1-.37,0,12.8,12.8,0,0,0-3.53-.19,16.69,16.69,0,0,0-1.86.25c-.59.1-1,.2-1.34.26a4.53,4.53,0,0,1-1.13.07h0a4.38,4.38,0,0,1-2.72-1.29c-.13-.1-.25-.22-.39-.33-1.1-1,.54-.24,2.07.19a5.73,5.73,0,0,0,1.28.18c.38,0,.76,0,1.11,0h.05c.5,0,1.1-.08,1.67-.12l.36,0,.68,0c.4,0,.46-.08.34-.2a2.67,2.67,0,0,0-.55-.34l-.48-.24a4.44,4.44,0,0,0-.67-.26,11,11,0,0,0-1.37-.36l-.41-.08a4.68,4.68,0,0,1-3.27-1.78c-.44-.57.82,0,1.78.14l.23,0c.54,0,.85-.08.53-.55-1.86-2.71-4.15-3.76-8-7.9-1-1-3.83-3.75-3.15-7.13.39-2,1.44-3,1.06-3a.72.72,0,0,0-.36.09,4.94,4.94,0,0,0-1.25,1,3.83,3.83,0,0,0-.87,1.79,10.32,10.32,0,0,0-.1,2.21,12.58,12.58,0,0,0,.22,1.91,27.5,27.5,0,0,0,2.87,8.72,47.44,47.44,0,0,0,6.11,9.47c.17.18.33.34.49.48a3.8,3.8,0,0,0,.37.33,7.83,7.83,0,0,0,1.74,1c.69.31,1.55.65,2.58,1,1.86.66,5.76,2.14,6.16,2.39-.8,0-5.43-1-6.61-1.25-1.66-.38-4.35-1.14-5.28-2.68a15.14,15.14,0,0,1-3.57,7.94c.11-.77-.26-1.17-1.12-.59-3,2-4.9,2.9-7.41,2.78-1.91-.1-3-1.19-3.09-.83-.28,1.33,1.68,3.46,5.1,3.38-1.68.59-7,.79-12.71,5.1a19.94,19.94,0,0,0-7.4,14.62c0,2.76,1,4.78,2.05,5.7"/><path d="M304.46,208a11.37,11.37,0,0,1-2.1.6,4.78,4.78,0,0,0-2.11,1c-1.05.64-.61-.69-.18-1.13s2-.53,2.9-.53a5.47,5.47,0,0,0,1.88-.45c.11,0,.08.27-.39.5m-7.12.23c-.21.14-.89.09-1.29-.78a5.48,5.48,0,0,1-.32-1.34c-.08-.43.66-.81,1.12-.53s.29,1,.29,1c0,1.32.4,1.47.2,1.61m18.21-8a.61.61,0,0,0-.5.2,2,2,0,0,0-2.15-.11,2.54,2.54,0,0,0-.62,1.19c-.15.67-.17,1.52-.39,1.6-.07.08-.19.11-.4,0-.76-.27-.55-.35-1.16.12s-2.67,1.07-3.54.26c0,0-.11-.09,0-.07a3.76,3.76,0,0,0,3.17-1,6.54,6.54,0,0,1,.5-.45c.05,0,.09-.09,0,0a5.31,5.31,0,0,1-.61.22c-1.78.56-4,.17-6.59-.48a6.08,6.08,0,0,1-1.52-.62.63.63,0,0,0-.28-.73,2.24,2.24,0,0,0-1-.26,5.11,5.11,0,0,1-.73-.89,73.2,73.2,0,0,1-4.35-9.91,109,109,0,0,1-3.49-11.08h0s-.06-.26-.15-.58c0-.11,0-.18,0-.18h0c-.08-.32-.28-1-.32-1.06-.15-.31-.38,1.06-.3,2.08a16.93,16.93,0,0,0-.82,1.69c-.68,1.61-1,3.18-2.26,4.14-.94.72-1.56,1-1.7,1.13s.06.17.27.27a.81.81,0,0,1,.34.28,5.68,5.68,0,0,1,.38.81,2.09,2.09,0,0,0,.08.23,40.47,40.47,0,0,0,4.2,9c1.42,2.19,3.21,4.75,2.39,4a42.89,42.89,0,0,1-5-5.94,23.56,23.56,0,0,1-1.89-3.86,14.68,14.68,0,0,1-1-2.95c0-.07,0-.12,0-.18s-.14-.33-.21-.48c-.3-.46-.67-.59-1-.46s-1,.57-1,.57a25.36,25.36,0,0,0,3.17,6.5,55.56,55.56,0,0,0,5.26,7c.17.21.32.4.46.59.27.38.5.72.7,1a1.61,1.61,0,0,0,.26,1.24.87.87,0,0,0,.35.22c.18,0,.82.08.48.88-.06.14-.14.27-.2.42a1,1,0,0,0,0,.71c.16.43.64.71.73,1s.15.73.44,1.62c.07.22.15.41.22.58a6.1,6.1,0,0,0,.38.89,11.44,11.44,0,0,0,2.27,2.73l1.33,1.43a13.38,13.38,0,0,0,2.32-.91,8.44,8.44,0,0,0,2.06-1.28l-.32-1.56.93-.37c1.57-.57,4.6-.94,6.67-2.07a12.84,12.84,0,0,0,4.92-6.28c.09-.42-.52-.72-.68-.73"/><path d="M293.44,125.64c.65-.4.92-.46,1.33-.73a1.21,1.21,0,0,0,.56-.88c0-.27.12-.36.53-.53a1,1,0,0,0,.63-.65c.12-.31.2-.57.2-.57s.11-.24.61-.31,1.15-.31,1.12-.89a2.14,2.14,0,0,0-.07-.43h0v0a2.12,2.12,0,0,1-.08-.54s0-.07,0-.1h0a1.43,1.43,0,0,0-.06-.37.81.81,0,0,0,.67-.67c.07-.35-.27-.6-1-.71s-1-.24-1.39-.29a1.59,1.59,0,0,0-.66,0l.35-.65a2.27,2.27,0,0,0-.16-4.53,2.23,2.23,0,0,0-1.36.46s-.07.06.09,0a.86.86,0,0,1,.64,0l0,0c.21.23-.26.31-.28.81a.4.4,0,0,1-.23.41.58.58,0,0,1-.53-.1.6.6,0,0,1-.21-.45c0-.11,0-.08-.07,0a2.17,2.17,0,0,0-.34,1.18,2.33,2.33,0,0,0,.34,1.2c-.32.73-.8,1.81-.87,2s.84-.41,1.65-.42a2.39,2.39,0,0,1,.87.25h0l.56.28c.4.21,1.06.56,1.38.78a.73.73,0,0,1,.09,1.12.53.53,0,0,1-.38.15.94.94,0,0,1-.34-.07c-.75-.27-1.23-.56-1.56-.68s-.89-.17-.7.26.29.63,0,.91a2.61,2.61,0,0,1-.41.27c-.52.22-.67.6-.61.79a.7.7,0,0,1-.2.74c-.27.22-.59.49-.57.82s-.08.48-.42.72-.76.28-2,.4a3.5,3.5,0,0,1-2-.31.58.58,0,0,0-.84.45c0,.32,0,.43.35.48s.4.33-.05.41.44.61.88.71l.18,0c-2.06,4.31-26.7,53-26.88,53.49a.27.27,0,0,0,.11.34.28.28,0,0,0,.39,0c.22-.33,28.81-54,28.81-54a5.8,5.8,0,0,0,1.88-.43"/><path d="M269.56,149.21a23.5,23.5,0,0,1,2.6-2.39c.76-.55-.27-.48-2.85,1.26a11.66,11.66,0,0,0-3.07,3.08,71.39,71.39,0,0,0-5.37,9.52,15.44,15.44,0,0,1-3.28,4.64c-1.55,1.35-3.18,1.85-4.08,2.65-.12.11-.22.2-.31.3a1.1,1.1,0,0,0-.27.34,1.38,1.38,0,0,0-.18.77,1.73,1.73,0,0,1-.3,1.35,4.69,4.69,0,0,1-1.79,1l-.24.07c-.16,0-.76.21-.84.22-.72.11-1.12.43-.53.77a2.41,2.41,0,0,0,.72.27c.54.14.68.25.68.49s-.39.89-1.79,1.32a20.35,20.35,0,0,1-5.45.59,12.78,12.78,0,0,0-2.6,0c-.23.12-.15.42.84.71.52.15,1.85.39,2.48.6.37.13.26.45-.2.53a11.65,11.65,0,0,1-4.24-.32s-.48-.17-.69-.27a3.62,3.62,0,0,1-1.44-1.27c-.13-.24-.18-.69-.38-.81L235.91,176s-.13.44.64,1.4c.12-.13.1-.35.2-.54s.45-.42.66-.11a1.07,1.07,0,0,1,0,.92.9.9,0,0,0-.13.43.43.43,0,0,0,0,.11,5.83,5.83,0,0,0,2.48,1.05,13,13,0,0,0,5.52-.09c.17,0,.91-.2.95,0a1.84,1.84,0,0,1-.19.76c-.16.38-.24.5-.34.73s.08.24.13.22a3.74,3.74,0,0,0,.75-.63c.27-.26,1.12-1,1.33-1.25.74-.68,1.17-1,1.07-1.37a5.08,5.08,0,0,1-.12-.57c0-.49.24-.94,1-1.5a13.55,13.55,0,0,0,2.3-1.51c.75-.77.21-1.61.85-2.34s1.73-1.05,2.1-1.57c.57-.8.55-1,1.12-2a40.47,40.47,0,0,1,3.44-3.74c2-2.3,2.76-4.38,4.55-7.49a43.15,43.15,0,0,1,5.27-7.72"/><path d="M244.45,142.64c-3.77,3.35-1.78,6.5-.57,7.25.81.51-.06-.3,3.58-4.83a29.09,29.09,0,0,1,4.54-3.81c-.42.05-2.21.41-4.15.76-2.24.39-3,.52-3.4.63"/><path d="M288.46,178.22a11.74,11.74,0,0,1,2-3.64c.14-.2-.22-1.21-.43-1.68,0-.11-.07-.15-.11-.18a.82.82,0,0,0-.27,0c-.14,0-.3,0-.37-.14a12.51,12.51,0,0,0,.34-1.68,7.88,7.88,0,0,0-.28-2.82,1.87,1.87,0,0,0-.57-1.07c-.17-.13,0,.35.08,1.13a5.88,5.88,0,0,1-.54,2.79c-.48,1-1.06,1.82-1.27,2.37s-.1,1,.35,1.1h0c.16,0,.29,0,.34.36.08.48,0,1.49-1.79,3.59a19.06,19.06,0,0,1-2.4,2.11,3.91,3.91,0,0,1,0,1,3,3,0,0,1-.43,1.21,1.35,1.35,0,0,1-.27.19c-.88.55-.05,1.77-.05,1.77s.71-.38,3-1.86c1.67-1.07,2.14-3.09,2.63-4.49"/><path d="M269.62,72.57a2.32,2.32,0,0,1,1,.13c.11.33-.18.8-1.39.64a1.35,1.35,0,0,0-1.63,1.39c-.09,1.43.54,2.45.45,3.14-.07.53-.45.54-.66.59a1,1,0,0,0-.38.08c-.17.12.09.73.54.84a2.12,2.12,0,0,0,.57.06c.45,0,.6-.24,1.06-.24a2.55,2.55,0,0,1,.78.2,3.45,3.45,0,0,1,1.11.79c.27.31.46.85.62.89.32.08.74-.63.62-.71a.91.91,0,0,1-.78-.35c-.18-.31-.13-.81-.33-1.34a4,4,0,0,1-.44-1.34,1.42,1.42,0,0,1,1.55-1.46c.47.08.65.65.74,1.19a.57.57,0,0,0-.34-.26.46.46,0,0,0-.44.11c-.1.13.14.24.26.33a1.56,1.56,0,0,1,.43.59,2.94,2.94,0,0,1,.23.67c0,.18,0,.28.08.47.08.55.1.62.21.7s1.11.86,1.44.84.44-.06.36-.15a3.07,3.07,0,0,1-.34-2.24,6.79,6.79,0,0,1,.32-1c.07-.17.35-.21.63-.19a2.18,2.18,0,0,1,.76.25l.37.22c.18.11.33.24.31.34a.31.31,0,0,1-.07.14c0,.06-.07.19,0,.21s.21.18.35.29l.1.11a2,2,0,0,1,.1.22c0,.16.07.22.32.36a4,4,0,0,0,1.68.24H280c.25,0,.87,0,1,.22a4.47,4.47,0,0,1,.08,1.74,4.74,4.74,0,0,1-.12,1.36.5.5,0,0,1-.5.34,2.78,2.78,0,0,0-.57,0c-.2,0-.3.36-.38.67a1.11,1.11,0,0,1-.22.41l-.24.21a1,1,0,0,0-.23.57.94.94,0,0,1-.14.43,3.14,3.14,0,0,0-.22.25,1.42,1.42,0,0,0-.26,1.05,1,1,0,0,1-.42.88,1.67,1.67,0,0,1-1.74-.09,6.61,6.61,0,0,1-.8-.54c-.06,0-.11-.06-.14,0s.11.25.42.6a3.14,3.14,0,0,0,.53.47c1.53,1,2.91.93,3.15,0,.16-.64.9-1.26,1.78-2.55s1.49-1.47,2.14-3a11,11,0,0,0,.43-2.5,6.14,6.14,0,0,1-2-1.2,12,12,0,0,1-1.24-1.37,26,26,0,0,0-2.13-2.81,12,12,0,0,0-1.37-1c-.2-.14-.29-.28-.21-.34s.21,0,.57.11a8.34,8.34,0,0,1,3.74,2.68c.65.83.84,1.41,1.44,2.13A4.54,4.54,0,0,0,284,79.2a7.25,7.25,0,0,0,4.07.53c1-.27,1.26-.58,1.21-.86a3.25,3.25,0,0,0,.26.27l.42.37.17.08c.21.09.43,0,.48.09a.38.38,0,0,1-.11.33,2.07,2.07,0,0,0,.11.25c.07.16.73.23.73.23s.81.07.78,0,.07-.16-.61-1.21a22,22,0,0,0-2.13-1.66c-.34-.24-.63,0-.58.37a1.75,1.75,0,0,0,.23.57,3.75,3.75,0,0,0-1.48-.58,3.87,3.87,0,0,1-2.31-1.06c-.14-.11-.11-.21-.11-.21A24.45,24.45,0,0,1,287.77,73c1.11-1.11,2.22-1.86,2.44-2.57s-1.07-4.71-5.46-7.15-7.63-2.44-8.78-2.13-1.34.89-1.38,1.55a22.39,22.39,0,0,1-.4,3.33,11.06,11.06,0,0,0-.41,1.9,1.47,1.47,0,0,0,.45.76c.23.29,2.37,2.08,2.8,2.71s-.32.38-.75.07a16.06,16.06,0,0,0-3-1.64,11.38,11.38,0,0,0-4-.86c-1.22,0-2.75.55-2.75,1.51,0,1.41,2,2,3.14,2.1"/><path d="M430.5,253.87c0,.22-.16.38-.45.38h-.58v-.77H430c.28,0,.46.13.46.39m.59,0c0-.54-.4-.86-1-.86h-1.17v2.62h.58v-.84h.46l.56.84h.67l-.64-.94a.81.81,0,0,0,.57-.82m1,.52a2.18,2.18,0,1,1-2.17-2.19,2.15,2.15,0,0,1,2.17,2.19m.29,0a2.47,2.47,0,1,0-2.48,2.47,2.48,2.48,0,0,0,2.48-2.47"/></svg>