<svg id="Capa_1" data-name="Capa 1" xmlns="http://www.w3.org/2000/svg" viewBox="0 0 546 325"><defs><style>.cls-1{fill:#fff;opacity:0;}.cls-2{fill:#4b4b4b;}</style></defs><title>Logos Socios</title><rect class="cls-1" width="546" height="325"/><path class="cls-2" d="M317.13,159.57l-2.87,2.8-9.45,5.09H292.27c-3.07-1.47-8.39-6.71-8.39-6.71v48.11c.33.5.48,1.18,1.16,1.33l1.47-.45,12.84-8.41c1.42-.56,2,1.39,2.8,2.22.24.53.68,1.15.3,1.77l-5.9,4.13-21.7,14.31-5.61,3.69c-1.29.12-1.83-1.41-2.5-2.21.26-1.24,1.47-2.07,2.21-3.1a20,20,0,0,0,2.77-8.85v-79c-.24-3,0-8.6-1.74-9.59-1.5-.91-4.39-.38-4.42-2.95l.14-.59c4.61-3.22,9.42-6.29,13.87-9.59l-.29-.39H262.6c-2.39,1.3-4.42,4.11-7.23,3.93-.85-.86-2.18-2-1.92-3.25,5.44-3.42,10.42-8,16.09-10.77,3.95-.86,8.56-.18,12.69-.59l22.28.15c9.42,1.65,14.88,10.89,17.71,19C325.47,132.74,324.31,148.44,317.13,159.57ZM290,111.22c-2.12.94-4.83,2.42-6.16,4.37V159c.83-.53,1.54-1.51,2.63-1.33,4.07,1.68,7.76,4.75,12.84,3.54,3.95-.82,7.17-4.42,9.3-7.82,3.51-8.5,4.75-19,2.21-28.33-.35-.36.15-1.07-.44-1.33-1-3.48-2-7.46-4.87-10.18C302,110.14,296.94,111.22,290,111.22Z"/><path class="cls-2" d="M158.86,104.08a20.34,20.34,0,0,1,8.63,16.23v79c-.12,3.21.64,7.43-.81,10.47-4.22,5.94-9.06,14.67-17.27,15.06a33.23,33.23,0,0,1-29.22-13.87c-5.94-8-6-25.12-6-25.12V125.63a8.7,8.7,0,0,1,2-3.84l15.64-14.17C138.85,101.16,150.71,98.44,158.86,104.08Zm-10,8c-4.07-.38-8.85.06-13.28.15-3.75,2.62-8.48,5.81-8.8,10.77.06,11.39,0,69.72,0,73.09s2.49,6.19,3.49,7.93c3.92,6.43,10.45,11.69,17.71,13,2.12,0,5.27.71,7-.59V115.89A12,12,0,0,0,148.82,112.05Z"/><path d="M185.86,119.72c4,2.72,3.27,8,4.21,12.25v65.82a9.1,9.1,0,0,0,4.21,5.31c.53.48-.33.86-.59,1-6.56.47-12.58.12-19.19,0a.85.85,0,0,1-.44-1.48,11.81,11.81,0,0,0,4.82-9.59V130.64c-.88-3.66-.83-7.3-5.12-10.18-.17-.38.3-.5.45-.74A98.42,98.42,0,0,1,185.86,119.72Z"/><path d="M368.71,148.21c2.1.94,2.27,3.07,3.54,4.72h.44c1.66-1.8,3.13-4.31,5.61-4.72l8-.15a2,2,0,0,1,1,.74L387,150c-1.89,3.15-4.49,6-6.05,9.29-.8.92-1.83,2.19-3.25,1.63a1.41,1.41,0,0,1-.88-1.63c.76-.82,1.78-1.33,1.22-2.05a3.12,3.12,0,0,0-3.39.46c-1.12,1.63-1.08,4.41-1.08,7.2v31.74a4.39,4.39,0,0,0,2.07,3.68c1.94.59,4.31.06,6.34.44.83.86.3,1.68.44,2.81l-.73.73-23.62.15a2.63,2.63,0,0,1-.73-.59c.44-1.59,2.89-2.73,3.8-4.11a11.08,11.08,0,0,0,1.58-6.06V158.4c0-3.63-2.52-6.59-5.53-9-.47-1.07.77-.92,1.18-1.33Z"/><path d="M400,148.21c2.1.94,2.28,3.07,3.54,4.72H404c1.65-1.8,3.13-4.31,5.61-4.72l8-.15a2,2,0,0,1,1,.74l-.3,1.18c-1.89,3.15-4.48,6-6.05,9.29-.8.92-1.83,2.19-3.25,1.63a1.41,1.41,0,0,1-.88-1.63c.76-.82,1.78-1.33,1.22-2.05a3.12,3.12,0,0,0-3.39.46c-1.12,1.63-1.08,4.41-1.08,7.2v31.74A4.39,4.39,0,0,0,407,200.3c1.95.59,4.31.06,6.34.44.83.86.3,1.68.45,2.81l-.74.73-23.61.15a2.67,2.67,0,0,1-.74-.59c.44-1.59,2.62-2.27,3.54-3.66a13,13,0,0,0,1.85-6.51V158.4c0-3.63-2.53-6.59-5.54-9-.47-1.07.77-.92,1.18-1.33Z"/><path d="M231.47,119.43c2.59.74,2.77,3.51,3.69,5.46,1.62,6.17.81,12.72,1.1,19.63.15,16.85-.15,31,0,47.81.36,4,1.49,8.35,5.54,10.33,0,.3.35.47.44.74l-.59.59-12,.15c-2.33-.62-2.74-3.34-4.13-5h-.44c-2.89,1.77-5.08,5.25-8.71,5.31-7.35,1.71-13-3.86-16.67-9.29a43.16,43.16,0,0,1-3.1-21.4c.32-10.45,8.65-18.27,16.67-24.5,3.07-1.71,6.91-1.62,10.63-1.77l.59-.89c-.74-7.79,1.27-15.76-2.07-22.58-1.12-1.27-2.71-2.36-3.39-3.83.41-.83,1.27-.68,1.92-.89Zm-14.76,36.89c-2.72.59-6.44.09-7.53,3.4-2.12,9.65-2.51,21.45.89,30.84,2,3.22,5,6.94,9.15,6.35a9.13,9.13,0,0,0,5.85-4.87v-33.8C224.21,155.17,219.31,156.74,216.71,156.32Z"/><path d="M317.72,159.64c4.67-3.86,9.73-8.45,15-11.14,4.55-.24,10.13-1.56,13.87,1.48,4.46,2.56,3.1,8.53,3.84,12.54-.12,11.69-.09,22.82,0,34.24a11.48,11.48,0,0,0,3.84,6.2c.62.65-.47,1.21-.89,1.32l-10.62-.14c-1.71-1.54-2.19-3.57-3.4-5.32-2.57,1.69-4.93,4.49-8,5.32-3.21-.09-7.23.94-9.88-.89-6.32-4.07-9.51-10.74-10-17.86C310.21,176.1,312,166.46,317.72,159.64Zm19.53-3.08c-2-1.22-7.71-.15-10.6,1.39-3,2.42-3.22,6.31-3.84,9.88-.62,8.77-1.24,17.36,2.81,24.94,2.79,3.1,3.1,5.89,8.41,3.84,2.24-1.15,4.45-1.73,5.85-6V162.09S340.23,158.35,337.25,156.56Z"/><path d="M429.18,192.88a5.59,5.59,0,0,1,1.89,1.26,5.89,5.89,0,0,1,1.26,1.9,6.31,6.31,0,0,1,0,4.68,5.92,5.92,0,0,1-1.26,1.88,5.72,5.72,0,0,1-1.89,1.25,6.23,6.23,0,0,1-4.7,0,5.72,5.72,0,0,1-1.89-1.25,5.84,5.84,0,0,1-1.71-4.23,5.93,5.93,0,0,1,1.71-4.23,5.59,5.59,0,0,1,1.89-1.26,6.23,6.23,0,0,1,4.7,0Zm-4.36.79a4.94,4.94,0,0,0-2.64,2.7,5.31,5.31,0,0,0-.37,2,5.23,5.23,0,0,0,.37,2,4.92,4.92,0,0,0,1.05,1.62,5.06,5.06,0,0,0,1.59,1.09,5.11,5.11,0,0,0,2,.4,5,5,0,0,0,2-.4,4.84,4.84,0,0,0,1.59-1.09,5.11,5.11,0,0,0,1.06-1.62,5.06,5.06,0,0,0,.39-2,5.13,5.13,0,0,0-.39-2,5.07,5.07,0,0,0-1.06-1.61,4.69,4.69,0,0,0-1.59-1.09,4.85,4.85,0,0,0-2-.4A4.94,4.94,0,0,0,424.82,193.67Zm-.15,8.14v-6.88h2.64a2.53,2.53,0,0,1,1.71.49,1.86,1.86,0,0,1,.53,1.42,1.91,1.91,0,0,1-.14.78,1.7,1.7,0,0,1-.37.57,1.9,1.9,0,0,1-.55.37,3.48,3.48,0,0,1-.67.2l2.05,3.05h-1l-1.94-3.05h-1.42v3.05Zm2.73-3.8a2.15,2.15,0,0,0,.66-.13,1.06,1.06,0,0,0,.47-.36,1.24,1.24,0,0,0,.17-.68,1.16,1.16,0,0,0-.13-.6,1.27,1.27,0,0,0-.37-.36,1.53,1.53,0,0,0-.52-.18,4,4,0,0,0-.61,0h-1.55V198h1.12C426.89,198,427.15,198,427.4,198Z"/></svg>