<svg id="Capa_1" data-name="Capa 1" xmlns="http://www.w3.org/2000/svg" viewBox="0 0 546 325"><defs><style>.cls-1{fill:#fff;opacity:0;}.cls-2{fill:#060606;fill-rule:evenodd;}</style></defs><title>Logos Socios</title><rect class="cls-1" width="546" height="325"/><path class="cls-2" d="M129.56,148.18c-9.13-5.92-18.55-11.74-23-17.23-1.42-1.38-1.94-5.95,3-6.13,8.55-.45,30.17,7.9,20,23.36M88.17,202.93c-11.53-7.73,3.63-27.26,24.94-26.1C116,172.21,119,166,122,161.4c-.93-3.09-26.14-13.17-22.32-29,5.18-21.49,36.94-18.08,44.5-2.24l-12.46,19.32c10.86,7.89,28.52,20.49,9.69,43.36-2.82,4.38-5.67,9.1-9.27,12.2-7.28-10.25-15.4-19.85-21.61-19.23C104.18,197.64,93.67,206.62,88.17,202.93Zm-.09-2.26c10,5.13,20.33-14.4,20.16-15.35C97.21,184,82.26,191.55,88.08,200.67Zm52.05-9.44c4.26-10.84-7.3-24.44-16.12-28.4-2.77,4.34-4,7.19-8.3,14C129.18,179.23,134.26,184.38,140.13,191.23Z"/><path class="cls-2" d="M294.73,181.55l-.08,17.07c-16.2-15-47.14-6.23-49.88,5.08.7,0,.79,0,1.48,0,5.4-9.08,29.64-9.59,42.37,6.15l1.19,0c1.38-4.12,8.21-10.73,16.35-18-.11-13.74-.31-26.18-.05-38.54,0-.5,1.09-1.15.82-1.72-.14-.3-.78.06-.77-.11-11.69-1.5-7.3-6.58-1-12.45l-1.38-1.38c-11.77,5.95-19.58,13.62-9.09,18.71v21.71l-3.13,2.53-5.34-5.81v-25l-5.89-7.7-1.28,0-11.18,7.25c.47.37.77,1.32,1.24,1.69,1.7-1.2,3.24-1.73,4.2-1.27l1,2.21v26.15l11.38,12.67Z"/><path class="cls-2" d="M198.72,142.37l5.78,7.6,13.75-7.52L225,150v27.26l3.35,3.81,2.12-1.74,1.47,1.68-9.8,10.14L213,180.51V152l-1.68-2.22h-1.57L205,152.36v25.36l3.73,3.42,2.35-2.1,1.32,1.68-10,10.46c-2.64-3.06-8.5-9.67-9.32-11.47l.11-14.83-.11-12.41-2-2.79-3.21,2-1.39-1.8Z"/><path class="cls-2" d="M311.88,138.12c-5.51-.84-2.79-8.78,4.49-3.41,1.13.91,3.55,0,4.17-.27,9.35-4.83,20.12-13.38,31.88-20.74l12.08,9.81c4.61-3.05,9.22-6.77,13.82-9.81,32.62,20.17,21.91,61.14-3,82.41l2.33,1.5c7.27-4.94,23-.58,23.47,4.69-.5,2-2.23,3.3-4.11.73-2.68-5.56-11.29-4.68-17.47,0l-8.18-6.26c11.89-20.77,30.46-50.7.42-74.09l-5.93,3.91v52.07l5.94,3.59,5.3-3.82,1.47,2.55-14.15,9.92-11.93-5.24V126.62l-4.63-5.88-9.19,6.31.22,51.61L345,182.3l5.27-3.87,1.59,2.43L337.7,191.18l-12.34-5.91c-.09-.05-.18-32.47,0-47.87a25.7,25.7,0,0,1-13.48.72"/><path class="cls-2" d="M369,127.48l2.32-2c15.74,12.49,18.26,33.56,7.56,52,5.73-14.69,9.38-35.65-9.88-49.94"/><polygon class="cls-2" points="320.2 140.58 322.52 140.58 322.63 185.31 320.32 179.1 320.2 140.58"/><path class="cls-2" d="M97.28,141c3.87,11,17.09,18.12,24.55,23.22,10.74,6.79,15.4,14.19,16.22,21.68a49.07,49.07,0,0,0-18.71-17.93c-11.44-7.15-22.06-12.47-22.06-27"/><path class="cls-2" d="M89.21,167.34c4.61-3.27,14.6-4.62,14.51.18-.1,5.42-11,3.66-14.51-.18M73.4,139.89c-3.13-27.3,43.18-44.56,65-21-40.72-30-76.06,22.25-50.73,47.52,8-5.07,17.71-5.51,17.59,1.84-.08,4.72-8.57,6.25-17.65.28C60.51,201,101.72,237.21,130.5,207.35c-11.12,21.36-55.81,15.49-57.1-13-.75-11.87,4.21-21.14,12.88-27A35.66,35.66,0,0,1,73.4,139.89Z"/><path class="cls-2" d="M164.62,165c3.13-3.59,6.31-6.93,8.57-6.89V176.7l-4.5,4.61-4-4.2Zm-7.47-19.67,1.78,1.25c-3.46,4.37-.17,5.33,3.41,4.26,4.37-.85,13.69-8.32,16.33-8.13l6.17,8.76v25.7l3.34,4.09,2.26-1.72,1.41,2.14-9.93,9.54-8.07-9.71,0-1.57-11.37,11.28c-2.64-3.06-8.18-8.75-9-10.55V166.08c8.89-6.5,16.89-10.29,19.72-11l0-2.31-2-2.72a10.1,10.1,0,0,0-1.52,0c-4.54,2.57-14.66,10.16-17.93,4.29C153.39,151.24,155.22,148.24,157.15,145.29Z"/><path class="cls-2" d="M414.46,165c3.12-3.59,6.31-6.93,8.57-6.89V176.7l-4.51,4.61-4-4.2ZM407,145.29l1.79,1.25c-3.46,4.37-.18,5.33,3.41,4.26,4.36-.85,13.68-8.32,16.32-8.13l6.17,8.76v25.7l3.35,4.09,2.26-1.72,1.41,2.14-9.94,9.54-8.06-9.71,0-1.57-11.38,11.28c-2.63-3.06-8.17-8.75-9-10.55V166.08c8.89-6.5,16.89-10.29,19.72-11l0-2.31-2-2.72a10.26,10.26,0,0,0-1.53,0c-4.53,2.57-14.66,10.16-17.92,4.29C403.23,151.24,405.06,148.24,407,145.29Z"/><path class="cls-2" d="M250.81,149.42l3.16,2.79v23.06l-7.75,7V155.12Zm3.16-1V131.31l-3.67-3.8c-11.16,13.43-44.34,10.61-45.83,0,.74,0,.46,0,1.71,0,6.78,8.94,29.47,7.57,42.37-7.34a84.19,84.19,0,0,0,17,17.23v39.92L251,191.18l-17-10.39V152.85l10-13.23h1.63Z"/><path class="cls-2" d="M442.79,153.26l17.44-10.82,10.39,10.44L463,158.34l-6.83-6.56a1.22,1.22,0,0,0-1.5,0v23.27l6.86,7,9.66-5,2.53,1.53-19.52,12.6-11.44-12.9Z"/></svg>