<svg id="Capa_1" data-name="Capa 1" xmlns="http://www.w3.org/2000/svg" viewBox="0 0 546 325"><defs><style>.cls-1,.cls-3{fill:#fff;}.cls-1{opacity:0;}.cls-2{fill:#171717;}</style></defs><title>Logos Socios</title><rect class="cls-1" width="546" height="325"/><path class="cls-2" d="M466.2,217.58a793.71,793.71,0,0,0-387.65,0V129.16a876.48,876.48,0,0,1,387.65,0Z"/><path class="cls-3" d="M472.12,225.12a787.89,787.89,0,0,0-399.49,0V124.57a881.09,881.09,0,0,1,399.49,0Zm-5.92-7.54V129.16a876.48,876.48,0,0,0-387.65,0v88.42a793.71,793.71,0,0,1,387.65,0"/><polygon class="cls-3" points="214.78 126 224.99 125.41 224.99 176.99 214.47 177.58 214.78 126"/><polygon class="cls-3" points="305.89 155.25 305.89 124.84 314.86 125.24 314.59 176.82 304.2 176.27 293.79 147.68 292.16 143.22 292.33 175.94 283.48 175.83 283.48 124.25 294.83 124.47 304.02 150.04 305.89 155.25"/><polygon class="cls-3" points="374.43 130.76 400.19 134.62 400.19 143.79 383.92 141.4 383.92 151.85 396.76 154 396.76 162.91 383.92 160.88 383.92 182.94 374.43 181.74 374.43 130.76"/><path class="cls-3" d="M262.7,124.21H263a5.35,5.35,0,0,1,5.37,5v16.5a5.22,5.22,0,0,1-2.23,4.18L266,150l-3.4,2.37,8.87,23.39-10.62.07-6.17-18.21-5.13,3.76V176l-9.63.3V124.72l.51,0Zm5.62,5.28v0Zm-18.77,21.18,6.51-4.38c1.54-1,2.11-2.72,2.11-5.89v-6.28a1,1,0,0,0-1.05-1l-7.57.37Z"/><polygon class="cls-3" points="408.21 135.71 434.47 140.65 434.47 149.65 418.13 146.25 418.13 157.22 431.98 159.93 431.98 168.65 418.13 166.02 418.13 188.57 408.2 186.95 408.21 135.71"/><path class="cls-3" d="M354.78,128.37a5.26,5.26,0,0,1,4.86,5.22v40.62a5.39,5.39,0,0,1-5.37,5.18H354l-.33,0L335,178a5.29,5.29,0,0,1-4.95-5.23V132a5.39,5.39,0,0,1,5.38-5.34h.47Zm-13.93,40.74,7.54.83h.18a1,1,0,0,0,1-1v-31a1,1,0,0,0-.92-1l-7.57-.77H341a1,1,0,0,0-1,1V168.1a1,1,0,0,0,.91,1"/><path class="cls-3" d="M435.48,188.89a.6.6,0,0,0-.06-.29.41.41,0,0,0-.22-.19.71.71,0,0,0-.25-.06,1.62,1.62,0,0,0-.33,0h-.41v1.22h.35a1.71,1.71,0,0,0,.41,0,.58.58,0,0,0,.29-.12.79.79,0,0,0,.17-.2.87.87,0,0,0,.05-.31m1.89,3.13H436l-1.32-1.66h-.42V192H433V187.5h1.89a4.44,4.44,0,0,1,.68,0,1.49,1.49,0,0,1,.53.2,1.4,1.4,0,0,1,.41.39,1.17,1.17,0,0,1,.15.61,1.35,1.35,0,0,1-.25.84,1.65,1.65,0,0,1-.66.52Zm-2.47-5.52a3.46,3.46,0,1,0,3.51,3.45,3.45,3.45,0,0,0-3.51-3.45m0,7.75a4.3,4.3,0,1,1,4.43-4.3,4.34,4.34,0,0,1-4.43,4.3"/><path class="cls-3" d="M141.92,180.86a5.38,5.38,0,0,1-4.13,5.19l-.41.09L118.15,190a5.6,5.6,0,0,1-1.09.1,5.39,5.39,0,0,1-5.43-5.14V174.1l9.83-1.66v7a1,1,0,0,0,1.05,1,1.09,1.09,0,0,0,.26,0l8-1.61a1,1,0,0,0,.83-1V166.58a1,1,0,0,0-1-1l-.18,0-12.35,2.18a5.44,5.44,0,0,1-6.42-5.26V144a5.41,5.41,0,0,1,4.47-5.14l18.62-3.44a5.46,5.46,0,0,1,6.71,4.86v9.12l-9.81,1.74V145.8a1,1,0,0,0-1-1,1.09,1.09,0,0,0-.26,0l-8.09,1.71a1,1,0,0,0-.83,1v9.13a1,1,0,0,0,1,1h.2l12.74-2.46.1,0a5.47,5.47,0,0,1,1-.09,5.4,5.4,0,0,1,5.43,5.23v20.51Zm-4.15,5.19-.39.09a2.74,2.74,0,0,0,.39-.09m-26.14-1.12v0Zm29.8-44.66v0Zm0,.33v0Zm-29.81,3.51v0Z"/><polygon class="cls-3" points="151.11 184.06 161.09 131.13 171.42 129.92 176.65 157.96 177.74 163.86 178.73 158.23 183.94 128.52 195.43 127.44 204.16 178.32 194 179.16 189.36 149.05 188.99 146.65 188.3 150.18 182.36 180.28 172.41 181.35 167.32 151.15 166.93 148.84 166.51 151.57 161.71 182.65 151.11 184.06"/></svg>