<?xml version="1.0" encoding="utf-8"?>
<!-- Generator: Adobe Illustrator 23.0.4, SVG Export Plug-In . SVG Version: 6.00 Build 0)  -->
<svg version="1.1" id="Layer_1" xmlns="http://www.w3.org/2000/svg" xmlns:xlink="http://www.w3.org/1999/xlink" x="0px" y="0px"
	 viewBox="0 0 1200 1200" style="enable-background:new 0 0 1200 1200;" xml:space="preserve">
<style type="text/css">
	.st0{fill-rule:evenodd;clip-rule:evenodd;}
</style>
<g id="XMLID_1146_">
	<g id="XMLID_1453_">
		<path id="XMLID_1475_" class="st0" d="M341.63,704.45c-3.27,0.04-7.19-0.64-7.24-4.8l-0.49-41.6c0.27-3.71,4.03-4.9,7.21-4.77
			l-0.01-1.07l-23.25,0.27l-0.15,1.07c3.5,0.13,7.7,0.88,7.75,5.24l0.21,18.21l-29.66,0.35l-0.2-17.23
			c-0.05-3.91,4.26-6.74,7.86-6.4l-0.01-1.07l-23.6,0.28l0.01,1.07c1.48-0.02,3.12,0.32,4.68,0.62c1.64,0.96,2.73,2.65,2.76,4.77
			l0.47,39.83c0.05,4.15-3.14,5.57-6.8,5.62c-0.15,0.5-0.34,1.14-0.49,1.68l23.36-0.27l0.23-1.18c-2.22-0.47-7.69-0.41-7.85-5.79
			l-0.38-19.25l29.66-0.35l0.22,19.1c0.04,3.13-3.95,6.83-7.97,5.8l0.02,1.35l23.91-0.28L341.63,704.45"/>
		<path id="XMLID_1474_" d="M385.65,699l-0.24-1.72l-0.7,0.01c-0.47,3.16-2.49,6.4-5.96,6.64l-6.43,0.29
			c-2.52,0.03-5.13-1.45-5.47-4.23l-0.14-11.89c4.22-0.05,8.75,0.86,9.13,5.64l0.78-0.01l-0.16-13.45
			c-0.37-0.11-0.78,0.01-1.21,0.13c-0.45,5.62-4.45,6.66-8.56,6.41l-0.17-14.57l0.62-0.4l7.27-0.08c3.84-0.04,6.39,2.58,7.3,6.12
			c0.3,0,0.52-0.07,0.82-0.29l-0.07-6.39l-0.43-0.62l-26.34,0.31l0.01,0.71c1.95-0.1,5.22,0.05,5.24,2.27l0.32,27.29
			c0.03,2.9-5.58,3.75-5.58,3.75c0,0.21,0.01,0.54,0.01,0.76l30.03-0.35L385.65,699"/>
		<path id="XMLID_1471_" class="st0" d="M414.66,687.73l-0.17-14.51c-0.11-0.35-0.01-0.87,0.08-1.31c0.22-0.24,0.63-0.43,0.95-0.53
			c0.16,0,0.49-0.12,0.78-0.12c1.38-0.14,2.89-0.03,4.23,0.27c7.55,1.53,7.7,14.45,0.19,16.12L414.66,687.73 M439.13,703.91
			c-1.24-0.2-2.39-0.45-3.39-1.37l-12.97-14.21c3.94-0.93,7.6-2.68,8.99-6.7c1.77-5.83-2.5-10.86-8.26-11.37l-19.52,0.23l-0.42,0.53
			l0.44,0.5c2.15-0.14,4.42,0.37,5.08,2.72l0.35,25.81c0.01,1.04-0.34,2.18-0.85,3.11c-0.22,0.21-0.61,0.32-0.84,0.42l-3.16,0.4
			c-0.3,0.33-0.3,0.54-0.09,0.98l15.54-0.18c0-0.25,0.11-0.45-0.01-0.66c-0.55-0.68-2.49-0.56-3.33-0.65c-0.4-0.2-0.79-0.41-1-0.71
			c-0.53-1.22-0.87-2.58-0.79-3.92l-0.12-9.87c1.05-0.13,1.96-0.14,2.79,0.6l12.73,15.2l8.84-0.1L439.13,703.91z"/>
		<path id="XMLID_1470_" d="M487.32,697.81l-0.25-1.72l-0.66,0.01c-0.5,3.16-2.52,6.4-5.99,6.64l-6.42,0.29
			c-2.54,0.03-5.13-1.45-5.49-4.23l-0.14-11.89c4.22-0.05,8.77,0.86,9.14,5.64l0.8-0.01l-0.16-13.45c-0.39-0.11-0.8,0.01-1.2,0.13
			c-0.46,5.62-4.46,6.66-8.59,6.41l-0.17-14.57l0.65-0.4l7.26-0.08c3.85-0.05,6.41,2.57,7.28,6.12c0.33,0,0.55-0.07,0.86-0.3
			l-0.07-6.39l-0.43-0.62l-26.34,0.31l0.01,0.71c1.95-0.1,5.2,0.05,5.22,2.27l0.32,27.29c0.03,2.9-5.58,3.75-5.58,3.75
			c0,0.21,0.01,0.54,0.01,0.76l30.03-0.35L487.32,697.81"/>
		<path id="XMLID_1467_" class="st0" d="M528.77,701.65c-3.79,1.37-12.2,2.47-12.27-3.62l-0.31-26.98l0.94-0.56
			c1.31-0.21,2.84-0.32,4.19-0.24c5.97,0.04,10.75,3.66,12.24,9.43C535.38,686.79,536.04,697.44,528.77,701.65 M524.27,669.08
			l-18.81,0.22l0.22,0.8c1.73-0.02,3.27,0.29,4.44,1.65c0.33,0.68,0.55,1.42,0.62,2.05l0.3,25.38c-0.15,0.73-0.58,1.52-0.99,2.16
			c-1.2,1.07-2.98,1.45-4.61,1.47l0.42,1.14l20.66-0.35c1.06-0.13,2.16-0.39,3.2-0.64c9.16-2.7,12.39-12.17,10.56-20.76
			C538.76,674.68,531.8,669.21,524.27,669.08z"/>
		<path id="XMLID_1466_" d="M588.98,696.63l-0.23-1.72l-0.69,0.01c-0.48,3.16-2.51,6.4-5.98,6.64l-6.43,0.29
			c-2.51,0.03-5.12-1.45-5.46-4.23l-0.14-11.89c4.21-0.05,8.76,0.86,9.13,5.64l0.77-0.01l-0.16-13.45
			c-0.35-0.11-0.77,0.01-1.19,0.13c-0.47,5.62-4.46,6.66-8.57,6.41l-0.17-14.57l0.62-0.4l7.26-0.08c3.85-0.05,6.43,2.57,7.3,6.11
			c0.3,0,0.53-0.07,0.84-0.29l-0.07-6.39l-0.43-0.62l-26.34,0.31l0.01,0.71c1.96-0.1,5.22,0.05,5.25,2.27l0.32,27.29
			c0.03,2.9-5.6,3.75-5.6,3.75c0,0.21,0.01,0.54,0.01,0.76l30.02-0.35L588.98,696.63"/>
		<path id="XMLID_1463_" class="st0" d="M618,685.35l-0.17-14.51c-0.11-0.35-0.01-0.87,0.08-1.31c0.21-0.24,0.64-0.43,0.94-0.53
			c0.17,0,0.48-0.12,0.81-0.12c1.35-0.14,2.88-0.03,4.21,0.27c7.55,1.53,7.7,14.45,0.19,16.12L618,685.35 M642.46,701.54
			c-1.21-0.2-2.36-0.45-3.38-1.37l-12.96-14.21c3.92-0.93,7.6-2.68,8.96-6.7c1.79-5.83-2.47-10.86-8.23-11.37l-19.54,0.23
			l-0.41,0.53l0.43,0.5c2.16-0.14,4.43,0.37,5.09,2.72l0.34,25.81c0.01,1.04-0.33,2.18-0.87,3.11c-0.21,0.21-0.62,0.32-0.82,0.42
			l-3.15,0.4c-0.32,0.33-0.32,0.54-0.1,0.98l15.54-0.18c0-0.25,0.1-0.45-0.01-0.66c-0.53-0.68-2.48-0.56-3.32-0.65
			c-0.43-0.2-0.82-0.4-1.01-0.71c-0.55-1.22-0.88-2.58-0.8-3.92l-0.11-9.87c1.05-0.12,1.95-0.14,2.81,0.6l12.72,15.2l8.83-0.1
			L642.46,701.54z"/>
		<path id="XMLID_1460_" class="st0" d="M675.59,701.74c-8.33,0.1-13-7.87-12.94-16.99c0.06-8.56,4.43-17.44,12.87-17.32
			c8.16,0.14,12.48,7.76,12.62,16.72C688.31,693.5,684.01,701.64,675.59,701.74 M675.34,666.2c-10.31,0.12-19.35,8.24-19.13,18.52
			c0.23,10.81,8.18,18.05,19.4,17.96c10.31-0.06,19.3-7.8,19.22-18.22C694.76,674.27,685.87,666.08,675.34,666.2z"/>
		<path id="XMLID_1459_" d="M732.76,682.53l-10.58-4.95c-0.32-0.33-0.68-0.63-1.01-0.84c-2.71-2.65-1.92-7.24,1.21-9.18
			c5.86-2.81,11.14,1.82,12.46,7.39c0.27,0.1,0.69-0.11,1.02-0.23l-0.53-8.71l-0.7,0.01l-0.69,1.52l-0.75,0.12
			c-2.19-1.31-4.54-2.1-7.03-2.07c-1.22-0.1-2.43,0.11-3.69,0.34c-5.31,1.57-8.14,6.68-6.65,12.02c2.53,5.84,9.77,7.59,14.91,10.13
			c3.48,2.95,3.93,7.95,0.44,11c-5.06,3.61-11.29,1.22-13.91-3.96l-1.72-4.27c-0.27-0.1-0.69-0.21-1.01-0.09l0.55,10.03
			c0.2,0,0.42,0,0.47-0.01c0.41-0.49,0.82-1.01,1.24-1.53c0.22,0.08,0.52,0.3,0.73,0.39c6.32,3.62,15.38,3.2,19.63-3.33
			C739.93,691.18,737.6,685.52,732.76,682.53"/>
		<path id="XMLID_1456_" class="st0" d="M815.54,698.3c-3.76,1.37-12.21,2.47-12.28-3.62l-0.32-26.98l0.96-0.56
			c1.33-0.21,2.84-0.32,4.22-0.24c5.94,0.04,10.74,3.66,12.23,9.43C822.18,683.44,822.82,694.09,815.54,698.3 M811.05,665.73
			l-18.8,0.22l0.24,0.8c1.73-0.02,3.24,0.29,4.45,1.65c0.3,0.68,0.52,1.42,0.58,2.05l0.3,25.38c-0.16,0.73-0.54,1.52-0.98,2.16
			c-1.18,1.07-2.99,1.46-4.61,1.47l0.42,1.14l20.65-0.35c1.04-0.13,2.15-0.39,3.21-0.64c9.14-2.7,12.38-12.17,10.54-20.76
			C825.56,671.33,818.6,665.86,811.05,665.73z"/>
		<path id="XMLID_1455_" d="M870.79,693.33l-0.24-1.72l-0.69,0.01c-0.47,3.16-2.5,6.4-5.96,6.64l-6.44,0.29
			c-2.53,0.03-5.12-1.45-5.47-4.23l-0.14-11.89c4.22-0.05,8.76,0.86,9.14,5.64l0.8-0.01l-0.16-13.45c-0.39-0.11-0.8,0.01-1.23,0.13
			c-0.45,5.62-4.44,6.66-8.57,6.41l-0.17-14.57l0.64-0.4l7.27-0.08c3.83-0.04,6.39,2.58,7.26,6.12c0.33,0,0.53-0.07,0.85-0.3
			l-0.07-6.39l-0.42-0.62l-26.34,0.31l0.01,0.71c1.95-0.1,5.22,0.05,5.24,2.27l0.32,27.29c0.03,2.9-5.61,3.75-5.61,3.75
			c0,0.21,0.01,0.54,0.01,0.76l30.03-0.35L870.79,693.33"/>
		<path id="XMLID_1454_" d="M917.52,691.17l-0.31-0.86c-0.22,0.12-0.53,0.35-0.75,0.42c-0.32,4.23-3.81,6.87-7.71,7.11l-6.91,0.08
			c-2.15-0.17-3.71-1.62-4.26-3.79l-0.31-26.55c-0.02-1.82,2.53-1.96,4.31-1.98c0.19-0.12,0.41-0.4,0.52-0.58
			c0-0.13-0.11-0.45-0.22-0.53l-14.7,0.17c-0.31,0.4-0.2,0.63,0.01,0.99c0.89,0.11,1.86,0.21,2.74,0.29
			c1.07,0.53,1.87,1.71,1.83,2.99l0.29,24.93c0.04,3.02-2.1,5.09-5.21,4.45l-0.33,0.49l0.34,0.65l30.22-0.35l0.52-0.23
			L917.52,691.17"/>
	</g>
	<g id="XMLID_1424_">
		<path id="XMLID_1452_" d="M193.85,723.62l-19.48,0.23l-21.72,88.13c-7.92-28.97-15.95-58.28-23.47-87.61l-19.58,0.23l0.23,2.99
			c2.16,0.32,4.64,1.33,6.8,2.37c1.05,1.41,1.89,3.11,2.41,4.36l1.04,88.9c-0.18,2.79-0.86,5.78-1.44,8.59
			c-0.81,1.39-1.81,2.84-2.93,3.53c-1.03,0.37-2.46,0.39-3.48,0.72c-0.91,0.55-1.31,1.97-0.88,3.72l21.72-0.25
			c-0.01-0.71-0.22-1.41-0.22-2.1c-0.11-0.71-0.33-1.4-0.74-1.59c-4.82,0.06-7.73-3.74-8.75-11.97l-0.97-82.93l0.61-0.01
			l25.33,97.36l1.23-0.01c8.02-32.46,16.05-65.13,23.66-97.93l1,85.74c0.04,3.66-1.56,7.2-3.27,8.26c-2.05,0.74-4.63-0.27-6.03,2.35
			c0.01,0.72,0.23,1.76,0.44,2.47l28.39-0.33c0.21-0.71,0.39-1.76,0.19-2.48c-0.42-0.69-1.06-1.22-1.57-1.9
			c-1.43,0.02-2.87-0.33-4.21-0.31c-0.82-0.68-1.45-1.74-2.08-2.4c-0.63-1.41-1.06-2.81-1.27-4.02l-0.98-83.46
			c-0.05-4.03,0.52-8.24,1.5-11.96c2.3-4.22,5.56-6.36,8.94-6.57L193.85,723.62"/>
		<path id="XMLID_1449_" class="st0" d="M241.35,804.82l-20.9,0.24l0.17-1.63l10.49-34.31l10.41,34.07L241.35,804.82 M268.74,835.94
			c-3.54,0.04-6.32-1.8-8.66-5.51l-24.19-76.46l-3.15,0.04c-5.99,26.65-13.9,52.06-23.74,76.77c-2.15,4.02-4.9,5.67-8.71,5.97
			l0.59,2l20.14-0.24l0.36-2.01c-2.39-0.22-5.73-0.57-7.48-3.53c-0.21-1.01-0.22-2.25-0.04-3.13c1.05-7.37,2.78-14.51,5.38-21.28
			l23.86-0.28c2.28,6.7,4.27,14.05,5.79,21.15c0.02,1.38,0.22,2.63-0.52,4.12c-1.6,2.01-4.27,2.68-6.47,2.21l0.03,2.5l26.83-0.31
			L268.74,835.94z"/>
		<path id="XMLID_1446_" class="st0" d="M295.46,796.95l-0.4-34.43c-0.21-0.9-0.02-2.12,0.16-3.13c0.37-0.5,1.14-1,1.71-1.26
			c0.29,0,0.85-0.27,1.43-0.27c2.48-0.27,5.25-0.06,7.64,0.65c13.71,3.72,14.07,34.29,0.45,38.32L295.46,796.95 M339.93,835.35
			c-2.2-0.47-4.31-1.06-6.15-3.28l-23.6-33.67c7.13-2.2,13.77-6.42,16.24-15.92c3.17-13.76-4.6-25.65-15.02-26.89L275.98,756
			l-0.74,1.25l0.77,1.13c3.92-0.3,8.04,0.91,9.24,6.5l0.81,61.15c0.03,2.49-0.6,5.1-1.53,7.37c-0.38,0.5-1.14,0.78-1.51,1.01
			l-5.72,0.95c-0.56,0.74-0.55,1.26-0.16,2.24l28.16-0.33c-0.01-0.49,0.17-0.99-0.02-1.5c-0.98-1.61-4.51-1.31-6.03-1.55
			c-0.77-0.48-1.44-0.98-1.83-1.71c-0.99-2.87-1.6-6.11-1.45-9.23l-0.27-23.46c1.91-0.27,3.53-0.29,5.07,1.44l23.15,36.05
			l16.04-0.19L339.93,835.35z"/>
		<path id="XMLID_1443_" class="st0" d="M373.4,835.48c-18.71-8.28-18.8-40.46-14.17-60.99c3.78-11.77,13.04-20.61,23.08-19.21
			c1.91,0.47,4.11,1.05,6.04,2.05c1.64,1.22,3.37,2.68,4.92,4.28c9.98,12.63,12.16,35.69,7.86,52.08
			C397.98,830.32,385.95,839.18,373.4,835.48 M416.61,848.18c-1.32,1.64-2.54,3.65-3.85,5.43c-2.94,1.91-6.48,1.44-9.74,0.61
			c-7.47-2.91-14.96-6.2-22.44-9.1l-8.98-0.52l5.4-4.05c4.09-0.56,8.18-1.97,12.07-3.78c12.63-5.49,23.27-19.24,25.45-37.11
			c2.54-26.85-16.43-49.09-36.55-47.09c-4.57,0.55-9.42,2.08-13.88,4.52c-10.71,6.25-17.35,19.29-18.97,34.42
			c-2.2,23.87,12.06,44.41,29.95,47.19c-4.91,4.18-10.32,8.11-15.82,11.17c-0.37,0.88-0.54,2.12-0.34,3.13
			c0.48,0.73,1.25,0.97,2.2,0.96c1.32-1.25,2.74-2.53,4.06-3.78c1.52-0.89,3.13-1.92,4.84-2.43c13.33-3.15,20.38,19.48,33.37,20.32
			c7.36,0.41,18.03-8.94,14.76-20.13C417.76,847.93,416.99,848.18,416.61,848.18z"/>
		<path id="XMLID_1442_" d="M489.19,753.25l-20.72,0.24c-0.19,0.27-0.38,0.78-0.37,1.27c0,0.35,0.4,0.86,0.78,1.1
			c1.63,0.49,3.54,0.96,5.36,1.44c0.97,0.48,1.93,1.48,2.51,2.73c0.4,1.61,0.81,3.34,0.83,5.11l0.56,47.89
			c-1.1,4.88-1.99,9.4-4.33,13.53c-9.41,11.6-32.93,9.61-33.18-11.59l-0.61-52.14c0.17-1.5,0.74-2.9,1.48-4.13
			c1.79-2.02,4.54-3.32,7.03-2.84l0.57-1.13l-0.97-0.99l-26.44,0.31l-0.95,0.53l0.41,1.61c3.92-0.3,8.71,1.64,8.78,8.01l0.61,52.39
			c0.85,7.48,4.84,13.8,9.95,17.35l8.62,3.39l10.6,0.38c1.71-0.28,3.72-0.8,5.43-1.31c9.14-2.61,15.32-12.91,15.95-24.76
			l-0.51-43.93c-0.05-4.38,1.04-8.76,3.97-11.28c1.81-0.25,4.11,0.21,5.32-1.92L489.19,753.25"/>
		<path id="XMLID_1441_" d="M550.47,819.8l-0.43-4.12l-1.24,0.01c-0.86,7.49-4.5,15.16-10.79,15.72l-11.64,0.65
			c-4.59,0.05-9.3-3.39-9.96-10l-0.33-28.19c7.63-0.09,15.87,2.04,16.57,13.41l1.43-0.02l-0.37-31.96
			c-0.67-0.22-1.43,0.02-2.19,0.29c-0.8,13.36-8.03,15.82-15.49,15.15l-0.4-34.43l1.13-1.01l13.18-0.15
			c6.97-0.08,11.62,6.24,13.25,14.58c0.57-0.01,0.95-0.28,1.52-0.78l-0.18-15.08l-0.78-1.5l-47.74,0.56l0.02,1.74
			c3.53-0.27,9.46,0.15,9.52,5.4l0.75,64.62c0.08,6.87-10.12,8.84-10.12,8.84c0.01,0.51,0.01,1.26,0.02,1.76l54.42-0.64
			L550.47,819.8"/>
		<path id="XMLID_1440_" d="M593.05,789.85l-19.23-11.76c-0.59-0.72-1.26-1.47-1.83-1.95c-4.94-6.31-3.54-17.18,2.13-21.74
			c10.63-6.62,20.2,4.37,22.65,17.58c0.47,0.23,1.23-0.27,1.8-0.51l-1-20.71l-1.24,0.01l-1.3,3.63l-1.34,0.27
			c-3.94-3.08-8.27-5.02-12.75-4.97c-2.21-0.23-4.39,0.3-6.67,0.82c-9.61,3.73-14.71,15.77-11.99,28.46
			c4.65,13.81,17.79,18,27.11,24c6.29,7.05,7.19,18.89,0.88,26.09c-9.17,8.57-20.5,2.85-25.23-9.45l-3.18-10.21
			c-0.47-0.24-1.24-0.48-1.8-0.22l1.04,23.84c0.38,0,0.77-0.01,0.86-0.01c0.75-1.15,1.5-2.4,2.24-3.64
			c0.39,0.23,0.97,0.73,1.36,0.98c11.47,8.6,27.88,7.66,35.53-7.79C606.1,810.4,601.84,796.99,593.05,789.85"/>
		<path id="XMLID_1437_" class="st0" d="M655.06,805.01c-3.22,1.51-10.41,2.71-10.49-4.11l-0.35-30.12l0.8-0.59
			c1.12-0.25,2.43-0.4,3.59-0.28c5.09,0.06,9.19,4.12,10.48,10.57C660.67,788.42,661.26,800.36,655.06,805.01 M651.12,768.65
			l-16.06,0.19l0.19,0.86c1.49-0.02,2.79,0.34,3.8,1.85c0.28,0.76,0.47,1.58,0.52,2.28l0.33,28.35c-0.12,0.83-0.47,1.71-0.82,2.42
			c-1.02,1.19-2.55,1.62-3.94,1.64l0.37,1.23l17.64-0.32c0.9-0.13,1.85-0.39,2.74-0.69c7.8-2.98,10.56-13.53,8.96-23.17
			C663.54,774.92,657.57,768.82,651.12,768.65z"/>
		<path id="XMLID_1436_" d="M694.69,799.73l-0.2-1.94l-0.58,0.01c-0.42,3.53-2.13,7.13-5.09,7.42l-5.5,0.3
			c-2.16,0.02-4.38-1.59-4.69-4.71l-0.16-13.29c3.6-0.04,7.49,0.96,7.82,6.32l0.68-0.01l-0.18-15.07c-0.31-0.12-0.68,0.01-1.04,0.14
			c-0.38,6.29-3.78,7.45-7.3,7.14l-0.19-16.23l0.54-0.49l6.22-0.07c3.28-0.04,5.47,2.94,6.24,6.88c0.27,0,0.46-0.12,0.73-0.37
			l-0.08-7.12l-0.37-0.69l-22.51,0.26l0.01,0.81c1.66-0.13,4.46,0.07,4.49,2.55l0.36,30.47c0.04,3.24-4.77,4.17-4.77,4.17
			c0,0.23,0.01,0.59,0.01,0.83l25.65-0.3L694.69,799.73"/>
		<path id="XMLID_1433_" class="st0" d="M740.3,774.31l-0.57-49.2c-0.27-1.28-0.04-3.02,0.23-4.47c0.54-0.72,1.62-1.43,2.45-1.8
			c0.41-0.01,1.23-0.38,2.04-0.39c3.53-0.39,7.48-0.09,10.92,0.94c19.57,5.32,20.08,48.99,0.64,54.75L740.3,774.31 M803.84,829.18
			c-3.15-0.67-6.16-1.51-8.79-4.69l-33.71-48.11c10.21-3.14,19.69-9.17,23.21-22.75c4.54-19.66-6.57-36.65-21.47-38.42l-50.6,0.59
			l-1.06,1.78l1.1,1.61c5.59-0.43,11.48,1.29,13.2,9.28l1.16,87.37c0.04,3.55-0.87,7.29-2.19,10.53c-0.54,0.72-1.64,1.11-2.17,1.44
			l-8.17,1.36c-0.8,1.06-0.79,1.79-0.23,3.2l40.24-0.47c-0.01-0.71,0.24-1.41-0.02-2.14c-1.4-2.3-6.44-1.88-8.62-2.22
			c-1.1-0.69-2.06-1.4-2.62-2.44c-1.42-4.1-2.3-8.73-2.07-13.18l-0.39-33.52c2.73-0.38,5.06-0.41,7.26,2.06l33.07,51.51l22.92-0.27
			L803.84,829.18z"/>
		<path id="XMLID_1432_" d="M832.62,819.37l-0.7-60.15c-0.08-6.86,4.31-7.4,8.4-8.2l-0.02-1.88l-27.21,0.32l-0.55,1.51
			c3.92,0.08,9.95,1.76,9.46,8.37l0.73,62.65c-0.32,5.61-5.85,6.54-9.95,7.6l0.51,2l29.48-0.61c-0.01-0.49,0.19-1.24,0.19-1.75
			C837.68,827.3,832.71,826.6,832.62,819.37"/>
		<path id="XMLID_1431_" d="M886.18,786.43l-19.24-11.76c-0.58-0.72-1.25-1.47-1.84-1.95c-4.94-6.31-3.54-17.18,2.14-21.74
			c10.62-6.62,20.19,4.37,22.64,17.58c0.47,0.23,1.24-0.27,1.81-0.51l-1.01-20.71l-1.25,0.01l-1.29,3.63l-1.33,0.27
			c-3.95-3.08-8.27-5.02-12.76-4.97c-2.2-0.23-4.38,0.3-6.67,0.82c-9.6,3.73-14.72,15.77-11.98,28.46
			c4.63,13.81,17.77,18,27.1,24.01c6.29,7.05,7.2,18.89,0.87,26.09c-9.15,8.57-20.49,2.85-25.22-9.45L854.99,806
			c-0.47-0.24-1.25-0.48-1.83-0.22l1.04,23.84c0.39,0,0.77-0.01,0.86-0.01c0.74-1.15,1.5-2.4,2.25-3.64
			c0.39,0.23,0.96,0.73,1.35,0.98c11.46,8.6,27.87,7.66,35.52-7.79C899.21,806.98,894.94,793.57,886.18,786.43"/>
		<path id="XMLID_1430_" d="M965.29,801.48c-0.39-0.24-0.68-0.62-1.07-0.62c-1.26,6.26-3.1,12.65-5.8,18.02
			c-4.21,6.93-10.1,10.37-16.87,10.2c-11.55-0.62-18.38-12.13-21.12-25.82c-2.89-18.94-1.52-48.92,16.06-54.46
			c12.47-4.16,23.1,5.96,26.05,21.77l1.53-0.28l-0.25-21.58c-0.58-0.48-1.35-1.23-2.11-1.22c-0.38,1.25-0.73,2.62-1.4,3.63
			c-0.57,0.26-1.13,0.51-1.71,0.28c-6.54-4.8-13.92-6.95-21.36-5.87c-4.95,0.8-9.8,2.86-14.24,6.28
			c-17.03,14.05-19.63,44.64-8.42,65.24c10.92,18.34,32.5,18.31,46.2,6.44c0.67-0.01,1.43,0.23,2.21,0.72
			c0.78,0.98,1.36,2.48,1.76,3.6l0.85-0.88L965.29,801.48"/>
		<path id="XMLID_1427_" class="st0" d="M1006.66,795.88l-20.9,0.24l0.18-1.63l10.48-34.31l10.42,34.07L1006.66,795.88 M1034.04,827
			c-3.52,0.04-6.31-1.8-8.65-5.51l-24.19-76.46l-3.15,0.04c-5.99,26.65-13.9,52.06-23.74,76.77c-2.14,4.02-4.9,5.67-8.72,5.97l0.6,2
			l20.15-0.24l0.36-2.01c-2.4-0.22-5.74-0.57-7.5-3.53c-0.21-1.01-0.22-2.25-0.04-3.13c1.06-7.37,2.79-14.51,5.39-21.28l23.87-0.28
			c2.28,6.7,4.26,14.05,5.79,21.15c0.02,1.38,0.21,2.63-0.53,4.12c-1.6,2.01-4.27,2.68-6.47,2.21l0.03,2.5l26.82-0.31L1034.04,827z"
			/>
		<path id="XMLID_1426_" d="M1090.18,809.61l-0.6-1.99c-0.37,0.26-0.94,0.75-1.31,1.03c-0.56,9.98-6.88,16.18-13.94,16.75
			l-12.51,0.15c-3.92-0.44-6.73-3.92-7.74-9.03l-0.73-62.87c-0.05-4.37,4.52-4.68,7.77-4.72c0.37-0.25,0.75-0.89,0.93-1.38
			c0-0.23-0.2-1-0.39-1.24l-26.63,0.31c-0.57,1.02-0.36,1.51,0.03,2.37c1.62,0.22,3.34,0.46,4.96,0.7c1.93,1.22,3.39,4.08,3.34,7.05
			l0.69,59.03c0.08,7.23-3.78,12.14-9.44,10.57l-0.56,1.15l0.59,1.49l54.81-0.64l0.95-0.52L1090.18,809.61"/>
		<path id="XMLID_1425_" class="st0" d="M518.68,743.59l3.66-0.04l15.07-12.5c2.69-2.36,4.15-3.47,4.12-6.21
			c-0.03-2.74-1.94-4.64-3.41-4.63c-1.88,0.02-3.03,1.55-4.47,3.48L518.68,743.59"/>
	</g>
	<g id="XMLID_1147_">
		<path id="XMLID_1408_" class="st0" d="M596.1,420.26c6.21,2.96,11.96,5.74,20.19,6.92c6.87,0.99,17.03-4.59,21.24,1
			c1.59,2.11,1.74,6.85,1.22,10.31c-1.11,7.19-1.77,14.4-1.67,22.75c0.1,8.61,0.98,16.55,2.35,24.21l1.46,14.35
			c0.09,7.64,0.15,13.03-3.82,17.87c-2.45,2.96-6.69,5.26-10.41,6.91c-9.58,4.3-21.09,8.12-29.04,14.26l-23.65-8.56
			c-7.89-2.95-14.88-4.01-19-10.78c-3.19-5.27-5.61-19.87-4.2-29.17l1.66-22.88l0.18-8.26c0.83-5.55,0.79-11.23-0.55-18.99
			c-0.39-2.33-1.98-5.38-2.55-7.35c-1.23-4.34,4.25-6.92,8.08-7.74c1.95-0.43,4.04,0.32,5.5,0.63c4.29,0.87,9.85,2.11,15.19,1.2
			C583.59,426.01,592.68,422.97,596.1,420.26 M596.07,423.24l-7.49,2.91c-5.91,2.4-12.88,4.67-21.33,3.29
			c-2.49-0.42-11.04-3.65-15.02,0.24c-2.43,2.77,0.65,6.37,1.17,9.17c0.74,3.97,0.63,6.3,0.98,10.01c0.42,4.58-0.54,8.15-0.59,12.03
			l19.6,16.8c4.15,3.14,6.81,5.85,10.86,9.13c5.43-1.21,12.06-4.44,17.49-5.98l5.98-17.7c-8.3,2.6-16.5,4.33-25.8,6.23
			c-3.94,0.79-8.21,0.28-9.12-2.38c-1.75-5.15,2.83-10.36,4.52-13.56c1.23-2.33,5.49-9.91,7.31-11.11l4.53-1.55l7.4-2.99l10.31-2.34
			c3.5-1.11,7.45-1.88,11.75-2.35c3.11-0.35,6.9-0.77,7.43,2.67c0.25,1.45-6.71,18.27-6.71,18.27l-2.57,3.61l0.77,6.6
			c0.78,3.82-2.13,8.94-0.83,11.72l15.76,16.64l-11.43,1.5l2.74,9.62l-15.37-6.85c-2.59-1.12-5.43-3.5-9.42-2.55
			c0,0-1.3,4.2-1.82,5.81c-0.97,1.33-4.06,8.61-4.75,10.32c0.05,0.02-1.04,1.84-0.92,1.84c-0.3,0.49-0.54,0.92-0.71,1.29l-4.13,0.68
			l8.13-18.36c0,0-7.72,1-9.34,3.33c-0.74,1.04-5.95,7.47-13.31,5.54c-5.94-0.13-6.19-10.16-6.19-10.16s-7.28-6.4-8.65-7.09
			c-6.01-2.98-4.61,8.09-4.61,8.09s-0.37,10.57,2.14,17.91c2,5.89,7.13,9.4,11.47,11.46c13.07,6.18,31.61,10.16,31.61,10.16
			l19.18-9.59c1.91-0.33,6.73-2.5,8.67-3.58c5.72-3.21,9.18-5.26,11.23-8.92c1.97-3.53,2.01-14.41,1.11-19.74l-3.27-32.61
			c-0.62-3.81,0.25-13.73,0.77-17.06c0,0,1.48-4.63,1.43-8.81c-0.04-3.44-0.7-6.56-4.31-7.06c-4.12-0.57-10.51,1.43-15.07,1.2
			c-7.15-0.35-11.34-2.05-14.94-3.59C601.2,424.72,597.92,423.53,596.07,423.24z M622.54,434.04c-1.95-0.25-12.64,2.09-12.64,2.09
			l-13.54,3.61l-10.55,3.85c-0.97,0.52-6.57,10.18-7.61,11.78c-1.01,1.59-5.3,9.15-3.71,11.57c1.51,0.92,6.03-0.25,7.84-0.37
			c4.83-0.34,16.61-1.71,18.49-4.47c0-1.4-1.34-2.5-2.22-3.03l-0.97-0.26c-1.13,0.93-2.95,2.2-4.64,2.39
			c-1.11-0.65-4.68-5.26-3.94-6.57c0.71-1.64,2.43-2.39,3.54-3.62c-0.02-2.04-0.96-2.35-1.15-4.11c0.85-1.81,4.32-4.24,6.56-4.5
			l0.7,0.27c0.35,1.07,0.95,2.16,1.82,2.72c2.06-0.39,2.66-1.83,4.93-1.96c1.3,0.79,4.35,4.33,3.79,6.27
			c-0.63,1.55-2.35,2.07-3.4,3.22c-0.1,2.29,1.23,2.8,1.3,5.5l-3.48,3.03c1.19,0.11,8.21-1.8,9.33-2.36
			c2.43-1.25,7.31-12.54,8.67-15.81c0.74-1.76,2.16-3.04,2.98-6.79C624.81,435.63,623.69,434.17,622.54,434.04z M597.3,444.23
			l-3.56,2.51c0.53,1.73,1.74,3.4,0.88,5.54c-0.77,1.23-3.52,0.98-3.86,2.64l3.41,4.52c1.72-0.92,2.01-2.76,4.65-2.95
			c0.88,1.16,2.7,2.99,3.8,3.97l2.99-2.22c-0.38-1.41-2.77-4.25-1.7-5.93c0.73-1.72,2.54-1.34,3.55-2.8l-1.73-4.4
			c-2.09,0.22-2.92,3.32-5.41,2.67C598.53,447.32,598.94,444.79,597.3,444.23z M555.41,464.81c-0.48,0.98-0.68,2.56-0.37,4.01
			c1.13-0.25,1.53-1,2.05-1.81C557.02,465.81,556.43,465.06,555.41,464.81z M615.59,461.13c-1.26-0.11-1.58,3.78-2.46,5.04
			c-0.75,1.07-0.57,2.58-1.84,2.73c-1.46,0.18-1.79-1.59-2.27-2.98c-0.05,3.15-3.13,11.5-4.25,14.3c0.72,1.08,1.19,1.99,2.25,2.75
			l0.55-0.15c0.89-1.87,2.94-3.07,4.5-4.33C615.13,475.94,617.3,465.28,615.59,461.13z M559.58,467.94
			c-1.72,1.81-6.12,4.32-5.14,8.05c1.09-0.05,1.51,0.09,2.06,0.53l0.01,0.96c-0.88,0.75-2.5,2.3-2.86,3.47
			c0.93,0.21,1.38,0.67,1.93,0.12c2.03-0.9,9.29-6.51,7.75-9.46c-1.78,0.41-2.12,2.02-4.12,2.26l-0.28-1.09
			c1.31-1.41,2.77-2.97,1.3-4.84L559.58,467.94z M565.88,474.45l-7.62,6.79c-0.25,4.33,4.52,7.53,7.18,9.51
			c0.77,0.56,1.99,2.65,3.18,1.86c1.63-0.81,5.65-5.75,5.84-7.91c-2.47-2.69-4.41-7.45-7.43-9.51L565.88,474.45z M571.82,478.55
			l-0.12,0.68c1.26,1.6,2.17,2.76,3.63,4.11l1.11,0.11C576.47,481.63,573.19,479.3,571.82,478.55z M614.67,479.01
			c-0.07,1.33,2.16,2.53,3.08,3.42c3.33,3.21,6.69,6.74,10.71,9.24l0.69-0.31l-1.54-1.49C623.07,487.74,619.58,480.49,614.67,479.01
			z M611.43,480.12c-1.24,2.18-8.62,10.51-7.52,13.37c1.55,0.15,4.78,1.64,6,2.25l11.21,5.38l-0.01-0.55
			c-0.81-1.93-3.41-5.92-2.98-8.09c0.76-1.7,4.79-0.24,6.62-0.35l-0.97-0.97c-1.44-2.87-7.91-7.76-10.59-9.69L611.43,480.12z
			 M601.35,482.48c-3.39,2.04-15.86,3.99-17.24,5.92l1.63,1.55c2.64-0.95,7.84-3.02,10.43-2.04l0.43,0.93
			c-2.86,2.94-8.31,2.98-11.5,4.99c-0.3,1.09-0.39,1.73,0.16,2.74c2.57-0.27,16.49-6.1,18.1-7.51
			C606.01,486.7,605.49,482.88,601.35,482.48z M575.91,485.92c-1.81,2.28-7.77,11.97-6.99,15.12l2.51,1.61l0.68-0.15
			c1.56-2.56,2.11-7.29,2.91-10.21l0.69-0.01c-0.13,3.13-2.43,7.8-0.71,10.46c1.62-0.15,3.18-1,3.69-2.23
			c1.13-2.61-0.17-13.1-1.27-14.61L575.91,485.92z M581.16,487.52c-0.75,1.96-1.3,9.9,0.29,11.73c1.91-1.51,1.91-9.62,0.41-11.74
			L581.16,487.52z M596.69,496.44c-2.29,3.93-5.96,10.9-7.18,15.48C590.73,511.03,597.1,498.09,596.69,496.44z"/>
		<path id="XMLID_1407_" class="st0" d="M561.67,600.98c5.55,1.96,11.56,3.59,17.79,4.9c15.01,3.14,34.42,1.29,47.7-2.24
			c3.86-1.05,7.61-2.2,11.28-3.55l8.61-0.1c-0.3,0.15-0.61,0.29-0.9,0.4c-7.13,3.07-14.08,4.75-22.34,6.9
			c-6.5,1.69-19.36,4.09-27.32,2.85l-7.84-0.26c-7.59-1.43-15.13-1.93-22.09-3.98c-4.71-1.37-9.13-3-13.34-4.81L561.67,600.98"/>
		<path id="XMLID_1404_" class="st0" d="M674.28,583.33c-8.35,6.71-17.7,12.5-27.23,16.68l-8.61,0.08
			c11.44-4.15,21.73-9.8,30.79-16.7L674.28,583.33 M531.62,585c0.48,0.36,0.94,0.67,1.34,0.94c7.21,4.99,14.53,9.39,23.28,12.99
			c1.75,0.72,3.56,1.41,5.43,2.06l-8.43,0.1c-10.14-4.35-19.02-9.87-27.41-16.06L531.62,585z"/>
		<path id="XMLID_1396_" class="st0" d="M695.65,566.76c0.68,4.08,3.21,6.89,5.17,9.51c2.71,0.23,8.64-2.8,10.32-4.22
			c-0.98-2.47-3.51-3.36-4.88-5.42l1.95-0.02c1.64,2.26,3.88,4.42,4.13,4.42c1.57-0.02,3.61-1.96,5.08-4.54l2.14,0
			c-1.57,3.05-3.81,5.92-6.36,7.25l-6.01,2.1c-2.06,1.07-5.25,3.81-7.93,2.01l-3.56-6.71c-0.6-1.55-0.78-2.98-1.1-4.37
			L695.65,566.76 M691.22,566.81c-4.84,5.81-10.61,11.44-16.94,16.52l-5.05,0.06c6.44-4.9,12.25-10.43,17.38-16.5L691.22,566.81z
			 M609.95,567.76c0.09,0.4,0.27,0.74,0.71,0.97l0.89-0.99l1.91-0.02c-0.78,1.3-1.51,2.62-2.22,3.93c-1.53,0.28-2.42-0.11-3.86-1.17
			c0.48-0.71,0.88-1.72,1.05-2.74L609.95,567.76z M588.27,568.01c0.25,0.22,0.5,0.49,0.75,0.72c0.02-0.12,0-0.4-0.03-0.73l1.96-0.02
			c0.44,0.62,0.96,1.08,1.11,2.1c-1.3,0.48-2.24,1.07-3.85,0.74c-0.51-0.94-1.1-1.89-1.7-2.83L588.27,568.01z M547.84,568.49
			c0.69,0.35,1.4,0.67,2.15,1c2.59,1.1,5.32,3.25,8.59,3.39l-1.09-1.05l-2.33-3.13c-0.05-0.1-0.09-0.19-0.12-0.28l1.83-0.02
			c2.03,3.32,7.79,4.59,11.34,1.85c0.61-0.48,1.21-1.17,1.75-1.98l1.56-0.04c-2.25,3.02-4.81,4.61-10.03,5.95l6.41,2.22
			c5.08,1.73,11.25,3.2,17.52,3.17c-0.65-1.7-4.57-4.33-5.85-5.95c-1.22-1.53-2.14-3.64-3.43-5.48l1.31,0.03
			c1.5,2.1,3.12,4.09,4.04,5.06c1.12,1.18,2.97,3.73,5.1,3.32c0.35-1.5,1.08-2.93,1.86-4.01c3.23,0.12,7.47-1.54,8.3-4.58l2.21-0.05
			c-0.45,3.12-3.59,4.93-6.38,5.66c-0.99,0.26-1.97,0.11-2.64,0.63c-0.84,0.67-0.9,2.25-1.17,3.51c-0.19,0.96-0.46,1.71-0.09,2.41
			c5.33,0.14,11.65,1.14,17.48,0.17c1.74-0.32,4.34,0.24,5.4-0.57c-0.45-1.56-0.7-3.92-1.98-4.66l-4.58-0.93
			c-2.1-0.65-4.69-3.15-4.8-6.25l2.24-0.03c0.13,1.96,1.39,3.92,3.37,4.6c1.52,0.49,4.5,0.54,5.32,1.01
			c1.34,0.69,1.35,2.84,2.46,3.83c2.45-0.85,6.21-5.46,8.72-9.68l1.39-0.02c-1.07,1.91-2.05,3.94-3.3,5.75l-5.12,5.84
			c5.16-0.19,10.68-2.07,15.03-3.45c2.61-0.79,5.44-1.11,7.56-2.48c-1.27-0.63-2.99-0.49-4.48-1.02c-2.58-0.99-4.44-2.66-6.21-4.75
			l1.83,0.04c0.69,0.92,1.45,1.69,2.21,2.19c3.64,2.52,9.15,0.92,11.09-2.35l1.39-0.02c-0.91,2.04-2.4,3.93-3.53,5.15
			c3.93-1.54,7.58-3.32,11.06-5.28l4.7-0.01c-3.26,1.96-6.66,3.78-10.33,5.35c-9.15,3.91-19.08,6.68-29.79,8.9
			c-8.58,1.78-21.96,1.72-30.36,0.25c-4.41-0.79-8.27-0.92-12.32-1.93c-11-2.71-21.07-6.48-30.12-11.3L547.84,568.49z M513.3,568.89
			l2.61,2.78c1.12,1.36,8.12,8.2,9.37,7.73l1.17-2.66l0.51-8.01l4.54-0.05c-0.33,3.14-1,6.87-0.2,10.07
			c1.84-0.2,8.08-4.61,8.24-6.15l-0.53-2.76c1.94,0.19,5.08,2.15,5.59,4.03c-6.28,0.58-9.95,5.83-13.87,8.96
			c-1.55-0.23-3.12-2.3-4.76-2.52c1.21,1.53,3.66,3.33,5.63,4.71l-5.79,0.05c-1.47-1.11-2.92-2.2-4.37-3.32
			c-4.67-3.61-8.7-8.3-12.68-12.84L513.3,568.89z M479.56,569.28c0.43,0.88,0.92,1.72,1.46,2.51c0.94,1.37,2.59,5.35,5.47,4.64
			c1.32-0.31,3.98-4.18,4.94-7.26l1.27-0.04c-0.92,2.41-3.59,6.37-3.64,7.86c-0.1,2.79,6.74,2.55,8.29,1.89
			c1.48-0.81,4.71-6.34,5.28-9.91l1.53,0.02c-1.43,5.03-4.03,11.26-7.03,12.05c-2.96,0.82-5.47-0.63-7.73-1.1
			c-1.85-0.38-3.48-0.07-4.82-0.91c-2.34-1.45-4.71-5.95-6.31-9.78L479.56,569.28z"/>
		<path id="XMLID_1379_" class="st0" d="M600.2,567.87c-0.02-0.61,0.05-1.24,0.24-1.87c0.86-2.96,4.45-4.49,7.92-2.87
			c2.29,1.08,1.32,3.21,1.58,4.61l-1.53,0.04c0.32-2.08-0.32-4.17-3.18-4.13c-2.07,0.73-2.88,2.47-2.79,4.22L600.2,567.87
			 M588.99,568.01c-0.18-1.58-0.67-4.77,1.53-5.74c4.29-1.93,8.12-0.05,8.48,4.24c0.05,0.47,0.03,0.92-0.03,1.35l-2.21,0.07
			c0.17-0.71,0.18-1.5-0.04-2.36c-0.24-0.91-0.39-1.74-1.01-2.27c-2.3-2.06-5.99,0.55-5.25,3.67c0.11,0.43,0.29,0.75,0.49,1.06
			L588.99,568.01z M526.97,568.73l0.11-1.65c0.31-2.22-1.32-5.18-0.44-6.74c2.09-0.21,6.94,3.29,6.94,5.72l-1.91,0.97
			c-0.04,0.53-0.09,1.05-0.15,1.61L526.97,568.73z M699.29,555.8l-4.18,6.31c1.92,0.18,3.92-0.37,6.37-0.95
			c2.05-0.49,5.17-1.58,5.17-1.58c-0.57-1.38-2.42-2.93-4.29-3.84l5.41-0.04c8.02,2.39,19.12,3.79,27.4,1l2.94-1.35l3.19-0.04
			c-2.79,3.11-7.2,4.48-12.1,5.58c-2.4,0.53-6.11,0.16-7.94,1.29c-0.38,1.37-0.96,2.86-1.69,4.3l-2.14,0.03
			c0.99-1.76,1.73-3.76,1.88-5.66c-3.45-0.18-7.68-1.41-10.7-2.48c-0.28,2.26-1.24,4.06-1.91,5.67c0.32,0.81,0.87,1.69,1.51,2.6
			l-1.95,0c-0.1-0.14-0.18-0.29-0.25-0.41c-0.76-1.41-0.9-3.5-1.99-4.57l-1.08,0.01c-2.14,1.22-5.84,1.17-7.44,2.95
			c-0.01,0.77,0.06,1.47,0.16,2.16l-1.05-0.01c-0.21-1-0.5-1.97-1.04-2.94c-0.76,0.97-1.55,1.95-2.35,2.94l-4.61,0.09
			c2.94-3.5,5.66-7.19,8.15-11.03L699.29,555.8z M671.18,556.13c-4.83,3.87-9.81,7.69-15.26,11.05l-4.7,0.1
			c3.92-2.27,7.61-4.7,11.21-7.18c1.74-1.2,3.89-2.46,5.71-3.91L671.18,556.13z M659.14,556.27c-0.53,0.47-1.21,0.94-2.17,1.34
			c-1.02-0.09-1.57-0.68-2.06-1.32L659.14,556.27z M632.86,556.58c-0.31,1.85-0.11,3.81,1.15,4.93c0.1-1.72,0.42-3.41,0.95-4.96
			l1.1-0.01c-0.2,0.71-0.25,1.48-0.02,2.3c1.64,0.37,3.8-0.36,5.55,0.65c3.48,2.04,3.35,5.09,2.11,7.9l-1.39,0
			c0.18-0.31,0.33-0.6,0.44-0.93c1.55-4.36-3.23-8.32-6.08-4.88c0.26,0.96,1.23,1.61,0.76,3c-4.48,1.28-6.44-3.59-6.03-7.99
			L632.86,556.58z M626.08,556.65c-0.49,3.92,0.98,8.11,2.94,10.84l-1.83,0.06c-0.64-0.79-1.28-1.61-1.94-2.45
			c-0.56,0.77-1.06,1.63-1.55,2.49l-1.39,0.02c1.29-2.19,2.26-4.25,2.54-5.63l-0.16-3.5l-0.1-1.81L626.08,556.65z M620.62,556.72
			c-2.52,3.41-4.98,7.17-7.18,10.96l-1.91,0.06l2.02-2.35c1.49-2.41,2.9-5.67,4.89-8.62L620.62,556.72z M600.51,556.95
			c-1.38,0.87-2.62,1.55-3.4,1.61c-0.87-0.51-1.76-1.03-2.69-1.52L600.51,556.95z M580.07,557.19c0.93,1.12,1.79,2.22,2.49,3.14
			c1.76,2.37,3.61,5.31,5.71,7.64l-1.77,0.06c-2.4-3.69-5.35-7.21-7.96-10.45c-0.09-0.11-0.17-0.21-0.27-0.35L580.07,557.19z
			 M573.66,557.27c0.17,0.81,0.34,1.5,0.44,2.04l-0.09,2.67c0.35,1.43,1.82,3.86,3.44,6.15l-1.31,0.04
			c-0.78-1.13-1.65-2.14-2.82-2.82c-0.6,1.09-1.19,2.03-1.79,2.83l-1.56,0.06c1.83-2.75,3.07-7.1,2.54-10.95L573.66,557.27z
			 M563.76,557.38c0.41,0.95,0.73,1.98,0.95,3.01l0.63,2.52c0.59-2.19,0.72-4,0.48-5.55l1.53-0.02c0.55,2.72,0.51,5.91-1.15,7.13
			c-0.95,0.72-2.23,0.94-3.47,1.37c-0.72-0.25-1.1-0.37-1.46-0.96l0.94-1.94l-0.25-0.97c-3.97-1.34-7.27,1.1-5.48,5.63
			c0.1,0.26,0.24,0.51,0.39,0.8h-1.83c-1.08-2.9,0.34-6.42,2.18-7.69c1.33-0.88,4.06-0.34,5.55-1.16c-0.04-0.78-0.22-1.49-0.47-2.17
			L563.76,557.38z M542.98,557.63c-0.27,0.6-0.56,1.24-0.93,1.93c-2.12,0.18-3.42-0.64-4.4-1.85L542.98,557.63z M531.02,557.76
			c5.31,3.89,10.53,7.76,16.82,10.74l-4.84,0.04c-4.44-2.39-8.6-5.02-12.52-7.88l-3.15-2.86L531.02,557.76z M468.8,558.49
			c2.78,0.39,6.45,0.51,11.13-0.15l10.2-0.1c-0.34,0.22-0.68,0.44-1.02,0.74c0.54,2.18,2.66,5.65,3.9,6.99
			c2.45,0.01,7.91-0.36,10.14,0.86c0.26-1.86,0.28-5.51-0.54-7.08c-0.26-0.52-0.69-1.06-1.16-1.61l2.52-0.06
			c1.99,2.36,4.01,4.76,5.84,7.04l3.5,3.76l-4.53,0.05c-1.21-1.44-2.42-2.81-3.65-4.13c-0.2,1.14-0.53,2.59-0.98,4.14l-1.53,0.06
			c0.08-0.52,0.11-0.96,0.08-1.35l-9.24-0.72l-0.63,1.67c-0.04,0.17-0.1,0.29-0.14,0.45l-1.27,0.08c0.34-1.1,0.46-2.14,0.21-2.86
			l-0.98-1.3l-2.84-6.11l-1.68,0.02l-8.3,1.42c-0.17,3.52,0.51,6.44,1.73,8.98l-1.31,0.02c-0.54-1.34-0.99-2.57-1.33-3.55l-1.5-5.03
			c-1.42-0.34-3.4-0.14-5.18-0.43c-2.55-0.42-4.99-0.93-7.15-1.73L468.8,558.49z"/>
		<path id="XMLID_1370_" class="st0" d="M480.89,543.41c0,0,0.54,1.85-0.45,4.49c-0.85,2.28-7.74,3.91-7.7,5.78
			c2.59-0.32,8.57-1.3,11.75-1.99c3.57-0.75,5.39-2.23,8.42-2.1c-0.36-0.87-5.15-6.05-5.89-6.49
			C487.03,543.1,481.25,542.98,480.89,543.41 M631.4,556.59c0.07-0.64,0.2-1.3,0.36-1.93c1.86-6.67,8.72-8.06,16.17-9.35
			c2.79-0.49,8.46-0.08,9.18,1.95c-1.91,0.2-3.65-0.4-5.55-0.67c-6.29-0.92-13.13,1.64-16.22,4.29l-1.3,2.3
			c-0.49,0.84-0.97,2.09-1.17,3.42L631.4,556.59z M565.82,557.36c-0.9-5.79-7.04-7.6-14.03-8.74c-3.94-0.67-7.12,1.13-9.88,0.12
			l2.63-1.11c7.36-1.93,19.08,1.83,21.53,6c0.5,0.83,0.97,2.2,1.27,3.69L565.82,557.36z M684.89,539.63
			c0.32,0.11,0.6,0.19,0.91,0.26l7.24,0.86l6.65,1.25c0.68-0.9,1.27-1.83,1.99-2.61l11.89-0.1c1.84,0.6,4.17,1.34,5.42,1.31
			c0.61-0.5,1.13-0.95,1.66-1.38l10.44-0.13c-0.06,0.3-0.13,0.52-0.21,0.8c-2.72,1.02-5.26-0.86-7.41-0.4
			c-2.03,0.42-4.61,3.58-4.96,6.14c3.35,0.57,8.74,2.03,11.91,0.96l4.26-1.61c1.57-0.45,3.39,0.3,4.08-0.97
			c0.62-1.16,0.65-2.98,0.36-5.03l1.86,0l0.28,3.56l1.47,1.9c1.27,2.16,1.27,6.48,0.1,8.7c-0.44,0.82-0.96,1.55-1.55,2.2l-3.19,0.02
			l0.54-0.23c1.84-1.38,4.84-7.29,1.32-9.67l-1.78,1.82c-1.63,0.87-3.29-0.14-5.31,0.3l-2.51,0.88l-6.63-0.16
			c-0.95,0.19-6.04,0.48-6.66-2.19c-0.31-1.44,1.02-3.68,1.02-3.68c-0.45-0.36-10.22-2.66-11.41-2.67c0,0-1.46-0.04-2.27,0.35
			c-2.32,1.1-0.96,6.51-0.96,6.51c2.67-0.09,7.92,4.72,4.64,3.31c-1.08-0.45-2.75-1.92-4.24-1.39c-1.36,0.57-2.41,3.42-1.99,4.95
			c1.64,0.78,3.64,1.54,5.9,2.21l-5.41,0.08c-0.87-0.44-1.73-0.74-2.48-0.83l-0.59,0.87l-4.53,0.05c2.15-3.37,4.13-6.83,5.94-10.44
			c-0.44-1.95-2.79-1.29-2.79-1.29c-2.2,1.01-5.49,5.78-5.47,4.52c0.01-1.92,2.62-2.85,2.71-5.03c-0.38-1.17-1.51-0.79-2.57-0.87
			c-2.97-0.28-6.06,7.47-6.2,4.48c-0.12-2.3,3.17-3.61,3.67-4.7c0,0-1.29-0.6-2.91-0.58c-1.78,0.81-2.59,2.68-4.04,3.8
			c-3.22,2.52-5.93,5.51-9.06,8.05c-0.95,0.79-1.9,1.55-2.87,2.31l-3.03,0.06c1.26-0.94,2.37-2.04,3.11-3.28l-0.95-0.36
			c-3.55,1.13-5.27-0.24-7.62-1.36c-1.92,1.5-1.85,3.47-3.54,5.08l-4.22,0.07c-0.45-0.61-0.83-1.25-1.47-1.67
			c-2.93-1.86-6.81-3.58-11.38-3.61c-2.22,0.95-5.26,2.86-6.01,5.48l-1.1,0.03c1.18-3.4,3.39-6.09,6.64-6.82
			c3.48-0.78,7.25,1.35,9.65,2.29c1.57,0.63,4.96,3.89,6.55,3.31c3.19-1.54,2.11-6.4,3.64-7.52c1.82-0.43,2.82,2.33,4.14,2.96
			c2.35,1.15,8.38,0.45,10.13-0.54c2.98-2.27,4.48-3.34,6.39-7.05c1.28-1.43,1.06-2.6-0.34-3.49L684.89,539.63z M561.36,541.08
			c0.18,0.05,0.4,0.11,0.59,0.17c9.76,2.96,18.88,6.83,27.47,11.02c1.75,0.86,7.52,4.24,8.48,3.03l6.33-3.56l12.47-5.7
			c4.65-2.02,9.4-3.82,13.96-5.76l8.7-0.11c-5.28,2.93-10.43,8.42-12.56,13.59c-0.39,0.93-0.62,1.89-0.74,2.88l-1.49,0.04
			l-0.19-3.61l-3.22,2.93c-0.18,0.23-0.36,0.5-0.56,0.72l-2.17,0.03c1.08-1.56,2.31-3.04,3.8-4.27c2.37-1.92,9.1-6.45,9.85-9.51
			l-0.96-0.12l-6.97,2.5c-5.84,2.12-12.01,3.9-17.02,6.93c-1.35,0.83-4.21,3.1-6.66,4.67l-6.07,0.07
			c-6.01-3.3-12.65-6.12-18.37-8.63c-1.92-0.82-15.68-6.98-17.15-6.54c0.85,0.83,14.75,9.3,16.43,10.58
			c1.48,1.11,3.2,2.95,4.74,4.76l-1.8,0.02c-1.18-1.49-2.85-3.68-4.84-4.04c-0.41,0.95-0.1,2.64,0.23,4.13l-1.15-0.02
			c-0.19-1.42-0.62-2.76-1.38-3.94c-2.99-4.77-10.73-9.83-18.83-12.15L561.36,541.08z M513.26,541.64c0.88,0.85,1.9,1.73,3.19,2.68
			c1.83,0.04,7.73-1.56,10.08-2.83l7.53-0.1c-3.42,0.84-6.83,1.83-9.9,2.83c-1.81,0.58-4.31,0.82-5.4,2.12
			c0.16,1.33,0.83,1.5,1.48,2.27c0.76,0.79,1.56,1.39,3.04,2.75c5.74,1.04,12.87-6.94,18.98-5.29c-0.99,0.84-3.18,0.85-4.44,1.37
			l-7.68,3.7c-1.42,0.62-3.84,0.83-3.44,3.07c3.46,1.8,7.04-2.96,10.21-2.54c1.63,2.36-0.85,4.87,3.56,5.76
			c1.46-1.85,2.7-3.74,4.76-5.01c5.46-3.34,14.51-0.8,17.4,2.94c0.44,0.57,0.83,1.25,1.15,2.02l-1.46,0.02
			c-1.38-3.44-5.57-5.19-9.98-5.06l-3.72,0.4c-3.86,1-4.48,2.41-5.62,4.9l-5.34,0.04c-0.88-1.04-1.51-2.41-2.29-3.58
			c-2.22,0.08-3.9,1.46-5.75,2.6c0.49,0.35,0.95,0.69,1.42,1.04l-3.68,0.06l-9.99-9.03c-1.97-2.39-4.28-5.08-6.85-7.1L513.26,541.64
			z M506.3,541.72c0.93,1,2.02,1.93,2.33,3.42c-0.44,0.28-0.38,0.43-0.85,0.13l-4.44-3.51L506.3,541.72z M459.56,542.27
			c0.49,3.26,1.48,5.56,3.92,7.02c3.86,2.28,12.92,1.91,15.04-1.64c0.9-1.48,0.39-3.78-0.61-5.59l22.34-0.27
			c0.96,2.27,3.25,3.07,3.93,5.56c-2.3-1.19-5.14-4.9-7.53-5.34c-3.91,0.24-5.4,1.13-7.09,1.17c0.64,1.23,8.48,7.82,10.09,9.75
			c1.37,1.69,2.83,3.4,4.31,5.15l-2.52,0.03c-0.98-1.06-2.18-2.15-2.74-2.86c0,0-2,0.97-3.32,1.51c-2,0.83-3.56,0.56-5.26,1.5
			l-10.2,0.1c1.41-0.2,2.91-0.49,4.5-0.81l5.13-0.79c2.89-0.75,5.7-0.53,7.25-2.7l-2.68-3.1c-1.77-0.7-4.78,0.57-6.26,0.94
			c-3.95,0.96-12.02,3.33-16.84,2.46c-3.65-0.64-7.68-1.74-9.68-4.11l-3.56-4.52c-2.47,4.38,0.03,8.73,3.62,10.08
			c0,0,2.11,1.88,7.4,2.66l-5.7,0.09c-2.96-1.1-5.37-2.77-6.68-5.59c-0.46-1.01-1.51-2.97-1.26-4.56c0.36-2.34,2.79-3.73,2.87-6.13
			L459.56,542.27z"/>
		<path id="XMLID_1362_" class="st0" d="M720.64,539.22c1.08-0.76,2.21-1.32,4.31-1.43c1.98-0.09,3.63,1.45,5.19,0.55
			c-0.03-4.29-1.04-7.78-3.02-10.09c-1.57-1.87-4.25-1.85-6.77-2.81c-1.58-0.6-3.18-1.52-4.59-2.55l2.96-0.01
			c0.7,0.38,1.44,0.74,2.21,0.98c2.24,0.72,4.24,0.78,5.81,2.12c2.75,2.34,5.55,7.94,4.34,13.13L720.64,539.22 M701.67,539.44
			c1.65-1.75,4.09-2.62,10.27-0.64c0.45,0.14,1,0.34,1.62,0.51L701.67,539.44z M735.41,522.68c0.13,1.23,0.05,2.58,0.38,3.9
			c0.61,2.41,2.72,7.96,3.35,12.4l1.86,0l-0.14-1.98l-3.49-8.98c-0.47-1.51-0.42-3.5-0.54-5.35L735.41,522.68z M656.55,523.6
			c-1.01,1.98-2.24,3.83-3.75,5.87c-1.23,1.68-5.07,4.31-5.35,5.97c2.33-0.08,5.51-0.35,6.51-1.16c0.69-0.88-0.35-2.61,0.3-3.14
			c1.05-0.84,2.36-1.05,3.6-1.73l2.51-2.07c2.26-1.13,4.86-0.02,6.87,0.16c1.89-1.23,3.34-2.71,5.01-4.07l2.42-0.05
			c-0.03-0.02-0.08,0.02-0.13,0.04c-2.35,1.52-3.6,3.19-5,5.72c-1.29,0.11-3.22,0.74-4.2,0.66c-1.15-0.13-2.09-1.57-3.87-1.04
			c-1.84,0.53-4.17,2.29-5.63,3.42l0.52,2.28c1.32,0.35,13.08-0.15,14.09-0.62c1.6-3.42,8.59-7.05,11.94-9.07
			c0.86-0.52,2.3-0.97,3.48-1.57l3.54,0c-2.7,2.92-7.67,3.24-11.2,5.49l-1.79,2.05c-1.12,1.07-3.84,2.41-2.47,4.73
			c3.82,0.33,7.46,3.09,10.94,4.15l-3.14,0.03c-0.69-0.43-1.7-0.81-2.95-1.1c-7.49-0.36-14.17-2.31-22.68-2.27l-6.02,0.44
			c-3.03,0.61-5.99,1.26-8.64,2.38c-0.71,0.3-1.4,0.66-2.1,1.02l-8.7,0.12c9.35-3.89,17.88-8.36,23.01-16.61L656.55,523.6z
			 M505.09,525.37c1.44,0.97,3.25,1.5,4.53,2.29c3.03,1.86,6.21,3.23,9.7,4.58c1.5,0.58,3.28,1.56,4.62,2.25
			c1.59,0.8,1.66,0.69,2.55,2.24c0.84,1.49,2.61,2.38,3.77,3.58c2.72-0.31,5.35-0.76,6.85-2.25c-1.07-1.99-1.33-5.68-3.46-6.59
			l-4.23-0.32c-1.26-0.26-3.24-0.3-4.82-0.77l-6.68-4.64c-0.06-0.12-0.15-0.31-0.22-0.51l3.42-0.04c1.58,1.48,4.11,3.51,4.91,3.67
			c2.15,0.47,5.78-0.3,7.65,0.83c1.45,0.87,1.89,0.78,2.92,2.14l1.38,2.88c0.85,1.07,0.72,3.09,2.06,3.61
			c0.89,0.38,4.07-0.52,4.77-1.18l-5-4.65c-1.81-2.24-3.48-4.76-4.97-7.46l1.85-0.02c1.08,2.31,2.34,4.39,3.83,6.28
			c4.91,6.21,12.33,7.28,20.85,9.8l-9.08,0.11c-3-0.83-6.02-1.31-8.9-1.28l-5.31,0.56c-1.32,0.28-2.66,0.6-4.02,0.93l-7.53,0.09
			c0.39-0.17,0.67-0.36,0.83-0.53c-1.43-2.03-2.98-3.61-5.15-4.85c-4.68-2.66-10.44-4.01-14.98-6.62l-5.57-2.69
			c-0.29-0.33-0.52-0.8-0.71-1.35L505.09,525.37z M474.36,525.73c-0.55,0.92-1.1,1.81-1.73,2.46c-1.85,2.03-6.28,8.43-3.35,11.61
			c2.41-1.02,5.56-2.83,8.56-0.95c1.49,0.96,2.45,3.47,5.2,3.08l5.91-0.73l11.76-2.24c2.59-0.67,7.82-1.94,10.1,0.3
			c0.79,0.78,1.56,1.57,2.46,2.38l-2.76,0.03c-0.63-0.49-1.27-0.95-1.92-1.36c0,0-1.43,0.02-3.13,0.4c0.25,0.37,0.56,0.71,0.86,1.02
			l-2.95,0.03l-0.69-0.51c-1.16-0.17-1.29,0.1-2.52,0.27c0.04,0.1,0.08,0.17,0.12,0.28l-22.34,0.26c-0.88-1.6-2.14-2.85-3.1-2.9
			c-2.66-0.17-3.41,2.57-6.73,1.99c-3.61-6.1,0.73-11.41,3.67-15.1l0.3-0.29L474.36,525.73z M458.22,525.92l-0.78,1.5
			c-0.94,3.71,1.52,8.12,1.82,12.14c0.09,0.98,0.17,1.9,0.3,2.72l-1.54,0.01c0.01-0.24-0.01-0.5-0.05-0.77
			c-0.6-3.46-3.79-11.61-2.94-14.56c0.07-0.29,0.21-0.62,0.39-1.01L458.22,525.92z"/>
		<path id="XMLID_1353_" class="st0" d="M715.76,522.91c-0.81-0.6-1.56-1.23-2.2-1.86c-2.32-2.23-4.76-5.23-6.25-8.24l-3.24-9.11
			c-0.33-0.54-1.46-1.48-2.65-2.38l2.99-0.01c0.2,0.26,0.39,0.58,0.52,0.9c3.06,6.42,5.84,13.75,10.65,18.22
			c0.92,0.85,1.97,1.74,3.14,2.42L715.76,522.91 M728.61,501.02c-0.71,2.9-1,5.68-0.37,9.38l0.03,2.66
			c1.21,4.53,5.39,5.01,6.72,7.98c0.24,0.53,0.34,1.06,0.42,1.63l1.41,0c-0.1-1.38-0.28-2.67-0.89-3.55l-4.86-4.16
			c-2-2.5-2.83-10.29-1.12-13.97L728.61,501.02z M688.4,501.49c-1.25,2.58-2.33,5.39-2.8,8.57c-0.59,4.16,6.43,8.69,4.82,11.75
			c-0.28,0.53-0.63,1-1.01,1.41l-3.54,0.04c0.8-0.44,1.49-0.91,1.78-1.54c2.17-4.55-3.83-6.19-4.22-9.22l0.69-3.15
			c0.71-2.94,1.45-5.47,2.35-7.84L688.4,501.49z M668,501.72c0.02,0.35,0.07,0.66,0.14,0.94c1.32,5.09,5.66,8.78,8.59,12.43
			c0.83,1.04,3.52,2.93,2.83,4.92c-0.71,1.61-3.37,2.41-4.9,3.34l-2.42,0.07c0.2-0.14,0.4-0.27,0.59-0.43
			c1.52-1.13,3.83-1.9,4.91-3.44l-0.24-0.95l-3.06-3.6c-2.89-3.59-6.35-6.88-7.49-12.19c-0.07-0.37-0.15-0.75-0.17-1.09L668,501.72z
			 M660.28,501.81c-0.01,0.88-0.07,1.73-0.19,2.52l-0.14,8.55c-0.83,4.58-1.88,7.79-3.4,10.74l-2.86,0.01
			c0.79-1.25,1.51-2.6,2.11-4.07c1.86-4.35,2.66-10.87,2.76-17.77L660.28,501.81z M531.98,503.31c0.47,8.38,1.91,15.71,4.69,21.69
			l-1.85,0.02c-0.87-1.58-1.69-3.26-2.41-5c-0.94-2.25-2.3-12.11-3.65-13.2c-2.41,3.85-4.38,8.7-7.08,12.39
			c-0.72,0.97-2.65,2.68-1.87,4.59c0.15,0.26,0.64,0.78,1.29,1.38l-3.42,0.04c-0.35-0.9-0.72-2.32-0.65-2.49
			c2.8-6.57,6.38-12.73,9.64-19.27c0.02-0.03,0.05-0.07,0.07-0.11L531.98,503.31z M504.64,503.63c2.02,4.14,2.89,10.52,1.97,14.05
			c-0.42,1.64-3.96,4.9-3.2,6.05c0.44,0.68,1.01,1.22,1.68,1.64l-4.14,0.05c-0.36-1.1-0.45-2.54-0.07-3.68l3.53-6.08
			c0.85-2.97-0.44-9.37-1.93-10.34c-0.62-0.44-1.71-0.37-2.78-0.34c-1.93,0.99-4.37,1.08-5.98,2.37c-2.43,1.91-3.52,5.45-5.95,7.42
			l-11.35,8.32c-0.78,0.65-1.43,1.65-2.07,2.65l-2.3,0.01l4.22-4.35c0.82-1.06,1.35-2.2,2.37-3.02c2.55-2.07,6.08-2.98,8.08-5.53
			c1.01-1.29,2.54-5.08,3.37-6.11c1.1-1.34,1.38-1.48,3.22-2.15c0.55-0.18,1.08-0.46,1.58-0.79L504.64,503.63z M467.99,504.06
			c-0.33,0.93-0.87,1.45-1.16,2.41c-1.74,5.93-2.93,10.99-5.59,15.74c-0.38,0.65-1.22,0.57-1.68,1.09l-1.33,2.62l-2.8,0.03
			c0.68-1.51,1.98-3.54,2.92-4.23c0.83-0.56,2.02-0.67,2.51-1.58l2.91-9.42c0.81-2.03,2.64-4.09,2.6-6.69L467.99,504.06z"/>
		<path id="XMLID_1344_" class="st0" d="M666.77,501.74c-0.54-5.31,3.57-8.66,5.44-11.54l2.71-4.48c1.98-2.03,5.83-3.09,7.16-5.99
			l5.91-0.05c1.67,2.23,3.31,4.8,5.04,7.9l2.86,5.7c2.04,2.57,6.52,5.1,8.51,8l-2.99,0.06c-1.12-0.87-2.26-1.7-2.81-2.16
			c-1.68-1.35-4.08-4.83-6.61-5.27c-1,2.51-2.36,4.94-3.59,7.54l-1.92,0.06c0.79-2.03,1.68-3.91,2.8-5.85
			c0.85-1.44,1.45-3.63,2.7-4.71l-3.18-5.39c-0.73-1.86-0.9-3.7-1.87-5.17l-1.08-0.34c-2.76,2.16-5.86,3.58-8.5,5.77l-5.44,7.17
			l-2.87,3.04c-0.52,1.21-1.16,3.81-1.03,5.73L666.77,501.74 M737.22,479.11c0.09,0.31,0.21,0.55,0.32,0.79l3.21,8.42l-0.32,2.29
			c-1.06,4.81-2.5,6.98-7.38,8.04c-1.17,0.25-2.61,0.56-3.85,0.16c-0.22,0.76-0.41,1.45-0.58,2.18l1.34,0
			c0.04-0.1,0.07-0.18,0.11-0.28c5.11-1.14,8.77-2.13,11.02-6.01c1.94-3.4,0.86-8.33-0.5-11.44c-0.61-1.4-1.23-2.79-1.83-4.21
			L737.22,479.11z M717.45,479.34c2.16,2.82,4.21,5.55,6.42,8.33c1.29,1.62,3.03,2.55,4.03,4.53c2.88-0.03,7.53-2.85,8.02-4.81
			c0.56-2.14-0.64-4.91-1.16-6.59c-0.19-0.57-0.36-1.13-0.57-1.7l-1.89,0.06c0.5,1.32,0.96,2.66,1.4,4.06
			c1.2,3.8-0.19,7.55-4.24,7.51c-2.24-1.57-3.92-4.95-5.64-7.05c-1.15-1.42-2.74-2.85-4.35-4.34L717.45,479.34z M658.19,480.04
			c0.23,2.23,0.55,4.42,0.71,5.39l0.85,10.35c0.3,1.74,0.54,3.96,0.53,6.04l-1.72,0.02c0.12-7.42-0.56-15.21-1.63-21.1l-0.07-0.68
			L658.19,480.04z M514.44,481.72c2.51,1.21,5.6,2.61,7.96,4.1c2.29,1.45,5.99,8,7.39,4.85c0.52-1.12,0.14-1.9,0.21-3.13
			c0.17-2.59,0.04-3.32,0.23-5.96l2.01-0.07l-0.3,7.1l-0.12,9.5c0.02,1.79,0.07,3.53,0.17,5.21l-5.23,0.06
			c0.97-1.81,3.73-4.3,2.62-7.28c-0.81-1.65-7.09-7.91-8.66-8.83l-9.58-5.51L514.44,481.72z M507.79,481.79
			c-4.11,4.51-5.03,10.53-6.06,18.37c1.13,0.57,2.11,1.86,2.91,3.49l-9.73,0.09c1.79-1.17,3.29-3.19,4.25-4.89
			c1.38-2.4,1.67-5.6,2.56-8.47c0.77-2.47,1.45-5.39,2.45-7.97c0,0,0.13-0.22,0.36-0.58L507.79,481.79z M460.41,482.35
			c-1.02,3.21-2.52,8.96,0.37,10.32c1.75,0.77,6.24,0.03,7.69-0.94c1.81-1.16,1.98-5.7,3.06-7.61c0.34-0.61,0.69-1.27,1.02-1.91
			l2.04-0.02c-0.28,0.6-0.59,1.12-0.91,1.68c-1.44,2.5-2.34,7.98-4.47,9.55c-1.13,0.86-2.97,0.61-4.69,0.93
			c-1.63,0.28-3.51,0.15-4.7-0.67c-2.86-1.95-2.33-7.24-1.49-11.31L460.41,482.35z M455.66,482.4c-1.11,3.4-2.06,8.25-0.76,12.27
			c1.4,4.32,9.78,5.45,13.35,7.92c-0.01,0.62-0.11,1.09-0.26,1.49l-1.62,0c-0.01-0.24-0.02-0.42-0.05-0.62
			c-5.07-0.98-9.22-2.6-11.76-6.14c-1.94-2.68-2.82-8.46-1.6-12.62l0.94-2.28L455.66,482.4z"/>
		<path id="XMLID_1330_" class="st0" d="M732.31,479.17c-2.41-6.45-5.35-12.34-7.18-18.98c-0.23-0.88-0.43-1.77-0.56-2.68l1.45-0.04
			c1.54,7.99,5.63,14.48,8.19,21.63L732.31,479.17 M656.85,480.05l-2.08-18.32c-0.19-1.07-0.32-2.22-0.38-3.4l2.65-0.05
			c-0.23,3.06-0.19,7.58,0.34,9.45l2.45,4.19c0.57,1.35,0.42,3.9,1.4,5.1c2.96,4.77,6.12-1.79,7.08-2.31c0.56-0.3,0.62-1,0.57-1.94
			c-4.79-2.81-5.03-7.03-5.06-11.38c2.15-1.8,3.94-0.45,6.35,1.08c4.61,2.9,9.82,8.81,12.23,11.02c1.96,1.82,3.79,3.81,5.6,6.22
			l-5.91,0.05c0.29-0.63,0.46-1.38,0.46-2.22c-1.01-1.98-2.91-2.84-4.14-4.51l-1.11-2.04l-5.97-4.14l-5.83-4.52
			c-2.46,6.86,6.05,8.2,4.6,11.76c-0.82,1.95-5.88,9.43-9.72,3.6l-2.22-3.7c-0.37,0.81-0.23,3.45,0.02,6.02L656.85,480.05z
			 M757.17,457.11c1.32,1.86,2.46,3.71,3.49,4.98c0,0,0.03-3-0.31-4.91c-0.01-0.04-0.02-0.08-0.02-0.12l0.8,0.01
			c0.4,2.16,0.33,4.39-0.34,6.48c-0.75-1.66-2.76-4.24-4.61-6.4L757.17,457.11z M751.02,457.18c1.42,0.88,2.78,1.64,3.83,2.26
			c-0.4-0.49-1.05-1.32-1.75-2.32l1.14,0.02c0.76,1.24,1.37,2.48,1.3,3.5c-1.86-1.24-3.89-2.18-5.97-3.42L751.02,457.18z
			 M729.49,457.43c0.23,0.72,0.51,1.54,0.82,2.44c2.19,6.66,4.38,12.96,6.91,19.28l1.53-0.06c-3.05-7.04-6.1-14.12-8.5-21.69
			L729.49,457.43z M705.43,457.72c2.45,6.62,3.86,12.19,7.58,16.94l3.78,3.81c0.22,0.31,0.44,0.6,0.66,0.88l2.03-0.02
			c-2.48-2.26-4.99-4.66-6.03-7.31c-0.29-0.76-3.77-7.01-5.3-11.47c-0.34-0.96-0.64-1.91-0.94-2.85L705.43,457.72z M533.36,459.73
			l-0.74,13.68l-0.38,8.1l-2.01,0.02c0.05-0.59,0.11-1.37,0.21-2.31c0.24-2.46,0.34-6.73,0.49-11.03c0.11-2.91,0.31-5.75,0.47-8.47
			L533.36,459.73z M524.53,459.83c-0.15,1.19-0.31,2.21-0.74,3.63c-1.98,6.49-4.81,8.13-8.73,10.97c-1.6,1.16-3.59,1.49-3.78,4.12
			c1.07,1.85,0.53,1.91,2.51,2.87c0.21,0.1,0.42,0.22,0.64,0.3l-3.29,0.04l-2.08-1.17c-0.48,0.42-0.9,0.83-1.27,1.25l-3.27,0
			c0.68-1.05,2.22-3.34,3.5-4.78c4.03-4.53,12.11-8.84,13.75-13.53c0.39-1.12,0.5-2.34,0.57-3.63L524.53,459.83z M487.07,460.27
			l-0.03,2.1c-0.73,2.17-2.34,4.44-3.66,6.18l-2.97,2.93c-2.16,3.47-3.88,7.16-5.83,10.74l-2.04-0.02c2.18-4.1,4.22-8.55,6.89-12.16
			c1.34-1.82,5.47-5.27,5.94-7.31c0.04-0.22,0.07-1.15,0.07-2.43L487.07,460.27z M468.42,460.48c-1.94,7.45-5.23,13.27-7.55,20.39
			c-0.11,0.38-0.28,0.88-0.46,1.45l-2.07,0.05c0.2-0.95,0.4-1.82,0.6-2.56c0.85-3.33,2.15-7.2,3.73-10.06
			c1.34-2.39,3.51-5.56,4.91-9.22L468.42,460.48z M464.88,460.53c0,0-0.02,0.02-0.02,0.04c-1.22,3.96-3.59,7.85-5.18,11.51
			l-3.51,8.97c-0.16,0.43-0.34,0.89-0.51,1.4l-1.76-0.02l8.99-21.87L464.88,460.53z M450.96,460.69c0.02,0,0.03,0.02,0.04,0.04
			c-0.69,1.43-2.11,0.98-3.59,0L450.96,460.69z M442.24,460.79c-0.09,0.43-0.22,0.77-0.39,0.9c-0.73-0.13-1.45-0.46-2.12-0.9
			L442.24,460.79z"/>
		<path id="XMLID_1321_" class="st0" d="M753.09,457.16c-1.44-2-3.1-4.61-3.12-6.3c2.85,0.78,5.22,3.5,7.2,6.25l-1,0.01
			c-1.61-1.87-3.1-3.42-3.59-3.88c-1.19-1.13-1.17-0.53-1.06-0.17c0.29,0.88,1.66,2.45,2.7,4.1L753.09,457.16 M727.05,435.69
			c0.44,0.5,0.95,0.81,0.8,1.3c-3.8,3.34-6.25,3.7-4.74,3.93c0.37,0.57,1.05,1.57,0.63,2.53c-1.53,2.56-12.1,1.9-14.58,1.87
			c-0.37-0.02-2.8-0.49-3.37-0.71c-2.16-0.79-2.71,1.43-2.59,2.62c0.33,3.58,0.47,5.74,1.79,9.21c0.15,0.42,0.31,0.84,0.46,1.26
			l1.78,0c-1.79-5.75-2.55-10.35-1.28-10.7c2.63-0.68,5.51,0.08,11.84-0.57c2.51-0.25,4.47-0.58,6.31-1.4
			c0.76,0,1.77,0.01,1.95,0.57l-1.39,5.06c-0.48,2.19-0.45,4.59-0.09,6.85l1.45-0.04c-0.02-0.13-0.05-0.29-0.08-0.43
			c-1.64-9.22,2.64-14.8,9.8-16.11c1.67-0.29,6.33,0.31,7.58,0.96c0.31,1.14-1.21,1.79-1.48,2.49c-4.04,0.22-7.66-0.7-10.24,1.38
			c-0.62,0.51-0.77,1.22-1.18,1.97c-2.39,4.12-2.15,5.91-0.92,9.67l0.76,0.03c-0.04-0.12-0.08-0.22-0.1-0.31
			c-2.28-7.24,2.54-14.67,10.71-11.82c0.23,4.85,1.11,5.77,4.13,8.59c1.53,1.4,3.05,2.46,4.57,3.33l1.45-0.04
			c-4.68-2.92-10.18-7.07-8.47-11.43c0.69-1.71,2.53-2.61,4.06-3.52c2.44-0.05,4.12,0.34,5.59,1.39c1.35,0.98,7.03,7.39,8.14,13.44
			l0.8,0.01c-0.43-2.4-1.42-4.71-2.74-6.67c-1.75-2.54-2.6-5.94-5.15-7.64c-1.31-0.87-4.15-2.14-6.4-1.73l-2.4,0.38
			c-3.06-0.42-6.23-2.18-10.26-1.32c-3.32,0.7-4.5,2.47-6.72,3.22c-1.24,0.35-2.7-1.67-2.81-3.1l6.72-2.72l-2.4-1.8L727.05,435.69z
			 M674.82,436.3l-0.34,0.98c-3.11,6.2-8.08,10.44-16.98,11.05c-0.04-3.07,1.31-7.45,2.53-11.86l-2.44,0.03
			c-1.84,5-3.66,14.42-3.21,21.83l2.65-0.05c0.09-0.99,0.18-1.82,0.32-2.38l1.4-4.08c2.34-1.01,5.79-1.73,8.04-3.12l2.98-3.04
			c2.13-2.19,4.73-4.25,6.43-6.84l0.88-2.55L674.82,436.3z M532.97,437.96c1.05,5.21,1.47,11.92,0.64,17.47l-0.25,4.3l-1.96,0.02
			c0.39-5.99,0.73-11.34-0.1-15.49c-0.44-2.12-0.3-4.69-1.25-6.25L532.97,437.96z M525.79,438.04c-0.73,0.4-1.44,0.76-2.14,1.12
			l1.23,2.04l0.05,4.22c0.55,3.34,0.42,7.88-0.23,12.83c-0.06,0.56-0.12,1.07-0.16,1.55l-2.19,0.05c0.1-1.69,0.1-3.54,0.54-5.25
			c0.49-2.01,0.72-11.06-0.51-12.65c-1.99-2.6-5.15-2.92-8.34-3.78L525.79,438.04z M483.21,438.54c0.12,0.47,0.23,0.95,0.32,1.46
			c0.39,2.11-0.87,6.21,0.34,7.46c2.33-0.95,3.43-4.06,3.89-6.92c0.11-0.59,0.07-1.35,0.09-2.05l1.21-0.01l0.01,0.5l-1.71,8.1
			c-0.28,1.77,0.09,3.71-0.18,5.28l-0.1,7.92l-1.63,0.02c0.02-4.01-0.15-11.56-0.24-11.75c-1.66,0.15-2.09,1.46-3.6,1.47
			c-0.57-1.91,1.48-4.31,1-6.99c-0.3-1.73-0.63-3.17-0.98-4.5L483.21,438.54z M459.07,438.82c5.79,2.34,8.95,2.6,10.59,10.24
			c0.44,2.04,0.1,4.37-0.17,6.16c-0.29,1.85-0.63,3.58-1.08,5.24l-0.83,0.03c1.1-2.79,1.73-5.89,1.13-9.13
			c-1.52-8.33-3.41-8.74-10.36-11.44c-0.79-0.31-1.48-0.71-2.16-1.11L459.07,438.82z M448.74,438.94l-6.5,4.06l-4.55,2.12
			l-2.89,1.12c0.98,1.25,3.31,1.6,4.72,2.34c-1.62,3.2-2.92,8.43,0.98,10.96c0.61-2.13,1.2-4.87,2.82-6.18
			c1.48,1.23,1.91,3.58,3.55,4.77c1.05-7.8,4.51-7.95,9.39-11.67c1.18-0.89,1.82-3.7,2.35-4.14l1.94-0.48
			c5.59,3.36,6.7,10.89,4.33,18.65l-1.99,0.06l0.61-1.52c1.79-4.88,2.11-12.28-2.09-14.67c-0.93-0.53-1.24-0.9-2.42-0.45
			c-1.25,3.96-4.16,5.78-7.25,7.92c-1.18,0.79-3.52,2.67-3.07,4.85c0.3,1.54,1.49,2.82,2.29,4l-3.55,0.06
			c-1.91-1.25-3.92-3.37-4.64-3.52c-0.16,0.58-0.22,2.45-0.52,3.6l-2.51,0.01c-2.21-1.49-3.87-4.44-3.41-7.5
			c0.21-1.34,0.66-2.75,0.07-3.99c-1.48-0.61-5.13-2.99-5.35-4.87c1.57-0.68,5.09-0.33,6.74-1.02c2.34-1.03,4.76-2.82,7.13-4.45
			L448.74,438.94z"/>
		<path id="XMLID_1313_" class="st0" d="M677.08,436.27l1.33-3.86c0.94-1.7,2.52-2.95,3.31-4.84c-1.72,0.19-5.14,4.33-5.95,5.95
			l-0.96,2.78L677.08,436.27 M657.6,436.5c0.04-0.13,0.09-0.23,0.12-0.36c1.08-2.82,2.78-6.59,2.7-10.58l1.59,0
			c0.12,3.07-0.88,6.99-1.97,10.91L657.6,436.5z M487.85,438.48c0.03-0.6,0.09-1.16,0.36-1.56c0.19-0.47,0.28-0.57,0.82-0.74
			l0.03,2.28L487.85,438.48z M444.92,438.98c2.12-1.42,4.19-2.72,6.15-3.19c3.47-0.83,4.83,1.64,6.66,2.46
			c0.48,0.2,0.93,0.38,1.34,0.56l-2.87,0.03c-1.5-0.9-3.04-1.67-5.7-1l-1.76,1.08L444.92,438.98z M732.93,424.74
			c-2.27,1.37-4.55,2.63-4.48,3.08c0.3,1.72,2.46,1.67,4.22,1.54c0,0-6.14,4.06-6.21,4.89c-0.06,0.65,0.24,1.09,0.58,1.45l1.92-0.04
			l-1.25-0.94c1.87-1.98,6.2-2.76,6.68-6.11c-1.04-0.57-3.04-0.18-4.42-0.26l-0.3-0.79c1.01-0.38,3.15-1.5,5.17-2.84L732.93,424.74z
			 M503.56,427.41c1.72,2.94,3.47,5.62,7.74,7.2c4.48,1.66,13.75,3.3,16.5-0.67c0.43-0.61,0.2-3.86-0.12-6.83l1.69,0
			c0.77,2.55,2.07,5.25,2.53,6.66c0.39,1.21,0.75,2.64,1.06,4.17l-2.92,0.05c-0.39-0.64-0.96-1.09-1.86-1.3
			c-0.78,0.51-1.6,0.96-2.41,1.38l-11.77,0.1c-1.07-0.3-2.12-0.64-3.17-1.14c-1.84-0.93-8.65-7.09-9.86-8.81l-0.33-0.77
			L503.56,427.41z M474.86,427.75c0.34,1.29,0.7,2.67,1.23,4.01c0.69-0.97,1.59-1.75,2.74-2.33c2.07,2.22,3.54,5.54,4.38,9.07
			l-1.59,0.06c-0.73-2.68-1.65-4.74-3.14-7.05l-0.85,0.01l-1.88,2.91l-1.73-3.25c-0.39-1.24-0.54-2.35-0.7-3.45L474.86,427.75z"/>
		<path id="XMLID_1307_" class="st0" d="M500.66,427.45l-2.02-4.74c-1.05-1.3-2.9-2.42-2.82-4.3l4.38,3.68
			c1.42,1.79,2.4,3.6,3.37,5.31L500.66,427.45 M733.85,413.84c-1.54,2.05-2.71,3.74-2.56,4.15c1.06,3.33,6.14,2.77,5.91,3.14
			c0.46,0.67-1.89,2.2-4.27,3.61l1.92-0.02c2.3-1.49,4.46-3.26,4.74-4.58c-1.92-1.46-5.31-0.25-6.66-2.33
			c0.77-1.38,1.72-2.7,2.74-4.01L733.85,413.84z M656.96,414.74c0.24,0.28,0.45,0.53,0.65,0.8c1.54,2.08,2.91,4.36,5.01,5.86
			c2.44-0.03,7.45-3.96,9.11-6.87l2.7,0.01c-0.2,0.58-0.52,1-0.52,1c-2.31,2.96-7.42,7.3-11.96,9.13c0.04,0.3,0.06,0.61,0.08,0.92
			l-1.59,0c-0.03-1.27-0.24-2.53-0.69-3.79c-0.82-2.26-2.95-4.84-5.63-7.06L656.96,414.74z M535.62,416.16
			c-1.06,0.93-2.11,1.9-3.17,2.8c-1.05,0.84-3.22,2.35-3.58,3.77c-0.29,1.14,0,2.72,0.5,4.37l-1.69,0.04
			c-0.22-2.18-0.51-4.18-0.61-4.88l2.97-3.28l3.37-2.8L535.62,416.16z M469.65,416.93l3.57,6.08c0.73,1.4,1.18,3.03,1.64,4.75
			l-1.54,0.02c-0.14-1.02-0.3-1.96-0.7-2.95c-1.06-2.75-2.98-5.14-4.25-7.92L469.65,416.93z"/>
		<path id="XMLID_1300_" class="st0" d="M734.34,402.94c-0.11,0.22-0.23,0.41-0.29,0.53c0.19,2.39,2.53,0.28,6.52,0.67
			c0.21,0.78-3.9,5.89-6.71,9.68l1.83,0c2.66-3.45,5.77-6.84,7.56-11.03l-5.55,0.11c-0.26,0.07-0.5,0.13-0.69,0.15
			c-0.02-0.04-0.03-0.08-0.03-0.14L734.34,402.94 M649.99,403.92c2.01,1.07,3.83,2.37,5.35,2.97c4.3,1.74,8.6,1.82,13.65,2.97
			c-0.41-2.47,5.15-4.7,8.03-5.02l3.97,0.55l0.83-0.85c-1.1-0.59-2.09-0.67-2.87-0.96l3.51-0.04l0.82,0.35c0,0-1.01,0.75-1.12,2.01
			c-0.04,0.4-3.78-0.33-6.48,0.04c-1.44,0.22-5.63,2.17-5.32,2.77c0.65,1.26,1.53,0.9,3.1,2.9c1.4,0.84,1.31,2.06,0.98,2.93
			l-2.7,0.03c0.37-0.67,0.57-1.23,0.56-1.72c-1.73-3.49-6.96-2.18-11-3c-4.98-1.01-9.35-4.46-14.04-5.89L649.99,403.92z
			 M607.61,404.42c4.08,2.1,8.74,3.52,13.3,4.45c1.68,0.35,10.71,0.6,12.79-0.02c1.75-0.53-0.14-2.86,2.03-4.76l2.02-0.02
			c-0.54,0.24-1.1,0.61-1.66,1.21c0,0-0.78,2.01-0.03,2.8c0.42,0.46,6.04-0.78,6.04-0.78c2.5,0.49,5.13,0.77,7.13,1.82
			c2.47,1.35,5.76,3.44,7.73,5.64l-2.85,0.01c-3.19-2.74-7.1-4.92-10.31-5.44c-4.3-0.71-9.08,0.67-12.75,1.34
			c-6.19,1.16-12.28-0.14-16.78-1.84c-3.23-1.25-6.47-2.71-9.43-4.41L607.61,404.42z M527.96,405.35c-1.37,1.05-3.08,0.8-4.64,0.03
			L527.96,405.35z M508.29,405.58c0.41,0.64,0.88,1.25,1.37,1.37c3.25,0.95,5,0.06,5.83-1.45l1.1-0.01
			c-2.16,3.2-3.25,5.21-9.22,1.34c-0.82,1-0.79,2.26-0.46,3.01c0.66,1.51,3.5,2.61,5.8,1.98c0.94-0.25,1.6-1.07,2.78-1.13
			c1.97,0.86,2.51,2.81,4.25,3.34c7.67,2.34,13.81-5.55,18.4-8.79l18.21-0.21c1-0.06,1.94-0.06,2.69,0.36
			c0.82,0.44,0.83,1.51,1.36,2.26c0.84,1.21-0.38,2.16,0.44,2.62c1.51,0.82,5.18,0.35,8.26-0.31c5.71-1.2,10.17-2.96,14.35-5.25
			l2.11-0.02c-3.91,2.34-8.13,4.38-13.42,6.09c-3.54,1.15-8.23,2.81-13.49,2.08c-2.99-0.43-5.8-0.81-8.45-1.6
			c-2.22-0.65-3.73-1.33-6.32-1.51c-3.04,1.55-5.69,4.01-8.25,6.4l-2.21,0.05l6.05-5.03c1.4-1.22,1.79-2.71,4.06-3.21
			c4.12-0.82,10.92,3.7,15.33,2.49c0.17-1.48,0.28-2.28-0.52-3.49c-1.23-0.38-3.06,0.01-4.7-0.31c-3.36-0.65-5.98-2.09-10.14-1.33
			c-1.26,0.24-2.47-0.11-3.36,0.41c-6.07,3.56-11.3,13.06-22.79,9.68c-0.26-0.96-1.08-2.38-2.31-2.64l-4.46,0.77
			c-4.04,0.41-6.52-2.76-5.63-6.91c0.09-0.39,0.2-0.72,0.33-1.02L508.29,405.58z M466.19,406.07c0.13,0.92,0.38,1.73,0.71,2.2
			c0.63,0.86,1.47,0.77,1.83,2.12c0.54,1.99-0.29,3.68,0.43,5.67l0.49,0.87l-1.27,0.02c-0.15-0.4-0.29-0.74-0.44-1.11l-0.42-4.7
			c-0.57-0.79-1.52-1.13-1.94-2.13c-0.33-0.8-0.3-1.94-0.42-2.92L466.19,406.07z"/>
		<path id="XMLID_1289_" class="st0" d="M528.13,399.83c-1.47,3.11-2.01,2.32-5.14,3.68C524.52,406.67,529.99,404.51,528.13,399.83
			 M737.69,402.9c1.83-0.61,4.73-2.21,5.69-0.39c-0.05,0.08-0.1,0.18-0.14,0.29L737.69,402.9z M678.94,403.58
			c-0.38-0.15-0.7-0.34-1-0.68c0.74-1.59,6.22-3.86,7.78-5.52l-0.15-1.08c-0.95-2.12-4.38-2.66-6.55-3.54
			c-0.07-0.02-0.14-0.06-0.23-0.1l4.91-0.04c0.62,0.27,1.13,0.56,1.48,0.78l2.45,4.08l-2.03,2.09c-1.44,0.67-4.38,1.42-5.83,2.83
			l2.66,1.14L678.94,403.58z M635.72,404.09c0.06-0.04,0.14-0.11,0.21-0.16c2.22-1.69,3.7-1.29,6.34-1.82
			c2.72-0.56,5.35,0.48,7.72,1.79l-2.75,0.05c-1.73-0.52-3.5-0.76-5.38-0.5c-1.6,0.21-2.89,0.1-4.12,0.61L635.72,404.09z
			 M538.13,405.23c0.48-0.33,0.94-0.6,1.37-0.82c1.96-0.97,4.6-0.85,7.11-1.17l6.64,1.73c1.03,0.2,2.09,0.09,3.09,0.03
			L538.13,405.23z M505.27,405.61c0.23-0.58,0.54-1.05,0.86-1.53l1.08-0.27c0.3,0.37,0.66,1.1,1.08,1.74L505.27,405.61z
			 M739.8,391.97c-0.4,0.88-0.83,1.56-1.15,2.02c-0.54,1.02-3.26,6.8-4.32,8.91l2.62,0.01c-0.1-1.17,2.2-5.22,2.71-6.52
			c0.5-1.17,1.06-2.71,1.59-4.45L739.8,391.97z M568.23,393.97c3,0.61,6.2,0.96,8.21,1.36c13.34,2.58,31.26,0.79,43.57-1.96
			l5.8-0.07c-0.26,0.02-0.53,0.09-0.77,0.12c-4.23,0.8-8.72,2.05-13.2,2.91c-4.16,0.76-8.88,0.45-12.5,1.7
			c2.11,2.64,4.99,4.74,8.27,6.41l-2.77,0.01c-1.24-0.72-2.42-1.45-3.54-2.23c-1.95-1.33-3.27-3.89-6.42-3.89
			c-3.2,2.34-6.16,4.45-9.33,6.34l-2.11,0.02c1.22-0.69,2.44-1.41,3.64-2.18c1.27-0.81,4.9-2.87,4.64-4.53
			c-7.76-0.48-15.19-1.23-21.97-2.6c-2.29-0.49-4.93-0.54-6.93-1.31L568.23,393.97z M522.22,394.51c-1.23,1.05-2.65,1.97-3.89,2.53
			c-1.96,0.92-5.98,0.9-6.96,2.75c-0.8,3.69,4.92-0.92,4.92-0.92l1.82-0.61c1.12,0.6,1.15,1.71,2.07,2.39
			c1.34,0.98,5.36,1.95,6.38,0.04c0.59-1.1-0.21-3.32,0.44-4.08c2.75,0.62,3.33,5.57,1.77,7.79c-0.24,0.38-0.54,0.68-0.82,0.92
			l-4.64,0.1c-1.69-0.85-3.22-2.32-3.96-3.29c-1.18,1.13-2.02,2.32-2.76,3.39l-1.1-0.01c0.56-1,0.72-2.26,0.66-3.44
			c-4.79,1.61-8.95,0.02-6.12-3.57c2.05-2.63,5.73-1.81,9-3.36c0.29-0.15,0.59-0.33,0.9-0.56L522.22,394.51z M465.06,395.18
			c-0.79,1.99-1.1,4.22-0.29,6.61c0.33-2.56,3.94-3.32,3.94-3.32l-1.3,3.16c-0.29,0.39-0.83,0.11-1.07,0.85
			c-0.3,0.91-0.34,2.32-0.16,3.57l-1.03,0.03c-0.08-0.61-0.24-1.17-0.61-1.52c-0.68-0.72-1.49-0.49-1.82-1.68
			c-0.83-3.2-0.08-5.6,1.1-7.68L465.06,395.18z"/>
		<path id="XMLID_1281_" class="st0" d="M678.8,392.68c-3.27-1.31-5.96-1.75-8.96-4.23c-5.54-4.58-1.77-6.42-1.77-6.42
			c0.03-0.04,0.05-0.1,0.08-0.15l2.99,0.01c-0.18,0.28-0.33,0.53-0.43,0.75c3.32,0.87,18.42,0.45-1.42,2.75
			c-0.04,1.2,2.76,1.42,3.01,2.27c1.92,0.93,8.16,3.31,11.41,4.92L678.8,392.68 M738.81,381.1c-0.51,2.87,1.49,0.66,1.93,1.54
			c1.46,2.96,0.31,6.82-0.94,9.34l1.46-0.04c1.05-3.32,2-7.31,2.25-10.92L738.81,381.1z M716.8,381.36c0.8,2.16,1.41,4.46,1.41,4.46
			c1.23-0.32,1.41,2.17,2.36,2.96c0.07,3.31,1.93,0.61,1.93,0.61s4.3-3.07,6.19-5.81c0.46-0.68,0.93-1.55,1.33-2.39l-2.48,0.05
			c-0.03,0.02-0.06,0.06-0.08,0.11c-1.05,1.79-2.42,5.48-4.38,6.2c-0.44-1.77-0.02-4.3,0.31-6.28l-1.34,0.04
			c-0.38,2.58-0.87,4.69-1.34,5.91l-2.72-5.86L716.8,381.36z M623.93,382.44l3.19,0.85l0.12-0.89l1.41-0.02
			c0,0.46,0.03,0.79,0.03,0.79c0.53,1.24,3.03,2.23,4.68,1.23c0.82-0.5,1.38-1.22,1.49-2.09l2.34-0.03
			c0.02,0.27,0.01,0.53-0.07,0.85c-0.8,0.37-2.11,0.95-2.52,1.69c-1.01,1.72-0.19,4.68-1.62,5.93c-1.55,1.39-4.62,2.01-7.18,2.5
			l-5.8,0.11c0.21-0.04,0.42-0.09,0.63-0.14c4.39-0.98,10.36-1.71,12.04-3.74c0.52-0.63,0.05-2.37,0.05-2.37
			c-2.46-2.75-5.68-2.39-9.71-3.46c-1.76-0.45-3.59-0.84-5.47-1.15L623.93,382.44z M558.99,383.2c-0.01,0.32,0.02,0.68,0.08,1.02
			c0.18,0.91,1.26,2.04,1.26,2.04c1.3,0.79,3.52-1.12,3.99-1.99c0,0-0.03-0.5-0.13-1.13l1.09-0.01l0.24,0.76l3.21-0.81l6.1-0.07
			c-6.98,0.98-13.58,2.82-13.97,7.72c0.87,1.65,4,2.6,7.37,3.26l-5.39,0.04c-0.46-0.13-0.89-0.36-1.28-0.62
			c-3.46-2.43-1.12-4.84-2.62-7.44c-0.91-0.13-1.78-0.64-1.83-1.66l0.45-1.09L558.99,383.2z M526.46,383.58
			c0.62,0.31,1.19,0.75,1.62,1.3c-0.12,1.76-1.47,2.32-2.13,3.52l-1.17,3.28c-0.6,0.92-1.53,1.91-2.56,2.81l-2.29,0.05
			c2.53-1.84,5.97-6.66,6.1-9.5c-0.6-0.5-1.52-0.95-2.49-1.4L526.46,383.58z M469.09,384.25c-0.09,0.49-0.12,0.98-0.04,1.45
			c0.69,0.22,2,0.22,2.9-0.03c-0.32,1.09-1.2,1.18-1.8,1.94c-1.55,2-3.88,4.56-5.07,7.54l-1.24,0.04c1.24-2.17,2.95-3.97,3.69-5.99
			c0.56-1.45-1.17-1.62-0.76-3.24c0.16-0.6,0.39-1.17,0.67-1.68L469.09,384.25z"/>
		<path id="XMLID_1266_" class="st0" d="M613.91,376.43c-2.6,3.28,2.32,5,4.04,3.75c0.91-0.7,1.35-1.62,1.09-2.74
			C618.81,376.52,615.06,376.41,613.91,376.43 M576.61,376.62c0,0-1.7,0.84-1.48,2.77c0.23,2.17,6.17,2.51,5.41-1.25
			C580.49,376.57,579.87,375.83,576.61,376.62z M595.71,375.59c-0.74,1.06-0.19,3.32-0.19,3.32c1.16,1.23,6.74,1.66,5.63-2.87
			C600.54,374.99,596.93,373.85,595.71,375.59z M602.18,375.24c-0.25,1.86-0.12,0.64-0.1,3.81c3.45,0.06,6.21,0.59,9.95,0.61
			c-0.27-0.79-0.09-2.02,0.11-3.37C609.77,375.25,605.34,375.2,602.18,375.24z M588.89,375.25c-2.32,0.17-4.96,0.34-7.29,1.4
			c0.22,0.53-0.11,3.52,0.77,3.07c1.75,0.73,10.22-0.12,11.68-0.41c0.71-1.75,0.25-3.83,0.25-3.83L588.89,375.25z M591.79,372.09
			l-11.24,1.19c-6.95,1.52-16.56,3.3-23.11,4.97l1.15,2.01l11.09-3.57c5.41-0.98,11.88-2.28,18.08-2.63
			c12.2-0.64,24.21-0.32,33.59,1.88l14.25,3.95l0.56-2.21l-9.98-2.13C616.67,372.84,603.56,371.97,591.79,372.09z M727.54,381.23
			c1.99-3.42,3.56-7.03,4.79-10.99l1.56-0.02c-0.86,3.14-1.76,6.08-2.63,8.11c0,0-0.52,1.39-1.25,2.86L727.54,381.23z
			 M668.15,381.93c2.23-4.15,6.4-5.27,10.43-7.71c1.46-0.89,2.77-2.35,4.32-3.36l3.72-0.09c-1.17,0.34-2.28,0.72-3.35,1.23
			c-2.45,1.1-2.69,3.43-4.17,4.36c-0.64,0.46-1.61,0.16-2.54,0.39c-1.44,0.39-4.19,3.24-5.42,5.13L668.15,381.93z M738.42,370.17
			c0.25,2.54,0.41,4.87,0.43,6.46l0.05,4.1c-0.03,0.15-0.06,0.27-0.09,0.37l4.7-0.05c0.08-1.37,0.08-2.68-0.07-3.86l-2.87,2.57
			c-0.92-1.95,0.1-5.38-0.33-7.95c-0.1-0.58-0.19-1.12-0.26-1.68L738.42,370.17z M724.15,370.34l-0.68,10.33
			c-0.03,0.19-0.06,0.39-0.09,0.6l-1.34,0.04c0.47-3.23,0.77-7.15,0.65-10.97L724.15,370.34z M706.51,370.54
			c-0.1,0.16-0.19,0.37-0.26,0.58c0.94,1.34,2.08,0.89,2.07,3.47c1.92,1.33,5.73,1.28,6.86,3.44c0.56,0.67,1.12,1.97,1.61,3.33
			l1.18-0.01l-1.77-3.84c-0.32-1.55,1.4-4.19,1.79-5.38l0.28-1.72l-1.43,0.02c-0.51,2.07-1.15,3.9-1.99,5.12
			c-1.65-0.16-4.85-3.64-6-4.27c0.1-0.28,0.28-0.51,0.55-0.75L706.51,370.54z M550.55,372.36c3.49,1.79,10.54,3.95,13.64,3.14
			c2.41-0.63,4.36-1.9,6.09-3.37l1.34-0.02l-1.85,1.95c1.27,0.04,10.03-1.45,10.7-1.99l-0.17-0.06l32.13-0.38
			c5,0.98,17.54,3.59,18.32,3.5c-0.47-0.45-3.58-2.17-6.35-3.67l1.38,0.01c1.17,0.58,2.47,1.05,4,1.38
			c3.29,0.66,6.64,0.01,8.78-1.53l2.49-0.03l-1.16,1.07l-4.2,2.35c2.63,2.18,1.18,2.82,1.15,5.64c0.01,0.76,0.31,1.3,0.36,1.93
			l-2.34,0.03c0.02-0.27-0.01-0.57-0.09-0.89c-0.27-0.93-4.27-1.82-5.06-1.57c-0.86,0.25-1.03,1.64-1.04,2.53l-1.41,0.02l0.3-2.06
			c0.75-1.27-6.36-2-7.34-2.83l-0.89,3.69l4.61,1.23l-6.39,0.07c-7.21-1.22-15.27-1.49-23.35-1.42l-6.87,0.45
			c-3.25,0.56-7.96,0.85-12.5,1.47l-6.1,0.07l5.46-1.39c0,0,0.06-1.1-0.1-1.79c-0.21-1.09-1.24-2.53-1.24-2.53
			c-1.61-0.18-9.36,1.4-8.58,2.64l1.01,3.1l-1.09,0.01c-0.18-0.93-0.54-2.14-1.37-2.48c-0.88-0.38-1.6-0.33-2.43,0.12
			c-0.93,0.53-1.36,1.42-1.39,2.42l-1.43,0.02l0.6-1.46c-0.88-1.87-2.1-2.52-1.14-4.91c-0.94-1.2-6.82-3.8-8.48-4.36
			c-0.13-0.06-0.27-0.1-0.38-0.13L550.55,372.36z M515.61,372.77c0.05,0.02,0.11,0.06,0.15,0.1c1.62,1,3.6,2.44,4.27,4.41
			c0.43,1.23,0.36,2.71,1.14,3.58c1.01,1.16,3.44,1.58,5.29,2.68l-2.92,0.08c-1.35-0.62-2.75-1.34-3.35-2.25l-0.63-2.52
			c-0.47-1.43-1.61-2.64-2.7-3.46c-1.42-1.13-3.16-1.86-4.91-2.55L515.61,372.77z M475.7,373.24c-1.19,0.81-2.22,1.86-2.66,3.26
			l0.85,1.16c-1.53,1.17-4.29,3.96-4.8,6.59l-1.66,0.02c1.11-2.03,2.94-3.6,3.82-5.7c-1.67-1.85,0.5-3.64,2.68-5.29L475.7,373.24z"
			/>
		<path id="XMLID_1251_" class="st0" d="M545.56,365.04c-2.99-0.71-3.69,2.14-2.77,3.29c0.59,0.82,2.06,3.42,3.67,2.68
			c1.1-0.49,1.09-1.48,1.5-2.71C548.49,366.79,547.11,365.39,545.56,365.04 M596.25,364.58c-0.55,1.61-5.84,4.95-7.81,6.67
			c2.59-0.01,14.65,0.29,14.98-0.4C603.6,370.52,598.15,366.44,596.25,364.58z M643.82,363.34c-1.58,0.1-2.86,1.82-2.33,3.34
			c0.44,1.2,2.91,1.53,2.91,1.53c0.99-0.45,1.58-0.97,2.15-1.83C647.43,365.2,645.42,363.23,643.82,363.34z M732.33,370.24
			c1.04-3.37,1.84-7.01,2.46-11.03c0-0.01,0-0.03,0.02-0.05l1.68,0c-0.68,3.25-1.61,7.32-2.59,11.07L732.33,370.24z M570.27,372.13
			c1.18-1,2.27-2.09,3.3-3.12c2.25,0,3.09,0.9,5.42,1.43c6.56,1.45,13.14-2.05,15.61-5.86l1.29-2.88c0.68,0,0.71,0.1,1.09,0.34
			c1.05,3.75,7.04,9.36,12.63,8.16l5.52-2.35l3.59-1.01c2.49,1.48,4.47,3.31,7.04,4.63l-1.38,0.05c-2.23-1.23-4.25-2.3-4.54-2.49
			l-1.94-0.82c-0.44,0.44-7.17,2.39-7.41,3.07c0.25,0.04,0.93,0.16,1.93,0.36l-32.13,0.4l-4.92-1.58l-2.39,0.24l-1.37,1.44
			L570.27,372.13z M736.98,359.15c0.49,2.69,1.05,7.06,1.44,10.99l1.56,0.01c-0.54-3.76-0.82-7.45-1.29-11.02L736.98,359.15z
			 M721.88,359.32c0.17,1.51,0.3,2.95,0.43,3.76l0.51,3.26c0.51,1.01,1.5,1.62,1.36,3.49l-0.04,0.5l-1.45,0.02
			c-0.01-0.21-0.01-0.39-0.03-0.55c-0.07-1.8-1.37-3.22-1.65-4.84c-0.37-2.03-0.4-4.02-0.46-5.65L721.88,359.32z M720,359.35
			l-1.73,11.06l-1.43,0.02c0.75-2.94,1.22-6.33,1.65-8.81c0.1-0.62,0.14-1.41,0.19-2.25L720,359.35z M705.65,359.51
			c-2.58,0.91-9.37,6-9.7,7.59c-0.2,1.06,5.97-0.89,6.76,0.11c1.64-1.43,3.56-4.71,3.61-7.71l1.73-0.02
			c-0.35,1.25-0.77,2.41-0.42,3.91c2.91,0.93,5.65-1.95,7.82-1.06c-0.07,2.18-1.51,2.8-2,4.36l-1.2,1.63
			c-0.21,0.84-1.92,1.42-2.84,2.21l-2.89,0.01c1.35-2.48,5.4-2.84,5.8-6.14c-3.3,0-5.5,0.94-7.31,2.39l-1.68,1.59
			c-2.59,0.83-5.45,0.15-8.42,0.7c-2.88,0.53-5.7,0.97-8.3,1.69l-3.72,0.04c0.41-0.24,0.85-0.46,1.29-0.65
			c2.93-1.17,6.9-0.75,9.39-2.39l2.95-3.76c0.79-1,3.35-2.88,6.02-4.45L705.65,359.51z M657.51,360.08
			c-0.29,0.41-0.63,0.79-1.02,1.14c-1.25-0.08-1.61-0.8-2.46-1.14L657.51,360.08z M601.7,360.73c2.94,4.75,10.63,7.81,14.45,2.53
			c-0.1-1.09-0.65-1.81-1.08-2.66l1.41-0.04c0.25,0.28,0.56,0.52,0.98,0.63l1.66-0.25c0.29-0.09,0.55-0.22,0.77-0.44l1.87,0
			c0.02,0.52,0.19,1.04,0.58,1.51c0.72,0.9,1.16,1.48,2.57,1.48c0.9-0.01,1.94-1.42,2.57-3.06l1.04-0.01
			c-0.84,1.62-2.67,3.85-2.11,4.77c0.93,2.54,4.79,3.31,7.51,2.33c-0.26-1.13-1.38-1.43-1.72-2.39c-0.7-2.04,1.07-2.59,1.28-3.86
			c0.05-0.3,0.04-0.59,0.02-0.88l1.44-0.04c0.2,0.52,0.39,1.08,0.58,1.74c-0.93,0.98-2.68,1.11-2.14,3.1
			c2.59,2.65,7.12-0.38,5.92-2.33c-0.61-0.7-1.32-0.98-1.49-2.14c0.76-0.6,3.08,1.63,3.97,1.87c-0.09-0.62-0.55-1.55-0.81-2.36h3.58
			c0.1,0.72,0.24,1.45,0.4,2.2c1.52,0.07,3.02-1.1,4.6-2.24l2.52-0.05c-0.38,0.2-0.74,0.4-1.01,0.53c-4.35,2.25-1.36,5.34-4.36,7.77
			c-1.18,0.96-3.08,0.84-4.44,1.73l-1.23,1.13l-2.49,0.03c1.38-0.97,2.28-2.31,2.36-3.91c-0.27-0.43-0.29-0.69-0.74-0.97l-1.45-0.1
			c-2.68,4.8-10.22,3.95-13.96,1.02c-1.67-1.32-2.22-3.94-3.92-5.27c-2.16,0.47-4.66,3.69-7.62,4.82
			c-6.89,2.63-10.86-2.14-13.05-6.11c-0.02-0.02-0.03-0.05-0.05-0.1L601.7,360.73z M544.14,361.4c-0.03,0.03-0.05,0.1-0.08,0.17
			c-0.03-0.08-0.05-0.14-0.08-0.19L544.14,361.4z M534.4,361.51c0.28,0.52,0.71,1.12,1.28,1.77c0.63-0.28,1.04-1.12,1.42-1.8
			l3.67-0.04c0.88,0.77,1.68,1.92,3.21,2.9c1.18-0.59,2.15-1.81,3.08-2.99l0.75,0.01c-0.15,0.86-0.69,1.78-0.71,2.7l2.74-2.44
			c0.19-0.11,0.34-0.22,0.52-0.27l4.56-0.07c-0.26,0.5-0.39,0.99-0.13,1.5c1.45,0.41,2.67,1.23,3.64,2.12
			c0.01,1.94-1.15,2.35-0.92,4c2.61,2.86,7.95,1.36,9.75-1.22l-0.01-1.08c-1.38-0.9-3.04-2.94-3.63-5.4l1.09-0.03
			c0.92,3.23,3.39,6.28,4.76,4.16c0.41-0.64,0.72-1.82,0.72-1.82c0.14-0.72,0.16-1.55,0.06-2.4l1.88-0.02
			c0.52,0.77,1.08,1.4,1.6,1.77c0.69,0.03,2.21,1.18,3.48,0.87c0.51-0.11,0.33-1.29-0.25-2.71l0.76,0.01
			c0.4,1.9,0.99,3.54,3.14,4.59c3.86,1.87,8.45-1.11,9.71-4.77l1.37,0.01c-0.79,2.75-2.93,5.22-4.25,5.81
			c-7.37,3.33-11.62-4.06-15.9-3c-1.3,0.34-1.86,3.79-2.59,4.84c-3.17,4.75-11.79,4-15.18,0.18c0.1-1.67,2.16-0.93,2.45-2.21
			c0.15-0.6,0.14-1.24-0.07-1.59c-1.6-0.53-3.18-1.98-4.56-2.66c-1.12,0.52-3.96,3.02-3.15,4.35c1.24,0.2,2.43-0.98,3.5-0.04
			c-1.12,0.39-2.55,0.78-3.25,2.1c-0.44,0.86-0.82,1.82-0.36,2.46c0.26,0.33,0.96,0.81,1.95,1.29l-2.38,0.01
			c-1.48-0.43-3.03-0.33-4.21-1.07c-3.5-2.13-1.1-7.13-4.33-9.34l-1.2,0.01c-0.3,0.89-0.64,1.65-0.94,2.42l-1.67,0.5
			c-0.89-0.53-1.89-0.82-2.43-1.66c-0.26-0.37-0.48-1-0.58-1.7L534.4,361.51z M483.85,362.1c2.17,0.76,5.49,3.48,7.6,2.48
			c-0.11-1.01-0.48-1.77-0.84-2.54l4.43-0.07c1.92,1.14,3.88,2.18,6.41,1.91l1.26-2l0.66-0.01c1.73,7.7,7,7.67,12.24,10.9
			l-3.65,0.04c-1.67-0.65-3.33-1.3-4.77-2.25c-1.67-1.12-2.4-3.32-4.03-4.43c-0.42,0.56-0.35,1.56-0.81,2.05
			c-0.8-0.51-0.8-1.53-1.49-2.14c-0.72-0.68-7.24-3.36-8.47-3.63c0.02,1.47,1.43,2.64,1.13,3.83c-1.02,1.41-7.57-1.74-8.95-2.17
			c0.28,1.63,1.68,1.74,2.1,3.34c-2.42,1.42-5.33,1.64-8.78,1.55l1.34,1.42l-0.11,0.96c-1.06,0.51-2.32,1.09-3.42,1.86l-1.78,0.04
			c1.34-1,2.68-1.97,3.14-2.84c-0.61-1.24-1.51-4.32,0.8-4.1c0.38,0.97,0.98,1.31,1.72,1.9c2.22,0.02,3.25-0.77,4.43-1.72
			c-0.1-1.29-1.15-3.22-0.49-4.37L483.85,362.1z"/>
		<path id="XMLID_1235_" class="st0" d="M566.47,348.13c-2.9,1.8,0.11,9.45,4.44,6.02C571,351.33,568.96,348.27,566.47,348.13
			 M622.89,346.65c-1.13,0.55-3.67,5-1.51,8.08l2.14,0.19c2.41-1.06,3.21-6.3,1.87-8C624.75,346.17,623.78,346.22,622.89,346.65z
			 M734.81,359.17c0.46-3.28-1.11-12.35-0.04-13.69c2.34,1.15,2.31,5.24,2.98,8.15c0.39,1.78,0.71,3.63,0.95,5.5l-1.71,0.02
			c-0.1-0.47-0.18-0.88-0.25-1.2c-0.08,0.39-0.16,0.79-0.25,1.23L734.81,359.17z M718.68,359.36c0.1-2.04,0.19-4.36,1.11-5.27
			c1.24-0.25,1.76,2.59,2.09,5.25l-1.33,0c-0.04-0.92-0.08-1.69-0.2-2.34l-0.35,2.34L718.68,359.36z M702.54,359.55
			c2.25-1.31,4.56-2.42,5.85-2.56c0.04,0.92-0.15,1.72-0.34,2.48l-1.73,0.04c0-0.06,0-0.1,0-0.16c-0.17,0-0.39,0.05-0.66,0.15
			L702.54,359.55z M633.5,360.36c-0.08-0.99-0.42-2.02,0.05-2.86c1.01-1.78,3.88-1.85,5.52-3.06c0.95-0.74,1.47-2.11,2.49-2.92
			c0.99,0.25,2.85,1.09,3.98,0.67c1.35-0.51,2.16-1.67,4.08-1.6c0.9,0.7,1.61,1.55,2.33,2.51c6.17-1.1,8.17,3.45,5.56,7.01
			l-3.48,0.02c-0.2-0.1-0.43-0.16-0.68-0.2c-0.45-0.02-0.88,0.07-1.28,0.24l-2.52,0.01c1.14-0.79,2.34-1.6,3.66-1.93
			c1.41-0.34,2.58,0.73,3.49,0.08c0.84-0.67,0.44-1.79,0.21-2.88c-2.53-2.79-4.18-0.42-6.92-0.37c0.27-1.32-0.38-4.17-2.81-2.64
			c-2.78,1.74-3.08,4.56-2.63,7.81l-3.58,0.04c-0.22-0.73-0.32-1.37,0.07-1.66l2.06,1.21c0.64-1.84,1.85-6.67-0.96-6.84
			c-0.54,0.62-1.6,1.87-2.26,2.3c-1.79,1.23-4.31,1.18-5.52,2.94c0.09,0.75,0.32,1.39,0.56,2.14L633.5,360.36z M615.07,360.57
			c-0.38-0.72-0.69-1.52-0.55-2.72c0.18-1.5,0.9-3.76,1.76-4.72l2.72-1.97c1.23-2.12,2.15-7.49,6.11-5.84
			c4.11,1.7,1.3,4.98,1.89,8.05c0.38,1.99,2.72,2.77,1.88,6.11c-0.06,0.28-0.2,0.57-0.36,0.88l-1.04,0.05
			c0.52-1.31,0.76-2.78,0.48-3.72c-0.35-1.14-3.14-1.24-3.14-1.24c-1.41,1.05-3.17,3.15-3.06,5.03l-1.87,0.02
			c1.81-1.68,1.74-6.83-1.43-6.69c-2.31-0.27-3.59,4.79-1.97,6.73L615.07,360.57z M590.58,360.86c0.51-1.5,0.46-3.1-0.42-4.52
			c-1.12-0.3-2.54-0.93-4.11-0.68c-1.51,0.23-3.43,0.82-4.83,0.18c-0.04-1.27,0.97-2.59,0.21-3.51c-0.94-1.18-5.02-2.24-4.26-4.52
			c0.91-2.15,3.48-2.47,4.29-3.91c0.63-1.12,0.52-2.61,1.05-3.63c1.35-0.34,3.41,0.24,4.57-0.4c0.39-2.24,0.34-4.62,2.95-4.74
			c0.9-0.05,1.74,0.01,2.28-0.4c0.85-0.63,1.15-2,2.02-2.67l0.73-0.12c1.78,0.58,2,2.41,3.41,3.2c0.83,0.48,1.65,0.34,2.19,1.08
			c0.59,1.01,0.2,1.86,0.99,2.38c1,0.32,2.24-0.51,3.02,0.34c0.9,0.89,0.58,3.07,1.5,3.95c0.97,0.96,2.87,1.24,3.87,2.13
			c-0.02,3.1-2.36,3.55-3.43,5.46l-0.31,3.15c-1.13,1.58-4.18,2.39-5.75,3.56c0.06,1.19,0.5,2.41,1.17,3.5l-1.59,0.06
			c-1.14-2.01-3.34-4.09-1.78-6.2c2.22-0.52,4.93-1.14,6.49-2.35c-0.09-3.38,1.91-3.74,3.31-5.6c-0.11-0.58-0.15-0.54-0.51-0.82
			c-0.59-0.89-2.18-0.64-3-1.3l-1.19-3.78c-1.14-0.03-2.44,1.26-3.2,0.04c-0.39-0.59-0.3-2.18-0.82-2.9
			c-0.49-0.48-1.51-0.82-2.15-1.18c-0.72-0.41-1.35-1.56-2.41-2.11c-0.53,0.57-1.45,2.11-2.26,2.36c-1.42,0.4-2.37-1-3.25,0.38
			l-1.28,4.6c-1.48-0.02-3.2-0.48-4.33,0.05l-0.68,3.26c-1.05,1.43-3.05,1.29-3.95,3.08c0.82,2.13,2.88,1.75,3.91,3.31l0.74,2.53
			c2.83,0.09,6.29-0.3,7.69,1.89c0.95,1.49,0.97,3.2,0.51,4.82L590.58,360.86z M563.64,361.17c-0.25-1.01-0.32-2.1-0.1-3.21
			l1.06-3.39c0.49-2.74-1.5-5.94,1.13-7.24c4.18-1.34,4.8,3.27,6.32,5.58c0.88,1.35,3.23,1.44,4.13,2.98
			c0.98,1.67,1.2,3.48,1.55,5.13l-0.76-0.01c-1.15-2.89-3.81-6.78-5.26-5.56c-1.97,0.33-1.02,3.46,0.43,5.61l-1.88,0.02
			c-0.32-2.69-1.72-5.55-3.6-5.27c-0.92,0.15-1.96,1.39-1.96,1.39c-0.48,1.03-0.39,2.52,0.02,3.96L563.64,361.17z M547.07,361.37
			c0.25-0.34,0.49-0.63,0.72-0.93c0.1,0.3,0.1,0.6,0.04,0.92L547.07,361.37z M537.11,361.48c0.26-0.47,0.5-0.87,0.79-0.91
			c1.33-0.19,2.14,0.21,2.87,0.87L537.11,361.48z M532.79,361.53c-0.14-0.86-0.12-1.83,0.17-2.5c0.9-2.11,2.42-3.19,5.26-3.31
			l2.88-0.26l1.67-2.32c1.53-0.06,2.4,1.56,3.98,1.04c0.84-0.28,1.17-1.07,2.41-1.24c1.13,0.91,1.69,2.47,2.81,3.34l3.76,1.77
			c0.33,1.35-0.39,2.33-0.79,3.22l-4.56,0.05c1.54-0.66,2.51,0.67,3.8-1.81l-0.13-0.84c-2.18-0.79-3.41-2.2-5.22-3.3
			c-2.61,1.16-3.07-0.01-5.48-0.59l-0.8,0.91c0.04,2.36,2.25,3.72,1.61,5.68l-0.16,0.02c-0.99-1.91-2.24-3.8-4.66-4.24
			c-2.04-0.37-7.02,0.45-4.92,4.33L532.79,361.53z M502.71,361.88l0.5-0.8c0.05,0.28,0.11,0.52,0.16,0.77L502.71,361.88z
			 M490.6,362.03c-0.32-0.68-0.66-1.4-0.77-2.35c1.94,0.34,3.57,1.36,5.21,2.32L490.6,362.03z M483.51,362.11
			c0.02,0,0.05-0.04,0.07-0.08c0.1,0.02,0.18,0.06,0.27,0.08L483.51,362.11z"/>
		<path id="XMLID_1232_" class="st0" d="M542.07,415.78c1.23-0.07,2.43,0.69,3.22,1.44c0.22,1.62-0.48,2.85-0.5,4.26
			c1.34,0.83,2.95,1.33,4.06,2.52c-0.02,1.26-0.42,2.35-1.36,3.09c-0.68-0.07-0.73,0.39-1.47,0.41c-1.1,0.07-2.29-0.57-3.25-0.87
			c-0.96,1.36-1.53,4.5-4.25,3.55c-0.79-0.3-1.23-0.35-1.79-1.12c-0.1-1.4-0.03-2.89,0.56-4.26c-0.92-0.67-4.14-1.84-4.31-3.38
			c-0.08-0.69,0.38-1.23,0.75-1.71c1.42-1.91,3.47-1.05,5.5-0.42l0.2-0.25C539.7,417.44,540.89,416.88,542.07,415.78 M541.95,418.62
			l-1.16,2.58c-2.16,0.59-2.84-0.44-4.52-0.42c-0.17,0.4-0.43,0.54-0.2,0.98c0.97,0.17,2.21,0.92,2.95,1.52
			c0.67,2.04-0.1,2.62-0.1,4.25l0.8,0.24l1.67-3.09c2.01-0.35,2.58,0.19,4.08,0.53l0.39-0.64l-1.71-1.03
			c-2.51-0.42-1.04-3.01-1.18-4.53L541.95,418.62z"/>
		<path id="XMLID_1229_" class="st0" d="M600.93,405.3c1.1,0.48,1.84,1.69,2.2,2.73c-0.52,1.54-1.71,2.33-2.36,3.56
			c0.81,1.35,2.01,2.54,2.49,4.09c-0.63,1.09-1.46,1.9-2.64,2.13c-0.58-0.36-0.8,0.01-1.51-0.29c-1.01-0.46-1.78-1.56-2.48-2.25
			c-1.48,0.78-3.42,3.3-5.4,1.22c-0.59-0.62-0.94-0.87-1.12-1.79c0.55-1.31,1.3-2.59,2.46-3.54c-0.52-1.01-2.85-3.52-2.31-4.98
			c0.24-0.65,0.9-0.91,1.43-1.17c2.15-1.05,3.6,0.64,5.09,2.12l0.3-0.12C598.04,405.7,599.36,405.75,600.93,405.3 M599.51,407.78
			l-2.2,1.76c-2.18-0.44-2.32-1.68-3.83-2.43c-0.35,0.28-0.62,0.29-0.61,0.82c0.8,0.57,1.52,1.8,1.94,2.67
			c-0.33,2.11-1.28,2.28-2.04,3.72l0.63,0.6l2.87-2c1.94,0.59,2.21,1.35,3.4,2.32l0.63-0.41l-1.04-1.68
			c-2.06-1.51,0.44-3.15,1.02-4.59L599.51,407.78z"/>
		<path id="XMLID_1226_" class="st0" d="M651.72,418.51c0.86,0.87,1.11,2.24,1.08,3.34c-1.05,1.24-2.44,1.56-3.5,2.48
			c0.28,1.54,0.99,3.1,0.87,4.71c-0.97,0.81-2.04,1.25-3.22,1.05c-0.41-0.56-0.77-0.29-1.31-0.82c-0.77-0.77-1.1-2.06-1.5-2.99
			c-1.67,0.21-4.4,1.88-5.48-0.79c-0.32-0.79-0.57-1.15-0.41-2.06c0.98-1.02,2.14-1.96,3.57-2.44c-0.13-1.13-1.41-4.32-0.36-5.47
			c0.45-0.52,1.16-0.54,1.74-0.58c2.4-0.21,3.13,1.88,3.99,3.8l0.33,0C648.89,417.86,650.1,418.36,651.72,418.51 M649.51,420.3
			l-2.68,0.87c-1.87-1.2-1.56-2.41-2.7-3.65c-0.42,0.17-0.68,0.05-0.86,0.53c0.53,0.83,0.79,2.26,0.86,3.2
			c-1.08,1.88-2.03,1.66-3.25,2.77l0.37,0.75l3.41-0.82c1.59,1.26,1.57,2.06,2.35,3.4l0.73-0.16l-0.36-1.97
			c-1.38-2.13,1.52-2.78,2.59-3.89L649.51,420.3z"/>
		<path id="XMLID_1223_" class="st0" d="M600.69,539.5c1.16,0.38,2.01,1.5,2.48,2.48c-0.36,1.59-1.46,2.5-1.99,3.8
			c0.95,1.24,2.27,2.29,2.92,3.8c-0.5,1.15-1.25,2.04-2.4,2.4c-0.6-0.31-0.79,0.11-1.53-0.14c-1.04-0.33-1.92-1.36-2.7-1.97
			c-1.39,0.92-3.06,3.65-5.24,1.77c-0.65-0.55-1.02-0.78-1.3-1.65c0.42-1.34,1.03-2.71,2.08-3.81c-0.63-0.94-3.21-3.18-2.82-4.68
			c0.17-0.69,0.79-1.01,1.3-1.34c2.04-1.27,3.65,0.29,5.27,1.57l0.3-0.13C597.87,540.21,599.18,540.09,600.69,539.5 M599.52,542.09
			l-1.98,1.99c-2.23-0.21-2.51-1.42-4.08-2.01c-0.29,0.34-0.58,0.35-0.53,0.85c0.86,0.49,1.72,1.66,2.21,2.47
			c-0.1,2.15-1.03,2.41-1.63,3.92l0.68,0.52l2.65-2.29c2.01,0.42,2.35,1.11,3.63,1.96l0.58-0.48l-1.2-1.57
			c-2.2-1.29,0.1-3.18,0.53-4.67L599.52,542.09z"/>
		<path id="XMLID_1220_" class="st0" d="M650.02,465.15c1.17,0.35,2.03,1.47,2.53,2.45c-0.35,1.59-1.42,2.51-1.92,3.84
			c0.96,1.23,2.31,2.27,2.97,3.77c-0.48,1.15-1.21,2.04-2.36,2.44c-0.6-0.32-0.78,0.09-1.51-0.12c-1.07-0.32-1.96-1.32-2.75-1.93
			c-1.37,0.95-2.99,3.71-5.2,1.86c-0.65-0.52-1.04-0.74-1.32-1.63c0.39-1.33,0.96-2.73,1.99-3.82c-0.62-0.94-3.24-3.14-2.89-4.65
			c0.17-0.69,0.79-1.02,1.28-1.36c2.01-1.31,3.65,0.22,5.32,1.49l0.28-0.17C647.23,465.92,648.53,465.79,650.02,465.15
			 M648.92,467.79l-1.97,2c-2.21-0.16-2.51-1.36-4.08-1.91c-0.3,0.31-0.59,0.36-0.53,0.87c0.87,0.47,1.76,1.61,2.27,2.42
			c-0.08,2.14-1,2.4-1.56,3.94l0.67,0.5l2.63-2.33c2.01,0.37,2.35,1.12,3.66,1.91l0.58-0.5l-1.25-1.54
			c-2.21-1.23,0.05-3.17,0.46-4.67L648.92,467.79z"/>
		<path id="XMLID_1217_" class="st0" d="M545.16,466.38c1.17,0.35,2.03,1.47,2.52,2.45c-0.35,1.59-1.41,2.51-1.91,3.84
			c0.98,1.23,2.32,2.27,2.97,3.77c-0.48,1.15-1.21,2.04-2.35,2.44c-0.62-0.32-0.8,0.09-1.53-0.12c-1.06-0.32-1.96-1.32-2.75-1.93
			c-1.37,0.95-2.99,3.71-5.2,1.86c-0.65-0.52-1.05-0.74-1.32-1.63c0.39-1.33,0.97-2.73,2.01-3.82c-0.64-0.94-3.26-3.14-2.9-4.65
			c0.17-0.69,0.78-1.02,1.28-1.36c2.01-1.31,3.65,0.22,5.32,1.49l0.26-0.17C542.36,467.14,543.66,467.02,545.16,466.38
			 M544.05,469.01l-1.96,2c-2.23-0.16-2.52-1.36-4.11-1.91c-0.3,0.31-0.58,0.35-0.51,0.86c0.86,0.47,1.74,1.61,2.26,2.42
			c-0.07,2.14-1.01,2.4-1.56,3.94l0.69,0.5l2.61-2.33c2.01,0.37,2.36,1.12,3.66,1.91l0.57-0.5l-1.24-1.54
			c-2.21-1.23,0.05-3.17,0.44-4.67L544.05,469.01z"/>
		<path id="XMLID_1214_" class="st0" d="M547.05,515.08c1.21-0.07,2.41,0.69,3.2,1.41c0.22,1.62-0.46,2.87-0.48,4.27
			c1.34,0.83,2.95,1.35,4.07,2.52c-0.06,1.28-0.45,2.34-1.37,3.1c-0.7-0.07-0.73,0.37-1.49,0.42c-1.09,0.05-2.28-0.58-3.23-0.88
			c-0.98,1.35-1.55,4.51-4.27,3.54c-0.78-0.29-1.23-0.35-1.78-1.1c-0.1-1.4-0.03-2.9,0.57-4.28c-0.92-0.65-4.14-1.82-4.32-3.37
			c-0.07-0.7,0.38-1.23,0.74-1.69c1.44-1.93,3.49-1.06,5.5-0.41l0.22-0.25C544.68,516.74,545.85,516.17,547.05,515.08 M546.9,517.91
			l-1.14,2.57c-2.17,0.59-2.84-0.44-4.52-0.42c-0.19,0.41-0.43,0.53-0.2,1c0.98,0.14,2.2,0.93,2.96,1.52
			c0.65,2.03-0.12,2.6-0.13,4.23l0.82,0.25l1.66-3.09c2.01-0.36,2.59,0.21,4.09,0.53l0.37-0.67l-1.68-1.01
			c-2.51-0.44-1.05-3.04-1.19-4.55L546.9,517.91z"/>
		<path id="XMLID_1211_" class="st0" d="M651.06,515.54c0.97,0.71,1.43,2.06,1.58,3.12c-0.83,1.42-2.16,1.94-3.06,3.02
			c0.51,1.46,1.46,2.89,1.6,4.51c-0.84,0.94-1.84,1.55-3.02,1.54c-0.49-0.48-0.8-0.16-1.42-0.6c-0.9-0.65-1.41-1.88-1.97-2.72
			c-1.6,0.45-4.03,2.54-5.53,0.06c-0.43-0.73-0.73-1.04-0.7-1.98c0.8-1.15,1.78-2.25,3.14-2.97c-0.3-1.08-2.07-4.02-1.24-5.33
			c0.38-0.6,1.07-0.71,1.65-0.87c2.33-0.58,3.39,1.39,4.55,3.15l0.31-0.07C648.16,515.33,649.43,515.65,651.06,515.54
			 M649.15,517.65l-2.51,1.28c-2.05-0.9-1.93-2.15-3.26-3.17c-0.39,0.22-0.65,0.16-0.76,0.64c0.64,0.74,1.12,2.11,1.34,3.04
			c-0.77,2-1.73,1.97-2.76,3.23l0.47,0.69l3.24-1.35c1.77,1,1.86,1.78,2.84,3l0.71-0.3l-0.67-1.85c-1.7-1.91,1.08-2.98,1.93-4.28
			L649.15,517.65z"/>
		<path id="XMLID_1200_" d="M609.19,585.26c11.93-0.42,11.45,12.92,1.5,16.02c-1.31,0.41-3.14,1.17-5.13,0.66
			c-5.29-1.39-9.99-7.57-5.54-13.11C602.04,586.32,605.87,586.62,609.19,585.26 M608.73,587.74c-1.2,0.59-4.9,1.5-5.87,2.23
			c-3.65,2.71-1.02,6.96,1.96,8.87c2.73,1.78,6.07,1.38,8.24-1.07C618.65,591.48,613.35,587.66,608.73,587.74z M578.53,584.64
			c2.53,0,13.61,0.36,14.75,1.39c0.98,0.89,0.37,3.41-0.08,4.19l-0.47,0.01c-1.03-1.09-3.94-3.89-6.11-2.64
			c-0.39,2.46-0.44,7.84,0.11,10.6l0.87,3.11c-2.58,0.56-5.37,0.27-7.32-0.39l-0.01-0.48l0.37-0.49c3.43-1.18,2.6-8.44,3.5-12.17
			c-0.33-0.31-1.42-0.57-1.75-0.89c-2.53-0.53-3.56,1.99-5.23,2.82C576.17,587.8,577.4,585.54,578.53,584.64z M635.23,580.41
			c3.63-0.14,3.72,0.74,3.76,4.67c0.02,1.38,0.77,3.93-2.3,4.49l7.09,4.25l-0.36,0.72c-1.4,0.44-2.14,1.09-4.05,1.13
			c-1.67-1.96-5.83-5.3-9.15-4.2l-0.71,0.43c0.08,2.79,2.13,4.04,2.59,6.14c-1.52,0.78-3.68,1.62-5.26,1.36l1.02-2.58
			c-0.33-2.17-2.97-9.46-4.16-10.77c-0.54-0.6-1.72-0.73-2.29-1.3C622.91,582.02,632.09,582.08,635.23,580.41z M633.3,582.98
			c-1.4,0.62-5.72,1.18-6.93,1.88c-0.51,1.53,0.41,2.71,1.51,4.14c2.85,1.23,9.45-1.02,8.7-3.81
			C636.38,583.67,635.65,582.4,633.3,582.98z M562.09,580.54c2.38-0.11,9.89,1.06,10.55,2c0.65,1.2-0.21,4.37-0.78,5.4l-0.59,0.12
			c-0.74-1.19-1.38-3.15-2.57-3.89c-1-0.67-3.04-1.94-4.4-1.86c-4.48,0.25-7.27,1.52-7.5,5.73c-0.24,3.76,5.2,9.52,9.52,8.12
			c2.35-0.75,3.14-3,5.35-3.89c1.65,0.81,0.4,2.55-0.56,3.47c-1.8,1.77-7.55,3.25-10.39,1.69c-4.42-2.42-9.06-8.49-4.37-14.21
			C557.84,581.44,559.6,581.48,562.09,580.54z M648.21,574.13l1.09,0.24l-1.06,2.16c0.01,2.63,3.32,9.06,4.68,10.72
			c0.56,0.43,1.93,0.21,2.48,0.65c-0.23,0.27-1.84,1.5-2.09,1.8c-1.59,0.53-1.07,1.99-3.09,1.68c-1.75-4.46-2.15-9.25-4.8-12.62
			c-0.79-0.01-3.64,0.27-4.22,0l-0.12-0.58C643.18,576.56,645.92,575.69,648.21,574.13z M548.12,574.72
			c2.27,0.02,4.26,1.51,5.66,2.55l0.01,0.72c-1.98,3.23-4.84,6.48-5.73,10.73l0.61,2.75c-2.25,0.26-5.71-1.23-6.49-2.57
			c-0.04-0.28,1.5-0.53,1.45-0.81c1.77-0.85,5.28-8.08,5.54-10.37C549.28,576.84,547.81,575.6,548.12,574.72z M662.41,568.83
			c-0.54,1.94-0.06,5,0.42,6.46c1.88-0.21,3.51-1.95,4.28-3.29C666.33,570.6,664.13,569.18,662.41,568.83z M662.97,565.33
			c1.3,0.25,2.34,2.4,3.39,3.18l6.27,4.23l2.88,0.93c-1.04,1.78-1.07,2.76-3.21,3.31c-0.92-1.41-1.11-3.17-3.38-3.21
			c-1.46,0.5-8.77,5.24-4.71,7.35l1.68,0.22l0.26,0.6c-0.91,1.67-3.99,3.82-6.31,4.03c0.11-1.65,1.33-2.27,1.64-3.73
			c0.46-2.26-0.9-9.59-1.82-11.22l-1.56-1.45l0.12-0.58C659.9,566.83,660.55,566.82,662.97,565.33z"/>
		<path id="XMLID_1197_" class="st0" d="M662.97,565.33c1.3,0.25,2.34,2.4,3.39,3.18l6.27,4.23l2.88,0.93
			c-1.04,1.78-1.07,2.76-3.21,3.31c-0.92-1.41-1.11-3.17-3.38-3.21c-1.46,0.5-8.77,5.24-4.71,7.35l1.68,0.22l0.26,0.6
			c-0.91,1.67-3.99,3.82-6.31,4.03l-0.24-0.34c0.35-1.31,1.57-1.92,1.88-3.39c0.46-2.26-0.9-9.59-1.82-11.22l-1.56-1.45l0.12-0.58
			C659.9,566.83,660.55,566.82,662.97,565.33 M662.41,568.83l-0.37,0.35c-0.17,1.59,0.31,4.64,0.79,6.1
			c1.88-0.21,3.51-1.95,4.28-3.29C666.33,570.6,664.13,569.18,662.41,568.83z"/>
		<path id="XMLID_1196_" d="M548.12,574.72c2.27,0.02,4.26,1.51,5.66,2.55c0,0.25,0.01,0.49,0.01,0.72
			c-1.98,3.23-4.84,6.48-5.73,10.73c0.19,0.93,0.41,1.83,0.61,2.75c-0.07,0.07-0.15,0.16-0.25,0.24c-2.01,0.02-5.46-1.47-6.24-2.81
			c-0.04-0.28,1.5-0.53,1.45-0.81c1.77-0.85,5.28-8.08,5.54-10.37C549.28,576.84,547.81,575.6,548.12,574.72"/>
		<path id="XMLID_1195_" d="M648.21,574.13c0.37,0.07,0.72,0.14,1.09,0.24c0.03,0.11,0.07,0.23,0.12,0.35
			c-0.41,0.61-0.78,1.2-1.18,1.81c0.01,2.63,3.32,9.06,4.68,10.72c0.56,0.43,1.93,0.21,2.48,0.65c-0.23,0.27-1.84,1.5-2.09,1.8
			c-1.59,0.53-1.07,1.99-3.09,1.68c-1.75-4.46-2.15-9.25-4.8-12.62c-0.79-0.01-3.64,0.27-4.22,0c-0.04-0.19-0.08-0.4-0.12-0.58
			C643.18,576.56,645.92,575.69,648.21,574.13"/>
		<path id="XMLID_1194_" d="M562.09,580.54c2.38-0.11,9.89,1.06,10.55,2c0.65,1.2-0.21,4.37-0.78,5.4
			c-0.21,0.04-0.41,0.08-0.59,0.12c-0.74-1.19-1.38-3.15-2.57-3.89c-1-0.67-3.04-1.94-4.4-1.86c-4.48,0.25-7.27,1.52-7.5,5.73
			c-0.24,3.76,5.2,9.52,9.52,8.12c2.35-0.75,3.14-3,5.35-3.89c1.65,0.81,0.4,2.55-0.56,3.47c-1.8,1.77-7.55,3.25-10.39,1.69
			c-4.42-2.42-9.06-8.49-4.37-14.21C557.84,581.44,559.6,581.48,562.09,580.54"/>
		<path id="XMLID_1191_" class="st0" d="M635.23,580.41c3.63-0.14,3.72,0.74,3.76,4.67c0.02,1.38,0.77,3.93-2.3,4.49l7.09,4.25
			l-0.36,0.72c-1.4,0.44-2.14,1.09-4.05,1.13c-1.67-1.96-5.83-5.3-9.15-4.2l-0.71,0.43c0.08,2.79,2.13,4.04,2.59,6.14l-0.12,0.23
			c-1.4,0.55-3.56,1.39-5.14,1.13l1.02-2.58c-0.33-2.17-2.97-9.46-4.16-10.77c-0.54-0.6-1.72-0.73-2.29-1.3
			C622.91,582.02,632.09,582.08,635.23,580.41 M633.3,582.98c-1.4,0.62-5.72,1.18-6.93,1.88c-0.51,1.53,0.41,2.71,1.51,4.14
			c2.85,1.23,9.45-1.02,8.7-3.81C636.38,583.67,635.65,582.4,633.3,582.98z"/>
		<path id="XMLID_1190_" d="M578.53,584.64c2.53,0,13.61,0.36,14.75,1.39c0.98,0.89,0.37,3.41-0.08,4.19c-0.15,0-0.31,0-0.47,0.01
			c-1.03-1.09-3.94-3.89-6.11-2.64c-0.39,2.46-0.44,7.84,0.11,10.6c0.29,1.05,0.59,2.08,0.87,3.11c-0.09,0.09-0.16,0.15-0.24,0.25
			c-2.34,0.31-5.13,0.03-7.08-0.64c0-0.17,0-0.34-0.01-0.48c0.12-0.16,0.23-0.32,0.37-0.49c3.43-1.18,2.6-8.44,3.5-12.17
			c-0.33-0.31-1.42-0.57-1.75-0.89c-2.53-0.53-3.56,1.99-5.23,2.82c-0.12-0.04-0.23-0.08-0.35-0.12
			C576.17,587.8,577.4,585.54,578.53,584.64"/>
		<path id="XMLID_1187_" class="st0" d="M609.19,585.26c11.93-0.42,11.45,12.92,1.5,16.02c-1.31,0.41-3.14,1.17-5.13,0.66
			c-5.29-1.39-9.99-7.57-5.54-13.11C602.04,586.32,605.87,586.62,609.19,585.26 M608.73,587.74c-1.2,0.59-4.9,1.5-5.87,2.23
			c-3.65,2.71-1.02,6.96,1.96,8.87c2.73,1.78,6.07,1.38,8.24-1.07C618.65,591.48,613.35,587.66,608.73,587.74z"/>
		<path id="XMLID_1184_" class="st0" d="M590.37,338.5c1.53,0.53,2.23,2.94,3,4.25l0.75-0.14c0.19-1.5,0.95-3.15,2-3.87l0.16,0.29
			c0.66,1.38-0.58,3.26-0.24,5.16l0.9,0.86c2.15,0.05,4.71-1.13,6.48-0.35l-0.14,0.73l-2.49,1.22c1.05,0.75,3.04,0.46,3.99,1.27
			l-0.29,0.46l-3.67,0.92l2.38,1.59l0.15,0.72l-3.24,0.04l-3.82,1.83c-2.8,0.88-5.11-0.77-7.22-1.11c-1.72-0.27-3.05,0.96-4.87,0.5
			l0.14-0.45c1.26-0.56,2.53-0.99,3.36-1.96l-0.14-0.43c-0.98-0.26-2.28-0.32-2.98-0.85c0.77-0.78,2.13-1.06,2.79-1.81l-0.01-0.43
			l-2.09-1.75l-0.01-0.43l0.3,0c2.62-0.94,4.41,2.26,6.03-1.1C591.09,342.26,590.11,339.96,590.37,338.5 M589.74,346.96
			c-0.94,1.06-0.22,2.28,1,3.43c4.45,4.17,7.55,1.04,8.09-2.28C599.13,346.17,591.93,344.42,589.74,346.96z"/>
		<path id="XMLID_1181_" class="st0" d="M590.37,338.5c1.53,0.53,2.23,2.94,3,4.25l0.75-0.14c0.19-1.5,0.95-3.15,2-3.87l0.16,0.29
			c0.66,1.38-0.58,3.26-0.24,5.16l0.9,0.86c2.15,0.05,4.71-1.13,6.48-0.35l-0.14,0.73l-2.49,1.22c1.05,0.75,3.04,0.46,3.99,1.27
			l-0.29,0.46l-3.67,0.92l2.38,1.59l0.15,0.72l-3.24,0.04l-3.82,1.83c-2.8,0.88-5.11-0.77-7.22-1.11c-1.72-0.27-3.05,0.96-4.87,0.5
			l0.14-0.45c1.26-0.56,2.53-0.99,3.36-1.96l-0.14-0.43c-0.98-0.26-2.28-0.32-2.98-0.85c0.77-0.78,2.13-1.06,2.79-1.81l-0.01-0.43
			l-2.09-1.75l-0.01-0.43l0.3,0c2.62-0.94,4.41,2.26,6.03-1.1C591.09,342.26,590.11,339.96,590.37,338.5 M589.74,346.96
			c-0.94,1.06-0.22,2.28,1,3.43c4.45,4.17,7.55,1.04,8.09-2.28C599.13,346.17,591.93,344.42,589.74,346.96z"/>
		<path id="XMLID_1180_" d="M652.25,540.46c4.58-1.23,16.31,0.99,19.25,2.69c0.11,0.51,0.08,0.65,0.01,0.96
			c-1.92,0.91-3.87,1.6-6.31,2.25c-0.52-0.35-1.05-0.67-1.56-1.02c0.06-0.13,0.15-0.29,0.23-0.43c1.46,0.02,3.73,0.04,4.51-1.4
			c-0.03-0.12-0.04-0.24-0.08-0.34c-2.08-0.52-4.17-1.06-6.24-1.56c-3.26-0.51-6.4-0.58-10-0.48c-0.09-0.16-0.16-0.29-0.24-0.42
			C651.97,540.62,652.1,540.54,652.25,540.46"/>
		<path id="XMLID_1177_" d="M511.34,381.12l-3.88-0.79l-2.64-1.39l-0.57-0.72l-0.19-2.04l-1.25-1.52l-0.01-0.42l0.26-0.2l1.49,0.39
			l6.5,2.22l1.64,1.02l2.29,3.93l0.1,0.44l-0.18,0.34l-0.8-0.23L511.34,381.12 M512.14,376.45l-1.68-1.01l0.01-0.31l0.95-0.09
			l3.08,1.77l0.56,0.75l-0.01,0.43l-0.25,0.21L512.14,376.45z"/>
		<polyline id="XMLID_1176_" points="512.14,376.45 510.46,375.44 510.48,375.13 511.43,375.04 514.51,376.81 515.07,377.56 
			515.06,377.99 514.81,378.2 512.14,376.45 		"/>
		<polyline id="XMLID_1175_" points="511.34,381.12 507.47,380.33 504.83,378.94 504.25,378.22 504.07,376.18 502.82,374.66 
			502.81,374.24 503.08,374.04 504.57,374.44 511.07,376.66 512.71,377.68 514.99,381.61 515.09,382.05 514.91,382.39 
			514.11,382.16 511.34,381.12 		"/>
		<polyline id="XMLID_1174_" points="687.88,374.36 688.02,373.89 688.99,373.49 693.62,372.74 695.25,373.11 695.65,373.45 
			695.82,373.75 695.3,374.55 691.96,375.99 690.1,376.7 689.1,376.49 688.37,375.77 687.88,374.36 		"/>
		<polyline id="XMLID_1173_" points="687.88,374.36 688.02,373.89 688.99,373.49 693.62,372.74 695.25,373.11 695.65,373.45 
			695.82,373.75 695.3,374.55 691.96,375.99 690.1,376.7 689.1,376.49 688.37,375.77 687.88,374.36 		"/>
		<path id="XMLID_1170_" class="st0" d="M529.23,603c-1.52-0.61-4.57-2.44-3.59-3.85l4.39-6.18l0.4,0.1c0.49,0.28,1.04,0.63,1.49,1
			c2.03,1.46,3.07,3.47,2.62,5.13C533.98,601.26,532.42,603.85,529.23,603 M533.12,594.53l-6.48-4.61l-0.05,0.22
			c0.6,0.44,1.07,0.88,1.25,1.49c-0.01,0.24-0.05,0.45-0.13,0.61l-4.14,5.82c-0.16,0.11-0.44,0.2-0.68,0.24
			c-0.6-0.06-1.27-0.4-1.84-0.81l-0.03,0.37l7.12,5.01c0.38,0.24,0.79,0.46,1.2,0.65c3.59,1.65,6.27,0.3,7.08-2.11
			C537.16,599.35,535.69,596.4,533.12,594.53z"/>
		<path id="XMLID_1169_" d="M551.49,613.34l0.13-0.49l-0.27-0.14c-0.57,0.75-1.72,1.21-3.09,0.65l-2.49-1.05
			c-0.97-0.44-1.79-1.27-1.58-2.04l1.38-3.05c1.61,0.75,3.25,1.78,2.82,3.06l0.29,0.14l1.56-3.47c-0.13-0.09-0.3-0.13-0.47-0.17
			c-0.86,1.35-2.52,0.9-4.06,0.11l1.7-3.73l0.28,0.02l2.79,1.25c1.49,0.69,2.15,1.8,2.06,2.86c0.12,0.06,0.22,0.06,0.37,0.08
			l0.74-1.66l-0.1-0.22l-10.13-4.56l-0.07,0.17c0.77,0.33,1.99,0.94,1.74,1.51l-3.17,6.98c-0.33,0.75-2.58-0.01-2.58-0.01
			c-0.03,0.03-0.06,0.12-0.09,0.18l11.53,5.21L551.49,613.34"/>
		<path id="XMLID_1168_" d="M566.43,614.73l-3.87-2.62c-0.1-0.12-0.23-0.22-0.34-0.34c-0.88-1.04-0.17-2.18,1.26-2.32
			c2.61-0.03,4.35,1.84,4.42,3.52c0.08,0.04,0.26,0.02,0.41,0.04l0.52-2.39l-0.28-0.09l-0.41,0.31l-0.32-0.06
			c-0.77-0.58-1.66-1.11-2.66-1.41c-0.48-0.16-0.99-0.25-1.51-0.35c-2.28-0.22-3.86,0.8-3.7,2.44c0.55,1.86,3.32,3.21,5.17,4.52
			c1.16,1.22,0.92,2.62-0.74,3.01c-2.36,0.36-4.68-1.06-5.29-2.76l-0.34-1.36c-0.1-0.07-0.26-0.15-0.38-0.17l-0.63,2.8
			c0.08,0.02,0.17,0.04,0.2,0.04c0.2-0.07,0.41-0.17,0.63-0.25c0.07,0.04,0.2,0.14,0.25,0.2c2.26,1.73,5.94,2.72,8.21,1.49
			C568.59,617.93,568.12,616.12,566.43,614.73"/>
		<path id="XMLID_1165_" class="st0" d="M583.77,623.01c-1.64,0.12-5.2-0.11-4.94-1.8l1.09-7.49l0.42-0.1
			c0.55,0.01,1.2,0.08,1.76,0.19c2.48,0.39,4.3,1.72,4.67,3.42C587.21,619.3,586.98,622.32,583.77,623.01 M583.38,613.7l-7.85-1.17
			l0.06,0.24c0.72,0.1,1.36,0.27,1.78,0.73c0.1,0.19,0.17,0.42,0.16,0.6l-1.03,7.06c-0.1,0.19-0.31,0.4-0.51,0.55
			c-0.54,0.21-1.32,0.2-1.99,0.11l0.14,0.33l8.61,1.24c0.44,0.04,0.9,0.05,1.37,0.03c3.94-0.14,5.7-2.57,5.34-5.08
			C589.17,616.18,586.52,614.19,583.38,613.7z"/>
		<path id="XMLID_1164_" d="M608.28,623.05l-0.08-0.49l-0.28-0.01c-0.24,0.9-1.12,1.79-2.57,1.84l-2.71,0.06
			c-1.06-0.01-2.16-0.45-2.29-1.23l0.03-3.35c1.77,0,3.69,0.28,3.8,1.63l0.34,0.01l0.01-3.8c-0.15-0.02-0.33-0.02-0.51,0.03
			c-0.24,1.59-1.93,1.85-3.66,1.77l0.02-4.11l0.28-0.09l3.05,0.01c1.63,0.01,2.68,0.79,3.03,1.76c0.14,0,0.23-0.02,0.36-0.07
			l0.01-1.79l-0.17-0.2l-11.1-0.05l-0.01,0.2c0.83-0.03,2.19,0.06,2.19,0.66l-0.03,7.67c-0.01,0.83-2.39,1.03-2.39,1.03
			c0,0.06,0,0.16,0,0.22l12.67,0.06L608.28,623.05"/>
		<path id="XMLID_1163_" d="M630.53,620.07c-0.43,0.02-0.72-0.16-0.82-0.42l-2.3-8.77c-0.16,0.04-0.36,0.13-0.54,0.17l-0.91,0.6
			c-0.76,0.32-1.61,0.68-2.4,0.92l0.09,0.17c0.54-0.14,1.13-0.23,1.72-0.3c0.36,0.05,0.67,0.31,0.68,0.6l1.85,7.09
			c-0.2,0.68-1.07,1.1-2.03,1.27l0.02,0.23l6.17-1.61l-0.01-0.22L630.53,620.07"/>
		<path id="XMLID_1159_" class="st0" d="M642.87,615.68c-2.3-0.42-2.26-2.77-0.71-4.39c2.03-0.21,5.45-0.62,5.37,1.42
			C647.42,614.31,644.9,615.97,642.87,615.68 M644.07,609.67l-3.05,0.16c-0.18,0-0.42-0.02-0.63-0.06c-1.75-0.5-1.37-2.51,0.73-3.33
			c0.8-0.37,1.55-0.47,2.26-0.38C645.17,606.51,645.24,608.27,644.07,609.67z M644.69,609.54c0.94-0.92,1.53-1.9,1.37-2.94
			c-0.65-1.62-3.6-1.27-5.63-0.22c-1.3,0.79-2.16,1.79-2.28,2.89c0.01,1.54,1.67,1.99,3.5,2.01c-0.39,0.38-0.87,0.8-1.23,1.24
			c-0.96,1.28-1.1,2.52,0.09,3.29c0.65,0.43,1.7,0.38,2.68,0.25c2.8-0.46,5.94-2.6,5.34-4.74
			C648.33,609.91,646.5,609.47,644.69,609.54z"/>
		<path id="XMLID_1156_" class="st0" d="M660.66,608.23c-2.94,1.48-4.09-1.04-4.58-2.53c0.17-1.13,0.89-2.15,2.31-2.86
			c0.91-0.42,1.98-0.33,2.46,0.12c0.35,0.45,0.67,0.89,0.9,1.35C662.36,605.42,662.78,607.19,660.66,608.23 M655.97,604.77
			c-0.11,0.09-0.17,0.13-0.31,0.2c-0.39-0.75-0.67-1.62-0.79-2.48c-0.22-1.11,0.32-2.57,2.08-3.14c0.79-0.23,1.34,0.23,1.94,0.43
			c0.6,0.06,1.55-0.5,1.36-1.08c-0.52-0.84-2.29-0.27-3.38,0.26c-0.65,0.34-1.25,0.73-1.84,1.25c-2.68,2.89-1.65,6.46,0.36,8.18
			c1.33,1.08,3.74,1.16,5.88-0.21c0.51-0.31,0.94-0.69,1.38-1.12c1.64-1.81,1.45-3.71,0.1-4.91
			C660.88,600.89,656.91,602.39,655.97,604.77z"/>
		<path id="XMLID_1153_" class="st0" d="M675.43,600.19c-2.33,1.45-4.7-2.36-4.91-2.7c0,0-2.53-4.17,0.08-5.71
			c2.61-1.52,4.77,2.14,5.01,2.53C675.88,594.76,677.82,598.68,675.43,600.19 M675.54,591.54c-1.24-0.77-3.28-1.19-5.21-0.08
			c-0.31,0.2-0.62,0.48-0.9,0.73c-2.25,2.36-1.52,5.21-0.35,6.82l1.17,1.07c0.99,0.55,2.02,0.98,3.46,0.88
			c2.52-0.31,4.24-2.65,4.31-4.48l-0.18-1.62l-0.5-1.47C676.91,592.67,676.28,592.04,675.54,591.54z"/>
		<path id="XMLID_1152_" d="M726.82,394.79c0,0,5.97-4.36,7.08-6.42c1.11-2.07-0.64,3.52-0.64,3.52l-5.51,4.03L726.82,394.79"/>
		<path id="XMLID_1151_" d="M722.17,413.5c0,0,6.05-1.81,7.49-3.66c1.46-1.83,4.22-1.32,4.22-1.32l-10.52,6.66L722.17,413.5"/>
		<path id="XMLID_1150_" d="M718.27,426.73c0,0,6.84-2.8,8.43-4.54c1.57-1.72,1.24,1.42,1.24,1.42l-8.53,3.54L718.27,426.73"/>
		<path id="XMLID_1149_" class="st0" d="M720.48,397.64c-1.8,1.11-1.51,7.23-1.92,9.31c-0.4,2.09-2.94,6.23-4.03,8.52
			c-0.68,1.45-4.02,18.06-4.02,18.06l0.66-10.14c0,0,1.47-6.83,1.97-7.9c1.09-2.29,3.9-8.23,4.3-10.33c0.4-2.1,0.54-7.42,2.32-8.52
			L720.48,397.64"/>
		<path id="XMLID_1148_" d="M718.06,437.36c0,0,2.53-0.62,4.12-2.33c1.57-1.74,1.23,1.4,1.23,1.4l-5.09,2.09L718.06,437.36"/>
	</g>
</g>
</svg>
