<svg id="Layer_1" data-name="Layer 1" xmlns="http://www.w3.org/2000/svg" viewBox="0 0 1224 792"><defs><style>.cls-1{fill:none;}</style></defs><title>1</title><path id="path3388" d="M485.38,322c-6.35,13.51-13.24,23.61-26.22,28.63,5,.27,12.18,4.21,12.18,7.42s.26,85.87.26,85.87c.27,17,1.61,15.92-12.17,28.35-3.94-2.14-7.69-4.74-9-8.76-.26-37.11.81-84-1.07-117.63-3.67-8.76-6.88-21.74-17.25-23.61-5.28,13.24-15.65,22.54-28.62,30.23,5,1.61,10.36,1.61,10.36,6.35,0,5,2.14,52,1.07,72.36.27,21.74-5,50.89,18.53,65.74,3.48,1.07,8,4.75,12.44,4.75a7.3,7.3,0,0,0,2.4-.27c3.21-10.1,15.92-17.52,23.34-24.14C475.55,499,494.14,502,494.14,502c4.21-10.84,14.85-17,20.93-23.08,0,0-7.69-.8-8-5.55s.27-113.42,0-117.36c0-3.95,7.69-7.43,7.69-7.43C504.44,340,494.94,334,485.38,322m164-1.53c-5,7.69-13.78,19.59-24.88,25.94A22.79,22.79,0,0,1,634.91,366c0,6.35-.26,93.29-.26,97.5,0,2.95-4.22,3.21-7.16,3.21h-2.68l-.26,3.21c28.09,13.51,32.83,22.27,42.13,33.37,4.21-14.31,16.45-32.56,35.51-44.27-.8-3.47-6.89-8-6.89-8a59.42,59.42,0,0,1-3.94,8c-1.34,2.68-9.3,10.37-15.12,10.37a4.5,4.5,0,0,1-1.87-.27c-6.89-3.94-4.48-10.36-4.48-10.36,0-32.57-1.07-69.15-.8-97,1.07-2.14,7.15-6.09,10.36-6.09,8.76,1.61,13,9.56,14.85,19.86,6.62-19.86,10.83-24.14,15.38-32.3-3.68-6.89-15.11-15.11-20.93-21.2l-1.87,5c-6.36,8.22-10.57,13.77-18.53,20.93-2.81-10.1-7.56-24.68-18.92-27.55M568.84,411.6,568,348l2.67-.8c13.51,14.84,18.79,36,18.79,36a213.91,213.91,0,0,0-20.66,28.36M589,320.18c-18.79,16.18-31.77,24.68-59.65,33.1,0,0,4.21,5,4.48,7.43.8,37.11,1.34,66.27.8,108.67,6.62,16.45,36.58,32.3,36.58,32.3s4.75-18,29.43-37.12l6.88-6.62-8.76-9.29s.54,9.83-11.63,19.59a5.39,5.39,0,0,1-3.48,1.07c-3.68,0-7.16-3.21-10.37-5.82-6.08-12.44-6.88-24.14-2.4-37.65,12.17-28.35,49.82-53.77,49.82-53.77C611,342.72,589,320.18,589,320.18m200.63-.54c-4.22,10.84-12.18,20.67-21.74,28.36,0,0,10.37,2.67,11.1,11.64s1.61,54.3.54,94.89c-3.21,10.37-13.24,22.27-13.24,22.27s-7.69-.8-9.3-11.37l-.53-111.28c-1.34-12.7-5.29-27.28-19.87-32.83-9,13.24-22.8,27-22.8,27s9.3.81,9.83,13.25V471.25l5,11.64c3.94,8,23.07,19.06,36.58,19.06,4.48-17.26,43.2-48.22,43.2-48.22s4.21-55.11,2.67-75,2.08-48.55-21.46-59.12m91.95,156.63c-8.23,0-14.58-1.07-15.92-9-5.55-39.19,1.61-84.53-2.14-119.51h3c13.77,0,20.93,6.89,20.93,13.51,1.6,7.16,1.34,37.65.8,54.57-.27,22.81,1.07,39.19,1.07,60.39-2.67.07-5.35.07-7.69.07m-3.75-157.7c-7.15,15.12-30.22,28.63-49,31.77,5.28,40-.54,88.21,3.21,128.27,7.69,11.37,25.14,24.41,41.59,24.67,14-13.77,31-25.94,50.89-32.83-4.74-55.37-1.6-117.37-1.6-117.37-5.55-17-30.76-25.75-45.08-34.51m-510,185h0c-9-7.69-21.2-14.84-27.56-26.21l16.72-17-.53-141.78a70.24,70.24,0,0,1,9.56-12.43h0c.54,0,1.34,49.28,1.87,98.84.47,49.28.47,98.57-.06,98.57m-30-27.82c-15.65-22.8-22-48.48-24.41-75.77,0-60.39,33.9-93.82,33.9-93.82l19.33-15.65c-.27,3.47,0,2.67-.27,6.08-11.63,10.37-21.73,22.81-28.35,35.25-.2-.27.33,142.31-.2,143.91m82.65-230L408,253.91c-25.94,16.45-85.6,53-107.87,66,0,0-25.68,28.62-26.48,77.38,0,0-1.07,17,.8,30.49a107.71,107.71,0,0,0,6.36,23.07,154.69,154.69,0,0,0,10.36,24.68c6.89,15.11,18.53,30.23,38.72,46.61,21.2,18.53,58.32,24.68,68.35,24.68,1.34,0,2.14,0,2.41-.27,5-1.87,13.77-8.49,13.77-8.49,11.64-7.42,27-17.25,38.46-24.14,4.75-3.21,17.52-10.37,17.52-10.37l-1.61-1.87s-23.6,13.51-36.58,13.78c-.8,0-2.67.26-5.55.26-11.63,0-36.58-1.33-45.34-5.28-.53-2.94,0-229.72,0-229.72s1.61-1.33,3.21-2.94a10.89,10.89,0,0,0,4.48,6.35c29.43,25.42,42.13,25.95,43.2,25.95h0a10.59,10.59,0,0,0,8.23-3.48c11.9-11.9,27.28-20.39,41.33-29.15l-2.41-.81s-8.49,4.75-17,4.75a15.37,15.37,0,0,1-3.67-.27c-9.83-4.21-36.05-24.67-37.65-28.08a11.56,11.56,0,0,1-.61-7.36"/><g id="g3390"><path id="path3392" d="M920.2,517.39v-9.63h6.42c3.21,0,6.42.47,6.42,4.62,0,4.61-3.67,5.08-7.35,5.08h-.94l-4.55-.07M927.56,504h-11v29.42h4.14v-12.9h5.55l7.83,12.9h4.61l-8.29-12.9c3.21-.94,6.89-2.74,6.89-8.29-.47-4.95-3.28-8.23-9.7-8.23m-2.27,36.38c-12,0-20.74-9.63-20.74-21.13,0-12,8.77-21.14,20.74-21.14S946,507.36,946,519.27c-.07,11.43-8.83,21.13-20.73,21.13m0-46a24.71,24.71,0,0,0-24.81,24.81A25,25,0,0,0,925.29,544a24.81,24.81,0,1,0,0-49.62"/></g><rect class="cls-1" width="1224" height="792"/></svg>