<svg xmlns="http://www.w3.org/2000/svg" viewBox="0 0 120.56 27.64"><defs><style>.cls-1{isolation:isolate;}.cls-2,.cls-3{fill:#bd2726;}.cls-3{mix-blend-mode:multiply;}</style></defs><title>Logo-01</title><g class="cls-1"><g id="Capa_1" data-name="Capa 1"><path d="M30.78,9.53v9.3h-3V9.53ZM31,6.85a1.74,1.74,0,0,1-3.48,0,1.74,1.74,0,0,1,3.48,0Z" transform="translate(0 -0.36)"/><path d="M35.76,18.83h-3V9.53h3V11a3.27,3.27,0,0,1,3-1.7c2.51,0,3.35,1.74,3.35,3.73v5.82h-3V13.74c0-1.34-.44-2.07-1.55-2.07s-1.82,1-1.82,2.43Z" transform="translate(0 -0.36)"/><path d="M47,22.22H44V9.53h3v1.68a3.2,3.2,0,0,1,3.14-1.93c2.72,0,4.15,2.18,4.15,4.9s-1.43,4.9-4.15,4.9A3.21,3.21,0,0,1,47,17.17Zm0-7.94a2.16,2.16,0,0,0,2.12,2.45c1.42,0,2.11-1,2.11-2.55s-.69-2.53-2.11-2.53A2.15,2.15,0,0,0,47,14.08Z" transform="translate(0 -0.36)"/><path d="M57.74,15.73c.12.9.83,1.4,2,1.4.82,0,1.36-.29,1.36-.79s-.29-.72-1-.84l-1.43-.23c-2.13-.34-3.28-1.07-3.28-2.91s1.57-3.08,4.06-3.08c2.64,0,4.21,1.17,4.39,3.16l-2.49.09c-.14-.82-.79-1.28-1.94-1.28-.76,0-1.22.31-1.22.82s.3.6.76.67l1.8.31c2,.31,3.2,1.21,3.2,3,0,1.95-1.65,3-4.19,3s-4.41-1-4.58-3.29Z" transform="translate(0 -0.36)"/><path d="M74.39,15.77c-.48,2.12-2.13,3.31-4.56,3.31-3,0-5-1.8-5-4.75a4.87,4.87,0,0,1,5-5.05,4.41,4.41,0,0,1,4.69,4.65v.92h-6.7a2,2,0,0,0,2.18,2,1.93,1.93,0,0,0,2-1.26Zm-2.84-2.53a1.75,1.75,0,0,0-1.8-1.76,1.87,1.87,0,0,0-2,1.76Z" transform="translate(0 -0.36)"/><path d="M82.64,12.48a3,3,0,0,0-1.59-.37c-1.26,0-2.09.71-2.09,2.32v4.4h-3V9.53h3v1.7a2.76,2.76,0,0,1,2.57-2,2.12,2.12,0,0,1,1.3.38Z" transform="translate(0 -0.36)"/><path d="M88.25,9.28a4.31,4.31,0,0,1,4.54,4l-2.51.19c-.21-1.26-.88-1.93-2-1.93s-2,.82-2,2.6.82,2.6,2,2.6,1.8-.69,2-2l2.51.21a4.29,4.29,0,0,1-4.54,4,4.74,4.74,0,0,1-5-4.9A4.75,4.75,0,0,1,88.25,9.28Z" transform="translate(0 -0.36)"/><path d="M98.77,19.08a4.72,4.72,0,0,1-5-4.9,5,5,0,0,1,10,0A4.74,4.74,0,0,1,98.77,19.08Zm0-2.28c1.32,0,2-1.07,2-2.62s-.65-2.62-2-2.62-1.94,1.07-1.94,2.62S97.43,16.8,98.77,16.8Z" transform="translate(0 -0.36)"/><path d="M117.25,9.28c2.54,0,3.31,1.76,3.31,3.73v5.82h-3V13.74c0-1.34-.34-2.07-1.43-2.07s-1.69,1-1.69,2.43v4.73h-3V13.74c0-1.34-.33-2.07-1.44-2.07s-1.7,1-1.7,2.43v4.73h-3V9.53h3V11a3.1,3.1,0,0,1,2.93-1.7,2.79,2.79,0,0,1,2.93,1.87A3.36,3.36,0,0,1,117.25,9.28Z" transform="translate(0 -0.36)"/><path d="M24,20.4a.69.69,0,0,0-1-.26L11.71,26.7a.7.7,0,0,0,.7,1.21l11.36-6.56A.7.7,0,0,0,24,20.4Z" transform="translate(0 -0.36)"/><rect x="22.72" y="6.56" width="1.4" height="14.52" rx="0.7"/><path class="cls-2" d="M24,7.28a.69.69,0,0,0-1-.26L11.71,13.58a.7.7,0,0,0,.7,1.21L23.77,8.23A.7.7,0,0,0,24,7.28Z" transform="translate(0 -0.36)"/><path class="cls-3" d="M.1,20.4a.68.68,0,0,1,1-.26L12.41,26.7a.7.7,0,0,1-.69,1.21L.36,21.35A.7.7,0,0,1,.1,20.4Z" transform="translate(0 -0.36)"/><path class="cls-2" d="M.1,7.28a.68.68,0,0,1,1-.26l11.36,6.56a.7.7,0,0,1-.69,1.21L.36,8.23A.7.7,0,0,1,.1,7.28Z" transform="translate(0 -0.36)"/><path class="cls-2" d="M11.45.72a.69.69,0,0,1,1-.26L23.77,7A.69.69,0,0,1,24,8a.71.71,0,0,1-1,.27L11.71,1.67A.71.71,0,0,1,11.45.72Z" transform="translate(0 -0.36)"/><rect class="cls-2" x="11.36" y="13.12" width="1.4" height="14.52" rx="0.7"/><rect class="cls-2" x="11.36" width="1.4" height="14.52" rx="0.7"/><rect class="cls-2" y="6.56" width="1.4" height="14.52" rx="0.7"/></g></g></svg>