<?xml version="1.0" encoding="utf-8"?>
<!-- Generator: Adobe Illustrator 23.0.4, SVG Export Plug-In . SVG Version: 6.00 Build 0)  -->
<svg version="1.1" id="Layer_1" xmlns="http://www.w3.org/2000/svg" xmlns:xlink="http://www.w3.org/1999/xlink" x="0px" y="0px"
	 viewBox="0 0 1200 1200" style="enable-background:new 0 0 1200 1200;" xml:space="preserve">
<g id="XMLID_975_">
	<path id="XMLID_996_" d="M305.96,716.57l19.54,56.99h-6.92l-4.64-14.08h-22.39l-4.56,14.08h-6.92l19.54-56.99H305.96z
		 M293.42,753.7h18.64l-9.28-28.5L293.42,753.7z"/>
	<polygon id="XMLID_995_" points="399.75,716.58 427.59,761.77 427.59,716.58 434.02,716.58 434.02,773.57 427.92,773.57 
		400.08,728.38 400.08,773.57 393.64,773.57 393.64,716.58 	"/>
	<path id="XMLID_992_" d="M467.59,757.44v-8.46c0-9.36,6.76-17.1,16.85-17.1c10.1,0,16.86,7.73,16.86,17.1v6.52h-27.6v0.81
		c0,8.06,4.64,12.78,10.74,12.78c4.81,0,8.39-2.52,9.77-6.92l6.27,0.98c-2.2,6.84-7.82,11.4-16.05,11.4
		C474.35,774.55,467.59,766.81,467.59,757.44 M473.7,750.53h21.49v-0.41c0-8.06-4.64-12.78-10.75-12.78
		c-6.1,0-10.74,4.72-10.74,12.78V750.53z"/>
	<polygon id="XMLID_991_" points="556.76,732.86 567.02,765.26 578.01,732.86 584.44,732.86 570.19,773.57 563.76,773.57 
		553.59,741.41 543.41,773.57 536.98,773.57 522.73,732.86 529.16,732.86 540.15,765.26 550.41,732.86 	"/>
	<polygon id="XMLID_990_" points="677.33,716.58 690.44,762.17 702.97,716.58 709.98,716.58 693.78,773.57 687.27,773.57 
		674.15,727.65 661.05,773.57 654.54,773.57 638.33,716.58 645.33,716.58 657.87,762.17 670.98,716.58 	"/>
	<path id="XMLID_987_" d="M730.25,748.98c0-9.36,6.76-17.1,16.85-17.1c10.1,0,16.86,7.73,16.86,17.1v8.46
		c0,9.37-6.76,17.1-16.86,17.1c-10.09,0-16.85-7.73-16.85-17.1V748.98z M757.85,750.12c0-8.06-4.64-12.78-10.75-12.78
		c-6.1,0-10.74,4.72-10.74,12.78v6.19c0,8.05,4.64,12.78,10.74,12.78c6.11,0,10.75-4.73,10.75-12.78V750.12z"/>
	<path id="XMLID_986_" d="M820.09,738.32c-1.87-0.65-3.58-0.98-5.78-0.98c-4.64,0-8.79,2.61-11.31,7v29.23h-6.11v-40.71h6.11v5.13
		c2.44-3.5,6.67-6.11,12.05-6.11c1.79,0,3.58,0.33,5.05,0.98V738.32z"/>
	<path id="XMLID_985_" d="M861.14,773.57h-1.63c-7.98,0-11.56-4.16-11.56-11.72V715.6h6.1v45.59c0,4.4,1.71,6.92,5.62,6.92h1.47
		V773.57z"/>
	<path id="XMLID_982_" d="M913.82,769.09c-2.2,3.26-6.27,5.46-11.56,5.46c-9.61,0-14.82-7.25-14.82-17.1v-8.46
		c0-9.85,5.21-17.1,14.82-17.1c5.29,0,9.36,2.2,11.56,5.46V715.6h6.11v57.97h-6.11V769.09z M893.55,756.31
		c0,8.39,3.26,12.78,10.34,12.78c4.56,0,7.98-2.69,9.93-6.59v-18.57c-1.95-3.91-5.37-6.59-9.93-6.59c-7.08,0-10.34,4.4-10.34,12.78
		V756.31z"/>
	<rect id="XMLID_981_" x="45.76" y="651.38" width="1108.49" height="7.35"/>
	<path id="XMLID_977_" d="M308.35,451.05c-28.43-1.16-43.42-0.29-79.06,15.42c-51.52,22.73-48.65,32.53-56.6,44.03
		c-7.94,11.5-4.35,23.36-4.35,23.36c6.58,13.48,22.16,29.36,71.88,28.46c51.48-0.92,54.57-4.21,80.56-10.78
		c26-6.58,59.22-21.34,77.58-31.46c8.68-4.8,17.38-3.38,23.96-4.49c6.55-1.1,11.31-2.51,17.96-3c12.28-0.89,18.27,5.69,18.27,5.69
		s11.1-3.14,17.67-4.78c6.58-1.64,14.38-4.49,22.17-3.89c11.17,0.86,11.67,2.7,13.17,6.89c2.27,6.33-1.5,11.98-1.5,11.98
		s16.63-8.42,24.56-11.98c7.94-3.55,16.95-6.67,25.16-4.5c8.21,2.21,0.88,26.99,3.89,33.54c3.02,6.59,12.47-3,14.28-4.26
		c1.89-1.35,4.81-4.69,15.38-15.78c10.39-10.94,16.76-13.18,16.76-13.18c3.85-1.92,6.63-1.22,7.39-1.4c3.41-0.81,6.21-1.2,9.39-1.61
		c5.49-0.67,19.67,0.71,22.75,6.2c4.05,7.16,1.11,16.16-0.99,19.16c-2.44,3.5-11.32,13.06-21.15,17.17
		c-9.87,4.11-21.11,4.44-25.76,3.91c-4.65-0.55-8.78-2.57-9.88-4.19c-1.09-1.65-4.6-6.2-4.6-6.2s-0.8-1.59-3.19-0.1
		c-4.71,2.96-10.78,5.99-10.78,5.99s-23.06,8.69-29.65,3.01c-2.09-1.8,3.3-24-4.19-24c-7.49,0-17.19,3.54-19.17,4.53
		c-7.79,3.91-31.96,19.1-31.96,19.1c-2.73,1.92-5.74,2.46-4.64-0.54c1.96-5.44,13.45-22.95,9.34-31.44
		c-3.05-6.31-29.64-0.3-29.64-0.3c0.54,5.49,6.29,7.49-7.48,20.98c-13.78,13.47-31.34,20.26-44.61,22.17
		c-18.88,2.68-25.67-0.4-29.96-5.4c-5.39-6.29-0.89-21.55-0.89-21.55c-18.88,8.68-79.93,27.55-79.93,27.55
		c-35.03,8.82-83.61,9.28-106.98,6.58c-20.11-2.33-83.38-16.23-49.1-61.08c20.36-26.68,48.15-40.84,84-53.17
		c35.86-12.31,65.58-13.04,65.58-13.04c43.78,0,45.45,4.35,54.21,9c8.78,4.64,19.73,14.49,19.73,16.97c0,2.46-2.68,6.07-7.59,10.73
		c-4.92,4.65-18.26,7.63-18.26,7.63C339.65,471.11,333.65,452.1,308.35,451.05 M407.04,534.15c-6.06,5.36-10.32,17.3-6.6,21.87
		c3.73,4.59,20.45,1.24,29.95-11.69c18.27-24.84-1.18-23.65-1.18-23.65C420.21,520.97,413.1,528.82,407.04,534.15 M633.24,517.89
		c-2.06-0.55-6.98-1.22-16.76,6.7c-13.09,10.58-13.79,22.65-7.89,22.86c11.39,0.38,14.48-5.88,18.96-9.99
		C635.17,530.53,637.85,519.09,633.24,517.89"/>
	<path id="XMLID_976_" d="M867.85,435.03c0,0-2-9.57-15.98-9.57c0,0-67.64-1.03-108.22,39.53c0,0-7.6,11.22-3.98,16.77
		c5.99,9.19,19.22,9.9,34.34,14.77c15.1,4.88,37.72,7.52,38.74,18.77c0.99,11.24-8.87,19.68-29.55,31.94
		c-23.56,13.99-43.63,20.52-64.69,26.37c-21.07,5.85-16.77,4.39-75.87,11.96c-0.25,0.05-8.39,14.37-8.39,14.37
		s11.58,0.4,64.29-11.98c0,0,28.44-7.63,47.92-14.74c19.46-7.13,26.16-11.5,45.9-17.6c20.78-6.36,53.9-20.21,55.93-19.95
		c2,0.26-9.42,13.53-11.2,17.57c-1.76,4.03-3.49,5.39-1.99,11.17c1.53,5.81,12.86,4.94,21.17,3.62c12.38-2.02,17.81-8,37.13-20.08
		c2.01-1.26-6.14,19.02,3.19,22.87c3.03,1.24,9.64,1.94,19.96-1.63c10.33-3.5,25.71-10.96,32.24-15.99
		c6.56-5.05,16.63-11.88,22.76-16.47c7.19-5.4,17.52-15.16,19.93-14.09c1.55,0.67-5.17,14.45-7.2,15.72
		c-2,1.26-10.01,21.37-12.43,28.6c-0.31,0.88,9.47,1.41,13.32,0.44c1.8-0.44,4.35-6.59,8.69-12.73
		c8.67-12.25,13.63-22.18,37.44-39.83c4.56-3.39,6.27-4.64,11.08-4.94c7.64-0.45,4.79,3.89,9.73,6.58
		c4.23,2.33,12.43-1.49,13.32-6.29c1.18-6.22-4.49-11.97-8.52-13.18c-6.86-2.03-12.28,0.15-16.19,1.67
		c-3.55,1.36-22.61,14.96-29.79,23.8c-6.66,8.18-10.64,15.12-11.98,14.23c-1.17-0.81,1.84-5.79,4.65-12.43
		c2.84-6.74,6.75-13.33,5.22-14.09c-0.79-0.42-3.37-0.18-5.98-0.75c-2.31-0.49,2.09-2.4-5.54-1.2
		c-2.45,0.38-14.08,13.48-44.18,34.15c-1.62,1.1-13.14,8.44-20.96,13.46c-7.8,5.05-18.5,9.61-21.26,5.85
		c-2.8-3.77,1.18-11.08,3.62-14.87c2.43-3.74,25.51-30.23,24.77-30.75c-0.76-0.5-22.31,0.04-23.56,0.79
		c-1.25,0.77-17.76,19.69-23.56,23.97c-5.79,4.28-6.03,6.47-13.59,9.98c-7.54,3.53-16.75,7.2-18.76,4.39
		c-4.07-5.7,1.04-8.34,4.8-12.77c6.78-8,25.34-24.9,17.55-26.74c-8.37-2.02-40.61,16.33-34.32,13.59
		c4.4-1.96-14.37,5.47-34.34,13.55c-9.34,3.76-9.78,3.59-10.8,3.59c-0.97,0,6.16-6.03,15.98-13.56
		c9.83-7.56,20.33-20.08,19.57-31.17c-0.76-11.07-17.43-17.74-43.12-23.55c-25.68-5.79-32.39-9.37-33.14-10.37
		c-3.51-4.65-2.06-9.81,3.99-13.57c6.04-3.81,39.24-17.83,61.89-20.78c13.6-1.74,14.93,2.39,17.18,2.39
		C847.36,435.82,861.06,444.21,867.85,435.03"/>
</g>
</svg>
