<?xml version="1.0" encoding="utf-8"?>
<!-- Generator: Adobe Illustrator 23.0.4, SVG Export Plug-In . SVG Version: 6.00 Build 0)  -->
<svg version="1.1" id="Layer_1" xmlns="http://www.w3.org/2000/svg" xmlns:xlink="http://www.w3.org/1999/xlink" x="0px" y="0px"
	 viewBox="0 0 1200 1200" style="enable-background:new 0 0 1200 1200;" xml:space="preserve">
<g>
	<path id="XMLID_1138_" d="M451.59,727.42c-20.2-16.42-47.33-24.81-81.36-25.13c-18.06-0.47-35.4,2.57-51.95,9.05
		c-16.57,6.47-29.78,15.28-39.59,26.46c-9.85,11.15-14.69,23.03-14.44,35.61c-0.29,12.86,4.35,24.86,13.89,36.09
		c9.5,11.2,22.62,20.14,39.24,26.86c16.57,6.71,34.56,10.03,53.86,9.94c18.92,0.45,36.68-2.54,53.25-8.95
		c16.57-6.42,29.73-15.15,39.45-26.25c9.78-11.06,14.53-22.9,14.28-35.53C478.39,757.73,469.52,741.69,451.59,727.42z
		 M416.25,822.95c-11.18,11.98-26.38,17.84-45.48,17.66c-18.58-0.17-33.45-6.31-44.58-18.5c-11.03-12.12-16.52-28.19-16.33-48.09
		c0.22-24.07,8.38-42.29,24.49-54.57c9.98-7.68,23.15-11.38,39.48-11.23c8.86,0.08,17.46,2.12,25.73,6.11
		c10.93,5.13,19.33,12.96,25.21,23.5c5.9,10.54,8.8,22.66,8.68,36.31C433.24,794.75,427.51,811.03,416.25,822.95z M1048.9,711.24
		l-0.05,5.88c15.09,0.14,25.83,4.05,32.17,11.68c3.8,4.36,5.65,11.17,5.57,20.36l-0.58,62.13L966.54,710.48l-71.42-0.66l-0.05,5.88
		l2.33,0.02c10.77,0.1,19.16,1.88,25.11,5.32c5.97,3.43,8.69,8.66,8.08,15.72l-0.7,74.93c-0.09,9.61-1.65,16.19-4.6,19.64
		c-2.48,3.14-6.89,5.76-13.24,7.94c-6.36,2.19-13.48,3.24-21.25,3.17l-0.06,6.07l85.71,0.8l0.06-6.07
		c-15.31-0.14-26.29-3.99-32.96-11.5c-3.8-4.39-5.65-11.15-5.57-20.36l0.76-82.27l146.92,121.22l8.06,0.08l0.94-101.55
		c0.09-9.62,1.55-16.15,4.37-19.66c2.62-3.09,7.16-5.74,13.64-7.99c6.41-2.27,13.44-3.33,21.12-3.26l0.05-5.88L1048.9,711.24z
		 M206.15,824.86c-11.14,7.34-25.38,10.96-42.76,10.8l-55.22-0.51l68.12-66.62l56.59-59.18l0.05-5.69l-152.72-1.42l-0.44,46.92
		l7.27,0.07c7.04-27.45,29.59-40.96,67.64-40.61l36.74,0.34l-56.84,59.18l-68.37,66.37l-0.06,6.31l173.04,1.61l0.45-48.33
		l-9.93-0.09C225.1,807.23,217.22,817.53,206.15,824.86z M754.01,714.38l18.76,0.17c3.98,0.04,7.39,0.94,10.11,2.74
		c2.8,1.78,4.65,4.1,5.7,7.05c1.02,2.95,1.69,5.41,2,7.44c0.35,2.04,0.49,4.11,0.47,6.09l-0.75,80.62
		c-0.06,6.4-1.81,11.78-5.26,16.24c-3.41,4.39-7.89,6.63-13.46,6.58l-18.76-0.17l-0.06,6.07l111.81,1.04l0.06-6.07l-18.73-0.17
		c-12.2-0.11-18.2-7.83-18.06-23.16l0.75-80.62c0.06-6.35,1.75-11.77,5.1-16.27c3.33-4.54,7.79-6.76,13.39-6.71l18.73,0.17
		l0.05-5.88l-111.81-1.04L754.01,714.38z M643.33,713.36c15.13,0.14,25.84,4.05,32.19,11.68c3.79,4.36,5.61,11.17,5.53,20.36
		l-0.58,62.13L560.99,706.71l-71.4-0.66l-0.05,5.88l2.35,0.02c10.78,0.1,19.11,1.88,25.08,5.32c5.94,3.43,8.67,8.66,8.11,15.72
		l-0.7,74.93c-0.09,9.61-1.67,16.19-4.64,19.64c-2.48,3.14-6.88,5.76-13.23,7.94c-6.36,2.19-13.45,3.24-21.29,3.17l-0.06,6.07
		l85.77,0.8l0.06-6.07c-15.29-0.14-26.32-3.99-33.02-11.5c-3.74-4.39-5.65-11.15-5.57-20.36l0.76-82.27l146.93,121.22l8.11,0.08
		l0.94-101.55c0.09-9.62,1.52-16.15,4.32-19.66c2.65-3.09,7.21-5.74,13.64-7.99c6.45-2.27,13.53-3.33,21.17-3.26l0.05-5.88
		l-84.96-0.79L643.33,713.36z"/>
	<path id="XMLID_1125_" d="M486.69,656.15l-20.18-30.57l-5.46-0.05l-0.33,35.36l5.62,0.05l0.24-25.56l16.96,25.72l6.23,0.06
		l17.45-25.4l-0.24,25.56l5.62,0.05l0.33-35.36l-5.51-0.05L486.69,656.15z M287.14,659.27l5.64,0.05l0.14-15.22l35.66,0.33
		l0.04-4.84l-35.66-0.33l0.1-10.47l35.66,0.33l0.04-4.83l-41.29-0.38L287.14,659.27z M561.39,661.82l5.63,0.05l0.33-35.36
		l-5.63-0.05L561.39,661.82z M387.47,624.84l-24.11,35.14l6.4,0.06l4.49-6.43l32.11,0.3l4.37,6.51l6.44,0.06l-23.49-35.58
		L387.47,624.84z M377.48,648.8l13.03-18.93l12.68,19.17L377.48,648.8z M625.11,634.15c3.03-1.48,7.76-2.2,14.2-2.14
		c4.33,0.04,7.71,0.37,10.1,0.96c3.7,0.91,6.38,2.52,8.06,4.87l5.14-2.01c-3.7-5.66-11.42-8.55-23.26-8.66
		c-7.94-0.07-14.02,1.08-18.27,3.43c-5.04,2.86-7.55,7.54-7.61,14.05c-0.06,6.48,2.37,11.2,7.35,14.16
		c4.18,2.42,10.24,3.65,18.2,3.73c7.52,0.07,13.41-0.97,17.7-3.07l-0.03,3.23l5.65,0.05l0.19-20.06l-23.59-0.22l-0.05,4.84
		l17.94,0.17l-0.05,5.48c-1.82,2.05-4.55,3.42-8.09,4.18c-1.2,0.23-2.59,0.4-4.19,0.49c-1.57,0.13-3.38,0.17-5.44,0.15
		c-6.36-0.06-11.11-0.85-14.16-2.4c-3.95-2-5.9-5.57-5.85-10.69C619.1,639.6,621.12,636.09,625.11,634.15z M797.42,664.01l5.61,0.05
		l0.33-35.36l-5.61-0.05L797.42,664.01z M876.95,629.39l-6.24-0.06l-24.1,35.14l6.4,0.06l4.51-6.43l32.11,0.3l4.37,6.51l6.44,0.06
		L876.95,629.39z M860.76,653.3l13.01-18.93l12.69,19.17L860.76,653.3z M717.07,627.9l-5.61-0.05l-0.33,35.36l41.29,0.38l0.04-4.74
		l-35.69-0.33L717.07,627.9z"/>
	<path id="XMLID_1108_" d="M991.33,922.77c-10.43-0.1-36.47-0.3-70.14-2.68c-19.06-1.32-28.11-2.36-35.09-3.6
		c-2.75-0.5-3.42-0.63-5.91-0.05c-8.26,1.91-14.9,3.32-21.28,4.46c-3.36,0.58-3.63,0.67-3.63,1.02c0,0.37,0.26,0.45,3.61,1.15
		c6.36,1.26,12.97,2.75,21.19,4.84c2.48,0.6,3.15,0.48,5.91,0.06c7.01-1.12,16.08-1.99,35.15-2.97c33.71-1.74,59.75-1.45,70.18-1.36
		C995.31,923.66,995.31,922.81,991.33,922.77z M414.73,896.78l-23.32-0.22l-0.34,36.85l24.49,0.23c5.34,0.05,10.19-1.64,13.78-4.76
		c3.95-3.37,6.02-7.89,6.07-13.08C435.53,904.41,427.61,896.9,414.73,896.78z M416.12,928.1l-18.88-0.17l0.24-25.75l17.72,0.17
		c8.24,0.08,13.69,5.42,13.62,13.25C428.74,922.98,423.46,928.17,416.12,928.1z M477.87,897.37l-19.84,36.67l6.66,0.06l4.36-8.21
		l24.79,0.23l4.19,8.29l6.68,0.06l-19.14-37.03L477.87,897.37z M472.1,920.37l9.59-17.72l9.19,17.9L472.1,920.37z M345.84,916.13
		c-6.36-1.26-12.96-2.79-21.2-4.85c-2.47-0.62-3.13-0.51-5.9-0.06c-6.99,1.11-16.05,1.98-35.14,2.94
		c-33.71,1.76-59.74,1.48-70.18,1.38c-4-0.04-4.01,0.82-0.01,0.85c10.43,0.1,36.47,0.3,70.14,2.66c19.07,1.34,28.11,2.38,35.08,3.63
		c2.76,0.47,3.42,0.61,5.9,0.06c8.28-1.94,14.91-3.3,21.29-4.44c3.37-0.6,3.65-0.71,3.66-1.06
		C349.48,916.86,349.2,916.8,345.84,916.13z M741.29,923.9c3.47-1.14,7.09-1.72,10.66-2.7c6.58-1.77,9.77-4.8,9.82-9.93
		c0.06-6.72-6.56-11.77-16.32-11.86c-6.77-0.06-12.69,2.02-18.43,6.39l3.83,4.11c4.45-3.47,9.05-5.05,14.45-5
		c6.35,0.06,9.89,2.48,9.86,5.89c-0.02,1.73-0.88,2.94-2.68,3.95c-2.92,1.55-7.15,2.22-11.94,3.65c-10.07,3.06-15,8.82-15.5,18.13
		l37.41,0.35l0.05-5.55l-30.19-0.28C734.03,927.44,736.89,925.38,741.29,923.9z M691.15,916.86c4.24-1.33,6.55-4.16,6.58-7.57
		c0.06-6.31-6.06-10.34-17.11-10.44c-10.99-0.1-17.08,3.81-17.14,10.12c-0.03,3.41,2.22,6.29,6.45,7.7
		c-5.92,1.58-9.11,4.96-9.15,8.98c-0.06,6.72,6.82,10.96,19.59,11.08c12.79,0.12,19.68-3.99,19.75-10.71
		C700.15,921.98,697.04,918.54,691.15,916.86z M669.58,909.08c0.03-3.26,3.72-4.85,11.09-4.78c7.34,0.07,10.98,1.73,10.95,4.99
		c-0.03,3.3-3.82,5.3-11.05,5.24C673.35,914.45,669.55,912.39,669.58,909.08z M680.42,931.11c-8.79-0.08-13.3-2.2-13.27-5.92
		c0.04-3.87,4.52-5.81,13.38-5.73c8.87,0.08,13.27,2.11,13.23,5.98C693.73,929.16,689.24,931.2,680.42,931.11z M538.17,897.93
		l-6.1-0.06l-0.34,36.85l34.56,0.32l0.05-5.55l-28.46-0.26L538.17,897.93z M788.23,903.61l-0.05,5.3l5.93-2.49l-0.29,30.74l6.1,0.06
		l0.34-36.85l-6.05-0.06C792.46,901.82,790.47,902.92,788.23,903.61z M619.78,902.05l-0.05,5.3l5.93-2.49l-0.29,30.74l6.1,0.06
		l0.34-36.85l-6.05-0.06C624.01,900.25,622.01,901.36,619.78,902.05z"/>
	<path id="XMLID_590_" d="M289.87,553.23c0.61-0.04,1.01-0.09,1.57-0.12c0.02-2.27,1.98-10.08-1.02-10.4
		C290.25,546.13,290.05,549.56,289.87,553.23z M276.6,524.88c2.38,0.34,5.2,0.07,7.49-0.78c-0.33-0.5-0.57-0.85-0.71-1.17
		c-2.49,0.3-4.64,0.52-6.92,0.82C276.52,524.24,276.55,524.53,276.6,524.88z M281.72,520.28c-1.39-0.36-1.74-0.19-2.24,1.2
		C280.95,521.65,281.19,521.55,281.72,520.28z M275.53,527.53c1.75,1.34,7.92,0.22,8.8-1.11c-0.72-1.64-7.93-0.2-9.21,0.72
		C275.28,527.49,275.41,527.54,275.53,527.53z M269.4,539.19c-0.86-2.28-7.59-0.22-8.53,1.35
		C263.63,540.57,266.71,539.99,269.4,539.19z M261.57,535.74c-0.12,0.02-0.2,0.16-0.37,0.38c0.27,0.29,0.47,0.63,0.8,1.06
		c2.19-0.74,4.34-0.81,6.41-1.56C267.3,533.46,263.25,535.36,261.57,535.74C261.45,535.77,262.45,535.54,261.57,535.74z
		 M276.1,561.83c0.65-1.92-0.51-3.62-0.63-5.68c-0.52,0.26-0.94,0.43-1.3,0.55c0.11,1.32,0.1,2.48,0.26,3.65
		C274.51,561.55,274.9,561.83,276.1,561.83z M282.72,536.72c-0.52,0.46-0.87,0.82-1.26,1.18c0.41,0.91,0.89,1.45,1.83,1.62
		c0.27-0.42,0.61-0.84,0.93-1.36C283.69,537.65,283.24,537.22,282.72,536.72z M277.17,541.22c-1.09-0.42-1.47-0.17-1.75,1.16
		C276.79,542.35,276.79,542.35,277.17,541.22z M281.48,535.63c-0.43-0.24-0.5-0.18-0.48-0.06c-1.06-0.36-2.8-0.29-5.33,0.33
		l-0.01,1.12c1.62-0.11,3.09-0.25,4.9-0.4C280.82,536.36,281.18,536,281.48,535.63z M281.96,541.6c-0.12-1.97-0.75-2.43-2.34-1.81
		C278.93,541.18,280.78,542.83,281.96,541.6z M283.17,558.46c-0.72-0.37-1.38-0.62-2.19-0.17c0.2-0.14,0.35-0.36-0.21,0.07
		c-0.08,0.32-0.08,0.65-0.13,1.05c0.38,0.1,0.62,0.25,1.01,0.41C282.17,559.38,283.04,559.43,283.17,558.46z M282.42,545.66
		l-1.6-0.02c-0.07,1.79-0.46,3.52,0.99,5.15C283.25,549.05,282.13,547.39,282.42,545.66z M274.42,560.35
		C274.26,559.17,274.51,561.55,274.42,560.35L274.42,560.35z M292.81,530.73c0.26-1.88-0.25-3.21-1.4-3.7
		C290.73,528.36,291.55,530.39,292.81,530.73z M288.46,529.77c0.49,1.2,0.84,3.42,2.48,2.15c-0.36-0.95-0.71-1.97-1.04-2.91
		C289.04,528.72,288.62,529.01,288.46,529.77z M286.24,532.51c0.26,0.82,0.7,1.34,1.78,1.03l0.02-1.65
		C286.87,531.8,286.87,531.8,286.24,532.51z M286.96,543.22c-0.14,2.86-0.93,6.57,0.06,9.27c0.17,0.02,0.38,0.02,0.52,0.02
		c1.08-2.84,1.06-6.27,0.74-9.28L286.96,543.22z M271.71,572.71c0.27,0.49,0.43,0.77,0.6,1.08c5.33-1.33,13.41,0.58,16.91-4.64
		c-1.3-0.11-2.43,0.28-3.39,1.2C281.81,572.84,276.19,571.94,271.71,572.71z M271.83,556.45c-0.15,0.1-0.31,0.17-0.4,0.25
		c-0.32,1.58,0.57,3.01,0.63,4.62c0.55-0.02,0.91-0.07,1.18-0.11C273.92,559.79,272.93,557.3,271.83,556.45z M280.01,538.16
		c-1.35-0.56-2.55-0.46-3.85,0.26C276.56,540.61,279.48,539.81,280.01,538.16z M262.45,527.93l-0.01,1.43l1.74,0.02
		c-0.07-0.55-0.11-0.94-0.16-1.44L262.45,527.93z M241.86,564.16c0.7-0.21,1.2-0.35,1.82-0.55c-0.24-1-0.38-1.83-0.51-2.6
		c-0.17-0.05-0.36-0.09-0.49-0.12c-0.42,0.35-0.84,0.76-1.32,1.18C241.53,562.78,241.67,563.35,241.86,564.16z M250.15,551.66
		C250.82,552.22,249.62,551.21,250.15,551.66L250.15,551.66z M238.51,563.18c0.29,0.13,0.65,0.3,1.02,0.49
		c0.36-0.45,0.72-0.82,1.11-1.31c-0.29-0.6-0.22-1.34-0.92-1.59c0.05-0.05,0-0.09-0.32-0.1c-0.36,0.16-0.32,0.22-0.16,0.22
		C238.43,561.35,238.22,562.13,238.51,563.18z M246.18,558.41c0.5-0.17,0.94-0.29,1.58-0.42c-0.9-1.19-1.63-2.14-2.37-3.05
		c-0.12-0.18-0.49-0.12-1.05-0.22C244.26,556.48,245.54,557.2,246.18,558.41z M245.39,554.94
		C246.13,555.85,245.27,554.76,245.39,554.94L245.39,554.94z M241.02,559.24l0.01-0.87c-1.15-0.57-1.51-0.43-1.84,0.2
		c-0.1,0-0.17,0.09-0.28,0.42C239.69,559.5,240.53,559.7,241.02,559.24z M344.64,501.08C344.24,498.98,345.01,503.19,344.64,501.08
		L344.64,501.08z M320.68,491.81c0.44,1.57,0.25,0.84,0.05,0.05c2.33,9.03,15.73,12.22,29.86,17.22c3.85,2.65,8.75,4.2,12.65,4.42
		c-1.96-4.52-22.99-7.83-15.64-16.86c0.37-0.11,0.88-0.21,1.69-0.41c-0.78,1.66-0.25,2.8,0.56,4.1c0.45,0.18,0.96,0.46,1.35,0.65
		c4.45-0.96,4.7-3.01,3.27-5.76c-4.59-4.45-10.91,0.13-9.83,5.85c0.32,1.78,1.18,3.4,2.34,4.83c-9.77-4.9-30.81-9.05-22.11-21.44
		c0.61-0.17,1.4-0.45,2.65-0.82c-1.01,2.67-0.07,4.49,1.34,6.37c0.69,0.28,1.56,0.68,2.27,0.92c6.9-1.99,7.01-5.29,4.47-9.47
		c-7.73-6.51-17.18,1.39-14.93,10.28C320.48,490.94,320.32,490.17,320.68,491.81z M236.29,562.67c-0.24-0.12-0.66-0.26,0.16,0.17
		c0.2-0.11,0.45-0.22,0.68-0.38c-0.09-0.8-0.18-1.59-0.26-2.54c-0.55,0.04-0.99,0.11-1.37,0.15
		C235.17,561.24,235.3,562.1,236.29,562.67z M229.76,558.76l-0.01,1.51c0.57-0.15,0.9-0.25,1.33-0.39
		C230.87,559.06,230.65,558.54,229.76,558.76z M233.36,558.85c-0.44,0.39-0.81,0.69-1.16,0.94c0.41,0.74,0.65,1.16,0.96,1.69
		C234.67,560.49,234.45,560.05,233.36,558.85z M242.69,556.14c-0.26,0.26-0.57,0.55-0.91,0.82c0.33,0.93,0.66,1.7,1.57,1.97
		c-0.03,0.1,0.07,0.23,0.49,0.23c0.22-0.43,0.14-0.51,0-0.51C244.01,557.63,243.56,556.43,242.69,556.14z M249.21,560.73
		c-0.32,0.25-0.8,0.49-1.16,0.73c0.09,1.2,2.39,4.19,3.71,3.89c0.02-1.65-1.1-2.92-1.95-4.25c0.14,0.25,0.31,0.54-0.17-0.24
		C249.63,560.81,249.49,560.81,249.21,560.73z M251.69,551.98c0.58,0.99,1.04,1.66,2.29,1.55c0.03-0.4,0.13-0.87,0.18-1.29
		c-0.54-0.54-1.07-1.03-1.71-1.6C252.13,551.2,251.92,551.59,251.69,551.98z M248.71,551.95c1.24,1.95,1.96,2.36,3.28,1.68
		c-0.64-0.67-1.16-1.41-1.83-1.97C249.62,551.21,249.03,551.26,248.71,551.95z M245.14,564.19c0.37,0.1,0.75,0.14,1.2,0.21
		c0.27-0.5,0.57-0.9,0.81-1.33c-0.28-0.71-0.52-1.35-0.86-2.29c-0.75,0.61-1.22,1.01-1.62,1.37
		C244.83,562.87,244.96,563.5,245.14,564.19z M262.57,533.62c0.98-0.26,4.73-0.47,4.22-2.3c-1.5-0.54-4.03,0.52-5.19,1.32
		C262.03,533.1,262.37,533.47,262.57,533.62z M246.44,553.55c-0.13-0.12,2.69,3.73,3.28,1.66c-0.9-0.84-1.81-1.68-2.76-2.55
		C246.74,553.04,246.61,553.24,246.44,553.55z M256.87,563.77c-1.26,1.04-0.51,2.34-0.65,3.66c0.5-0.04,0.92-0.06,1.52-0.08
		C257.54,565.95,258.39,564.64,256.87,563.77z M256.44,557.82c-0.67,1.24-0.67,1.24-0.39,2.52c0.39,0.24,0.88,0.54,1.39,0.88
		c0.2-0.41,0.37-0.71,0.52-1.05C257.45,559.44,257.04,558.75,256.44,557.82z M252.91,565.71c0.36,0.26,0.64,0.5,1.09,0.84
		c0.44-0.66,0.82-1.22,1.41-2.07c-0.73-0.32-1.21-0.52-1.75-0.74C253.41,564.48,253.18,565.07,252.91,565.71z M252.68,559.81
		c-0.76,2.16-0.44,2.79,1.44,3.19c0.24-0.79,0.07-2.41-0.46-3.04C253.46,559.92,253.02,559.88,252.68,559.81z M256.24,548.21
		c-1.06,0.39-1.06,0.39-1.88,1.52c0.16,0.27,0.29,0.55,0.41,0.84c1.29-0.04,1.7-0.74,1.54-1.72
		C256.43,548.81,256.48,548.69,256.24,548.21z M293.13,576.96c-9.4-1.09-19.05-3.04-28.51-3.23c-8.3-0.18-16.89-3.61-24.53-6.63
		c-6.22-2.48-9.43-2.9-6.45-1.14c11.67,7,25.77,5.76,34.93,16.63c0.39-0.25,0.8-0.5,1.4-0.82c-1.28-1.81-2.79-4.12-4.44-5.57
		c9.09-0.66,18.05,3.08,27.3,2.84c0.48-0.59,0.61-1.15,0.37-1.78C293.27,577.33,293.32,577.3,293.13,576.96z M395.27,563.3
		C396.55,565.88,395.28,562.67,395.27,563.3L395.27,563.3z M351.97,542.11c0.15-0.56,2.24-3.95,1.96-4.6
		c-4.76-1.12-10.5,8.38-11.39,11.91c-1.69,6.24,2.61,13.25,8.4,15.66c0.3-0.22,0.55-0.43,0.89-0.77c-0.63-0.82-1.24-1.55-1.81-2.27
		c-0.19-4,3.65-6.73,3.78-10.76c0.04-3.06-2.52-6.17-1.84-9.14C351.97,542.11,351.97,542.13,351.97,542.11z M389.82,563.69
		c0.5,2.28,0.04,4.46,1.25,6.56c0.52-0.33,0.86-0.55,1.19-0.75c-0.3-2.06-0.59-3.95-0.89-5.95
		C390.8,563.64,390.42,563.64,389.82,563.69z M395.29,561.2c-1.47,0.22-1.47,0.22-1.54,1.89c0.78,1.77,0.27,7.77,2.32,8.29
		c0.59-2.8,0.47-5.51-0.8-8.08L395.29,561.2z M398.97,558.34c-1.86,1.56,0.25,14.19,2.46,14.43c0.56-1.86-0.22-7.89-1.25-10.02
		C400.29,560.95,399.79,559.04,398.97,558.34z M404.57,590.22c0.22,0.27,0.43,0.49,0.82,0.98c0.3-0.63,0.43-0.97,0.6-1.3
		C405.32,589.45,404.98,589.77,404.57,590.22z M400.18,562.75C401.21,564.88,400.29,560.95,400.18,562.75L400.18,562.75z
		 M293.66,527.4C293.45,526.62,293.85,528.17,293.66,527.4L293.66,527.4z M364.21,566.28c-7.31,3.73-15.36,4.43-23.09,6.85
		l-0.02,1.75c4.03,2.37,22.23-3.81,25.12-6.92c-0.39-0.6-0.66-1.05-0.99-1.5C364.85,566.4,364.45,566.32,364.21,566.28z
		 M295.12,529.16c0.56-1.43,0.02-2.59-0.67-3.91c-1.06,0.66-0.99,1.38-0.78,2.16C293.85,528.17,293.94,529.04,295.12,529.16z
		 M327.56,576.11c-2.88-2.83-16.93-0.49-19.1,1.86c1.83,2.68,16.56-0.54,19.7-1.25C327.92,575.99,327.7,575.97,327.56,576.11z
		 M363.8,573.15c-3.88-1.18-17.25,10.02-15.32,14.63c0.27,0.06,0.66,0.2,0.98,0.27c1.99-1.76,3.02-5.74,5.09-7.94
		c2.75-2.86,7.11-3.45,9.78-6.88C363.78,572.81,363.71,572.96,363.8,573.15z M419.32,572.28c0.54-0.22,1.03-0.38,1.7-0.67
		c-1.24-2.66-0.26-5.3-1.36-7.64c-1.11-2.31-0.21-5.02-1.25-7.39C415.73,557.23,418.45,570.28,419.32,572.28z M337.2,567.12
		c0.03,0.04,0.06,0.09,0.08,0.13C337,566.78,336.87,566.54,337.2,567.12z M410.63,582.37c-0.71,1.3,3.35,8.05,4.73,7.72
		c-0.14-1.23-1.95-4.5-3.01-5.48C411.97,583.55,411.22,582.58,410.63,582.37z M415.96,572.42c-1.11-2.66-0.39-5.49-1.11-8.22
		c-0.7-2.59-0.75-5.31-1.13-8.02c-2.69,0.53-0.65,15.76,1,17.05C415.1,572.97,415.51,572.73,415.96,572.42z M412.34,584.61
		C413.4,585.59,411.97,583.55,412.34,584.61L412.34,584.61z M413.35,580.49c-0.85,1.28,3.47,8.5,5.07,9.12
		c0.12-0.21,0.25-0.35,0.4-0.49c-1.45-2.61-2.94-5.11-4.68-7.49C414.23,581.71,414.16,581.54,413.35,580.49z M417.9,582.18
		C419.46,584.19,417.71,581.81,417.9,582.18L417.9,582.18z M404.71,559.47c0.17,0.3,0.15-0.06-0.54-2.31
		c-2,1.42,0.18,14.87,2.14,16.77c0.34-0.16,0.64-0.34,0.89-0.5C406.66,568.69,405.92,564.08,404.71,559.47z M415.9,579.05
		c-0.15,0.11-0.35,0.21-0.59,0.35c0.87,1.75,4.39,9.91,6.21,8.94c-1.14-2.02-2.06-4.15-3.62-6.15
		C417.47,581.41,416.85,579.47,415.9,579.05z M406.63,587.55c0.82,1.16,1.05,2.53,2.18,3.44c0.26-0.29,0.44-0.52,0.56-0.71
		c-0.65-1.1-1.25-2.09-1.88-3.17C407.13,587.27,406.95,587.36,406.63,587.55z M409.64,586.04
		C410.97,587.26,409.49,585.69,409.64,586.04L409.64,586.04z M407.84,556.69c0.2,3.17,0.58,17.56,4.04,17.23
		c-0.59-3.71-0.68-7.48-1.8-11.45c-0.18-1.44,0.04-4.74-1.11-5.97C408.66,556.55,408.27,556.63,407.84,556.69z M409.18,584.83
		c-0.79,0.49-0.79,0.49-0.47,1.47c0.84,0.8,1.93,4.37,3.28,4.18c-0.33-1.72-1.02-3.22-2.36-4.44
		C409.49,585.69,409.37,585.31,409.18,584.83z M410.08,562.48C411.2,566.44,409.99,561.77,410.08,562.48L410.08,562.48z M261,542.15
		c0.04,0.48,0.09,0.91,0.16,1.54c1.7-0.23,7.71-0.55,8.35-2.28c-0.21-0.17-0.39-0.4-0.51-0.38
		C266.37,541.39,263.79,541.75,261,542.15z M273.02,547.11c-0.35,0.3-0.64,0.52-0.96,0.78c1.09,1.82,2.96,2.08,4.25,3.09
		c0.58-0.28,0.94-0.58,0.64-1.33c-1.49-0.38-2.19-1.53-3.51-2.26C273.49,547.33,273.46,547.28,273.02,547.11z M275.18,530.91
		c2.59-0.22,6.56,0.14,8.85-1.19c0.19-1.73-6.85-0.54-8.68-0.01c-0.02-0.03-0.15,0-0.43,0.11
		C275.02,530.17,275.07,530.47,275.18,530.91z M284.11,551.23c0.21-0.02,0.47-0.09,0.71-0.15c0.89-2.5,0.78-4.45,0.05-5.81
		c0.07-0.15,0.08-0.4-0.31-0.84C283.69,545.91,283.31,550.71,284.11,551.23z M270.59,550.85c0.38,0.93,0.75,1.59,1.79,1.45
		c0.41-1.26,0.33-1.47-1.19-2.14C271.01,550.36,270.81,550.56,270.59,550.85z M268.63,558.57c-0.26,1.33,0.15,2.33,0.75,3.3
		l1.2,0.01c-0.21-1.53-0.4-2.88-0.65-4.61C269.25,557.92,268.88,558.28,268.63,558.57z M268.56,556.08
		c-0.95-2.37-1.62-2.83-2.92-2.02c0.04,1.19,0.78,1.89,1.79,2.36C267.87,556.64,268.26,556.66,268.56,556.08z M267.43,556.42
		C266.41,555.96,267.87,556.64,267.43,556.42L267.43,556.42z M279.12,544.43c-0.1,0.1-0.07,0.14,0.49-0.21
		c-0.09-0.9-0.57-1.58-1.5-2.11c-0.41,0.25-0.8,0.48-1.23,0.79C277.95,544.51,278.34,544.82,279.12,544.43z M276.91,547.73
		c0.55-0.99-0.48-4.07-1.88-2.84C274.87,546.75,275.09,547.08,276.91,547.73z M278.66,561.69c0.33-0.28,0.58-0.56,0.94-0.84
		c0.06-1.4-0.05-2.7-1.03-3.9c-0.37,0.13-0.76,0.26-1.47,0.4c0.99,1.17,0.39,2.72,1.2,3.84
		C277.99,561.03,277.84,561.06,278.66,561.69z M285.91,534.06c-0.98-0.41-1.1,0.37-1.53,0.96c0.33,0.41,0.63,0.8,0.99,1.22
		c0.28-0.27,0.28-0.38,0.21-0.4C285.98,535.22,286,534.65,285.91,534.06z M277.94,548.61c0.02,0.14,0.02,0.27,0.02,0.39
		c0.43,0.12,0.82,0.24,1.32,0.38c0.2-0.78-0.06-1.12-0.59-1.19C278.45,548.16,278.18,548.47,277.94,548.61z M259.07,557.73
		c1,1.94,1,1.94,2.1,2.67c0.79-1.46-0.32-2.43-0.81-3.83C259.83,557.06,259.43,557.42,259.07,557.73z M268.99,541.04
		C269.11,541.02,266.37,541.39,268.99,541.04L268.99,541.04z M263.26,555.28c-0.32,0.27-0.73,0.6-1.13,0.95
		c0.59,0.94,1.16,1.76,1.74,2.66c0.54-0.17,1.06-0.35,1.72-0.6C264.75,557.22,264.74,555.87,263.26,555.28z M275.08,533.77
		c2.91,0.63,5.49-0.46,8.51-0.82c-0.46-0.64-0.8-0.96-0.97-1.21C281.37,531.89,274.59,531.8,275.08,533.77z M268.9,544.28
		c-1.32-0.25-6.63,0.48-7.59,1.56c0.47,1.13,1.16,1.42,2.46,1c1.53-0.95,3.37-1.02,5.12-1.34L268.9,544.28z M294.86,543.07
		c-0.4-0.14-0.7-0.25-1.05-0.33c-0.72,1.66-1.56,9.32-0.2,10.94c0.45-0.2,0.47-0.28,0.4-0.38
		C295.81,551.61,294.92,545.1,294.86,543.07z M260.94,564.16c-0.37-0.04-0.73-0.11-1.17-0.2c-0.53,2.46-0.35,3.42,0.77,4.09
		c0.7-1.01,0.68-2.13,0.45-3.29C261.03,564.74,261.03,564.62,260.94,564.16z M262.24,555.27l0.01-1.46
		c-1.32-0.31-1.37-0.28-1.85,1.21C260.97,555.13,261.5,555.19,262.24,555.27z M265.37,566.06c0.15,0.44,0.32,0.86,0.56,1.42
		c0.47-0.33,0.69-0.53,1.11-0.86C266.63,565.95,266.3,565.54,265.37,566.06z M261.96,552.8c1.27,0.18,2.4,0.36,3.38-1.17
		c-1.06-0.53-2.03-0.49-2.99-0.1c0.05-0.08-0.02-0.09-0.45,0.14C261.93,552.04,261.97,552.41,261.96,552.8z M262.35,564.72
		c0.01,1.22-0.49,2.48,0.37,3.63c1.24-0.69,1.11-1.8,1.42-2.96c-0.3-0.35-0.57-0.7-0.89-1.07
		C262.93,564.47,262.66,564.57,262.35,564.72z M266.53,558.92c-0.33,0.32-0.7,0.6-1.06,0.93c0.22,1.07,0.84,1.12,1.59,0.98
		C267.52,559.68,267.52,559.68,266.53,558.92z M264.13,549.98c0.72-1.31,3.29-0.34,3.41-2.05c-1.59-0.93-3.83,0.18-5.31,1.04
		c-0.1,0.37-0.06,0.68,0.19,1L264.13,549.98z M337.35,567.39c-0.07-0.13-0.11-0.18-0.16-0.27c-2.31-3.75-5.68-7.56-6.13-12.06
		c-0.42-3.94,2.05-6.22,2.72-9.7c-6.93,0-9.03,14.55-8.07,19.18c0.92,3.96,6.59,16.91,11.69,17.17c3.22-4.24,2.52-9.88-0.01-14.23
		C337.86,568.27,338.41,569.19,337.35,567.39z M797.71,519.94c-0.13-0.5-0.2-1.02-0.46-1.36c0.06,0.08-0.01-0.01-0.13-0.17
		c-1.86-2.31-3.74-4.52-5.6-6.8c-0.05-0.03-0.15-0.01-0.37-0.08c-0.14,0.4-0.32,0.79-0.45,1.13
		C791.22,514.11,795.72,520.81,797.71,519.94z M794.26,491.99c-1.23,0.26-0.39,2.78,0.55,2.88c0.48-0.68,0.32-1.46-0.31-2.37
		C794.59,492.44,794.54,492.33,794.26,491.99z M793.16,494.7c-0.4,0.74-0.4,0.76,0.34,1.55
		C794.08,495.59,793.94,495.08,793.16,494.7z M797.48,506.77c0.13,0.15,0.27,0.3,0.4,0.45C797.7,507,797.39,506.62,797.48,506.77z
		 M792.6,496.57c-0.4,0.32-0.57,0.86-0.79,1.27c0.28,0.28,0.56,0.51,0.82,0.79c0.69-0.74,0.7-1.4,0.22-2.29
		C792.65,496.41,792.6,496.51,792.6,496.57z M801.13,517.86c-0.88-1.76-5.64-7.48-7.65-9.21c-0.02-0.08-0.15-0.22-0.58-0.45
		c-0.13,0.63-0.18,1.14-0.23,1.36c2.45,3.13,4.72,6.03,7.05,8.92C800.47,518.8,800.85,518.48,801.13,517.86z M796.31,493.58
		c0.71-1.05-0.25-3.06-0.45-4.11c-0.17,0.01-0.47,0-0.81-0.04c-0.03,0.64-0.11,1.18-0.14,1.73
		C795.44,491.85,795.26,493.1,796.31,493.58z M789.66,522.25c0.5-0.06,0.88-0.1,1.3-0.16c-0.02-0.26,0.05-0.44-0.02-0.55
		c-0.66-0.96-2.53-5.41-4.24-4C786.83,519.56,789.2,520.18,789.66,522.25z M797.12,518.42c0.04,0.06,0.09,0.11,0.13,0.17
		C795.8,516.76,796.72,517.92,797.12,518.42z M787,523.5c0.4-0.21,0.63-0.34,1.03-0.62c-0.92-1.18-1.15-2.82-3.18-3.16
		C784.5,521.82,786.46,522.2,787,523.5z M794.58,520.9c-0.06-0.21-0.06-0.5-0.21-0.71c0.06,0.08-0.14-0.17-0.33-0.42
		c-1.45-1.84-2.9-3.68-4.46-5.64C787.96,516.31,792.36,522.49,794.58,520.9z M794.04,519.77c0.11,0.14,0.22,0.28,0.33,0.42
		C793.39,518.95,793.71,519.35,794.04,519.77z M803.07,486.87c-0.01,1.57,1.23,2.83,1.22,4.63c0.47-0.06,0.76-0.07,1.13-0.11
		c-0.04-1.35-1.97-9.33-3.62-9c0.06,1.59,1.17,2.86,1.26,4.39C803.06,486.44,803.06,486.16,803.07,486.87z M804.73,515.28
		c-1.84-2.94-4.52-5.43-6.84-8.07c0.18,0.21,0.22,0.28-0.4-0.45c-0.36-0.93-0.82-1.82-1.51-2.59c-0.57,0.4-0.93,0.65-1.41,1.04
		C795.37,506.85,802.89,517.84,804.73,515.28z M810.03,490.37c1.97-0.7-1.58-8.84-2.29-10.68c-0.28,0.08-0.48,0.17-0.7,0.22
		c-0.33,0.99,0.68,2.78,0.95,3.61C808.43,486.03,809.34,488.17,810.03,490.37z M807.33,490.61c0.33,0.02,0.6,0.06,0.88,0.1
		c0.58-1.14-2.26-10.17-3.91-9.71c0.54,1.57,1.19,3.12,1.49,4.74C806.11,487.44,807.23,488.79,807.33,490.61z M810.19,480.44
		c0.54,2.85,1.34,5.65,2.27,8.44c0.17,0,0.39,0.02,0.64,0.04c0.58-1.58-1.7-9.65-3.24-9.91
		C810.1,480.44,810.17,480.63,810.19,480.44z M783,509.89c-0.51,0.08-1.51,0.21,0.05-0.02l0.02-0.01h0.02
		c1.1-0.14,2.2-0.08,3.38-0.08c0.05-0.59,0.13-1.07,0.16-1.63c-1.76-0.07-13.21,0.8-13.25,2.68
		C776.67,511.18,779.74,510.37,783,509.89z M802.1,491.8c0,0,0.39,0.04,0.64,0.07c0.77-1.55-1.63-6.63-2.17-8.2
		c-0.4,0.32-0.54,0.46-0.79,0.64c0.87,2.37,1.25,4.82,2.25,7.17C802.02,491.48,802.02,491.51,802.1,491.8z M807.99,483.52
		C807.87,483.09,808.43,486.03,807.99,483.52L807.99,483.52z M807.73,512.39c-1-1.52-1.33-1.84-1.29-1.7
		c-2.4-3.23-5.05-6.17-7.31-9.55c-0.44,0.29-0.84,0.54-1.38,0.91c2.37,3.85,5.76,7.32,8.83,10.63
		C806.96,512.62,807.2,512.52,807.73,512.39z M810.35,508.09c-2.77-3.37-5.32-6.4-7.99-9.68c-2.74,2.17,5.14,8.63,6.98,10.54
		C809.74,508.61,810.07,508.33,810.35,508.09z M814.9,498.22c0.52-0.72,0.5-1.48-0.39-2.91c-0.78-0.33-1.47-0.34-2.03,0.59
		c0.12,1.4,1.05,2.17,2.18,2.79C814.93,498.47,814.94,498.34,814.9,498.22z M813.68,500.64c-0.28-0.85-0.38-0.92-0.43-0.76
		c-0.77-1.5-1.91-2.62-2.9-3.95c-0.39,0.11-0.79,0.24-1.46,0.43c1.17,1.54,2.25,2.86,3.34,4.29
		C812.73,500.64,813.07,500.64,813.68,500.64z M810.01,500.93c-0.18-0.23-0.57-0.7-0.08-0.07c-1.16-1.51-2.54-2.81-3.9-4.14
		c-0.56,0.3-0.83,0.48-1.08,0.65c-0.07,2.06,4.74,6.06,6.32,6.91C811.69,503.02,811.26,501.9,810.01,500.93z M803.07,486.87
		c0-0.01-0.01-0.07-0.01-0.08C803.05,487.22,803.06,487.72,803.07,486.87z M816.46,480.11
		C816.29,479.76,816.44,481.88,816.46,480.11L816.46,480.11z M818.14,484.84c1.01-0.84-0.87-4.07-0.88-5.27
		c-0.48-0.87-0.48-0.87-1.39-0.63c0.25,0.43,0.42,0.82,0.59,1.17C816.44,481.88,817.08,483.41,818.14,484.84z M775.78,533.21
		c-0.03,0.07,0.07,0.13,0.36,0.03c0.26-0.91,0.14-1.61-0.76-1.97C774.33,531.54,774.75,533.14,775.78,533.21z M813.57,481.09
		C813.06,480.08,813.56,482.51,813.57,481.09L813.57,481.09z M777.39,518.26c1.54-0.29,6.31-0.21,7-2.17
		c-2.81-0.59-6.2,0.56-8.99,1.03c0.69,1.18,1.03,1.3,1.96,1.13C777.17,518.3,777.07,518.31,777.39,518.26z M820.63,482.88
		c0.1-1.49-0.75-2.57-1-4c-0.36,0.15-0.58,0.22-0.92,0.32c0.36,1.23,0.66,2.33,1.07,3.57C819.98,482.82,820.24,482.84,820.63,482.88
		z M815.5,487.02c1.18-0.72-0.98-8.34-2.42-8.72c-0.24,0.62-0.02,1.78,0.49,2.8C813.56,482.51,814.7,486.09,815.5,487.02z
		 M940.22,569c0.22,0.17,0.46,0.28,0.66,0.39c0.84-0.41,0.42-0.29,0.16-0.17c0.99-0.55,1.15-1.41,0.82-2.58
		c-0.32-0.05-0.77-0.13-1.32-0.18C940.46,567.41,940.33,568.2,940.22,569z M822.99,479.21c-0.54,0.03-0.9,0.16-1.06,0.56
		c-0.02-0.1-0.12-0.1-0.17,0.29c0.33,0.1,0.71,0.22,1.37,0.43C823.06,479.86,823.01,479.56,822.99,479.21z M833.85,505.63
		C833.46,507.73,834.3,503.53,833.85,505.63L833.85,505.63z M817.97,494.95c0.05-0.05,0.1-0.15-0.05-0.47
		c-0.55,0.25-0.93,0.39-1.5,0.66c0.36,0.44,0.57,0.77,0.82,1.11C817.89,495.96,818.06,495.56,817.97,494.95z M827.25,505.42
		c0.43-0.19,0.97-0.46,1.4-0.63c0.82-1.28,1.39-2.41,0.63-4.08c0.81,0.21,1.31,0.32,1.71,0.44c7.19,9.17-13.9,12.08-15.93,16.57
		c3.85-0.15,8.78-1.61,12.65-4.19c14.2-4.7,27.64-7.67,30.21-16.6c-0.2,0.76-0.38,1.4,0.05-0.12c0.41-1.58,0.24-0.93,0.01-0.17
		c2.34-8.8-6.91-16.8-14.74-10.45c-2.63,4.13-2.54,7.44,4.32,9.56c0.66-0.23,1.55-0.61,2.27-0.88c1.42-1.86,2.39-3.66,1.42-6.35
		c1.25,0.39,2.07,0.69,2.64,0.87c8.46,12.55-12.63,16.31-22.51,21.03c1.19-1.41,2.09-3.01,2.46-4.79c1.19-5.69-5.06-10.39-9.73-6.03
		C822.63,502.33,822.86,504.38,827.25,505.42z M780.32,493.19c-1.93-0.3-3.76-0.25-5.54,0.33
		C775.92,494.66,780.02,495.73,780.32,493.19z M777.83,521.22c1.6-0.24,3.26-0.18,4.75-1.23c-0.68-1.71-5.79-0.47-6.42,0.85
		c0.55,0.17,1.08,0.49,1.5,0.41C778.81,521.06,778.19,521.17,777.83,521.22z M782.28,497.6c0.16-0.24,0.52-0.64,1.07-1.29
		c-2.28-0.21-8.02-0.26-9.78,1.09C773.59,499.88,781.01,497.84,782.28,497.6z M785.16,512.09c-3.06,0.47-8.11,0.26-10.79,1.87
		c0.19,1.18,1.11,0.89,1.68,0.85c2.84-0.31,7.16-0.59,9.69-1.88C785.5,512.56,785.38,512.32,785.16,512.09z M783,509.89
		c0.02-0.01,0.1-0.02,0.1-0.02c-0.02,0-0.03,0-0.05,0.01C783.05,509.88,783.04,509.89,783,509.89z M773.15,502.63
		c1.61,1.09,11.19-0.19,11.8-2.24c0.12,0.04,0.22,0,0.15-0.32C783.42,499.21,773.41,501.12,773.15,502.63z M784.65,506.19
		c0.51-0.08,0.93-0.33,1.37-0.45c0.05-1.12,0.05-1.12-0.98-1.78c-3.22,1.43-6.65,1.59-10.08,1.87c-1.34-0.39-1.66-0.24-1.86,1.42
		C776.93,507.3,780.85,506.65,784.65,506.19z M777.4,490.61c-0.61-0.37-1.14-0.98-1.97-0.26c0.11,1.21,0.11,1.21,1.86,1.41
		C777.32,491.39,777.37,490.99,777.4,490.61z M777.76,525.6c1.05-0.35,1.75-0.92,2.08-1.93c0.11,0.01,0.21-0.08,0.25-0.55
		c-0.98-0.31-1.69-0.04-2.51,0.42C777.6,524.17,777.67,524.82,777.76,525.6z M778.68,531.34c-0.54-1.66-0.78-1.89-2.09-1.73
		c0.13,0.51,0.17,1.01,0.31,1.53C777.53,531.22,778.03,531.29,778.68,531.34z M781.77,526.88c0.1-0.47,0.2-0.93,0.26-1.39
		c-0.41-0.27-0.75-0.57-1.04-0.77c-1.39,0.36-0.8,1.79,0.42,2.04C781.4,526.83,781.45,526.88,781.77,526.88z M780.7,528.67
		c-0.7-0.72-1.57-2.12-2.61-0.96c0.6,0.55,1.17,1.08,1.93,1.87C780.25,529.24,780.42,529.03,780.7,528.67z M784.43,524.95
		c0.13-0.51,0.22-0.97,0.31-1.47c-0.58-0.49-1.09-0.93-1.75-1.47c-0.35,0.3-0.69,0.55-0.99,0.81
		C783.09,524.56,783.09,524.56,784.43,524.95z M395.66,516.39c1.43,1.08,3.12,1.06,4.71,1.34c-0.37-0.08-0.99-0.19,0.12,0.01
		c0.47,0.09,1.01-0.22,1.55-0.38C401.47,516.03,396.34,514.69,395.66,516.39z M378.56,514.56c2.38-2.85,4.72-5.71,7.23-8.79
		c-0.05-0.22-0.13-0.73-0.22-1.36c-0.45,0.23-0.58,0.36-0.6,0.44c-2.06,1.7-6.92,7.33-7.8,9.07
		C377.4,514.54,377.79,514.87,378.56,514.56z M385.84,492.56c-0.52,0.88-0.52,1.54,0.13,2.29c0.3-0.27,0.55-0.5,0.85-0.78
		c-0.23-0.42-0.34-0.96-0.76-1.29C386.06,492.73,386.01,492.64,385.84,492.56z M384.48,488.18c-0.3,0.34-0.33,0.44-0.28,0.5
		c-0.61,0.9-0.81,1.68-0.31,2.37C384.8,490.96,385.72,488.46,384.48,488.18z M385.18,492.46c0.74-0.77,0.74-0.79,0.33-1.54
		C384.72,491.28,384.62,491.78,385.18,492.46z M378.41,488.36c1.38-1.06,2.32-5.16,1.85-6.8c-1.43,0.8-1.82,3.73-2.04,5.22
		C378.1,487.23,377.73,487.79,378.41,488.36z M382.93,485.64c-0.27,1.04-1.22,3.03-0.52,4.1c1.06-0.47,0.9-1.71,1.44-2.39
		c-0.02-0.55-0.11-1.09-0.11-1.73C383.4,485.64,383.1,485.65,382.93,485.64z M369.76,492.27c-0.65-0.2-1.03-0.33-1.45-0.45
		c-1.02,1.31-2.19,2.41-2.96,3.9c-0.04-0.16-0.17-0.09-0.46,0.76c0.61,0.02,1,0.02,1.47,0.02
		C367.49,495.09,368.57,493.79,369.76,492.27z M378.21,486.78C378.32,485.97,378.1,487.23,378.21,486.78L378.21,486.78z
		 M373.71,493.35c-0.28-0.17-0.51-0.36-1.05-0.67c-1.43,1.3-2.81,2.58-4.02,4.07c0.49-0.62,0.1-0.16-0.08,0.07
		c-1.28,0.94-1.73,2.05-1.31,3.32C368.81,499.32,373.72,495.41,373.71,493.35z M380.8,498.17c-0.55-0.38-0.89-0.63-1.36-0.93
		c-2.32,3.34-5.02,6.23-7.47,9.41c0.03-0.13-0.3,0.17-1.34,1.68c0.54,0.14,0.78,0.25,1.15,0.31
		C374.92,505.37,378.38,501.97,380.8,498.17z M376.27,494.45c-2.75,3.23-5.36,6.21-8.2,9.53c0.27,0.25,0.62,0.54,1,0.88
		C370.97,502.98,378.97,496.67,376.27,494.45z M383.94,501.4c-0.49-0.4-0.85-0.65-1.41-1.07c-0.65,0.76-1.19,1.64-1.57,2.56
		c-2.42,2.76-5.39,5.31-7.38,8.38C375.38,513.86,383.08,503.02,383.94,501.4z M366.18,491.76c-0.55-0.95-1.24-0.94-1.99-0.63
		c-0.96,1.41-0.97,2.17-0.46,2.9c-0.05,0.11-0.03,0.25,0.22,0.49C365.07,493.91,366.04,493.16,366.18,491.76z M362.53,475.89
		c0.16-0.35,0.31-0.73,0.59-1.16c-0.89-0.25-0.89-0.25-1.43,0.61c-0.01,1.2-1.96,4.39-0.94,5.25
		C361.82,479.18,362.51,477.66,362.53,475.89z M362.53,475.89C362.51,477.66,362.69,475.54,362.53,475.89L362.53,475.89z
		 M363.32,482.82c0.86-0.92,2.05-4.48,2.06-5.89c0.52-1,0.76-2.17,0.54-2.79C364.47,474.5,362.15,482.08,363.32,482.82z
		 M365.38,476.93C365.37,478.34,365.91,475.92,365.38,476.93L365.38,476.93z M360.74,490.7c-0.13,0.61,0.03,1.01,0.69,1.32
		c0.23-0.34,0.47-0.66,0.82-1.1c-0.55-0.28-0.93-0.43-1.46-0.69C360.65,490.55,360.68,490.65,360.74,490.7z M376.02,487.91
		c0.22-0.03,0.5-0.06,0.5-0.06c0.22-0.29,0.22-0.33,0.22-0.33c1-2.33,1.44-4.77,2.37-7.12c-0.24-0.18-0.41-0.32-0.78-0.65
		C377.76,481.3,375.22,486.34,376.02,487.91z M360.28,474.94c-0.34-0.11-0.56-0.18-0.92-0.34c-0.27,1.42-1.15,2.48-1.09,3.98
		c0.4-0.03,0.65-0.04,0.87-0.08C359.58,477.26,359.88,476.16,360.28,474.94z M370.56,486.64c0.27-0.03,0.55-0.07,0.92-0.08
		c0.1-1.82,1.24-3.15,1.58-4.84c0.33-1.62,1.03-3.15,1.59-4.71C373,476.52,369.98,485.49,370.56,486.64z M374.47,487.51
		c0.02-1.8,1.28-3.04,1.29-4.61c0-0.04,0-0.05,0-0.09c0.09-1.52,1.25-2.77,1.32-4.36c-1.6-0.36-3.68,7.58-3.74,8.93
		C373.7,487.42,373.98,487.43,374.47,487.51z M370.92,479.46C370.43,481.96,371.03,479.03,370.92,479.46L370.92,479.46z
		 M368.78,486.27c0.71-2.18,1.66-4.31,2.15-6.81c0.28-0.83,1.32-2.59,0.99-3.59c-0.19-0.06-0.38-0.14-0.65-0.23
		C370.52,477.46,366.8,485.53,368.78,486.27z M365.68,484.77c0.29-0.01,0.49-0.03,0.66-0.03c1.01-2.78,1.84-5.54,2.43-8.4
		c0.01,0.19,0.1,0,0.32-1.42C367.59,475.15,365.13,483.18,365.68,484.77z M390.14,519.18c0.4,0.29,0.62,0.42,1.02,0.64
		c0.56-1.29,2.51-1.64,2.23-3.74C391.34,516.38,391.06,518.02,390.14,519.18z M391.91,506.13c1.18,0.02,2.3-0.02,3.4,0.14
		c1.64,0.27,0.61,0.11,0.07,0.03c3.25,0.53,6.31,1.4,9.59,1.13c0.02-1.88-11.44-2.96-13.18-2.92
		C391.82,505.06,391.89,505.53,391.91,506.13z M392.48,502.09c0.41,0.13,0.84,0.38,1.33,0.47c3.83,0.52,7.7,1.25,11.57,1.28
		c-0.23-1.66-0.49-1.82-1.86-1.46c-3.45-0.35-6.86-0.57-10.03-2.06C392.46,500.97,392.46,500.97,392.48,502.09z M393.49,496.42
		c-0.08,0.32,0.02,0.36,0.12,0.32c0.59,2.06,10.16,3.52,11.78,2.46C405.14,497.7,395.18,495.6,393.49,496.42z M393.69,521.32
		c1.35-0.37,1.35-0.37,2.49-2.08c-0.3-0.27-0.62-0.52-0.98-0.83c-0.64,0.52-1.18,0.96-1.8,1.43
		C393.5,520.35,393.59,520.81,393.69,521.32z M386.87,507.85c-1.96,2.3-3.94,4.52-5.9,6.86c-0.3,0.34-0.34,0.85-0.48,1.35
		c1.98,0.91,6.62-5.71,7.13-7.15c-0.12-0.34-0.27-0.74-0.39-1.14C387,507.84,386.92,507.83,386.87,507.85z M395.33,492.7
		c0.52,0.66,0.85,1.07,1.04,1.31c1.26,0.26,8.64,2.44,8.71-0.05C403.34,492.59,397.62,492.53,395.33,492.7z M396.67,523.18
		c1.23-0.23,1.83-1.65,0.46-2.03c-0.27,0.2-0.64,0.49-1.02,0.76c0.07,0.45,0.13,0.92,0.21,1.39
		C396.62,523.3,396.7,523.25,396.67,523.18z M798.65,491.52c-0.74-1.22-0.76-2.57-1.07-4.07c-0.33-0.06-0.61-0.07-1.15-0.15
		c0.43,1.46,0.45,4.32,1.72,5.38C798.84,492.38,798.87,491.96,798.65,491.52z M403.33,486.89c-0.8-0.74-1.37-0.14-1.96,0.22
		c0.01,0.39,0.04,0.78,0.06,1.16C403.2,488.1,403.2,488.1,403.33,486.89z M800.56,490.7c-0.19-1.5-0.53-4.43-1.95-5.25
		c-0.49,1.63,0.34,5.75,1.73,6.83C801.03,491.73,800.64,491.15,800.56,490.7z M380.56,488.8c1.32-1.03,1.4-3.9,1.81-5.35
		c-0.51,0.07-0.81,0.08-1.13,0.13c-0.36,1.49-0.39,2.84-1.14,4.05C379.87,488.07,379.9,488.48,380.56,488.8z M398.41,489.65
		c0.25,2.54,4.35,1.55,5.51,0.44C402.16,489.47,400.37,489.38,398.41,489.65z M402.86,513.66c-2.79-0.53-6.16-1.73-8.97-1.2
		c0.66,1.97,5.43,1.98,6.97,2.3c0.32,0.06,0.23,0.05,0.02,0C401.82,514.94,402.18,514.83,402.86,513.66z M800.56,490.7
		C800.64,491.15,800.47,489.89,800.56,490.7L800.56,490.7z M383.87,516.37c0.07-0.09,0.15-0.18,0.22-0.27
		C384.45,515.66,384.97,515.01,383.87,516.37z M387.25,517.78c-0.07,0.11,0,0.29-0.01,0.55c0.43,0.07,0.76,0.12,1.29,0.18
		c0.5-2.06,2.87-2.64,3.06-4.65C389.87,512.42,387.93,516.84,387.25,517.78z M384.09,516.1c-0.15,0.19-0.27,0.34-0.22,0.27
		c-0.16,0.21-0.17,0.49-0.22,0.7c2.14,1.63,6.69-4.46,5.08-6.67C387.1,512.38,385.59,514.24,384.09,516.1z M380.98,514.71
		C382.93,512.37,380.68,515.05,380.98,514.71L380.98,514.71z M403.95,510.51c-2.63-1.65-7.67-1.54-10.78-2.07
		c-0.15,0.23-0.3,0.46-0.57,0.82c2.52,1.34,6.84,1.69,9.67,2.06C402.86,511.38,403.76,511.69,403.95,510.51z M400.36,522.09
		c0.08-0.78,0.16-1.43,0.2-2.07c-0.8-0.47-1.5-0.76-2.48-0.46c0.02,0.48,0.14,0.57,0.23,0.56
		C398.63,521.15,399.33,521.73,400.36,522.09z M401.45,526.13c-1.3-0.18-1.57,0.04-2.13,1.69c0.7-0.04,1.16-0.1,1.78-0.17
		C401.24,527.13,401.35,526.63,401.45,526.13z M402.21,529.74c0.99-0.06,1.48-1.65,0.42-1.93c-0.91,0.35-1.06,1.04-0.8,1.95
		C402.15,529.87,402.21,529.82,402.21,529.74z M399.97,524.2c-1.02-1.19-1.89,0.2-2.61,0.91c0.24,0.36,0.41,0.58,0.65,0.92
		C398.79,525.25,399.38,524.74,399.97,524.2z M357.04,475.45c-0.17-0.4-0.51-0.54-1.06-0.58c-0.03,0.35-0.06,0.65-0.15,1.28
		c0.64-0.2,1.03-0.31,1.37-0.4C357.16,475.35,357.08,475.35,357.04,475.45z M910.03,562.4l-0.01,0
		C909.93,562.44,909.89,562.46,910.03,562.4z M916.71,574.16c1.13-0.65,1.3-1.61,0.82-4.08c-0.43,0.08-0.78,0.14-1.15,0.17
		c-0.15,0.44-0.15,0.57-0.1,0.6C916.05,572.04,916.03,573.13,916.71,574.16z M931.1,559.92c-0.22-0.32-0.34-0.52-0.55-0.9
		c-0.97,0.86-1.89,1.67-2.8,2.5C928.29,563.6,931.19,559.8,931.1,559.92z M929.31,567.79c-0.4-0.24-0.83-0.49-1.16-0.75
		c-0.27,0.08-0.42,0.07-0.43,0.12c-0.52,0.77-0.32,0.49-0.17,0.24c-0.87,1.31-2,2.56-2.02,4.21
		C926.84,571.93,929.21,568.99,929.31,567.79z M914.23,561.33c-1.52,0.56-1.56,1.91-2.43,2.96c0.71,0.26,1.17,0.44,1.7,0.63
		c0.61-0.89,1.19-1.69,1.8-2.62C914.92,561.95,914.53,561.61,914.23,561.33z M917.07,562.67c-0.49,1.39-1.63,2.34-0.88,3.81
		c1.16-0.71,1.16-0.71,2.17-2.63C918.03,563.54,917.59,563.17,917.07,562.67z M928.83,558.27c-0.31-0.7-0.91-0.76-1.44-0.31
		c-0.7,0.54-1.24,1.27-1.89,1.94C926.79,560.6,927.56,560.2,928.83,558.27z M924.7,566.06c-0.33,0.06-0.74,0.1-0.98,0.13
		c-0.54,0.61-0.73,2.23-0.49,3.03C925.11,568.86,925.4,568.23,924.7,566.06z M924.33,571.95c-0.21-0.64-0.42-1.23-0.7-1.98
		c-0.54,0.22-1.01,0.41-1.74,0.71c0.57,0.86,0.96,1.42,1.37,2.1C923.7,572.43,924,572.2,924.33,571.95z M923.21,555.95
		c-0.81-1.15-0.81-1.15-1.83-1.56c-0.22,0.47-0.18,0.6-0.08,0.65c-0.16,0.97,0.21,1.69,1.5,1.75
		C922.92,556.5,923.05,556.22,923.21,555.95z M920.96,563.99c-0.6,0.92-1.02,1.6-1.55,2.32c0.14,0.34,0.3,0.65,0.51,1.06
		c0.51-0.33,0.99-0.62,1.43-0.85C921.63,565.25,921.63,565.25,920.96,563.99z M927.39,557.96
		C927.92,557.52,926.69,558.5,927.39,557.96L927.39,557.96z M925.12,556.89c-0.68,0.56-1.19,1.04-1.74,1.57
		c0.02,0.42,0.1,0.89,0.15,1.29c1.22,0.13,1.72-0.53,2.3-1.51C925.6,557.85,925.41,557.46,925.12,556.89z M921.05,573.61
		c-0.15-1.33,0.63-2.61-0.63-3.67c-1.53,0.84-0.71,2.17-0.92,3.57C920.09,573.52,920.51,573.55,921.05,573.61z M913.13,571.42
		c0.27,1.16,0.16,2.27,1.37,2.98c0.89-1.13,0.4-2.4,0.45-3.62c-0.33-0.15-0.59-0.26-0.93-0.42
		C913.73,570.73,913.41,571.08,913.13,571.42z M893.97,529.76c2.25,0.9,5.06,1.22,7.46,0.92c0.05-0.34,0.1-0.63,0.17-1.13
		c-2.28-0.34-4.42-0.6-6.91-0.95C894.52,528.92,894.32,529.26,893.97,529.76z M898.63,527.23c-0.5-1.4-0.79-1.57-2.24-1.24
		C896.89,527.27,897.16,527.38,898.63,527.23z M911.86,560.07c-1.29-0.84-1.97-0.39-2.96,1.96c0.26,0.58,0.65,0.57,1.11,0.37
		l0.02-0.01C911.06,561.94,911.78,561.26,911.86,560.07z M891.64,538.14c-0.63-0.72-0.63-0.72-1.75-0.65l-0.02,1.65
		C890.94,539.46,891.39,538.95,891.64,538.14z M902.46,533.36c0.1,0.01,0.25-0.03,0.41-0.38c-1.27-0.94-8.45-2.52-9.19-0.89
		C894.54,533.43,900.69,534.66,902.46,533.36z M902.97,566.19C902.87,567.39,903.12,565.01,902.97,566.19L902.97,566.19z
		 M904.8,579.67c0.2-0.3,0.38-0.59,0.62-1.07c-4.45-0.85-10.09-0.06-14.06-2.61c-0.94-0.94-2.07-1.35-3.35-1.27
		C891.4,580,899.52,578.24,904.8,579.67z M887.65,558.78c-0.11-3.67-0.28-7.11-0.34-10.53c-3.04,0.27-1.21,8.11-1.23,10.38
		C886.65,558.68,887.04,558.74,887.65,558.78z M910.04,562.39c0,0-0.01,0.01-0.01,0.01C910.73,562.09,910.27,562.29,910.04,562.39z
		 M886.57,532.56c-1.17,0.47-1.69,1.79-1.46,3.67C886.39,535.92,887.22,533.91,886.57,532.56z M889.51,535.35
		c-0.19-0.77-0.6-1.06-1.44-0.79c-0.35,0.94-0.7,1.95-1.08,2.89C888.6,538.76,888.96,536.55,889.51,535.35z M889.96,558.11
		c0.17,0,0.34,0,0.54-0.01c1.05-2.68,0.33-6.4,0.26-9.27l-1.35-0.01C889.02,551.82,888.98,555.25,889.96,558.11z M777.16,566.25
		c-1.07,2.11-1.91,8.12-1.43,9.99c2.24-0.19,4.59-12.78,2.74-14.38C777.66,562.55,777.13,564.45,777.16,566.25z M839.99,571.92
		c0.04-0.06,0.07-0.11,0.11-0.17C840.42,571.23,840.26,571.46,839.99,571.92z M839.77,572.3
		C839.32,572.99,838.95,573.62,839.77,572.3L839.77,572.3z M826.38,569.49c5.83-2.3,10.24-9.23,8.7-15.5
		c-0.87-3.55-6.4-13.15-11.18-12.12c-0.3,0.65,1.72,4.1,1.84,4.66c0.65,2.99-1.98,6.04-1.97,9.11c0.02,4.03,3.84,6.84,3.57,10.83
		c-0.59,0.72-1.21,1.43-1.88,2.24C825.83,569.05,826.05,569.27,826.38,569.49z M812.08,570.62c-0.35,0.45-0.62,0.89-1.04,1.49
		c2.84,3.16,20.9,9.68,24.99,7.38l0.02-1.75c-7.68-2.56-15.73-3.42-22.93-7.28C812.82,570.49,812.44,570.56,812.08,570.62z
		 M714.38,574.32h-0.02v0.02L714.38,574.32z M849.53,580.96c-0.12-0.14-0.37-0.12-0.59,0.6c3.1,0.77,17.79,4.26,19.63,1.61
		C866.47,580.78,852.46,578.18,849.53,580.96z M843.86,550.1c0.64,3.5,3.06,5.82,2.57,9.75c-0.54,4.47-3.95,8.21-6.33,11.9
		c-0.06,0.09-0.1,0.16-0.19,0.31c-0.06,0.1-0.1,0.15-0.14,0.23c0.03-0.05,0.06-0.1,0.09-0.15c-2.61,4.3-3.42,9.92-0.3,14.23
		c5.12-0.17,11.04-13,11.99-16.95C852.64,564.81,850.82,550.24,843.86,550.1z M902.02,561.97c-0.19,2.05-1.38,3.74-0.77,5.67
		c1.2,0.03,1.62-0.25,1.71-1.45c0.16-1.18,0.19-2.33,0.3-3.65C902.93,562.41,902.5,562.24,902.02,561.97z M813.36,577.33
		c0.1-0.19,0.03-0.34-0.55,0.07c2.64,3.48,6.96,4.15,9.65,7.06c2.06,2.24,3.03,6.24,4.99,8.04c0.29-0.07,0.68-0.2,0.95-0.25
		C830.41,587.67,817.26,576.22,813.36,577.33z M782.09,566.9C782.1,566.27,780.73,569.45,782.09,566.9L782.09,566.9z M930.18,569.42
		c0.23,0.43,0.5,0.83,0.81,1.34c0.43-0.06,0.81-0.09,1.18-0.18c0.19-0.69,0.34-1.31,0.51-2.03c-0.41-0.37-0.85-0.78-1.6-1.4
		C930.7,568.08,930.5,568.72,930.18,569.42z M785.95,567.22c-0.32,1.99-0.66,3.88-0.99,5.93c0.34,0.21,0.7,0.44,1.22,0.78
		c1.2-2.08,0.75-4.27,1.36-6.54C786.92,567.32,786.53,567.32,785.95,567.22z M782.11,564.8l-0.02,2.1
		c-1.36,2.55-1.52,5.26-0.99,8.07c2.1-0.49,1.68-6.49,2.52-8.25C783.57,565.05,783.57,565.05,782.11,564.8z M933.57,565.57
		c0.42,0.01,0.5-0.11,0.47-0.22c0.92-0.25,1.29-1.02,1.61-1.94c-0.3-0.28-0.62-0.58-0.86-0.84c-0.89,0.28-1.37,1.46-1.21,2.48
		C933.42,565.05,933.33,565.13,933.57,565.57z M936,568.54c-0.48-0.43-0.87-0.85-1.3-1.21c-0.17,0.02-0.32,0.07-0.46,0.11
		c-0.19,0.77-0.36,1.59-0.59,2.59c0.59,0.21,1.09,0.36,1.8,0.58C935.66,569.8,935.81,569.23,936,568.54z M938.49,565.48
		c-0.1-0.33-0.17-0.42-0.24-0.44c-0.34-0.61-0.7-0.76-1.85-0.21l-0.01,0.87C936.82,566.17,937.71,565.99,938.49,565.48z
		 M932.09,561.32c-0.78,0.89-1.51,1.83-2.45,3c0.67,0.15,1.08,0.28,1.6,0.45c0.66-1.21,1.94-1.9,1.91-3.66
		C932.59,561.21,932.21,561.15,932.09,561.32z M932.09,561.32C932.21,561.15,931.31,562.22,932.09,561.32L932.09,561.32z
		 M938.83,569.69c0.27-1.04,0.1-1.82-0.73-2.3c0.15,0,0.2-0.05-0.17-0.22c-0.3,0-0.35,0.04-0.32,0.09
		c-0.69,0.23-0.62,0.97-0.92,1.57c0.41,0.5,0.7,0.88,1.09,1.33C938.18,569.98,938.51,569.81,938.83,569.69z M792.19,570.3
		c-0.77-0.38-1.36-0.6-1.96-0.07c0,0-0.2,0.08-0.37,0.39c0.39,0.41,0.85,0.85,1.65,1.63C791.81,571.34,791.99,570.83,792.19,570.3z
		 M805.68,542.07c0.02,0.03,0.02,0.03,0.05,0.07c0,0,0-0.02-0.02-0.04C805.7,542.08,805.7,542.08,805.68,542.07z M789.29,584.79
		C790.25,584.32,789.22,584.75,789.29,584.79L789.29,584.79z M845.46,546.09c-19.49-12.54-50.58-9.93-68.61-6.92
		c23.7-13.52,56.11-23.14,83.2-24.47c1.17,1.59,8.51,4.5,10.13,5.3c0.32-0.36,0.59-0.7,0.97-1.17c-2.46-1.61-5.03-3.08-7.64-4.47
		c5.6-0.43,14.63,0.22,14.85-0.06c7.89,0.59,40.7,10.54,56.37,31.41c2.18,2.84,4,5.79,6.51,8.64c0.84-2.59-2.93-6.33-4.06-8.35
		c-10.66-18.59-46.61-34.87-61.53-35.01c2.86-1.05,5.62-2.1,6.68-5.38c-1.92-0.61-5.28,3.01-6.94,3.73
		c-2.28,0.98-4.53,1.83-6.92,2.33c-3.96,0.77-8.25,0.41-12.34,0.69c-10.64,0.8-20.68,2.64-31.13,4.71
		c-19.85,3.93-38.05,12.98-55.67,22.54c-14.99-10.78-7.36-72.35,18.62-72.11c0.92,0.01,2.64,0.43,3.59,1.14
		c0.22,0.5,0.53,1.14,0.8,1.76c-6.86-2.4-8.21,13.16,2.16,7.07c4.69-5.44-0.71-13.36-6.53-13.42
		c-31.24-0.29-38.06,67.13-21.74,77.57c-20.86,0.97-48.72,18.45-54.44,30.19c-3.6,7.27-2.34,16.88,5.36,20.69
		c7.36,3.66,13.46-3.03,13.53-9.71c-3.12-4.2-7.55-7.06-11.4-1.91c-0.49,5.3,4.75,6.42,7.68,2.59c3.97,1.38-4.04,8.65-8.25,6.17
		c-5.46-3.05-7.72-9.8-4.36-15.32c2.22-7.16,31.57-28.44,54.12-30.15c11.25,5.38,23.4,22.78,35.54,26.18
		c0.56-1.53-4-5.63-9.85-10.18c12.84-0.76,18.18,18.46,5.06,21.94c-2.71-1.22-4.33-1.92-7.51-1.53c-0.16-0.02-0.48,0.01-0.95,0.1
		c-3.98,2.56-6.26,6.1-3.24,11.47c5.02,3.66,9.17,2.04,13.22-1.67c0.95-1.8,0.04-3.88,0.69-5.77c13.97-8.77,7.28-31.94-10.06-26.71
		c-8.11-6.19-17.42-12.68-19.07-14.75c2.56-2.08,15.97-3.72,30.94-3.45c0.85,0.8,1.76,1.46,2.43,2.26
		c-0.15-0.19-0.27-0.34,0.02,0.03c0.4,0.49,0.18,0.28,0.02,0.04c1.8,2.32,0.56,6.3,1.04,8.96c0.68,4.42,3.12,7.05,5.76,10.52
		c9.04-5.89,2.94-18.13-5.18-21.65c10.86,0.44,22.04,1.93,30.19,4.98c9.84,3.7,20,10.94,23.98,21.15
		c2.37,6.21,2.71,11.81,8.94,15.76c3.7,2.31,7.94,3.22,11.57,5.76l0.99,0.01c1.23-6.18-9.15-17.44-13.22-21.63
		C862.5,558.47,854.4,551.81,845.46,546.09z M793.14,591.97c0.78-0.31,1.49-0.66,2.21-0.91c1.27-2,1.27-2,1.33-2.92
		c-1.17-0.65-3.16,0.91-4.51,0.6c-0.19-0.17-0.51-0.44-0.8-0.74l0.02-1.93c0.31-1.47,2.26-0.62,2.51-2.18
		c-0.53-0.23-1.09-0.42-1.68-0.6c-0.98,0.5-1.97,1.01-2.93,1.49c-0.06-0.04-0.14-0.09-0.21-0.16
		C795.85,574.26,804.9,593.7,793.14,591.97z M711.81,571.82C712.67,570.02,711.01,573.44,711.81,571.82L711.81,571.82z
		 M784.37,543.01c5.93,5.12,4.5,12.45,14.31,12.29c0.02-2.22-1.68-9.72-3.85-11.22C792.45,542.38,786.64,540.15,784.37,543.01z
		 M894.22,564.14c0.14,0.97,1.02,0.94,1.52,1.38c0.38-0.15,0.65-0.29,1.02-0.39c-0.04-0.4-0.04-0.73-0.1-1.05
		c-0.57-0.44-0.4-0.22-0.23-0.07C895.66,563.55,894.98,563.78,894.22,564.14z M878.22,551.42c-0.96,0.05-1.25,0.5-1.38,1.23
		c0-0.15,0.02-0.26-0.05,0.04c-0.1,1.34-0.99,3.72,0.71,4.57c0.33-0.19,0.6-0.43,1.07-0.68
		C878.45,554.88,878.98,553.1,878.22,551.42z M864.35,541.67c-6.08,0.4-11.92,2.7-18.06,3.4c8.51,11.89,24.16,4.58,33.7-0.76
		C877.15,542.5,867.8,541.42,864.35,541.67z M915.58,558.88c0-0.39,0.03-0.77,0.08-1.13c-0.44-0.24-0.54-0.23-0.49-0.15
		c-0.93-0.41-1.88-0.47-2.95,0.04C913.15,559.19,914.3,559.03,915.58,558.88z M873.43,554.96c0.29,0.22,0.58,0.44,1.12,0.84
		c0.32-0.68,0.6-1.11,0.83-1.58C874.07,553.88,874.07,553.88,873.43,554.96z M862.85,525.9c-1.15,0.27-1.53,1.19-1.45,2.55
		c-0.13-0.23-0.24-0.17-0.01,0.82c0.47-0.14,0.81-0.3,1.25-0.45C862.56,527.81,863.59,526.96,862.85,525.9z M865.97,525.42
		c-2.33-0.12-2.23,3.58-1.98,5.27c0.39-0.08,0.72-0.1,1.25-0.14C865.02,528.75,866.73,527.31,865.97,525.42z M859.29,527
		c-0.8-0.55-0.8-0.55-1.96,0.55C858.52,528.18,858.65,528.14,859.29,527z M419.65,563.97C420.19,565.14,419.93,564.55,419.65,563.97
		L419.65,563.97z M911.91,565.86c-0.34-0.34-0.72-0.63-1.06-0.95c-0.99,0.75-0.99,0.75-0.52,1.89
		C911.04,566.96,911.68,566.92,911.91,565.86z M915.14,556.03c0.22-0.31,0.32-0.62,0.21-1c-1.43-0.88-3.66-2.04-5.28-1.14
		c0.08,1.72,2.66,0.79,3.39,2.12L915.14,556.03z M911.9,572.07c-0.93-0.53-1.25-0.13-1.7,0.52c0.44,0.35,0.65,0.55,1.14,0.89
		C911.55,572.92,911.72,572.5,911.9,572.07z M915.25,559.89l-0.01,1.46c0.75-0.07,1.23-0.12,1.8-0.21
		C916.62,559.64,916.57,559.6,915.25,559.89z M852.25,528.08c0.56-0.74,0.99-1.58,1.27-2.48c-10.48-2.72-16.67,6.34-24.33,11.28
		c3.27,2.38,7.8,1.21,11.53,1.55c5.6-2.36,8.51-4.46,11.31-9.95C851.84,528.86,851.69,529.2,852.25,528.08z M937.16,573.59
		c-7.69,2.87-16.35,6.15-24.65,6.17c-9.48,0.01-19.17,1.78-28.56,2.7c-0.2,0.33-0.15,0.33-0.08,0.29c-0.25,0.63-0.13,1.19,0.35,1.79
		c9.23,0.42,18.24-3.16,27.33-2.33c-1.69,1.42-3.25,3.7-4.53,5.49c0.56,0.33,0.98,0.59,1.39,0.85c9.33-10.7,23.43-9.19,35.22-15.97
		C946.62,570.86,943.42,571.23,937.16,573.59z M883.92,548.22c-0.39,0.07-0.65,0.18-1.08,0.31c-0.1,2.03-1.12,8.52,0.66,10.25
		c-0.09,0.09-0.06,0.18,0.39,0.38C885.24,557.57,884.6,549.89,883.92,548.22z M809.03,534.07c7.03,2.93,14.2-1.21,18.72-6.21
		c0.26-0.28,0.35-0.75,0.7-1.48C820.21,527.81,815.12,527.73,809.03,534.07z M827.76,527.86
		C825.58,530.27,828.02,527.58,827.76,527.86L827.76,527.86z M946.32,566.52c0.44,0.15,0.76,0.25,1.32,0.41l0.01-1.51
		C946.77,565.2,946.52,565.71,946.32,566.52z M944.2,568.09c0.3-0.53,0.56-0.94,0.97-1.67c-0.34-0.26-0.71-0.56-1.09-0.96
		C942.93,566.63,942.69,567.07,944.2,568.09z M881.32,558.01c0.03-2.83,0.2-5.63-0.17-8.35c-0.1-0.08-0.27-0.09-0.39-0.15
		c-0.25,0.32-0.74,0.61-0.74,0.94c0-0.15-0.02,0.34-0.03,0.7c-0.12,2.3-0.28,4.66,0.17,7.05
		C880.58,558.09,880.92,558.08,881.32,558.01z M871.43,524.85c-0.23,0.51-0.56,0.92-0.61,1.45c-0.01,0.06-0.01,0.08-0.02,0.13
		c-0.34,2.51-1.46,4.87-1.78,7.36c0.2,0.07,0.37,0.16,0.5,0.19C870.53,532.65,873.83,525.96,871.43,524.85z M870.8,526.45
		C870.58,528.14,870.72,526.94,870.8,526.45L870.8,526.45z M880.83,528.6c-0.56,1.93-1.06,3.74-1.6,5.71
		c0.29,0.24,0.56,0.5,0.8,0.71c1.24-0.84,1.93-4.81,2.07-6.34C881.64,528.67,881.22,528.67,880.83,528.6z M873.65,533.82
		c0.03-0.04,0-0.02,0.03-0.07c0.59-1.8,2.7-6.16,2.3-7.93c-0.9-0.57-0.9-0.57-1.71-0.14c-0.66,2.85-1.77,5.92-1.7,8.86
		c0.15,0.02,0.24,0.09,0.35,0.12C873.19,534.39,873.55,534.15,873.65,533.82z M877.9,532.29c0.41-1.58,0.81-3.11,1.22-4.69
		c-0.24-0.26-0.61-0.4-1.03-0.4c-1.02,1.96-1.93,4.72-1.95,6.93C877.37,534.7,877.68,533.02,877.9,532.29z M867.05,531.72
		c1.63-0.99,2.63-4.66,1.71-6.61C867.5,527.33,867.01,529.4,867.05,531.72z M900.68,553.52c1.86-0.61,2.08-0.94,1.93-2.81
		C901.23,549.46,900.18,552.52,900.68,553.52z M902.18,542.84l0.01-1.12c-2.56-0.67-4.3-0.77-5.35-0.43
		c0.03-0.12-0.08-0.18-0.5,0.05c0.32,0.38,0.69,0.74,0.9,1C899.05,542.53,900.54,542.7,902.18,542.84z M901.62,544.23
		c-1.27-0.75-2.47-0.86-3.85-0.33C898.28,545.56,901.16,546.41,901.62,544.23z M905.6,553.78c-0.33-0.27-0.63-0.5-1.02-0.8
		c-0.42,0.16-0.47,0.21-0.39,0.27c-1.33,0.71-2.05,1.84-3.57,2.2c-0.28,0.74,0.04,1.05,0.62,1.34
		C902.56,555.81,904.44,555.58,905.6,553.78z M895.27,537.43c-0.2,0.24-0.49,0.56-0.97,1.19c3.01,0.42,5.57,1.56,8.47,0.98
		C903.3,537.64,896.54,537.61,895.27,537.43z M899.67,554.39c-0.27-0.14-0.54-0.46-0.76-0.44c-0.49,0.06-0.79,0.4-0.61,1.18
		c0.5-0.14,0.91-0.24,1.34-0.35C899.65,554.66,899.65,554.53,899.67,554.39z M916.33,551.93c-0.95-1.1-6.23-1.93-7.53-1.7
		l-0.01,1.23c1.73,0.35,3.56,0.45,5.08,1.43C915.14,553.33,915.84,553.06,916.33,551.93z M898.14,545.54
		c-1.56-0.65-2.2-0.2-2.33,1.77C896.96,548.56,898.79,546.94,898.14,545.54z M777.16,566.25
		C777.13,564.45,776.09,568.36,777.16,566.25L777.16,566.25z M898.88,562.72c-1.02,1.18-1.16,2.48-1.09,3.88
		c0.33,0.28,0.56,0.57,0.9,0.85c0.86-0.62,0.65-0.65,0.36-0.46c0.86-1.13,0.26-2.7,1.3-3.85
		C899.64,562.99,899.25,562.86,898.88,562.72z M896.83,551.37l-1.57-0.01c0.2,1.73-0.92,3.37,0.51,5.14
		C897.22,554.9,896.87,553.16,896.83,551.37z M902.3,548.2c-0.26-1.33-0.63-1.59-1.74-1.19C900.93,548.15,900.93,548.15,902.3,548.2
		z M893.92,535.38c2.24,1.37,6.24,1.09,8.82,1.36c0.11-0.44,0.18-0.73,0.27-1.08c-0.29-0.12-0.39-0.14-0.42-0.12
		C900.76,534.97,893.79,533.65,893.92,535.38z M899.62,547.88c-0.95,0.51-1.44,1.19-1.56,2.09c0.6,0.36,0.6,0.32,0.48,0.22
		c0.8,0.4,1.18,0.1,2.29-1.49C900.41,548.38,900,548.15,899.62,547.88z M911.11,537.31c-0.5,1.82,3.23,2.1,4.18,2.37
		c0.2-0.14,0.57-0.51,1.04-0.95C915.14,537.91,912.62,536.8,911.11,537.31z M913.97,533.99c-0.09,0.49-0.15,0.88-0.22,1.43
		l1.75,0.02l0.01-1.43L913.97,533.99z M908.38,545.13c2.65,0.85,5.72,1.48,8.51,1.51C915.95,545.05,909.23,542.87,908.38,545.13z
		 M909.41,541.59c2.04,0.78,4.24,0.89,6.4,1.67c0.33-0.42,0.55-0.76,0.82-1.04c-0.17-0.22-0.23-0.36-0.34-0.39
		c-0.93-0.22,0.11,0.03,0,0C914.59,541.41,910.61,539.44,909.41,541.59z M916.52,549.78c0.05-0.62,0.16-1.05,0.21-1.54
		c-2.79-0.46-5.37-0.86-7.96-1.26c-0.16-0.03-0.36,0.2-0.55,0.37C908.86,549.09,914.83,549.52,916.52,549.78z M894.46,545.2
		c0.96-0.15,1.44-0.68,1.85-1.59c-0.38-0.36-0.74-0.73-1.21-1.2c-0.54,0.49-0.99,0.92-1.53,1.41
		C893.86,544.34,894.2,544.77,894.46,545.2z M908.77,546.98C911.36,547.38,908.61,546.96,908.77,546.98L908.77,546.98z
		 M891.96,539.69c-0.07,0.58-0.07,1.16,0.28,1.79c-0.05,0.01-0.06,0.11,0.24,0.4c0.33-0.41,0.66-0.8,0.99-1.2
		C893.04,540.08,892.95,539.3,891.96,539.69z M892.82,550.92c-0.78,1.35-0.92,3.29-0.08,5.81c0.23,0.07,0.49,0.14,0.71,0.17
		c0.78-0.51,0.52-5.31-0.3-6.81C892.7,550.53,892.7,550.79,892.82,550.92z M908.81,564.52c-0.28-0.29-0.63-0.66-1.29-1.32
		c-0.29,1.73-0.49,3.08-0.78,4.6l1.22,0.01C908.6,566.85,909.01,565.85,908.81,564.52z M906.04,562.59
		c-0.12-0.08-0.27-0.15-0.44-0.25c-1.11,0.83-2.11,3.31-1.48,4.73c0.26,0.04,0.65,0.09,1.2,0.13
		C905.42,565.59,906.34,564.18,906.04,562.59z M906.97,556.76c-0.26-0.29-0.43-0.5-0.58-0.7c-1.53,0.64-1.63,0.84-1.24,2.11
		C906.18,558.34,906.56,557.69,906.97,556.76z M883.6,530.72c-0.71,1.31-1.3,2.46-0.74,3.9c1.11-0.09,1.24-0.85,1.43-1.57
		c0.05-0.17,0.19-0.68,0.04-0.16C884.57,532.12,884.7,531.4,883.6,530.72z M305.02,529.38c0.15-0.03,0.25-0.1,0.35-0.11
		c0.15-2.94-0.9-6.03-1.48-8.89c-0.85-0.44-0.85-0.44-1.74,0.11c-0.47,1.76,1.59,6.13,2.15,7.97c0,0.03,0,0.03,0.02,0.07
		C304.42,528.86,304.76,529.11,305.02,529.38z M296.91,544.08c-0.1,0.06-0.27,0.07-0.39,0.14c-0.39,2.72-0.28,5.52-0.31,8.35
		c0.42,0.07,0.77,0.09,1.16,0.2c0.55-2.61,0.38-5.22,0.28-7.74C297.65,544.7,297.18,544.4,296.91,544.08z M302.22,548.9
		c0.23,0.47,0.48,0.91,0.81,1.59c0.53-0.39,0.84-0.61,1.11-0.82C303.56,548.57,303.56,548.57,302.22,548.9z M299.44,546.04
		c-0.82,1.67-0.33,3.45-0.42,5.15c0.41,0.27,0.71,0.51,1.03,0.7c1.69-0.82,0.85-3.21,0.77-4.56c-0.01-0.09-0.02-0.09-0.02-0.11
		C300.64,546.54,300.35,546.1,299.44,546.04z M368.96,529.98c-6.02-6.45-11.12-6.46-19.31-8.05c0.35,0.74,0.44,1.21,0.67,1.49
		c1.81,2.07,0.42,0.47,0.07,0.07C354.84,528.54,361.86,532.76,368.96,529.98z M295.95,523.23c0.11,1.53,0.73,5.51,1.99,6.37
		c0.23-0.2,0.5-0.46,0.8-0.69c-0.52-1.98-1-3.8-1.47-5.74C296.87,523.24,296.44,523.24,295.95,523.23z M309.38,519.91
		c-0.97,1.93,0,5.62,1.59,6.64C311.08,524.23,310.59,522.15,309.38,519.91z M468.69,572.11c-0.18,0.37-0.4,0.68-0.53,1.01
		c0.9,0.48,1.54,0.28,2.18-0.43c-0.07-0.15-0.17-0.17-0.24-0.15C469.7,572.21,469.19,572.25,468.69,572.11z M306.71,519.61
		c-2.44,1.06,0.76,7.82,1.73,9.17c0.15-0.03,0.33-0.11,0.48-0.18c-0.25-2.51-1.31-4.88-1.61-7.4c0.06,0.5,0.2,1.86-0.02-0.12
		C307.26,520.53,306.95,520.12,306.71,519.61z M314.03,525.57c0.29-1.68,0.47-5.38-1.86-5.3c-0.83,1.88,0.9,3.35,0.66,5.15
		C313.32,525.46,313.64,525.48,314.03,525.57z M316.67,523.39c0.11-1.36-0.22-2.29-1.4-2.57c-0.77,1.05,0.25,1.91,0.14,2.92
		c0.43,0.16,0.78,0.32,1.27,0.47C316.9,523.22,316.77,523.15,316.67,523.39z M320.75,522.56c-1.13-1.11-1.13-1.11-1.95-0.58
		C319.45,523.13,319.54,523.17,320.75,522.56z M337.15,533.74c3.76-0.26,8.26,0.99,11.55-1.33c-7.52-5.08-13.56-14.25-24.12-11.73
		c0.29,0.91,0.69,1.75,1.28,2.5c0.68,1.44,0.24,0.5,0.05,0.1C328.65,529.05,331.53,531.23,337.15,533.74z M297.65,545.03
		C297.75,547.56,297.65,544.7,297.65,545.03L297.65,545.03z M486.89,583.77C487.21,583.51,484.58,584.85,486.89,583.77
		L486.89,583.77z M490.1,581.85c-1.05-0.03-2.46,1.41-3.21,1.91c-2.31,1.08-4.08,2.55-6.09,3.78c1.26,1.74,8.12-3.88,9.65-5.06
		C490.31,582.24,490.21,582.03,490.1,581.85z M488.35,579.52c-1.43,0.94-2.74,2.01-4.22,2.74c-1.53,0.77-2.56,2.23-4.26,2.77
		c0.07,0.37,0.09,0.66,0.11,0.91C481.27,586.19,489.19,580.96,488.35,579.52z M486.25,577.51c-1.51,0.48-2.41,1.97-3.93,2.41
		c-0.74,0.22-0.42,0.15-0.02,0.02c-1.52,0.48-2.37,1.96-4.09,2.45c0.12,0.42,0.29,0.7,0.41,1.04
		C479.87,583.03,487.06,579.03,486.25,577.51z M491.73,584.36c-1.26,0.56-1.5,0.71-1.35,0.7c-2.6,1.31-5.01,2.83-7.41,4.49
		c0.01,0.17,0.05,0.34,0.07,0.62C484.74,590.28,491.86,585.86,491.73,584.36z M490.71,588.47
		C491.55,587.68,489.34,588.83,490.71,588.47L490.71,588.47z M478.17,578.49c1.39-0.59,3.88-1.69,4.32-3.25
		c-1.73-0.02-5.48,1.95-6.18,3.58c0.74,0.51,1.18,0,1.65-0.23C478.03,578.55,478.14,578.51,478.17,578.49z M477.63,572.93
		c-0.63,0.16-1.15,0.23-1.72,0.35c-0.5,0.7-1.72,0.86-1.91,2c1.17,0.4,2.86-1.07,3.81-1.54
		C477.77,573.55,477.73,573.26,477.63,572.93z M474.94,572.87c-0.56-1.06-2.77,0.39-2.61,1.3c0.79,0.33,1.52-0.07,2.25-0.89
		C474.59,573.31,474.69,573.27,474.94,572.87z M483.87,576.11c-2.07,1.48-4.28,2.51-6.28,4.06c0,0-0.03,0.02-0.27,0.21
		c0.02,0.09,0.07,0.37,0.09,0.61c1.72,0.33,5.93-3.37,7.24-4.35C484.29,576.38,484.11,576.26,483.87,576.11z M470.68,573.3
		c0.77,0.38,1.24,0.1,1.43-0.72C471.2,572.38,471.2,572.39,470.68,573.3z M480.27,574.86c-0.07-0.33-0.13-0.66-0.2-1.14
		c-1.28,0.8-4.03,1.6-4.68,3.14c0.46,0.56,0.88,0.46,1.21,0.11C477.6,575.9,478.91,575.54,480.27,574.86z M437.96,579.81
		c-0.05-0.07-0.15-0.09-0.31,0.02c0.27,0.96,0.76,1.4,1.8,1.43c-0.01-0.37-0.03-0.75-0.08-1.16
		C438.94,580.03,438.49,579.74,437.96,579.81z M425.99,568.05c0.16,0.77,0.11,1.73,1.38,2.05c1.32-2.56-0.31-9.24-2.17-11.31
		c-1.49,2.22,0.03,6.78,0.77,9.09C425.67,567,425.92,567.86,425.99,568.05z M427.88,577.25c0.87,1.24,1.88,2.18,2.27,3.56
		c0.15,0.47,0.47,0.72,1.15,0.47c0.14-1.68-1.96-3.66-2.73-4.95C428.22,576.74,428.04,576.97,427.88,577.25z M301.83,528.79
		c0.02-2.2-0.86-4.98-1.85-6.96c-0.39,0-0.74,0.13-1.01,0.38c0.37,1.58,0.76,3.12,1.12,4.71
		C300.31,527.65,300.6,529.34,301.83,528.79z M430.83,569.16c1.2-2.4-0.77-6.68-1.19-9.09c-0.71,0.42-1.13,0.71-1.55,0.96
		c0.59,2.45,1.48,4.46,1.3,6.72c0.01-0.12,0.02-0.28,0.04-0.43c-0.01,0.13-0.02,0.28-0.04,0.48
		C429.3,568.61,429.66,569.2,430.83,569.16z M433.22,562.25c-0.5,0.26-0.94,0.48-1.16,0.59c0.35,1.75,0.37,5.31,2.12,6.38
		c1.26-1.48,0.08-3.11,0.43-4.47C434.14,563.91,433.74,563.18,433.22,562.25z M431.06,576.76c-0.2,0.23-0.4,0.49-0.5,0.6
		c0.59,0.89,1.47,2.95,2.69,3.15c0.37-1.14-0.68-1.83-0.78-2.67C432,577.48,431.59,577.18,431.06,576.76z M427.82,583.24
		c-1.06-2.3-2.59-4.23-3.72-6.51c-0.29,0.03-0.52,0.08-1.01,0.13c0.77,1.47,2.83,6.69,4.53,7.18c0.11-0.2,0.3-0.42,0.36-0.51
		C427.8,583.15,427.78,583.15,427.82,583.24z M772.69,562.9c-1.27,4.58-2.12,9.19-2.7,13.91c0.22,0.17,0.49,0.35,0.81,0.52
		c2.04-1.86,4.47-15.27,2.47-16.72C772.58,562.79,772.55,563.17,772.69,562.9z M433.47,577.91c0.06,0.42,0.13,0.53,0.18,0.54
		c0.27,1.06,0.73,1.71,1.57,1.84C435.78,579.53,434.51,577.21,433.47,577.91z M418.56,577.77c-1.42,0.89,3.26,9.16,4.48,9.5
		c0.18-0.26,0.33-0.47,0.51-0.74c-1.21-1.3-1.49-3.06-2.5-4.44C420.05,580.8,419.39,579.21,418.56,577.77z M424.42,570.57
		c-0.01-0.6-0.04-0.63-0.06-0.51c-0.21-4.09-1.3-7.97-1.68-12.07c-0.44-0.12-0.76-0.19-1.54-0.41c0.24,2.66,0.21,11.81,2.44,13.56
		C423.88,570.94,424.24,570.68,424.42,570.57z M423.72,580.86C424.32,581.4,424.01,581.12,423.72,580.86L423.72,580.86z
		 M425.72,576.61c-0.33,1.54,1.39,3.63,2.33,4.83c0-0.02,0.02,0.03,0.17,0.21c0.34,0.38,0.46,1.06,1.31,0.94
		C429.69,580.8,427.23,577.36,425.72,576.61z M465.41,569.53C466.21,571.17,464.6,567.71,465.41,569.53L465.41,569.53z
		 M387.73,581.06C387.81,581.02,386.79,580.57,387.73,581.06L387.73,581.06z M436.18,578.98c-0.24,0.8,0.07,1.25,0.92,1.25
		C437.04,579.19,437.04,579.18,436.18,578.98z M385.09,566.51c0.18,0.54,0.37,1.04,0.66,1.96c0.82-0.76,1.26-1.19,1.68-1.59
		c-0.21-0.32-0.3-0.4-0.3-0.4C386.48,565.94,385.85,566.15,385.09,566.51z M331.48,540.28c-6.14-0.81-11.89-3.21-18.02-3.73
		c-3.44-0.31-12.79,0.6-15.63,2.35C307.22,544.41,322.75,552.01,331.48,540.28z M393.42,539.38c-2.24-2.9-8.08-0.78-10.5,0.87
		c-2.17,1.46-4,8.93-4.02,11.15C388.71,551.74,387.43,544.39,393.42,539.38z M411.58,538.33c16.51-10.13,10.95-77.67-20.33-77.96
		c-5.78-0.05-11.36,7.76-6.78,13.29c10.28,6.29,9.2-9.3,2.31-7.03c0.3-0.62,0.61-1.25,0.84-1.74c0.96-0.69,2.68-1.08,3.61-1.07
		c26.04,0.24,32.48,61.94,17.33,72.44c-17.46-9.89-35.49-19.27-55.26-23.57c-10.39-2.26-20.42-4.29-31.04-5.29
		c-4.07-0.36-8.36-0.08-12.32-0.92c-2.41-0.54-4.64-1.43-6.88-2.46c-1.62-0.75-4.93-4.43-6.86-3.86c1,3.3,3.73,4.4,6.55,5.5
		c-14.95-0.14-51.17,15.47-62.14,33.86c-1.18,2-5.05,5.67-4.23,8.27c2.54-2.8,4.44-5.72,6.67-8.52
		c16.06-20.58,49.05-29.91,56.96-30.36c0.18,0.28,9.21-0.2,14.83,0.33c-2.65,1.34-5.23,2.76-7.72,4.33
		c0.34,0.47,0.64,0.81,0.92,1.18c1.65-0.77,9.07-3.55,10.25-5.11c27.04,1.84,59.28,12.05,82.71,26.01
		c-17.96-3.35-48.98-6.53-68.74,5.65c-8.99,5.55-17.26,12.06-24.68,19.45c-4.17,4.11-14.73,15.19-13.63,21.38l0.99,0.01
		c3.67-2.47,7.92-3.3,11.71-5.54c6.27-3.84,6.75-9.43,9.21-15.59c4.19-10.13,14.48-17.19,24.34-20.7c8.23-2.9,19.46-4.19,30.29-4.42
		c-8.19,3.37-14.52,15.49-5.57,21.55c2.7-3.42,5.18-6,5.99-10.41c0.48-2.65-0.68-6.65,1.16-8.94c-0.2,0.24-0.39,0.44,0.02-0.04
		c0.31-0.37,0.18-0.22,0.05-0.03c0.68-0.79,1.57-1.43,2.45-2.22c15,0.02,28.37,1.91,30.85,4.03c-1.67,2.04-11.09,8.36-19.3,14.39
		c-17.24-5.54-24.36,17.49-10.56,26.52c0.61,1.9-0.33,3.96,0.57,5.78c3.99,3.79,8.1,5.49,13.19,1.92c3.12-5.32,0.88-8.9-3.02-11.53
		c-0.49-0.1-0.81-0.13-0.95-0.12c-3.17-0.45-4.83,0.22-7.55,1.39c-13.06-3.72-7.28-22.84,5.48-21.84
		c-5.94,4.43-10.57,8.45-10.04,9.99c12.2-3.18,24.66-20.35,36.04-25.52c22.5,2.13,51.45,23.95,53.5,31.15l0.04,0
		c3.24,5.59,0.86,12.29-4.65,15.24c-4.27,2.4-12.13-5.01-8.12-6.32c2.84,3.88,8.11,2.86,7.73-2.45c-3.8-5.22-8.26-2.44-11.44,1.7
		c-0.06,6.68,5.9,13.49,13.33,9.96c7.75-3.66,9.21-13.26,5.73-20.59C459.94,557.68,432.4,539.69,411.58,538.33z M387.95,580.9
		c-0.07,0.06-0.15,0.11-0.22,0.15c-0.95-0.49-1.97-1.02-2.9-1.54c-0.61,0.17-1.13,0.35-1.67,0.57c0.17,1.56,2.17,0.75,2.45,2.23
		l-0.02,1.93c-0.3,0.29-0.62,0.55-0.82,0.72c-1.39,0.29-3.34-1.32-4.5-0.68c0.04,0.92,0.04,0.92,1.25,2.94
		c0.71,0.26,1.46,0.63,2.22,0.95C371.95,589.67,381.34,570.4,387.95,580.9z M493.28,587.24c-0.62-0.06-1.73,0.44-2.57,1.24
		c-1.38,0.36-4.48,2.45-5.15,3.47C486.61,592.88,493.32,588.76,493.28,587.24z M436.13,565.43c-0.2,0.73-0.16,0.92-0.16,0.92
		c-0.16,1.79,0.14,3.07,1.31,3.75C438.59,569.28,438.07,564.99,436.13,565.43z M441.34,571.53c0.06,1.16,0.52,2.04,1.76,2.59
		c0.2-0.59,0.43-1.17,0.6-1.76c-0.75-0.53-1.24-1.62-2.47-1.51C441.21,571.27,441.25,571.45,441.34,571.53z M372.08,538.11
		c0.04-0.04,0.04-0.04,0.07-0.07c-0.02,0.01-0.04,0.01-0.05,0.03C372.08,538.09,372.08,538.11,372.08,538.11z M439.57,568.65
		c-0.87,1.11-0.66,1.93,0.6,2.49C440.72,569.53,440.72,569.5,439.57,568.65z M421.3,576.91c-1.38,1,3.21,7.82,4.13,8.77
		c0.25-0.24,0.47-0.44,0.84-0.76c-1.34-1.24-1.42-2.98-2.56-4.05C422.6,579.78,422.45,578.02,421.3,576.91z M753.01,579.79
		c-1.16,2.26-2.73,4.16-3.83,6.44c0-0.06-0.02-0.06-0.17,0.28c0.07,0.09,0.2,0.32,0.35,0.52c1.68-0.46,3.84-5.64,4.66-7.1
		C753.5,579.88,753.28,579.82,753.01,579.79z M751.39,579.64c-1.55,0.72-4.05,4.11-3.95,5.9c0.87,0.14,1.05-0.54,1.38-0.91
		c0.2-0.28,0.12-0.22,0.07-0.1C749.84,583.36,751.69,581.23,751.39,579.64z M757.85,575.43c0.93-1.98,3.89-14.98,1.24-15.68
		c-1.11,2.35-0.26,5.07-1.38,7.37c-0.13,0.27-0.21,0.43-0.26,0.53c0.06-0.12,0.15-0.29,0.26-0.5c-1.12,2.32-0.24,4.98-1.54,7.59
		C756.87,575.03,757.34,575.2,757.85,575.43z M752.23,561.84c-1.89,2.03-3.61,8.68-2.4,11.26c1.33-0.3,1.26-1.26,1.42-2.03
		c0.08-0.21,0.38-1.03,0.05-0.16C752.1,568.62,753.69,564.08,752.23,561.84z M752.87,573.11c-0.02-0.12-0.05-0.09-0.08,0.51
		c0.16,0.12,0.5,0.38,0.83,0.58c2.27-1.7,2.43-10.85,2.7-13.51c-0.78,0.21-1.13,0.27-1.55,0.38
		C754.29,565.16,753.16,569.02,752.87,573.11z M755.82,580.01c-1.19,1.09-1.35,2.86-2.52,3.91c-0.58,0.53-0.29,0.25,0,0.02
		c-1.18,1.05-1.3,2.77-2.63,3.99c0.35,0.33,0.59,0.54,0.84,0.78C752.44,587.77,757.14,581.04,755.82,580.01z M741.81,583.14
		c0.86-0.11,1.33-0.76,1.61-1.81c0.06-0.01,0.12-0.11,0.21-0.54C742.61,580.07,741.27,582.37,741.81,583.14z M743.04,572.08
		c1.79-1.04,1.85-4.59,2.26-6.34c-0.23-0.11-0.66-0.34-1.12-0.61c-0.56,0.93-1,1.65-1.46,2.47
		C743.04,568.97,741.82,570.58,743.04,572.08z M758.53,580.93c-0.85,1.43-1.52,3-2.58,4.27c-1.04,1.36-1.33,3.12-2.59,4.4
		c0.19,0.27,0.34,0.48,0.51,0.75C755.12,590.03,759.92,581.85,758.53,580.93z M748.59,579.3c-0.81,1.27-2.98,3.22-2.86,4.9
		c0.65,0.27,0.99,0.02,1.15-0.44c0.42-1.37,1.44-2.29,2.36-3.52C749.06,579.95,748.89,579.72,748.59,579.3z M749.33,564.01
		c-0.49-0.25-0.85-0.55-1.61-0.98c-0.41,2.41-2.46,6.65-1.33,9.07c1.18,0.06,1.6-0.52,1.51-1.35c-0.13-1.67-0.02-0.48,0-0.04
		C747.72,568.44,748.71,566.46,749.33,564.01z M741.17,568.27c-1.94-0.48-2.53,3.8-1.22,4.65c1.18-0.66,1.49-1.94,1.26-3.71
		C741.34,569.19,741.37,569,741.17,568.27z M746.05,579.69c-0.54,0.41-0.96,0.7-1.43,1.05c-0.13,0.84-1.18,1.51-0.84,2.66
		c1.26-0.18,2.14-2.23,2.78-3.1C746.44,580.19,746.23,579.93,746.05,579.69z M767.28,589.37
		C767.42,589.02,765.93,590.56,767.28,589.37L767.28,589.37z M759.09,585.35C759.29,584.98,757.52,587.33,759.09,585.35
		L759.09,585.35z M767.77,588.16c-0.19,0.47-0.35,0.86-0.49,1.21c-1.36,1.2-2.06,2.68-2.4,4.39c1.31,0.21,2.44-3.34,3.34-4.12
		C768.52,588.66,768.52,588.66,767.77,588.16z M767.29,565.8C767.37,565.09,766.11,569.74,767.29,565.8L767.29,565.8z M770.86,593.3
		c0.15,0.33,0.29,0.67,0.6,1.31c0.35-0.48,0.59-0.7,0.83-0.96C771.84,593.18,771.55,592.85,770.86,593.3z M767.5,593.61
		c0.11,0.19,0.27,0.42,0.51,0.72c1.16-0.89,1.42-2.25,2.24-3.4c-0.28-0.2-0.49-0.29-0.83-0.46
		C768.79,591.54,768.15,592.52,767.5,593.61z M769.63,560.06c-0.42-0.07-0.84-0.15-1.1-0.21c-1.19,1.2-1.05,4.51-1.23,5.95
		c-1.18,3.95-1.34,7.72-2.04,11.41C768.7,577.61,769.35,563.23,769.63,560.06z M763.75,559.44c-0.42,2.7-0.52,5.42-1.25,8
		c-0.78,2.71-0.12,5.55-1.3,8.19c0.49,0.32,0.88,0.56,1.23,0.83C764.11,575.21,766.44,560.02,763.75,559.44z M766.37,585.67
		c-0.64,0.2-1.38,1.16-1.76,2.21c-1.09,0.96-2.99,4.2-3.11,5.42C762.85,593.66,767.05,586.99,766.37,585.67z M761.14,582.26
		c-0.95,0.41-1.61,2.33-2.05,3.1c-1.57,1.98-2.56,4.08-3.74,6.08c1.83,1,5.53-7.09,6.38-8.82
		C761.51,582.47,761.31,582.37,761.14,582.26z M764.62,587.89C764.99,586.83,763.53,588.85,764.62,587.89L764.62,587.89z
		 M763.7,583.75c-0.86,1.03-0.93,1.2-0.82,1.12c-1.79,2.35-3.35,4.82-4.8,7.4c0.1,0.14,0.24,0.29,0.39,0.5
		C760.02,592.18,764.5,585.05,763.7,583.75z M686.91,583.68c-0.12,0.17-0.22,0.38-0.35,0.62c1.51,1.21,8.24,6.95,9.53,5.24
		c-1.97-1.26-3.72-2.77-6.01-3.89C689.35,585.13,687.94,583.67,686.91,583.68z M686.16,590.29c-0.8-0.81-1.9-1.33-2.52-1.29
		c-0.06,1.52,6.59,5.76,7.61,4.85C690.61,592.83,687.53,590.68,686.16,590.29z M686.16,590.29
		C687.53,590.68,685.36,589.48,686.16,590.29L686.16,590.29z M690.08,585.66C692.37,586.78,689.76,585.39,690.08,585.66
		L690.08,585.66z M492.45,590.98C492.75,590.71,490.76,591.43,492.45,590.98L492.45,590.98z M684.38,592.76
		C686.06,593.24,684.08,592.49,684.38,592.76L684.38,592.76z M685.25,586.16c-0.18,1.5,6.91,6.05,8.59,5.98
		c0.03-0.28,0.08-0.45,0.08-0.62c-2.36-1.71-4.77-3.28-7.33-4.63C686.73,586.91,686.49,586.74,685.25,586.16z M684.38,592.76
		c-0.29-0.27-0.59-0.56-0.96-0.89c-0.49,0.79-0.49,0.79,0.23,1.51c1.13,0.34,3.66,3.05,4.77,2.36
		C687.37,594.3,686.06,593.24,684.38,592.76z M493.44,590.11c-0.35,0.33-0.69,0.61-0.99,0.87c-1.7,0.45-2.98,1.48-4.07,2.9
		c1.1,0.71,3.67-1.96,4.8-2.27C493.92,590.9,493.92,590.9,493.44,590.11z M493.91,592.9c-1.04,0.69-2.05,1.3-3.06,1.98
		c0.01,0.24,0.06,0.47,0.11,0.88c1.45-0.33,2.25-1.4,3.52-2.07C494.32,593.38,494.15,593.16,493.91,592.9z M682.47,597.88
		c-0.44,0.07-0.67,0.38-0.81,0.9c0.31,0.08,0.62,0.21,1.17,0.46c-0.02-0.68-0.04-1.05-0.04-1.41
		C682.41,597.74,682.39,597.82,682.47,597.88z M682.32,595.44c1.26,0.69,2.02,1.77,3.47,2.13c0.06-0.42,0.13-0.64,0.14-0.88
		c-1.01-0.7-2.02-1.32-3.02-2.04C682.65,594.91,682.52,595.13,682.32,595.44z M494.29,596.13c0.06-0.06,0.04-0.14-0.32-0.06
		c0,0.36-0.06,0.73-0.09,1.41c0.57-0.24,0.87-0.37,1.2-0.44C494.98,596.52,494.74,596.2,494.29,596.13z M688.73,581.39
		c-0.88,1.42,6.97,6.8,8.19,6.57c0.05-0.24,0.12-0.53,0.18-0.91c-1.72-0.57-2.71-2.05-4.22-2.85
		C691.39,583.45,690.11,582.36,688.73,581.39z M707.08,574.73c-0.07-0.02-0.15,0-0.28,0.15c0.68,0.73,1.32,0.94,2.25,0.47
		c-0.16-0.33-0.36-0.65-0.54-1.02C708.03,574.47,707.49,574.42,707.08,574.73z M705.09,574.75c0.15,0.83,0.63,1.11,1.41,0.75
		C705.98,574.57,705.98,574.56,705.09,574.75z M739.97,583.05c0.81,0.01,1.14-0.44,0.93-1.24
		C740.03,582,740.03,582.01,739.97,583.05z M702.23,574.98c0.24,0.4,0.36,0.44,0.4,0.41c0.66,0.83,1.38,1.24,2.21,0.93
		C704.99,575.42,702.82,573.94,702.23,574.98z M737.66,571.43c-1.15,0.83-1.15,0.85-0.62,2.47
		C738.32,573.37,738.5,572.55,737.66,571.43z M737.66,582.86c-0.04,0.41-0.08,0.79-0.11,1.16c1.07-0.01,1.54-0.43,1.84-1.39
		c-0.17-0.11-0.24-0.1-0.29-0.02C738.58,582.53,738.11,582.81,737.66,582.86z M734.04,576.82c1.28-0.53,1.74-1.39,1.8-2.55
		c0.1-0.07,0.17-0.25,0.13-0.68c-1.2-0.13-1.72,0.94-2.54,1.46C733.65,575.64,733.85,576.23,734.04,576.82z M694.73,581.89
		c-1.5-0.46-2.38-1.98-3.88-2.48c-0.82,1.5,6.3,5.64,7.56,6.06c0.13-0.34,0.23-0.62,0.4-1.04c-1.71-0.52-2.53-2.01-4.04-2.52
		C695.13,582.05,695.46,582.13,694.73,581.89z M693.26,578.06c-0.25,0.14-0.42,0.26-0.81,0.53c1.31,1,5.47,4.78,7.18,4.48
		c0.03-0.25,0.08-0.52,0.1-0.61c-0.21-0.2-0.27-0.23-0.27-0.23C697.47,580.65,695.3,579.58,693.26,578.06z M697.09,575.73
		c-0.08,0.48-0.14,0.81-0.21,1.14c1.33,0.71,2.67,1.1,3.61,2.18c0.35,0.36,0.79,0.46,1.24-0.09
		C701.1,577.41,698.37,576.55,697.09,575.73z M694.66,577.21c0.43,1.64,3.14,2.83,4.46,3.42c-0.47-0.21-0.14-0.04,0.04,0.03
		c0.44,0.24,0.88,0.75,1.59,0.25C700.1,579.26,696.38,577.23,694.66,577.21z M701.27,575.37c-0.56-0.13-1.08-0.21-1.72-0.38
		c-0.08,0.33-0.17,0.62-0.22,0.81c0.97,0.49,2.63,1.99,3.81,1.61C702.99,576.26,701.75,576.08,701.27,575.37z"/>
	<path id="XMLID_587_" d="M588.52,583.03c-88.3-0.82-159.47-73.32-158.64-161.62c0.82-88.28,73.32-159.43,161.62-158.61
		c88.27,0.82,159.41,73.31,158.59,161.59C749.27,512.68,676.79,583.85,588.52,583.03z M591.44,269.4
		c-84.65-0.79-154.16,67.43-154.95,152.06c-0.79,84.65,67.44,154.16,152.09,154.95c84.62,0.79,154.11-67.44,154.89-152.1
		C744.27,339.68,676.06,270.19,591.44,269.4z"/>
	<g>
		<path d="M532.59,500.95c-1.49-0.01-2.74-0.15-3.77-0.43c-5.1-0.23-10.33-4.63-12.06-10.08c-2.93-11.86-4.12-24.37-4.8-35.04
			c-0.05-0.4,0.23-0.77,0.62-0.77l35.35-4.95c0.32,0,0.73,0.19,0.84,0.6c1.03,4.18,1.75,8.65,2.4,12.93
			c0.42,2.72,0.86,5.49,1.37,8.23c0.21,2.16,0.65,4.25,1.04,6.33c0.91,4.34,1.82,8.87,0.5,13.48c0.18,0.13,0.51,0.32,1.2,0.33
			c0.5,0,1.03-0.12,1.5-0.18c1.02-0.23,1.22-1.08,1.42-2.57c0.09-0.46,0.16-0.95,0.26-1.42c-0.52-5.14-1.21-10.3-1.84-15.33
			c-1.09-7.81-2.18-15.87-2.47-23.9c-0.05-0.39,0.27-0.74,0.65-0.82l0.06,0c0.39,0,0.68,0.3,0.77,0.64
			c0.74,4.7,2.55,9.22,5.46,13.81c1.06-0.43,2.12-1.53,3.21-2.66c0.61-0.63,1.22-1.29,1.91-1.87c0.29-0.23,0.74-0.23,1,0.01
			c0.97,0.92,1.29,2.04,1.52,3.03c0.16,0.67,0.32,1.32,0.67,1.81c0.46,0.83,0.38,1.81,0.38,2.68c-0.05,0.67-0.06,1.23,0.06,1.5
			c1.39-0.86,2.54-2.26,3.58-3.64c0.5-0.63,0.99-1.25,1.47-1.81c2.47-3.8,2.43-9.87,1.62-13.88c-0.06-0.39,0.13-0.74,0.52-0.87
			c0.36-0.13,0.78,0.05,0.93,0.41c1.04,2.27,2.98,3.68,4.99,5.19c2,1.49,4.11,3.04,5.37,5.59c0.63-0.1,1.21-0.89,1.76-1.67
			c0.12-0.2,0.26-0.45,0.42-0.61c2.65-4.76,0.55-9.8-1.5-14.61c-0.43-1.12-0.88-2.18-1.3-3.25c-0.1-0.28,0-0.61,0.25-0.83
			c0.26-0.2,0.64-0.2,0.88-0.06c1.67,1.09,3.78,1.62,6.36,1.63c2.06-0.49,4.69-0.29,7.03,0.01c2.3,0.27,4.56,0.43,6.26,0.02
			c0.4-0.23,0.82-0.33,1.19-0.5c0.61-0.19,0.88-0.32,1.02-0.45c-2.1-1.51-4.2-3.9-5.12-5.87c-0.12-0.52-0.29-0.94-0.58-1.39
			c-0.58-1.24-1.44-3.03,0.27-4.27c0.15-0.12,0.37-0.13,0.59-0.11l5.28,1.16c0.17,0,0.51,0,0.93,0c2.18,0.01,3.78-0.05,4.51-1.09
			c-1.36-1.32-2.45-2.79-3.55-4.22c-1.53-2.01-2.92-3.86-4.96-5.4c-0.22-0.17-0.34-0.46-0.27-0.78c0.29-1.31,1.42-1.85,2.3-2.23
			c0.52-0.26,1.1-0.51,1.43-0.95c0.67-1.03,1.04-2.03,1.15-3.11c-0.17-0.22-0.41-0.28-0.93-0.28l-0.52,0
			c-0.97-0.01-2.07-0.1-3.24-1.07c-0.19-0.15-0.34-0.36-0.36-0.57c0-0.2,0.15-0.41,0.29-0.57c1.78-1.66,2.94-3.26,2.68-5.38
			c-0.14-0.5-0.32-0.5-0.44-0.5c-0.3,0-0.71,0.18-1.13,0.31c-0.48,0.15-0.98,0.3-1.42,0.3l-0.16,0c-4.33,0.63-6.86-2.04-9.31-4.62
			c-1.45-1.49-2.97-3.05-4.78-3.9c-8.52-0.22-19.18,0.87-23.68-8.16c-0.66,0.02-1.34,0.36-2.01,0.78c-0.6,0.25-1.13,0.6-1.82,0.77
			l-0.24,0.08c-1.6,0.41-3.83,0.97-5.92,0.96c-2.15-0.01-3.76-0.7-4.84-1.94c-0.18-0.33-0.18-0.67,0.01-1l2.67-3.27
			c0.73-1.65,1.43-3.51,1.24-5.11c-0.13-0.05-0.44,0.04-0.74,0.12c-0.25,0.04-0.51,0.13-0.78,0.16c-3.03,2.77-6.48,5.76-11.06,5.74
			c-0.7,0-1.37-0.05-2.01-0.18c-0.39-0.07-0.63-0.39-0.63-0.75c0-0.36,0.22-0.68,0.64-0.75c6.4-1.25,8.93-6.78,11.57-12.57
			c0.94-2.07,1.92-4.18,3.06-6.15c-5.07-0.63-7.7,2.89-10.58,6.64c-2.23,2.91-4.53,5.93-8.11,7.14c-0.31,0.09-0.66-0.05-0.86-0.37
			c-0.19-0.31-0.12-0.69,0.14-0.95c2.37-2.12,3.91-5,5.38-7.81c2.31-4.33,4.7-8.83,10.37-10.77c1.44-0.79,3.18-1.23,4.92-1.66
			c3.71-0.93,7.19-1.79,8.17-5.75c0.08-1.22,0.27-2.58,0.48-4.02c0.4-2.97,0.85-6.05,0.39-9.21c-0.05-0.22,0.05-0.45,0.2-0.63
			c0.12-0.16,0.37-0.33,0.59-0.25c1.49,0.11,3.09,0.08,4.64,0.03c0.94-0.04,1.9-0.07,2.83-0.06c2.02,0.01,4.58,0.18,6.84,1.24
			c5.02,1.58,5.78,6.69,6.43,11.2l0.19,1.31c0.05,0.26-0.05,0.52-0.3,0.69c-0.22,0.15-0.44,0.22-0.74,0.13
			c-2.15-0.85-2.48-2.88-2.81-4.66c-0.14-0.81-0.25-1.56-0.53-2.16c-1.1-2.64-3.24-3.79-7.19-3.82c-1.41-0.01-2.85,0.13-4.3,0.24
			c-0.65,0.08-1.27,0.13-1.87,0.15c-0.06,1.38-0.22,2.75-0.43,4.17c-0.34,2.86-0.71,5.87-0.13,9.01c0.07,0.34-0.05,0.64-0.36,0.82
			c-1.26,0.7-2.52,1.62-3.79,2.52c-1.84,1.36-3.72,2.72-5.89,3.51c0.2,0.1,0.51,0.22,0.68,0.3c0.37,0.15,0.72,0.3,1,0.45
			c0,0,0.64,0.04,1.13,0.01c0.27-0.04,0.56-0.04,0.85-0.04c1.62,0.01,2.03,1.02,2.12,1.88c0,0.26-0.1,0.53-0.35,0.67
			c-0.44,0.33-0.87,0.62-1.33,0.94c-1.86,1.35-3.64,2.63-4.5,4.58c-0.19,0.54-0.56,1.18-0.89,1.76c-0.83,1.43-1.21,2.23-0.69,2.95
			c0.37,0.1,1.1,0.09,1.74,0.05c0.37,0,0.69-0.04,0.99-0.04c2,0.01,2.43,1.06,2.43,1.97c0,0.19-0.08,0.34-0.2,0.45
			c-1.83,2.09-2.55,4.75-3.23,7.74c3.89,0.54,7.05-1.78,8.84-3.74c0.25-0.22,0.59-0.33,0.92-0.16c1.34,0.73,1.37,2.2,1.36,3.43
			c0.04,0.69,0.04,1.43,0.31,1.89c2.9,4.3,7.93,4.47,13.22,4.64c3.75,0.11,7.63,0.26,10.82,1.89c0.67,0.31,1.17,0.91,1.66,1.46
			c0.56,0.51,0.96,1,1.51,1.15c0.52-0.46,0.57-1.09,0.69-2.05c0.06-0.63,0.13-1.31,0.38-1.95c0.16-0.59,0.61-1.23,0.97-1.82
			c1.03-1.52,1.37-2.25,0.59-3.16c-1.53-0.21-3.33,0.1-5.23,0.42c-1.55,0.22-3.1,0.45-4.6,0.44c-2.96-0.02-5.03-1.04-6.46-3.21
			c-0.05-0.06-0.08-0.13-0.11-0.19c-1.56-5.21,0.64-10.85,5.65-14.68c1.01-0.55,2.16-1.14,3.44-1.14c0.54,0,1.13,0.12,1.62,0.33
			c2.63,1.39,6.98,4.27,7.47,8.23c0.23,0.31,0.51,0.62,0.99,0.62l0.17,0c0.9-0.89,1.93-1.64,2.94-2.35c2.16-1.5,3.99-2.76,4.3-5.2
			c-0.17-0.29-0.44-0.56-0.88-0.89c-0.68-0.56-1.56-1.22-2.29-2.63c-0.12-0.35-0.05-0.71,0.23-0.95c0.39-0.32,0.81-0.46,1.28-0.46
			c0.96,0.01,1.79,0.73,2.49,1.28c0.15,0.16,0.32,0.32,0.45,0.41c0.18,0.16,0.36,0.21,0.48,0.21c0.44,0,1.05-0.45,1.6-1.26
			c0.02-0.04,0.21-0.47-0.6-1.11c-0.64-0.33-1.29-0.71-2-1.08c-2.34-1.27-4.71-2.6-6.78-4.4c-0.24-0.19-0.32-0.52-0.22-0.81
			c0.77-2.27-0.56-3.35-2.83-4.9c-1.13-0.79-2.33-1.63-2.96-2.74c-0.17-0.27-0.17-0.63,0.04-0.85c1.42-1.91,2.55-4.75,1.37-7
			c-3.28-4.45-7.9-7.4-14.45-9.25c-0.1-0.01-0.17-0.07-0.24-0.09l-2.59-1.7c-0.4,0.05-0.49,0.32-0.5,1.55
			c-0.01,1.09-0.07,3.1-2.43,3.08c-0.11,0-0.26-0.02-0.33-0.11c-3.59-2.12-7.42-4-11.62-4.03c-1.15-0.01-2.23,0.12-3.36,0.37
			l-0.22,0.1c-2.36,0.67-5.02,1.43-6.23,3.56c0.35,0.3,1.46,0.92,1.83,1.17c0.27,0.16,0.39,0.37,0.39,0.63
			c0.02,0.23-0.13,0.51-0.3,0.67c-1.21,0.78-2.34,1.7-3.5,2.59c-3.57,2.82-7.26,5.68-12.04,5.86c-1.06,0.33-2.16-0.13-2.96-0.53
			c-0.44-0.24-0.81-0.47-1.12-0.47c0,0-0.17,0.02-0.34,0.12c-0.06,1.85,1.18,3.01,1.91,3.54c0.05,0.05,0.12,0.12,0.15,0.17
			c0.35,0.44,0.93,0.58,1.56,0.8c0.95,0.28,2.05,0.63,2.51,2.01c0.07,0.3-0.05,0.63-0.32,0.83c-2.86,2.03-4.98,4.74-7.01,7.44
			c-2.49,3.15-5.08,6.45-8.9,8.5c-0.59,0.58-1.44,0.63-2.08,0.68c-0.68,0.01-0.96,0.1-1.06,0.26c0.52,1.17,1.75,2.13,3,2.27l0.05,0
			c0.53,0,1.01-0.1,1.5-0.22c0.98-0.25,2.11-0.41,2.94-0.01c0.29,0.13,0.44,0.36,0.46,0.63c0.02,0.26-0.13,0.56-0.34,0.7
			c-3.28,2.05-5.05,5.12-6.9,8.39c-1.12,1.97-2.28,4.01-3.76,5.84c-0.47,0.76-1.26,1.22-1.92,1.63c-0.72,0.42-1.18,0.74-1.38,1.23
			c0.63,0.83,1.45,1.44,2.36,1.8c0.48,0.22,1.15,0.11,1.81,0.03c1.35-0.18,2.56-0.04,3.23,0.83c0.28,0.3,0.23,0.75-0.08,1
			c-2.91,2.87-3.77,6.47-4.56,10.88c-0.28,3.66-2.52,7.39-5.97,10.08c1.27,1.15,3.22,1.45,5.46,1.85c0.83,0.12,1.68,0.26,2.58,0.47
			c0.41,0.09,0.65,0.46,0.6,0.84c-0.4,2.68-0.23,5.37-0.11,7.98c0.17,2.87,0.32,5.85-0.19,8.67c-0.12,0.74-0.55,1.25-0.97,1.7
			c-0.27,0.34-0.47,0.55-0.57,0.8c2.17,1.14,4.54,2.21,6.99,1.56c2.53-0.15,5.03-1.83,6.13-4.06c-0.17,0-0.42,0.07-0.64,0.18
			c-0.57,0.24-1.47,0.56-2.31,0.29c-0.91-0.09-1.79-0.68-2.39-1.69c-0.1-0.15-0.16-0.38-0.09-0.56c0.79-3.18,0.14-6.23-0.6-9.5
			c-0.83-3.94-1.72-8.04,0.24-12.24c-0.16-0.08-0.36-0.08-0.71-0.08c-0.82-0.01-2.24-0.01-2.75-2.32c-0.05-0.2-0.02-0.45,0.08-0.59
			c0.12-0.18,0.27-0.3,0.51-0.33c2.28-0.48,4.17-2.25,6.03-3.99c1-0.97,2-1.92,3.09-2.66c0.23-0.19,0.57-0.19,0.82-0.06
			c0.28,0.19,0.41,0.48,0.39,0.75c-0.34,2.89-1.35,5.49-2.35,8.02c-0.57,1.56-1.22,3.13-1.62,4.82c-0.88,3.21-0.11,5.97,0.65,8.97
			c0.53,1.94,1.05,3.99,1.21,6.26c1.49-0.51,2.75-1.38,3.76-2.76c0.32-0.29,0.47-0.78,0.65-1.22c0.24-0.91,0.63-2.28,2.32-2.27
			c0.28,0,0.59,0.05,0.78,0.26c2.62,2.97,3.92,5.83,4.02,8.91c0.2,0.69,0.2,1.57,0.18,2.48c0,0.7-0.01,1.4,0.05,1.95
			c1.94-0.04,3.93-1.45,5.95-4.2c1.1-2.03,1.48-5,1.74-7.81c0-0.33,0.26-0.59,0.57-0.67c0.34-0.09,0.66,0.05,0.83,0.33
			c3.42,5.23,8.82,7.73,13.99,10.14c1.44,0.67,2.85,1.32,4.23,2.02c0,0,0.1,0.06,0.17,0.12c0.27,0.31,0.44,0.11,0.62-0.11
			c0.52-2.49,0.34-5.22,0.15-7.91c-0.04-0.81-0.09-1.65-0.12-2.5c0-0.3,0.14-0.58,0.41-0.71c0.28-0.13,0.6-0.11,0.83,0.09
			c3.81,3.11,8.37,4.64,14.02,4.8c0.29,0.02,0.51,0.11,0.62,0.38c0.14,0.24,0.13,0.52,0,0.76c-0.98,1.56-2.6,2.37-5.02,2.35
			c-1.45-0.01-3.06-0.33-4.46-0.6c-0.37-0.06-0.73-0.16-1.08-0.18c-0.34,0.17-0.39,0.44-0.3,1.44c0.08,0.53,0.15,1.13-0.01,1.66
			c-0.11,0.42-0.24,0.81-0.35,1.23c-0.68,2.49-1.43,5.28-4.13,6.44c-0.33,0.12-0.64,0.05-0.91-0.2c-2.95-3.48-7.05-4.97-11.06-6.43
			c-0.59-0.22-1.15-0.45-1.75-0.65c-1.01-0.44-1.91-1-2.79-1.62c-0.56-0.37-1.17-0.71-1.76-1.06c-1.83,2.84-4.64,5.45-7.21,6.69
			c-0.05,0.04-0.17,0.07-0.17,0.07c-0.55,0.03-1.11,0.19-1.75,0.34c-0.98,0.29-2.11,0.57-3.21,0.57c-1.39-0.01-2.44-0.54-3.11-1.61
			c-0.12-0.21-0.15-0.5-0.03-0.73c0.92-1.74,1.14-4.39,0.58-7.03l-0.05-0.13c-0.12-0.45-0.35-1.07-0.6-1.36
			c-0.93,0.79-1.35,1.92-1.83,3.11c-0.32,0.98-0.75,1.98-1.39,2.89c-2.08,3.59-4.95,5.27-9.05,5.24c-2.04-0.01-4.26-0.49-6.41-0.88
			c-2.1-0.42-4.33-0.88-6.4-0.89c-1.78-0.01-3.3,0.27-4.66,0.92c-0.23,0.14-0.5,0.11-0.72-0.02c-1.53-0.95-2.79-1.79-4.59-1.65
			c-1.79,0.33-3.64,2.27-5,3.94c-0.2,0.22-0.52,0.36-0.82,0.26l-2.65-0.82c-1.57,0.01-2.78,1.19-3.45,2.31
			c-0.4,0.81-0.7,2.03-0.26,2.83c1.19,2.08-0.24,3.6-1.37,4.8c-1.18,1.2-1.83,2.03-1.54,3.15l0.05,0.29
			c0.24,1.17,0.38,2.16,1.38,2.83c0.97,0.74,1.87,0.47,2.62,0.25c0-0.01,0-0.05,0-0.05c-0.22-0.31-0.57-0.71-0.43-1.25
			c0.15-0.59,0.67-0.85,0.85-0.95c0.12-0.05,0.28-0.12,0.5-0.05c2.33,0.39,3.7,0.05,4.61-1.11c0.62-1.07,0.16-1.44-1.19-2.37
			c-1.07-0.78-2.44-1.74-2.22-3.56c0.01-0.22,0.18-0.42,0.41-0.54c0.2-0.13,0.44-0.16,0.64-0.02c0.73,0.29,1.42,0.8,2.07,1.35
			c1.16,0.91,2.33,1.87,3.56,1.29c1.38-0.45,1.46-1.2,1.52-3.03c0.06-1.02,0.15-2.39,0.64-3.79c0.12-0.27,0.36-0.48,0.64-0.5
			c0.3-0.13,0.61,0.12,0.74,0.39c0.34,0.64,0.52,1.3,0.64,1.94c0.21,0.92,0.38,1.68,0.97,2.18c0.37,0.27,0.77,0.19,1.29,0.05
			c0.87-0.14,1.9-0.2,2.82,0.22c0.2,0.05,0.37,0.29,0.43,0.51c0.06,0.2,0,0.51-0.2,0.65c-0.99,1.18-2.55,1.94-4.36,2.07
			c-0.91,0.67-1.82,1.21-2.73,1.75c-2,1.1-3.91,2.16-4.62,4.41c1.22,5.19,2.06,10.67,2.83,15.99c0.58,4,1.17,8.13,1.98,12.05
			l0.28,1.77c0.6,4.04,1.2,7.87,3.48,11.02c4.79,6.52,12.77,7.37,19.94,7.58c0.65-1.4,1.12-3.32,0.59-4.04
			C534.92,500.88,533.76,500.96,532.59,500.95z M585.48,348.57c-0.16,0.16-0.43,0.35-0.64,0.25c-0.57,0-1.2,0.45-1.79,0.88
			c-0.71,0.49-1.42,1.04-2.23,1.03c-0.74,0-1.39-0.49-1.84-1.43c-0.11-0.15-0.13-0.35-0.08-0.56l0.17-0.46
			c0.55-1.9,1.19-3.82-0.26-5.21c-0.27-0.24-0.31-0.64-0.09-0.93c0.62-0.99,1.38-1.17,1.94-1.16c1.84,0.01,3.71,2.44,4.43,3.76
			c0.05,0.08,0.1,0.2,0.1,0.33c0.04,0.19,0.17,0.42,0.36,0.74C585.91,346.43,586.47,347.49,585.48,348.57z M592.1,354.87
			c0.96-1.24,2.53-1.5,3.93-1.75c2.04-0.35,3.22-0.65,3.42-2.38c0.01-0.19,0.14-0.4,0.3-0.51c0.29-0.21,0.56-0.32,0.87-0.32
			c1.57,0.01,2.15,2.24,2.38,3.59c0.06,0.3-0.1,0.61-0.34,0.78c-0.6,0.34-1.16,1.1-1.75,1.86c-0.96,1.3-2.07,2.81-3.91,2.8
			c-0.24,0-0.49-0.04-0.76-0.12c0,0-0.2-0.04-0.31-0.12c-0.47-0.38-0.86-0.81-1.2-1.3c-0.73-0.93-1.1-1.49-1.93-1.32
			c-0.21,0-0.6-0.11-0.74-0.38C591.88,355.42,591.91,355.08,592.1,354.87z M594.17,410.11l-0.75,0c0,0-0.17,0.07-0.34,0.07
			c-0.54,0-1-0.21-1.44-0.37c-0.27-0.08-0.55-0.16-0.71-0.16c-0.16,0-0.26,0.29-0.36,0.54c-0.36,4.25-2.13,7.4-5.12,8.99
			c-0.32,0.15-0.69,0.09-0.91-0.18c-3.11-3.43-6.62-7.33-10.77-8.94c-0.25,0.03-0.3,0.24-0.25,1.22c0.07,0.67,0.11,1.49-0.36,2.2
			c-0.71,3.12-2.94,5.88-5.88,7.17c-0.15,0.02-0.22,0.06-0.35,0.06c-1.82-0.16-2.23-1.64-2.65-2.84c-0.23-0.8-0.47-1.57-1.02-2
			l-9.07-8.92c-0.56,0.19-1.03,0.61-1.57,0.98c-0.59,0.47-1.16,0.89-1.82,1.2c-0.44,0.12-0.75,0.18-1.06,0.27
			c-1,0.36-2.17,0.73-3.31,0.73c-1.1-0.01-1.99-0.36-2.76-1.02c-0.29-0.27-0.31-0.68-0.09-1.03c2.1-3.21,2.13-7.17,2.16-11.37
			c0.02-3.19,0.04-6.42,1-9.31c0.1-0.3,0.38-0.52,0.7-0.52l1.32,0.01c0.26,0,0.49,0.13,0.63,0.32c0.12,0.21,0.12,0.45,0.09,0.66
			c-0.99,2.84-0.65,5.9-0.3,9.13c0.25,2.49,0.56,5.14,0.1,7.72c0.07,0.08,0.12,0.08,0.12,0.08c0.32,0,0.75-0.21,1.08-0.42
			c0.37-0.14,0.71-0.37,1.12-0.42c1.24-0.7,1.62-1.95,2.05-3.4c0.29-0.86,0.56-1.73,1.08-2.55c0.18-0.26,0.59-0.42,0.91-0.26
			c0.3,0.12,0.54,0.48,0.49,0.78c-0.6,5.22,3.41,8.37,7.28,11.4c1.61,1.24,3.16,2.42,4.4,3.76c0.35-0.15,0.68-0.79,0.92-1.19
			l0.12-0.24c1.36-2.78,1.1-6.81-0.59-9.29c-0.26-0.32-0.2-0.92,0.13-1.13c0.38-0.22,0.82-0.16,1.05,0.16
			c1.96,2.79,4.71,4.08,7.67,5.43c2.88,1.37,5.86,2.76,8.05,5.59c0.15,0.03,0.54,0.11,1.16-1.61c2.17-4.26-0.51-8.5-3.07-11.34
			c-0.22-0.22-0.27-0.56-0.09-0.85c0.12-0.28,0.41-0.44,0.78-0.41c2.68,0.49,4.85,2.18,6.93,3.76c2.4,1.87,4.64,3.62,7.61,3.7
			c0.27,0,0.45,0.13,0.57,0.31c0.17,0.22,0.18,0.44,0.16,0.64C598.4,410.14,595.74,410.12,594.17,410.11z"/>
		<path d="M633.27,358.91c-0.34,17.35-6.39,31.12-18.15,40.94c-0.36,0.63-0.43,1.45-0.53,2.34c-0.09,0.96-0.16,1.92-0.61,2.77
			c0.27,0.39,0.75,0.14,1.32,0.01c0.39-0.06,0.82-0.17,1.22-0.16l0.07,0c12.2-8.53,17.75-21.24,20.23-30.37
			c0.25-1.01,0.41-2.09,0.49-3.26c0.25-2.34,0.5-4.82,2.25-6.68c0.2-0.26,0.5-0.34,0.81-0.24c0.29,0.12,0.51,0.41,0.51,0.7
			c0.99,17.78-7.49,34.26-23.24,45.19c-0.96,0.41-1.68,1.21-1.67,2.09c0.87,1.37,2.36,2.03,3.6,2.41
			c14.25-7.65,26.09-22.08,30.31-36.85c0.1-0.3,0.32-0.48,0.59-0.53c0.28,0,0.6,0.08,0.78,0.31c0.95,1.41,0.53,3.13,0.24,4.5
			c-0.08,0.3-0.1,0.64-0.15,0.89c-4.09,13.35-13.7,26.23-26.53,35.47c1.12,0.7,2.57,0.98,4.31,0.99c4.5-1.52,8.58-4.54,12.44-7.5
			l1.35-0.97c3.32-2.6,6.26-5.67,9.04-8.66c1.95-2.09,3.8-4.02,5.71-5.73c0.27-0.27,0.65-0.28,0.97-0.08
			c0.31,0.19,0.41,0.6,0.28,0.9c-4.42,11.27-16.08,19.75-20.9,22.87c-0.57,0.58-1.43,0.93-2.21,1.3c-0.81,0.36-1.52,0.63-1.93,1.13
			c2.13,1.48,5.17,1.23,8.98-0.73c9.02-4.27,17.45-10.06,25.17-17.25c0.3-0.27,0.73-0.3,1.03-0.05c0.29,0.28,0.36,0.66,0.19,1
			c-5.02,8.04-13.47,15.03-25.07,20.72c0,0,0.1,0.03,0.15,0.07c0.23,0.06,0.49,0.17,0.68,0.27c7.23-0.16,13.6-3.11,20.32-6.22
			l2.4-1.11c0.29-0.13,0.69-0.04,0.92,0.2c0.23,0.28,0.23,0.65,0.05,0.9c-1.46,2.25-3.72,3.44-5.94,4.63
			c-1.22,0.64-2.44,1.3-3.5,2.08c-1.11,0.55-2.06,0.9-3.04,1.28c-1.45,0.53-2.8,1.02-3.93,1.73c0,0,0.22,0.03,0.32,0.05
			c0.15,0,0.31,0.04,0.41,0.06c11.31-1.44,24.66-9.42,28.43-21.93c0-0.23,0.02-0.43,0.08-0.7c0.07-0.31,0.2-1.04,0.07-1.18
			c0,0-0.06-0.02-0.14-0.04c-2.4,0.69-4.49,2.09-6.79,3.58c-1.52,1.02-3.13,2.12-4.83,2.94c-0.31,0.18-0.77,0.05-0.94-0.26
			c-0.2-0.3-0.18-0.7,0.08-0.98c7.25-6.98,10.11-15.05,8.83-24.71c-3.54,1.62-5.76,5.14-7.9,8.52c-0.68,1.1-1.39,2.12-2.04,3.12
			c-0.18,0.18-0.31,0.35-0.44,0.54c-0.37,0.57-0.86,1.32-1.67,1.31c-0.45,0-0.89-0.26-1.27-0.73c-0.17-0.25-0.22-0.58-0.07-0.83
			c3.35-6.37,6.76-14.14,6.47-23.36l-0.02-0.4c-0.39-3.67-0.72-7.14-2.83-9.92c-0.69,0.03-1.31,0.91-1.92,1.79
			c-0.3,0.35-0.52,0.69-0.8,0.99c-0.68,1.73-1.31,3.54-1.91,5.28c-1.75,4.94-3.54,10.03-7.19,14.37c-0.25,0.28-0.63,0.33-0.98,0.16
			c-0.32-0.16-0.44-0.57-0.31-0.89c6.04-17.48,5.35-30.34-2.18-38.21c-1.81,3.27-2.61,7.04-3.45,11.07
			c-0.63,3.16-1.39,6.43-2.56,9.79c-0.08,0.34-0.48,0.47-0.86,0.47c-0.32-0.07-0.56-0.32-0.58-0.67c-0.17-2.09-0.15-4.29-0.12-6.39
			c0.09-4.24,0.19-8.66-1.39-12.37c-1.38-7.31-6.56-14.56-13.22-18.63c-0.34-0.06-0.64-0.19-0.93-0.3
			c-0.26-0.15-0.56-0.31-0.73-0.31c0,0-0.02,0-0.07,0.02c0.29,4.39,1.27,8.73,2.18,12.92C631.99,348.99,633.07,353.79,633.27,358.91
			z"/>
		<path d="M605.3,376.58c-2.67-1.44-5.46-2.94-8.24-3.04c-2.02,0.07-3.42,0.19-4.09,1.31c0.44-0.03,0.86-0.04,1.3-0.04
			c3.85,0.02,6.89,2.25,9.81,4.44c2.79,2.06,5.45,4.05,8.59,4.07c1.31,0.01,2.62-0.33,4-0.95c0.87-0.43,3.42-1.91,3.06-4.91
			c-1.84,1.49-3.72,2.21-5.82,2.2C611,379.64,608.1,378.09,605.3,376.58z"/>
		<path d="M523.96,494.6c0.15,0.14,0.4,0.27,0.64,0.27c0.15,0,0.27-0.01,0.47-0.35c2.24-4.76,5.43-9.19,8.76-13.87l1.25-1.73
			c0.12-0.15,0.31-0.29,0.54-0.29c0.16-0.1,0.43,0.05,0.6,0.14l12.41,10.99c0.52,0.56,0.93,0.74,1.1,0.74c0,0,0.18,0,0.36-0.32
			c0.76-0.98,1.34-2.39,0.97-3.53l-13.02-13c-0.28-0.23-0.31-0.63-0.15-0.93l8.17-13.96l0.55-1.94c-0.22-0.56-0.31-1.21-0.39-1.83
			c-0.2-1.63-0.36-2.36-1.46-2.57c-0.27,0-0.65,0.25-1.04,0.78l-0.58,1.08c-2.69,5.1-5.54,10.34-9.7,15.38
			c-0.13,0.17-0.33,0.23-0.52,0.25c-0.17,0.07-0.42-0.03-0.59-0.17l-14.72-12.88l-0.23-0.01c-0.89-0.13-1.66-0.21-2.16,0.21
			c-0.01,1.22,0,2.68,0.42,3.74l15.16,13.76c0.31,0.25,0.38,0.64,0.16,0.96l-8.63,15.05c-0.48,1.35,0.49,2.51,1.43,3.72
			L523.96,494.6z"/>
		<path d="M504.08,412.64c-1.51,0.29-3.05-0.18-4.46-0.67c-0.79-0.27-1.66-0.56-2.44-0.62c0.02,0.02-0.1,0.02-0.29,0.02
			c-0.49,0-1.08-0.1-1.65-0.18c-0.6-0.07-1.19-0.12-1.75-0.12c-1.05-0.01-1.47,0.25-1.67,0.69c3.52,6.66,10.62,12.24,18.67,14.54
			c0.28,0.06,0.51,0.34,0.56,0.67c0.02,0.29-0.13,0.56-0.42,0.74c-0.66,0.36-1.36,0.49-2.04,0.63c-1.08,0.21-2.2,0.45-3.41,1.46
			c3.39,2.6,7.54,3.97,12.55,4.15l0.26,0c2.97,0.02,5.59-1.37,7.17-3.65c0.48-2.53,0.32-4.59-0.46-5.81
			c-5.51-0.38-11.3-1.09-16.1-4.65c-0.3-0.23-0.42-0.61-0.27-0.89c0.14-0.35,0.5-0.58,0.86-0.48c3.14,0.59,6.54,1.1,10.27,1.12
			c2.04,0.01,3.99-0.09,6-0.4c0.08-0.62,0.1-1.1-0.14-1.35l-0.27-0.03c-2.66-0.43-5.36-0.88-7.55-2.85
			c-1.83-2.6-4.25-3.82-6.79-5.16c-1.82-0.92-3.7-1.86-5.31-3.28c-0.46-0.49-1.02-0.92-1.61-1.39c-1.74-1.36-3.69-2.91-3.83-5.09
			c-0.02-0.26,0.11-0.56,0.38-0.7c0.25-0.15,0.52-0.14,0.77,0l1.96,1.25c4.76,2.99,9.25,5.85,14.6,6.74
			c1.74-0.11,2.8-0.63,3.17-1.75l0.27-0.5c0.56-1.07,0.6-1.42,0.17-1.78c-5.3-3.76-14.66-11.5-16.75-21.08
			c-0.12-0.37,0.04-0.71,0.42-0.88c0.32-0.11,0.71-0.01,0.9,0.26c5.71,7.86,11.28,13.22,16.56,15.87c0.79-0.77,1.09-1.79,1.39-2.92
			c0.13-0.43,0.25-0.93,0.4-1.38c-0.48-0.35-0.97-0.65-1.56-1.01c-1.44-0.9-3.08-1.91-4.19-3.74c-1.07-1.3-0.18-2.51,0.34-3.26
			c0.17-0.2,0.31-0.42,0.4-0.6c-3.5-5.64-7.04-12.62-6.67-21.57c0.03-0.38,0.27-0.67,0.64-0.7c0.38,0,0.71,0.11,0.83,0.49
			c0.29,0.87,0.61,1.73,0.91,2.63c1.56,4.46,3.02,8.68,5.36,12.7c0.16,0.27,0.34,0.61,0.53,0.93c0.64,1.1,1.26,2.18,2.22,2.46
			c2.3-2.23,3.79-5.03,5.16-7.77c0.25-0.44,0.42-0.87,0.67-1.25c-1.92-1.84-2.89-4.4-3.06-7.97c0-0.1,0-0.23,0.08-0.33
			c0.36-0.93,1.06-1.39,2.01-1.38c0.3,0,0.7,0.08,1.01,0.1c0.54,0.11,1.1,0.11,1.25-0.01c0.08-0.08,0.23-0.14,0.32-0.16
			c0.37-0.07,0.87-0.36,1.08-0.71c0.15-0.23,0.1-0.37,0.08-0.41c-1.43-5.84-0.51-11.42,0.38-16.82c0.8-4.72,1.61-9.6,0.76-14.59
			c-0.15-1.37-0.86-1.38-1.14-1.38c-0.92-0.01-2.23,0.75-2.94,1.7c-6.46,7.52-9.64,17.37-9.41,29.36c0.03,0.4-0.29,0.73-0.63,0.79
			c-0.38,0-0.72-0.16-0.85-0.51c-0.62-2.11-0.99-4.38-1.4-6.56c-0.74-4.36-1.46-8.49-4.06-11.84c-0.07-0.03-0.1-0.03-0.1-0.03
			c-0.34,0-0.76,0.43-1.14,0.81l-0.26,0.26c-5.32,8.88-3.58,22.54-0.14,32.24c0.17,0.39,0,0.78-0.34,0.94
			c-0.32,0.2-0.69,0.11-0.94-0.16c-3.5-4.11-5.59-8.82-7.62-13.38c-0.54-1.28-1.16-2.6-1.75-3.86l-0.18-0.22
			c-0.92-1.18-1.98-2.54-3.36-2.65c-1.96,2.33-2.03,5.71-2.14,9.05c-0.03,0.9-0.06,1.81-0.11,2.67c1.7,10.37,4.84,18.47,9.86,25.25
			c0.22,0.3,0.17,0.74-0.03,0.97c-0.27,0.32-0.66,0.35-0.96,0.14c-2.47-1.52-4.55-3.83-6.55-6.05c-2.92-3.21-5.67-6.29-9.43-7.16
			c-0.69,0.57-0.65,1.72-0.49,3.28c0.07,0.59,0.14,1.14,0.11,1.73c1.75,6.76,6.35,18.97,17.62,25.65c0.24,0.17,0.41,0.46,0.32,0.78
			C504.63,412.32,504.38,412.61,504.08,412.64z"/>
		<path d="M532.22,462.53c0.2-0.07,0.42-0.11,0.61-0.16c1.17-0.29,1.91-0.48,2.26-1.28c0.53-0.91,0.6-2.54,0.18-3.58
			c-0.45-1.2-1.72-1.65-2.7-1.65c-0.87-0.01-1.64,0.3-2.15,0.86c-1.09,1-1.2,2.56-0.92,3.76
			C530.08,461.43,531.1,462.46,532.22,462.53z"/>
		<path d="M703.22,426.94c-2.14-3.27-4.56-5.83-7.06-7.44c-4.2-2.91-10.81-3.46-14.98-1.11c-9.63,4.83-10.33,15.65-9.91,21.68
			c0.05,0.43,0.07,0.86,0.14,1.29c0.3,2.87,0.7,6.42-1.68,8.69c-0.13,0.76,0.22,1.58,1.06,2.09c0.55,0.24,2.27,0.3,3.18-0.04
			c1.99-1.02,2.48-3.23,3.02-5.5c0.08-0.46,0.18-0.89,0.3-1.31c0.08-0.29,0.3-0.52,0.57-0.57c0.26-0.07,0.59,0.02,0.73,0.26
			c0.78,0.91,0.72,2.03,0.63,3.03c-0.04,0.46-0.08,0.87-0.01,1.3c-0.14,2.39-1.48,4.27-2.6,5.89c-0.23,0.34-0.44,0.62-0.69,0.96
			c0.48,0.44,1.12,0.67,2.01,0.68c0.83,0.01,1.89-0.22,2.72-0.4l0.72-0.17c3.71-1.49,4.67-5.55,5.1-8.93
			c0.04-0.48-0.18-0.98-0.42-1.53c-0.36-0.93-0.8-2.07-0.08-3.23c0.16-0.23,0.43-0.43,0.74-0.35c1.97,0.25,3.85-0.54,4.94-2.16
			c0.76-1.19,0.69-3.03,0.54-4.44c-0.53-0.94-1.07-0.47-1.79-0.01c-0.7,0.44-1.51,0.87-2.38,0.86c-0.72-0.01-1.37-0.26-1.96-0.83
			c-2.71-1.46-4.22-4.1-3.78-6.82c0.11-1.89,1.27-3.68,3.09-4.88c1.72-1.08,4.4-0.97,6.97,0.17c3.06,1.66,5.49,4.79,7.01,9.06
			c2.55,11.69,0.09,21.96-6.6,28.35c-3.13,2.89-7.4,4.55-11.76,4.52c-2.4-0.02-4.69-0.54-6.71-1.57c-4.55-3.04-6.17-7.56-7.73-11.92
			c-1.44-3.92-2.94-7.98-6.48-10.93c-6.6-7.97-15.68-11.07-24.52-14.04l-1.17-0.43c-1.78-0.74-3.42-1.44-5.1-2.14
			c-4.12-1.71-8.36-3.42-12.82-6.09c0.12,0.11,0.17,0.22,0.24,0.25c0.4,0.55,0.88,1.04,1.17,1.64c0.45,0.7,1.17,1.18,1.93,1.69
			c1.22,0.84,2.61,1.82,2.55,3.69c0,0.15-0.08,0.32-0.15,0.38c-2.03,2.94-5.38,4.59-9.17,4.57l-0.29,0c-0.69,0-1.22-0.28-1.71-0.51
			c-0.32-0.16-0.68-0.34-0.93-0.34c0.41,1.35,1.77,2.67,3.03,3.53c0.02,0.06,0.1,0.09,0.14,0.16c0.3,0.4,0.85,0.54,1.48,0.79
			c0.92,0.3,2.02,0.67,2.55,2.07c0.1,0.21,0.1,0.43-0.05,0.62c-1.38,2.34-3.77,4.15-6.72,5.02c-1.88,0.88-4.62,0.74-7.06,0.24
			c-2.2-0.3-4.28-0.52-5.88,0.15c-0.95,0.26-1.64,0.04-2.22-0.11c-0.33-0.11-0.62-0.11-0.89-0.16l0.6,1.42
			c0.57,1.38,1.16,2.84,1.15,4.66c0.55,5.46-1.51,10.53-5.88,14.15c-0.07,0.07-0.16,0.1-0.26,0.15c-0.29,0.06-0.71,0.32-1.1,0.59
			c-0.7,0.43-1.49,0.92-2.29,0.92c-0.48,0-1.21-0.2-1.74-1.09c-0.07-0.13-0.1-0.27-0.1-0.42c0.09-3.08-0.61-5.01-2.39-6.43
			c-0.16-0.13-0.26-0.28-0.47-0.42c-0.35-0.3-0.81-0.75-1.11-0.75c-0.09,0-0.19,0.09-0.32,0.24c-1.29,6.42-3.83,12.34-6.26,18.06
			c-0.72,1.73-1.46,3.45-2.15,5.14c-0.85,1.37-1.45,2.81-2.07,4.3c-1.69,3.92-3.63,8.38-8.62,9.7c-1.44,1.62-3.27,1.77-4.7,1.76
			c-0.64,0-1.26-0.01-1.91-0.06c-2.35-0.17-4.46-0.36-5.67,1.9c-0.12,0.16-0.35,0.29-0.5,0.3c-0.94,0.2-1.37,0.06-1.72-0.32
			c-0.39-0.44-0.34-1.02-0.31-1.48c0.05-0.65,0-0.67-0.17-0.73c-0.27-0.1-0.66-0.11-1.05-0.12c-1.53-0.01-2.99,0.61-3.74,1.7
			c-1.09,1.5-2.23,4.22-2.39,6.8c-0.08,0.93,0.36,1.78,1.18,2.35c0.95,0.25,1.98,0.06,2.58-0.39c0.39-0.27,0.58-0.83,0.84-1.51
			c0.45-1.21,1.06-2.71,3-3.35c0.04-0.05,0.12-0.05,0.12-0.05c0.27,0,0.41,0.1,0.55,0.19c0.99,0.74,1.11,1.91,1.2,2.95
			c0.11,1.31,0.23,2.11,1.31,2.49c0.43,0.3,0.78,0.4,1.15,0.41c1.6,0.01,3.44-1.55,3.64-1.9c0.05-0.07,0.13-0.52,0.2-0.78
			c0.15-1.08,0.46-2.88,2.12-2.87c0.39,0,0.78,0.29,0.85,0.69c0.01,0.47,0.03,0.94,0.08,1.47c0.02,0.66,0.07,1.74,0.24,1.99
			c0.22,0.13,1.37,0.5,4.73,0.52c1.98,0.01,4.1-0.11,5.73-0.32c3.42-0.13,6.65-2.44,8.22-5.93c0.72-0.91,1.05-1.9,1.4-2.97
			c0.56-1.63,1.19-3.29,2.79-4.51c0.46-0.49,1.15-0.77,2-0.77c0.5,0,0.99,0.08,1.45,0.23c0.54,0.06,1.1,0.21,1.49,0.09
			c1.61-2.19,0.76-5.61-0.56-8.04c-0.1-0.23-0.1-0.45-0.06-0.61c0.41-1.36,1.17-1.66,1.76-1.66c0.57,0,1.08,0.29,1.64,0.53
			c0.43,0.25,0.93,0.46,1.26,0.47c0.09-0.02,0.32-0.1,0.32-0.1c1.5,0.01,2.54-0.27,3.3-0.95l-0.1-0.55
			c-0.73-2.74-1.74-6.52,0.61-9.08c0.15-0.15,0.37-0.26,0.57-0.26c1.21,0.01,1.76,0.68,2.15,1.19c0.41,0.45,0.75,0.92,1.77,1.08
			c0.74-3.02,2.12-5.92,4.11-8.77c1.94-3.12,0.56-5.5-1.05-8.18c-1.59-2.72-3.39-5.77-1.21-9.7c0.2-0.51,0.87-1.84,2.22-1.84
			c0.64,0,1.27,0.24,2.03,0.84c0.2,0.13,0.29,0.3,0.3,0.52c0.01,0.21-0.01,0.45-0.21,0.62c-2.52,2.83-1.13,4.96,1.27,8.21
			c1.43,1.88,2.91,3.78,3.07,6.08c0.43,0.94,0.18,1.8-0.03,2.47c-0.17,0.87-0.27,1.15,0.06,1.53c1.09,0.25,2.09,0.43,2.68,0.13
			l0.42-0.5c2.62-3.35,5.37-6.79,8.96-9.75c2.49-2.69,5.93-3.97,10.69-3.94c2.2,0.01,4.6,0.33,6.83,0.59
			c1.82,0.25,3.6,0.49,5.3,0.52c0.12-0.09,0.12-0.17,0.24-0.6c0.07-0.54,0.2-1.35,1.14-1.79c0.3-0.19,0.64-0.22,0.94-0.22
			c1.13,0.01,1.94,0.92,2.54,1.74c0.47,0.91,0.54,1.93,0.23,2.79c-0.31,0.93-1,1.67-1.86,2.08c-3.41,0.75-6.42,0.14-9.45-0.44
			c-1.99-0.39-3.82-0.76-5.79-0.77c-1.38-0.01-2.58,0.17-3.76,0.54c-6.74,2.71-11.28,9.78-12.71,15.59
			c-0.54,4.68,2.76,8.11,5.69,10.14c1.78,1.08,3.86,1.95,5.86,2.85c4.4,1.84,9.02,3.8,12.44,8.58c0.62,1.29,0.23,2.53-1.03,3.39
			c-0.05,0.08-0.12,0.09-0.12,0.09c-1.33,0.39-2.48,0.52-3.78,0.51c-2.67-0.02-5.16-0.79-7.55-1.48c-2.32-0.67-4.52-1.33-6.74-1.34
			c-1.36-0.01-2.58,0.23-3.79,0.69c-0.44,0.14-0.65,0.42-0.98,0.93c-0.46,0.61-1.06,1.49-2.31,1.48c-0.12,0-0.21-0.04-0.37-0.14
			c-0.49-0.28-0.78-0.64-0.83-1.06c-0.14-0.72,0.3-1.24,0.67-1.66c0.09-0.23,0.33-0.48,0.37-0.65c-0.28-0.28-0.81-0.4-1.66-0.5
			c-0.42-0.04-0.71-0.11-0.93-0.12c-2.16-0.01-3.89,1.22-5.79,2.46c-0.34,0.21-0.64,0.43-0.98,0.65c-0.26,0.21-0.6,0.21-0.83-0.01
			c-0.29-0.14-0.36-0.48-0.34-0.77c0.05-0.1,0.05-0.21,0.08-0.35c0.1-0.27,0.2-0.57,0.2-1.23c-0.22,0-0.51,0.05-0.75,0.14
			c-0.38,0.06-0.73,0.17-1.09,0.19c-2.94,1.23-5.13,3.98-5.55,6.83c-0.18,1.96-0.07,3.48,1.25,4.4c0.19,0.12,0.47,0.2,0.81,0.21
			c0.89,0.01,1.8-0.59,2.4-1.1c0.58-0.58,1.18-0.96,1.87-0.96c0.96,0.01,1.69,0.77,2.32,1.43c0.51,0.47,1,0.96,1.46,0.96l0.25-0.01
			c1.44,0.01,2.77-0.61,4.22-1.93c0.46-0.52,1.13-0.85,1.84-0.84c1.4,0.01,2.59,1.09,3.12,2.19c0.83,0.71,1.93,0.52,3.25,0.15
			c0.91-0.25,1.87-0.57,2.87-0.37c12.64,0.28,25.81,0.41,38.77,0.24l5.19-0.89c1.3-0.54,2.1-1.89,1.92-3.37
			c-1.13-2.22-3.18-3.87-5.28-5.61c-1.08-0.85-2.18-1.75-3.19-2.75c-1.17-1.23-2.44-2.64-2.05-4.87c0.33-1.79,2.1-2.82,3.45-3.38
			c2.36-0.9,3.46-2.78,4.66-4.79c1.31-2.18,2.65-4.47,5.66-5.17c0.07-0.02,0.18-0.02,0.18-0.02c2.02,0.24,3.96,0.38,5.84,0.4
			c11.29,0.07,20.25-4.42,25.26-12.67C708.28,451.94,708.93,436.88,703.22,426.94z"/>
		<path d="M610.25,471.24l-0.22,0c-1.03-0.01-2.01-0.38-2.83-0.67c-0.93-0.38-1.76-0.71-2.56-0.44c-1.87,3.22-1.25,7.95,0.29,11.22
			c4.22,6.88,11.94,7.45,20.12,8.07c0.82,0.04,1.68,0.1,2.56,0.18c-0.1-0.15-0.28-0.34-0.61-0.68l-0.22-0.23
			c-1.39-0.81-2.98-1.43-4.66-2.12c-4.89-1.98-10.36-4.25-11.19-10.68c-0.39-0.83-0.37-1.76-0.37-2.59
			C610.62,472.35,610.62,471.7,610.25,471.24z"/>
		<path d="M524.71,477.68l0.17-0.33c0.45-0.93,0.71-1.56,0.36-2.14c-0.66-1.36-1.81-2.07-3.29-1.88c-0.91,0.23-1.96,1.26-1.88,2.29
			c-0.01,1.59,0.42,2.54,1.33,3.08C522.94,479.07,524.11,478.69,524.71,477.68z"/>
		<path d="M589.88,494.15c-3.17,1.65-4.93,4.72-4.53,7.79c0.16,1.07,0.92,2.4,2.11,2.79c0.33,0.05,0.86,0.08,1.35,0.08
			c1.03,0.01,1.76-0.2,2.23-0.69l0.06-1.05c0.2-2.44,0.45-5.2,1.76-7.5c0.23-0.78,0.78-1.39,1.26-1.89
			c0.22-0.24,0.42-0.49,0.64-0.69c-0.29,0.05-0.64,0.06-0.89,0.14C592.47,493.28,591.03,493.45,589.88,494.15z"/>
		<path d="M543.93,472.62l0.23,0.3c0.46,0.69,0.91,1.42,1.56,1.57c1.33,0.43,2.23-0.06,2.8-0.99c0.62-1.05,0.38-2.37,0.07-3.25
			c-0.28-0.61-1.06-1.06-2.02-1.07c-0.78,0-1.41,0.3-1.79,0.72C544.13,470.7,543.84,471.63,543.93,472.62z"/>
		<path d="M539.93,491.47c0.56-0.64,0.39-1.61,0.21-2.63c-0.06-0.23-0.11-0.51-0.15-0.75c-0.37-0.95-1.55-1.23-2.5-1.24
			c-0.49,0-1.03,0.1-1.52,0.24c-1.21,0.75-1.66,1.85-1.49,3.34c0.44,0.88,1.21,1.99,2.13,2.24
			C538.01,493.22,539.14,492.67,539.93,491.47z"/>
		<path d="M590.85,289.31c-73.67-0.46-133.99,59.09-134.45,132.75c-0.46,73.68,59.1,133.99,132.77,134.46
			c73.66,0.46,133.96-59.1,134.43-132.77C724.06,350.09,664.51,289.78,590.85,289.31z M589.21,549.91
			c-70.03-0.44-126.64-57.77-126.2-127.8c0.44-70.02,57.77-126.62,127.8-126.18c70.01,0.44,126.61,57.77,126.17,127.79
			C716.54,493.74,659.22,550.35,589.21,549.91z"/>
	</g>
</g>
</svg>
